<?xml version="1.0" encoding="UTF-8"?>
<svg id="a" data-name="Layer 1" xmlns="http://www.w3.org/2000/svg" width="400" height="400" viewBox="0 0 400 400">
  <rect x="195.986" y="187.683" width="71.763" height="57.823"/>
  <rect x="112.342" y="187.683" width="71.763" height="57.823"/>
  <path d="M361.453,110.485v-28.857l-2,.545v-2.546l-2,.545v-2.546l-2,.545v-2.546l-2,.545v-2.546l-2,.545v-2.546l-2,.545v-2.546l-2,.545v-2.546l-2,.545v-2.546l-2,.545v-2.546l-2,.545v-2.546l-2,.545v-2.546l-2,.545v-2.546l-2,.545v-2.546l-2,.545v-2.546l-2,.545v-2.546L52.641,127.6v28.857l2-.544v2.545l2-.544v2.545l2-.544v2.545l2-.544v2.545l2-.544v2.545l2-.544v2.545l2-.544v2.545l2-.544v2.545l2-.544v2.545l2-.544v2.545l2-.544v2.545l2-.544v2.545l2-.544v2.545l2-.544v2.545l2-.544v2.545l12.222-3.327c-.244,1.484-.403,2.997-.403,4.55v111.523c0,8.209,3.569,15.565,9.214,20.667.633.701,1.3,1.367,2,2,.633.701,1.3,1.367,2,2,.633.701,1.3,1.367,2,2,.633.701,1.3,1.367,2,2,.633.701,1.3,1.367,2,2,.633.701,1.3,1.367,2,2,.633.701,1.3,1.367,2,2,.633.701,1.3,1.367,2,2,.633.701,1.3,1.367,2,2,.633.701,1.3,1.367,2,2,.633.701,1.3,1.367,2,2,.633.701,1.3,1.367,2,2,.633.701,1.3,1.367,2,2,.633.701,1.3,1.367,2,2,5.102,5.645,12.459,9.214,20.667,9.214h139.404c15.398,0,27.881-12.482,27.881-27.881v-111.523c0-8.208-3.568-15.565-9.213-20.667-.633-.701-1.299-1.367-2-2-.633-.701-1.299-1.367-2-2-.633-.701-1.299-1.367-2-2-.633-.701-1.299-1.367-2-2-.633-.701-1.299-1.367-2-2-.633-.701-1.299-1.367-2-2-.633-.701-1.299-1.367-2-2-.633-.701-1.299-1.367-2-2-.633-.701-1.299-1.367-2-2-.633-.701-1.299-1.367-2-2-.633-.701-1.299-1.367-2-2-.633-.701-1.299-1.367-2-2-.633-.701-1.299-1.367-2-2-.633-.701-1.299-1.367-2-2-5.102-5.645-12.459-9.214-20.668-9.214h-25.759v-15.164l125.464-34.154ZM259.748,165.804c10.962,0,19.879,8.917,19.879,19.879v111.524c0,10.962-8.917,19.881-19.879,19.881H120.343c-10.962,0-19.879-8.919-19.879-19.881v-111.524c0-10.962,8.917-19.879,19.879-19.879h63.763v-55.971l-125.464,34.154v-12.275L321.448,60.097v12.271l-125.463,34.154v59.282h63.763Z"/>
</svg>