<?xml version="1.0" encoding="UTF-8"?>
<svg id="a" data-name="Layer 1" xmlns="http://www.w3.org/2000/svg" width="400" height="400" viewBox="0 0 400 400">
  <path d="M354.398,133.396c-.395-5.907-1.038-12.712-3.675-18.435-2.192-5.133-5.073-8.287-9.316-12.022l-.075-.069c-2.312-2.209-4.678-4.437-7.245-6.854-3.065-2.888-6.419-6.047-10.315-9.77l-49.473-46.837c-4.341-4.585-12.07-4.729-17.463-2.501-8.675,3.438-17.403,9.153-25.844,14.682-5.345,3.5-10.87,7.119-16.369,10.158-7.45,4.746-16.095,3.913-23.061,3.227-7.031-.365-13.599.642-19.528,2.999-6.683,2.533-12.132,7.6-17.9,12.963-.951.884-1.903,1.77-2.863,2.645-3.86,3.575-7.735,7.191-11.572,10.794-14.283,13.414-27.671,26.335-40.617,38.83-6.144,5.928-12.311,11.88-18.63,17.941-1.039,1.027-2.141,2.072-3.247,3.121-4.095,3.883-8.329,7.897-10.789,12.557-3.549,7.267-4.721,15.984-3.653,27.368.1.941.224,1.919.349,2.899.571,4.487,1.162,9.127-.197,13.603-1.529,6.191-6.935,14.853-12.656,24.02-8.497,13.614-19.072,30.559-15.523,38.688,1.901,4.527,5.408,7.997,9.12,11.671,1.368,1.354,2.782,2.753,4.143,4.232,18.796,19.128,30.75,31.233,45.623,46.2l.292.316c16.187,19.732,26.459,19.633,48.955,19.419,2.782-.027,5.738-.052,8.879-.046,23.395-.129,47.136-.106,70.091-.086,39.876.035,77.562.071,112.64-.626,5.922-4.52,13.28-10.99,16.453-15.107,2.204-3.334,2.495-6.593,2.791-12.009-1.289-30.354-.347-62.082.564-92.767.998-33.603,2.03-68.351.114-101.204ZM238.264,80.167l.078-.098c2.157-2.553,4.944-4.153,7.639-5.701.512-.294,1.022-.587,1.524-.885l.819-.47c3.853-2.212,8.649-4.95,13.216-4.415,4.546.343,7.671,3.493,9.956,5.796l20.846,20.581c.379.38.75.741,1.12,1.102,2.928,2.852,6.246,6.083,6.293,11.21.077,3.747-1.391,6.672-2.943,9.769l-.119.237c-.555,1.013-1.061,1.995-1.575,2.992-1.623,3.145-3.3,6.396-5.503,8.959l-.23.25c-2.085,2.412-5.287,3.486-8.25,3.486-1.605,0-3.141-.314-4.391-.902-2.397-1.112-4.02-2.792-5.588-4.417-.439-.455-.887-.918-1.361-1.378l-19.808-20.101c-3.91-3.968-7.357-7.466-9.458-9.604-5.2-4.602-6.135-11.337-2.265-16.412ZM135.314,285.704l-.083.29c-.825,2.905-2.931,4.282-4.968,5.613-.273.18-.558.365-.851.562l-.093.06c-3.321,2.021-6.844,3.994-10.186,5.704-4.126,2.128-11.296,5.303-17.322,5.303-1.141,0-2.239-.113-3.271-.37l-.116-.032c-2.581-.776-4.179-2.561-6.321-5.195-1.748-2.164-3.778-4.69-5.885-7.312-3.998-4.973-8.132-10.115-11.211-13.884-.706-.876-1.398-1.702-2.069-2.502-5.552-6.623-10.797-12.881-2.383-23.276,2.792-4.288,10.01-15.233,19.364-11.037l.357.167c2.936,1.625,5.794,4.538,8.558,7.355,1.392,1.417,2.705,2.756,3.961,3.866l.087.08,26.579,25.829c.837.868,1.564,1.55,2.207,2.15,2.017,1.886,3.759,3.515,3.655,6.327l-.011.302ZM199.413,267.235l-.131.112c-4.266,3.658-8.677,7.439-13.854,10.059-2.868,1.56-5.6,2.224-8.2,2.224-8.535,0-15.67-7.139-21.681-13.151-1.561-1.562-3.035-3.036-4.467-4.329-19.233-18.327-29.825-29.084-49.324-50.089l-.097-.111c-1.219-1.479-2.699-2.97-4.267-4.548-4.84-4.875-10.326-10.4-9.704-17.7l.023-.187c.822-5.094,5.298-9.802,8.894-13.585l.628-.661c2.912-2.983,5.812-5.938,8.73-8.909,3.741-3.812,7.514-7.654,11.324-11.569l1.066-1.095c25.073-25.736,30.298-31.101,55.36-53.413,6.869-6.633,16.934-10.947,24.016-5.705l.381.273c25.491,21.844,51.959,45.058,70.844,67.604,6.276,7.673,12.207,16.747,3.323,27.642-26.966,32.484-51.478,58.432-72.866,77.14ZM304.962,226.245c-.189,7.883-9.582,20.896-19.774,27.37-4.073,2.588-7.899,3.897-11.297,3.897-1.648,0-3.196-.308-4.624-.928-3.211-1.045-5.817-3.671-6.991-7.056-1.121-3.234-.732-6.583,1.066-9.188,2.757-3.727,5.874-6.959,9.175-10.38,1.965-2.037,3.996-4.143,6.075-6.475l.07-.075c.797-.823,1.6-1.694,2.39-2.553,2.284-2.479,4.442-4.82,6.387-5.975l.171-.102c3.413-2.085,7.682-1.966,11.39.335,3.972,2.463,6.304,6.822,5.963,11.127Z"/>
</svg>