<?xml version="1.0" encoding="UTF-8"?>
<svg id="a" data-name="Layer 1" xmlns="http://www.w3.org/2000/svg" width="400" height="400" viewBox="0 0 400 400">
  <path d="M345.651,172.007c-1.153-13.329-6.709-18.047-15.914-25.862-1.128-.958-2.298-1.951-3.505-3.001-16.028-13.933-33.09-27.379-49.59-40.383-11.908-9.384-24.221-19.088-36.057-28.905-6.262-5.199-14.547-5.854-22.56-6.489-5.502-.435-10.697-.846-15.408-2.599-2.209-.822-4.226-2.308-6.175-3.744-1.533-1.129-2.98-2.196-4.427-2.894-12.556-6.055-20.456-8.439-34.084-6.58-7.181.982-11.931,4.07-16.96,7.34-3.32,2.159-6.754,4.392-10.852,5.888-5.686,2.076-10.797,2.506-15.74,2.922-7.112.599-13.831,1.164-22.527,6.377-11.119,6.666-14.035,13.625-17.412,21.682-1.817,4.336-3.696,8.819-6.937,13.651-3.52,5.249-7.488,8.542-11.326,11.728-6.177,5.125-12.01,9.966-15.307,23.038-2.795,11.085-1.11,16.959.673,23.179,1.149,4.009,2.338,8.153,2.491,13.738.094,3.424-1.105,7.649-2.376,12.122-1.113,3.92-2.264,7.975-2.444,11.275-.601,10.992,2.636,21.964,9.359,31.729l.142.233c8.036,14.931,14.571,33.29,20.891,51.045,7.125,20.014,14.491,40.709,23.964,56.337,5.056,8.34,13.125,13.817,22.158,15.048l203.014.047c13.694-1.098,24.688-11.09,26.844-24.37-1.614-25.17-.64-51.993.304-77.936,1.03-28.333,2.095-57.631-.239-84.616ZM266.879,212.423c-1.608,7.966-7.818,12.676-13.823,17.23-3.523,2.672-6.851,5.195-9.009,8.207-2.27,3.166-3.68,7.141-5.173,11.348-1.46,4.115-2.97,8.37-5.393,11.891-6.916,10.05-16.075,10.264-24.933,10.47-4.467.104-9.087.213-13.419,1.622-3.379,1.1-6.698,3.439-10.212,5.917-5.588,3.939-11.365,8.014-18.543,8.014s-12.955-4.073-18.542-8.013c-3.515-2.479-6.834-4.818-10.213-5.918-3.948-1.284-8.338-1.402-12.984-1.527-6.505-.175-13.23-.355-18.833-4.003-6.694-4.357-9.31-11.522-11.84-18.451-1.534-4.202-2.983-8.172-5.26-11.349-2.172-3.03-5.484-5.53-8.992-8.177-5.693-4.297-11.58-8.738-13.487-16.147-1.792-6.959.189-13.409,2.106-19.646,1.25-4.069,2.432-7.914,2.506-11.687.089-4.455-1.269-8.853-2.58-13.106-2.6-8.43-5.288-17.146,2.33-26.843,2.397-3.053,6.055-5.705,9.592-8.27,3.303-2.395,6.718-4.872,8.565-7.353,2.161-2.903,3.789-7.541,5.364-12.025,1.8-5.125,3.66-10.424,6.548-13.984,5.977-7.371,15.921-7.803,24.693-8.183,4.085-.178,7.942-.345,11.147-1.147,3.104-.778,7.089-3.532,10.943-6.196,4.514-3.119,9.182-6.346,13.507-7.243,10.688-2.211,17.972,2.949,24.405,7.504,3.921,2.775,7.623,5.396,11.769,6.233,2.954.596,6.418.722,10.087.855,7.802.284,16.646.606,22.635,5.957,4.334,3.87,6.637,10.305,8.864,16.526,1.625,4.54,3.16,8.828,5.301,11.703,1.857,2.494,5.317,4.992,8.663,7.407,3.837,2.769,7.804,5.632,10.191,8.985,6.781,9.527,4.165,17.858,1.636,25.915-1.229,3.915-2.501,7.964-2.582,12.072-.081,4.049,1.202,8.336,2.56,12.874,1.805,6.031,3.671,12.269,2.404,18.537Z"/>
  <path d="M154.084,216.481c4.032,2.274,8.518,2.327,12.618.13l53.169-53.619c1.649-5.129.738-10.291-2.478-13.899-3.293-3.695-8.292-5.098-13.712-3.849-3.918.902-14.825,12.751-22.789,21.403-7.345,7.979-14.283,15.518-18.553,18.27l-.426.273-.498.088c-2.647.451-5.271-2.074-11.597-8.888-2.514-2.708-5.642-6.078-6.897-6.724-5.992-3.082-11.603-.991-14.855,1.989-3.329,3.052-5.952,8.597-3.39,15.045,2.072,3.024,26.713,27.99,29.407,29.78Z"/>
</svg>