<?xml version="1.0" encoding="UTF-8"?>
<svg id="a" data-name="Layer 1" xmlns="http://www.w3.org/2000/svg" width="400" height="400" viewBox="0 0 400 400">
  <path d="M388.84,229.402l-.299-.758c-9.093-22.005-18.909-45.589-29.051-68.917l-.572-1.365c-1.83-4.389-3.903-9.363-7.125-12.595l-.207-.191c-27.72-23.371-83.048-69.988-121.532-102.411l-35.8-30.164c-.083-.07-.162-.146-.237-.227-5.307-5.702-12.392-7.635-18.151-4.918-5.403,2.549-8.721,8.562-9.103,16.495l-.005.195c-.031,9.405-.025,23.267-.019,35.661.004,7.617.007,14.679.001,19.807,0,.014-.002.028-.002.041-.108,1.963-1.44,3.51-3.104,3.513-14.817.026-54.83.018-88.026.011-25.113-.006-46.534-.011-50.841.002-4.127.096-9.723,2.585-13.057,9.285l-.094.202c-2.482,5.786-2.266,11.365-2.059,16.762.103,2.662.209,5.413.006,8.278l-.011.279c-.026,4.038-.066,8.607-.108,13.529-.494,57.932-.277,90.536,2.304,96.97,5.828,13.954,11.956,28.472,17.882,42.513,4.298,10.182,8.58,20.327,12.758,30.281.078.185.138.38.186.579,3.755,15.514,28.739,15.275,57.596,15.006,4.86-.046,9.886-.093,14.88-.062,6.848-.083,14.996-.449,22.874-.805,12.139-.545,24.68-1.111,33.106-.685.739.037,1.443.37,1.976.975,1.855,2.105,3.722,7.098,5.048,10.643.965,2.582,1.877,5.02,2.825,6.848,1.465,3.023,3.33,8.068,5.49,13.909,7.504,20.295,16.737,45.27,28.872,45.267.728,0,1.468-.09,2.217-.276l.282-.07.266-.13c8.997-4.39,58.627-46.791,117.7-97.582,24.118-20.737,44.947-38.647,49.055-41.628l.179-.139c5.753-4.849,7.621-16.516,3.898-24.129ZM32.245,212.775l-.004-93.684c0-2.036,1.396-3.687,3.117-3.687l150.764.005c1.722,0,3.117-1.65,3.117-3.686v-58.332c0-2.995,2.86-4.74,4.924-3.005l133.401,112.137c1.745,1.467,1.749,4.53.008,6.003l-133.405,112.864c-2.063,1.745-4.931.002-4.931-2.998v-58.243c0-2.036-1.396-3.686-3.117-3.686H35.362c-1.722,0-3.117-1.65-3.117-3.686Z"/>
</svg>