<?xml version="1.0" encoding="UTF-8"?>
<svg id="a" data-name="Layer 1" xmlns="http://www.w3.org/2000/svg" width="400" height="400" viewBox="0 0 400 400">
  <polygon points="156.895 306.018 188.256 306.018 188.682 303.855 156.469 303.855 156.895 306.018" fill="none"/>
  <polygon points="182.673 261.758 195.073 261.758 200.099 251.42 186.026 251.42 182.673 261.758" fill="none"/>
  <polygon points="159.599 281.629 156.472 297.493 188.679 297.493 185.546 281.629 179.734 281.629 165.414 281.629 159.599 281.629" fill="none"/>
  <rect x="168.595" y="268.12" width="7.959" height="7.148" fill="none"/>
  <polygon points="202.147 261.758 209.018 261.758 215.721 251.42 207.173 251.42 202.147 261.758" fill="none"/>
  <path d="M226.246,99.372h-10.259c-.878,0-1.59-.713-1.59-1.59v-12.307c0-.878.713-1.59,1.59-1.59h8.369c-3.566-13.262-12.069-24.487-23.441-31.6h-22.938c-.878,0-1.59-.713-1.59-1.59v-6.397c-3.111-.219-4.415-.226-7.638,0l-.003,6.4c0,.878-.713,1.59-1.59,1.59h-22.938c-11.369,7.113-19.872,18.338-23.441,31.6h25.496c.878,0,1.59.713,1.59,1.59v12.307c0,.878-.713,1.59-1.59,1.59h-27.385v4.313h107.358v-4.317ZM158.613,59.699c.156-.735.805-1.26,1.556-1.26h24.815c.751,0,1.4.525,1.556,1.26l5.411,25.448c.099.468-.019.958-.321,1.33-.302.375-.76.592-1.237.592h-35.64c-.477,0-.932-.216-1.228-.592-.302-.372-.42-.862-.321-1.33l5.411-25.448ZM191.981,97.785c0,.878-.713,1.59-1.59,1.59h-35.64c-.878,0-1.591-.713-1.591-1.59v-3.636c0-.878.713-1.59,1.59-1.59h35.64c.878,0,1.59.713,1.59,1.59v3.636ZM202.777,97.785c-3.394,0-6.158-2.761-6.158-6.155s2.764-6.155,6.158-6.155,6.152,2.761,6.152,6.155-2.761,6.155-6.152,6.155Z" fill="none"/>
  <path d="M217.585,96.194h8.585c-.095-3.111-.398-6.168-.996-9.126h-7.59v9.126Z" fill="none"/>
  <rect x="125.168" y="220.933" width="13.208" height="17.737" fill="none"/>
  <polygon points="165.811 251.42 169.161 261.758 175.984 261.758 179.337 251.42 165.811 251.42" fill="none"/>
  <path d="M183.688,61.62h-22.238l-4.733,22.267h31.708l-4.737-22.267ZM172.571,81.183c-4.656,0-8.43-3.774-8.43-8.43s3.774-8.429,8.43-8.429,8.429,3.774,8.429,8.429-3.774,8.43-8.429,8.43Z" fill="none"/>
  <path d="M202.777,88.659c-1.638,0-2.977,1.333-2.977,2.974s1.336,2.974,2.977,2.974,2.971-1.333,2.971-2.974-1.333-2.974-2.971-2.974Z" fill="none"/>
  <path d="M144.686,87.068h-24.716c-.601,2.958-.907,6.015-.999,9.126h25.715v-9.126Z" fill="none"/>
  <rect x="118.892" y="110.057" width="107.358" height="2.726" fill="none"/>
  <polygon points="159.125 251.42 145.046 251.42 150.068 261.758 162.474 261.758 159.125 251.42" fill="none"/>
  <polygon points="129.43 251.42 136.13 261.758 143 261.758 137.978 251.42 129.43 251.42" fill="none"/>
  <path d="M114.995,277.885c-.283-1.505-1.597-2.596-3.127-2.596h-4.406v-2.876c1.524-.236,2.71-1.495,2.71-3.086V115.964c0-1.756-1.422-3.181-3.181-3.181h-25.976c-1.759,0-3.181,1.425-3.181,3.181v66.139c0,1.587,1.18,2.847,2.704,3.085v48.698c-1.524.239-2.704,1.498-2.704,3.085v32.357c0,1.587,1.18,2.847,2.704,3.086v2.876h-4.393c-1.53,0-2.847,1.091-3.127,2.596l-6.448,34.584c-.089.324.022,1.161.191,1.82l3.706,9.587c.471,1.228,1.654,2.036,2.968,2.036h41.13c1.314,0,2.494-.808,2.968-2.036l3.741-9.673c.124-.315.27-1.132.162-1.73l-6.442-34.587ZM84.197,119.145h19.614v59.777h-19.614v-59.777ZM103.808,185.284v48.51h-16.91v-48.51h16.91ZM84.197,240.156h19.614v25.989h-19.614v-25.989ZM101.101,272.506v2.78h-14.203v-2.78h14.203ZM112.384,319.547h-36.766l-1.279-3.315h39.327l-1.282,3.315ZM73.525,309.87l5.261-28.222h30.432l5.255,28.222h-40.949Z" fill="none"/>
  <path d="M165.573,44.615c-5.465.719-10.663,2.255-15.485,4.492h15.482l.003-4.492Z" fill="none"/>
  <path d="M179.572,44.618v4.491h15.482c-4.822-2.239-10.017-3.776-15.482-4.491Z" fill="none"/>
  <path d="M226.25,119.145h-107.358v125.912h107.358v-125.912ZM141.556,240.261c0,.878-.713,1.59-1.59,1.59h-16.389c-.878,0-1.59-.713-1.59-1.59v-20.918c0-.878.713-1.59,1.59-1.59h16.389c.878,0,1.59.713,1.59,1.59v20.918ZM139.966,211.603h-8.194c-.878,0-1.59-.713-1.59-1.59s.713-1.59,1.59-1.59h8.194c.878,0,1.59.713,1.59,1.59s-.713,1.59-1.59,1.59ZM139.966,204.379h-8.194c-.878,0-1.59-.713-1.59-1.59s.713-1.59,1.59-1.59h8.194c.878,0,1.59.713,1.59,1.59s-.713,1.59-1.59,1.59ZM139.966,197.152h-8.194c-.878,0-1.59-.713-1.59-1.59s.713-1.59,1.59-1.59h8.194c.878,0,1.59.713,1.59,1.59s-.713,1.59-1.59,1.59ZM139.966,189.928h-8.194c-.878,0-1.59-.713-1.59-1.59s.713-1.59,1.59-1.59h8.194c.878,0,1.59.713,1.59,1.59s-.713,1.59-1.59,1.59ZM139.966,182.701h-8.194c-.878,0-1.59-.713-1.59-1.59s.713-1.59,1.59-1.59h8.194c.878,0,1.59.713,1.59,1.59s-.713,1.59-1.59,1.59ZM172.571,241.851c-7.017,0-12.724-5.706-12.724-12.724s5.707-12.73,12.724-12.73,12.73,5.71,12.73,12.73-5.71,12.724-12.73,12.724ZM185.301,210.013c0,.878-.713,1.59-1.59,1.59h-22.273c-.878,0-1.59-.713-1.59-1.59v-47.661c0-.878.713-1.59,1.59-1.59h22.273c.878,0,1.59.713,1.59,1.59v47.661ZM210.036,152.631c0,.878-.713,1.59-1.59,1.59h-71.747c-.881,0-1.59-.709-1.59-1.59v-2.596c0-.878.713-1.59,1.59-1.59h71.747c.878,0,1.59.713,1.59,1.59v2.596ZM210.036,140.455c0,.878-.713,1.59-1.59,1.59h-71.747c-.881,0-1.59-.709-1.59-1.59v-2.596c0-.878.713-1.59,1.59-1.59h71.747c.878,0,1.59.713,1.59,1.59v2.596ZM210.036,128.281c0,.878-.713,1.59-1.59,1.59h-71.747c-.881,0-1.59-.713-1.59-1.59v-2.596c0-.878.713-1.59,1.59-1.59h71.747c.878,0,1.59.713,1.59,1.59v2.596Z" fill="none"/>
  <rect x="163.028" y="163.943" width="19.092" height="44.48" fill="none"/>
  <path d="M272.135,277.882c-.283-1.508-1.597-2.596-3.127-2.596h-4.393v-2.876c1.524-.239,2.704-1.498,2.704-3.085v-32.357c0-1.587-1.18-2.847-2.704-3.086v-48.694c1.524-.239,2.704-1.498,2.704-3.085v-66.139c0-1.756-1.422-3.181-3.181-3.181h-25.976c-1.759,0-3.181,1.425-3.181,3.181v153.361c0,1.59,1.183,2.85,2.71,3.085v2.876h-4.399c-1.53,0-2.847,1.094-3.127,2.596l-6.448,34.587c-.108.598.038,1.416.162,1.73l3.741,9.673c.471,1.228,1.654,2.036,2.968,2.036h41.13c1.314,0,2.494-.808,2.968-2.036l3.703-9.584s.003-.003.003-.003c.165-.655.277-1.492.191-1.819l-6.448-34.584ZM241.34,119.145h19.614v59.777h-19.614v-59.777ZM241.34,185.284h16.91v48.51h-16.91v-48.51ZM241.34,240.156h19.614v25.989h-19.614v-25.989ZM258.254,272.506v2.78h-14.203v-2.78h14.203ZM269.536,319.547h-36.769l-1.282-3.315h39.329l-1.279,3.315ZM230.678,309.87l5.255-28.222h30.432l5.261,28.222h-40.949Z" fill="none"/>
  <path d="M172.571,219.578c-5.261,0-9.543,4.285-9.543,9.549s4.282,9.543,9.543,9.543,9.549-4.281,9.549-9.543-4.285-9.549-9.549-9.549Z" fill="none"/>
  <polygon points="104.282 281.648 83.716 281.648 78.786 281.648 73.525 309.87 114.473 309.87 109.218 281.648 104.282 281.648" fill="#323232"/>
  <path d="M347.28,354.975c-.485-2.289-1.022-5.921-1.594-9.767-2.42-16.271-4.259-26.603-9.139-31.723-.177-.193-.357-.373-.537-.547.904-6.3.64-13.706.401-20.453-.106-2.988-.208-5.812-.171-7.943l.003-.255-.009-.255c-.012-.304.003-.568.012-.805.05-1.544.149-4.424-1.584-7.608-.323-.609-.674-1.149-1.025-1.625-.019-4.405-.003-12.065.012-19.533.019-8.098.034-16.389.012-21.4.829-1.497,1.342-3.054,1.575-4.38,1.361-7.024,1.41-12.938,1.466-19.782.012-1.485.025-3.029.053-4.809.003-8.546-.208-17.644-.395-25.675-.162-6.915-.345-14.752-.158-16.725.59-7.592-5.222-11.662-7.704-13.401-.264-.183-.522-.357-.808-.578-4.675-3.548-9.384-7.07-14.094-10.59-4.501-3.367-9.002-6.732-13.469-10.118-6.443-27.762-28.97-43.569-48.867-57.531-6.629-4.653-12.904-9.055-18.617-13.803-24.031-25.849-60.047-34.649-89.819-21.88-25.982,11.138-41.151,36.261-41.666,68.186-1.817-.087-3.569-.071-5.16-.062l-1.221.019c-3.06.155-5.738.193-8.077.227-3.165.043-5.899.084-8.409.379l-1.078.127-1.022.367c-9.913,3.551-9.307,13.637-9.108,16.952.043.752.106,1.78.062,2.184l-.062,26.762c0,14.569-.003,28.887.009,31.595-.059,3.19,1.243,5.716,2.613,7.564.146,11.817.14,30.198.059,40.731-1.333,1.851-2.824,4.74-2.513,8.518.071,1.314-.068,5.25-.193,8.732-.062,1.827-.134,3.784-.196,6.085,0,1.078-.022,2.178-.043,3.29-.078,3.718-.162,7.946.565,12.19-.618.457-1.218.997-1.78,1.64-1.438,1.513-2.457,3.311-3.032,5.352l-.23,1.038c-.308,1.889-.836,4.566-1.395,7.403-.634,3.228-1.305,6.648-1.777,9.456-.575,3.414-1.184,6.471-1.702,9.08-.805,4.048-1.385,6.974-1.519,9.375l-.059,1.022.162,1.01c.932,5.865,3.855,16.38,12.997,21.863,6.371,4.762,12.733,9.543,19.098,14.327,11.332,8.518,22.671,17.039,34.065,25.46,3.902,3.485,8.064,4.368,11.31,4.74,7.608.864,18.266.593,27.675.354,4.796-.124,9.338-.236,12.177-.149l.283.006.286-.006c9.599-.28,12.997-10.431,14.628-15.308.146-.432.27-.814.419-1.221,1.724-4.815,1.308-7.822.584-11.251-.062-.289-.127-.6-.199-.966,4.672,3.557,9.462,7.176,14.171,10.546,3.072,2.42,5.539,3.771,10.062,4.396,6.66.985,17.564.659,26.321.395,3.302-.099,6.716-.196,8.226-.162,3.252.376,6.421-.444,9.015-2.327,1.32-.954,2.373-2.088,3.221-3.315,2.886,2.165,5.781,4.324,8.67,6.48,3.212,2.395,6.418,4.79,9.658,7.222,3.119,2.361,6.648,5.032,13.053,5.405,3.541.376,8.011.497,12.724.497,5.163,0,10.615-.146,15.458-.28,3.787-.103,8.496-.236,9.636-.143l.572.031c.13.003.258.006.385.006,10.279,0,13.622-10.245,14.889-14.128.221-.668.41-1.305.631-1.82l.137-.335c.584-1.519.975-3.106,1.196-4.858l.112-2.392-.233-1.106ZM226.17,96.194h-8.585v-9.126h7.59c.598,2.958.9,6.015.996,9.126ZM179.572,44.618c5.465.716,10.659,2.252,15.482,4.491h-15.482v-4.491ZM165.573,44.615l-.003,4.492h-15.482c4.822-2.236,10.02-3.773,15.485-4.492ZM119.97,87.068h24.716v9.126h-25.715c.092-3.111.398-6.168.999-9.126ZM118.889,99.375h27.385c.878,0,1.59-.713,1.59-1.59v-12.307c0-.878-.713-1.59-1.59-1.59h-25.496c3.569-13.262,12.072-24.487,23.441-31.6h22.938c.878,0,1.59-.713,1.59-1.59l.003-6.4c3.222-.226,4.527-.219,7.638,0v6.397c0,.878.713,1.59,1.59,1.59h22.938c11.372,7.113,19.875,18.338,23.441,31.6h-8.369c-.878,0-1.59.713-1.59,1.59v12.307c0,.878.713,1.59,1.59,1.59h10.259v4.317h-107.358v-4.313ZM226.25,110.057v2.726h-107.358v-2.726h107.358ZM121.274,314.202l-3.741,9.673c-.474,1.228-1.654,2.036-2.968,2.036h-41.13c-1.314,0-2.497-.808-2.968-2.036l-3.706-9.587c-.169-.659-.28-1.495-.191-1.82l6.448-34.584c.28-1.505,1.597-2.596,3.127-2.596h4.393v-2.876c-1.524-.239-2.704-1.498-2.704-3.086v-32.357c0-1.587,1.18-2.847,2.704-3.085v-48.698c-1.524-.239-2.704-1.498-2.704-3.085v-66.139c0-1.756,1.422-3.181,3.181-3.181h25.976c1.759,0,3.181,1.425,3.181,3.181v153.364c0,1.59-1.186,2.85-2.71,3.086v2.876h4.406c1.53,0,2.844,1.091,3.127,2.596l6.442,34.587c.108.598-.038,1.416-.162,1.73ZM136.13,261.758l-6.699-10.338h8.547l5.023,10.338h-6.871ZM145.046,251.42h14.079l3.35,10.338h-12.406l-5.023-10.338ZM175.984,261.758h-6.823l-3.349-10.338h13.525l-3.353,10.338ZM176.553,268.12v7.148h-7.959v-7.148h7.959ZM179.734,281.629h5.812l3.133,15.864h-32.207l3.127-15.864h20.135ZM188.256,306.018h-31.361l-.426-2.163h32.214l-.426,2.163ZM195.073,261.758h-12.399l3.353-10.338h14.073l-5.026,10.338ZM209.018,261.758h-6.871l5.026-10.338h8.547l-6.702,10.338ZM123.577,245.058h-4.685v-125.912h107.358v125.912h-102.672ZM278.392,314.285s0,.003-.003.003l-3.703,9.584c-.474,1.228-1.654,2.036-2.968,2.036h-41.13c-1.314,0-2.497-.808-2.968-2.036l-3.741-9.673c-.124-.315-.27-1.132-.162-1.73l6.448-34.587c.28-1.501,1.597-2.596,3.127-2.596h4.399v-2.876c-1.527-.235-2.71-1.495-2.71-3.085V115.964c0-1.756,1.422-3.181,3.181-3.181h25.976c1.759,0,3.181,1.425,3.181,3.181v66.139c0,1.587-1.18,2.847-2.704,3.085v48.694c1.524.239,2.704,1.498,2.704,3.086v32.357c0,1.587-1.18,2.847-2.704,3.085v2.876h4.393c1.53,0,2.844,1.088,3.127,2.596l6.448,34.584c.086.328-.025,1.164-.191,1.819Z" fill="#323232"/>
  <polygon points="75.618 319.547 112.384 319.547 113.665 316.232 74.339 316.232 75.618 319.547" fill="#323232"/>
  <polygon points="232.767 319.547 269.536 319.547 270.815 316.232 231.486 316.232 232.767 319.547" fill="#323232"/>
  <polygon points="261.434 281.648 240.869 281.648 235.933 281.648 230.678 309.87 271.626 309.87 266.365 281.648 261.434 281.648" fill="#323232"/>
  <path d="M172.571,64.324c-4.656,0-8.43,3.774-8.43,8.429s3.774,8.43,8.43,8.43,8.429-3.774,8.429-8.43-3.774-8.429-8.429-8.429Z" fill="#323232"/>
  <rect x="241.34" y="240.156" width="19.614" height="25.989" fill="#323232"/>
  <rect x="241.34" y="185.284" width="16.91" height="48.51" fill="#323232"/>
  <rect x="241.34" y="119.145" width="19.614" height="59.777" fill="#323232"/>
  <rect x="156.341" y="95.743" width="32.459" height=".455" fill="#323232"/>
  <rect x="244.05" y="272.506" width="14.203" height="2.78" fill="#323232"/>
  <path d="M154.751,87.068h35.64c.477,0,.935-.216,1.237-.592.302-.372.42-.862.321-1.33l-5.411-25.448c-.156-.735-.805-1.26-1.556-1.26h-24.815c-.751,0-1.4.525-1.556,1.26l-5.411,25.448c-.099.468.019.958.321,1.33.296.375.751.592,1.228.592ZM161.45,61.62h22.238l4.737,22.267h-31.708l4.733-22.267Z" fill="#323232"/>
  <path d="M183.71,160.762h-22.273c-.878,0-1.59.713-1.59,1.59v47.661c0,.878.713,1.59,1.59,1.59h22.273c.878,0,1.59-.713,1.59-1.59v-47.661c0-.878-.713-1.59-1.59-1.59ZM182.12,208.422h-19.092v-44.48h19.092v44.48Z" fill="#323232"/>
  <path d="M190.391,92.559h-35.64c-.878,0-1.59.713-1.59,1.59v3.636c0,.878.713,1.59,1.591,1.59h35.64c.878,0,1.59-.713,1.59-1.59v-3.636c0-.878-.713-1.59-1.59-1.59ZM188.8,96.198h-32.459v-.455h32.459v.455Z" fill="#323232"/>
  <path d="M202.777,85.475c-3.394,0-6.158,2.761-6.158,6.155s2.764,6.155,6.158,6.155,6.152-2.761,6.152-6.155-2.758-6.155-6.152-6.155ZM202.777,94.607c-1.641,0-2.977-1.333-2.977-2.974s1.339-2.974,2.977-2.974,2.971,1.333,2.971,2.974-1.333,2.974-2.971,2.974Z" fill="#323232"/>
  <rect x="135.108" y="136.268" width="74.928" height="5.777" rx="1.59" ry="1.59" fill="#323232"/>
  <rect x="135.108" y="148.445" width="74.928" height="5.777" rx="1.59" ry="1.59" fill="#323232"/>
  <rect x="135.108" y="124.095" width="74.928" height="5.777" rx="1.59" ry="1.59" fill="#323232"/>
  <path d="M172.571,216.397c-7.017,0-12.724,5.71-12.724,12.73s5.707,12.724,12.724,12.724,12.73-5.706,12.73-12.724-5.71-12.73-12.73-12.73ZM172.571,238.67c-5.261,0-9.543-4.281-9.543-9.543s4.282-9.549,9.543-9.549,9.549,4.285,9.549,9.549-4.285,9.543-9.549,9.543Z" fill="#323232"/>
  <path d="M139.966,217.752h-16.389c-.878,0-1.59.713-1.59,1.59v20.918c0,.878.713,1.59,1.59,1.59h16.389c.878,0,1.59-.713,1.59-1.59v-20.918c0-.878-.713-1.59-1.59-1.59ZM138.375,238.67h-13.208v-17.737h13.208v17.737Z" fill="#323232"/>
  <path d="M139.966,208.422h-8.194c-.878,0-1.59.713-1.59,1.59s.713,1.59,1.59,1.59h8.194c.878,0,1.59-.713,1.59-1.59s-.713-1.59-1.59-1.59Z" fill="#323232"/>
  <path d="M139.966,201.198h-8.194c-.878,0-1.59.713-1.59,1.59s.713,1.59,1.59,1.59h8.194c.878,0,1.59-.713,1.59-1.59s-.713-1.59-1.59-1.59Z" fill="#323232"/>
  <path d="M139.966,193.971h-8.194c-.878,0-1.59.713-1.59,1.59s.713,1.59,1.59,1.59h8.194c.878,0,1.59-.713,1.59-1.59s-.713-1.59-1.59-1.59Z" fill="#323232"/>
  <path d="M139.966,186.747h-8.194c-.878,0-1.59.713-1.59,1.59s.713,1.59,1.59,1.59h8.194c.878,0,1.59-.713,1.59-1.59s-.713-1.59-1.59-1.59Z" fill="#323232"/>
  <path d="M139.966,179.52h-8.194c-.878,0-1.59.713-1.59,1.59s.713,1.59,1.59,1.59h8.194c.878,0,1.59-.713,1.59-1.59s-.713-1.59-1.59-1.59Z" fill="#323232"/>
  <rect x="84.197" y="119.145" width="19.614" height="59.777" fill="#323232"/>
  <rect x="86.897" y="185.284" width="16.91" height="48.51" fill="#323232"/>
  <rect x="84.197" y="240.156" width="19.614" height="25.989" fill="#323232"/>
  <rect x="86.897" y="272.506" width="14.203" height="2.78" fill="#323232"/>
</svg>