<?xml version="1.0" encoding="UTF-8"?>
<svg id="a" data-name="Layer 1" xmlns="http://www.w3.org/2000/svg" width="400" height="400" viewBox="0 0 400 400">
  <path d="M362.425,190.41c-10.723-12.427-21.255-25.828-31.444-38.793-12.819-16.312-26.074-33.178-39.832-48.262-17.181-18.835-30.09-20.743-41.485-20.004-8.019.522-14.621,3.883-21.61,7.441-2.001,1.019-4.071,2.072-6.193,3.066l-3.905,1.83.353-4.298c2.445-29.75-12.279-43.462-21.273-48.988-14.572-8.954-34.168-8.946-48.76.018-9.011,5.536-23.763,19.259-21.322,48.977l.387,4.71-4.111-2.331c-11.419-6.474-20.698-10.39-30.89-10.39-4.311,0-8.783.7-13.652,2.204-16.391,5.061-27.998,18.116-31.048,34.923-3.124,17.211,3.581,34.593,17.499,45.364.639.495,2.38,1.449,4.064,2.373,7.304,4.007,11.737,6.643,10.879,10.206-.421,1.747-2.226,2.889-9.156,6.642-2.03,1.099-4.332,2.345-5.035,2.887-12.264,9.438-18.757,19.419-19.851,30.513-2.147,21.794,17.06,43.764,34.005,63.147,1.883,2.154,3.729,4.267,5.506,6.333,3.527,4.103,7.463,8.834,11.63,13.843,12.046,14.479,25.7,30.889,36.469,40.62,5.982,5.406,12.26,8.243,19.757,8.927,29.921,2.733,62.628,1.487,94.258.283,29.188-1.111,59.367-2.261,87.519-.311,17.565-1.734,27.291-12.459,28.911-31.88,1.695-20.314,1.341-42.379.999-63.717-.293-18.262-.596-37.14.385-54.879l-3.055-10.453ZM271.375,227.453c-.535,5.609-4.23,10.991-9.643,14.045-5.236,2.952-11.07,3.284-16.008.908l-.202-.109-54.334-32.573v67.156c0,7.293-11.454,15.062-17.854,15.262-.11.003-.223.005-.335.005-4.497,0-10.423-2.73-14.551-6.731-2.856-2.769-4.366-5.721-4.366-8.536v-67.156l-54.536,32.682c-4.938,2.376-10.773,2.045-16.008-.908-5.413-3.054-9.108-8.436-9.643-14.044-1.071-11.237,6.414-16.226,13.653-21.051l.352-.235c8.56-5.709,17.788-10.825,26.711-15.771,7.648-4.24,15.548-8.62,22.942-13.332l-54.51-31.973c-7.919-5.303-11.073-14.061-8.035-22.311,2.526-6.863,9.887-13.229,20.659-11.979l.522.061,57.894,33.902v-67.209c0-7.293,11.455-15.062,17.854-15.261,4.53-.151,10.654,2.625,14.885,6.725,2.856,2.769,4.367,5.721,4.367,8.536v67.208l57.837-33.869.455-.076c7.244-1.206,14.365,1.781,18.59,7.797,4.155,5.918,4.508,13.239.945,19.583l-.211.376-.325.283c-13.449,11.74-29.832,20.854-45.676,29.668-4.997,2.78-10.146,5.645-15.083,8.532,7.179,4.506,14.801,8.747,22.182,12.853,9.173,5.104,18.659,10.381,27.468,16.255l.352.235c7.239,4.825,14.724,9.814,13.653,21.051Z"/>
</svg>