<?xml version="1.0" encoding="UTF-8"?>
<svg id="a" data-name="Layer 1" xmlns="http://www.w3.org/2000/svg" width="400" height="400" viewBox="0 0 400 400">
  <path d="M323.355,365.055c10.169-3.526,17.965-12.797,20.395-24.228v-195.285c-1.911-16.479-15.691-24.076-29.019-31.422-2.396-1.321-4.874-2.687-7.206-4.068-44.374-26.287-85.247-49.58-124.954-71.209-1.073-.584-2.293-1.496-3.585-2.46-1.234-.922-2.634-1.967-3.471-2.356-5.822-2.704-12.105-1.805-16.393,2.349-4.434,4.298-4.252,9.896-4.043,16.379.075,2.316.152,4.711.002,7.104l-.061.952-.678.67c-.747.737-1.497.897-5.832,1.561-1.012.154-2.397.366-2.725.455-25.908,8.757-39.296,32.202-52.242,54.876-1.479,2.588-2.945,5.157-4.418,7.681-18.811,32.227-50.293,86.165-46.895,128.702,2.988,37.423,24.806,63.463,47.905,91.033,1.286,1.535,2.573,3.072,3.858,4.612,1.21,1.45,2.211,2.719,3.093,3.839,3.74,4.745,5.288,6.709,12.896,9.783.804.324,1.281.876,1.569,1.333.53.099,1.203.191,1.823.276,1.503.206,3.051.418,4.354.854l200.934.018c1.472-1.26,2.888-1.308,3.795-1.338.428-.014.662-.025.896-.107ZM268.053,253.299c-3.912,33.674-25.52,62.986-56.391,76.496-14.389,6.297-26.887,9.275-40.814,9.275-7.556,0-15.531-.876-24.46-2.574-25.887-4.923-48.809-20.738-62.888-43.391-14.076-22.645-17.09-43.329-10.079-69.163,9.283-34.205,31.1-71.663,49.069-100.475,1.243-1.994,2.449-4.026,3.615-5.991,6.333-10.677,12.315-20.762,24.708-26.349,5.412-2.44,22.195-5.927,29.559-2.532h0c.654.302,1.023.78,1.239,1.21,15.756,3.906,22.647,15.529,29.933,27.817,1.196,2.018,2.434,4.104,3.717,6.167,8.802,14.153,18.999,30.983,27.892,48.501,12.736,25.096,27.396,59.521,24.899,81.008Z"/>
  <path d="M189.963,181.035c35.995,19.254,35.888,82.719-.272,101.781-26.591,14.017-53.381-.118-64.043-26.25-2.525-6.188-4.611-11.936-5.334-19-3.846-37.602,30.529-77.455,69.649-56.53Z"/>
</svg>