<?xml version="1.0" encoding="UTF-8"?>
<svg id="a" data-name="Layer 1" xmlns="http://www.w3.org/2000/svg" width="400" height="400" viewBox="0 0 400 400">
  <path d="M328.991,173.129c-.594-6.919-2.631-11.768-7.501-17.833-15.488-15.406-30.496-31.77-45.013-47.597-12.251-13.357-24.919-27.168-37.774-40.293-.809-.825-1.861-1.932-3.087-3.221-4.61-4.85-18.642-19.609-22.822-20.293-1.81-.296-2.955-.298-4.713-.007-2.981.494-6.145,2.991-8.454,4.814-24.102,19.026-47.6,41.56-70.324,63.352-22.738,21.806-46.249,44.352-70.61,63.661-1.52,1.674-3.12,3.174-4.669,4.626-5.8,5.435-9.033,8.893-7.083,15.686l110.175,148.345c6.548,7.312,11.896,11.438,21.267,12.291,22.553,2.052,47.492,1.066,71.61.115,19.239-.761,39.129-1.544,57.638-.774,10.741-2.845,18.998-11.674,21.181-22.656-1.46-24.557-.512-50.71.405-76.005,1.022-28.207,2.08-57.374-.225-84.211ZM198.25,133.674l-.896.881c-7.997,7.873-16.837,15.137-25.385,22.162-8.329,6.846-16.942,13.924-24.645,21.473l-1.303,1.269c-7.804,7.581-11.654,11.952-6.15,19.979l58.378,51.865v50.515l-120.003-108.814,120.003-109.794v50.465Z"/>
</svg>