<?xml version="1.0" encoding="UTF-8"?>
<svg id="a" data-name="Layer 1" xmlns="http://www.w3.org/2000/svg" width="400" height="400" viewBox="0 0 400 400">
  <path d="M45.188,247.918c1.025,7.31,7.477,13.917,13.172,19.748l1.135,1.164c8.87,9.136,16.59,18.763,24.055,28.073,17.865,22.279,33.302,41.529,57.291,45.626,11.473.011,34.93.174,62.065.363,38.276.267,81.657.568,109.438.578,4.977-.216,11.867-1.71,16.343-5.26l.095-.071c5.474-3.936,6.679-13.482,8.073-24.535.403-3.195.82-6.5,1.364-9.852,2.873-17.862,6.151-40.733,9.622-64.948,1.885-13.152,3.834-26.752,5.702-39.396.621-6.123,1.59-11.634,2.444-16.498,2.302-13.105,3.966-22.574-2.287-33.644l-.011-.019c-4.267-6.449-11.979-16.381-20.142-26.894-5.637-7.26-11.466-14.767-16.617-21.709l-.062-.087c-12.146-16.884-15.41-21.42-35.928-20.085l-.14.005c-48.861.465-168.651,1.629-225.558,2.388-.058,0-.116,0-.175,0-3.223,0-6.042,1.038-7.815,2.862-2.521,2.408-2.622,6.324-2.503,10.825.29,5.112.223,10.724.157,16.15-.024,2.07-.05,4.121-.054,6.121.058,16.177.023,35.751-.009,54.682-.059,33.74-.113,65.617.343,74.412ZM288.599,179.922c-.015,1.427-.029,2.903,0,4.315l.002.081-.003.081c-.166,3.878.333,9.225.861,14.886,1.66,17.8,3.935,42.179-12.355,49.93l-.434.184-.241.048c-4.882.982-12.727,1.05-24.602,1.153-6.972.06-15.648.135-25.572.435-24.796.399-54.47.804-80.65,1.161-27.222.372-48.744.666-54.722.815-.195.015-.395.021-.597.021-2.559,0-5.594-1.089-6.854-1.59-7.098-2.992-15.38-9.858-15.521-19.426-.326-9.484-.158-25.319-.024-38.042.029-2.765.057-5.397.078-7.804l.008-.18c.133-1.629.072-3.405.009-5.286-.196-5.847-.42-12.474,5.366-16.758,3.78-2.624,7.468-2.659,10.43-2.688l39.186-.413c47.808-.507,113.273-1.202,150.239-1.518,5.036-.256,8.732.812,11.3,3.271,4.232,4.055,4.163,10.802,4.096,17.326ZM72.03,96.896l.212-.153c1.122-.758,1.996-1.075,3.227-1.167l.12-.006c18.131-.489,55.315-.893,85.194-1.218,7.336-.08,14.253-.155,20.373-.226l30.528-.326c31.792-.338,59.248-.629,65.359-.758,1.56-.013,2.524.177,4.185,1.24l.143.098c4.436,3.292,4.625,8.506,4.793,13.106l.031.842c.14,4.71-.018,9.967-3.66,13.079-3.373,2.952-8.064,2.989-11.168,3.013-16.562.075-36.197.277-56.985.49-35.801.368-72.818.749-102.854.596-3.715-.026-8.137.189-12.812.419-5.172.254-9.667.445-13.481.445-6.989,0-11.691-.64-14.076-2.698-3.347-2.402-3.378-6.367-3.401-9.273-.003-.414-.006-.822-.019-1.219,0-.799-.016-1.535-.032-2.279-.105-4.668-.236-10.478,4.325-14.004Z"/>
  <path d="M180.446,200.31c-.073-1.362-.148-2.77-.141-4.397-.052-1.519-.096-3.012-.139-4.472-.073-2.495-.144-4.89-.241-7.11-.068-2.122-.298-4.46-2.177-5.366l-.409-.197-.452-.041c-6.173-.552-32.783-.159-56.261.189-10.635.158-20.682.307-27.322.342-1.962-.068-3.521.483-4.64,1.618-1.742,1.767-1.861,4.411-1.731,6.953.052,1.712.092,3.697.133,5.781.099,4.917.21,10.49.519,14.319l.025.207c.17,1.027.621,3.754,3.909,4.007l.119.006c1.996.058,5.656.081,10.415.081,9.802,0,24.256-.098,38.385-.193l13.631-.09c5.287-.04,10.132-.06,14.164-.077,2.486-.011,4.665-.02,6.466-.031,2.875-.039,4.939-1.485,5.5-3.784l.095-.397c.41-2.535.285-4.873.152-7.347Z"/>
</svg>