<?xml version="1.0" encoding="UTF-8"?>
<svg id="a" data-name="Layer 1" xmlns="http://www.w3.org/2000/svg" width="400" height="400" viewBox="0 0 400 400">
  <path d="M38.47,154.403c1.715-27.176-1.049-87.707,1.025-100.486,1.182-6.912,8.177-11.575,15.316-12.832.166-.029.33-.048.498-.058,2.338-.136,185.255-1.302,221.527-.95,12.239-.704,21.101,9.75,28.348,18.022,9.611,10.934,25.969,28.628,36.164,40.518,3.122,3.918,4.911,8.99,7.483,13.971,1.811,3.471,3.004,6.228,2.746,10.055.217,46.798.238,193.461.307,204.275-.016,6.439-2.695,13.904-7.327,18.673-9.421,10.253-19.434,21.914-34.297,22.929-10.949.576-65.883.208-118.929.318-23.834-.039-40.415.107-59.775-.038-.44-.003-.879-.069-1.292-.219-4.981-1.807-11.052-6.158-16.443-8.812-5.737-2.928-10.966-7.577-15.009-12.728-15.836-19.084-47.434-56.437-61.954-74.255-.754-.93.599.585,1.118,1.104.347.377.76.753,1.118,1.083.316.278.509.397.47.26-.043-.276-1.406-1.892-2.329-2.969-6.692-10.043-11.557-88.631-13.23-96.847-.16-1.052.08-1.284.442-3.065,1.973-10.371,8.926-10.36,13.965-17.849l.059-.102ZM285.634,152.486c.714-9.127-.016-57.359-1.023-67.819-.029-.298-.088-.588-.183-.871-2.218-6.576-8.435-11.336-15.575-11.504-9.529.15-182.848.328-186.18.468-4.685.197-8.874,3.386-9.876,7.967-.276,1.263-.755,52.539-.812,70.218-.026,2.912,3.32,4.197,5.915,3.912,2.857.002,7.867.005,10.634-.001,2.418.267,5.9-.986,4.753-4.007-.532-1.309-2.004-2.302-2.838-3.306-.625-.768-.683-1.754-.667-2.737.057-4.121.185-13.925.25-17.584-.139-1.39.621-2.71,1.629-3.57.667-.57,1.524-.86,2.401-.879,10.003-.222,57.62.046,69.537.587,1.368.062,2.63.814,3.26,2.029.5.964.771,2.128.684,3.198.13,3.124.386,9.532.544,13.411.454,3.85-.386,5.192-2.225,7.795-2.013,3.3.991,5.46,4.079,5.064,4.143,0,14.09.004,17.928-.002,3.251.332,5.608-2.155,3.82-5.256-1.066-1.781-1.747-3.369-1.632-5.484-.085-3.727-.269-11.779-.348-15.374-.155-1.046.037-2.192.478-3.163.587-1.293,1.892-2.107,3.309-2.181,12.376-.645,63.027-.225,71.22-.27,1.841.412,3.373,3.088,3.144,5.165.16,3.453.503,11.226.661,14.81.149,1.939-.125,3.581-1.475,5.108-4.564,5.855.229,7.064,6.58,6.646,3.765-.353,9.755,1.316,11.956-2.285l.05-.087ZM300.109,188.045c-3.746-.926-23.592.003-53.633-.318-67.495.578-171.995-1.032-187.529.44-1.19.113-2.303.727-2.921,1.75-1.173,1.941-.2,3.68-.483,7.557-.007.097-.011.195-.009.292.225,15.689-.354,47.781.237,65.81.04,1.227.621,2.406,1.652,3.073.987.639,2.226.939,3.441.793,4.82.057,18.076.218,22.348.266,1.723.132,3.465-.469,4.271-2.095,1.895-3.74-.78-11.054,3.424-13.223.514-.265,1.097-.357,1.675-.348,13.251.202,130.204.843,172.28,1.547,1.271.021,2.493.624,3.171,1.698.061.097.117.195.165.292,1.801,3.094-.581,10.93,4.257,12.073,6.406.4,16.615.146,22.567.296,3.652.279,6.608-.301,6.943-3.878.034-5.533.255-41.337.374-60.715.036-5.903.064-10.26.072-11.817.146-1.388-1.143-2.647-2.224-3.443l-.078-.05Z"/>
</svg>