<?xml version="1.0" encoding="UTF-8"?>
<svg id="a" data-name="Layer 1" xmlns="http://www.w3.org/2000/svg" width="400" height="400" viewBox="0 0 400 400">
  <path d="M359.589,82.939l-2.653-2.653-2.653-2.653-2.653-2.653-2.653-2.653-2.653-2.653-.878-.878-1.775-1.775-.878-.878-1.775-1.775-.878-.878-1.775-1.775-.878-.878-1.775-1.775-.878-.878-1.775-1.775-.878-.878-1.775-1.775-.878-.878-1.775-1.775-.878-.878-1.775-1.775-.878-.878-1.775-1.775-16.796-16.797h-29.79l-16.796,16.797v29.789l.951.951-13.973,13.973v-4.917l-2.653-2.653-2.653-2.653-2.653-2.653-2.653-2.653-2.653-2.653-2.653-2.653-.878-.878-1.775-1.775-.878-.878-1.775-1.775-.878-.878-1.775-1.775-.878-.878-1.775-1.775-.878-.878-1.775-1.775-.878-.878-1.775-1.775-.878-.878-1.775-1.775-.878-.878-1.775-1.775-.878-.878-1.775-1.775-.878-.878-2.653-2.653-2.653-2.653-2.653-2.653-2.653-2.653-2.653-2.653-2.653-2.653h-29.789l-16.796,16.797v29.789l2.653,2.653,2.653,2.653,2.653,2.653,2.653,2.653,2.653,2.653,2.653,2.653.878.878,1.775,1.775.878.878,1.678,1.678v37.924h-16.796l-18.304-18.304.951-.951v-29.789l-2.653-2.653-2.653-2.653-2.653-2.653-2.653-2.653-2.653-2.653-2.653-2.653-.878-.878-1.775-1.775-.878-.878-1.775-1.775-.878-.878-1.775-1.775-.878-.878-1.775-1.775-.878-.878-1.775-1.775-.878-.878-1.775-1.775-.878-.878-1.775-1.775-.878-.878-1.775-1.775-.878-.878-1.775-1.775-.878-.878-2.653-2.653-2.653-2.653-2.653-2.653-2.653-2.653-2.653-2.653-2.653-2.653h-29.79l-16.796,16.797v29.789l16.796,16.797h0l1.775,1.775.878.878,1.775,1.775.878.878,1.775,1.775.878.878,1.775,1.775.878.878,1.775,1.775.878.878,1.775,1.775.878.878,1.775,1.775.878.878,1.775,1.775.878.878,1.775,1.775.878.878,2.653,2.653,2.653,2.653,2.653,2.653,2.653,2.653,2.653,2.653,2.653,2.653h29.789l.951-.951.249.249,3.16,3.16h-10.563l-37.924,37.924v72.044l2.653,2.653,2.653,2.653,2.653,2.653,2.653,2.653,2.653,2.653,2.653,2.653,2.653,2.653,2.653,2.653,2.653,2.653,2.653,2.653.829.829,1.824,1.824,2.507,2.507v21.127l27.36,27.36h0l1.824,1.823.829.83,1.824,1.823.829.83,1.824,1.823.829.83,1.824,1.823.829.83,1.824,1.823.829.83,2.653,2.653,2.653,2.653,2.653,2.653,2.653,2.653,2.653,2.653,2.653,2.653,2.653,2.653,2.653,2.653,2.653,2.653,2.653,2.653h93.171l27.36-27.36v-25.458h4.331l27.36-27.359v-72.044l-2.653-2.653-2.653-2.653-2.653-2.653-2.653-2.653-2.653-2.653-2.653-2.653-2.653-2.653-2.653-2.653-2.653-2.653-2.653-2.653-2.653-2.653-2.653-2.653-2.653-2.653-2.653-2.653-2.653-2.653-3.41-3.41,37.923-37.923.951.951h29.789l16.796-16.797v-29.789l-2.653-2.653ZM280.192,54.458l4.331-4.331h12.465l4.331,4.331v12.465l-4.331,4.331h-12.465l-4.331-4.331v-12.465ZM163.992,54.458l4.331-4.331h12.465l4.331,4.331v12.465l-4.331,4.331h-12.465l-4.331-4.331v-12.465ZM47.792,54.458l4.331-4.331h12.465l4.331,4.331v12.465l-4.331,4.331h-12.465l-4.331-4.331v-12.465ZM121.738,288.76v-75.847l14.895-14.894h75.847l14.895,14.894v75.847l-14.895,14.894h-75.847l-14.895-14.894Z" fill="#323232"/>
  <rect x="142.865" y="219.146" width="21.127" height="21.127" fill="#323232"/>
  <rect x="185.119" y="219.146" width="21.127" height="21.127" fill="#323232"/>
  <polygon points="189.493 293.091 206.247 276.337 206.247 261.4 185.119 261.4 185.119 267.59 180.746 271.964 168.366 271.964 163.992 267.59 163.992 261.4 142.865 261.4 142.865 276.337 159.619 293.091 189.493 293.091" fill="#323232"/>
</svg>