<?xml version="1.0" encoding="UTF-8"?>
<svg id="a" data-name="Layer 1" xmlns="http://www.w3.org/2000/svg" width="400" height="400" viewBox="0 0 400 400">
  <path d="M330.801,258.599l-117.002-67.566c-2.427-1.387-4.755-3.715-6.638-6.638l-24.867-38.489c-4.359-6.737-12.631-9.461-18.477-6.093l-110.166,63.653c-.446.248-.842.594-1.238.892-.05.05-.099.05-.149.099s-.099.099-.149.149c-.149.149-.297.248-.446.396-.347.347-.693.743-1.04,1.139-.099.099-.149.198-.248.297l-6.192,6.737c-4.755,3.913-5.35,11.443-1.337,17.585l25.065,38.736c4.409,6.836,10.056,12.433,15.901,15.802l117.844,68.061c1.337.793,2.873,1.387,4.458,1.783,1.932.495,4.012.793,6.192.793s4.21-.297,6.043-.743c1.684-.446,3.22-1.04,4.607-1.833l107.887-62.711c3.319-1.932,5.251-4.706,5.251-7.678v-16.693h0c-.05-2.972-1.932-5.697-5.3-7.678h0ZM165.651,142.985c4.21-2.427,10.303-.248,13.622,4.904l24.867,38.489c2.18,3.368,4.954,6.142,7.876,7.777l116.952,67.566c2.229,1.288,3.467,2.923,3.467,4.557,0,.149-.05.297-.099.446-.099.892-.594,1.783-1.387,2.576-.545.545-1.189,1.09-1.981,1.536l-107.887,62.711c-.991.594-2.229,1.09-3.666,1.437-1.536.396-3.319.644-5.152.644s-3.616-.248-5.251-.644c-1.288-.297-2.526-.793-3.567-1.387l-117.844-68.061c-2.378-1.387-4.755-3.765-6.638-6.638l-25.065-38.786v-.05c-.396-.644-.743-1.288-1.04-1.981-.05-.149-.149-.297-.198-.495-.198-.545-.396-1.139-.545-1.734-.05-.099-.05-.248-.099-.347-.099-.644-.149-1.238-.198-1.882v-.644c0-.545.099-1.09.198-1.585s.248-.991.446-1.486c0-.05,0-.099.05-.099.149-.297.297-.594.495-.892.05-.099.099-.198.198-.347l1.337-1.437c.297-.248.594-.446.892-.644l110.216-63.504Z"/>
  <path d="M61.132,214.81c.05.198.099.347.198.545,0,.05.05.099.05.149l.05.099,2.031,3.121h.05l21.994,34.08c.347.545.941.842,1.536.842.297,0,.594-.099.892-.248l106.996-61.77c.198-.149.396-.297.545-.495.05-.05.05-.099.05-.149.099-.149.198-.347.248-.495v-.248c0-.149.05-.297,0-.446,0-.099-.05-.198-.099-.347-.05-.099-.05-.198-.099-.297l-.05-.05v-.05l-24.124-37.3c-.05-.05-.099-.05-.099-.099-.05-.05-.099-.149-.149-.198s-.099-.05-.149-.099-.149-.099-.198-.149c-.099-.05-.248-.099-.347-.149s-.149-.05-.248-.05c-.149,0-.248-.05-.396,0h-.248c-.198.05-.396.099-.594.198l-106.996,61.721-.05.05h-.05c-.099.05-.149.149-.248.248s-.149.149-.248.248c-.099.149-.149.297-.198.396-.05.05-.099.149-.099.198-.05.198-.05.347,0,.545.05.099,0,.149.05.198ZM87.584,249.386l-20.062-31.058,98.228-56.718,20.062,31.058-98.228,56.718Z"/>
  <path d="M141.627,268.16v-8.025c0-1.04-.594-1.932-1.635-2.526l-14.365-8.322c-1.536-.892-3.765-.892-5.3,0l-14.464,8.322c-1.04.594-1.635,1.536-1.635,2.526v8.074c0,.991.594,1.981,1.635,2.576l14.365,8.322c.743.446,1.734.693,2.675.693s1.882-.198,2.625-.644l14.514-8.371c1.387-.892,1.585-2.031,1.585-2.625ZM122.11,252.358c.396-.248,1.288-.248,1.684,0l13.374,7.777-13.474,7.777c-.446.248-1.288.248-1.684,0l-13.374-7.777,13.474-7.777Z"/>
  <path d="M171.199,285.348v-8.074c0-1.04-.594-1.932-1.635-2.526l-14.365-8.322c-1.536-.892-3.765-.892-5.3,0l-14.464,8.322c-1.04.594-1.635,1.536-1.635,2.526v8.074c0,1.04.594,1.932,1.635,2.576l14.365,8.371c.743.446,1.684.644,2.625.644s1.882-.198,2.625-.644l14.415-8.322c1.09-.594,1.734-1.585,1.734-2.625ZM151.683,269.547c.396-.248,1.288-.248,1.684,0l13.374,7.777-13.523,7.777c-.396.248-1.238.248-1.684,0l-13.424-7.777,13.573-7.777Z"/>
  <path d="M200.772,302.537v-8.074c0-1.04-.594-1.932-1.635-2.526l-14.365-8.322c-1.536-.892-3.765-.892-5.3,0l-14.464,8.322c-1.04.594-1.635,1.536-1.635,2.576v8.025c0,1.04.594,1.932,1.635,2.576l14.365,8.371c.743.446,1.684.644,2.625.644s1.882-.198,2.625-.644l14.415-8.322c1.139-.594,1.734-1.536,1.734-2.625ZM181.304,286.735c.396-.248,1.288-.248,1.684,0l13.374,7.777-13.523,7.777c-.396.248-1.238.248-1.635,0l-13.424-7.777,13.523-7.777Z"/>
  <path d="M230.295,311.602c-.05-.991-.594-1.932-1.585-2.477l-14.365-8.322c-1.536-.892-3.765-.892-5.3,0l-14.464,8.322c-1.04.594-1.635,1.536-1.635,2.576v8.025c0,1.04.594,1.932,1.635,2.576l14.365,8.371c.743.446,1.684.644,2.625.644s1.882-.198,2.625-.644l14.415-8.322c1.09-.594,1.684-1.536,1.684-2.625v-8.025q0-.05,0-.099ZM210.827,303.924c.396-.248,1.288-.248,1.684,0l13.374,7.777-13.523,7.777c-.396.248-1.238.248-1.635,0l-13.424-7.777,13.523-7.777Z"/>
  <path d="M149.899,232.049l-14.464,8.322c-1.04.594-1.635,1.536-1.635,2.526v8.074c0,.991.594,1.981,1.635,2.576l14.365,8.322c.743.446,1.734.693,2.675.693s1.882-.198,2.625-.644l14.514-8.371c1.387-.842,1.585-1.981,1.585-2.576v-8.025c0-1.04-.594-1.932-1.635-2.526l-14.365-8.322c-1.536-.941-3.765-.941-5.3-.05ZM151.683,235.169c.396-.248,1.288-.248,1.684,0l13.374,7.777-13.474,7.777c-.446.248-1.288.248-1.684,0l-13.374-7.777,13.474-7.777Z"/>
  <path d="M163.373,260.135v8.025c0,1.04.594,1.932,1.635,2.576l14.365,8.371c.743.446,1.684.644,2.625.644s1.882-.198,2.625-.644l14.415-8.322c1.09-.594,1.684-1.536,1.684-2.625v-8.124c-.05-.991-.594-1.932-1.585-2.477l-14.365-8.322c-1.536-.892-3.765-.892-5.3,0l-14.464,8.322c-1.04.594-1.635,1.536-1.635,2.576ZM181.255,252.358c.396-.248,1.288-.248,1.684,0l13.374,7.777-13.523,7.777c-.396.248-1.238.248-1.635,0l-13.424-7.777,13.523-7.777Z"/>
  <path d="M194.58,287.924l14.365,8.371c.743.446,1.684.644,2.625.644s1.882-.198,2.625-.644l14.415-8.322c1.09-.594,1.684-1.536,1.684-2.625v-8.124c-.05-.991-.594-1.932-1.585-2.477l-14.365-8.322c-1.536-.892-3.765-.892-5.3,0l-14.464,8.322c-1.04.594-1.635,1.536-1.635,2.576v8.025c.05,1.04.644,1.981,1.635,2.576ZM210.827,269.547c.396-.248,1.288-.248,1.684,0l13.374,7.777-13.523,7.777c-.396.248-1.238.248-1.635,0l-13.424-7.777,13.523-7.777Z"/>
  <path d="M259.867,294.463c0-1.04-.594-1.932-1.635-2.526l-14.365-8.322c-1.536-.892-3.765-.892-5.3,0l-14.464,8.322c-1.04.594-1.635,1.536-1.635,2.526v8.074c0,1.04.594,1.932,1.635,2.576l14.365,8.371c.743.446,1.684.644,2.625.644s1.882-.198,2.625-.644l14.415-8.322c1.09-.594,1.684-1.536,1.684-2.625l.05-8.074ZM240.4,286.735c.396-.248,1.288-.248,1.684,0l13.374,7.777-13.523,7.777c-.396.248-1.238.248-1.684,0l-13.424-7.777,13.573-7.777Z"/>
  <path d="M163.373,225.807v8.025c0,.991.594,1.981,1.635,2.576l14.365,8.322c.743.446,1.734.693,2.675.693s1.882-.198,2.625-.644l14.514-8.371c1.387-.842,1.585-1.981,1.585-2.576v-8.025c0-1.04-.594-1.932-1.635-2.526l-14.365-8.322c-1.536-.892-3.765-.892-5.3,0l-14.464,8.223c-1.04.594-1.635,1.536-1.635,2.625q0-.05,0,0c0-.05,0,0,0,0ZM181.255,217.981c.396-.248,1.288-.248,1.684,0l13.374,7.777-13.474,7.777c-.396.248-1.288.248-1.684,0l-13.374-7.777,13.474-7.777Z"/>
  <path d="M230.295,242.897c0-1.04-.594-1.932-1.635-2.526l-14.365-8.322c-1.536-.892-3.765-.892-5.3,0l-14.464,8.322c-1.04.594-1.635,1.536-1.635,2.576v8.025c0,.991.594,1.932,1.635,2.576l14.365,8.371c.743.446,1.684.644,2.625.644s1.882-.198,2.625-.644l14.415-8.322c1.09-.594,1.684-1.536,1.684-2.625l.05-8.074q0,.05,0,0ZM210.827,235.169c.396-.248,1.288-.248,1.684,0l13.374,7.777-13.523,7.777c-.396.248-1.238.248-1.635,0l-13.424-7.777,13.523-7.777Z"/>
  <path d="M241.143,279.751c.941,0,1.882-.198,2.625-.644l14.415-8.322c1.09-.594,1.684-1.536,1.684-2.625v-8.074c0-1.04-.594-1.932-1.635-2.526l-14.365-8.322c-1.536-.892-3.765-.892-5.3,0l-14.464,8.322c-1.04.594-1.635,1.536-1.635,2.526v8.074c0,1.04.594,1.932,1.635,2.576l14.365,8.371c.842.446,1.783.644,2.675.644ZM240.4,252.358c.396-.248,1.288-.248,1.684,0l13.374,7.777-13.523,7.777c-.396.248-1.238.248-1.684,0l-13.424-7.777,13.573-7.777Z"/>
  <path d="M289.39,277.274c0-1.04-.594-1.932-1.635-2.526l-14.365-8.322c-1.536-.892-3.765-.892-5.3,0l-14.464,8.322c-1.04.594-1.635,1.536-1.635,2.576v8.025c0,.991.594,1.932,1.635,2.576l14.365,8.371c.743.446,1.684.644,2.625.644s1.882-.198,2.625-.644l14.415-8.322c1.09-.594,1.684-1.536,1.684-2.625l.05-8.074c.05.05,0,0,0,0ZM269.972,269.547c.396-.248,1.288-.248,1.684,0l13.374,7.777-13.523,7.777c-.396.248-1.238.248-1.635,0l-13.424-7.777,13.523-7.777Z"/>
  <path d="M192.945,208.569s0,.05,0,0q0,.05,0,0v8.074c0,.991.594,1.981,1.635,2.576l14.365,8.322c.743.446,1.734.693,2.675.693s1.882-.248,2.625-.644l14.514-8.371c1.387-.842,1.585-1.981,1.585-2.576v-8.025c0-1.04-.594-1.932-1.635-2.526l-14.365-8.322c-1.536-.892-3.765-.892-5.3,0l-14.464,8.322c-1.04.495-1.635,1.437-1.635,2.477ZM210.827,200.792c.396-.248,1.288-.248,1.684,0l13.374,7.777-13.474,7.777c-.446.248-1.288.248-1.684,0l-13.374-7.777,13.474-7.777Z"/>
  <path d="M222.518,225.758v8.025c0,1.04.594,1.932,1.635,2.576l14.365,8.371c.743.446,1.684.644,2.625.644s1.882-.198,2.625-.644l14.415-8.322c1.09-.594,1.684-1.536,1.684-2.625v-8.074c0-1.04-.594-1.932-1.635-2.526l-14.365-8.322c-1.536-.892-3.765-.892-5.3,0l-14.464,8.322c-.991.594-1.585,1.536-1.585,2.576ZM240.4,217.981c.396-.248,1.288-.248,1.684,0l13.374,7.777-13.523,7.777c-.396.248-1.238.248-1.635,0l-13.424-7.777,13.523-7.777Z"/>
  <path d="M252.041,242.946q0,.05,0,0v8.074c0,.991.594,1.932,1.635,2.576l43.987,25.56c.743.446,1.684.644,2.625.644s1.882-.198,2.625-.644l14.415-8.322c1.09-.594,1.684-1.536,1.684-2.625v-8.124c-.05-.991-.594-1.932-1.585-2.477l-43.938-25.511c-1.536-.892-3.765-.892-5.3,0l-14.464,8.322c-1.09.545-1.684,1.486-1.684,2.526ZM269.923,235.169c.396-.248,1.288-.248,1.684,0l42.996,24.966-13.523,7.777c-.396.248-1.238.248-1.635,0l-42.996-24.966,13.474-7.777Z"/>
  <path d="M352.25,168.743q0-.05,0,0c0-.297-.099-.594-.198-.793-.05-.05-.099-.149-.149-.198-.099-.198-.248-.347-.446-.446-.05-.05-.05-.099-.099-.099l-24.768-14.316c-.545-.347-1.238-.347-1.833,0l-13.969,8.124.198-57.461c0-.05-.05-.099-.05-.149,0-.198-.05-.396-.149-.594-.05-.05-.05-.149-.099-.198-.149-.248-.347-.446-.594-.594l-24.768-14.316c-.545-.347-1.238-.347-1.833,0l-13.87,8.074.099-35.715c0-.05-.05-.099-.05-.149,0-.198-.05-.396-.149-.594-.05-.05-.05-.149-.099-.198-.149-.248-.347-.446-.594-.594l-24.768-14.316c-.545-.347-1.238-.347-1.833,0l-24.619,14.316c-.248.149-.446.347-.594.594-.05.05-.05.149-.099.198-.099.198-.149.396-.149.594,0,.05-.05.099-.05.149l-.297,108.928c0,.644.347,1.238.892,1.585l24.768,14.316c.248.149.495.198.793.198.05,0,.05.05.099.05s0,0,0,0c.05,0,.149-.05.198-.05.248-.05.495-.05.693-.198l13.82-8.025-.05,15.95c0,.644.347,1.238.892,1.585l24.768,14.316c.248.149.594.248.892.248.099,0,.198-.05.297-.099.198-.05.396-.05.594-.149l13.87-8.074-.099,16c0,.644.347,1.238.892,1.585l24.768,14.316c.248.149.594.248.892.248.099,0,.198-.05.297-.099.198-.05.446-.05.644-.149l24.619-14.316c.545-.297.892-.892.892-1.536l.396-47.95ZM325.65,156.508l21.201,12.235-21.003,12.235-21.201-12.235,21.003-12.235ZM284.387,91.319l21.151,12.235-21.003,12.235-21.151-12.235,21.003-12.235ZM243.124,47.778l21.201,12.235-21.052,12.186-21.201-12.235,21.052-12.186ZM257.143,172.904l-12.334,7.183.297-104.717,21.003-12.186-.099,34.675-7.133,4.161c-.248.149-.446.347-.594.594-.05.05-.05.149-.099.198-.099.198-.149.396-.149.594,0,.05-.05.099-.05.149l-.248,69.2c-.198,0-.396.05-.594.149ZM298.604,196.581l-12.582,7.282.297-85.052,21.003-12.186-.149,56.42-7.034,4.111c-.248.149-.446.347-.594.594-.05.05-.05.149-.099.198-.099.198-.149.396-.149.594,0,.05-.05.099-.05.149l-.198,27.74c-.149.05-.297.099-.446.149ZM327.334,227.689l.297-43.64,21.003-12.186-.297,43.64-21.003,12.186Z"/>
</svg>