<?xml version="1.0" encoding="UTF-8"?>
<svg id="a" data-name="Layer 1" xmlns="http://www.w3.org/2000/svg" width="400" height="400" viewBox="0 0 400 400">
  <path d="M324.746,92.423c-10.765-17.701-24.148-25.436-43.405-24.952-68.201.545-130.713.549-191.149.011-12.319-.33-23.348,3.646-31.126,11.207-7.847,7.626-12.027,18.246-12.089,30.709-.243,49.839-.179,99.071-.009,157.658.033,11.973,3.928,21.81,11.911,30.077,9.626,9.97,22.208,23.206,34.177,37.176,7.755,9.053,17.007,12.958,30.229,12.847,13.89-.154,29.058-.228,46.373-.228,15.709,0,31.349.06,46.733.12l.589.002c30.162.12,64.354.254,97.215-.152,18.282-.313,26.894-8.756,27.917-27.373.118-19.468-.018-39.562-.15-58.992-.226-33.574-.46-68.186.652-102.255.748-23.654-4.93-44.58-17.869-65.854ZM309.881,185.366l-1.854.201,1.854-.009c.056,11.991.112,23.98.078,35.97-.071,24.938-7.079,31.796-32.605,31.906l-20.128.098c-36.61.176-74.463.362-111.714-.351-13.032-.174-21.163,3.215-28.044,11.688-3.957,4.875-8.454,9.099-12.804,13.182-1.603,1.505-3.204,3.008-4.77,4.538-5.08,4.966-10.48,7.483-16.053,7.483s-10.966-2.503-16.089-7.44l-1.23-1.184-.589-1.605c-2.497-6.824-2.371-13.001-2.258-18.451.024-1.094.047-2.171.045-3.244-.014-14.883.014-29.764.043-44.645.06-31.827.121-64.381-.255-96.368-.125-10.594.304-19.898,6.835-26.437,5.196-5.199,13.101-7.467,25.941-7.326,57.874.605,118.971.603,181.59-.009,8.78-.092,18.644.681,25.235,7.365,5.207,5.279,7.4,13.032,7.11,25.139-.552,23.119-.444,46.695-.339,69.496Z" fill="#010101"/>
  <path d="M132.587,189.789c-.2.004-.4.007-.6.007-5.562.002-11.003-2.231-15.01-6.175-4.105-4.042-6.324-9.358-6.251-14.971.151-11.354,9.625-20.617,21.121-20.65h.056c11.438,0,20.886,9.211,21.077,20.559.191,11.377-8.959,20.9-20.393,21.23Z" fill="#050505"/>
  <path d="M188.383,189.815c-.093,0-.183-.002-.275-.002-11.492-.141-20.859-9.51-20.88-20.884-.01-5.662,2.261-10.966,6.394-14.942,4.174-4.013,9.893-6.199,15.699-5.934,11.467.477,20.501,10.119,20.136,21.495-.365,11.415-9.598,20.266-21.074,20.266Z" fill="#050505"/>
  <path d="M259.663,183.848c-3.973,3.857-9.204,5.956-14.799,5.956-.258,0-.514-.004-.773-.013-11.352-.39-20.687-10.188-20.382-21.391.304-11.276,9.797-20.387,21.197-20.387h.172c11.464.091,20.834,9.418,20.888,20.791.027,5.733-2.212,11.076-6.302,15.044Z" fill="#050505"/>
</svg>