<?xml version="1.0" encoding="UTF-8"?>
<svg id="a" data-name="Layer 1" xmlns="http://www.w3.org/2000/svg" width="400" height="400" viewBox="0 0 400 400">
  <path d="M285.553,57.161c.31.263,2.992-.684,3.771.873,17.225,20.835,47.559,38.497,63.88,58.943,3.439,4.308,5.851,9.292,7.063,14.666l4.387,196.331c-.97,15.606-13.199,28.454-28.467,30.845-60.231-2.741-126.662,7.547-186.155,3.574-8.623-.576-14.349-3.212-21.038-8.401-22.308-26.921-85.867-63.911-89.608-99.444,2.572-54.58-6.816-114.761-3.202-168.666,1.666-24.847,21.063-43.82,45.658-46.069,54.389-4.973,113.707.896,168.615-3.131,19.541,1.565,22.819,10.068,35.096,20.478ZM258.133,73.402c-2.783-2.68-8.523-4.347-12.392-4.317-51.671,4.136-108.133-1.966-159.237,3.019-11.721,1.143-16.974,5.029-17.881,17.206,4.136,51.671-1.966,108.135,3.02,159.239.949,9.724,8.795,17.279,18.549,17.858,51.256,3.043,107.447-5.199,159.239-3.027,10.061-.4,16.518-7.108,16.536-17.176-4.136-51.671,1.966-108.133-3.019-159.237-.46-4.717-1.197-10.082-4.814-13.564Z"/>
  <path d="M210.487,118.66c13.916-3.485,24.525,8.44,20.023,21.921l-71.396,74.235c-5.211,2.62-10.965,2.44-15.905-.727l-39.502-38.724c-4.502-12.39,3.38-23.925,16.756-22.967,10.118.725,21.872,20.704,31.315,24.997,5.716-1.125,49.248-56.366,58.708-58.736Z"/>
</svg>