<?xml version="1.0" encoding="UTF-8"?>
<svg id="a" data-name="Layer 1" xmlns="http://www.w3.org/2000/svg" width="400" height="400" viewBox="0 0 400 400">
  <path d="M79.479,269.289c21.185,23.53,52.231,55.488,73.836,73.842,7.102,6.034,11.415,8.671,19.747,9.386,23.553,2.02,49.107,1.094,73.821.202,22.58-.815,45.928-1.659,67.857-.278,13.347-1.552,23.142-11.839,24.405-25.663,2.291-25.078,1.203-52.76.15-79.531-.852-21.649-1.731-44.029-.808-64.845l-5.766-11.41c-13.857-12.655-26.99-26.585-39.695-40.06-11.517-12.215-23.425-24.846-35.757-36.393-25.708-24.07-55.468-36.663-86.439-36.663-2.175,0-4.354.062-6.54.187-29.693,1.691-58.481,14.817-81.06,36.96-22.597,22.16-36.283,50.712-38.54,80.397-2.532,33.32,9.496,65.779,34.787,93.868ZM169.779,83.621c54.968,0,99.688,44.72,99.688,99.688s-44.72,99.687-99.688,99.687-99.688-44.719-99.688-99.687,44.72-99.688,99.688-99.688Z"/>
  <path d="M221.017,206.614c-.278-7.234-4.728-15.761-13.837-17.384-5.202-.926-11.582-.529-17.755-.143-4.511.282-9.15.572-13.175.323v-53.119c0-2.097-4.212-8.851-5.536-10.004-4.655-4.053-11.311-5.411-17.377-3.54-5.598,1.727-9.622,5.833-11.043,11.265-2.665,10.196-2.111,59.978-.96,72.277.975,10.402,6.4,16.723,15.275,17.796,3.664.443,13.578.734,23.923.734,12.109,0,24.808-.398,28.738-1.416,7.454-1.929,12.064-8.52,11.746-16.79Z"/>
</svg>