<?xml version="1.0" encoding="UTF-8"?>
<svg id="a" data-name="Layer 1" xmlns="http://www.w3.org/2000/svg" width="400" height="400" viewBox="0 0 400 400">
  <path d="M356.495,153.188c-.828-11.093-3.809-15.77-11.788-23.38-12.019-11.464-26.001-22.267-39.522-32.715-14.412-11.136-29.31-22.647-42.196-35.194l-7.828-3.397-155.965.614-5.245,3.199-63.037,79.717v8.537l101.502,195.659c4.908,4.352,11.483,7.194,18.129,7.827l181.306-.045c12.67-1.817,22.735-11.861,24.583-24.523-1.542-27.514-.614-56.5.282-84.535.979-30.568,1.99-62.178-.22-91.764ZM287.836,133.647h-78.847l43.074-43.769,35.772,43.769ZM223.456,83.576l-44.331,44.751-45.382-44.751h89.713ZM105.236,89.878l43.074,43.769h-78.847l35.772-43.769ZM179.168,304.258l-110.727-145.563h220.388l-109.661,145.563Z"/>
</svg>