<?xml version="1.0" encoding="UTF-8"?>
<svg id="a" data-name="Layer 1" xmlns="http://www.w3.org/2000/svg" width="400" height="400" viewBox="0 0 400 400">
  <path d="M222.004,208.058c-11.615-.107-21.373,10.259-20.502,21.882,1.402,21.562,30.809,26.706,39.536,7.018,5.984-13.298-4.183-29.024-18.834-28.899h-.2Z"/>
  <path d="M172.098,158.343c-11.613-.107-21.373,10.259-20.502,21.88,1.402,21.564,30.809,26.709,39.535,7.018,5.986-13.298-4.183-29.022-18.833-28.898h-.2Z"/>
  <path d="M122.19,108.567c-11.612-.107-21.373,10.259-20.502,21.88,1.402,21.564,30.81,26.709,39.536,7.019,5.983-13.299-4.184-29.022-18.834-28.898h-.2Z"/>
  <path d="M122.19,207.169c-11.612-.107-21.373,10.259-20.502,21.879,1.401,21.564,30.81,26.709,39.536,7.019,5.984-13.299-4.184-29.021-18.834-28.898h-.2Z"/>
  <path d="M222.004,108.567c-11.615-.107-21.373,10.259-20.502,21.882,1.402,21.562,30.809,26.706,39.536,7.018,5.984-13.298-4.183-29.024-18.834-28.899h-.2Z"/>
  <path d="M134.171,342.452v.027h178.005v-.03c13.247-.307,23.914-10.97,24.217-24.216.046-35.81.094-172.832-.029-178.074-.678-7.08-3.772-13.758-9.228-18.649-16.166-16.094-32.26-32.403-48.488-48.408-3.524-3.331-7.784-5.592-12.595-6.524-4.854-.911-5.032-.487-11.938-.578-17.549.024-34.56-.018-55.641,0-51.384.17-107.975-.364-116.365.235-10.725,1.204-19.849,9.546-21.653,20.281-1.283,14.57-.163,132.997-.52,175.78-.199,7.584.152,11.294,3.367,17.551,1.644,2.945,3.809,5.212,6.186,7.57,15.366,15.288,30.647,30.815,46.134,46.031,4.433,5.364,11.08,8.831,18.547,9.004ZM271.809,258.273c-.798,9.239-7.435,17.558-16.623,19.645-1.666.414-3.593.735-5.094.776-1.898.002-11.049,0-24.08,0-33.132,0-125.017.009-131.998-.008-8.95-.309-17.856-6.569-20.342-15.249-.627-2.01-1.042-4.224-1.178-6.232-.01-6.999-.012-104.646-.009-137.806.487-16.079-1.837-20.666,3.669-30.103,3.397-5.307,9.155-8.83,15.401-9.728,5.455-.638,8.555-.144,21.665-.291,34.576.161,130.502-.354,139.091.229,11.19,1.405,18.888,10.556,19.596,21.697-.265,13.531.299,125.275-.088,156.97l-.012.101Z"/>
</svg>