<?xml version="1.0" encoding="UTF-8"?>
<svg id="a" data-name="Layer 1" xmlns="http://www.w3.org/2000/svg" width="400" height="400" viewBox="0 0 400 400">
  <path d="M320.779,78.973c-10.765-17.701-24.148-25.436-43.405-24.952-68.201.545-130.713.549-191.149.011-12.319-.33-23.348,3.646-31.126,11.207-7.847,7.626-12.027,18.246-12.089,30.709-.243,49.839-.179,99.071-.009,157.658.033,11.973,3.928,21.81,11.911,30.077,9.626,9.97,22.208,23.206,34.177,37.176,7.755,9.053,17.007,12.958,30.229,12.847,13.89-.154,29.058-.228,46.373-.228,15.709,0,31.349.06,46.733.12l.589.002c30.162.12,64.354.254,97.215-.152,18.282-.313,26.894-8.756,27.917-27.373.118-19.468-.018-39.562-.15-58.992-.226-33.574-.46-68.186.652-102.255.748-23.654-4.93-44.58-17.869-65.854ZM305.915,171.916l-1.854.201,1.854-.009c.056,11.991.112,23.98.078,35.97-.071,24.938-7.079,31.796-32.605,31.906l-20.128.098c-36.61.176-74.463.362-111.714-.351-13.032-.174-21.163,3.215-28.044,11.688-3.957,4.875-8.454,9.099-12.804,13.182-1.603,1.505-3.204,3.008-4.77,4.538-5.08,4.966-10.48,7.483-16.053,7.483s-10.966-2.503-16.089-7.44l-1.23-1.184-.589-1.605c-2.497-6.824-2.371-13.001-2.258-18.451.024-1.094.047-2.171.045-3.244-.014-14.883.014-29.764.043-44.645.06-31.827.121-64.381-.255-96.368-.125-10.594.304-19.898,6.835-26.437,5.196-5.199,13.101-7.467,25.941-7.326,57.874.605,118.971.603,181.59-.009,8.78-.092,18.644.681,25.235,7.365,5.207,5.279,7.4,13.032,7.11,25.139-.552,23.119-.444,46.695-.339,69.496Z" fill="#010101"/>
  <path d="M215.817,142.982c-5.803-1.033-13.185-1.253-17.048-6.307-2.801-3.545-4.723-7.339-6.684-11.203-1.887-3.709-3.805-7.489-6.396-10.26-1.151-1.384-2.745-1.329-3.858.074-6.3,7.136-8.177,17.909-16.001,24.078-2.614,1.834-6.396,2.544-9.583,3.143-5.7,1.256-14.862.422-18.537,5.554-1.108,2.619,5.929,8.379,7.743,10.481,2.335,2.326,4.594,4.634,6.614,7.252,5.737,6.481,3.997,15.964,3.055,23.599-.189,2.974-2.224,12.881,1.995,12.509,8.596-1.272,15.739-8.156,24.469-9.873,5.951-1.397,11.625,2.647,16.735,4.952,3.554,1.815,7.087,3.618,10.844,4.649.844.242,1.897.392,2.572-.12,2.965-3.979-.577-15.388-.576-20.519-.702-7.983,1.742-12.924,7.231-18.529,2.158-2.34,4.35-4.417,6.632-6.881,1.919-2.349,4.538-4.677,4.753-7.565-1.147-3.57-10.172-4.383-13.768-5.008l-.194-.027Z" fill="#010101"/>
</svg>