<?xml version="1.0" encoding="UTF-8"?>
<svg id="a" data-name="Layer 1" xmlns="http://www.w3.org/2000/svg" width="400" height="400" viewBox="0 0 400 400">
  <path d="M334.488,148.757c-.788-9.11-3.902-14.904-11.491-21.376-17.763-15.151-73.278-54.672-94.468-60.396-25.655-6.933-46.983-2.697-63.394,12.588.006,0-.227.331-.421,1.593l-.325,2.122-5.971-.002-.725-1.23c-6.295-10.677-23.494-17.425-36.481-18.354-21.469-1.535-42.67,5.804-59.711,20.666-17.562,15.317-28.474,36.981-29.936,59.438-1.426,21.878-.763,45.016-.123,67.392.586,20.47,1.192,41.636.211,61.906,2.104,22.806,18.627,46.838,49.109,71.427,5.308,4.282,10.015,6.518,15.237,7.236l213.409.187c12.542-.975,23.249-11.211,25.021-23.893-1.785-27.754-.712-57.345.326-85.965,1.134-31.251,2.306-63.566-.27-93.337ZM124.089,306.297c-6.008,4.618-13.349,6.994-21.293,6.994-3.3,0-6.703-.41-10.16-1.239-13.878-3.33-26.497-13.145-32.147-25.006-6.396-13.427-5.918-59.357-4.594-72.81,1.291-13.114,21.508-40.565,30.054-49.135.117-.118,12.813-11.853,15.855-12.115,2.499-.212,6.228,1.362,14.974,14.719,4.946,7.555,9.349,15.69,10.5,18.425,6.474,15.371,5.318,26.408,4.095,38.093-.7,6.685-1.424,13.596-.861,21.96.308,4.577,1.279,9.511,2.308,14.735,3.101,15.743,6.613,33.586-8.729,45.379ZM147.528,143.774c-.463,4.154-.9,8.077-1.093,11.656l-.099,1.844-1.792.448c-1.063.266-4.309,1.075-5.383-2.358-.014-.046-.027-.094-.045-.144-1.015-1.311-2.146-2.833-3.377-4.49-8.881-11.954-23.753-31.962-36.831-27.327-11.228,3.972-26.966,19.283-37.95,32.286l-3.366,3.985-.998-5.12c-3.472-17.821,5.3-38.507,22.345-52.699,16.053-13.367,35.077-17.632,50.896-11.417,22.647,8.902,19.899,33.54,17.692,53.336ZM182.975,155.22c-.018.049-.031.098-.045.144-1.073,3.433-4.318,2.624-5.383,2.358l-1.688-.422-.19-1.729c-.193-1.743-.414-3.573-.643-5.47-2.074-17.215-4.657-38.64,5.544-51.602,4.561-5.794,11.294-9.252,20.015-10.28,16.631-1.957,33.684,4.309,46.779,17.198,13.509,13.295,20.521,31.581,18.76,48.916l-.58,5.708-3.786-4.312c-11.853-13.5-33.119-33.407-43.528-33.407-.088,0-.175.001-.262.004-10.422.344-24.596,19.137-32.21,29.233-1.025,1.359-1.958,2.596-2.782,3.66ZM261.604,287.047c-5.604,11.762-17.597,21.266-31.299,24.801-3.719.959-7.391,1.434-10.949,1.434-7.603,0-14.687-2.167-20.599-6.397-16.268-11.642-12.675-29.825-9.506-45.869,1.039-5.258,2.02-10.224,2.33-14.833.521-7.743-.196-14.701-.89-21.43-1.202-11.662-2.337-22.677,2.856-36.129,4.844-12.55,13.817-25.625,24.003-34.975l.519-.476.69-.136c3.729-.733,13.729,8.528,14.856,9.587,5.268,4.943,13.084,14.616,19.45,24.068,5.567,8.267,12.364,19.756,13.131,27.543,1.324,13.453,1.803,59.382-4.594,72.81Z"/>
</svg>