<?xml version="1.0" encoding="UTF-8"?>
<svg id="a" data-name="Layer 1" xmlns="http://www.w3.org/2000/svg" width="400" height="400" viewBox="0 0 400 400">
  <path d="M103.969,190.644c-.755-2.515-8.296-2.427-9.268-.336-.256.551-.641,3.683-.712,4.566-.382,4.77-.667,17.585.109,21.952.713,4.008,7.433,4.184,9.357,2.152,1.537-1.624.156-24.487.513-28.334Z" fill="none"/>
  <polygon points="135.494 125.531 131.895 143.769 139.573 143.769 135.494 125.531" fill="none"/>
  <path d="M230.03,188.872c-1.993-.362-4.845.263-6.958,0v13.915c3.347-.346,8.104,1.508,8.647-3.11.251-2.133.683-10.374-1.688-10.805Z" fill="none"/>
  <path d="M270.896,97.479c-2.275-4.184-6.637-6.783-11.381-6.783H70.626c-7.137,0-12.943,5.807-12.943,12.944v132.222c0,2.15.54,4.28,1.562,6.16.272.501.582.99.918,1.45.675.924,1.469,1.757,2.358,2.473,1.361,1.098,2.897,1.895,4.566,2.37,1.146.326,2.337.491,3.538.491h188.89c7.137,0,12.943-5.807,12.943-12.944V103.639c0-1.366-.212-2.709-.63-3.993-.242-.745-.557-1.475-.933-2.167ZM163.567,114.501h13.437l10.317,24.955,10.317-24.955h13.437v49.901h-11.997l.475-29.266-7.397,16.348-9.923.146-6.909-16.501.24,29.274h-11.997v-49.901ZM126.638,114.525l17.511-.056,12.22,49.932h-12.477l-2.445-11.468-10.769-.079-.846.616-2.255,10.931h-12.477l11.54-49.877ZM74.794,153.6c-.665-6.632-.665-21.186,0-27.818,1.1-10.968,15.055-12.259,23.744-11.756,2.54.147,6.265.548,8.403,1.675v9.836c-5.025-.824-12.607-2.896-17.311-.275-1.726.962-1.749,2.025-1.903,3.855-.613,7.303.233,15.82.337,23.211.855,3.292,6.471,3.067,8.799,1.758v-16.554h12.477v24.471c-9.529,3.894-33.117,5.848-34.546-8.402ZM116.689,220.931c-3.058,12.711-33.13,12.272-35.153-.66-.672-4.299-.664-28.383.183-32.386,1.131-5.339,7.712-8.366,12.638-8.955,7.932-.949,21.258.228,22.618,10.224.635,4.66.693,27.704-.287,31.777ZM152.716,229.206l-17.896-.077-11.083-49.854h12.957l7.438,38.87,6.478-38.87h13.437l-11.33,49.93ZM201.477,188.872h-17.276v10.556h14.876v8.877l-.72.72h-14.156v10.316l.72.72h16.556v9.117h-30.232v-49.901h30.232v9.596ZM232.19,229.177l-7.258-17.69-1.86-.064v17.753h-12.957v-49.901c7.022.496,14.919-.668,21.834,0,8.014.774,12.191,4.074,12.74,12.212.482,7.146.865,16.503-7.217,19.21l9.113,18.478h-14.396ZM251.865,124.097h-17.276v10.076h14.876v9.596h-14.396l-.48,11.036h17.276v9.596h-29.753v-49.901h29.753v9.596Z" fill="none"/>
  <path d="M347.687,162.573c-.266-.279-.538-.551-.817-.816-.264-.278-.534-.549-.812-.813-.264-.278-.536-.55-.814-.814-.266-.28-.538-.552-.818-.818-.265-.278-.535-.55-.814-.814-.264-.278-.534-.549-.812-.813-.265-.279-.537-.551-.815-.815-.266-.28-.537-.552-.817-.817-.265-.278-.535-.55-.814-.814-.264-.278-.535-.55-.813-.814-.266-.279-.537-.551-.817-.816-.264-.278-.535-.549-.813-.813-.264-.279-.536-.55-.814-.815-.266-.28-.538-.553-.818-.818-.265-.278-.535-.55-.814-.814-.264-.278-.534-.549-.812-.813-.265-.279-.538-.552-.816-.817-.265-.278-.536-.549-.815-.814-.265-.279-.537-.552-.816-.817-.264-.278-.535-.549-.813-.813-.264-.278-.535-.549-.813-.813-.266-.28-.538-.553-.818-.818-.264-.278-.534-.548-.812-.812-.265-.279-.537-.551-.815-.816-.266-.279-.537-.551-.816-.817-.265-.278-.536-.549-.815-.814-.265-.278-.535-.55-.813-.814-.265-.279-.537-.551-.816-.816-.265-.279-.537-.551-.816-.816-.265-.278-.535-.549-.813-.813-.264-.278-.535-.549-.813-.813-.266-.28-.538-.553-.818-.818-.264-.278-.534-.548-.812-.812-.265-.279-.537-.551-.815-.816-.266-.279-.537-.552-.817-.817-.265-.278-.535-.55-.814-.814-.265-.278-.535-.55-.813-.814-.265-.279-.537-.551-.816-.816-.265-.279-.536-.55-.815-.815-.265-.278-.536-.55-.813-.814-.265-.278-.536-.549-.814-.813-.266-.28-.538-.553-.818-.818-.264-.278-.534-.549-.812-.812-.264-.279-.536-.55-.814-.814-.266-.28-.538-.553-.818-.818-.264-.278-.534-.548-.812-.812-.265-.279-.537-.551-.815-.816-.265-.279-.537-.551-.816-.816-.265-.279-.536-.55-.815-.815-.265-.278-.536-.55-.813-.814-.265-.278-.536-.55-.814-.814-.266-.28-.538-.553-.818-.818-.265-.278-.535-.549-.813-.813-.264-.278-.535-.549-.813-.813-.266-.28-.538-.553-.818-.818-.264-.278-.534-.548-.812-.812-.265-.279-.537-.551-.815-.816-.266-.279-.538-.552-.817-.817-.265-.278-.535-.55-.814-.814-.265-.278-.535-.55-.813-.814-.266-.279-.537-.551-.816-.816-.266-.279-.537-.551-.816-.816-.265-.278-.535-.549-.813-.813-.264-.278-.535-.549-.813-.813-.266-.28-.538-.553-.818-.818-.264-.278-.534-.548-.812-.812-.265-.279-.537-.551-.815-.816-.266-.28-.538-.552-.817-.817-.265-.278-.536-.549-.814-.814-.265-.278-.535-.55-.813-.814-.265-.279-.537-.551-.816-.816-.265-.279-.537-.551-.816-.816-.265-.278-.535-.549-.812-.814-.265-.278-.536-.549-.814-.813-.266-.28-.538-.553-.818-.818-.264-.278-.534-.548-.812-.812-.264-.278-.536-.55-.814-.814-.266-.28-.538-.553-.818-.818-.264-.278-.534-.548-.812-.812-.265-.279-.537-.551-.815-.816-.266-.279-.537-.551-.816-.816-.265-.279-.536-.55-.815-.815-.21-.221-.424-.438-.643-.649-3.446-8.307-11.659-13.833-20.687-13.833H70.626c-9.948,0-18.77,6.657-21.516,16.211-.978,2.555-1.474,5.237-1.474,7.974v132.222c0,6.1,2.543,12.007,6.98,16.224.265.278.536.55.814.814.265.279.537.551.816.816.265.278.535.55.813.814.265.278.536.55.814.815.266.279.537.551.817.816.265.278.535.55.814.814.264.278.535.55.813.814.266.28.538.553.818.818.265.278.536.55.814.815.265.278.535.548.812.812.266.28.538.553.818.818.265.278.535.55.814.814.264.278.534.549.812.813.265.279.537.551.815.815.266.279.537.552.817.817.265.278.535.55.813.814.265.278.536.55.814.815.266.279.537.551.817.816.265.278.535.55.814.814.264.278.535.55.813.814.266.28.538.553.818.818.265.278.535.55.814.814.264.278.535.549.812.813.266.279.538.551.816.816.265.279.536.551.815.815.265.278.536.55.814.814.265.278.536.55.814.815.266.279.538.551.817.816.265.278.535.55.814.814.264.278.535.55.813.814.266.28.538.553.818.818.265.278.536.55.814.815.265.278.535.549.812.813.266.279.538.551.816.816.265.279.537.551.816.816.265.278.535.55.813.814.265.278.536.55.814.815.266.279.537.551.817.816.265.278.535.55.813.814.265.278.536.55.814.814.266.28.538.553.818.818.265.278.536.55.814.815.265.278.535.548.812.812.266.28.538.553.818.818.265.278.536.55.814.815.265.278.535.549.812.813.265.278.537.55.815.815.266.279.537.551.816.816.265.278.536.55.814.814.265.278.536.55.814.815.266.279.538.551.817.816.264.278.535.549.812.813.265.279.537.551.815.816.266.279.538.552.818.817.265.278.536.55.814.815.265.278.535.549.812.813.266.279.538.551.816.816.265.279.537.551.816.816.265.278.535.55.813.814.265.278.536.55.814.815.266.279.537.551.817.816.265.278.535.55.813.814.265.278.536.55.814.815.266.279.538.552.818.817.265.278.536.55.814.815.265.278.535.548.812.812.266.279.538.551.816.816.265.279.537.551.816.816.265.278.535.549.814.813.264.278.535.55.813.815.266.279.537.551.817.816.265.278.535.55.813.814.265.278.536.55.814.815.266.279.538.552.818.817.265.278.535.55.814.814.264.278.535.549.812.813.266.28.538.553.818.818.265.278.536.55.814.815.264.278.535.548.813.812.264.279.536.55.814.815.266.279.538.552.817.817.265.278.535.549.813.813.265.278.536.55.814.815.266.279.537.551.816.816.265.278.536.549.813.813.265.279.537.551.815.816.266.28.538.552.818.817.265.278.535.55.814.814.264.278.534.548.812.812,4.217,4.439,10.125,6.982,16.227,6.982h188.89c12.345,0,22.389-10.043,22.389-22.389v-132.222c0-6.099-2.543-12.006-6.979-16.224ZM272.459,235.861c0,7.137-5.807,12.944-12.943,12.944H70.626c-1.201,0-2.392-.166-3.538-.491-1.669-.475-3.205-1.272-4.566-2.37-.89-.716-1.684-1.549-2.358-2.473-.336-.46-.646-.949-.918-1.45-1.022-1.88-1.562-4.01-1.562-6.16V103.639c0-7.137,5.807-12.944,12.943-12.944h188.89c4.744,0,9.105,2.6,11.381,6.783.376.693.69,1.422.933,2.167.418,1.284.63,2.627.63,3.993v132.222Z"/>
  <polygon points="175.324 135.128 182.233 151.628 192.156 151.483 199.553 135.135 199.078 164.402 211.075 164.402 211.075 114.501 197.638 114.501 187.321 139.456 177.003 114.501 163.567 114.501 163.567 164.402 175.564 164.402 175.324 135.128"/>
  <path d="M244.69,191.488c-.549-8.138-4.726-11.438-12.74-12.212-6.915-.668-14.813.496-21.834,0v49.901h12.957v-17.753l1.86.064,7.258,17.69h14.396l-9.113-18.478c8.082-2.707,7.698-12.064,7.217-19.21ZM231.719,199.677c-.543,4.618-5.3,2.764-8.647,3.11v-13.915c2.113.263,4.965-.362,6.958,0,2.372.431,1.939,8.672,1.688,10.805Z"/>
  <path d="M94.358,178.93c-4.927.589-11.508,3.616-12.638,8.955-.848,4.003-.855,28.087-.183,32.386,2.023,12.932,32.095,13.371,35.153.66.98-4.073.921-27.117.287-31.777-1.361-9.996-14.686-11.172-22.618-10.224ZM103.456,218.978c-1.924,2.033-8.644,1.857-9.357-2.152-.777-4.366-.491-17.181-.109-21.952.071-.883.456-4.015.712-4.566.972-2.092,8.512-2.179,9.268.336-.356,3.846,1.024,26.71-.513,28.334Z"/>
  <path d="M129.831,153.471l.846-.616,10.769.079,2.445,11.468h12.477l-12.22-49.932-17.511.056-11.54,49.877h12.477l2.255-10.931ZM135.494,125.531l4.079,18.238h-7.678l3.599-18.238Z"/>
  <polygon points="144.132 218.146 136.693 179.276 123.737 179.276 134.82 229.13 152.716 229.206 164.047 179.276 150.61 179.276 144.132 218.146"/>
  <path d="M109.34,162.002v-24.471h-12.477v16.554c-2.328,1.309-7.944,1.534-8.799-1.758-.104-7.391-.95-15.908-.337-23.211.154-1.83.177-2.894,1.903-3.855,4.704-2.621,12.286-.549,17.311.275v-9.836c-2.138-1.127-5.863-1.528-8.403-1.675-8.688-.503-22.644.788-23.744,11.756-.665,6.632-.665,21.186,0,27.818,1.429,14.251,25.017,12.296,34.546,8.402Z"/>
  <polygon points="171.245 229.177 201.477 229.177 201.477 220.06 184.921 220.06 184.202 219.341 184.202 209.024 198.358 209.024 199.078 208.305 199.078 199.428 184.202 199.428 184.202 188.872 201.477 188.872 201.477 179.276 171.245 179.276 171.245 229.177"/>
  <polygon points="222.112 164.402 251.865 164.402 251.865 154.805 234.589 154.805 235.069 143.769 249.466 143.769 249.466 134.173 234.589 134.173 234.589 124.097 251.865 124.097 251.865 114.501 222.112 114.501 222.112 164.402"/>
</svg>