<?xml version="1.0" encoding="UTF-8"?>
<svg id="a" data-name="Layer 1" xmlns="http://www.w3.org/2000/svg" width="400" height="400" viewBox="0 0 400 400">
  <path d="M344.097,77.529H95.943c-4.335-.022-8.485,1.754-11.463,4.905-.052.052-.103.052-.103.103l-28.089,28.863v.052c-3.82,2.981-6.065,7.547-6.093,12.392v192.647c.028,3.629,1.284,7.141,3.563,9.965.052.052.052.103.103.155.027.029.064.048.103.052,2.984,3.629,7.436,5.732,12.134,5.731h248.153c3.975-.012,7.803-1.503,10.74-4.182.029,0,.052-.023.052-.052h.052l.155-.207,29.431-30.051.103-.103c3.303-3.004,5.194-7.256,5.215-11.721V93.38c-.026-8.764-7.139-15.855-15.903-15.852ZM349.673,286.079c.011,3.068-2.467,5.565-5.535,5.576-.014,0-.028,0-.041,0H95.943c-3.068.011-5.565-2.467-5.576-5.535,0-.014,0-.028,0-.041V93.38c.008-3.06,2.496-5.533,5.556-5.525.007,0,.014,0,.021,0h248.153c3.06-.02,5.556,2.444,5.576,5.504,0,.007,0,.014,0,.021v192.698Z"/>
  <path d="M160.202,203.609h-30.908c-2.852,0-5.163,2.312-5.163,5.163v34.001c0,2.852,2.312,5.163,5.163,5.163h30.908c2.852,0,5.163-2.312,5.163-5.163v-34.001c0-2.852-2.312-5.163-5.163-5.163ZM155.039,237.61h-20.581v-23.674h20.581v23.674Z"/>
  <path d="M210.385,169.608h-30.908c-2.852,0-5.163,2.312-5.163,5.163v68.002c0,2.852,2.312,5.163,5.163,5.163h30.908c2.852,0,5.163-2.312,5.163-5.163v-68.002c0-2.852-2.312-5.163-5.163-5.163ZM205.222,237.61h-20.581v-57.675h20.581v57.675Z"/>
  <path d="M260.568,131.548h-30.913c-2.852,0-5.163,2.312-5.163,5.163v106.062c0,2.852,2.312,5.163,5.163,5.163h30.913c2.852,0,5.163-2.312,5.163-5.163v-106.062c0-2.852-2.312-5.163-5.163-5.163ZM255.405,237.61h-20.586v-95.735h20.586v95.735Z"/>
  <path d="M310.746,169.608h-30.908c-2.852,0-5.163,2.312-5.163,5.163v68.002c0,2.852,2.312,5.163,5.163,5.163h30.908c2.852,0,5.163-2.312,5.163-5.163v-68.002c0-2.852-2.312-5.163-5.163-5.163ZM305.583,237.61h-20.581v-57.675h20.581v57.675Z"/>
  <path d="M116.695,120.674h39.593c2.852,0,5.163-2.312,5.163-5.163s-2.312-5.163-5.163-5.163h-39.593c-2.852,0-5.163,2.312-5.163,5.163s2.312,5.163,5.163,5.163Z"/>
  <path d="M195.339,138.906c0-2.852-2.312-5.163-5.163-5.163h-73.48c-2.852,0-5.163,2.312-5.163,5.163s2.312,5.163,5.163,5.163h73.48c2.852,0,5.163-2.312,5.163-5.163Z"/>
</svg>