<?xml version="1.0" encoding="UTF-8"?>
<svg id="a" data-name="Layer 1" xmlns="http://www.w3.org/2000/svg" width="400" height="400" viewBox="0 0 400 400">
  <path d="M47.164,125.36c-9.123,39.832,11.255,82.13,37.273,114.612,18.503,24.035,36.461,47.596,55.554,71.005,6.281,7.164,13.812,12.608,22.909,14.731,10.794,2.483,21.633,1.19,33.556,1.496,22.507-.045,49.746.059,70.664-.008,7.108-.03,14.053.029,21.003-1.505,21.845-3.995,23.309-23.607,23.417-42.255.132-29.902.327-59.685-.194-89.641.199-31.722-15.015-48.609-31.421-73.606-9.126-13.071-17.542-27.675-31.358-36.267-17.31-10.482-39.982-10.946-58.288-2.886-8.502,3.327-16.922,11.254-25.052,13.238-13.077,2.752-22.807-11.479-34.689-15.197-35.923-15.336-76.535,7.996-83.334,46.093l-.041.19ZM113.406,96.202c9.313.939,17.914,5.151,24.757,11.691,10.453,9.906,19.782,27.726,34.847,12.668,5.036-4.977,9.372-10.887,15.021-15.258,7.226-5.767,15.731-9.139,24.426-9.557,25.335-.737,41.537,17.279,42.66,42.08,4.265,57.653-39.153,94.581-81.248,126.768-12.445,8.841-23.259,1.971-33.93-6.154-40.823-29.565-67.097-61.925-73.105-113.459-.31-6.147.306-12.148,1.827-17.555,5.561-21.274,23.786-33.713,44.548-31.243l.197.021Z"/>
</svg>