<?xml version="1.0" encoding="UTF-8"?>
<svg id="a" data-name="Layer 1" xmlns="http://www.w3.org/2000/svg" width="400" height="400" viewBox="0 0 400 400">
  <path d="M340.904,151.164c-21.593-25.386-78.935-82.668-104.098-96.358-22.604-12.3-47.639-17.807-72.385-15.935-23.231,1.761-45.811,9.878-65.297,23.473-19.587,13.665-35.095,32.187-44.848,53.562-10.369,22.727-13.871,48.217-10.126,73.713,5.434,36.999,21.084,55.443,44.341,79.359,5.808,5.972,12.295,12.976,19.164,20.392,16.327,17.627,34.834,37.606,49.508,49.289,5.041,4.015,9.405,7.488,15.533,8.912l153.488.603c7.335-1.355,13.064-3.931,17.033-7.655,4.369-4.101,8.182-11.958,8.868-18.278,2.616-24.091,1.441-51.137.305-77.292-1.048-24.114-2.131-49.049-.277-71.875-.53-8.673-5.826-15.578-11.21-21.909ZM173.768,274.172c-57.751,0-104.734-46.983-104.734-104.733s46.983-104.733,104.734-104.733,104.733,46.983,104.733,104.733-46.983,104.733-104.733,104.733Z"/>
  <g>
    <path d="M209.307,127.429c-5.266-25.4-36.472-29.062-61.602-24.479-2.016.367-3.979.878-5.878,1.372-.997.259-1.994.519-2.997.756l-1.923.456v33.528l3.535-1.608c3.958-1.801,8.661-3.094,13.979-3.842,5.923-.836,16.05-1.301,19.659-.003,1.113.4,1.858,1.03,2.277,1.927,1.023,2.19,1.198,11.772.812,16.917-.285,3.81-1.287,5.397-3.97,6.295-.937.313-3.514.937-4.082.97h-20.042l1.439,39.584h28.579l1.256-13.21c14.443-.3,23.404-5.871,27.357-16.985,3.271-9.2,3.387-33.05,1.599-41.678Z"/>
    <path d="M164.102,208.544h0c-6.374.203-11.584,2.721-14.67,7.089-3.309,4.684-3.949,10.97-1.803,17.701,2.396,7.517,10.504,10.821,17.666,10.821.176,0,.352-.002.525-.006,8.716-.198,15.527-4.703,17.353-11.477,1.922-7.134,1.079-13.253-2.439-17.696-3.467-4.379-9.38-6.679-16.631-6.433Z"/>
  </g>
</svg>