<?xml version="1.0" encoding="UTF-8"?>
<svg id="a" data-name="Layer 1" xmlns="http://www.w3.org/2000/svg" width="400" height="400" viewBox="0 0 400 400">
  <path d="M117.424,155.258c4.622,2.944,8.249,7.127,10.435,12.035,3.284,7.334,8.724,13.582,15.647,17.973,6.93,4.395,15.043,6.737,23.337,6.737s16.408-2.342,23.337-6.737c6.927-4.393,12.368-10.644,15.652-17.983,2.186-4.903,5.811-9.083,10.432-12.025,4.621-2.944,10.035-4.521,15.576-4.534h31.298l-22.181-96.215H92.73l-22.18,96.215h31.298c5.54.014,10.954,1.59,15.576,4.534ZM121.437,69.996h89.376v24.012s-89.405.794-89.376,0c.029-.793,0-24.012,0-24.012ZM108.983,106.015h115.723v24.012h-115.723v-24.012Z" fill="none"/>
  <path d="M205.854,208.232c-11.584,7.346-25.145,11.261-39.01,11.261s-27.426-3.915-39.01-11.261c-11.565-7.334-20.653-17.768-26.145-30.018h-34.655v68.725h199.621v-68.725h-34.656c-5.491,12.25-14.579,22.683-26.145,30.018Z" fill="none"/>
  <path d="M361.332,334.99c-.16-17.84.359-64.501-.206-86.286l-.048-.469c-7.548-35.675-27.248-118.267-32.42-141.569-1.467-6.202-4.577-11.329-7.644-17.292-11.252-19.307-18.891-41.723-32.974-59.297-2.374-2.091-4.614-2.605-7.577-2.589-3.472-.003-9.242-.005-16.522-.006l-.107-.463H69.854l-31.338,135.942v108.006c0,.811.294,1.55.7,2.217.942,7.136,3.603,13.993,6.92,20.689,9.998,19.279,19.629,38.402,30.047,57.616,4.239,7.725,11.253,15.176,19.511,18.351,5.892,2.397,9.313,2.917,14.387,3.02,22.281.001,163.651.018,213.34.009,20.875,1.719,39.966-16.414,37.912-37.878ZM92.73,54.509h148.227l22.181,96.215h-31.298c-5.541.014-10.955,1.59-15.576,4.534-4.62,2.943-8.246,7.123-10.432,12.025-3.284,7.339-8.725,13.59-15.652,17.983-6.929,4.395-15.043,6.737-23.337,6.737s-16.407-2.342-23.337-6.737c-6.924-4.391-12.363-10.638-15.647-17.973-2.186-4.909-5.813-9.091-10.435-12.035s-10.037-4.521-15.576-4.534h-31.298l22.18-96.215ZM266.655,246.939H67.034v-68.725h34.655c5.491,12.25,14.579,22.683,26.145,30.018,11.584,7.346,25.145,11.261,39.01,11.261s27.427-3.915,39.01-11.261c11.565-7.334,20.654-17.768,26.145-30.018h34.656v68.725Z" fill-rule="evenodd"/>
  <path d="M210.814,94.008v-24.012h-89.376s.029,23.219,0,24.012c-.029.794,89.376,0,89.376,0Z" fill-rule="evenodd"/>
  <rect x="108.983" y="106.015" width="115.723" height="24.012"/>
</svg>