<?xml version="1.0" encoding="UTF-8"?>
<svg id="a" data-name="Layer 1" xmlns="http://www.w3.org/2000/svg" width="400" height="400" viewBox="0 0 400 400">
  <path d="M74.987,308.254c21.09,14.835,41.85,30.718,59.375,44.3,8.629,6.685,18.304,9.714,30.459,9.428,26.025-.536,52.485-.877,78.073-1.208,18.599-.237,37.199-.477,55.796-.79,25.893-.435,34.55-9.331,34.306-35.251-.144-15.316-.386-30.628-.627-45.94-.308-19.58-.628-39.829-.729-59.755q-.226-45.048-18.01-58.933c-4.705-3.673-10.56-8.244-17.864-14.685-8.817-7.781-18.449-12.099-27.851-12.492-28.958-1.212-52.255-.787-73.314,1.33-.171.038-.743.324-1.121.512-1.427.707-3.579,1.769-5.999.884-1.607-.599-2.846-1.908-3.685-3.899-.992-2.354-1.729-6.998,4.493-11.629,10.304-7.67,10.391-17.732,7.189-31.481-3.635-15.611-11.998-29.775-25.548-43.248h-.162c-.982,1.466-1.971,2.925-2.959,4.383-10.034,14.804-19.511,28.782-21.058,46.855-.888,10.347,1.337,17.046,7.435,22.394l1.175,1.006c2.855,2.409,6.089,5.139,6.935,10.636,2.213,14.403-1.812,27.571-12.664,41.445-5.689,7.273-13.148,6.692-19.138,6.218-2.225-.174-4.328-.341-6.236-.139-2.651.275-5.323.373-7.908.467-4.77.174-9.701.355-14.771,1.664l-4.603,1.191.146-4.752c.049-1.602-.254-3.537-.547-5.403-.623-3.972-1.269-8.077,1.06-11.141,1.286-1.692,3.215-2.698,5.732-2.987,3.462-.404,4.843-.999,5.332-1.288-.247-.801-1.187-2.308-1.777-3.259-.717-1.152-1.457-2.343-2.047-3.61-1.633-3.513-3.332-6.991-4.991-10.389l-3.306-6.807,1.955-1.793c2.66-2.437,5.699-2.583,7.919-2.688.386-.017.721-.035,1.011-.059-2.303-3.321-4.545-6.702-6.73-9.996-5.151-7.771-10.453-15.768-16.741-23.261l-21.729,33.639c.24.024.493.045.759.066,2.507.198,6.296.505,8.648,4.376l.987,1.626-10.624,22.999c.552.111,1.257.171,2.193.233,2.705.181,6.796.456,9.164,4.773,3.976,7.238.848,29.197-6.448,35.293-14.127,11.796-22.345,32.588-21.447,54.261.961,23.208,12.074,43.952,30.49,56.903ZM111.385,200.913c5.71-.251,11.493-.299,17.084-.348,3.727-.031,7.454-.063,11.181-.153,10.513-.254,24.195-3.854,29.67-19.549,6.349-18.198,19.11-26.457,39.911-26.011,7.722.164,15.629-.024,23.274-.209,8.54-.209,17.371-.425,26.098-.139,20.235.641,33.312,12.663,34.978,32.159,1.159,13.596-3.706,22.334-15.312,27.501-17.833,7.938-26.805,21.903-27.431,42.688-.769,25.482-12.715,37.138-38.731,37.796-11.374.285-22.93.411-34.106.533-5.094.056-10.187.111-15.281.181h-.002c-5.153.07-10.306.171-15.458.272-8.96.178-18.167.359-27.334.359-2.216,0-4.43-.01-6.638-.035-28.577-.306-45.247-17.345-45.738-46.751-.501-30.307,14.654-47.008,43.833-48.293Z" fill="#060606"/>
</svg>