<?xml version="1.0" encoding="UTF-8"?>
<svg id="a" data-name="Layer 1" xmlns="http://www.w3.org/2000/svg" width="400" height="400" viewBox="0 0 400 400">
  <path d="M335.999,188.516c-2.412-6.146-9.988-10.64-14.317-15.795-12.135-10.617,12.14,3.083,14.274-16.545l.009-.114c.271-4.488-.124-24.655.034-34.569.302-3.596-.117-6.885-3.408-8.916-10.039-10.345-20.446-20.278-30.463-30.626-4.929-3.414-9.05-12.149-15.204-12.315-6.209.875-16.363-2.633-20.703,3.75-2.882,19.114-4.517,30.615-27.745,31.192-21.968-.329-25.023-17.922-24.329-34.912-4.014.081-51.036-.119-63.24-.027-6.272.04-8.832,6.265-8.146,11.755-.881,33.887-55.175,29.242-50.507-4.098-.479-2.142.898-6.578-.685-7.642-2.785-.038-18.122-.005-21.919-.016-3.028-.36-5.988,2.579-5.65,5.622-.022,11.266.015,32.205,0,41.56-.365,3.303.354,7.39,4.22,8.037,3.509.087,165.621.097,212.158.078,3.579.001,7.823,3.371,7.817,7.396.51,4.286-3.768,8.435-7.897,8.359-43.811.012-209.302-.009-211.63,0-6,1.75-4.482,4.691-4.668,11.8,0,6.569,0,17.145,0,29.726.413,47.298-.822,116.679.484,122.396,7.689,8.438,16.252,16.412,24.361,24.571,4.81,4.953,9.657,9.809,14.627,14.627,2.489,2.31,4.815,6.162,8.208,6.878,12.985-.645,53.693.474,75.447.003,33.697.076,135.053-.052,136.368.001,6.676-.028,12.57-5.801,12.504-12.544-.422-8.899.306-118.73,0-149.631ZM260.69,277.411l-.01.103c-.312,5.974-5.529,10.881-11.498,10.894-8.026-.26-45.273.189-61.373,0-9.182,0-18.694,0-28.001,0-37.302-.215-64.815.472-70.36-.333-5.296-1.041-9.075-6.1-9.052-11.389.122-4.696-.088-72.324,0-93.665.197-10.374-.366-12.345.261-16.695.729-5.188,5.99-9.297,10.911-9.381,7.205.27,121.954-.572,159.912.275,5.33.942,9.22,6.018,9.24,11.301.427,2.236-.269,86.57-.031,108.888Z"/>
  <path d="M107.491,84.725s.002.01.003.015c.378,1.163.964,2.106,1.759,2.862.165.157.348.299.54.434l1.547.893c1.589.684,3.611,1.03,6.195,1.03,7.528,0,10.586-2.712,10.586-9.364v-21.919c0-1.909-.285-3.458-.821-4.747-.313-.752-.729-1.401-1.241-1.957-.043-.047-.08-.1-.124-.145-.227-.234-.482-.443-.747-.643-.143-.106-.295-.204-.449-.301-.254-.161-.506-.323-.792-.458-.429-.2-.89-.375-1.392-.518-.224-.066-.475-.11-.714-.165-.416-.093-.846-.175-1.308-.235-.23-.032-.461-.062-.704-.085-.719-.067-1.469-.113-2.293-.113h0c-2.238,0-4.037.272-5.524.781-1.02.35-1.915.793-2.611,1.407-1.281,1.133-2.031,2.734-2.326,4.866-.099.711-.146,1.482-.146,2.313v21.923c0,.809.049,1.554.142,2.248.093.68.233,1.304.421,1.877Z"/>
  <path d="M229.802,86.783s.002.01.003.015c.378,1.163.964,2.106,1.76,2.862.165.157.348.299.539.433l1.547.894c1.589.684,3.611,1.03,6.195,1.03,7.528,0,10.586-2.712,10.586-9.364v-21.919c0-1.909-.285-3.458-.821-4.747-.312-.752-.728-1.401-1.24-1.957-.043-.047-.08-.1-.125-.145-.226-.234-.482-.443-.747-.643-.143-.106-.295-.204-.449-.301-.254-.161-.506-.323-.792-.458-.429-.2-.89-.375-1.391-.518-.225-.066-.476-.111-.714-.165-.416-.093-.847-.175-1.308-.235-.231-.032-.461-.062-.704-.085-.719-.067-1.469-.113-2.293-.113h0c-2.239,0-4.038.272-5.524.781-1.019.35-1.915.793-2.611,1.407-1.281,1.133-2.031,2.734-2.327,4.866-.098.711-.146,1.482-.146,2.313v21.923c0,.809.049,1.554.142,2.248.093.68.232,1.305.421,1.877Z"/>
  <path d="M165.391,220.069c4.477-5.087,4.292-15.733,3.371-22.13-3.104-21.575-36.619-20.397-52.55-17.094v18.166c6.592-.757,21.726-4.038,27.17.083,4.114,3.115,2.671,16.353-2.512,16.353h-15.141v17.734l1.298,1.298h16.438c2.963,2.312,2.956,12.732,1.359,15.2-3.889,6.006-24.75,1.927-31.207.371v18.166c14.397,4.29,49.332,5.903,54.548-12.501,1.354-4.776,1.483-19.676.231-24.536-1.111-4.31-3.851-6.145-8.053-7.091,1.219-1.798,3.358-2.096,5.049-4.018Z"/>
  <path d="M181.965,192.09v21.626l16.011-9.51c-.062,1.288,1.292,3.816,1.292,4.752v60.987h23.36v-89.966h-21.197c-1.146,0-16.133,11.733-19.466,12.111Z"/>
</svg>