<?xml version="1.0" encoding="UTF-8"?>
<svg id="a" data-name="Layer 1" xmlns="http://www.w3.org/2000/svg" width="400" height="400" viewBox="0 0 400 400">
  <path d="M336.305,184.224l-.013-.027c-2.109-4.823-36.73-88.813-38.461-93.641-.458-1.969-1.433-3.87-2.763-5.378l-.18-.192c-14.946-15.021-30.733-30.808-49.68-49.683-2.243-2.322-5.904-3.369-8.555-3.376l-.194-.005-.242.027c-1.62.125-16.966.063-30.507.009-14.61-.059-31.169-.125-38.983-.021-4.014.045-7.772,1.965-10.053,5.135l-.259.405c-1.129,2.003-11.373,19.51-24.343,41.675-23.699,40.5-56.157,95.967-68.305,117.133l-.166.319c-2.342,4.994-.864,11.262,3.509,14.981,6.606,6.426,13.207,13.134,19.592,19.623,9.82,9.979,19.975,20.298,30.462,29.919l.387.355.461.253c2.008,1.103,4.399,1.614,7.122,1.514h8.12c1.755,0,3.597-.003,5.245,0-1.647,6.598-4.03,16.114-6.066,24.249-2.123,8.48-3.809,15.214-4.016,16.061-1.188,4.565.413,9.547,4.091,12.759,6.492,6.461,13.066,13.053,19.426,19.43,9.614,9.64,19.555,19.609,29.426,29.337l.315.282c2.225,1.803,5.06,2.754,7.887,2.754,1.441,0,2.879-.247,4.234-.754,1.864-.65,3.665-1.881,5.11-3.49.508-.475,1.025-1.079,1.646-1.804.875-1.023,2.105-2.491,3.759-4.488,3.007-3.631,7.313-8.887,13.166-16.069,10.925-13.408,25.605-31.526,41.147-50.707,29.244-36.092,62.39-77,76.025-93.291l.047-.057c3.038-3.757,3.668-8.95,1.609-13.234ZM167.529,143.138h93.739l-107.169,131.368,20.946-83.786h-88.643L170.241,47.003l54.1-.005-56.812,96.141Z"/>
</svg>