<?xml version="1.0" encoding="UTF-8"?>
<svg id="a" data-name="Layer 1" xmlns="http://www.w3.org/2000/svg" width="400" height="400" viewBox="0 0 400 400">
  <path d="M159.341,135.183h.004c.531-1.602.804-3.277.807-4.964l-.811,4.964Z" fill="#323232"/>
  <path d="M314.171,249.457c31.894-40.628,33.758-108.108-10.512-138.195l-.24-.18c-27.243-19.917-53.49-41.186-81.311-60.299-13.615-8.363-29.208-12.433-44.085-15.639-8.708-2.02-17.505-2.84-26.181-2.556-19.92.275-38.491,6.364-55.439,18.265-19.666,13.811-30.471,30.68-33.032,51.574-1.931,15.917-.885,32.051,3.086,47.589,8.012,31.718,22.348,56.647,43.825,76.207.535.488,1.077.973,1.62,1.458,2.391,2.01,4.594,4.232,6.583,6.637,1.821,2.358,3.918,5.402,3.968,8.023.185,9.841-.391,19.539-1.041,28.548-.403,5.576-1.048,11.242-1.672,16.721-.382,3.348-.764,6.697-1.095,10.056-.673,6.782,1.393,10.474,7.039,12.358,23.731,17.88,47.453,35.621,71.188,53.418,2.239,1.698,5.572,2.524,8.214,3.023,3.966.785,8.129,1.071,12.126.985,13.017-.124,26.241-.414,39.048-.702,10.288-.615,23.544,2.367,24.382-11.899,1.44-15.653,2.034-27.627,2.129-38.826.179-6.685-.182-13.726-4.649-19.222-.517-.707-.704-1.095-.419-1.506,11.352-14.414,24.866-31.073,36.466-45.839ZM121.543,215.915c-1.033-1.047-2.066-2.098-3.068-3.167-22.997-24.493-35.617-50.725-38.579-80.196-1.02-10.149-1.776-20.955-.406-31.216,2.066-15.483,10.941-28.451,27.128-39.649,19.716-13.638,41.642-18.043,65.157-13.092,12.398,2.609,24.443,5.418,35.525,11.066,28.69,14.626,41.809,40.078,37.935,73.606-2.67,23.119-13.361,43.503-34.667,66.097-5.594,5.936-11.842,13.218-15.765,22.227-2.038,4.678-4.021,10.2-2.269,17.034l-15.744-1.184c-.022-.128-.025-.256-.012-.385,2.32-8.882,4.664-17.756,7.031-26.622,5.265-19.836,10.709-40.346,15.652-60.625,3.814-15.646,3.936-29.511.368-42.385-1.755-6.335-5.089-11.013-9.642-13.531-2.194-1.144-4.596-1.835-7.064-2.029-2.468-.194-4.951.112-7.297.9-1.87.62-3.672,1.429-5.376,2.414l-.7.372c-1.102.584-2.125,1.257-3.207,1.962l-.596.388c-.297-.373-.588-.744-.877-1.113-1.058-1.401-2.188-2.747-3.385-4.033-6.363-6.617-15.519-7.261-22.788-1.599-4.92,3.966-8.649,9.204-10.779,15.139-7.496,19.145-8.052,39.106-1.654,59.328,3.348,10.583,6.895,21.294,10.331,31.651,1.295,3.908,2.587,7.817,3.875,11.726,2.804,8.772,4.444,17.868,4.879,27.063h-12.009c-.669-8.629-6.428-14.479-11.997-20.147ZM191.412,290.288l-.343,7.754-58.451-.088.209-9.543,58.585,1.876h0ZM146.729,143.155c.227,3.235.986,6.409,2.246,9.399.506,1.506,1.418,2.845,2.636,3.871,1.218,1.026,2.695,1.7,4.271,1.949,1.576.249,3.19.063,4.667-.538,1.477-.601,2.76-1.594,3.709-2.87,2.129-2.474,3.798-5.306,4.928-8.363,4.279-10.84,5.104-22.727,2.362-34.05-.864-3.709,1.77-6.824,7.233-8.548,2.218-.701,3.96-.701,5.176-.008.63.439,1.162,1.004,1.56,1.659.4.655.657,1.385.755,2.144,1.378,6.039,3.082,13.554,2.222,20.305-1.492,11.674-4.033,23.441-6.492,34.819-.459,2.14-.917,4.279-1.376,6.417-1.474,6.919-3.084,13.934-4.643,20.718-2.09,9.111-4.247,18.534-6.119,27.859-.791,4.576-1.231,9.202-1.319,13.843-.085,1.862-.171,3.77-.3,5.727l-13.993-.857c1.904-15.128-2.501-29.065-6.767-42.552h-.003c-.744-2.353-1.492-4.705-2.2-7.065-3.857-12.785-7.566-25.327-10.546-38.214-2.77-11.97-1.148-24.639,5.088-39.869,1.376-3.049,3.345-5.797,5.792-8.086.454-.54,1.016-.979,1.652-1.288.635-.309,1.329-.481,2.035-.505,1.338.062,2.726.938,4.123,2.604,3.603,4.297,3.681,5.384.743,10.561-5.976,10.535-8.41,20.655-7.44,30.938ZM159.341,135.183l.811-4.964c-.003,1.687-.276,3.362-.807,4.964h-.004ZM193.001,247.963v9.55l-59.775-1.584-1.028-9.816,1.693.049c20.426.597,59.11,1.8,59.11,1.8ZM133.229,277.383v-11.883l60.021,1.79-.656,10.093h-59.364Z" fill="#323232"/>
</svg>