<?xml version="1.0" encoding="UTF-8"?>
<svg id="a" data-name="Layer 1" xmlns="http://www.w3.org/2000/svg" width="400" height="400" viewBox="0 0 400 400">
  <path d="M245.969,51.214l33.281,23.316c11.311-2.079,46.979-23.643,52.567-5.432,2.145,15.577-9.039,30.277-11.827,45.424,3.436,9.548,21.461,25.928,22.457,34.795.697,6.204-1.555,8.141-3.451,13.428-3.397,51.279,4.697,108.799.1,159.343-1.19,13.087-11.255,23.33-24.151,25.192-62.797-3.549-130.748,4.696-192.942.041-14.069-1.053-18.329-7.053-27.456-16.28-8.197-12.551-26.215-24.749-34.098-36.553-4.53-6.783-3.791-11.635,1.019-17.892l131.781-132.838c-3.369-6.464-3.179-11.79,1.659-17.444l32.075-23.996c3.254-10.566-2.012-39.221,5.496-47.207,1.666-1.772,4.138-2.029,5.641-3.896h7.85ZM254.94,90.464v19.625c0,5.128-8.633,11.569-12.316,14.579l26.369,26.327,6.68-7.837c6.283-5.454,19.346-2.869,27.489-4.484-2.76-5.894-11.414-13.405-12.284-19.705-.979-7.083,5.312-14.497,5.549-21.772-7.368,1.562-13.891,6.707-21.782,5.538-6.309-.934-13.997-9.286-19.705-12.271ZM227.69,148.898l-137.58,137.256,17.932,18.01,138.554-136.33c1.045-1.308.121-1.837-.56-2.828-1.192-1.734-13.466-14.035-15.156-15.172-1.132-.761-1.631-1.346-3.19-.936ZM311.748,172.716c-16.295.465-17.274,24.626-2.473,26.571,21.57,2.835,20.764-27.093,2.473-26.571ZM268.069,199.483c-19.151,4.366-7.295,35.316,10.813,24.262,12.584-7.681,4.463-27.745-10.813-24.262ZM309.617,212.94c-16.128,2.628-13.395,28.276,4.059,26.619s14.655-29.668-4.059-26.619Z"/>
  <path d="M141.402,64.91c18.714-3.049,21.435,24.97,4.059,26.619s-20.187-23.991-4.059-26.619Z"/>
  <path d="M201.959,78.368c18.714-3.049,21.435,24.97,4.059,26.619-17.454,1.657-20.187-23.991-4.059-26.619Z"/>
  <path d="M161.587,105.282c18.714-3.049,21.435,24.97,4.059,26.619-17.454,1.657-20.187-23.991-4.059-26.619Z"/>
</svg>