<?xml version="1.0" encoding="UTF-8"?>
<svg id="a" data-name="Layer 1" xmlns="http://www.w3.org/2000/svg" width="400" height="400" viewBox="0 0 400 400">
  <g>
    <polygon points="271.249 93.719 231.4 93.719 221.024 111.695 271.249 161.923 271.249 93.719" fill="none"/>
    <polygon points="92.019 193.297 92.019 288.751 104.792 288.751 135.055 236.331 92.019 193.297" fill="none"/>
    <path d="M218.372,92.022h-58.954v61.547c0,3.223-2.627,5.858-5.85,5.875h-61.549v19.093l48.438,48.438,77.915-134.953Z" fill="none"/>
    <polygon points="116.84 288.751 272.949 288.751 272.949 180.778 213.501 121.33 116.84 288.751" fill="none"/>
    <path d="M295.57,73.101c-.345-.358-.594-.791-.727-1.27-.114-.41-.269-.807-.484-1.187l-1.577-2.802-.007-.013-.046.179s-.006,0-.01-.002v.002c-.524-.136-.988-.202-1.416-.202h-135.773c-.806,0-1.579.32-2.149.89h0s-84.687,84.692-84.687,84.692c-.57.57-.89,1.343-.89,2.149l.008,151.548c0,.172.059.381.079.564.032.277.039.533.123.865l-.061.027.064-.017-.101.383.201-.065c.126.388.272.719.439,1.021.009.016.015.033.024.05.624,1.037,1.35,1.746,2.196,2.238.724.416,1.482.625,2.251.72l1.456.354c.576.14,1.097.442,1.5.877,4.839,5.211,38.129,38.898,40.905,38.898h206.333c3.653-.003,6.912-2.4,8.193-5.86h.574V114.589l.013-.13c0-2.781-30.073-34.764-36.43-41.359ZM233.155,93.719h35.056c1.678,0,3.038,1.36,3.038,3.038v57.83c0,2.707-3.273,4.063-5.187,2.148l-43.39-43.392c-.972-.972-1.17-2.476-.483-3.667l8.334-14.438c.543-.94,1.546-1.519,2.632-1.519ZM92.019,162.482c0-1.678,1.36-3.038,3.038-3.038h58.51c3.223-.017,5.85-2.652,5.85-5.875v-58.509c0-1.678,1.36-3.038,3.038-3.038h50.653c2.339,0,3.801,2.532,2.631,4.558l-73.304,126.967c-.999,1.73-3.367,2.042-4.78.629l-44.748-44.748c-.57-.57-.89-1.343-.89-2.148v-14.796ZM92.019,285.712v-85.08c0-2.707,3.273-4.063,5.187-2.149l36.2,36.199c.972.972,1.171,2.477.483,3.668l-28.22,48.881c-.543.94-1.546,1.519-2.631,1.519h-7.98c-1.678,0-3.038-1.36-3.038-3.038ZM269.911,288.751H122.103c-2.339,0-3.801-2.532-2.631-4.558l92.049-159.434c.999-1.73,3.367-2.042,4.78-.629l55.759,55.759c.57.57.89,1.343.89,2.148v103.676c0,1.678-1.36,3.038-3.038,3.038Z"/>
  </g>
  <path d="M248.575,226.416c-.225-15.412-13.045-27.891-28.786-27.891s-28.564,12.478-28.781,27.894c-.002.132-.02.261-.02.394,0,6.032,1.933,11.807,5.507,16.575l17.641,30.006c.14.275.29.54.454.77l.587.923.165-.053c1.178,1.148,2.757,1.79,4.466,1.79,1.451,0,2.85-.501,3.973-1.4l.334.179.77-1.313c.361-.477.632-.942.742-1.245l17.247-29.359c3.744-4.932,5.723-10.768,5.723-16.878,0-.133-.019-.262-.021-.394ZM219.518,238.402c-6.677,0-12.11-5.43-12.11-12.106s5.433-12.114,12.11-12.114,12.109,5.433,12.109,12.114-5.432,12.106-12.109,12.106Z"/>
</svg>