<?xml version="1.0" encoding="UTF-8"?>
<svg id="a" data-name="Layer 1" xmlns="http://www.w3.org/2000/svg" width="400" height="400" viewBox="0 0 400 400">
  <path d="M268.775,118.667c-14.716-43.126-57.757-73.67-103.386-72.985-64.682-.464-117.315,59.432-107.397,122.772,1.415,7.257,4.131,12.469,8.239,15.902,13.976,11.089,38.812,1.4,59.923-2.273,9.891-1.482,13.599,4.765,13.193,13.792-.41,12.721-1.359,23.333-2.427,35.723-2.721,31.537-2.525,32.826,28.944,32.473,3.655-.041,7.757-.102,11.222-.145,5.69-.099,10.774.042,14.854-3.828,3.445-3.212,3.732-7.07,3.394-11.306-.583-11.408-2.295-44.658-2.804-54.718-.787-5.375,2.181-11.124,8.102-12.015,3.195-.546,6.628.155,9.796.878,13.094,2.999,26.248,7.08,38.931,6.389l.189-.015c19.646-1.872,26.031-17.688,25.331-35.806-.104-11.843-2.181-23.686-6.102-34.839ZM69.219,113.482v-.074c.074-.149.141-.277.204-.409-.067.157-.13.316-.204.483ZM89.445,119.679c-7.535,0-14.401-2.826-19.656-7.436,8.725-18.292,22.581-33.685,39.758-44.194,5.924,5.428,9.642,13.211,9.642,21.886,0,16.434-13.311,29.744-29.744,29.744ZM163.805,161.816c-16.434,0-29.744-13.31-29.744-29.744s13.31-29.744,29.744-29.744,29.744,13.31,29.744,29.744-13.31,29.744-29.744,29.744ZM238.165,119.679c-16.434,0-29.744-13.31-29.744-29.744,0-8.676,3.718-16.458,9.642-21.886,17.177,10.534,31.058,25.902,39.758,44.194-5.255,4.61-12.121,7.436-19.656,7.436Z" fill="none"/>
  <path d="M307.015,151.268c-8.261-25.658-13.396-40.472-22.112-50.993l-.09-.099c-28.54-30.537-59.618-61.074-102.124-65.46C112.565,25.917,46.913,79.99,43.573,150.951c-1.222,18.408,5.039,43.747,20.142,55.016,12.207,8.814,41.381,24.88,52.339,38.97,2.598,3.214,4.424,6.471,5.228,9.565,1.072,3.914.561,7.322,1.599,11.09,4.3,15.854,32.295,49.473,54.743,53.017,7.172,1.271,14.353-1.769,21.249-4.167,32.222-12.39,99.591-32.124,109.206-47.906,17.963-31.364,9.568-77.533-1.063-115.269ZM249.547,189.312l-.189.015c-12.682.691-25.837-3.39-38.931-6.389-3.168-.723-6.6-1.424-9.796-.878-5.921.891-8.889,6.64-8.102,12.015.51,10.06,2.221,43.31,2.804,54.718.338,4.237.051,8.094-3.394,11.306-4.08,3.87-9.163,3.729-14.854,3.828-3.465.042-7.567.103-11.222.145-31.469.353-31.666-.936-28.944-32.473,1.069-12.391,2.017-23.002,2.427-35.723.407-9.027-3.301-15.274-13.193-13.792-21.111,3.673-45.947,13.362-59.923,2.273-4.107-3.433-6.824-8.645-8.239-15.902-9.918-63.34,42.715-123.235,107.397-122.772,45.63-.685,88.67,29.858,103.386,72.985,3.921,11.153,5.998,22.995,6.102,34.839.701,18.118-5.685,33.933-25.331,35.806Z"/>
  <path d="M163.805,102.329c-16.434,0-29.744,13.31-29.744,29.744s13.31,29.744,29.744,29.744,29.744-13.31,29.744-29.744-13.31-29.744-29.744-29.744Z"/>
  <path d="M69.219,113.482c.074-.167.137-.326.204-.483-.064.131-.13.26-.204.409v.074Z"/>
  <path d="M109.547,68.049c-17.177,10.509-31.033,25.902-39.758,44.194,5.255,4.61,12.121,7.436,19.656,7.436,16.433,0,29.744-13.31,29.744-29.744,0-8.676-3.718-16.458-9.642-21.886Z"/>
  <path d="M218.063,68.049c-5.924,5.428-9.642,13.211-9.642,21.886,0,16.434,13.31,29.744,29.744,29.744,7.535,0,14.401-2.826,19.656-7.436-8.7-18.292-22.581-33.66-39.758-44.194Z"/>
</svg>