<?xml version="1.0" encoding="UTF-8"?>
<svg id="a" data-name="Layer 1" xmlns="http://www.w3.org/2000/svg" width="400" height="400" viewBox="0 0 400 400">
  <path d="M366.768,230.629c0-3.242-32.035-36.071-32.891-36.787l14.421-24.979-.066-.039c1.202-2.758,1.154-6.021-.465-8.825-.895-1.546-104.085-104.374-104.652-104.962-.028-.029-1.331-1.235-2.099-1.678-2.108-1.218-4.472-1.549-6.688-1.126-.738.14-1.46.366-2.151.668l-.048-.084-25.831,14.915c-.567-.557-28.154-28.182-28.154-28.182l-.07.041c-1.34-1.814-3.278-3.162-5.529-3.724-.751-.186-1.535-.286-2.346-.286s-1.597.1-2.349.288c-.564.14-1.109.33-1.627.564-1.56.703-2.902,1.805-3.906,3.169l-.088-.052-19.559,33.877-33.679-19.446-.04.07c-2.07-.902-4.422-1.1-6.651-.459-.744.214-1.473.52-2.174.924-2.315,1.335-3.806,3.488-4.466,5.875-.141.51-.293,1.02-.353,1.546h-.098v39.119h-38.89v.077c-2.99.336-5.791,2.011-7.41,4.815-.81,1.403-1.227,2.922-1.29,4.434s.225,3.019.828,4.397l-.064.041-.02.011,19.226,33.301-34.427,19.879.041.07c-.605.446-1.158.96-1.647,1.529-1.468,1.707-2.363,3.916-2.363,6.346,0,1.621.399,3.146,1.1,4.488.662,1.265,31.115,31.735,31.791,32.299l-14.421,24.979.066.036c-.601,1.38-.889,2.886-.825,4.397.064,1.51.48,3.028,1.29,4.429.004.007.009.011.013.016.442.759,3.597,3.518,3.597,3.52.004.006,101.591,102.21,103.137,103.105,2.811,1.623,6.08,1.668,8.84.458l.047.084,25.831-14.915c.568.557,1.191,1.043,1.878,1.448,0,0,31.486,30.703,34.222,30.703,3.242,0,7.967-3.969,7.967-3.969l19.559-33.877,33.682,19.446.04-.07c2.759,1.201,6.021,1.154,8.825-.465,2.811-1.621,4.486-4.427,4.82-7.423h.098v-39.113h38.894v-.077c2.99-.336,5.79-2.011,7.41-4.815,1.62-2.808,1.668-6.073.462-8.833l.084-.047-19.225-33.301,34.427-19.879-.041-.07c2.419-1.788,4.01-4.638,4.01-7.879ZM303.476,183.513l-38.692,21.501,20.569,37.11.213.508c.537,1.287.446,2.691-.251,3.847-.693,1.156-1.89,1.895-3.278,2.03l-43.403-.718-.751,43.054-.074.577c-.179,1.381-.958,2.55-2.146,3.208-1.175.658-2.578.693-3.848.117l-37.234-22.317-22.184,36.926-.347.452c-1.687,2.211-5.23,2.155-6.853-.119l-.204-.277-20.681-37.311-38.563,21.376-.505.211c-1.291.539-2.697.443-3.97-.368l-.721-.574c-.676-.7-1.097-1.616-1.188-2.579l.718-43.861-43.418-.757-.554-.073c-.54-.07-1.103-.275-1.672-.615-.295-.175-.586-.401-.846-.654l-.204-.195c-.18-.195-.313-.368-.322-.368l-.329-.641c-.223-.497-.343-1.025-.356-1.572-.017-.658.124-1.332.407-1.957l22.545-37.597-37.168-22.331-.497-.381c-.532-.406-.97-.929-1.267-1.524-.301-.598-.447-1.246-.435-1.928.023-1.348.689-2.586,1.825-3.397l38.688-21.501-20.566-37.1-.216-.522c-.259-.623-.376-1.299-.337-1.959.04-.674.237-1.306.587-1.885.694-1.16,1.89-1.899,3.273-2.03l43.405.714.754-43.239.068-.361c.036-.191.101-.375.203-.718.234-.787.76-1.868,1.944-2.525,1.176-.651,2.581-.698,3.855-.115l37.225,22.314,22.157-36.876.381-.501c.616-.806,1.483-1.376,2.459-1.602.641-.145,1.355-.132,2.001.036.947.254,1.797.854,2.392,1.688l20.885,37.588,38.538-21.366.535-.221c1.286-.539,2.686-.45,3.845.248.23.139.44.299.671.523l.158.174c.258.285.474.583.644.895.319.582.504,1.145.555,1.678l-.718,43.864,43.407.756.581.074c.591.074,1.17.276,1.69.591l.593.507c.187.163.36.346.426.419.163.195.35.386.31.296l.35.724.039.043c.443,1.076.413,2.293-.097,3.406l-22.547,37.612,37.178,22.337.479.367c1.11.85,1.734,2.111,1.711,3.463-.023,1.349-.687,2.587-1.822,3.398Z"/>
  <path d="M158.524,222.219l-26.312-43.917,12.866-12.476,42.811,28.082-8.637,8.327-9.952-6.442-7.939,7.982,6.144,9.784-8.982,8.66ZM156.296,195.708l5.009-4.829-.303-1.078-15.107-10.066,10.4,15.973Z"/>
  <polygon points="206.114 107.025 212.442 113.588 200.35 125.246 207.676 132.845 218.041 122.853 224.701 129.762 214.337 139.754 221.996 147.699 234.088 136.041 240.748 142.95 219.328 163.6 184.695 127.675 206.114 107.025"/>
  <path d="M118.683,192.647l7.326,7.599c-3.435,1.451-13.513,7.891-12.529,11.819.64,2.559,3.107,4.091,5.625,3.796,6.925-.81,16.535-8.686,23.475-3.207,8.684,6.857,9.519,13.334,2.921,22.053-3.835,5.067-9.977,10.407-15.78,12.947l-7.16-7.427c2.205-1.12,4.708-2.386,6.689-3.862,3.352-2.498,12.428-10.087,4.99-13.131-3.554-1.454-15.659,6.997-22.82,4.634-3.126-1.032-9.097-7.238-10.328-10.26-3.655-8.971,10.51-21.267,17.593-24.962Z"/>
  <polygon points="168.112 143.662 195.919 172.506 196.936 172.524 207.819 162.033 214.146 168.596 193.418 188.58 158.784 152.655 168.112 143.662"/>
</svg>