<?xml version="1.0" encoding="UTF-8"?>
<svg id="a" data-name="Layer 1" xmlns="http://www.w3.org/2000/svg" width="400" height="400" viewBox="0 0 400 400">
  <path d="M306.656,129.645h-.059c.003-.136.042-.264.042-.404,0-4.749-2.303-8.932-5.815-11.604-.802-1.054-1.736-1.989-2.791-2.79-.797-1.052-1.747-1.997-2.795-2.799-.799-1.047-1.729-1.977-2.777-2.774-1.084-1.422-2.389-2.611-3.941-3.572-.203-.325-.482-.603-.808-.804-1.224-1.962-2.794-3.547-4.758-4.765-.207-.33-.49-.613-.822-.818-1.223-1.958-2.791-3.54-4.753-4.757-.207-.33-.49-.613-.822-.818-1.223-1.958-2.791-3.54-4.753-4.757-.207-.331-.491-.613-.822-.819-1.228-1.965-2.803-3.551-4.775-4.77-.2-.323-.474-.597-.797-.796-.961-1.553-2.174-2.893-3.611-3.986-.606-.795-1.288-1.515-2.041-2.17-.19-.166-.384-.326-.583-.482-.466-.37-.955-.708-1.465-1.019-.436-.263-.879-.513-1.343-.73-.268-.128-.539-.251-.816-.362-.704-.278-1.429-.512-2.182-.679-.175-.039-.355-.065-.533-.098-.852-.158-1.721-.265-2.62-.265-.111,0-.212.031-.323.033h-29.264c-.305,0-.562-.182-.708-.45-.532-.977-1.424-1.723-2.496-2.084-.363-1.079-1.121-1.965-2.108-2.493-.868-1.62-2.138-2.893-3.759-3.759-.528-.988-1.416-1.747-2.495-2.111-.292-.87-.837-1.616-1.558-2.152-.014-.01-.027-.023-.041-.033-.333-.244-.707-.431-1.101-.575-.075-.027-.151-.048-.228-.071-.399-.121-.816-.204-1.255-.206-.003,0-.005-.001-.008-.001v-.022h-51.427v.016c-.042,0-.078-.011-.12-.011h0c-2.453,0-4.443,1.987-4.443,4.443,0,.028.008.056.008.084v9.421h-40.879c-.02,0-.036-.005-.056-.005h0c-2.016,0-3.937.41-5.685,1.151-5.244,2.223-8.927,7.423-8.927,13.463h0c0,.131.036.251.039.382h-.039v196.721h.008c0,.012-.002.025-.004.037-.002.013-.004.025-.004.037,0,.898.107,1.765.264,2.615.033.18.059.363.099.54.166.751.4,1.474.676,2.176.112.28.236.553.365.824.215.459.463.898.723,1.33.314.513.654,1.007,1.027,1.477.153.195.31.385.472.571.657.748,1.379,1.439,2.172,2.043,0,0,0,0,0,0,1.09,1.434,2.429,2.646,3.974,3.604.199.322.469.592.791.792,1.209,1.955,2.831,3.573,4.785,4.782.198.321.468.591.789.79,1.209,1.956,2.832,3.575,4.786,4.785.199.322.468.591.789.79,1.209,1.956,2.832,3.574,4.786,4.785.199.322.468.591.789.79.957,1.549,2.173,2.886,3.608,3.976.799,1.053,1.723,1.976,2.775,2.777.8,1.052,1.734,1.986,2.785,2.787.798,1.046,1.741,1.991,2.789,2.786.801,1.055,1.737,1.99,2.791,2.792.801,1.053,1.735,1.987,2.788,2.788,2.67,3.512,6.853,5.813,11.603,5.813.217,0,.421-.056.638-.065v.059h140.769c.273.014.532.081.808.081,8.067,0,14.604-6.545,14.604-14.602,0-.052-.014-.1-.014-.153h.078v-196.715ZM121.049,100.514h13.929s0,8.554,0,8.554c-.005.093-.028.176-.028.271,0,2.781,2.258,5.056,5.056,5.056.014,0,.025-.003.039-.003v.022h78.125c2.801-.005,5.054-2.274,5.054-5.054,0-.042-.011-.08-.011-.122v-8.725s13.915,0,13.915,0c0,0,0,171.086,0,171.086h-116.08V100.514Z"/>
</svg>