<?xml version="1.0" encoding="UTF-8"?>
<svg id="a" data-name="Layer 1" xmlns="http://www.w3.org/2000/svg" width="400" height="400" viewBox="0 0 400 400">
  <path d="M328.613,201.563l-2.827-2.826s-.001-.002-.002-.003l-2.827-2.826s-.001-.002-.002-.003l-2.827-2.826s-.001-.002-.002-.003l-2.827-2.826s-.001-.002-.002-.003l-2.827-2.826s-.001-.002-.002-.003l-2.827-2.826s-.001-.002-.002-.003l-2.827-2.826s-.001-.002-.002-.003l-2.827-2.826s-.001-.002-.002-.003l-2.827-2.826s-.001-.002-.002-.003l-2.827-2.826s-.001-.002-.002-.003l-2.827-2.826s-.001-.002-.002-.003l-2.827-2.826s-.001-.002-.002-.003l-2.827-2.826s-.001-.002-.002-.003l-2.827-2.826s-.001-.002-.002-.003l-2.192-2.191v-31.144h-.054c.258-4.913-2.23-9.419-5.858-12.185-.813-1.068-1.76-2.016-2.829-2.829-.813-1.068-1.76-2.016-2.829-2.829-.813-1.068-1.76-2.016-2.829-2.829-.813-1.068-1.76-2.016-2.829-2.829-.813-1.068-1.76-2.016-2.829-2.829-.813-1.068-1.76-2.016-2.829-2.829-.813-1.068-1.76-2.016-2.829-2.829-.813-1.068-1.76-2.016-2.829-2.829-.813-1.068-1.76-2.016-2.829-2.829-.813-1.068-1.76-2.016-2.829-2.829-.813-1.068-1.76-2.016-2.829-2.829-.813-1.068-1.76-2.016-2.829-2.829-.813-1.068-1.76-2.016-2.829-2.829-.813-1.068-1.76-2.016-2.829-2.829-.003-.004-.007-.008-.01-.011-2.816-3.678-7.403-6.039-12.071-5.844h-30.194c-.491-1.215-1.499-2.15-2.749-2.571-.449-1.335-1.494-2.38-2.829-2.829-.449-1.335-1.494-2.38-2.829-2.829-.449-1.335-1.494-2.38-2.828-2.829h0c-.296-.881-.856-1.638-1.581-2.184-.015-.01-.027-.023-.041-.034-.762-.544-1.682-.842-2.63-.865h0s0,0,0,0v-.022h-52.187v.017c-.042,0-.079-.011-.122-.011-2.554-.084-4.665,2.362-4.5,4.599,0,.262,0,9.555,0,9.555-.022-.006-41.509.011-41.535-.006-8.004-.049-14.857,6.588-14.827,14.831.007.131.038.254.04.387h-.04v199.62h.008c-.045,4.598,2.238,9.049,5.876,11.822,0,0,0,0,0,0,.812,1.068,1.76,2.015,2.828,2.828.813,1.068,1.761,2.016,2.829,2.829.813,1.068,1.761,2.016,2.829,2.829.813,1.068,1.761,2.016,2.829,2.829.813,1.068,1.761,2.016,2.829,2.829.813,1.068,1.761,2.016,2.829,2.829.813,1.068,1.761,2.016,2.829,2.829.813,1.068,1.761,2.016,2.829,2.829.813,1.068,1.761,2.016,2.829,2.829.813,1.068,1.761,2.016,2.829,2.829.813,1.068,1.761,2.016,2.829,2.829.813,1.068,1.761,2.016,2.829,2.829.813,1.068,1.761,2.016,2.829,2.829.813,1.068,1.761,2.016,2.829,2.829,2.798,3.677,7.449,6.218,12.422,5.833v.059h142.844c8.47.687,15.799-6.447,15.625-14.889h.079v-37.823c-.01-1.737-1.282-3.094-2.938-3.364-.242-1.475-1.354-2.588-2.829-2.829-.242-1.475-1.354-2.588-2.829-2.829-.242-1.475-1.354-2.588-2.829-2.829-.242-1.475-1.354-2.588-2.829-2.829-.242-1.475-1.354-2.588-2.829-2.829-.242-1.475-1.354-2.588-2.829-2.829-.084-.511-.266-.968-.543-1.377l62.234-62.232c1.355-1.349,1.355-3.563.003-4.91ZM195.856,226.036l5.193-19.364,14.177,14.177-19.37,5.188ZM98.487,99.066h14.134v8.681c-.006.094-.028.178-.028.275,0,2.822,2.291,5.131,5.131,5.131.014,0,.026-.003.04-.003v.022h79.277c2.843-.006,5.128-2.308,5.128-5.128,0-.042-.011-.081-.011-.124v-8.853h14.12v24.659l-.006.035c.006,1.929,1.544,3.471,3.473,3.476h21.169l-1.771,27.338,18.779-18.777-63.878,63.87.127.127-.204-.057-8.743,32.625h0,0s.025.006.025.006c-.198.601-.235,1.243-.103,1.856.132.613.433,1.195.913,1.677.539.543,1.207.859,1.901.964.108.68.4,1.333.927,1.864.539.543,1.207.86,1.901.965.108.68.4,1.333.927,1.864.539.543,1.207.86,1.901.965.108.68.4,1.333.927,1.864.539.543,1.207.86,1.901.965.108.68.4,1.333.927,1.864.539.543,1.207.86,1.901.965.108.68.4,1.333.927,1.864.539.543,1.207.86,1.901.965.108.68.4,1.333.927,1.864.539.543,1.207.86,1.901.965.108.68.4,1.333.927,1.864.539.543,1.207.86,1.901.965.108.68.4,1.333.927,1.864.539.543,1.207.86,1.901.965.108.68.4,1.333.927,1.864.539.543,1.207.86,1.901.965.108.68.4,1.333.927,1.864.539.543,1.207.86,1.901.965.013.079.015.159.033.238v7.287h-117.794V99.066Z"/>
</svg>