<?xml version="1.0" encoding="UTF-8"?>
<svg id="a" data-name="Layer 1" xmlns="http://www.w3.org/2000/svg" width="400" height="400" viewBox="0 0 400 400">
  <path d="M310.373,127.194h-.061c.003-.141.043-.274.043-.418,0-4.914-2.383-9.243-6.018-12.008-.829-1.089-1.795-2.056-2.885-2.885-.829-1.089-1.795-2.056-2.885-2.885-.829-1.089-1.795-2.056-2.885-2.885-.829-1.089-1.795-2.056-2.885-2.885-.829-1.089-1.795-2.056-2.885-2.885-.829-1.089-1.795-2.056-2.885-2.885-.829-1.089-1.795-2.056-2.885-2.885-.829-1.089-1.795-2.056-2.885-2.885-.829-1.089-1.795-2.056-2.885-2.885-.829-1.089-1.795-2.056-2.885-2.885-.829-1.089-1.795-2.056-2.885-2.885-.829-1.089-1.795-2.056-2.885-2.885-.829-1.089-1.795-2.056-2.885-2.885-.829-1.089-1.795-2.056-2.885-2.885-.005-.006-.01-.011-.015-.018-.622-.814-1.322-1.554-2.094-2.225-.198-.173-.401-.34-.608-.502-.481-.381-.985-.73-1.51-1.051-.452-.273-.911-.532-1.393-.757-.278-.132-.557-.259-.844-.374-.729-.287-1.479-.531-2.258-.703-.181-.041-.368-.067-.552-.101-.881-.163-1.781-.274-2.711-.274-.115,0-.219.032-.335.035h-30.796c-.501-1.24-1.529-2.193-2.803-2.622-.458-1.361-1.524-2.427-2.885-2.885-.458-1.361-1.524-2.427-2.885-2.885-.458-1.361-1.524-2.427-2.885-2.885h0c-.302-.899-.865-1.672-1.612-2.226-.015-.011-.028-.025-.043-.035-.344-.253-.731-.447-1.139-.594-.077-.028-.157-.05-.236-.074-.413-.125-.844-.211-1.298-.213-.003,0-.006-.001-.009-.001v-.023h-53.219v.017c-.043,0-.081-.011-.124-.011-.952,0-1.837.289-2.57.785-1.223.826-2.028,2.225-2.028,3.814,0,.029.009.057.009.087v9.75h-42.303c-.02,0-.038-.006-.058-.006-3.13,0-6.038.955-8.452,2.588-4.023,2.722-6.67,7.327-6.67,12.536h0c0,.136.038.26.04.395h-.04v203.576h0s.009,0,.009,0c0,.026-.009.052-.009.077h0c0,.929.111,1.827.273,2.706.034.187.061.375.102.559.172.776.414,1.525.7,2.251.116.289.245.573.378.853.222.475.479.93.748,1.376.324.531.677,1.042,1.063,1.528.159.202.322.399.49.592.68.774,1.426,1.489,2.247,2.113,0,0,0,0,0,0,.829,1.089,1.795,2.055,2.884,2.884.829,1.089,1.796,2.056,2.885,2.885.829,1.089,1.796,2.056,2.885,2.885.829,1.089,1.796,2.056,2.885,2.885.829,1.089,1.796,2.056,2.885,2.885.829,1.089,1.796,2.056,2.885,2.885.829,1.089,1.796,2.056,2.885,2.885.829,1.089,1.796,2.056,2.885,2.885.829,1.089,1.796,2.056,2.885,2.885.829,1.089,1.796,2.056,2.885,2.885.829,1.089,1.796,2.056,2.885,2.885.829,1.089,1.796,2.056,2.885,2.885.829,1.089,1.796,2.056,2.885,2.885.829,1.089,1.796,2.056,2.885,2.885,2.764,3.634,7.092,6.016,12.008,6.016.225,0,.436-.058.661-.067v.061h145.675c.283.015.551.084.837.084,8.348,0,15.113-6.773,15.113-15.11,0-.055-.014-.104-.014-.158h.081V127.194ZM238.424,274.096h-120.126V97.047h14.415v8.853c-.006.096-.029.182-.029.28,0,2.879,2.337,5.233,5.233,5.233.014,0,.026-.003.04-.003v.023h80.848c2.899-.006,5.23-2.354,5.23-5.23,0-.043-.011-.083-.011-.127v-9.029h14.4v177.049Z"/>
  <path d="M147.064,152.75c0-1.899-1.549-3.447-3.456-3.447-.089,0-.167.043-.254.051v-.051h-7.217c-1.907,0-3.459,1.554-3.459,3.453v7.491c0,1.892,1.549,3.442,3.459,3.442h7.22v-.052c.086.006.161.052.248.052,1.912,0,3.461-1.549,3.461-3.442v-7.491h-.003v-.006Z"/>
  <path d="M224.029,152.75c0-1.899-1.549-3.447-3.456-3.447h-55.662c-1.907,0-3.459,1.554-3.459,3.453v7.491c0,1.892,1.549,3.442,3.459,3.442h55.659c1.913,0,3.462-1.549,3.462-3.442v-7.491h-.003v-.006Z"/>
  <path d="M147.064,181.524c0-1.898-1.549-3.447-3.456-3.447-.089,0-.167.044-.254.052v-.052h-7.217c-1.907,0-3.459,1.555-3.459,3.453v7.492c0,1.892,1.549,3.441,3.459,3.441h7.22v-.051c.086.006.161.051.248.051,1.912,0,3.461-1.549,3.461-3.441v-7.492h-.003v-.006Z"/>
  <path d="M224.029,181.524c0-1.898-1.549-3.447-3.456-3.447h-55.662c-1.907,0-3.459,1.555-3.459,3.453v7.492c0,1.892,1.549,3.441,3.459,3.441h55.659c1.913,0,3.462-1.549,3.462-3.441v-7.492h-.003v-.006Z"/>
  <path d="M147.064,210.299c0-1.898-1.549-3.447-3.456-3.447-.089,0-.167.044-.254.052v-.052h-7.217c-1.907,0-3.459,1.555-3.459,3.453v7.491c0,1.892,1.549,3.442,3.459,3.442h7.22v-.052c.086.006.161.052.248.052,1.912,0,3.461-1.549,3.461-3.442v-7.491h-.003v-.006Z"/>
  <path d="M224.029,210.299c0-1.898-1.549-3.447-3.456-3.447h-55.662c-1.907,0-3.459,1.555-3.459,3.453v7.491c0,1.892,1.549,3.442,3.459,3.442h55.659c1.913,0,3.462-1.549,3.462-3.442v-7.491h-.003v-.006Z"/>
</svg>