<?xml version="1.0" encoding="UTF-8"?>
<svg id="a" data-name="Layer 1" xmlns="http://www.w3.org/2000/svg" width="400" height="400" viewBox="0 0 400 400">
  <path d="M314.548,126.111c-1.178-1.101-2.378-2.172-3.547-3.174-1.185-1.108-2.394-2.188-3.574-3.197-1.185-1.104-2.393-2.189-3.573-3.197-1.185-1.104-2.394-2.188-3.571-3.194-1.185-1.108-2.394-2.188-3.573-3.197-1.185-1.108-2.394-2.188-3.569-3.19-1.187-1.111-2.396-2.192-3.576-3.2-1.185-1.108-2.394-2.188-3.573-3.197-1.185-1.108-2.394-2.188-3.574-3.197-1.185-1.104-2.394-2.188-3.571-3.194-1.188-1.108-2.395-2.192-3.571-3.197-1.004-.936-2.031-1.845-2.952-2.63-1.357-1.422-2.742-2.817-4.169-4.165-1.349-1.273-2.727-2.516-4.152-3.738-1.397-1.196-2.823-2.362-4.341-3.539-1.434-1.119-2.894-2.191-4.517-3.336-1.455-1.019-2.935-2.005-4.688-3.118-1.468-.926-2.961-1.819-4.471-2.678l-.369-.211c-1.464-.824-2.952-1.614-4.454-2.377l-.535-.277h-.005c-1.447-.725-2.915-1.413-4.554-2.15l-.57-.26c-1.42-.626-2.859-1.212-4.32-1.788l-.928-.365c-1.392-.534-2.802-1.025-4.213-1.502l-1.145-.393c-1.353-.442-2.722-.841-4.093-1.233l-1.372-.399c-1.315-.357-2.646-.673-3.975-.98l-1.58-.378c-1.282-.278-2.58-.519-3.879-.754l-.668-.125c-.364-.072-.726-.141-1.087-.199-1.101-.182-2.215-.331-3.327-.477l-1.167-.161c-.407-.058-.814-.116-1.222-.16-1.167-.135-2.345-.226-3.795-.342l-.715-.065c-.425-.038-.848-.078-1.267-.103-1.127-.076-2.264-.109-3.4-.141l-1.317-.042c-.376-.019-.751-.034-1.13-.039-1.952-.022-3.917.002-5.908.08-1.649.081-3.17.801-4.28,2.029-.872.962-1.407,2.145-1.558,3.409l-.088.005,5.342,108.131c.082,1.65.802,3.168,2.027,4.279s2.793,1.667,4.456,1.596l106.124-5.244,50.768,44.948.696-.038c3.405-.19,6.022-3.115,5.832-6.541-2.044-30.961-16.164-59.154-39.763-79.394ZM279.833,145.187l-84.439,7.089-3.812-84.639c42.849,3.322,79.509,35.538,88.251,77.55Z"/>
  <path d="M327.541,225.668c-.617-1.556-1.831-2.771-3.388-3.386-.621-1.566-1.844-2.784-3.411-3.4-.621-1.546-1.831-2.757-3.366-3.376-.617-1.559-1.832-2.774-3.391-3.393-.664-1.672-2.013-2.949-3.739-3.515l-27.597-26.716c-1.074-2.344-3.449-3.664-5.993-3.737l-101.549,3.906c-.732.066-1.534-.252-2.117-.801-.589-.556-.93-1.314-.962-2.135l-3.962-103.015-.038-.318c.012-.113.018-.238.012-.374-.013-.334-.078-.622-.167-.937l-.022-.073c-.028-.096-.06-.195-.091-.301-.209-.831-.881-2.003-.895-2.026-.417-.636-2.506-1.903-4.052-2.509l-.02-.354-1.036.033c-.113-.013-.217-.03-.305-.023l-1.566.06c-31.728,1.221-61.072,14.945-82.626,38.649-21.547,23.694-32.731,54.525-31.488,86.809.079,2.118.217,4.22.402,6.309.031.354.074.702.118,1.053l.104.907c.147,1.423.296,2.853.495,4.26.056.404.126.804.194,1.202l.169,1.029c.205,1.304.41,2.608.659,3.896l.42,1.963c.286,1.364.569,2.724.9,4.068l.458,1.721c.367,1.407.74,2.814,1.152,4.197l.49,1.529c.453,1.44.912,2.873,1.412,4.28l.485,1.291c.545,1.476,1.097,2.946,1.695,4.393l.467,1.076c.639,1.506,1.293,3.002,1.988,4.472l.417.851c.741,1.536,1.503,3.055,2.302,4.548l.356.645c.842,1.556,1.715,3.095,2.62,4.604l.283.457c.948,1.566,1.928,3.108,2.943,4.628l.197.285c1.056,1.566,2.143,3.105,3.38,4.763,1.155,1.549,2.347,3.069,3.618,4.614,3.764,4.558,7.878,8.865,12.261,12.824,12.249,11.063,26.341,19.311,41.567,24.449,1.122,1.168,2.269,2.317,3.39,3.39,1.122,1.168,2.269,2.317,3.39,3.386,21.842,22.784,51.223,35.333,82.731,35.333,63.204,0,114.626-51.42,114.626-114.624v-1.198c0-2.546-1.567-4.75-3.918-5.667ZM148.859,90.614l2.019.043,1.225,2.592,3.676,83.869c.478,10.927,9.469,19.153,20.591,18.868l86.647-3.8c-2.67,49.725-43.29,90.099-93.262,92.287-53.813,2.373-99.503-39.517-101.863-93.303-2.153-49.139,32.792-92.38,80.968-100.556ZM164.536,80.628h0Z"/>
</svg>