<?xml version="1.0" encoding="UTF-8"?>
<svg id="a" data-name="Layer 1" xmlns="http://www.w3.org/2000/svg" width="400" height="400" viewBox="0 0 400 400">
  <path d="M305,69.072c.138.12.266.252.389.389-.249-.337-.545-.633-.879-.882.02.022.042.042.061.064.153.133.296.276.43.43Z"/>
  <g>
    <path d="M176.055,211.165c-6.722,0-11.964,6.933-11.964,15.811s5.284,15.811,11.964,15.811,11.922-6.933,11.922-15.811-5.242-15.811-11.922-15.811ZM176.055,234.331c-1.226,0-3.509-2.79-3.509-7.356s2.283-7.356,3.509-7.356,3.467,2.79,3.467,7.356-2.241,7.356-3.467,7.356Z" fill="none"/>
    <path d="M222.642,211.165c-6.679,0-11.921,6.933-11.921,15.811s5.2,15.811,11.921,15.811,11.964-6.933,11.964-15.811-5.242-15.811-11.964-15.811ZM222.642,234.331c-1.226,0-3.467-2.79-3.467-7.356s2.241-7.356,3.467-7.356,3.509,2.79,3.509,7.356-2.283,7.356-3.509,7.356Z" fill="none"/>
    <path d="M96.197,67.754c-1.375.177-2.55,1.009-3.2,2.193.713-1.073,1.862-1.808,3.172-1.977,26.647-3.321,48.087,2.023,63.727,15.89.803.731,1.581,1.476,2.313,2.214.143.142.287.286.43.43.143.142.287.286.43.43.143.142.287.286.43.43.143.142.287.286.43.43.117.116.234.234.352.352,1.733,1.865,3.377,3.857,4.891,5.927,20.024-4.007,40.329-4.007,60.353,0,19.509-26.666,50.459-28.918,73.001-26.102.754.097,1.484.397,2.112.866l.094.095c.138.117.29.269.43.43.109.091.242.225.386.386.081.108.155.218.224.328-.112-.216-.241-.421-.384-.615-.122-.137-.25-.269-.389-.389-.133-.153-.277-.297-.43-.43-.019-.022-.041-.042-.061-.064-.579-.433-1.263-.729-2.01-.825-40.288-5.031-61.764,10.865-72.882,26.126-19.98-4.016-40.559-4.016-60.538,0-1.464-2.01-3.109-4.03-4.951-6.013-.117-.117-.234-.235-.352-.352-.142-.144-.285-.287-.43-.43-.142-.144-.285-.287-.43-.43-.142-.144-.285-.287-.43-.43-.142-.144-.285-.287-.43-.43-.738-.743-1.506-1.479-2.303-2.205-12.559-11.136-32.428-19.721-63.557-15.838Z" fill="none"/>
    <path d="M278.655,253.937c22.516-17.077,34.918-39.942,34.918-64.382-.513-22.182-10.394-43.281-27.109-57.882-1.699-1.563-1.928-4.122-.537-5.956,10.89-13.913,15.41-31.857,12.416-49.262-36.073-3.575-54.244,11.634-63.135,25.033-1.008,1.526-2.883,2.275-4.666,1.866-20.406-4.485-41.98-4.485-62.388,0-1.781.412-3.656-.341-4.664-1.867-8.89-13.398-27.061-28.605-63.134-25.032-2.988,17.402,1.533,35.347,12.414,49.259,1.393,1.837,1.163,4.396-.531,5.955-16.72,14.604-26.601,35.703-27.114,57.891,0,24.435,12.401,47.3,34.919,64.378,1.938,1.448,2.357,4.218.932,6.174l-18.052,24.689c-2.586,3.583-1.791,8.626,1.772,11.241l20.038,14.626c1.7,1.271,3.875,1.81,5.97,1.483,2.1-.323,4.021-1.493,5.271-3.211l23.674-32.425c1.088-1.468,2.935-2.132,4.707-1.688,22.893,5.676,47.095,5.677,69.988,0,.365-.086.737-.131,1.107-.133,1.409.016,2.753.696,3.597,1.819l23.725,32.495c1.273,1.717,3.138,2.835,5.252,3.149,2.114.313,4.223-.214,5.939-1.487l20.039-14.628c3.563-2.615,4.358-7.658,1.771-11.242l-18.051-24.688c-1.425-1.957-1.006-4.727.933-6.175ZM135.809,159.801v-15.769c.005-9.671,7.844-17.51,17.515-17.515,9.678-.004,17.527,7.837,17.531,17.515v15.769c-.007,9.686-7.858,17.537-17.544,17.544-9.673-.023-17.502-7.871-17.502-17.544ZM199.348,264.727c-32.044,0-57.156-16.572-57.156-37.752s25.111-37.794,57.156-37.794,57.156,16.614,57.156,37.794-25.111,37.752-57.156,37.752ZM262.888,159.801c0,9.673-7.829,17.521-17.502,17.544-9.686-.007-17.537-7.858-17.544-17.544v-15.769c0-9.678,7.845-17.523,17.523-17.523s17.523,7.845,17.523,17.523v15.769Z" fill="none"/>
    <path d="M229.617,93.88c11.118-15.261,32.594-31.157,72.882-26.126.747.096,1.431.392,2.01.825-.672-.743-1.593-1.247-2.626-1.38-40.288-5.031-61.764,10.865-72.882,26.126-19.665-3.953-39.909-4.006-59.593-.178-.015-.015-.031-.03-.046-.046-.142-.144-.285-.287-.43-.43-.142-.144-.285-.287-.43-.43-.142-.144-.285-.287-.43-.43-.142-.144-.285-.287-.43-.43-.142-.144-.285-.287-.43-.43-.142-.144-.285-.287-.43-.43-.142-.144-.285-.287-.43-.43-.142-.144-.285-.287-.43-.43-.142-.144-.285-.287-.43-.43-.142-.144-.285-.287-.43-.43-.142-.144-.285-.287-.43-.43-.142-.144-.285-.287-.43-.43-.026-.026-.052-.052-.078-.078,1.842,1.983,3.487,4.003,4.951,6.013,19.98-4.016,40.559-4.016,60.538,0Z"/>
    <path d="M312.32,283.092c22.66-18.474,35.088-42.74,35.088-68.739-.403-22.714-9.676-44.34-25.788-60.284-.143-.144-.286-.287-.43-.43-.143-.144-.286-.287-.43-.43-.143-.144-.286-.287-.43-.43-.03-.03-.058-.06-.088-.09,11.579-16.471,15.573-37.105,10.974-56.708-.24-.788-.697-1.469-1.294-1.987-.133-.153-.277-.297-.43-.43-.133-.153-.277-.297-.43-.43-.133-.153-.277-.297-.43-.43-.133-.153-.277-.297-.43-.43-.133-.153-.277-.297-.43-.43-.133-.153-.277-.297-.43-.43-.133-.153-.277-.297-.43-.43-.133-.153-.277-.297-.43-.43-.133-.153-.277-.297-.43-.43-.133-.153-.277-.297-.43-.43-.133-.153-.277-.297-.43-.43-.133-.153-.277-.297-.43-.43-.133-.153-.277-.297-.43-.43-.133-.153-.277-.297-.43-.43-.133-.153-.277-.297-.43-.43-.133-.153-.277-.297-.43-.43-.133-.153-.277-.297-.43-.43-.133-.153-.277-.297-.43-.43-.133-.153-.277-.297-.43-.43-.133-.153-.277-.297-.43-.43-.133-.153-.277-.297-.43-.43-.133-.153-.277-.297-.43-.43-.133-.153-.277-.297-.43-.43-.133-.153-.277-.297-.43-.43-.133-.153-.277-.297-.43-.43-.133-.153-.277-.297-.43-.43-.133-.153-.277-.297-.43-.43-.133-.153-.277-.297-.43-.43-.133-.153-.277-.297-.43-.43-.133-.153-.277-.297-.43-.43-.133-.153-.277-.297-.43-.43-.133-.153-.277-.297-.43-.43-.133-.153-.277-.297-.43-.43-.133-.153-.277-.297-.43-.43-.133-.153-.277-.297-.43-.43-.133-.153-.277-.297-.43-.43-.133-.153-.277-.297-.43-.43-.133-.153-.277-.297-.43-.43-.133-.153-.277-.297-.43-.43-.133-.153-.277-.297-.43-.43-.133-.153-.277-.297-.43-.43-.133-.153-.277-.297-.43-.43-.133-.153-.277-.297-.43-.43-.133-.153-.277-.297-.43-.43-.133-.153-.277-.297-.43-.43-.133-.153-.277-.297-.43-.43-.133-.153-.277-.297-.43-.43-.133-.153-.277-.297-.43-.43-.133-.153-.277-.297-.43-.43-.133-.153-.277-.297-.43-.43-.133-.153-.277-.297-.43-.43-.133-.153-.277-.297-.43-.43-.133-.153-.277-.297-.43-.43-.133-.153-.277-.297-.43-.43-.133-.153-.277-.297-.43-.43-.133-.153-.277-.297-.43-.43-.133-.153-.277-.297-.43-.43-.013-.015-.028-.026-.041-.041.143.194.273.398.384.615-.069-.11-.144-.22-.224-.328-.144-.161-.278-.295-.386-.386-.14-.162-.292-.313-.43-.43l-.094-.095c-.628-.47-1.358-.769-2.112-.866-22.543-2.816-53.493-.564-73.001,26.102-20.024-4.007-40.329-4.007-60.353,0-1.515-2.07-3.158-4.062-4.891-5.927-.117-.118-.235-.236-.352-.352-.143-.144-.286-.288-.43-.43-.143-.144-.286-.288-.43-.43-.143-.144-.286-.288-.43-.43-.143-.144-.286-.288-.43-.43-.732-.738-1.51-1.483-2.313-2.214-15.639-13.867-37.08-19.212-63.727-15.89-1.311.169-2.46.904-3.172,1.977.65-1.184,1.825-2.017,3.2-2.193,31.129-3.883,50.998,4.701,63.557,15.838-12.522-11.404-32.529-20.34-64.173-16.393-1.671.215-3.061,1.39-3.551,3.002-3.353,14.293-2.134,29.132,3.258,42.507,1.936,5.039,4.458,9.877,7.542,14.411-16.853,16.046-26.579,38.178-26.992,61.452,0,10.868,2.177,21.431,6.36,31.396,5.66,14,15.253,26.878,28.312,37.747.023.024.047.048.07.071l-15.253,20.916c-3.629,4.978-4.108,11.287-1.816,16.557,1.099,3.093,3.102,5.9,5.941,7.98l1.481,1.081c.054.054.106.108.161.161.14.145.283.289.43.43.14.145.283.289.43.43.14.145.283.289.43.43.14.145.283.289.43.43.14.145.283.289.43.43.14.145.283.289.43.43.14.145.283.289.43.43.14.145.283.289.43.43.14.145.283.289.43.43.14.145.283.289.43.43.14.145.283.289.43.43.14.145.283.289.43.43.14.145.283.289.43.43.14.145.283.289.43.43.14.145.283.289.43.43.14.145.283.289.43.43.14.145.283.289.43.43.14.145.283.289.43.43.14.145.283.289.43.43.14.145.283.289.43.43.14.145.283.289.43.43.14.145.283.289.43.43.14.145.283.289.43.43.14.145.283.289.43.43.14.145.283.289.43.43.14.145.283.289.43.43.14.145.283.289.43.43.14.145.283.289.43.43.14.145.283.289.43.43.14.145.283.289.43.43.14.145.283.289.43.43.14.145.283.289.43.43.14.145.283.289.43.43.14.145.283.289.43.43.14.145.283.289.43.43.14.145.283.289.43.43.14.145.283.289.43.43.14.145.283.289.43.43.14.145.283.289.43.43.14.145.283.289.43.43.14.145.283.289.43.43.14.145.283.289.43.43.14.145.283.289.43.43.14.145.283.289.43.43.14.145.283.289.43.43.14.145.283.289.43.43.14.145.283.289.43.43.14.145.283.289.43.43.14.145.283.289.43.43.14.145.283.289.43.43.657.681,1.376,1.318,2.165,1.896l20.038,14.627c3.572,2.629,8.051,3.711,12.429,3.001,4.385-.674,8.323-3.061,10.949-6.637l22.025-30.142c20.482,4.675,41.681,5.109,62.297,1.307l3.043,4.165c1.343,1.828,3.002,3.34,4.886,4.48.132.136.266.27.402.402.141.146.284.289.43.43.141.146.284.289.43.43.141.146.284.289.43.43.141.146.284.289.43.43.141.146.284.289.43.43.141.146.284.289.43.43.141.146.284.289.43.43.141.146.284.289.43.43.141.146.284.289.43.43.141.146.284.289.43.43.141.146.284.289.43.43.141.146.284.289.43.43.141.146.284.289.43.43.141.146.284.289.43.43.141.146.284.289.43.43.141.146.284.289.43.43.141.146.284.289.43.43.141.146.284.289.43.43.141.146.284.289.43.43.141.146.284.289.43.43.141.146.284.289.43.43.141.146.284.289.43.43.141.146.284.289.43.43.141.146.284.289.43.43.141.146.284.289.43.43.141.146.284.289.43.43.141.146.284.289.43.43.141.146.284.289.43.43.141.146.284.289.43.43.141.146.284.289.43.43.141.146.284.289.43.43.141.146.284.289.43.43.141.146.284.289.43.43.141.146.284.289.43.43.141.146.284.289.43.43.141.146.284.289.43.43.141.146.284.289.43.43.141.146.284.289.43.43.141.146.284.289.43.43.141.146.284.289.43.43.141.146.284.289.43.43.141.146.284.289.43.43.141.146.284.289.43.43.141.146.284.289.43.43.141.146.284.289.43.43.141.146.284.289.43.43.141.146.284.289.43.43.141.146.284.289.43.43.141.146.284.289.43.43.141.146.284.289.43.43,2.531,2.63,5.867,4.38,9.515,4.94.868.133,1.744.204,2.621.211,3.529.006,6.967-1.12,9.808-3.213l20.038-14.627c7.45-5.458,9.076-15.916,3.636-23.378l-15.6-21.391ZM277.722,260.112l18.051,24.688c2.587,3.584,1.792,8.627-1.771,11.242l-20.039,14.628c-1.716,1.272-3.825,1.799-5.939,1.487-2.113-.314-3.978-1.432-5.252-3.149l-23.725-32.495c-.845-1.123-2.188-1.803-3.597-1.819-.37.003-.742.047-1.107.133-22.894,5.677-47.095,5.676-69.988,0-1.771-.444-3.619.22-4.707,1.688l-23.674,32.425c-1.25,1.718-3.171,2.889-5.271,3.211-2.095.326-4.27-.212-5.97-1.483l-20.038-14.626c-3.563-2.615-4.358-7.658-1.772-11.241l18.052-24.689c1.425-1.956,1.006-4.726-.932-6.174-22.518-17.078-34.919-39.943-34.919-64.378.513-22.188,10.394-43.287,27.114-57.891,1.694-1.559,1.924-4.118.531-5.955-10.881-13.912-15.402-31.857-12.414-49.259,36.073-3.572,54.243,11.634,63.134,25.032,1.008,1.526,2.884,2.279,4.664,1.867,20.408-4.485,41.982-4.485,62.388,0,1.783.409,3.658-.34,4.666-1.866,8.891-13.398,27.062-28.607,63.135-25.033,2.994,17.404-1.527,35.349-12.416,49.262-1.39,1.835-1.161,4.394.537,5.956,16.715,14.6,26.596,35.699,27.109,57.882,0,24.44-12.401,47.305-34.918,64.382-1.939,1.449-2.358,4.219-.933,6.175Z"/>
    <path d="M162.487,86.226c.144.143.287.286.43.43.144.143.287.286.43.43.144.143.287.286.43.43.118.117.235.234.352.352-1.349-1.452-2.804-2.883-4.374-4.275.797.726,1.566,1.461,2.303,2.205.144.143.287.286.43.43Z"/>
    <path d="M170.855,159.801v-15.769c-.004-9.678-7.853-17.519-17.531-17.515-9.671.005-17.51,7.844-17.515,17.515v15.769c0,9.673,7.829,17.521,17.502,17.544,9.686-.007,17.537-7.858,17.544-17.544Z"/>
    <path d="M245.365,126.509c-9.678,0-17.523,7.845-17.523,17.523v15.769c.007,9.686,7.858,17.537,17.544,17.544,9.673-.023,17.502-7.871,17.502-17.544v-15.769c0-9.678-7.845-17.523-17.523-17.523Z"/>
    <path d="M199.348,189.182c-32.044,0-57.156,16.614-57.156,37.794s25.111,37.752,57.156,37.752,57.156-16.572,57.156-37.752-25.111-37.794-57.156-37.794ZM176.055,242.787c-6.679,0-11.964-6.933-11.964-15.811s5.242-15.811,11.964-15.811c6.68,0,11.922,6.933,11.922,15.811s-5.242,15.811-11.922,15.811ZM222.642,242.787c-6.722,0-11.921-6.933-11.921-15.811s5.242-15.811,11.921-15.811c6.722,0,11.964,6.933,11.964,15.811s-5.242,15.811-11.964,15.811Z"/>
    <path d="M176.055,219.62c-1.226,0-3.509,2.79-3.509,7.356s2.283,7.356,3.509,7.356,3.467-2.79,3.467-7.356-2.241-7.356-3.467-7.356Z"/>
    <path d="M222.642,219.62c-1.226,0-3.467,2.79-3.467,7.356s2.241,7.356,3.467,7.356,3.509-2.79,3.509-7.356-2.283-7.356-3.509-7.356Z"/>
  </g>
</svg>