<?xml version="1.0" encoding="UTF-8"?>
<svg id="a" data-name="Layer 1" xmlns="http://www.w3.org/2000/svg" width="400" height="400" viewBox="0 0 400 400">
  <g>
    <path d="M342.77,150.349c.16-5.222-.044-26.75.034-36.999.085-1.4.024-2.089-.48-3.32-9.436-10.447-20.104-19.929-29.797-30.199-4.272-3.935-8.136-8.289-12.393-12.232-1.695-2.03-3.546-4.07-6.405-3.675-2.611,0-9.462,0-12.394,0-2.251-.072-4.358.16-6.506,1.757-5.33,4.419-1.817,12.171-4.513,17.932-2.081,6.408-7.217,11.955-14.077,13.722-1.711.116-3.034.513-4.601,1.121-14.045,2.549-27.977-4.653-29.946-18.281-.907-5.157-.331-10.507-.533-15.484-.028-.472-.087-.688-.209-.737-4.738.327-52.194-.536-64.833.185-5.502.949-6.993,6.693-6.551,11.542-.398,14.889-10.75,23.348-26.148,23.192-20.229-.336-25.776-15.772-24.359-31.194-.114-1.607.37-3.533-.685-3.738-2.785-.038-18.122-.006-21.919-.016-1.776-.136-3.724.662-4.73,2.26-.626,1.019-1.041,2.286-.921,3.362-.022,11.266.015,32.205,0,41.56-.21,3.585.084,7.122,4.22,8.037,3.497.085,165.628.099,212.159.078,3.58.001,7.823,3.371,7.817,7.396.509,4.286-3.767,8.435-7.897,8.359-45.115.092-208.228-.159-212.135.067-.45.062-1.466.48-2.078.922-1.359,1.045-1.958,2.517-2.084,3.697-.044,37.389.031,150.68,0,157.472.014.45.588,2.549,1.392,3.128.763.742,1.656,1.264,2.349,2.067,2.679,3.072,5.861,5.714,8.573,8.775,10.348,10.018,20.283,20.424,30.626,30.465,1.14,1.513,2.983,3.366,4.865,3.411,12.872-.676,53.671.488,75.323-.001,33.697.076,135.053-.052,136.368.001,6.676-.028,12.57-5.801,12.504-12.544-.422-8.9.306-118.729,0-149.631-.101-.862-.346-1.713-1.008-2.622-5.671-5.68-11.603-11.34-17.092-17.14-.082-.31.222-.539.848-.633,1.264-.151,3.303-.02,4.698-.097,6.521.051,12.225-5.337,12.513-11.848l.009-.114ZM267.485,271.801c-.312,5.974-5.529,10.881-11.498,10.894-8.026-.26-45.273.189-61.373,0-9.182,0-18.694,0-28.001,0-37.303-.215-64.815.472-70.36-.333-5.296-1.041-9.075-6.1-9.052-11.389.121-4.696-.088-72.324,0-93.665.197-10.374-.366-12.345.261-16.695.729-5.188,5.99-9.297,10.911-9.381,7.205.27,121.954-.572,159.912.275,5.33.942,9.22,6.018,9.239,11.301.427,2.236-.269,86.57-.031,108.888l-.009.103Z"/>
    <path d="M114.295,79.011s.002.01.003.015c.378,1.163.964,2.106,1.759,2.862.165.157.348.299.54.434l1.547.893c1.589.684,3.611,1.03,6.195,1.03,7.528,0,10.586-2.712,10.586-9.364v-21.919c0-1.909-.285-3.458-.821-4.747-.313-.752-.729-1.401-1.241-1.957-.043-.047-.08-.1-.124-.145-.227-.234-.482-.443-.747-.643-.143-.106-.295-.204-.449-.301-.254-.161-.506-.323-.792-.458-.429-.2-.89-.375-1.392-.518-.224-.066-.475-.111-.714-.165-.416-.093-.847-.175-1.308-.235-.23-.032-.461-.062-.704-.085-.719-.067-1.469-.113-2.293-.113h0c-2.238,0-4.038.272-5.524.781-1.02.35-1.915.793-2.611,1.407-1.281,1.133-2.031,2.734-2.326,4.866-.099.711-.146,1.482-.146,2.313v21.923c0,.809.049,1.554.142,2.248.093.68.233,1.304.421,1.877Z"/>
    <path d="M236.606,81.069s.002.01.003.015c.378,1.163.964,2.106,1.76,2.862.165.157.348.299.539.433l1.547.894c1.589.684,3.611,1.03,6.195,1.03,7.528,0,10.586-2.712,10.586-9.364v-21.919c0-1.909-.285-3.458-.821-4.747-.312-.752-.728-1.401-1.24-1.957-.043-.047-.08-.1-.125-.145-.226-.234-.482-.443-.747-.643-.143-.106-.295-.204-.449-.301-.254-.161-.506-.323-.792-.458-.429-.2-.89-.375-1.391-.518-.225-.066-.475-.111-.714-.165-.416-.093-.847-.175-1.308-.235-.231-.032-.461-.062-.704-.085-.719-.067-1.469-.113-2.293-.113h0c-2.239,0-4.038.272-5.524.781-1.019.35-1.915.793-2.611,1.407-1.281,1.133-2.031,2.734-2.326,4.866-.098.711-.146,1.482-.146,2.313v21.923c0,.809.049,1.554.142,2.248.093.68.232,1.304.421,1.877Z"/>
  </g>
  <rect x="206.25" y="232.571" width="30" height="26"/>
</svg>