<?xml version="1.0" encoding="UTF-8"?>
<svg id="a" data-name="Layer 1" xmlns="http://www.w3.org/2000/svg" width="400" height="400" viewBox="0 0 400 400">
  <g>
    <path d="M183.759,85.052v17.837c0,2.415-1.977,4.393-4.393,4.393-12.916,0-23.636,9.401-25.701,21.703h-26.844c2.241-27.019,24.954-48.327,52.545-48.327,2.416,0,4.393,1.977,4.393,4.393Z"/>
    <path d="M174.972,159.035v26.888c-12.433-1.01-23.988-6.37-32.906-15.245-8.875-8.919-14.234-20.473-15.245-32.906h26.844c1.845,10.895,10.412,19.462,21.308,21.263Z"/>
    <path d="M232.086,133.379c0,27.59-21.308,50.304-48.327,52.544v-26.888c12.301-2.065,21.659-12.784,21.659-25.656,0-2.417,1.977-4.393,4.393-4.393h17.881c2.416,0,4.393,1.977,4.393,4.393Z"/>
    <path d="M197.001,117.852c-2.428,0-4.393-1.965-4.393-4.393v-7.444c0-2.428,1.965-4.393,4.393-4.393s4.393,1.965,4.393,4.393v7.444c0,2.428-1.965,4.393-4.393,4.393Z"/>
    <path d="M212.987,117.852c-2.428,0-4.393-1.965-4.393-4.393v-14.892c0-2.428,1.965-4.393,4.393-4.393s4.393,1.965,4.393,4.393v14.892c0,2.428-1.965,4.393-4.393,4.393Z"/>
    <path d="M228.969,117.852c-2.428,0-4.393-1.965-4.393-4.393v-28.407c0-2.428,1.965-4.393,4.393-4.393s4.393,1.965,4.393,4.393v28.407c0,2.428-1.965,4.393-4.393,4.393Z"/>
  </g>
  <g>
    <polygon points="197.896 247.242 198.205 247.242 198.156 247.502 198.465 247.502 198.416 247.762 198.725 247.762 198.676 248.022 198.985 248.022 198.936 248.283 199.245 248.283 199.196 248.543 199.505 248.543 199.456 248.803 199.766 248.803 199.717 249.063 200.026 249.063 199.977 249.323 200.286 249.323 200.237 249.583 200.546 249.583 200.497 249.843 200.806 249.843 200.757 250.103 201.066 250.103 201.017 250.363 201.326 250.363 201.277 250.624 201.586 250.624 201.537 250.884 201.846 250.884 201.797 251.144 202.107 251.144 202.058 251.404 202.367 251.404 202.318 251.664 202.627 251.664 202.578 251.924 202.887 251.924 202.838 252.184 203.147 252.184 203.098 252.444 203.407 252.444 203.358 252.704 203.667 252.704 203.618 252.965 203.927 252.965 203.878 253.225 204.187 253.225 189.509 331.115 220.786 331.115 204.981 247.242 197.896 247.242 197.896 247.242" fill="none"/>
    <polygon points="222.717 224.968 203.943 224.968 208.14 247.242 223.946 331.115 242.72 331.115 226.914 247.242 222.717 224.968" fill="none"/>
    <polygon points="164.388 247.242 168.537 225.229 149.763 225.229 145.614 247.242 129.809 331.115 148.582 331.115 164.388 247.242" fill="none"/>
    <rect x="71.031" y="60.024" width="222.299" height="146.563" rx="2.908" ry="2.908" fill="none"/>
    <path d="M292.809,51.756l-224.996-1.04c-.348-.019-2.494-.102-4.162,1.561,0,0-1.237,1.214-1.561,3.381-.761,5.1.366,123.719.52,139.68-.691,5.957-.432,13.347,4.162,18.468,1.347,1.501,2.576,2.262,3.902,3.121,14.567,9.446,34.305,26.681,35.895,28.092.22.195.81.724,1.724,1.219,2.241,1.214,4.671,1.277,6.7,1.004h27.393l-15.805,83.873h-39.508c-2.011,0-3.642,1.63-3.642,3.642,0,1.072.466,2.032,1.203,2.699.082.091.169.178.26.26.082.091.169.178.26.26.082.091.169.178.26.26.082.091.169.178.26.26.082.091.169.178.26.26.082.091.169.178.26.26.082.091.169.178.26.26.082.091.169.178.26.26.082.091.169.178.26.26.082.091.169.178.26.26.082.091.169.178.26.26.082.091.169.178.26.26.082.091.169.178.26.26.082.091.169.178.26.26.082.091.169.178.26.26.082.091.169.178.26.26.082.091.169.178.26.26.082.091.169.178.26.26.082.091.169.178.26.26.082.091.169.178.26.26.082.091.169.178.26.26.082.091.169.178.26.26.082.091.169.178.26.26.082.091.169.178.26.26.082.091.169.178.26.26.082.091.169.178.26.26.082.091.169.178.26.26.082.091.169.178.26.26.082.091.169.178.26.26.082.091.169.178.26.26.082.091.169.178.26.26.082.091.169.178.26.26.082.091.169.178.26.26.082.091.169.178.26.26.082.091.169.178.26.26.082.091.169.178.26.26.082.091.169.178.26.26.082.091.169.178.26.26.082.091.169.178.26.26.082.091.169.178.26.26.082.091.169.178.26.26.082.091.169.178.26.26.082.091.169.178.26.26.082.091.169.178.26.26.082.091.169.178.26.26.082.091.169.178.26.26.082.091.169.178.26.26.082.091.169.178.26.26.082.091.169.178.26.26.082.091.169.178.26.26.082.091.169.178.26.26.082.091.169.178.26.26.082.091.169.178.26.26.082.091.169.178.26.26.082.091.169.178.26.26.082.091.169.178.26.26.082.091.169.178.26.26.082.091.169.178.26.26.082.091.169.178.26.26.082.091.169.178.26.26.082.091.169.178.26.26.082.091.169.178.26.26.082.091.169.178.26.26.082.091.169.178.26.26.082.091.169.178.26.26.082.091.169.178.26.26.082.091.169.178.26.26.082.091.169.178.26.26.082.091.169.178.26.26.082.091.169.178.26.26.082.091.169.178.26.26.082.091.169.178.26.26.082.091.169.178.26.26.082.091.169.178.26.26.082.091.169.178.26.26.082.091.169.178.26.26.082.091.169.178.26.26.082.091.169.178.26.26.082.091.169.178.26.26.082.091.169.178.26.26.082.091.169.178.26.26.082.091.169.178.26.26.082.091.169.178.26.26.082.091.169.178.26.26.082.091.169.178.26.26.082.091.169.178.26.26.082.091.169.178.26.26.082.091.169.178.26.26.082.091.169.178.26.26.082.091.169.178.26.26.082.091.169.178.26.26.082.091.169.178.26.26.082.091.169.178.26.26.082.091.169.178.26.26.082.091.169.178.26.26.082.091.169.178.26.26.082.091.169.178.26.26.082.091.169.178.26.26.082.091.169.178.26.26.082.091.169.178.26.26.082.091.169.178.26.26.082.091.169.178.26.26.082.091.169.178.26.26.082.091.169.178.26.26.082.091.169.178.26.26.082.091.169.178.26.26.082.091.169.178.26.26.082.091.169.178.26.26.082.091.169.178.26.26.082.091.169.178.26.26.082.091.169.178.26.26.082.091.169.178.26.26.082.091.169.178.26.26.082.091.169.178.26.26.082.091.169.178.26.26.082.091.169.178.26.26.082.091.169.178.26.26.082.091.169.178.26.26.082.091.169.178.26.26.666.737,1.627,1.203,2.699,1.203h206.905c2.011,0,3.642-1.63,3.642-3.642,0-1.072-.466-2.032-1.203-2.699-.082-.091-.169-.178-.26-.26-.082-.091-.169-.178-.26-.26-.082-.091-.169-.178-.26-.26-.082-.091-.169-.178-.26-.26-.082-.091-.169-.178-.26-.26-.082-.091-.169-.178-.26-.26-.082-.091-.169-.178-.26-.26-.082-.091-.169-.178-.26-.26-.082-.091-.169-.178-.26-.26-.082-.091-.169-.178-.26-.26-.082-.091-.169-.178-.26-.26-.082-.091-.169-.178-.26-.26-.082-.091-.169-.178-.26-.26-.082-.091-.169-.178-.26-.26-.082-.091-.169-.178-.26-.26-.082-.091-.169-.178-.26-.26-.082-.091-.169-.178-.26-.26-.082-.091-.169-.178-.26-.26-.082-.091-.169-.178-.26-.26-.082-.091-.169-.178-.26-.26-.082-.091-.169-.178-.26-.26-.082-.091-.169-.178-.26-.26-.082-.091-.169-.178-.26-.26-.082-.091-.169-.178-.26-.26-.082-.091-.169-.178-.26-.26-.082-.091-.169-.178-.26-.26-.082-.091-.169-.178-.26-.26-.082-.091-.169-.178-.26-.26-.082-.091-.169-.178-.26-.26-.082-.091-.169-.178-.26-.26-.082-.091-.169-.178-.26-.26-.082-.091-.169-.178-.26-.26-.082-.091-.169-.178-.26-.26-.082-.091-.169-.178-.26-.26-.082-.091-.169-.178-.26-.26-.082-.091-.169-.178-.26-.26-.082-.091-.169-.178-.26-.26-.082-.091-.169-.178-.26-.26-.082-.091-.169-.178-.26-.26-.082-.091-.169-.178-.26-.26-.082-.091-.169-.178-.26-.26-.082-.091-.169-.178-.26-.26-.082-.091-.169-.178-.26-.26-.082-.091-.169-.178-.26-.26-.082-.091-.169-.178-.26-.26-.082-.091-.169-.178-.26-.26-.082-.091-.169-.178-.26-.26-.082-.091-.169-.178-.26-.26-.082-.091-.169-.178-.26-.26-.082-.091-.169-.178-.26-.26-.082-.091-.169-.178-.26-.26-.082-.091-.169-.178-.26-.26-.082-.091-.169-.178-.26-.26-.082-.091-.169-.178-.26-.26-.082-.091-.169-.178-.26-.26-.082-.091-.169-.178-.26-.26-.082-.091-.169-.178-.26-.26-.082-.091-.169-.178-.26-.26-.082-.091-.169-.178-.26-.26-.082-.091-.169-.178-.26-.26-.082-.091-.169-.178-.26-.26-.082-.091-.169-.178-.26-.26-.082-.091-.169-.178-.26-.26-.082-.091-.169-.178-.26-.26-.082-.091-.169-.178-.26-.26-.082-.091-.169-.178-.26-.26-.082-.091-.169-.178-.26-.26-.082-.091-.169-.178-.26-.26-.082-.091-.169-.178-.26-.26-.082-.091-.169-.178-.26-.26-.082-.091-.169-.178-.26-.26-.082-.091-.169-.178-.26-.26-.082-.091-.169-.178-.26-.26-.082-.091-.169-.178-.26-.26-.082-.091-.169-.178-.26-.26-.082-.091-.169-.178-.26-.26-.082-.091-.169-.178-.26-.26-.082-.091-.169-.178-.26-.26-.082-.091-.169-.178-.26-.26-.082-.091-.169-.178-.26-.26-.082-.091-.169-.178-.26-.26-.082-.091-.169-.178-.26-.26-.082-.091-.169-.178-.26-.26-.082-.091-.169-.178-.26-.26-.082-.091-.169-.178-.26-.26-.082-.091-.169-.178-.26-.26-.082-.091-.169-.178-.26-.26-.082-.091-.169-.178-.26-.26-.082-.091-.169-.178-.26-.26-.082-.091-.169-.178-.26-.26-.082-.091-.169-.178-.26-.26-.082-.091-.169-.178-.26-.26-.082-.091-.169-.178-.26-.26-.082-.091-.169-.178-.26-.26-.082-.091-.169-.178-.26-.26-.082-.091-.169-.178-.26-.26-.082-.091-.169-.178-.26-.26-.082-.091-.169-.178-.26-.26-.082-.091-.169-.178-.26-.26-.082-.091-.169-.178-.26-.26-.082-.091-.169-.178-.26-.26-.082-.091-.169-.178-.26-.26-.082-.091-.169-.178-.26-.26-.082-.091-.169-.178-.26-.26-.082-.091-.169-.178-.26-.26-.082-.091-.169-.178-.26-.26-.082-.091-.169-.178-.26-.26-.082-.091-.169-.178-.26-.26-.082-.091-.169-.178-.26-.26-.082-.091-.169-.178-.26-.26-.082-.091-.169-.178-.26-.26-.082-.091-.169-.178-.26-.26-.082-.091-.169-.178-.26-.26-.082-.091-.169-.178-.26-.26-.082-.091-.169-.178-.26-.26-.082-.091-.169-.178-.26-.26-.082-.091-.169-.178-.26-.26-.082-.091-.169-.178-.26-.26-.082-.091-.169-.178-.26-.26-.666-.737-1.627-1.203-2.699-1.203h-22.029l-20.872-83.873h-.211c26.466.299,52.932.599,79.398.898,1.758-.849,3.112-1.861,4.162-2.861,8.818-8.408,4.656-24.23,4.162-26.011.219-38.166.438-76.332.658-114.497-6.795-8.618-14.114-17.473-21.987-26.483-8.269-9.463-16.451-18.299-24.45-26.531ZM223.242,327.382l-18.276-96.982c-.532-2.821,1.632-5.431,4.503-5.431h9.447c2.204,0,4.095,1.568,4.503,3.734l18.276,96.982c.532,2.821-1.632,5.431-4.503,5.431h-9.447c-2.204,0-4.095-1.568-4.503-3.734ZM205.684,250.976l14.079,74.708c.532,2.821-1.632,5.431-4.503,5.431h-20.687c-2.711,0-4.83-2.341-4.56-5.039l7.883-78.835h0s3.285,0,3.285,0c2.204,0,4.095,1.568,4.503,3.734ZM153.562,225.229h9.447c2.871,0,5.035,2.61,4.503,5.431l-18.227,96.722c-.408,2.166-2.3,3.734-4.503,3.734h-9.447c-2.871,0-5.035-2.61-4.503-5.431l18.227-96.722c.408-2.166,2.3-3.734,4.503-3.734ZM293.329,200.18c0,3.538-2.868,6.407-6.407,6.407H77.438c-3.538,0-6.407-2.868-6.407-6.407V66.431c0-3.538,2.868-6.407,6.407-6.407h209.485c3.538,0,6.407,2.868,6.407,6.407v133.75Z"/>
  </g>
</svg>