<?xml version="1.0" encoding="UTF-8"?>
<svg id="a" data-name="Layer 1" xmlns="http://www.w3.org/2000/svg" width="400" height="400" viewBox="0 0 400 400">
  <path d="M247.12,132.342c14.23-5.589,21.403-11.764,16.318-18.319-4.557-5.696-9.639-10.949-15.294-14.758-25.822-18.224-60.018-7.676-76.727,22.74-3.302,5.496-7.054,2.261-10.241-2.214-2.548-3.231-5.142-6.672-7.89-9.81-30.676-36.902-85.17-26.019-95.216,24.321-.615,2.057,15.351,20.103,20,20,10.403-43.195,48.857-51.563,75.865-19.075,2.468,2.819,4.799,5.91,7.087,8.812,2.864,4.02,6.234,6.925,9.2,1.989,15.009-27.323,45.728-36.798,68.923-20.427,2.816,1.897,5.468,4.201,7.975,6.742Z" fill="none"/>
  <path d="M191.899,180.448c.647-7.17-4.042-12.32-11.297-11.694-9.927.04-34.827-.064-48.55.013-8.102-.19-11.777,4.431-11.488,12.254-.024,13.621.039,38.037.013,47.815-.039,3.126.344,6,2.825,8.563,2.611,2.481,5.431,2.889,8.566,2.844,9.186-.009,31.975.024,44.828.002,5.702.273,12.871-.238,14.573-6.75l.047-.17c1.366-14.397.097-41.005.482-52.878ZM170.702,196.933c-.625,7.968-8.085,11.501-13.325,16.31-2.657,2.439-4.153,4.107-3.648,8.056h16.321v10.522h-28.346v-14.925c0-7.155,9.771-13.019,14.391-17.391,2.038-1.929,2.679-3.098,2.797-6.007.103-2.55-.252-4.795-3.178-5.215-4.213-.604-8.976.546-12.936,1.877v-11.059c5.54-2.19,13.173-2.527,18.944-.905,9.288,2.61,9.638,10.348,8.981,18.737Z" fill="none"/>
  <path d="M93.485,180.448c.653-7.145-4.068-12.324-11.297-11.694-9.927.04-34.827-.064-48.549.014-8.102-.19-11.777,4.431-11.488,12.254-.024,13.621.039,38.037.013,47.815-.039,3.126.344,6,2.825,8.563,2.611,2.481,5.431,2.889,8.566,2.844,9.186-.009,31.975.024,44.827.002,5.702.273,12.872-.238,14.573-6.75l.047-.17c1.366-14.397.097-41.005.482-52.878ZM68.202,231.238l-.322.322h-11.704v-39.728l-8.59,6.013v-12.777l10.2-7.624h10.415v53.794Z" fill="none"/>
  <path d="M290.313,180.448c.647-7.17-4.042-12.32-11.296-11.694-9.927.04-34.827-.064-48.549.013-8.102-.19-11.777,4.431-11.488,12.254-.024,13.621.039,38.038.013,47.815-.039,3.126.344,6,2.825,8.563,2.611,2.481,5.432,2.889,8.566,2.844,9.186-.009,31.975.024,44.827.002,5.702.273,12.872-.238,14.573-6.75l.047-.17c1.366-14.397.097-41.005.482-52.878ZM268.343,222.581c-2.834,11.422-19.042,10.397-27.855,7.9v-11.167c2.741.904,5.573,1.748,8.485,1.931,2.224.139,7.334.253,7.825-2.694.18-1.08.172-5.755,0-6.848-.162-1.021-1.567-1.838-2.458-1.838h-7.409v-10.952h6.764c.434,0,1.814-.698,2.158-1.063,1.43-1.521,1.471-7.642-.222-9.032-2.695-2.214-10.614-.692-13.854.218v-10.844c.173-.533,5.069-1.142,5.896-1.19,8.76-.51,20.056.846,20.944,11.716.318,3.894.556,10.803-2.468,13.631l-2.466,1.502c2.245.229,4.036,1.905,4.66,4.038.876,2.991.762,11.625,0,14.692Z" fill="none"/>
  <path d="M387.794,247.449c.114-4.286-.699-7.963-3.395-11.749l-.135-.19c-9.905-12.116-21.607-22.602-31.553-34.706-4.688-6.838-6.873-15.54-12.036-22.162-23.062-27.435-48.627-52.415-72.68-78.903-4.822-5.148-10.198-9.895-16.181-13.338-27.32-16.469-63.5-6.937-81.177,20.552-3.493,4.967-7.463,2.044-10.835-2.001-2.695-2.92-5.44-6.03-8.347-8.866-32.455-33.35-90.812-16.612-101.44,28.883-.65,1.859-1.097,3.788-1.045,5.628-.144,1.032-.273,2.072-.369,3.129.585,3.282,2.685,5.915,4.811,8.255,3.572,3.867,6.956,7.47,10.675,11.461,1.107,1.333,5.441,5.131,2.112,6.008-4.502.58-9.354.113-14.297.212-6.456-.007-14.404.027-21.246.016-4.046.15-7.634-.445-11.13.805-4.983,1.599-7.745,7.52-7.363,12.733.079,11.233-.11,42.82-.049,59.473-.376,5.738,1.761,10.97,5.344,15.146.364.567.78,1.125,1.304,1.667.383.364.77.679,1.161.964,20.882,22.193,41.362,44.79,62.492,66.667,4.667,4.672,10.99,4.609,16.963,4.461,16.023-.014,42.024.046,51.911-.009,7.98.389,12.474-6.615,12.019-14.693.073-5.196-.081-11.117.067-16.687.157-4.983,2.43-3.717,4.948-1.019,7.919,8.385,15.707,16.861,23.657,25.27,3.784,4.334,8.822,7.331,14.466,7.051,17.732-.306,46.186.712,60.554-.366,12.964-3.558,7.177-21.799,8.726-32.289.342-3.846,3.042-1.651,4.581.014,38.434,39.995,20.027,31.881,75.91,32.604,5.575.004,10.106-.004,15.414.003,6.614.561,14.649-1.535,15.826-9.579,1.073-14.864-.066-49.785.338-64.446ZM93.003,233.326l-.047.17c-1.701,6.512-8.871,7.023-14.573,6.75-12.852.022-35.641-.011-44.827-.002-3.135.046-5.956-.363-8.566-2.844-2.481-2.564-2.864-5.437-2.825-8.563.026-9.778-.037-34.195-.013-47.815-.289-7.823,3.386-12.445,11.488-12.254,13.722-.078,38.622.027,48.549-.014,7.229-.63,11.949,4.549,11.297,11.694-.385,11.873.884,38.481-.482,52.878ZM191.417,233.326l-.047.17c-1.702,6.512-8.871,7.023-14.573,6.75-12.852.022-35.642-.011-44.828-.002-3.135.046-5.956-.362-8.566-2.844-2.481-2.563-2.864-5.437-2.825-8.563.026-9.778-.037-34.195-.013-47.815-.289-7.823,3.386-12.445,11.488-12.254,13.723-.077,38.622.027,48.55-.013,7.255-.626,11.944,4.524,11.297,11.694-.385,11.873.884,38.481-.482,52.878ZM170.222,146.028c-2.966,4.937-6.336,2.031-9.2-1.989-2.288-2.902-4.619-5.993-7.087-8.812-27.008-32.488-65.462-24.12-75.865,19.075-4.649.103-20.615-17.943-20-20,10.046-50.34,64.541-61.222,95.216-24.321,2.747,3.138,5.342,6.579,7.89,9.81,3.188,4.475,6.94,7.709,10.241,2.214,16.709-30.416,50.905-40.964,76.727-22.74,5.655,3.809,10.737,9.062,15.294,14.758,5.085,6.555-2.088,12.73-16.318,18.319-2.507-2.541-5.159-4.845-7.975-6.742-23.196-16.37-53.915-6.895-68.923,20.427ZM289.831,233.326l-.047.17c-1.701,6.512-8.871,7.023-14.573,6.75-12.852.022-35.641-.011-44.827-.002-3.135.046-5.956-.362-8.566-2.844-2.481-2.563-2.864-5.437-2.825-8.563.026-9.778-.037-34.195-.013-47.815-.289-7.823,3.386-12.445,11.488-12.254,13.723-.077,38.622.027,48.549-.013,7.255-.626,11.943,4.524,11.296,11.694-.385,11.873.884,38.481-.482,52.878Z"/>
  <path d="M263.682,203.851l2.466-1.502c3.024-2.828,2.786-9.737,2.468-13.631-.888-10.87-12.183-12.226-20.944-11.716-.828.048-5.723.657-5.896,1.19v10.844c3.24-.909,11.159-2.431,13.854-.218,1.693,1.39,1.652,7.511.222,9.032-.344.366-1.724,1.063-2.158,1.063h-6.764v10.952h7.409c.891,0,2.296.816,2.458,1.838.173,1.094.181,5.769,0,6.848-.49,2.947-5.6,2.833-7.825,2.694-2.911-.182-5.744-1.026-8.485-1.931v11.167c8.813,2.496,25.02,3.521,27.855-7.9.761-3.067.875-11.701,0-14.692-.625-2.133-2.415-3.809-4.66-4.038Z"/>
  <path d="M161.722,178.196c-5.771-1.622-13.404-1.285-18.944.905v11.059c3.961-1.331,8.724-2.481,12.936-1.877,2.926.42,3.281,2.666,3.178,5.215-.118,2.909-.759,4.077-2.797,6.007-4.62,4.373-14.391,10.237-14.391,17.391v14.925h28.346v-10.522h-16.321c-.505-3.949.99-5.617,3.648-8.056,5.24-4.809,12.7-8.342,13.325-16.31.658-8.389.307-16.127-8.981-18.737Z"/>
  <polygon points="47.587 185.068 47.587 197.845 56.177 191.832 56.177 231.56 67.88 231.56 68.202 231.238 68.202 177.444 57.787 177.444 47.587 185.068"/>
</svg>