<?xml version="1.0" encoding="UTF-8"?>
<svg id="a" data-name="Layer 1" xmlns="http://www.w3.org/2000/svg" width="400" height="400" viewBox="0 0 400 400">
  <path d="M277.812,214.391h3.949l24.947-24.947v-65.689c-25.556-25.556-51.199-51.199-76.755-76.755h-123.48l-34.578,34.578v65.689c9.554,9.554,19.343,19.343,28.895,28.895v19.264c9.548,9.548,19.348,19.348,28.896,28.895v11.365l-4.912,4.912-38.527,9.632-14.351,14.352v52.108h2.812v2.812h2.812v2.812h2.812v2.812h2.812v2.812h2.812v2.812h2.812v2.812h2.812v2.812h2.812v2.812h2.812v2.812h2.812v2.812h2.812v2.812h2.812v2.812h2.812v2.812h2.812v2.812h2.812v2.812h192.637v-52.108c-16.258-16.258-32.761-32.761-49.026-49.026l20.13-20.13v-23.213ZM120.053,118.372l13.581-13.581h69.157l13.581,13.581v69.157l-13.581,13.581h-69.157l-13.581-13.581v-69.157ZM190.462,246.669l-22.25,11.076-22.25-11.076,2.986-3.082v-23.213h38.527v23.213l2.986,3.082Z"/>
  <rect x="139.317" y="124.055" width="19.264" height="19.264"/>
  <rect x="177.844" y="124.055" width="19.264" height="19.264"/>
  <polygon points="181.832 191.478 197.108 176.202 197.108 162.582 177.844 162.582 177.844 168.227 173.857 172.214 162.568 172.214 158.581 168.227 158.581 162.582 139.317 162.582 139.317 176.202 154.593 191.478 181.832 191.478"/>
</svg>