<?xml version="1.0" encoding="UTF-8"?>
<svg id="a" data-name="Layer 1" xmlns="http://www.w3.org/2000/svg" width="400" height="400" viewBox="0 0 400 400">
  <polygon points="115.132 113.93 112.236 111.194 107.444 115.696 102.67 111.185 99.776 113.92 104.556 118.436 99.778 122.952 102.675 125.688 107.454 121.174 112.235 125.69 115.13 122.956 110.352 118.443 115.132 113.93" fill="#323232"/>
  <g>
    <path d="M150.645,145.201h27.645v19.849h-27.645v-19.849Z"/>
    <path d="M187.251,101.964h27.69v63.086h-27.69v-63.086Z"/>
    <path d="M223.901,129.878h27.69v35.172h-27.69v-35.172Z"/>
    <path d="M260.552,116.391h27.645v48.658h-27.645v-48.658Z"/>
    <path d="M160.816,186.735h-21.238c-2.464,0-4.481,1.971-4.481,4.481v21.238c0,2.464,2.016,4.481,4.481,4.481h21.238c2.464,0,4.481-2.016,4.481-4.481v-21.238c0-2.509-2.016-4.481-4.481-4.481Z"/>
    <path d="M257.51,189.751h-78.843c-2.478,0-4.481,2.007-4.481,4.481s2.003,4.481,4.481,4.481h78.843c2.478,0,4.481-2.007,4.481-4.481s-2.003-4.481-4.481-4.481Z"/>
    <path d="M178.666,211.79h42.278c2.478,0,4.481-2.007,4.481-4.481s-2.003-4.481-4.481-4.481h-42.278c-2.478,0-4.481,2.007-4.481,4.481s2.003,4.481,4.481,4.481Z"/>
    <path d="M160.816,224.82h-21.238c-2.464,0-4.481,1.971-4.481,4.481v21.238c0,2.464,2.016,4.481,4.481,4.481h21.238c2.464,0,4.481-2.016,4.481-4.481v-21.238c0-2.509-2.016-4.481-4.481-4.481Z"/>
    <path d="M257.51,227.84h-78.843c-2.478,0-4.481,2.007-4.481,4.481s2.003,4.481,4.481,4.481h78.843c2.478,0,4.481-2.007,4.481-4.481s-2.003-4.481-4.481-4.481Z"/>
    <path d="M220.944,240.918h-42.278c-2.478,0-4.481,2.007-4.481,4.481s2.003,4.481,4.481,4.481h42.278c2.478,0,4.481-2.007,4.481-4.481s-2.003-4.481-4.481-4.481Z"/>
  </g>
  <polygon points="292.118 84.05 74.763 84.05 70.738 84.05 70.738 67.95 296.144 67.95 296.144 84.05 292.118 84.05"/>
  <path d="M123.988,197.346l-.085-5.503c-.004-.407-.212-.779-.54-.968l-7.826-4.507-.077-2.341c-.118-3.983-.789-7.925-1.989-11.689-.008-.017-.011-.036-.011-.055-.01-.011-.021-.022-.021-.033-1.421-4.452-3.554-8.591-6.3-12.222-.39-.472-1.054-.508-1.482-.081-.033.033-.064.068-.093.105-4.931,6.913-7.604,15.45-7.593,24.245l.006,2.342-7.673,4.747c-.323.199-.519.578-.51.985l.085,5.503c.009.613.469,1.103,1.027,1.094l32.089-.497c.558-.009,1.002-.512.993-1.125ZM121.952,196.268l-30.069.466-.058-3.739,7.663-4.747c.313-.199.507-.565.51-.962l-.006-2.985c-.002-3.381.419-6.744,1.249-9.997,1.733.579,3.536.858,5.345.827,1.798-.028,3.581-.359,5.287-.981.934,3.221,1.462,6.566,1.568,9.942l.097,2.984c.007.4.215.764.54.946l7.816,4.507.058,3.739Z"/>
  <path d="M99.355,209.714c.067,4.305,6.441,14.816,7.166,16.004.32.51.954.64,1.417.29.111-.084.206-.191.279-.316.688-1.209,6.734-11.913,6.667-16.218-.073-4.712-3.609-8.479-7.897-8.412s-7.706,3.94-7.633,8.653Z"/>
  <line x1="297.25" y1="81.143" x2="295.25" y2="89.143" fill="#fff"/>
  <path d="M363.862,305.218c-2.202-2.88-2.739-5.348-2.613-8.496.054-21.746-.018-60.565-.011-92.192-.016-36.33-.029-70.074.01-84.077-.384-2.843,2.099-4.978,3.964-6.763,5.808-5.589,6.135-14.813,6.051-22.531-.085-6.309.038-11.986-2.016-17.939-1.786-5.197-5.637-9.202-9.46-12.993-5.859-5.971-11.629-12.096-18.643-16.914-3.108-2.644-7.076-3.369-11.082-3.22-18.171.023-29.244-.024-44.312-.004-81.211-.08-108.882.058-198.086,0-10.43.009-22.614-.017-36.982.013-5.326-.409-10.263,2.665-12.51,7.308-3.979,8.775-3.438,24.706-2.363,34.376.358,5.222,4.842,10.129,7.581,14.46,3.311,35.96.069,138.18,1.14,182.203.084,2.196-.963,4.141-2.476,5.748-13.404,13.373,6.048,26.035,14.846,35.411,8.735,9.251,19.479,8.247,31.274,8.056,9.928.025,19.919.018,30.298.015,14.687.284,29.061-.581,43.551.355,3.748.833,4.349,5.35,5.806,8.497,4.479,13.866,20.217,17.914,32.956,19.064,8.278.064,34.713,8.776,37.218-1.645,2.505-8.255-14.747-26.561-7.212-26.24,30.362-.171,97.739.13,124.303-.085,13.111.62,17.226-12.889,8.881-22.249l-.113-.159ZM329.749,69.965c.806,9.147-4.15,9.496-7.962,15.956-4.541,26.496-.332,173.071-.194,198.878-.101,1.187-2.284,1.221-3.532,1.223-13.219.011-33.57-.002-53.099,0-13.487,0-26.603-.001-36.767,0-16.189,1.075-27.102-4.006-35.122,8.469-4.266,7.124-4.025,16.942.778,23.771,3.358,4.705,10.466,7.703,7.613,14.663-3.559,12.371-24.161,10.496-24.912-2.453-.888-10.091,17.253-12.334,8.711-32.844-3.183-6.977-10.769-10.805-18.174-9.915-24.223.188-77.639,1.016-104.528,1.443-1.501.003-3.897.396-3.635-1.552.23-19.343,1.956-169.236.405-196.657.318-5.9-6.197-9.828-8.718-13.978-1.377-5.251-.285-11.232-.604-16.702-.251-3.195,2.097-4.709,5.132-4.174,70.781.105,198.996-.111,268.29-.089,1.591-.022,3.439-.091,4.847.429,2.683,2.692,1.09,9.402,1.474,13.328l-.002.205Z"/>
</svg>