<?xml version="1.0" encoding="UTF-8"?>
<svg id="a" data-name="Layer 1" xmlns="http://www.w3.org/2000/svg" width="400" height="400" viewBox="0 0 400 400">
  <path d="M343.317,321.708c2.584-38.07,2.154-75.598,1.7-115.329-.264-23.044-.536-46.872-.156-70.713.844-15.349-5.166-29.733-16.92-40.523-10.335-9.967-23.197-14.57-38.239-13.706-76.797-.241-150.791-.137-213.047-.003-.678.011-1.411.014-2.179.017-5.229.021-12.392.051-16.184,2.778-5.491,3.649-4.883,25.88-4.439,42.112.188,6.885.352,12.832.032,16.201.066,9.04.023,18.221-.018,27.101-.033,7.165-.067,14.574-.045,21.877.196,2.165.149,4.735.1,7.457-.177,9.591-.376,20.463,9.8,22.017,5.719,1.019,11.616.968,17.325.92,1.767-.015,3.525-.031,5.267-.014,3.958-.519,6.275,1.105,7.503,2.56,2.156,2.553,2.724,6.661,1.482,10.72-3.5,9.51-7.675,19.005-11.713,28.188-3.075,6.995-6.256,14.227-9.117,21.417l-.679,1.575c-4.151,9.592-7.735,17.876,2.175,25.408l.18.167c3.318,2.684,6.609,5.639,9.792,8.497,7.939,7.129,16.148,14.5,25.803,18.64,5.37,2.119,12.451,3.118,21.607,3.035,35.856-.156,72.571-.149,107.105-.131,19.289.01,41.15.022,62.374-.016h.454c.368,0,.74,0,1.112,0,11.001,0,24.296-.227,32.007-7.44,3.354-3.089,5.614-7.279,6.917-12.813ZM168.408,221.129c-9.835,23.206-19.896,46.624-27.562,64.432-1.39,3.296-2.391,4.034-5.384,3.95-2.291-.004-6.088,0-10.398.003-3.764.003-7.891.006-11.758.006-5.939,0-11.265-.008-13.719-.036-.789-.037-1.556-.149-1.932-.722-.416-.633-.202-1.529.338-2.96,1.998-4.772,4.01-9.598,6.035-14.459,6.494-15.582,13.21-31.695,19.883-46.917,3.921-8.499,4.608-14.489,2.106-18.323-3.98-6.098-15.574-5.893-26.781-5.689-2.446.044-4.973.089-7.347.062l-.203.002c-1.516-.04-3.081.002-4.597.043-2.9.078-5.903.157-8.765-.31-1.555-.449-1.541-1.575-1.522-3,.003-.274.007-.571.002-.893v-89.169c.003-.314.003-.587.002-.828-.003-1.054-.004-1.583.371-1.958.376-.375.906-.37,1.958-.371h.713c.453.011.88.005,1.317,0,.412-.005.835-.009,1.279-.002,5.95.003,11.896,0,17.892,0h16.607c6.673-.009,14.105-.005,21.36-.001,6.406.003,12.675.006,18.161,0,3.063.002,5.818,0,8.165,0,3.534-.002,6.142-.003,7.457.011,1.768.055,1.796,1.001,1.857,3.075.01.343.021.729.041,1.165l.01,18.57c.017,23.338.033,47.47-.094,70.993.325,6.996-1.42,14.417-5.494,23.325ZM271.208,258.72c-1.551,3.065-2.69,6.467-3.793,9.757-1.713,5.113-3.484,10.4-6.873,14.692-4.682,6.083-11.651,7.318-18.72,7.318-2.501,0-5.014-.155-7.442-.304l-1.272-.078c-2.178-.042-4.451,0-6.648.037-1.267.022-2.529.043-3.776.051h-.206c-2.104.007-4.273.011-5.127-1.295-.509-.779-.445-1.858.192-3.301,3.614-8.68,7.464-17.76,11.188-26.542,4.764-11.235,9.689-22.853,14.234-33.893.24-.671.517-1.402.804-2.164,2.112-5.601,4.741-12.571,1.955-17.375-3.953-5.332-15.93-5.192-24.684-5.089-2.363.027-4.595.053-6.345-.036-1.693-.013-3.65,0-5.65.011-3.582.021-7.294.042-9.985-.067-1.358-.087-2.269-.279-2.641-.969l-.057-.105-.004-.119c-.315-11.329-.379-86.592.027-94.987l.009-.193.278-.278.218-.023c14.272-.349,40.2-.271,61.032-.208,12.802.039,23.856.071,29.925.004.527.053,1.066.034,1.586.015,1.356-.046,2.892-.101,3.218,1.243.467,1.357.438,2.991.406,4.721-.012.696-.024,1.404-.002,2.107-.031,4.657-.117,9.399-.2,13.986-.062,3.405-.123,6.817-.165,10.235-.285,9.899.185,19.956.639,29.681.16,3.42.32,6.84.449,10.259.876,33.798-10.329,59.82-22.569,82.906Z" fill="#050505"/>
  <path d="M346.018,206.367c-.264-23.037-.536-46.858-.157-70.666.86-15.634-5.264-30.299-17.234-41.287-10.534-10.16-23.647-14.863-38.951-13.977-76.769-.242-150.765-.138-213.028-.004-.681.011-1.41.014-2.174.017-5.365.022-12.712.053-16.748,2.956-5.938,3.945-5.346,25.579-4.87,42.962.188,6.853.35,12.771.033,16.13.064,9.085.021,18.264-.02,27.14-.033,7.167-.067,14.579-.043,21.929.193,2.154.146,4.698.098,7.392-.175,9.506-.392,21.338,10.637,23.021,5.797,1.033,11.742.983,17.497.934,1.76-.015,3.512-.029,5.317-.018,2.833-.369,5.149.397,6.68,2.209,1.938,2.296,2.433,6.045,1.299,9.756-3.48,9.455-7.649,18.936-11.681,28.105-3.079,7.003-6.264,14.244-9.127,21.438l-.672,1.559c-4.138,9.563-8.047,18.596,2.445,26.565l.185.174c3.304,2.67,6.589,5.621,9.767,8.474,7.999,7.183,16.271,14.611,26.09,18.82,5.307,2.094,12.182,3.115,20.993,3.115.33,0,.665-.001,1.001-.004,35.854-.156,72.569-.149,107.1-.131,19.288.01,41.151.022,62.375-.016h.453c10.776.004,25.542.019,33.8-7.707,3.502-3.226,5.86-7.582,7.222-13.397,2.599-38.191,2.169-75.738,1.715-115.49ZM303.281,341.961h-.454c-21.224.037-43.085.025-62.374.015-34.534-.018-71.249-.025-107.105.131-9.156.083-16.237-.916-21.607-3.035-9.654-4.14-17.863-11.511-25.803-18.64-3.183-2.858-6.474-5.813-9.792-8.497l-.18-.167c-9.91-7.532-6.326-15.816-2.175-25.408l.679-1.575c2.861-7.19,6.042-14.422,9.117-21.417,4.038-9.183,8.213-18.678,11.713-28.188,1.241-4.059.674-8.167-1.482-10.72-1.228-1.455-3.545-3.079-7.503-2.56-1.741-.017-3.5,0-5.267.014-5.709.047-11.606.098-17.325-.92-10.176-1.554-9.977-12.425-9.8-22.017.05-2.721.097-5.292-.1-7.457-.022-7.303.012-14.712.045-21.877.041-8.88.084-18.062.018-27.101.319-3.37.156-9.316-.032-16.201-.443-16.232-1.052-38.463,4.439-42.112,3.792-2.727,10.954-2.756,16.184-2.778.768-.003,1.501-.006,2.179-.017,62.256-.134,136.25-.238,213.047.003,15.042-.865,27.904,3.739,38.239,13.706,11.754,10.79,17.764,25.174,16.92,40.523-.38,23.841-.107,47.669.156,70.713.454,39.731.884,77.259-1.7,115.329-1.303,5.534-3.563,9.725-6.917,12.813-7.711,7.213-21.006,7.44-32.007,7.44-.372,0-.744,0-1.112,0Z" fill="#fff"/>
  <path d="M293.328,165.554c-.454-9.725-.924-19.782-.639-29.681.042-3.418.104-6.831.165-10.235.083-4.586.169-9.329.2-13.986-.022-.703-.01-1.411.002-2.107.031-1.73.061-3.364-.406-4.721-.326-1.344-1.861-1.289-3.218-1.243-.52.019-1.059.038-1.586-.015-6.068.067-17.123.034-29.925-.004-20.832-.062-46.76-.141-61.032.208l-.218.023-.278.278-.009.193c-.406,8.395-.343,83.658-.027,94.987l.004.119.057.105c.372.689,1.282.882,2.641.969,2.691.11,6.403.089,9.985.067,2-.012,3.957-.024,5.65-.011,1.75.089,3.981.063,6.345.036,8.754-.103,20.73-.242,24.684,5.089,2.786,4.803.157,11.773-1.955,17.375-.287.761-.563,1.493-.804,2.164-4.545,11.04-9.471,22.657-14.234,33.893-3.724,8.781-7.573,17.862-11.188,26.542-.638,1.442-.701,2.522-.192,3.301.854,1.306,3.022,1.303,5.127,1.296h.206c1.247-.008,2.51-.029,3.776-.051,2.197-.038,4.471-.079,6.648-.037l1.272.078c2.429.149,4.941.304,7.442.304,7.068,0,14.038-1.236,18.72-7.318,3.389-4.292,5.16-9.58,6.873-14.692,1.103-3.29,2.242-6.692,3.793-9.757,12.24-23.086,23.445-49.108,22.569-82.906-.129-3.419-.289-6.839-.449-10.259Z" fill="#fff"/>
  <path d="M173.996,126.811l-.01-18.57c-.02-.436-.031-.822-.041-1.165-.062-2.074-.09-3.02-1.857-3.075-1.315-.015-3.923-.013-7.457-.011-2.347.001-5.102.003-8.165,0-5.486.005-11.755.002-18.161,0-7.255-.004-14.688-.008-21.36,0h-16.607c-5.996,0-11.941.003-17.892,0-.444-.007-.867-.003-1.279.002-.438.004-.864.01-1.317-.002h-.713c-1.052.002-1.582-.003-1.958.372-.375.375-.374.904-.371,1.958,0,.241,0,.514-.002.828v89.169c.005.322,0,.619-.002.893-.019,1.425-.032,2.551,1.522,3,2.861.466,5.864.387,8.765.31,1.516-.041,3.081-.083,4.597-.043l.203-.002c2.374.026,4.9-.019,7.347-.062,11.207-.203,22.801-.409,26.781,5.689,2.502,3.834,1.814,9.825-2.106,18.323-6.673,15.223-13.389,31.335-19.883,46.917-2.025,4.861-4.037,9.687-6.035,14.459-.54,1.432-.754,2.328-.338,2.96.376.572,1.143.685,1.932.722,2.454.028,7.779.036,13.719.036,3.867,0,7.994-.003,11.758-.006,4.311-.003,8.107-.007,10.398-.003,2.993.084,3.994-.653,5.384-3.95,7.666-17.808,17.728-41.227,27.562-64.432,4.074-8.909,5.819-16.329,5.494-23.325.127-23.522.11-47.655.094-70.993Z" fill="#fff"/>
</svg>