<?xml version="1.0" encoding="UTF-8"?>
<svg id="a" data-name="Layer 1" xmlns="http://www.w3.org/2000/svg" width="400" height="400" viewBox="0 0 400 400">
  <path d="M226.89,150.279c-.448.403-.985.716-1.568.896-.179.045-.358.045-.537.089-.314.045-.582.179-.896.179-.179,0-.358,0-.537-.045-1.299-.179-2.464-.896-3.18-1.971l-2.902-4.354c-1.172-1.758-3.54-2.247-5.312-1.097l-1.774,1.151c-1.03.672-2.329.896-3.539.537-1.254-.313-2.24-1.12-2.867-2.239h0c-1.412-2.708-5.261-2.781-6.775-.129l-1.019,1.786c-.717,1.21-1.971,2.016-3.359,2.195-1.388.179-2.777-.314-3.762-1.344l-4.846-5.017c-1.925-1.993-5.262-1.368-6.335,1.187l-18.739,44.617c-.402.957-.401,2.035,0,2.992l19.706,46.835,1.791,4.333c.597,1.444,2.005,2.385,3.567,2.385h86.838c2.759,0,4.627-2.811,3.558-5.355l-37.658-89.609c-1.03-2.45-4.169-3.151-6.143-1.371l-3.712,3.347Z" fill="none"/>
  <path d="M118.09,145.934c-.985,1.03-2.374,1.523-3.763,1.344-1.388-.179-2.643-.985-3.359-2.195l-1.019-1.786c-1.514-2.653-5.363-2.58-6.775.128h0c-.627,1.12-1.613,1.926-2.867,2.239-1.209.358-2.508.135-3.539-.537l-1.774-1.151c-1.773-1.15-4.14-.661-5.312,1.097l-2.902,4.354c-.717,1.075-1.881,1.792-3.18,1.971-.179.045-.358.045-.537.045-.314,0-.582-.134-.896-.179-.179-.045-.358-.045-.537-.089-.582-.224-1.12-.493-1.568-.896l-3.712-3.347c-1.974-1.78-5.114-1.079-6.143,1.371l-37.658,89.609c-1.069,2.544.799,5.355,3.558,5.355h129.837c2.759,0,4.627-2.811,3.559-5.354l-40.232-95.808c-1.073-2.555-4.409-3.181-6.335-1.187l-4.846,5.016Z" fill="none"/>
  <path d="M185.52,129.532l2.102,2.178c1.786,1.85,4.847,1.47,6.126-.76l3.043-5.306c.806-1.433,2.419-2.239,3.986-2.239,1.612,0,3.136.941,3.897,2.374l2.833,5.402c1.053,2.007,3.601,2.68,5.507,1.453l.977-.628c.448-.314.941-.493,1.478-.582.134-.045.269-.045.403-.09.179,0,.358-.045.537-.045.269,0,.493.045.761.089h.179c.493.135.985.314,1.388.583.09.045.179.134.269.179.448.314.806.672,1.12,1.12l2.137,3.195c1.307,1.954,4.042,2.296,5.789.724l.876-.787c1.22-1.098,1.613-2.847.979-4.361l-20.42-48.767c-1.323-3.159-5.798-3.159-7.12,0l-17.63,42.099c-.596,1.422-.288,3.062.783,4.171Z" fill="none"/>
  <path d="M78.024,136.389l.876.787c1.748,1.572,4.483,1.23,5.789-.724l2.137-3.195c1.344-2.016,4.121-2.598,6.136-1.254l.977.628c1.906,1.227,4.454.554,5.507-1.453l2.833-5.402c.761-1.433,2.284-2.374,3.897-2.374,1.657,0,3.18.806,3.987,2.239l3.042,5.306c1.279,2.231,4.34,2.611,6.126.761l2.102-2.178c1.071-1.109,1.378-2.749.783-4.171l-17.63-42.099c-1.323-3.159-5.798-3.158-7.12,0l-20.42,48.767c-.634,1.514-.241,3.263.979,4.361Z" fill="none"/>
  <path d="M370.925,331.303c.297-1.358-.048-2.213-.513-3.33-18.028-42.565-51.766-123.892-74.506-178.009-1.574-3.896-2.217-5.526-4.663-8.194-25.496-26.068-51.57-51.746-77.276-77.666-2.593-2.534-6.254-5.986-9.931-4.174-2.827,1.434-3.791,5.459-6.637,6.294-1.084.195-1.922-.26-2.886-.987-1.819-1.468-3.451-3.429-5.252-4.972-12.011-10.256-11.006,9.696-18.006,5.53-4.227-3.392-7.73-7.78-11.84-11.41-2.64-2.643-8.071-4.691-9.794-.046-.595,1.508-.762,3.28-.84,4.94-.309,6.744-.082,12.816,4.826,17.428,8.082,8.364,16.488,16.424,24.555,24.773.579.707,2.708,2.862,1.882,3.226-.805.156-3.306-1.264-4.424-1.821-3.915-2.153-7.575-4.37-10.763-7.389-11.272-11.117-22.37-22.431-33.591-33.606-2.144-2.126-5.184-4.928-8.269-4.362-4.427,1.019-2.855,6.495-1.451,9.654,2.371,5.661,4.507,10.13,8.605,14.152,4.024,4.468,9.39,8.606,12.822,13.561,1.684,4.039-5.397-1.582-6.117-2.594-9.425-9.433-18.83-18.89-28.268-28.329-2.95-3.41-9.793-7.391-12.57-2.213-21.729,51.33-57.915,138.546-76.327,182.181-1.942,3.553.698,7.167,3.254,10.233,25.326,25.706,50.916,51.114,76.389,76.674,1.811,2.027,5.875,4.978,7.445,5.325,19.637.031,196.088.111,259.329.062,2.365.094,3.979-2.577,4.792-4.839l.024-.093ZM32.387,239.655c-.368-1.25.031-2.374.512-3.506,1.422-3.406,4.785-11.445,8.939-21.381,9.785-23.4,23.905-57.178,27.185-65.011.557-1.482,1.578-2.883,3.313-3.068,3.871-.455,7.583,3.105,11.273,2.436,2.743-.482,5.181-3.688,7.943-4.65,1.775-.689,3.71-.617,5.587-.674,3.564.146,6.907-1.985,10.448-1.398,1.902.359,3.954,1.743,5.928,2.313,5.302,1.693,9.512-6.22,14.811-3.966,2.105,1.181,2.417,3.985,3.577,6.25,2.895,6.886,6.332,15.186,10.946,26.199,5.364,12.834,11.405,27.301,16.795,40.198,4.562,10.924,8.212,19.645,9.628,23.05,1.373,2.434-.25,5.765-2.468,7.003-7.233,1.052-19.441.084-39.674.402-21.932.01-47.685-.008-68.957,0-10.266-.002-17.919.003-20.906-.003-2.355.167-4.112-1.839-4.854-4.105l-.026-.091ZM182.652,243.006c-4.307-3.794-4.698-7.289-7.337-13.079-.891-2.136-1.779-4.241-2.695-6.437-4.363-10.422-10.204-24.363-12.64-30.19-2.08-4.259-1.537-7.279.524-11.656,3.194-7.587,7.785-18.666,11.247-26.909,1.962-4.105,3.681-10.275,6.12-13.23,4.526-3.82,9.08,3.411,13.639,3.543,2.484.116,4.599-1.654,6.882-2.389,2.896-1.146,5.868.639,9.137,1.053,3.351.414,6.992-.367,9.857,1.884,2.048,1.361,3.895,3.528,6.486,3.724,2.255.213,4.871-1.451,7.271-2.151,2.864-1.062,5.748-.46,6.676,2.548.779,1.852,2.148,5.133,3.951,9.442,4.483,10.758,10.666,25.474,15.63,37.371,5.186,13.116,15.11,34.666,17.259,42.155-.096,2.783-2.731,5.613-5.696,5.235-3.973.007-13.922.001-25.736.003-12.572.003-28.05-.002-39.936,0-7.923-.001-14.196.002-17.16-.002-1.228-.011-2.343-.084-3.393-.853l-.088-.064ZM228.627,136.783c-3.884,3.359-7.403-2.357-11.036-3.355-2.568-.798-5.656.185-8.016-1.082-2.503-1.253-3.821-4.082-5.924-5.807-3.809-3.434-7.214.59-9.728,3.476-2.926,3.458-7.013,2.757-8.92-1.248-1.016-2.014-.432-4.184.435-6.154.901-2.205,2.317-5.639,3.969-9.663,2.104-5.119,4.561-11.098,6.756-16.438,1.176-2.863,2.322-5.647,3.474-8.454,1.819-4.357,2.684-8.334,7.561-7.354,2.149.481,3.005,2.612,3.759,4.477,2.184,5.314,7.282,17.719,11.688,28.441,2.074,5.054,3.657,8.893,5.451,13.265,1.57,4.144,3.559,6.666.633,9.803l-.102.093ZM121.245,130.016c-1.248,1.762-3.628,2.934-5.703,1.911-3.594-1.562-6.41-8.919-11.239-6.072-4.656,3.239-4.75,7.728-11.785,7.268-1.923.033-3.723.374-5.34,1.42-1.859,1.111-3.514,2.901-5.732,3.234-2.377.334-4.308-1.796-4.621-3.629-.333-1.661.364-3.162.978-4.693,3.663-8.898,12.981-31.623,18.245-44.422.661-1.569,1.264-3.203,2.825-4.019,1.803-.871,4.391-.592,5.657,1.117,3.262,5.847,4.754,11.302,7.936,18.465,2.36,5.747,4.855,11.819,6.763,16.464,1.395,4.177,5.074,8.945,2.106,12.832l-.091.125Z"/>
</svg>