<?xml version="1.0" encoding="UTF-8"?>
<svg id="a" data-name="Layer 1" xmlns="http://www.w3.org/2000/svg" width="400" height="400" viewBox="0 0 400 400">
  <path d="M195.356,168.354l-3.23,4.345,4.169,3.099c.052.039.927.216,1.079.226,1.6.101,3.04-1.297,2.906-2.904-.027-.331-.421-1.418-.638-1.58l-4.286-3.187Z" fill="none"/>
  <path d="M175.444,159.903c1.906.37,3.624-1.595,3.036-3.446-.044-.137-.402-.948-.445-.98l-4.403-3.274-3.23,4.345,4.169,3.099c.063.047.722.226.874.256Z" fill="none"/>
  <path d="M126.977,224.951c-13.605-5.649-29.613-1.674-39.001,9.711-7.475,9.062-15.102,42.763-19.722,75.626,31.18-10.761,62.441-24.536,69.862-33.534,5.742-6.962,8.429-15.742,7.567-24.725-.862-8.982-5.172-17.09-12.133-22.832-2.009-1.657-4.218-3.085-6.572-4.247Z" fill="none"/>
  <path d="M247.752,238.787l-20.355-50.502c-.869-2.076-.518-4.463.911-6.202l10.435-13.141c11.819-14.855,21.544-31.263,28.901-48.763-10.302-4.157-19.905-9.869-28.475-16.937-8.631-7.1-16.104-15.5-22.15-24.899-15.781,10.584-30.035,23.282-42.365,37.74l-10.868,12.784c-1.467,1.687-3.715,2.476-5.915,2.074l-53.405-10.334-13.373,16.215,143.287,118.181,13.374-16.215ZM171.849,180.242c-1.162-.641-5.048-3.533-6-4.461-.116-.113-.245-.203-.27-.379l2.861-12.291-1.879-1.397-6.766,9.101c-.111.149-.575.005-.745-.089-1.144-.633-4.693-3.285-5.65-4.199-.091-.087-.205-.148-.246-.277l.125-.541,17.282-23.363c.311-.342.73-.874,1.183-.492,3.661,3.138,8.418,5.726,11.954,8.92,6.459,5.833,1.906,17.154-6.413,16.658-.438-.026-1.917-.416-2.081-.146l-2.607,13.01c-.285.177-.482.092-.748-.054ZM197.059,183.215l-.264.563-2.341,12.162c-.004.248-.466.753-.648.618l-6.576-4.889,2.757-12.537-1.703-1.266-6.679,8.983c-.056.049-.418.185-.497.177-.134,0-.227-.085-.335-.147-1.166-.664-4.697-3.277-5.648-4.202-.216-.21-.362-.372-.26-.694l17.863-24.026.739.049c3.627,3.041,8.084,5.582,11.635,8.651,7.475,6.463,1.428,18.812-8.043,16.557Z" fill="none"/>
  <path d="M340.148,55.128c-.244-.124-.499-.228-.76-.321-.244-.124-.499-.228-.76-.321-.244-.124-.499-.228-.76-.32-.244-.124-.499-.228-.76-.321-.244-.124-.499-.228-.76-.321-.244-.124-.499-.228-.76-.32-.244-.124-.499-.228-.76-.32-.244-.124-.499-.228-.76-.321-.244-.124-.499-.228-.76-.32-.244-.124-.499-.228-.76-.32-.244-.124-.499-.228-.76-.321-.244-.124-.499-.228-.76-.321-.244-.124-.499-.228-.76-.32-.244-.124-.499-.228-.76-.32-.244-.124-.499-.228-.76-.321-.244-.124-.499-.228-.76-.321-.244-.124-.499-.228-.76-.32-.244-.124-.499-.228-.76-.321-.244-.124-.499-.228-.76-.321-.244-.124-.499-.228-.76-.32-.244-.124-.499-.228-.76-.32-.244-.124-.499-.228-.76-.321-.244-.124-.499-.228-.76-.32-.244-.124-.499-.228-.76-.32-.244-.124-.499-.228-.76-.321-.244-.124-.499-.228-.76-.321-.244-.124-.499-.228-.76-.32-.244-.124-.499-.228-.76-.32-.244-.124-.499-.228-.76-.321-.244-.124-.499-.228-.76-.321-.244-.124-.499-.228-.76-.32-.244-.124-.499-.228-.76-.32-.244-.124-.499-.228-.76-.321-.244-.124-.499-.228-.76-.32-.244-.124-.499-.228-.76-.32-.244-.124-.499-.228-.76-.321-.244-.124-.499-.228-.76-.321-.244-.124-.499-.228-.76-.32-.244-.124-.5-.228-.76-.32-.244-.124-.499-.228-.76-.321-.244-.124-.499-.228-.76-.321-.244-.124-.499-.228-.76-.32-.244-.124-.499-.228-.76-.321-.244-.124-.499-.228-.76-.321-.244-.124-.499-.228-.76-.32-.244-.124-.499-.228-.76-.32-.244-.124-.499-.228-.76-.321-.244-.124-.499-.228-.76-.32-.244-.124-.499-.228-.76-.32-.244-.124-.499-.228-.76-.321-.244-.124-.499-.228-.76-.321-.244-.124-.499-.228-.76-.32-.244-.124-.499-.228-.76-.32-.244-.124-.499-.228-.76-.321-.244-.124-.499-.228-.76-.321-.244-.124-.499-.228-.76-.32-.244-.124-.499-.228-.76-.321-.244-.124-.499-.228-.76-.321-.244-.124-.499-.228-.76-.32-.402-.204-.83-.357-1.273-.474-1.093-.743-2.418-1.164-3.84-1.119-.275.009-.55.035-.822.079-48.446,9.842-92.191,35.649-124.237,73.291l-8.518,10.033-53.453-10.374c-2.246-.438-4.55.396-5.994,2.17l-19.684,23.865c-2.192,2.657-1.814,6.588.843,8.78l105.2,86.767c-.708-.326-1.422-.636-2.141-.926-.253-.107-.505-.218-.76-.32-.253-.107-.505-.218-.76-.32-.253-.107-.505-.218-.76-.32-.253-.107-.505-.218-.76-.32-.253-.107-.505-.218-.76-.321-.253-.107-.505-.218-.76-.32-.253-.107-.505-.218-.76-.32-.253-.107-.505-.218-.76-.32-.253-.107-.505-.218-.76-.32-.253-.107-.505-.218-.76-.32-.253-.107-.505-.218-.76-.32-.253-.107-.505-.218-.76-.32-.253-.107-.505-.218-.76-.32-.253-.107-.505-.218-.76-.32-.253-.107-.505-.218-.76-.32-.253-.107-.505-.218-.76-.32-.253-.107-.505-.218-.76-.32-.253-.107-.505-.218-.76-.32-.253-.107-.505-.218-.76-.32-.253-.107-.505-.218-.76-.32-.253-.107-.505-.218-.76-.32-.253-.107-.505-.218-.76-.32-.253-.107-.505-.218-.76-.32-.253-.107-.505-.218-.76-.32-.253-.107-.505-.218-.76-.32-.253-.107-.505-.218-.76-.32-.253-.107-.505-.218-.76-.32-.253-.107-.505-.218-.76-.321-.253-.107-.505-.218-.76-.32-.253-.107-.505-.218-.76-.32-.253-.107-.505-.218-.76-.32-.253-.107-.505-.218-.76-.32-.253-.107-.505-.218-.76-.32-.253-.107-.505-.218-.76-.32-.253-.107-.505-.218-.76-.321-.253-.107-.505-.218-.76-.32-.253-.107-.505-.218-.76-.32-.253-.107-.505-.218-.76-.32-.253-.107-.505-.218-.76-.321-.253-.107-.505-.218-.76-.321-.253-.107-.505-.218-.76-.32-.253-.107-.505-.218-.76-.32-.253-.107-.505-.218-.76-.321-.253-.107-.505-.218-.76-.32-.253-.107-.505-.218-.76-.32-.253-.107-.505-.218-.76-.321-.253-.107-.505-.218-.76-.321-.253-.107-.505-.218-.76-.32-.253-.107-.505-.218-.76-.32-.253-.107-.505-.218-.76-.321-.253-.107-.505-.218-.76-.32-.253-.107-.505-.218-.76-.32-.253-.107-.505-.218-.76-.321-.253-.107-.505-.218-.76-.321-.253-.107-.505-.218-.76-.32-.253-.107-.505-.218-.76-.32-.253-.107-.505-.218-.76-.321-.253-.107-.505-.218-.76-.321-.216-.091-.432-.184-.649-.274-19.432-9.358-43.443-4.671-57.779,12.711-15.398,18.669-23.745,89.073-24.663,97.047-.323,3.141,1.726,5.972,4.695,6.732.457.312.956.569,1.493.754.244.122.498.23.76.32.244.123.497.23.76.32.244.122.498.23.76.32.244.122.498.23.76.32.244.123.497.23.76.32.244.122.498.23.76.32.244.122.498.23.76.32.244.123.497.23.76.32.244.122.498.23.76.321.244.122.498.23.76.32.244.122.498.23.76.32.244.122.498.23.76.32.244.123.497.23.76.32.244.122.498.23.76.32.244.122.498.23.76.32.244.123.497.23.76.32.244.122.498.23.76.321.244.122.498.23.76.32.244.123.497.23.76.32.244.122.498.23.76.32.244.122.498.23.76.32.244.122.498.23.76.32.244.123.498.23.76.32.244.122.498.23.76.321.244.122.498.23.76.32.244.122.498.23.76.32.244.123.497.23.76.32.244.122.498.23.76.32.244.122.498.23.76.32.244.123.497.23.76.32.244.122.498.23.76.32.244.122.498.23.76.32.244.123.497.23.76.32.244.122.498.23.76.32.244.122.498.23.76.32.244.122.498.23.76.32.244.122.498.23.76.32.244.123.498.23.76.32.244.122.498.23.76.32.244.122.498.23.76.32.244.123.497.23.76.32.244.122.498.23.76.32.244.122.498.23.76.32.244.123.497.23.76.32.244.122.498.23.76.32.244.122.498.23.76.32.244.123.497.23.76.321.244.122.498.23.76.32.244.122.498.23.76.32.244.122.498.23.76.32.244.122.498.23.76.32.244.123.497.23.76.32.244.122.498.23.76.32.244.122.498.23.76.32.244.123.497.23.76.321.244.122.498.23.76.32.244.122.498.23.76.32.244.123.497.23.76.32.244.122.498.23.76.32.662.331,1.389.556,2.169.637.83.085,1.669.005,2.467-.237,7.654-2.419,75.183-24.011,90.581-42.679,14.166-17.175,14.366-41.264,1.939-58.52l28.838,23.785c.729.601,1.555,1.002,2.414,1.223.468.32.967.567,1.482.747.247.126.501.23.76.32.248.126.502.23.76.321.247.126.501.23.76.32.247.126.501.23.76.32.248.125.502.23.76.32.247.126.501.23.76.32.247.126.501.23.76.32.248.126.501.23.76.32.247.126.501.23.76.32.248.126.502.23.76.321.247.126.501.23.76.32.247.126.501.23.76.32.247.126.501.23.76.32.247.126.501.23.76.32.247.126.502.23.76.32.248.126.501.23.76.32.248.126.501.23.76.321.247.126.501.23.76.32.247.126.501.23.76.32.247.126.501.23.76.32.247.126.501.23.76.32.247.126.501.23.76.32.247.126.501.23.76.32.248.126.501.23.76.32.248.126.502.23.76.32.247.126.501.23.76.32.247.126.501.23.76.32.247.126.501.23.76.32.247.126.502.23.76.32.248.125.502.23.76.32.248.126.501.23.76.32.248.126.501.23.76.32.248.126.502.23.76.32.247.126.501.23.76.32.247.126.501.23.76.32.247.126.501.23.76.32.247.126.501.23.76.32.247.126.501.23.76.32.248.126.501.23.76.32.247.126.501.23.76.321.247.126.501.23.76.32.247.126.501.23.76.32.247.126.502.23.76.32.248.125.502.23.76.32.247.126.501.23.76.32.248.126.501.23.76.32.248.126.501.23.76.32.247.126.502.23.76.321.247.126.501.23.76.32.247.126.501.23.76.32.247.126.501.23.76.32.247.126.501.23.76.32.247.126.501.23.76.32.247.126.501.23.76.32.248.126.501.23.76.321.247.126.501.23.76.32.247.126.501.23.76.32.248.125.502.23.76.32.247.126.501.23.76.32,2.546,1.29,5.733.7,7.625-1.594l19.684-23.865c1.467-1.756,1.847-4.176.99-6.298l-20.404-50.542,8.181-10.311c13.98-17.498,25.208-37.027,33.294-57.913.028-.104.079-.2.151-.28-.009-.088-.017-.176.023-.224,9.556-24.708,14.616-50.927,14.94-77.417-.088-2.744-1.872-5.029-4.311-5.896ZM145.682,252.03c.862,8.982-1.825,17.763-7.567,24.725-7.421,8.998-38.682,22.773-69.862,33.534,4.62-32.863,12.247-66.564,19.722-75.626,9.388-11.385,25.396-15.36,39.001-9.711,2.354,1.162,4.564,2.59,6.572,4.247,6.961,5.742,11.271,13.85,12.133,22.832ZM91.091,136.821l13.373-16.215,53.405,10.334c2.2.402,4.448-.387,5.915-2.074l10.868-12.784c12.33-14.457,26.584-27.156,42.365-37.74,6.046,9.399,13.52,17.799,22.15,24.899,8.57,7.068,18.173,12.78,28.475,16.937-7.357,17.5-17.081,33.908-28.901,48.763l-10.435,13.141c-1.429,1.739-1.78,4.125-.911,6.202l20.355,50.502-13.374,16.215-143.287-118.181Z"/>
  <path d="M205.102,166.659c-3.55-3.069-8.007-5.611-11.635-8.651l-.739-.049-17.863,24.026c-.102.322.044.484.26.694.951.925,4.482,3.538,5.648,4.202.108.062.201.147.335.147.079.008.441-.128.497-.177l6.679-8.983,1.703,1.266-2.757,12.537,6.576,4.889c.183.136.644-.37.648-.618l2.341-12.162.264-.563c9.471,2.255,15.518-10.094,8.043-16.557ZM200.28,173.12c.134,1.607-1.306,3.005-2.906,2.904-.153-.01-1.027-.187-1.079-.226l-4.169-3.099,3.23-4.345,4.286,3.187c.217.161.61,1.249.638,1.58Z"/>
  <path d="M177.285,167.432c8.319.496,12.872-10.825,6.413-16.658-3.537-3.194-8.294-5.782-11.954-8.92-.453-.383-.872.149-1.183.492l-17.282,23.363-.125.541c.041.129.155.191.246.277.956.914,4.506,3.566,5.65,4.199.171.094.634.238.745.089l6.766-9.101,1.879,1.397-2.861,12.291c.025.176.154.265.27.379.952.928,4.839,3.819,6,4.461.266.147.462.231.748.054l2.607-13.01c.164-.27,1.643.12,2.081.146ZM173.632,152.203l4.403,3.274c.043.032.401.844.445.98.588,1.851-1.13,3.816-3.036,3.446-.152-.03-.811-.209-.874-.256l-4.169-3.099,3.23-4.345Z"/>
</svg>