<?xml version="1.0" encoding="UTF-8"?>
<svg id="a" data-name="Layer 1" xmlns="http://www.w3.org/2000/svg" width="400" height="400" viewBox="0 0 400 400">
  <path d="M218.564,86.963c4.672,0,8.474-3.817,8.474-8.509,0-6.436-5.054-12.397-8.556-15.755-3.458,3.221-8.392,8.999-8.392,15.755,0,4.692,3.801,8.509,8.474,8.509Z" fill="none"/>
  <rect x="211.913" y="98.468" width="13.301" height="26.231" fill="none"/>
  <path d="M56.558,252.353h212.193c2.475,0,4.488-2.013,4.488-4.488v-106.499H52.07v106.499c0,2.475,2.013,4.488,4.488,4.488Z" fill="none"/>
  <rect x="157.276" y="98.468" width="13.301" height="26.231" fill="none"/>
  <rect x="102.638" y="98.468" width="13.301" height="26.231" fill="none"/>
  <path d="M163.926,86.963c4.672,0,8.474-3.817,8.474-8.509,0-6.436-5.054-12.397-8.556-15.755-3.458,3.221-8.392,9-8.392,15.755,0,4.692,3.801,8.509,8.474,8.509Z" fill="none"/>
  <path d="M28.169,271.557c0,8.707,7.084,15.791,15.79,15.791h239.934c8.707,0,15.79-7.084,15.79-15.791v-6.329H28.169v6.329Z" fill="none"/>
  <path d="M109.288,86.963c4.673,0,8.474-3.817,8.474-8.509,0-6.106-4.758-12.114-8.543-15.767-3.459,3.218-8.405,9.003-8.405,15.767,0,4.692,3.801,8.509,8.474,8.509Z" fill="none"/>
  <path d="M363.264,306.863c-.178-.205-.37-.397-.575-.575-.178-.205-.37-.397-.575-.575-.178-.205-.37-.397-.575-.575-.178-.205-.37-.397-.575-.575-.178-.205-.37-.397-.575-.575-.178-.205-.37-.397-.575-.575-.178-.205-.37-.397-.575-.575-.178-.205-.37-.397-.575-.575-.178-.205-.37-.397-.575-.575-.178-.205-.37-.397-.575-.575-.178-.205-.37-.397-.575-.575-.178-.205-.37-.397-.575-.575-.178-.205-.37-.397-.575-.575-.178-.205-.37-.397-.575-.575-.178-.205-.37-.397-.575-.575-.178-.205-.37-.397-.575-.575-.178-.205-.37-.397-.575-.575-.178-.205-.37-.397-.575-.575-.178-.205-.37-.397-.575-.575-.178-.205-.37-.397-.575-.575-.178-.205-.37-.397-.575-.575-.178-.205-.37-.397-.575-.575-.178-.205-.37-.397-.575-.575-.178-.205-.37-.397-.575-.575-.178-.205-.37-.397-.575-.575-.178-.205-.37-.397-.575-.575-.178-.205-.37-.397-.575-.575-.178-.205-.37-.397-.575-.575-.178-.205-.37-.397-.575-.575-.178-.205-.37-.397-.575-.575-.178-.205-.37-.397-.575-.575-.178-.205-.37-.397-.575-.575-.178-.205-.37-.397-.575-.575-.178-.205-.37-.397-.575-.575-.178-.205-.37-.397-.575-.575-.178-.205-.37-.397-.575-.575-.158-.182-.327-.352-.506-.513v-22.61c0-.015.001-.029.001-.044v-75.645c0-1.735-.772-3.287-1.986-4.342-.178-.205-.37-.397-.575-.575-.178-.205-.37-.397-.575-.575-.178-.205-.37-.397-.575-.575-.178-.205-.37-.397-.575-.575-.178-.205-.37-.397-.575-.575-.178-.205-.37-.397-.575-.575-.178-.205-.37-.397-.575-.575-.178-.205-.37-.397-.575-.575-.178-.205-.37-.397-.575-.575-.178-.205-.37-.397-.575-.575-.178-.205-.37-.397-.575-.575-.178-.205-.37-.397-.575-.575-.178-.205-.37-.397-.575-.575-.178-.205-.37-.397-.575-.575-.178-.205-.37-.397-.575-.575-.178-.205-.37-.397-.575-.575-.178-.205-.37-.397-.575-.575-.178-.205-.37-.397-.575-.575-.178-.205-.37-.397-.575-.575-.178-.205-.37-.397-.575-.575-.178-.205-.37-.397-.575-.575-.178-.205-.37-.397-.575-.575-.178-.205-.37-.397-.575-.575-.178-.205-.37-.397-.575-.575-.178-.205-.37-.397-.575-.575-.178-.205-.37-.397-.575-.575-.178-.205-.37-.397-.575-.575-.178-.205-.37-.397-.575-.575-.178-.205-.37-.397-.575-.575-.178-.205-.37-.397-.575-.575-.178-.205-.37-.397-.575-.575-.178-.205-.37-.397-.575-.575-.178-.205-.37-.397-.575-.575-.178-.205-.37-.397-.575-.575-.178-.205-.37-.397-.575-.575-.178-.205-.37-.397-.575-.575-.178-.205-.37-.397-.575-.575-.178-.205-.37-.397-.575-.575-.178-.205-.37-.397-.575-.575-.178-.205-.37-.397-.575-.575-.178-.205-.37-.397-.575-.575-.178-.205-.37-.397-.575-.575-.178-.205-.37-.397-.575-.575-.178-.205-.37-.397-.575-.575-.178-.205-.37-.397-.575-.575-.178-.205-.37-.397-.575-.575-.178-.205-.37-.397-.575-.575-.178-.205-.37-.397-.575-.575-.178-.205-.37-.397-.575-.575-.178-.205-.37-.397-.575-.575-.178-.205-.37-.397-.575-.575-.178-.205-.37-.397-.575-.575-.178-.205-.37-.397-.575-.575-.178-.205-.37-.397-.575-.575-.178-.205-.37-.397-.575-.575-.178-.205-.37-.397-.575-.575-.178-.205-.37-.397-.575-.575-.178-.205-.37-.397-.575-.575-.178-.205-.37-.397-.575-.575-.178-.205-.37-.397-.575-.575-.178-.205-.37-.397-.575-.575-.178-.205-.37-.397-.575-.575-.178-.205-.37-.397-.575-.575-.178-.205-.37-.397-.575-.575-.178-.205-.37-.397-.575-.575-.178-.205-.37-.397-.575-.575-.178-.205-.37-.397-.575-.575-.178-.205-.37-.397-.575-.575-.178-.205-.37-.397-.575-.575-.178-.205-.37-.397-.575-.575-.178-.205-.37-.397-.575-.575-.178-.205-.37-.397-.575-.575-.178-.205-.37-.397-.575-.575-.178-.205-.37-.397-.575-.575-.178-.205-.37-.397-.575-.575-.178-.205-.37-.397-.575-.575-.178-.205-.37-.397-.575-.575-.178-.205-.37-.397-.575-.575-.178-.205-.37-.397-.575-.575-.178-.205-.37-.397-.575-.575-.178-.205-.37-.397-.575-.575-.178-.205-.37-.397-.575-.575-.178-.205-.37-.397-.575-.575-.093-.108-.188-.215-.289-.315.373-1.526.575-3.118.575-4.758,0-6.707-2.933-13.704-8.482-20.234-1.065-1.253-2.13-2.374-3.126-3.353-.194-.197-.386-.389-.575-.575-.194-.197-.386-.389-.575-.575-.194-.197-.386-.389-.575-.575-.194-.197-.386-.389-.575-.575-.194-.197-.386-.389-.575-.575-.194-.197-.386-.389-.575-.575-.194-.197-.386-.389-.575-.575-.194-.197-.386-.389-.575-.575-.194-.197-.386-.389-.575-.575-.194-.197-.386-.389-.575-.575-.194-.197-.386-.389-.575-.575-.194-.197-.386-.389-.575-.575-.194-.197-.386-.389-.575-.575-.194-.197-.386-.389-.575-.575-.194-.197-.386-.389-.575-.575-.194-.197-.386-.389-.575-.575-.194-.197-.386-.389-.575-.575-.194-.197-.386-.389-.575-.575-.194-.197-.386-.389-.575-.575-.194-.197-.386-.389-.575-.575-.194-.197-.386-.389-.575-.575-.194-.197-.386-.389-.575-.575-.194-.197-.386-.389-.575-.575-.194-.197-.386-.389-.575-.575-.194-.197-.386-.389-.575-.575-.194-.197-.386-.389-.575-.575-.194-.197-.386-.389-.575-.575-.194-.197-.386-.389-.575-.575-.194-.197-.386-.389-.575-.575-.194-.197-.386-.389-.575-.575-.194-.197-.386-.389-.575-.575-.194-.197-.386-.389-.575-.575-.194-.197-.386-.389-.575-.575-.194-.197-.386-.389-.575-.575-.194-.197-.386-.389-.575-.575-.194-.197-.386-.389-.575-.575-.194-.197-.386-.389-.575-.575-.194-.197-.386-.389-.575-.575-.194-.197-.386-.389-.575-.575-.194-.197-.386-.389-.575-.575-.194-.197-.386-.389-.575-.575-.194-.197-.386-.389-.575-.575-.194-.197-.386-.389-.575-.575-.194-.197-.387-.39-.576-.576-.194-.196-.385-.388-.574-.574-.194-.197-.386-.389-.575-.575-.194-.197-.386-.389-.575-.575-.194-.197-.386-.389-.575-.575-.195-.198-.388-.391-.578-.578-.193-.196-.384-.387-.572-.572-.194-.197-.386-.389-.575-.575-.194-.197-.387-.39-.576-.576-.194-.196-.385-.388-.574-.574-.194-.197-.386-.389-.575-.575-.194-.197-.386-.389-.575-.575-.194-.197-.386-.389-.575-.575-.194-.197-.386-.389-.575-.575-.194-.197-.386-.389-.575-.575-.194-.197-.386-.389-.575-.575-.194-.197-.386-.389-.575-.575-.194-.197-.386-.389-.575-.575-.194-.197-.386-.389-.575-.575-.194-.197-.386-.389-.575-.575-.194-.197-.386-.389-.575-.575-.194-.197-.386-.389-.575-.575-.194-.197-.386-.389-.575-.575-.194-.197-.386-.389-.575-.575-.194-.197-.386-.389-.575-.575-.194-.197-.386-.389-.575-.575-.194-.197-.386-.389-.575-.575-.194-.197-.386-.389-.575-.575-.194-.197-.386-.389-.575-.575-.194-.197-.386-.389-.575-.575-.194-.197-.386-.389-.575-.575-.194-.197-.386-.389-.575-.575-.194-.197-.386-.389-.575-.575-.194-.197-.386-.389-.575-.575-.194-.197-.386-.389-.575-.575-.194-.197-.386-.389-.575-.575-.194-.197-.386-.389-.575-.575-.194-.197-.386-.389-.575-.575-.194-.197-.386-.389-.575-.575-.194-.197-.386-.389-.575-.575-.194-.197-.386-.389-.575-.575-.194-.197-.386-.389-.575-.575-.194-.197-.386-.389-.575-.575-.194-.197-.386-.389-.575-.575-.194-.197-.386-.389-.575-.575-.194-.197-.386-.389-.575-.575-2.973-3.013-5.456-4.816-5.588-4.911-1.353-.973-3.024-1.276-4.589-.933-1.457-.273-2.997.014-4.279.88-.684.462-16.759,11.511-16.759,28.018,0,.127.007.252.01.378-.143-.144-.286-.288-.427-.426-.193-.196-.384-.387-.572-.572-.194-.197-.386-.389-.575-.575-.195-.197-.387-.39-.577-.577-.193-.196-.384-.387-.573-.573-.194-.197-.386-.389-.575-.575-.194-.197-.386-.389-.575-.575-.194-.197-.386-.389-.575-.575-.194-.197-.386-.389-.575-.575-.194-.197-.386-.389-.575-.575-.194-.197-.386-.389-.575-.575-.194-.197-.386-.389-.575-.575-.194-.197-.386-.389-.575-.575-.194-.197-.386-.389-.575-.575-.194-.197-.386-.389-.575-.575-.194-.197-.386-.389-.575-.575-.194-.197-.386-.389-.575-.575-.194-.197-.386-.389-.575-.575-.194-.197-.386-.389-.575-.575-.194-.197-.386-.389-.575-.575-.194-.197-.386-.389-.575-.575-.194-.197-.386-.389-.575-.575-.194-.197-.386-.389-.575-.575-.194-.197-.386-.389-.575-.575-.194-.197-.386-.389-.575-.575-.194-.197-.386-.389-.575-.575-.194-.197-.386-.389-.575-.575-.194-.197-.386-.389-.575-.575-.194-.197-.386-.389-.575-.575-.194-.197-.386-.389-.575-.575-.194-.197-.386-.389-.575-.575-.194-.197-.386-.389-.575-.575-.194-.197-.386-.389-.575-.575-.194-.197-.386-.389-.575-.575-.194-.197-.386-.389-.575-.575-.194-.197-.386-.389-.575-.575-.194-.197-.386-.389-.575-.575-.194-.197-.386-.389-.575-.575-.194-.197-.386-.389-.575-.575-.194-.197-.386-.389-.575-.575-.194-.197-.386-.389-.575-.575-2.973-3.013-5.456-4.816-5.588-4.911-1.353-.973-3.025-1.276-4.589-.933-1.457-.273-2.997.014-4.279.88-.685.462-16.759,11.511-16.759,28.018,0,.127.007.251.01.378-.143-.144-.286-.288-.426-.426-.193-.196-.384-.387-.572-.572-.194-.197-.386-.389-.575-.575-.195-.197-.387-.39-.577-.577-.193-.196-.384-.387-.573-.573-.194-.197-.386-.389-.575-.575-.194-.197-.386-.389-.575-.575-.194-.197-.386-.389-.575-.575-.194-.197-.386-.389-.575-.575-.194-.197-.386-.389-.575-.575-.194-.197-.386-.389-.575-.575-.194-.197-.386-.389-.575-.575-.194-.197-.386-.389-.575-.575-.194-.197-.386-.389-.575-.575-.194-.197-.386-.389-.575-.575-.194-.197-.386-.389-.575-.575-.194-.197-.386-.389-.575-.575-.194-.197-.386-.389-.575-.575-.194-.197-.386-.389-.575-.575-.194-.197-.386-.389-.575-.575-.194-.197-.386-.389-.575-.575-.194-.197-.386-.389-.575-.575-.194-.197-.386-.389-.575-.575-.194-.197-.386-.389-.575-.575-.194-.197-.386-.389-.575-.575-.194-.197-.386-.389-.575-.575-.194-.197-.386-.389-.575-.575-.194-.197-.386-.389-.575-.575-.194-.197-.386-.389-.575-.575-.194-.197-.386-.389-.575-.575-.194-.197-.386-.389-.575-.575-.194-.197-.386-.389-.575-.575-.194-.197-.386-.389-.575-.575-.194-.197-.386-.389-.575-.575-.194-.197-.386-.389-.575-.575-.194-.197-.386-.389-.575-.575-.194-.197-.386-.389-.575-.575-.194-.197-.386-.389-.575-.575-.194-.197-.386-.389-.575-.575-.194-.197-.386-.389-.575-.575-.194-.197-.386-.389-.575-.575-2.973-3.013-5.456-4.816-5.588-4.911-1.353-.973-3.025-1.276-4.589-.933-1.457-.273-2.997.014-4.279.88-.684.462-16.759,11.511-16.759,28.018,0,3.92,1.135,7.578,3.088,10.669-.789.985-1.264,2.233-1.264,3.593v37.102h-43.226c-.463,0-.911.061-1.343.164-1.618.319-3.046,1.311-3.883,2.773-1.384,2.417-2.116,5.161-2.116,7.937v107.174c0,2.051.392,4.011,1.099,5.814h-16.958c-.231,0-.457.017-.681.044h-1.609c-3.177,0-5.752,2.576-5.752,5.752v12.081c0,10.95,6.485,20.409,15.813,24.754.174.178.349.354.527.527.189.195.381.386.575.575.189.195.381.386.575.575.189.195.381.386.575.575.189.195.381.386.575.575.189.195.381.386.575.575.189.195.381.386.575.575.189.195.381.386.575.575.189.195.381.386.575.575.189.195.381.386.575.575.189.195.381.386.575.575.189.195.381.386.575.575.189.195.381.386.575.575.189.195.381.386.575.575.189.195.381.386.575.575.189.195.381.386.575.575.189.195.381.386.575.575.189.195.381.386.575.575.189.195.381.386.575.575.189.195.381.386.575.575.189.195.381.386.575.575.189.195.381.386.575.575.189.195.381.386.575.575.189.195.381.386.575.575.189.195.381.386.575.575.189.195.381.386.575.575.189.195.381.386.575.575.189.195.381.386.575.575.189.195.381.386.575.575.189.195.381.386.575.575.189.195.381.386.575.575.189.195.381.386.575.575.189.195.381.386.575.575.189.195.381.386.575.575.189.195.381.386.575.575.189.195.381.386.575.575.189.195.381.386.575.575.189.195.381.386.575.575.189.195.381.386.575.575.189.195.381.386.575.575.189.195.381.386.575.575.189.195.381.386.575.575.189.195.381.386.575.575.189.195.381.386.575.575.189.195.381.386.575.575.189.195.381.386.575.575.189.195.381.386.575.575.189.195.381.386.575.575.189.195.381.386.575.575.189.195.381.386.575.575.189.195.381.386.575.575.189.195.381.386.575.575.189.195.381.386.575.575.189.195.381.386.575.575.189.195.381.386.575.575.189.195.381.386.575.575.189.195.381.386.575.575.189.195.381.386.575.575.189.195.381.386.575.575.189.195.381.386.575.575.189.195.381.386.575.575.189.195.381.386.575.575.189.195.381.386.575.575.189.195.381.386.575.575.189.195.381.386.575.575.189.195.381.386.575.575.189.195.381.386.575.575.189.195.381.386.575.575.189.195.381.386.575.575.189.195.381.386.575.575.189.195.381.386.575.575.189.195.381.386.575.575.189.195.381.386.575.575.189.195.381.386.575.575.189.195.381.386.575.575.189.195.381.386.575.575.189.195.381.386.575.575.189.195.381.386.575.575.189.195.381.386.575.575.189.195.381.386.575.575,4.964,5.112,11.901,8.298,19.572,8.298h239.934c15.051,0,27.295-12.245,27.295-27.295v-12.081c0-1.735-.772-3.287-1.986-4.342ZM279.732,259.476h2.503s-2.503,0-2.503,0c0,0,0,0,0,0ZM102.638,124.699v-26.231h13.301v26.231h-13.301ZM157.276,124.699v-26.231h13.301v26.231h-13.301ZM52.07,141.366h221.169v106.499c0,2.475-2.013,4.488-4.488,4.488H56.558c-2.475,0-4.488-2.013-4.488-4.488v-106.499ZM211.913,124.699v-26.231h13.301v26.231h-13.301ZM218.482,62.699c3.502,3.358,8.556,9.319,8.556,15.755,0,4.692-3.801,8.509-8.474,8.509s-8.474-3.817-8.474-8.509c0-6.755,4.933-12.534,8.392-15.755ZM163.844,62.699c3.502,3.358,8.556,9.319,8.556,15.755,0,4.692-3.801,8.509-8.474,8.509s-8.474-3.817-8.474-8.509c0-6.755,4.934-12.534,8.392-15.755ZM109.22,62.687c3.785,3.653,8.543,9.661,8.543,15.767,0,4.692-3.801,8.509-8.474,8.509s-8.474-3.817-8.474-8.509c0-6.764,4.946-12.549,8.405-15.767ZM299.684,271.557c0,8.707-7.084,15.791-15.79,15.791H43.959c-8.707,0-15.79-7.084-15.79-15.791v-6.329h271.515v6.329Z"/>
  <polygon points="282.235 259.476 279.732 259.476 279.732 259.476 282.235 259.476 282.235 259.476" fill="#fff"/>
</svg>