<?xml version="1.0" encoding="UTF-8"?>
<svg id="a" data-name="Layer 1" xmlns="http://www.w3.org/2000/svg" width="400" height="400" viewBox="0 0 400 400">
  <path d="M339.945,344.603c-4.615,4.524-12.539,7.457-18.992,8.047l-203.797-.049c-13.175-1.494-23.309-14.313-32.1-23.237-10.636-10.797-36.179-34.941-37.704-49.074-1.26-11.674-1.286-39.932.005-51.575.495-4.462,3.574-8.474,3.766-11.415.195-2.996-3.356-8.677-3.813-13.685-1.102-12.067-1.27-38.484.047-50.359.495-4.461,3.575-8.476,3.766-11.415.204-3.147-3.271-8.008-3.766-12.475-1.29-11.648-1.266-39.897-.005-51.575,1.548-14.339,14.104-25.798,28.252-27.085,12.075-1.098,38.481-1.268,50.362.051,4.462.495,8.474,3.574,11.415,3.766,2.996.195,8.677-3.356,13.685-3.813,12.067-1.102,38.484-1.27,50.359.047,4.461.495,8.476,3.575,11.415,3.766,3.147.204,8.008-3.271,12.475-3.766,11.301-1.252,41.606-1.349,52.717.11,2.623.344,7.023,1.934,9.413,3.163,7.705,3.965,48.809,42.911,54.865,50.778,3.612,4.692,6.554,10.994,6.937,16.958l.003,202.587c-.514,6.878-4.435,15.477-9.305,20.25ZM122.818,80.943h-45.276v45.276h45.276v-45.276ZM198.278,80.943h-45.276v45.276h45.276v-45.276ZM273.737,80.943h-45.276v45.276h45.276v-45.276ZM122.818,156.403h-45.276v45.276h45.276v-45.276ZM198.278,156.403h-45.276v45.276h45.276v-45.276ZM273.737,156.403h-45.276v45.276h45.276v-45.276ZM122.818,231.862h-45.276v45.276h45.276v-45.276ZM198.278,231.862h-45.276v45.276h43.389l1.886-1.886v-43.389ZM273.737,231.862h-45.276v45.276h45.276v-45.276Z"/>
</svg>