<?xml version="1.0" encoding="UTF-8"?>
<svg id="a" data-name="Layer 1" xmlns="http://www.w3.org/2000/svg" width="400" height="400" viewBox="0 0 400 400">
  <path d="M275.308,229.281c.809-1.359-.736-2.089-2.113-3.158-2.368-2.162-5.247-1.899-7.736.151-4.869,3.853-7.597,8.804-8.48,14.459-.545,3.322-.629,6.877,1.06,9.898,2.328,4.194,7.569,6.832,12.267,5.151,4.847-1.518,6.443-7.873,5.43-12.277-.654-2.86-3.6-4.42-6.401-5.312-1.253-.541-.455-1.718.204-2.429,1.873-2.16,3.982-4.164,5.695-6.357l.074-.126Z"/>
  <path d="M247.906,237.63c-.118-.485.309-1.042.652-1.47,1.688-1.969,3.592-3.997,5.068-5.736.988-1.137,1.078-2.401-.157-3.343-4.419-4.077-7.595-2.737-11.146,1.544-5.097,5.909-7.066,11.904-5.967,18.128.874,7.862,9.766,12.109,16.025,6.834,4.732-3.631,3.861-13.337-2.526-14.87-.652-.242-1.596-.381-1.919-1.002l-.029-.086Z"/>
  <path d="M297.775,236.536c-7.008-4.045-15.832,2.814-13.413,10.589.68,2.881,2.974,5.084,5.786,5.724.693.234,1.159.501,1.209.917.052.388-.227.828-.484,1.178-1.559,1.89-3.17,3.598-4.716,5.383-1.312,1.419-2.183,2.752-.8,3.791,1.741,1.245,3.794,3.079,5.852,2.874,1.747-.176,3.251-1.476,4.519-2.65,7.431-6.385,12.121-22.199,2.219-27.717l-.172-.09Z"/>
  <path d="M314.039,235.248c-7.817-.23-11.983,9.492-7.333,15.105,1.033,1.152,2.694,1.709,4.087,2.314,1.387.559,1.354,1.574.531,2.536-1.746,2.441-8.013,8.232-2.862,10.082,1.589.726,3.248,1.364,4.694,1.004,11.085-4.206,16.94-29.268,1.063-31.037l-.181-.004Z"/>
  <path d="M352.319,289.788c-.043-11.851-.018-23.896.008-35.543.037-17.929.076-36.468-.132-54.715-.104-6.378-3.506-10.399-9.038-10.751l-.288-.032c-15.068-.455-30.402-.368-45.229-.284-9.674.055-19.678.112-29.529.017-.914-.007-3.803.002-5.143-1.061-1.403-.995-1.604-3.4-1.634-5.108-.019-8.591-.015-17.183-.012-25.777.004-9.225.008-18.453-.02-27.596.746-8.414-5.11-14.113-9.824-18.702-2.987-2.835-3.083-7.063-3.184-11.54-.087-3.834-.177-7.798-2.361-10.75-2.134-2.621-6.46-3.133-9.758-2.743-1.087.091-2.132.366-3.142.631-1.722.451-3.347.877-4.834.315-1.59-.679-3.233-2.361-4.823-3.987-1.502-1.536-3.055-3.125-4.724-4.095-1.755-1.079-3.653-1.785-5.489-2.469-2.729-1.015-5.306-1.975-7.292-4.077-4.252-4.072-8.444-8.374-12.499-12.533-6.006-6.162-12.217-12.534-18.788-18.335-2.711-2.343-6.526-3.284-9.956-2.458-3.133.755-5.521,2.805-6.736,5.803-2.062,5.632-1.873,11.635-1.688,17.441.088,2.785.18,5.664.014,8.517.03,1.725-.387,2.981-1.275,3.84-2.145,2.073-7.072,1.823-11.834,1.58-7.371-.374-15.73-.798-17.031,7.18-.716,9.063-.589,18.327-.467,27.287.067,4.855.136,9.876.068,14.81.022,3.541.269,7.258,1.9,10.451l.101.158c8.531,10.99,18.757,20.88,28.647,30.445,6.062,5.863,12.33,11.925,18.121,18.16,7.633,8.289,13.147,13.249,25.13,12.116.358.009.729.012,1.105.014,2.245.012,4.564.023,5.837,1.518,1.519,3.733,1.298,8.155,1.085,12.433-.126,2.527-.257,5.14-.038,7.559.107,3.632-.586,4.018-.593,4.021-.007.008-.725.205-3.005-2.265-2.09-2.097-4.187-4.204-6.283-6.312-2.546-2.561-5.092-5.121-7.577-7.606-2.593-3.015-5.922-4.457-9.142-5.852-2.571-1.113-5-2.165-7.146-4.006-16.084-11.983-41.628-17.666-56.531-6.438l-.077.064c-1.382,1.276-3.166,2.75-4.871,2.661-.955-.041-1.873-.56-2.818-1.596-14.235-15.176-38.805-16.696-55.938-3.456-8.729,6.786-14.086,16.551-15.489,28.236-1.928,16.046,3.677,34.586,14.61,48.361,9.27,12.332,20.414,23.245,31.192,33.8,5.27,5.16,10.718,10.496,15.867,15.92,12.861,13.573,27.838,26.322,45.725,38.931,2.309,1.898,5.03,2.834,7.812,2.834,3.268,0,6.617-1.292,9.476-3.831,15.074-11.101,32.158-23.683,45.304-39.792l.067-.093c3.473-5.425,9.481-5.162,15.847-4.886,1.833.08,3.729.161,5.522.09,4.504-.163,5.127,2.571,5.82,7.438.145,1.016.295,2.066.514,3.106.675,3.021,2.418,5.085,4.907,5.812,2.888.843,6.338-.282,8.972-2.902,1.281-1.156,2.554-2.409,3.784-3.621,5.569-5.488,10.83-10.669,18.805-9.938l.056.005h.055c10.102-.192,20.398-.131,30.354-.071,13.339.079,27.129.162,40.693-.361,9.507-.616,9.021-11.799,8.839-15.969ZM333.431,293.143l-14.205-.006c-16.335-.011-33.226-.021-49.833.096-2.089,0-4.584,1.029-6.352,2.618-1.921,1.701-3.738,3.557-5.494,5.351-1.826,1.865-3.714,3.793-5.69,5.515-.074.063-.163.122-.244.183-1.281.682-2.558.988-3.844.692-2.404-.81-2.922-3.635-3.424-6.367-.075-.408-.15-.806-.229-1.196,0-.902.027-1.823.062-2.772.023-.652.048-1.316.062-1.993h1.368l-3.352-3.916-.008,1.917-3.245.003c-4.345.005-8.45.011-12.535-.034-.121,0-.221-.017-.337-.021-1.218-.356-2.165-.861-2.859-1.55-1.479-1.47-2.032-3.933-2.163-7.185-.003-1.416-.004-2.839-.007-4.257.039-8.725.007-17.571-.028-26.165-.005-11.608,0-23.216.016-34.795.045-4.878.108-9.751.22-14.594.215-3.218,1.774-5.307,4.466-6.17.552-.06,1.155-.094,1.824-.097,20.687-.03,41.374-.03,62.061-.03l14.436-.007c9.63-.006,19.264-.013,28.884.007h.002c.486,0,.93.021,1.35.057.861.257,1.651.606,2.287,1.12,2.11,1.699,2.376,5.174,2.458,8.263-.073,9.073-.025,18.286.03,27.267v37.178c-.069,5.191-.178,10.377-.358,15.529l-.028.168c-.381,3.04-2.306,4.5-4.932,5.185-.119.003-.233.009-.357.009ZM241.624,295.264h.615c-.004.173-.011.339-.016.511-.189-.189-.39-.356-.599-.511ZM231.224,99.33c.148,0,.3.005.449.006,1.556.105,3.033.528,4.055,1.423,1.329,1.515,1.692,3.564,1.77,5.737.004.755.008,1.509.009,2.266-.004.216-.008.433-.013.649-.026,1.146-.053,2.331.015,3.351v.055c-.052,2.385-.043,4.787-.015,7.169-.003,1.149-.007,2.297-.007,3.446v.501l.069.051c.004.215.007.433.011.648.012.666.024,1.335.036,2.005,0,3.678-.009,7.356-.018,11.034-.061,1.943-.159,3.882-.326,5.802-.468,3.751-4.014,4.245-5.559,4.285-.28.019-.549.023-.819.028-.125.003-.249.005-.37.007-2.454-.013-4.406-.603-5.049-1.619-1.189-1.606-1.255-5.549-1.299-8.158l-.007-.4c.023-3.404.005-6.833-.016-10.195-.005-5.363,0-10.721.005-16.079.031-2.133.074-4.263.152-6.375l.022-.215c.217-2.558,1.088-4.162,2.562-4.759.865-.319,1.861-.54,2.884-.64.48-.014.966-.021,1.458-.021ZM200.213,148.105c-10.012.002-20.31.005-30.404-.016-3.536-.007-7.069-.017-10.603-.032-3.234.195-6.054-1.029-8.563-3.292-3.869-3.97-8.982-7.112-11.229-12.228-.878-2.146-1.178-4.673-1.196-7.029-.029-6.149-.089-12.562-.033-18.608.048-3.494-.08-6.955.025-10.449.181-2.041.183-4.431,1.535-6.039,3.061-3.036,7.97-1.712,11.875-2.008,3.509.045,7.112-.073,10.702.071.451.071.902.359,1.296.712.39.355.688.577.767.26.13-4.924.027-9.874.006-14.796.158-5.265-.949-16.039,5-18.339,4.256-.718,8.523,4.196,10.776,7.357,4.345,6.492,8.552,13.324,12.975,20.909,1.55,2.764,3.974,4.293,7.296,4.078,3.176-.194,6.3-.224,9.456-.07,1.896.185,3.728,1.073,4.668,2.653.916,1.642,1.019,3.691,1.058,5.555-.064,5.004-.043,10.089.026,15.059.068,5.854-.017,20.34.014,22.761-.062,2.438-.168,5.175-.328,7.646.006,2.304-.693,4.479-3.163,5.402-1.217.499-1.578.457-3.135.444-2.609-.002-6.229.003-8.704.002h-.115ZM165.095,244.992c-2.995,5.943-7.478,11.702-13.648,17.568-12.966,12.312-29.389,20.501-45.271,28.421-1.289.643-2.576,1.285-3.857,1.927-.972.201-1.954.272-2.898.124-.932-.122-1.851-.456-2.74-.917l-.046-.04c-15.769-13.633-32.074-27.73-42.33-45.934-7.238-12.835-9.036-24.604-5.497-35.984,3.591-11.576,12.445-18.877,25.605-21.114,2.408-.408,4.744-.611,7.008-.611,9.353,0,17.452,3.477,24.164,10.379.033.038.066.075.099.113.461.529.93,1.06,1.425,1.559.531.658.968,1.435,1.547,2.485.345.625.73,1.324,1.204,2.115l1.043.991.666-.738c.522-.578.921-1.046,1.248-1.432.525-.617.843-.989,1.188-1.246,10.854-8.31,26.212-9.469,38.215-2.883h0c6.182,3.39,10.937,8.281,13.893,13.954.016.03.032.06.047.09.329.635.629,1.282.912,1.936.068.157.132.314.197.472.264.639.515,1.284.735,1.938.01.029.018.058.027.087,1.501,4.513,1.943,9.359,1.162,14.238-.016.097-.038.192-.054.289-.825,4.358-2.212,8.415-4.045,12.213ZM110.829,202.759c.094.022.181.053.278.071-.049.057-.093.109-.144.169-.048-.085-.087-.157-.133-.24Z"/>
</svg>