<?xml version="1.0" encoding="UTF-8"?>
<svg id="a" data-name="Layer 1" xmlns="http://www.w3.org/2000/svg" width="400" height="400" viewBox="0 0 400 400">
  <path d="M114.227,174.904c0,11.035,30.439,27.064,78.138,27.064s78.138-16.029,78.138-27.064-30.44-27.065-78.138-27.064c-47.699,0-78.138,16.029-78.138,27.064Z" fill="none"/>
  <path d="M192.364,260.608c58.017,0,93.641-18.822,93.641-32.316,0-6.876-9.254-15.133-26.003-21.58-.997.45-2.014.894-3.062,1.324-17.387,7.146-40.321,11.082-64.575,11.082s-47.187-3.936-64.575-11.082c-1.049-.431-2.067-.875-3.066-1.326-16.748,6.447-26,14.705-26,21.581,0,13.494,35.624,32.316,93.641,32.316Z" fill="none"/>
  <path d="M309.088,279.392c0-7.675-8.89-16.062-24.145-23.061-4.817,3.239-10.537,6.205-17.117,8.837-20.295,8.119-47.094,12.59-75.463,12.59s-55.168-4.471-75.462-12.59c-6.58-2.633-12.3-5.599-17.116-8.837-15.254,6.999-24.145,15.386-24.145,23.061,0,8.791,11.663,18.518,31.198,26.021,22.709,8.722,53.083,13.524,85.525,13.524s62.817-4.803,85.526-13.524c19.536-7.503,31.199-17.23,31.198-26.021Z" fill="none"/>
  <path d="M154.095,134.171l17.631-38.599,15.6,7.126-13.129,28.743c5.925-.497,12.003-.752,18.168-.752.441,0,.882.004,1.322.007,1.664-2.467,3.189-5.138,4.505-8.059,10.75-23.858,2.124-48.762-2.809-59.632-11.422,3.548-35.872,13.663-46.562,37.388-5.76,12.787-5.677,25.34-3.56,35.724,2.865-.718,5.813-1.366,8.834-1.945Z" fill="none"/>
  <path d="M94.777,161.2c1.762.816,3.521,1.51,5.271,2.111,2.647-4.986,7.028-9.614,13.009-13.735l-23.122-10.562,7.126-15.6,30.982,14.152c-1.109-6.135-1.622-12.845-1.08-19.916-2.827-2.086-5.957-3.98-9.434-5.59-23.744-10.995-48.736-2.627-59.657,2.193,3.429,11.459,13.291,36.012,36.904,46.947Z" fill="none"/>
  <path d="M350.714,291.52c-.19-.191-.377-.382-.572-.572-.189-.191-.377-.382-.572-.572-.189-.191-.377-.382-.572-.572-.189-.191-.377-.382-.572-.572-.19-.191-.377-.382-.572-.572-.189-.191-.377-.382-.572-.572-.189-.191-.377-.382-.572-.572-.189-.191-.377-.382-.572-.572-.189-.191-.377-.382-.572-.572-.189-.191-.377-.382-.572-.572-.189-.191-.377-.382-.572-.572-.189-.191-.377-.382-.571-.572-.19-.191-.377-.382-.572-.572-.189-.191-.377-.382-.572-.572-.189-.191-.377-.382-.572-.572-.189-.191-.377-.382-.572-.572-.19-.191-.377-.382-.572-.572-.189-.191-.377-.382-.572-.572-.189-.191-.377-.382-.572-.572-.189-.191-.377-.382-.572-.572-.189-.191-.377-.382-.572-.572-.189-.191-.377-.382-.572-.572-.189-.191-.377-.382-.572-.572-.189-.191-.377-.382-.571-.572-.19-.191-.377-.382-.572-.572-.189-.191-.377-.382-.572-.572-.037-.038-.074-.075-.112-.113,2.093-3.963,3.175-8.12,3.175-12.412,0-7.634-3.407-14.84-9.881-21.282-.186-.192-.38-.381-.571-.572-.186-.192-.381-.381-.572-.572-.186-.192-.38-.381-.572-.572-.186-.192-.38-.381-.572-.572-.186-.192-.38-.381-.572-.572-.186-.192-.38-.381-.572-.572-.186-.192-.38-.381-.572-.572-.186-.192-.38-.381-.572-.572-.186-.192-.38-.381-.572-.572-.186-.192-.38-.381-.572-.572-.186-.192-.38-.381-.572-.572-.186-.192-.38-.381-.572-.572-.186-.192-.381-.381-.572-.572-.186-.192-.381-.381-.572-.572-.186-.192-.38-.381-.572-.572-.186-.192-.38-.381-.572-.572-.186-.192-.38-.381-.572-.572-.186-.192-.38-.381-.572-.572-.186-.192-.38-.381-.572-.572-.186-.192-.38-.381-.572-.572-.186-.192-.38-.381-.572-.572-.186-.192-.38-.381-.572-.572-.186-.192-.38-.381-.572-.572-.146-.15-.3-.299-.449-.449,5.228-5.623,7.973-11.883,7.973-18.511,0-7.152-3.196-13.876-9.258-19.832-.188-.191-.379-.382-.572-.572-.187-.191-.378-.382-.572-.572-.187-.191-.378-.382-.572-.572-.187-.191-.378-.382-.572-.572-.187-.191-.378-.382-.572-.572-.188-.191-.378-.382-.572-.572-.187-.191-.378-.382-.572-.572-.187-.191-.378-.382-.572-.572-.187-.191-.378-.382-.572-.572-.187-.191-.378-.382-.572-.572-.187-.191-.378-.382-.572-.572-.187-.191-.379-.382-.572-.572-.188-.191-.379-.382-.572-.572-.187-.191-.378-.382-.572-.572-.187-.191-.378-.382-.572-.572-.187-.191-.378-.382-.572-.572-.187-.191-.378-.382-.572-.572-.188-.191-.378-.382-.572-.572-.187-.191-.378-.382-.572-.572-.187-.191-.378-.382-.572-.572-.187-.191-.378-.382-.572-.572-.187-.191-.378-.382-.572-.572-.187-.191-.378-.382-.572-.572-.187-.191-.379-.382-.572-.572-.188-.191-.379-.382-.572-.572-.187-.191-.378-.382-.572-.572-.187-.191-.378-.382-.572-.572-.187-.191-.378-.382-.572-.572-.187-.191-.378-.382-.572-.572-.188-.191-.378-.382-.572-.572-.187-.191-.378-.382-.572-.572-.187-.191-.378-.382-.572-.572-.187-.191-.378-.382-.572-.572-.187-.191-.378-.382-.572-.572-.187-.191-.378-.382-.572-.572-.187-.191-.379-.382-.572-.572-.188-.191-.378-.382-.572-.572-.187-.191-.378-.382-.572-.572-.187-.191-.378-.382-.572-.572-.187-.191-.378-.382-.572-.572-.187-.191-.378-.382-.572-.572-.188-.191-.378-.382-.572-.572-.187-.191-.378-.382-.572-.572-.187-.191-.378-.382-.572-.572-.187-.191-.378-.382-.572-.572-.187-.191-.378-.382-.572-.572-.187-.191-.378-.382-.572-.572-.187-.191-.379-.382-.572-.572-.188-.191-.378-.382-.572-.572-.187-.191-.378-.382-.572-.572-.187-.191-.378-.382-.572-.572-.187-.191-.378-.382-.572-.572-.187-.191-.378-.382-.572-.572-.187-.191-.378-.382-.572-.572-.187-.191-.378-.382-.572-.572-.187-.191-.378-.382-.572-.572-.187-.191-.378-.382-.572-.572-.187-.191-.378-.382-.572-.572-.187-.191-.378-.382-.572-.572-.086-.088-.178-.174-.265-.261-5.206-5.816-13.035-10.968-23.229-15.158-.336-.138-.682-.27-1.022-.406,2.829-30.255-12.115-55.65-12.915-56.982l-3.064-5.099-.205.038-.366-.61-.205.038-.366-.61-.206.038-.366-.609-.205.038-.366-.61-.206.038-.366-.61-.205.038-.366-.609-.205.038-.366-.61-.206.038-.366-.61-.205.038-.366-.609-.206.038-.366-.61-.205.038-.366-.61-.205.038-.366-.609-.205.038-.366-.61-.205.038-.366-.61-.206.038-.366-.609-.205.038-.366-.61-.206.038-.366-.61-.205.038-.366-.609-.205.038-.366-.61-.206.038-.366-.61-.205.038-.366-.609-.206.038-.366-.61-.205.038-.366-.61-.205.038-.366-.609-.205.038-.366-.61-.205.038-.366-.609-.206.038-.366-.609-.205.038-.366-.61-.206.038-.366-.609-.205.038-.366-.609-.205.038-.366-.61-.206.038-.366-.609-.205.038-.366-.609-.206.038-.366-.61-.205.038-.366-.609-.205.038-.366-.609-.205.038-.366-.61-.205.038-.366-.609-.206.038-.366-.609-.205.038-.366-.61-.206.038-.366-.609-.205.038-.366-.609-.205.038-.366-.61-.206.038-.366-.609-.205.038-.366-.609-.206.038-.366-.61-.205.038-.366-.609-.205.038-.366-.61-.205.038-.366-.61-.205.038-.366-.609-.206.038-.366-.61-.206.038-.366-.61-.206.038-.366-.609-.205.038-.366-.61-.205.038-.366-.61-.206.038-.366-.609-.205.038-.366-.61-.206.038-.366-.61-.205.038-.366-.609-.205.038-.366-.61-.483.09-.984-1.637-5.849,1.084c-1.922.356-47.281,9.179-65.142,48.822-.944,2.096-1.768,4.184-2.483,6.258-1.898-1.098-3.878-2.141-5.964-3.108-39.456-18.269-79.518,4.761-81.204,5.75l-5.131,3.011,1.023,5.86c.259,1.482,5.269,28.732,25.539,49.541.841.909,1.708,1.809,2.605,2.694.19.191.379.382.572.572.19.191.379.382.572.572.19.191.379.382.572.572.19.191.379.382.572.572.19.191.379.382.572.572.19.191.379.382.572.572.19.191.379.382.572.572.19.191.379.382.572.572.19.191.379.382.572.572.19.191.379.382.572.572.19.191.379.382.572.572.19.191.379.382.572.572.19.191.379.382.572.572.19.191.379.382.572.572.19.191.379.382.572.572.19.191.379.382.572.572.19.191.379.382.572.572.19.191.379.382.572.572.19.191.379.382.572.572.19.191.379.382.572.572.19.191.379.382.572.572.19.191.379.382.572.572.19.191.379.382.572.572.19.191.379.382.572.572.19.191.379.382.572.572.19.191.379.382.572.572.19.191.379.382.572.572.19.191.379.382.572.572.19.191.379.382.572.572.19.191.379.382.572.572.19.191.379.382.572.572.19.191.379.382.572.572.19.191.379.382.572.572.19.191.379.382.572.572.19.191.379.382.572.572.19.191.379.382.572.572.19.191.379.382.572.572.19.191.379.382.572.572.19.191.379.382.572.572.19.191.379.382.572.572.19.191.379.382.572.572.19.191.379.382.572.572.19.191.379.382.572.572.19.191.379.382.572.572.19.191.379.382.572.572.19.191.379.382.572.572.19.191.379.382.572.572.19.191.379.382.572.572.19.191.379.382.572.572.19.191.379.382.572.572.19.191.379.382.572.572.19.191.379.382.572.572.19.191.379.382.572.572.19.191.379.382.572.572.19.191.379.382.572.572.19.191.379.382.572.572.19.191.379.382.572.572.19.191.379.382.572.572.19.191.379.382.571.572.448.451.905.899,1.367,1.344-13.705,8.31-21.085,18.627-21.085,29.87,0,5.41,1.713,10.605,5.011,15.467-18.234,9.767-28.093,22.131-28.093,35.633,0,8.301,3.726,16.173,10.831,23.275.575.627,1.167,1.251,1.794,1.866.189.191.378.382.572.572.189.191.379.382.572.572.189.191.378.381.572.572.188.191.378.382.572.572.189.191.378.382.572.572.189.191.378.381.572.572.189.191.378.382.572.572.189.191.378.382.572.572.188.191.378.381.571.572.189.191.379.382.572.572.188.191.378.382.572.572.189.191.378.381.572.572.189.191.378.382.572.572.189.191.379.382.572.572.189.191.378.381.572.572.188.191.378.382.572.572.189.191.378.382.572.572.189.191.378.381.572.572.189.191.378.382.572.572.189.191.378.382.572.572.188.191.378.381.571.572.189.191.379.382.572.572.188.191.378.382.572.572.189.191.378.381.572.572.189.191.378.382.572.572.189.191.378.382.572.572.189.191.378.382.572.572.188.191.378.382.572.572.189.191.378.382.572.572.189.191.378.382.572.572.189.191.378.382.572.572.189.191.378.382.572.572.188.191.378.382.571.572.189.191.379.382.572.572.188.191.378.382.572.572.189.191.378.382.572.572.189.191.378.382.572.572.189.191.378.381.572.572.189.191.378.382.572.572.188.191.378.382.572.572.189.191.378.381.572.572.189.191.378.382.572.572.189.191.378.382.572.572.189.191.378.381.572.572.188.191.378.382.571.572.189.191.379.382.572.572.188.191.378.381.572.572.189.191.378.382.572.572.189.191.378.382.572.572.189.191.378.381.572.572.189.191.378.382.572.572.188.191.378.381.572.572.189.191.378.382.572.572.189.191.378.382.572.572.189.191.378.381.572.572.189.191.378.382.572.572.188.191.378.382.571.572.189.191.379.381.572.572.188.191.378.382.572.572,7.152,7.248,17.805,13.706,31.613,19.009,24.623,9.457,57.18,14.664,91.674,14.664s67.051-5.208,91.674-14.664c27.213-10.452,42.2-25.379,42.2-42.032,0-8.473-3.886-16.497-11.286-23.713ZM192.364,318.938c-32.443,0-62.817-4.803-85.525-13.524-19.535-7.503-31.198-17.23-31.198-26.021,0-7.675,8.89-16.062,24.145-23.061,4.816,3.239,10.536,6.204,17.116,8.837,20.295,8.119,47.094,12.59,75.462,12.59s55.168-4.471,75.463-12.59c6.58-2.632,12.3-5.599,17.117-8.837,15.254,6.999,24.145,15.386,24.145,23.061,0,8.791-11.663,18.518-31.198,26.021-22.709,8.721-53.082,13.524-85.526,13.524ZM124.724,206.71c.999.451,2.017.894,3.066,1.326,17.388,7.146,40.321,11.082,64.575,11.082s47.188-3.936,64.575-11.082c1.048-.43,2.065-.874,3.062-1.324,16.749,6.447,26.003,14.704,26.003,21.58,0,13.494-35.624,32.316-93.641,32.316s-93.641-18.822-93.641-32.316c0-6.876,9.252-15.134,26-21.581ZM270.503,174.904c0,11.035-30.439,27.064-78.138,27.064s-78.138-16.029-78.138-27.064,30.439-27.064,78.138-27.064c47.699,0,78.138,16.029,78.138,27.064ZM148.821,100.393c10.69-23.725,35.14-33.84,46.562-37.388,4.932,10.87,13.558,35.774,2.809,59.632-1.316,2.921-2.84,5.592-4.505,8.059-.441-.003-.881-.007-1.322-.007-6.165,0-12.243.255-18.168.752l13.129-28.743-15.6-7.126-17.631,38.599c-3.021.58-5.969,1.228-8.834,1.945-2.116-10.384-2.2-22.937,3.56-35.724ZM57.873,114.253c10.921-4.819,35.913-13.187,59.657-2.193,3.477,1.61,6.607,3.503,9.434,5.59-.542,7.071-.029,13.781,1.08,19.916l-30.982-14.152-7.126,15.6,23.122,10.562c-5.981,4.121-10.362,8.749-13.009,13.735-1.75-.601-3.509-1.295-5.271-2.111-23.613-10.935-33.475-35.488-36.904-46.947Z"/>
</svg>