<?xml version="1.0" encoding="UTF-8"?>
<svg id="a" data-name="Layer 1" xmlns="http://www.w3.org/2000/svg" width="400" height="400" viewBox="0 0 400 400">
  <path d="M357.536,199.625c-1.126-5.742-5.912-10.715-10.187-15.045-10.781-10.855-21.644-21.693-32.526-32.466-16.404-17.313-25.847-21.03-49.129-23.841-13.296-2-22.284-3.047-30.457-14.008-14.29-17.262-37.95-45.049-55.123-61.806-3.458-3.349-7.496-7.447-12.274-8.086-5.855-.88-10.428,7.344-12.957,12.531-8.274,16.228-15.817,32.599-24.264,48.595-2.372,4.098-5.307,7.961-9.047,10.728-3.793,2.881-8.41,4.586-13.133,5.609-17.118,2.982-34.625,5.017-52.142,7.738-12.355,1.816-23.514,5.171-11.563,17.926,12.737,12.868,25.713,25.545,38.299,38.385,5.848,5.796,11.114,12.755,11.9,21.141.577,4.842-.101,9.951-.926,14.809-2.5,14.369-4.955,28.692-7.375,42.845-1.122,7.657-3.404,15.88.432,22.916,4.672,7.531,10.765,12.367,17.924,20.191,7.194,7.449,15.414,15.876,22.616,23.284,3.191,3.281,6.148,6.323,8.71,8.971,5.03,5.089,10.136,10.897,16.699,12.128,8.6.92,16.03-4.938,24.944-9.249,10.399-5.459,21.981-11.58,32.187-16.943,7.354-3.839,12.402-6.821,18.65-7.769,8.089-1.18,15.841,2.931,22.966,6.512,13.712,7.162,27.37,14.183,41.101,21.513,13.276,7.213,22.055,8.849,19.037-10.223-2.576-16.474-5.608-32.726-8.419-48.992-.815-4.822-1.447-9.895-.872-14.709.824-8.732,6.328-15.877,12.505-21.774,11.054-10.723,22.196-21.246,33.17-32.164,4.892-4.949,10.607-11.269,9.283-18.595l-.027-.151ZM112.226,255.167c.97-12.33,3.997-24.544,5.833-36.842,1.043-6.341,1.646-13.073-.301-19.245-1.876-6.294-6.293-11.52-10.941-16.076-7.235-7.074-14.641-14.149-21.903-21.26-10.944-10.468-9.403-15.056,6.017-17.14,12.79-2.172,25.905-3.032,38.467-6.194,11.967-3.229,18.23-13.367,23.33-24.44,3.484-7.085,6.963-14.158,10.503-21.299,3.722-7.385,9.064-18.23,16.157-5.852,4.786,8.507,9.361,18.658,13.891,27.589,3.59,7.309,7.371,14.97,14.23,19.692,6.456,4.57,14.451,5.761,22.833,6.933,8.194,1.171,16.343,2.333,24.413,3.515,4.087.7,10.098,1.339,12.651,4.421,2.78,3.3-3.466,9.781-6.596,12.764-40.093,39.01-37.562,30.981-28.032,85.939,2.809,15.603-1.588,17.784-15.346,10.337-7.123-3.725-14.088-7.398-21.214-11.159-7.866-4.168-16.121-8.784-25.186-8.02-6,.334-11.633,2.942-16.935,5.675-8.787,4.577-17.393,9.146-26.143,13.706-5.663,2.953-16.115,8.408-15.728-2.88v-.163Z"/>
</svg>