<?xml version="1.0" encoding="UTF-8"?>
<svg id="a" data-name="Layer 1" xmlns="http://www.w3.org/2000/svg" width="400" height="400" viewBox="0 0 400 400">
  <path d="M87.236,229.385c2.254,1.127,4.883,1.502,7.888,1.502,32.301,0,35.682.751,40.189-.751,12.395-4.507,20.658-19.907,26.667-48.828.751-5.258,4.132-9.014,8.263-10.517,7.136-2.629,14.648,2.629,16.151,10.517,6.01,28.546,14.648,44.696,26.667,48.828,4.507,1.502,7.136.751,40.189.751,3.005,0,5.634-.751,7.887-1.502,24.038-9.014,30.048-65.73,30.048-65.73,2.629-9.014-1.503-14.273-7.888-15.399-22.16-4.507-42.818-5.259-60.471-3.005-11.268,1.502-22.536,5.258-34.179,11.643-9.014,4.883-13.521,4.883-14.273,4.883-.376,0-5.258,0-13.897-4.883-11.644-6.385-22.911-10.141-34.179-11.643-17.653-2.254-37.936-1.502-60.471,2.629-6.761,1.127-10.892,6.385-7.887,15.4.745,1.864,5.931,11.127,5.274,24.118-.005.098-.01.197-.016.296,0,.375.375,32.677,24.038,41.691ZM277.664,152.011c4.507,0,8.263,1.878,8.263,4.131s-3.756,4.132-8.263,4.132-8.263-1.878-8.263-4.132,3.38-4.131,8.263-4.131ZM195.408,182.435c0-15.775,13.146-28.545,28.921-28.545l26.292-.376c15.024,0,27.043,12.019,27.043,27.043v11.268c0,18.029-14.648,32.677-32.677,32.677h-15.775c-18.78,0-33.804-15.024-33.804-33.804v-8.263ZM60.944,156.143c0-2.282,3.7-4.131,8.263-4.131s8.263,1.85,8.263,4.131-3.7,4.132-8.263,4.132-8.263-1.85-8.263-4.132ZM70.334,182.435c0-15.775,13.146-28.545,28.921-28.545l26.292-.376c15.024,0,27.043,12.019,27.043,27.043v11.268c0,18.029-14.648,32.677-32.677,32.677h-15.775c-18.78,0-33.804-15.024-33.804-33.804v-8.263Z" fill="none"/>
  <path d="M355.781,187.577c-.373-.419-.769-.815-1.19-1.189-.373-.419-.769-.815-1.189-1.189-.373-.419-.769-.816-1.189-1.19-.373-.419-.769-.816-1.189-1.19-.373-.419-.769-.815-1.189-1.189-.373-.419-.769-.815-1.19-1.19-.373-.419-.769-.815-1.189-1.19-.373-.419-.769-.815-1.19-1.189-.373-.419-.769-.815-1.189-1.189-.373-.419-.769-.816-1.189-1.19-.373-.419-.769-.816-1.189-1.19-.373-.419-.769-.815-1.189-1.189-.373-.419-.769-.815-1.19-1.19-.373-.419-.769-.815-1.189-1.19,0,0,0,0,0,0t0,0c-.29-.326-.595-.638-.914-.937-.015-.015-.031-.028-.047-.043-.026-.024-.055-.043-.081-.066-.431-.394-.882-.768-1.359-1.113-.011-.008-.021-.016-.032-.023-.508-.365-1.041-.703-1.599-1.011-.003-.001-.006-.003-.008-.005-.074-.041-.145-.087-.22-.127-.266-.141-.541-.269-.816-.398-.114-.053-.23-.104-.345-.155-.039-.022-.075-.046-.115-.068-.003-.001-.006-.003-.008-.005-.074-.041-.145-.087-.22-.127-.266-.141-.541-.269-.816-.398-.114-.053-.23-.104-.345-.155-.039-.022-.075-.046-.115-.068-.003-.001-.006-.003-.008-.005-.074-.041-.145-.087-.22-.127-.266-.141-.541-.269-.816-.398-.114-.053-.23-.104-.345-.155-.039-.022-.075-.046-.115-.068-.003-.001-.006-.003-.008-.005-.074-.041-.145-.087-.22-.127-.266-.141-.541-.269-.816-.398-.114-.053-.23-.104-.345-.155-.039-.022-.075-.046-.115-.068-.003-.001-.006-.003-.008-.005-.074-.041-.145-.087-.22-.127-.266-.141-.541-.269-.816-.398-.114-.053-.23-.104-.345-.155-.039-.022-.075-.046-.115-.068-.003-.001-.006-.003-.008-.005-.074-.041-.145-.087-.22-.127-.266-.141-.541-.269-.816-.398-.114-.053-.23-.104-.345-.155-.039-.022-.075-.046-.115-.068-.003-.001-.006-.003-.008-.005-.074-.041-.145-.087-.22-.127-.266-.141-.541-.269-.816-.398-.114-.053-.23-.104-.345-.155-.039-.022-.075-.046-.115-.068-.003-.001-.006-.003-.008-.005-.074-.041-.145-.087-.22-.127-.266-.141-.541-.269-.816-.398-.114-.053-.23-.104-.345-.155-.039-.022-.075-.046-.115-.068-.003-.001-.006-.003-.008-.005-.074-.041-.145-.087-.22-.127-.266-.141-.541-.269-.816-.398-.114-.053-.23-.104-.345-.155-.039-.022-.075-.046-.115-.068-.003-.001-.006-.003-.008-.005-.074-.041-.145-.087-.22-.127-.266-.141-.541-.269-.816-.398-.114-.053-.23-.104-.345-.155-.039-.022-.075-.046-.115-.068-.003-.001-.006-.003-.008-.005-.074-.041-.145-.087-.22-.127-.266-.141-.541-.269-.816-.398-.114-.053-.23-.104-.345-.155-.039-.022-.075-.046-.115-.068-.003-.001-.006-.003-.008-.005-.074-.041-.145-.087-.22-.127-.266-.141-.541-.269-.816-.398-.114-.053-.23-.104-.345-.155-.039-.022-.075-.046-.115-.068-.003-.001-.006-.003-.008-.005-.074-.041-.145-.087-.22-.127-.266-.141-.541-.269-.816-.398-.114-.053-.23-.104-.345-.155-.039-.022-.075-.046-.115-.068-.003-.001-.006-.003-.008-.005-.074-.041-.145-.087-.22-.127-.266-.141-.541-.269-.816-.398-.114-.053-.23-.104-.345-.155-.039-.022-.075-.046-.115-.068-.003-.001-.006-.003-.008-.005-.074-.041-.145-.087-.22-.127-.266-.141-.541-.269-.816-.398-.114-.053-.23-.104-.345-.155-.039-.022-.075-.046-.115-.068-.003-.001-.006-.003-.008-.005-.074-.041-.145-.087-.22-.127-.266-.141-.541-.269-.816-.398-.114-.053-.23-.104-.345-.155-.039-.022-.075-.046-.115-.068-.003-.001-.006-.003-.008-.005-.074-.041-.145-.087-.22-.127-.266-.141-.541-.269-.816-.398-.114-.053-.23-.104-.345-.155-.039-.022-.075-.046-.115-.068-.003-.001-.006-.003-.008-.005-.074-.041-.145-.087-.22-.127-.266-.141-.541-.269-.816-.398-.114-.053-.23-.104-.345-.155-.039-.022-.075-.046-.115-.068-.003-.001-.006-.003-.008-.005-.074-.041-.145-.087-.22-.127-.266-.141-.541-.269-.816-.398-.114-.053-.23-.104-.345-.155-.039-.022-.075-.046-.115-.068-.003-.001-.006-.003-.008-.005-.074-.041-.145-.087-.22-.127-.266-.141-.541-.269-.816-.398-.114-.053-.23-.104-.345-.155-.039-.022-.075-.046-.115-.068-.003-.001-.006-.003-.008-.005-.074-.041-.145-.087-.22-.127-.266-.141-.541-.269-.816-.398-.114-.053-.23-.104-.345-.155-.039-.022-.075-.046-.115-.068-.003-.001-.006-.003-.008-.005-.074-.041-.145-.087-.22-.127-.266-.141-.541-.269-.816-.398-.114-.053-.23-.104-.345-.155-.039-.022-.075-.046-.115-.068-.003-.001-.006-.003-.008-.005-.074-.041-.145-.087-.22-.127-.266-.141-.541-.269-.816-.398-.114-.053-.23-.104-.345-.155-.039-.022-.075-.046-.115-.068-.003-.001-.006-.003-.008-.005-.074-.041-.145-.087-.22-.127-.266-.141-.541-.269-.816-.398-.114-.053-.23-.104-.345-.155-.039-.022-.075-.046-.115-.068-.003-.001-.006-.003-.008-.005-.074-.041-.145-.087-.22-.127-.266-.141-.541-.269-.816-.398-.114-.053-.23-.104-.345-.155-.039-.022-.075-.046-.115-.068-.003-.001-.006-.003-.008-.005-.074-.041-.145-.087-.22-.127-.266-.141-.541-.269-.816-.398-.114-.053-.23-.104-.345-.155-.039-.022-.075-.046-.115-.068-.003-.001-.006-.003-.008-.005-.074-.041-.145-.087-.22-.127-.266-.141-.541-.269-.816-.398-.114-.053-.23-.104-.345-.155-.039-.022-.075-.046-.115-.068-.003-.001-.006-.003-.008-.005-.074-.041-.145-.087-.22-.127-.266-.141-.541-.269-.816-.398-.114-.053-.23-.104-.345-.155-.039-.022-.075-.046-.115-.068-.003-.001-.006-.003-.008-.005-.061-.034-.12-.07-.18-.104.16.164.328.321.481.492h0s0,0,0,0c3.571,4.011,4.908,10.046,2.423,17.727,0,.751-5.634,9.765-4.883,22.16,0,1.503-.375,36.433-27.794,46.95-3.005,1.127-6.385,1.878-10.141,1.878-32.677-.376-36.433.751-42.067-1.127-3.563-1.348-6.854-3.443-9.886-6.331-.389-.37-.773-.754-1.153-1.15,0,0,0,0,0,0-.029-.03-.057-.06-.085-.09-.002-.003-.005-.005-.007-.008-.348-.366-.694-.743-1.035-1.131-.012-.014-.024-.028-.037-.042-.031-.036-.062-.072-.093-.107,0,0,0-.001-.001-.002-.329-.378-.656-.767-.979-1.167-.016-.02-.033-.041-.049-.061-.032-.04-.063-.079-.095-.119,0-.001-.002-.003-.003-.004-.317-.396-.63-.803-.94-1.22-.002-.002-.003-.004-.005-.006-.046-.063-.093-.126-.139-.188-.001-.002-.003-.004-.004-.006-.315-.427-.626-.865-.933-1.315-.039-.057-.078-.113-.117-.17-.319-.47-.635-.951-.947-1.444,0-.001-.002-.003-.003-.004-.024-.038-.049-.076-.073-.114-.001-.002-.002-.003-.003-.005-.33-.525-.657-1.062-.979-1.613-.002-.003-.004-.006-.006-.01-.003-.006-.007-.012-.011-.018-.001-.002-.002-.004-.003-.006-1.128-1.932-2.209-4.029-3.242-6.294-.011-.025-.022-.05-.033-.074-.331-.726-.656-1.469-.977-2.23-.015-.036-.031-.072-.046-.109-1.335-3.175-2.588-6.654-3.762-10.447-1.615-5.222-3.082-11.03-4.401-17.473-.751-3.005-2.629-5.634-4.883-6.385-4.132-1.127-7.888,1.878-8.639,6.385-6.385,31.174-15.775,48.076-30.048,52.959-5.634,1.878-9.014,1.127-42.067,1.127-3.756,0-7.136-.751-10.141-1.878-5.106-1.932-9.266-4.692-12.668-7.913-.342-.324-.667-.657-.994-.99-.002-.002-.004-.004-.006-.006-.167-.17-.337-.339-.501-.511-.001-.001-.002-.003-.004-.004-.311-.329-.611-.662-.908-.999,0,0-.001-.001-.002-.002-.159-.181-.317-.362-.473-.545,0,0-.002-.002-.002-.003-.294-.345-.583-.692-.863-1.044-.001-.001-.002-.003-.003-.004-.07-.088-.137-.177-.205-.266-.056-.074-.114-.147-.17-.22-.497-.645-.972-1.3-1.426-1.962-.005-.007-.01-.015-.015-.022-.453-.662-.885-1.331-1.295-2.007-.001-.002-.003-.004-.004-.006-.054-.089-.111-.177-.164-.265,0-.001-.001-.002-.002-.003-.113-.188-.217-.379-.326-.568.03.055.057.111.087.166,0,0,0,0,0,.001.083.153.169.306.254.459.001.002.003.005.004.007.231.415.465.828.711,1.239,0,0,.001.002.002.003.053.089.11.177.164.265.001.002.003.004.004.006.411.676.842,1.345,1.295,2.007.005.008.01.015.015.022.454.662.929,1.317,1.426,1.962,0,0,.001.001.002.002.124.161.247.324.374.484.001.001.002.003.003.004.28.352.569.699.863,1.044,0,0,.002.002.002.003.156.183.313.364.473.545,0,0,.001.001.002.002.297.336.597.67.908.998.001.001.003.003.004.004.163.173.333.341.5.511.002.002.004.004.006.006.326.333.652.666.994.99,0,0,.002.002.003.003.388.401.779.8,1.189,1.188.388.401.779.801,1.189,1.19.389.401.779.801,1.189,1.189.389.401.779.801,1.19,1.19.388.401.779.801,1.189,1.19.388.401.779.801,1.189,1.189.388.401.779.801,1.19,1.189.388.401.779.801,1.189,1.19.388.401.779.801,1.189,1.19.389.401.779.801,1.189,1.189.389.401.779.801,1.189,1.19.389.401.779.801,1.19,1.19.388.401.779.801,1.189,1.189.388.401.779.801,1.19,1.189,2.955,3.054,6.539,5.747,10.877,7.814.49.261.994.509,1.504.752.49.261.994.509,1.504.752.49.261.994.509,1.504.752.49.261.994.509,1.504.752.49.261.994.509,1.504.752.49.261.994.509,1.504.752.49.261.994.509,1.504.752.49.261.994.509,1.504.752.49.261.994.509,1.504.752.49.261.994.509,1.504.752.49.261.994.509,1.504.752.49.261.994.509,1.504.752.49.261.994.509,1.504.752.49.261.994.509,1.504.752.49.261.994.509,1.504.752.49.261.994.509,1.504.752.49.261.994.509,1.504.752.49.261.994.509,1.504.752.49.261.994.509,1.504.752.49.261.994.509,1.504.752.49.261.994.509,1.504.752.49.261.994.509,1.504.752.49.261.994.509,1.504.752.49.261.994.509,1.504.752.49.261.994.509,1.504.752.49.261.994.509,1.504.752.49.261.994.509,1.504.752.49.261.994.509,1.504.752.49.261.994.509,1.504.752,1.409.75,2.896,1.438,4.483,2.038,3.005,1.127,6.385,1.878,10.141,1.878,33.053,0,36.433.751,42.067-1.127,9.379-3.209,16.649-11.608,22.344-25.835,1.404.982,2.857,1.82,4.361,2.515.496.267.997.518,1.504.752.496.267.997.518,1.504.752.496.267.997.518,1.504.752.496.267.997.518,1.504.752.496.267.997.518,1.504.752.496.267.997.518,1.504.752.496.267.997.518,1.504.752.496.267.997.518,1.504.752.496.267.997.518,1.504.752.496.267.997.518,1.504.752.496.267.997.518,1.504.752.496.267.997.518,1.504.752.496.267.997.518,1.504.752.496.267.997.518,1.504.752.496.267.997.518,1.504.752.496.267.997.518,1.504.752.496.267.997.518,1.504.752.496.267.997.518,1.504.752.496.267.997.518,1.504.752.496.267.997.518,1.504.752.496.267.997.518,1.504.752.496.267.997.518,1.504.752.496.267.997.518,1.504.752.496.267.997.518,1.504.752.496.267.997.518,1.504.752.496.267.997.518,1.504.752.496.267.997.518,1.504.752.496.267.997.518,1.504.752.496.267.997.518,1.504.752,1.071.576,2.166,1.084,3.291,1.51,5.634,1.878,9.39.751,42.067,1.127,3.756,0,7.136-.751,10.141-1.878,27.418-10.517,27.794-45.447,27.794-46.95-.751-12.395,4.883-21.409,4.883-22.16,2.744-8.483.833-14.961-3.612-18.916Z"/>
  <path d="M57.216,188.314c.003.097.008.206.013.312,0,.004,0,.008,0,.012-.005-.113-.01-.23-.014-.332,0,.003,0,.005,0,.008Z"/>
  <path d="M57.19,187.283c0,.064.002.128.003.207,0,.002,0,.004,0,.007-.001-.087-.003-.167-.003-.235,0,.008,0,.014,0,.022Z"/>
  <path d="M57.407,191.328c.011.128.023.256.035.389,0,.005,0,.009.001.014-.013-.143-.026-.283-.038-.42,0,.006,0,.012.001.017Z"/>
  <path d="M57.514,192.438c.004.036.008.073.012.11-.004-.039-.009-.08-.013-.119,0,.003,0,.006,0,.009Z"/>
  <path d="M57.205,187.989s0,.01,0,.015c-.003-.087-.005-.171-.007-.25.002.074.004.151.006.234Z"/>
  <path d="M57.327,190.328c.009.122.017.241.027.369,0,.003,0,.007,0,.01-.01-.134-.019-.26-.028-.388,0,.003,0,.005,0,.008Z"/>
  <path d="M166.019,153.3c4.666,2.159,7.284,2.43,7.852,2.462-.587-.036-3.209-.315-7.852-2.462Z"/>
  <path d="M53.924,147.966c-.072.094-.131.199-.2.295.115-.157.229-.315.349-.467-.047.059-.103.112-.149.172Z"/>
  <path d="M69.229,141.047s-.005,0-.007.001c.012-.002.023-.003.034-.005-.009.001-.018.003-.027.004Z"/>
  <path d="M199.683,227.071c.028.03.056.061.085.09,0,0,0,0,0,0-.031-.033-.062-.066-.093-.099.002.003.005.005.007.008Z"/>
  <path d="M70.814,224.472c.163.173.333.341.501.511.002.002.004.004.006.006-.17-.174-.344-.345-.51-.521.001.001.002.003.004.004Z"/>
  <path d="M57.65,193.65c.003.021.006.042.008.063,0,.002,0,.005,0,.007-.003-.024-.006-.049-.009-.073,0,.001,0,.002,0,.003Z"/>
  <path d="M69.428,222.923c.156.183.313.364.473.545,0,0,.001.001.002.002-.161-.182-.32-.365-.477-.55,0,0,.001.002.002.003Z"/>
  <path d="M68.559,221.872s.002.003.003.004c-.071-.089-.14-.18-.209-.27.068.089.136.178.205.266Z"/>
  <path d="M198.512,225.783c.031.035.062.071.093.107-.031-.036-.063-.073-.094-.109,0,0,0,.001.001.002Z"/>
  <path d="M197.387,224.434c.032.04.063.079.095.119l-.098-.123s.002.003.003.004Z"/>
  <path d="M194.223,219.963c.024.039.049.076.073.114,0,.001.002.003.003.004-.026-.042-.053-.082-.079-.124.001.001.002.003.003.005Z"/>
  <path d="M196.3,223.016c.046.063.093.125.139.188.002.002.003.004.005.006-.049-.067-.099-.133-.148-.2.001.002.003.004.004.006Z"/>
  <path d="M193.225,218.317c.003.006.007.012.011.018.002.003.004.006.006.01-.006-.011-.013-.022-.02-.033.001.002.002.004.003.006Z"/>
  <path d="M59.824,204.341c.028.095.054.189.082.284,0,.001.001.003.001.005-.029-.1-.057-.199-.086-.299.001.003.002.006.003.01Z"/>
  <path d="M58.502,198.92s.002.008.002.011c-.019-.096-.038-.191-.057-.286.018.091.036.183.055.274Z"/>
  <path d="M58.741,200.072c.004.018.008.037.013.056-.005-.021-.01-.041-.014-.061,0,.002,0,.004.001.006Z"/>
  <path d="M65.279,217.122c.053.089.11.177.164.265.001.002.003.004.004.006-.056-.092-.115-.183-.17-.275,0,0,.001.002.002.003Z"/>
  <path d="M57.971,195.947c.007.043.012.085.019.128,0,.001,0,.002,0,.003-.008-.047-.014-.092-.021-.139,0,.003,0,.005.001.008Z"/>
  <path d="M63.441,213.739c.073.147.145.294.219.44,0,0,.001.002.002.003-.076-.15-.15-.301-.224-.451.001.003.002.005.004.008Z"/>
  <path d="M64.308,215.414c.083.153.169.306.254.459.001.002.003.005.004.007-.087-.156-.174-.311-.259-.467,0,0,0,0,0,.001Z"/>
  <path d="M60.421,206.287s.002.005.003.007c-.039-.119-.077-.239-.115-.358.037.117.074.233.112.35Z"/>
  <path d="M62.757,212.308c.021.046.04.091.061.137-.022-.049-.043-.097-.065-.146.001.003.002.006.004.009Z"/>
  <path d="M60.97,207.893s.001.003.002.004c-.04-.111-.081-.223-.12-.334.038.11.079.22.118.33Z"/>
  <path d="M57.188,186.933s0,.006,0,.009c0,.012,0,.039,0,.062,0-.024,0-.048,0-.062,0-.003,0-.006,0-.009Z"/>
  <path d="M57.189,187.132s0,.005,0,.007c0-.029,0-.054,0-.08,0,.022,0,.041,0,.073Z"/>
  <path d="M52.546,165.318c.032.065.078.157.115.233-.048-.097-.089-.18-.128-.258.005.01.007.015.012.026Z"/>
  <path d="M51.957,163.746c.106.342.221.687.348,1.035,0,0,0,.002,0,.002,0,0,0-.001,0-.002-.127-.349-.242-.694-.348-1.035Z"/>
  <path d="M51.956,163.744c-.106-.343-.204-.682-.296-1.019.092.337.19.677.296,1.019Z"/>
  <path d="M50.908,156.431c-.028.586-.037,1.18-.004,1.794.032.611.106,1.241.201,1.879-.19-1.278-.252-2.504-.196-3.673Z"/>
  <path d="M64.391,215.484c-.074-.147-.146-.293-.219-.44-.001-.003-.002-.005-.004-.008-.212-.429-.421-.857-.618-1.287h0c-.021-.046-.04-.091-.061-.137-.001-.003-.003-.006-.004-.009-.331-.724-.64-1.448-.933-2.17-.011-.028-.022-.055-.033-.083-.289-.718-.562-1.435-.816-2.148,0-.001-.001-.003-.002-.004-.039-.109-.08-.219-.118-.328,0-.002-.002-.005-.003-.007-.148-.423-.289-.844-.426-1.264,0-.002-.001-.005-.002-.007-.044-.134-.086-.268-.129-.402,0-.001,0-.003-.001-.004-.133-.42-.263-.837-.384-1.251,0-.002,0-.003-.001-.005-.028-.095-.054-.189-.082-.284,0-.003-.002-.006-.003-.01-.199-.69-.383-1.37-.554-2.04-.005-.019-.01-.037-.014-.055-.17-.67-.327-1.33-.469-1.976,0-.002-.001-.005-.002-.008-.013-.06-.028-.121-.041-.181,0-.002,0-.004-.001-.006-.084-.384-.161-.76-.236-1.134l-.002-.011c-.025-.126-.051-.251-.075-.376,0-.003-.001-.007-.002-.01-.069-.353-.134-.7-.195-1.043,0-.002,0-.004-.001-.006-.023-.128-.044-.253-.066-.379,0-.003,0-.005-.001-.007-.06-.345-.118-.688-.171-1.021,0-.001,0-.002,0-.003-.007-.043-.013-.085-.019-.128,0-.003,0-.005-.001-.008-.121-.777-.224-1.519-.31-2.219,0-.002,0-.005,0-.007-.003-.021-.006-.042-.008-.063,0-.001,0-.002,0-.003-.035-.282-.064-.55-.094-.818,0-.005-.001-.01-.002-.014-.014-.126-.028-.254-.041-.376,0-.003,0-.006,0-.009-.025-.24-.048-.471-.069-.698,0-.005-.001-.009-.001-.014-.012-.133-.024-.261-.035-.389,0-.006,0-.011-.001-.017-.018-.206-.036-.409-.051-.603,0-.003,0-.007,0-.01-.01-.128-.018-.247-.027-.369,0-.003,0-.005,0-.008-.023-.317-.042-.615-.058-.892,0-.012-.001-.023-.002-.035-.015-.271-.028-.524-.038-.754,0-.004,0-.008,0-.012-.005-.106-.009-.215-.013-.312,0-.003,0-.005,0-.008-.004-.109-.007-.205-.01-.302,0-.005,0-.01,0-.015-.003-.092-.005-.177-.007-.258,0-.005,0-.008,0-.013-.002-.08-.003-.153-.005-.221v-.007c-.001-.079-.002-.143-.003-.206,0-.008,0-.014,0-.022,0-.044-.001-.087-.001-.122,0-.002,0-.005,0-.007,0-.046,0-.071,0-.104,0-.026,0-.069,0-.086,0-.003,0-.006,0-.009.041-.705.057-1.395.061-2.076.001-.232-.001-.461-.004-.689-.005-.452-.018-.897-.037-1.338-.011-.252-.02-.505-.035-.753-.036-.581-.083-1.153-.141-1.712-.096-.917-.223-1.797-.368-2.65-.02-.116-.042-.226-.062-.341-.131-.731-.276-1.436-.433-2.114-.026-.11-.05-.221-.076-.329-.169-.701-.35-1.358-.536-1.996-.053-.183-.106-.358-.161-.536-.155-.509-.312-.995-.472-1.458-.036-.104-.072-.216-.108-.318-.169-.478-.337-.935-.504-1.361-.003-.008-.007-.017-.01-.025-.16-.409-.315-.782-.467-1.139-.037-.086-.073-.172-.109-.255-.109-.253-.214-.491-.315-.715-.003-.006-.006-.012-.008-.019-.119-.263-.234-.512-.34-.732-.081-.172-.158-.332-.229-.475-.064-.131-.12-.243-.174-.351-.038-.076-.083-.168-.115-.233-.006-.011-.007-.015-.012-.026-.053-.107-.092-.188-.127-.262-.015-.032-.031-.066-.043-.092-.034-.076-.057-.132-.057-.154,0,0,0-.001,0-.002-.254-.699-.461-1.382-.645-2.057-.054-.199-.1-.394-.148-.591-.121-.494-.225-.982-.309-1.462-.034-.19-.07-.38-.098-.568-.095-.638-.169-1.267-.201-1.879-.032-.614-.024-1.208.004-1.794.008-.173.024-.342.038-.512.033-.427.082-.846.147-1.257.026-.163.049-.328.079-.489.207-1.091.522-2.121.936-3.088.061-.143.129-.282.194-.422.164-.351.341-.694.53-1.028.075-.132.149-.267.228-.397.207-.338.432-.661.665-.979.069-.096.128-.201.2-.295.046-.06.102-.112.149-.172.299-.376.623-.731.957-1.077.12-.124.244-.244.369-.364.215-.208.439-.407.667-.604.166-.142.328-.287.5-.423.137-.109.285-.206.426-.311.461-.337.939-.656,1.439-.947.077-.045.153-.09.23-.134.182-.103.354-.218.541-.315.522-.269,1.061-.514,1.617-.734.366-.145.748-.262,1.126-.385.335-.109.671-.212,1.015-.303.449-.12.899-.238,1.363-.327,1.647-.292,3.277-.563,4.898-.822.002,0,.005,0,.007-.001.009-.001.018-.003.027-.004,1.601-.255,3.188-.491,4.764-.714.288-.041.575-.079.862-.119,1.313-.181,2.617-.351,3.913-.509.351-.043.702-.085,1.051-.127,1.271-.15,2.533-.289,3.788-.417.31-.032.621-.066.929-.096,1.528-.15,3.047-.288,4.55-.406.191-.015.383-.03.574-.045,1.756-.134,3.49-.238,5.214-.329.387-.02.774-.04,1.16-.058,1.726-.081,3.44-.147,5.132-.185,1.704-.037,3.385-.044,5.055-.038.419.001.837.005,1.254.009,1.661.017,3.312.048,4.94.109,1.55.057,3.079.142,4.6.238.223.014.445.031.668.046,1.237.082,2.463.18,3.681.288.346.031.693.06,1.037.093,1.427.136,2.845.284,4.246.456,1.455.188,2.922.417,4.399.687,4.43.81,8.946,1.99,13.489,3.539,1.514.516,3.031,1.074,4.549,1.673,3.444,1.358,6.892,2.93,10.318,4.711.501.251,1.004.492,1.504.752.501.251,1.004.492,1.504.752.501.251,1.004.492,1.504.752.501.251,1.004.492,1.504.752.501.251,1.004.492,1.504.752.42.211.842.411,1.262.628,3.28,1.292,5.173,1.493,5.66,1.523.008,0,.006,0,.013,0,.069.003.115.005.115.005,0,0,.028,0,.07-.002.006,0,.008,0,.016,0,.049-.003.123-.008.215-.016.054-.005.12-.013.19-.021.057-.007.113-.014.18-.023.089-.012.182-.026.29-.044.074-.012.156-.027.238-.042.121-.021,1.802-.425,2.002-.483.141-.041.29-.088.44-.135.225-.07.462-.148.708-.233.144-.049.285-.097.436-.151.281-.101.584-.218.89-.337.164-.064.318-.121.489-.19.487-.198.997-.415,1.54-.662.099-.045.202-.094.304-.141.382-.177.777-.367,1.186-.57.144-.072.286-.141.434-.216.516-.262,1.046-.539,1.603-.845.013-.007.024-.013.037-.02,3.005-1.69,6.01-3.216,9.014-4.577,3.005-1.361,6.01-2.559,9.015-3.592,3.005-1.033,6.009-1.902,9.014-2.606,3.005-.704,6.01-1.244,9.015-1.62,1.229-.15,2.472-.284,3.725-.404.397-.038.8-.068,1.199-.103.861-.076,1.723-.15,2.594-.211.486-.035.978-.062,1.467-.092.796-.049,1.593-.096,2.397-.134.525-.025,3.156-.119,3.949-.138.54-.013,1.082-.023,1.625-.031.799-.012,3.491-.02,4.035-.016.84.006,3.564.056,4.082.071.947.027,1.903.064,2.861.105.426.018.848.031,1.276.051,1.393.067,2.794.146,4.207.242.22.015.447.04.667.055,1.902.136,3.82.293,5.757.478.307.03.613.056.921.087,2.062.205,7.03.802,7.422.853,2.106.272,7.023,1,7.349,1.051,2.254.353,4.522.728,6.814,1.141v-.375.375s3.506.648,3.69.723c.052.021.105.04.156.061.032.014.063.029.095.043.195.084.387.17.577.259.275.128.55.256.816.398.075.04.146.085.22.127.003.002.006.003.008.005.039.021.076.046.115.068.115.051.231.102.345.155.275.128.55.256.816.398.075.04.146.085.22.127.003.002.006.003.008.005.039.021.076.046.115.068.115.051.231.102.345.155.275.128.55.256.816.398.014.007.027.015.04.023-.145-.148-.282-.303-.434-.445-.015-.015-.031-.028-.047-.043-.026-.024-.056-.043-.081-.066-.431-.394-.882-.768-1.359-1.113-.01-.008-.021-.016-.032-.023-.508-.365-1.041-.703-1.599-1.011-.003-.001-.006-.003-.009-.005-.074-.041-.145-.087-.22-.127-.266-.141-.541-.27-.816-.398-.19-.089-.383-.175-.577-.259-.032-.014-.063-.029-.096-.043-.051-.021-.105-.04-.156-.061-.184-.075-3.69-.723-3.69-.723-2.292-.413-4.56-.788-6.814-1.141-.326-.051-5.243-.779-7.349-1.051-.392-.05-5.359-.648-7.422-.853-.308-.031-.614-.057-.921-.086-1.937-.185-3.854-.342-5.757-.478-.221-.016-.447-.041-.667-.055-1.413-.096-2.814-.175-4.207-.242-.428-.021-.85-.033-1.276-.051-.957-.04-1.913-.078-2.861-.105-.519-.015-3.242-.065-4.082-.071-.544-.004-3.236.005-4.036.016-.544.008-1.085.019-1.625.031-.794.019-3.425.114-3.949.138-.804.038-1.602.084-2.397.134-.49.03-.981.057-1.467.092-.871.062-1.734.135-2.595.211-.399.035-.802.065-1.199.103-1.253.12-2.495.254-3.725.404-3.005.375-6.01.915-9.014,1.62-3.005.704-6.01,1.573-9.014,2.606-3.005,1.033-6.01,2.23-9.014,3.592-3.005,1.362-6.01,2.888-9.015,4.577-.013.007-.024.013-.037.02-.557.306-1.087.583-1.603.845-.147.075-.289.145-.434.216-.409.203-.804.393-1.186.57-.101.047-.204.096-.304.141-.543.247-1.053.463-1.54.662-.171.07-.325.126-.489.19-.306.119-.609.237-.89.337-.152.054-.292.102-.436.151-.247.084-.483.162-.708.233-.151.047-.299.094-.44.135-.2.058-1.88.462-2.001.483-.082.015-.164.03-.238.042-.108.017-.201.032-.29.044-.067.009-.123.016-.18.023-.07.008-.136.016-.19.021-.093.008-.166.013-.215.016-.008,0-.01,0-.016,0-.042.002-.07.002-.07.002,0,0-.044,0-.115-.005-.007,0-.006,0-.013,0-.568-.032-3.186-.303-7.852-2.462-.009-.004-.017-.008-.026-.012-.452-.209-.922-.436-1.412-.683-.072-.036-.142-.071-.216-.107-.512-.26-1.038-.536-1.591-.839-.015-.008-.029-.015-.044-.024-4.507-2.535-9.067-4.701-13.621-6.496-1.518-.599-3.035-1.156-4.549-1.672-4.542-1.549-9.058-2.729-13.489-3.539-1.477-.27-2.944-.499-4.399-.687-1.401-.172-2.818-.32-4.246-.456-.344-.033-.691-.062-1.037-.093-1.218-.108-2.444-.206-3.681-.288-.223-.015-.445-.032-.668-.046-1.521-.096-3.05-.181-4.6-.238-1.628-.061-3.279-.092-4.94-.109-.417-.004-.835-.007-1.254-.009-1.67-.007-3.351,0-5.055.038-1.692.037-3.406.103-5.132.185-.386.018-.772.038-1.16.058-1.723.091-3.458.195-5.214.329-.191.015-.382.03-.574.045-1.503.118-3.022.256-4.55.406-.308.03-.62.064-.929.096-1.254.128-2.516.267-3.788.417-.35.041-.7.084-1.051.127-1.295.159-2.6.328-3.913.509-.288.04-.574.078-.862.119-1.576.222-3.162.459-4.764.714-.011.002-.023.003-.034.005-1.621.259-3.251.53-4.897.822-.464.089-.914.208-1.363.327-.344.091-.681.194-1.015.303-.379.123-.761.24-1.126.385-.555.22-1.095.465-1.617.734-.187.096-.359.212-.541.315-.077.044-.154.089-.23.134-.5.291-.978.61-1.439.947-.141.105-.289.202-.426.311-.172.135-.334.281-.5.423-.228.196-.452.395-.667.603-.124.12-.249.24-.369.364-.334.346-.658.701-.957,1.077-.121.152-.234.31-.349.467-.23.319-.458.641-.664.978-.079.13-.153.264-.228.397-.19.333-.366.676-.53,1.027-.065.14-.133.279-.194.422-.414.967-.729,1.998-.936,3.089-.03.161-.054.326-.079.489-.065.411-.113.83-.147,1.257-.013.17-.029.339-.037.512-.056,1.169.006,2.394.196,3.673.028.188.065.378.098.568.085.48.188.968.31,1.462.048.196.093.392.148.59.092.337.19.677.296,1.019,0,0,0,.001,0,.002.106.342.221.687.348,1.035,0,0,0,.002,0,.002,0,.022.023.078.057.155.012.026.028.06.043.092.035.074.074.155.127.263.039.079.08.162.128.258.054.109.11.22.174.351.07.144.147.304.229.475.105.22.22.47.34.732.003.006.006.012.008.019.101.223.206.462.315.715.036.083.072.169.109.255.151.357.306.73.467,1.139.003.008.007.017.01.025.167.425.335.883.504,1.361.036.102.071.214.107.318.16.463.317.95.472,1.458.054.178.107.353.16.536.186.638.367,1.296.536,1.996.026.108.05.219.076.329.158.679.302,1.383.433,2.114.02.115.043.225.063.341.145.853.272,1.733.368,2.65.058.559.105,1.131.141,1.712.016.248.024.501.035.753.02.44.032.886.037,1.338.003.229.006.458.004.689-.004.681-.02,1.371-.061,2.076,0,.003,0,.006,0,.009,0,.015,0,.039,0,.062,0,.017,0,.035,0,.055,0,.026,0,.051,0,.08,0,.036,0,.078.001.122,0,.068.002.148.003.235.001.069.003.141.004.221,0,.005,0,.008,0,.013,0,.008,0,.017,0,.024.002.079.004.162.007.25.003.097.006.193.01.302.004.102.009.22.014.332.01.231.022.483.038.754,0,.012.001.023.002.035.016.277.035.575.058.892.009.128.018.254.028.388.015.194.033.397.051.603.012.138.025.278.038.42.021.227.044.458.069.698.004.039.009.079.013.119.01.089.019.177.029.267,0,.005.001.01.001.014.029.268.059.536.094.818.003.024.007.049.009.073.086.7.19,1.443.31,2.219.007.047.014.092.021.139.053.333.111.676.171,1.021,0,.003,0,.005.001.007.022.126.043.251.066.379,0,.002,0,.004.001.006.061.343.127.69.195,1.043,0,.003.001.007.002.01.007.034.013.068.02.101.019.095.038.19.057.286.075.374.152.75.236,1.134.004.02.009.041.014.061.009.042.019.084.028.125,0,.003.001.005.002.008.143.647.299,1.306.469,1.976.005.018.009.037.014.055.171.67.355,1.35.554,2.04.029.1.056.199.086.299.122.414.252.832.384,1.251,0,.001,0,.003.001.004l.017.051c.038.119.076.238.115.358.136.42.277.84.425,1.264,0,.002.001.004.002.006.039.111.08.223.12.334.254.713.527,1.43.816,2.149.011.028.022.055.033.083.292.722.602,1.446.933,2.17.022.049.043.097.065.146.198.43.407.858.618,1.287.074.15.148.301.224.451.209.412.424.821.646,1.231.085.156.172.312.259.467.125.225.257.448.385.671-.191-.354-.378-.708-.559-1.064,0-.001-.001-.002-.002-.003Z"/>
  <path d="M57.526,192.548c.01.093.02.187.031.281,0-.005-.001-.01-.001-.014-.01-.09-.02-.178-.029-.267Z"/>
  <path d="M57.198,187.718c0,.011,0,.025.001.037,0-.008,0-.017,0-.024,0-.005,0-.008,0-.013Z"/>
  <path d="M58.425,198.535c.007.037.015.074.022.111-.007-.034-.014-.068-.02-.101,0-.003-.001-.007-.002-.01Z"/>
  <path d="M58.754,200.127c.01.044.02.089.03.133,0-.002-.001-.005-.002-.008-.009-.041-.019-.084-.028-.125Z"/>
  <path d="M58.163,197.106s0-.005-.001-.007c.023.131.045.26.068.393,0-.002,0-.004-.001-.006-.023-.128-.044-.253-.066-.379Z"/>
  <path d="M51.957,163.746s0-.001,0-.002c0,0,0,.001,0,.002Z"/>
  <path d="M65.447,217.394c.411.676.842,1.345,1.295,2.007.005.008.01.015.015.022.454.662.929,1.317,1.426,1.962,0,0,.001.001.002.002.056.073.113.145.169.218.069.09.138.181.209.27.28.352.569.699.863,1.044.157.185.316.367.477.55.297.336.597.67.908.999.166.176.339.347.51.521.326.333.652.666.994.99,3.402,3.221,7.563,5.981,12.668,7.913,3.005,1.127,6.385,1.878,10.141,1.878,33.053,0,36.433.751,42.067-1.127,14.273-4.883,23.663-21.785,30.048-52.959.751-4.507,4.507-7.512,8.639-6.385,2.254.751,4.132,3.38,4.883,6.385,1.32,6.444,2.786,12.252,4.401,17.473,1.173,3.793,2.427,7.272,3.762,10.447.015.037.031.073.046.109.321.761.646,1.504.977,2.23.011.024.022.049.033.074,1.034,2.265,2.114,4.362,3.242,6.294.006.011.013.022.02.033.322.551.649,1.089.979,1.613.026.041.053.082.079.124.312.493.628.975.947,1.444.039.057.078.113.117.17.308.449.619.887.933,1.315.049.067.099.133.148.2.31.417.624.824.94,1.22l.098.123c.016.02.031.039.047.059,0,0,.001.001.002.002.323.4.649.788.979,1.167.031.036.063.073.094.109.012.014.024.028.037.042.341.388.687.765,1.035,1.131.031.033.062.066.093.099.38.396.764.78,1.153,1.15,3.033,2.887,6.323,4.982,9.886,6.331,5.634,1.878,9.39.751,42.067,1.127,3.756,0,7.136-.751,10.141-1.878,27.419-10.517,27.794-45.447,27.794-46.95-.751-12.395,4.883-21.409,4.883-22.16,2.485-7.681,1.148-13.716-2.423-17.727,0,0,0,0,0,0h0c-.153-.171-.32-.329-.481-.492-.013-.008-.026-.016-.04-.023-.266-.141-.541-.269-.816-.398-.114-.053-.23-.104-.345-.155-.039-.022-.075-.046-.115-.068-.003-.001-.006-.003-.008-.005-.074-.041-.145-.087-.22-.127-.266-.141-.541-.269-.816-.398-.114-.053-.23-.104-.345-.155-.039-.022-.075-.046-.115-.068-.003-.001-.006-.003-.008-.005-.074-.041-.145-.087-.22-.127-.266-.141-.541-.269-.816-.398-.19-.089-.383-.175-.577-.259-.032-.014-.063-.029-.095-.043-.051-.021-.105-.04-.156-.061-.184-.075-3.69-.723-3.69-.723-2.292-.413-4.56-.788-6.814-1.141-.326-.051-5.243-.779-7.349-1.051-.392-.051-5.359-.648-7.422-.853-.308-.031-.614-.057-.921-.087-1.937-.185-3.854-.342-5.757-.478-.221-.016-.447-.041-.667-.055-1.413-.096-2.814-.175-4.207-.242-.428-.021-.85-.033-1.276-.051-.957-.04-1.913-.078-2.861-.105-.519-.015-3.242-.065-4.082-.071-.544-.004-3.236.005-4.035.016-.544.008-1.085.019-1.625.031-.794.019-3.425.113-3.949.138-.804.038-1.602.085-2.397.134-.489.03-.981.057-1.467.092-.871.062-1.734.135-2.594.211-.399.035-.802.065-1.199.103-1.253.121-2.496.254-3.725.404-3.005.375-6.01.915-9.015,1.62-3.005.704-6.009,1.573-9.014,2.606-3.005,1.033-6.01,2.23-9.015,3.592-3.005,1.362-6.009,2.888-9.014,4.577-.013.007-.024.013-.037.02-.557.306-1.087.583-1.603.845-.148.075-.289.145-.434.216-.409.203-.804.393-1.186.57-.101.047-.204.096-.304.141-.543.247-1.053.464-1.54.662-.171.07-.325.126-.489.19-.306.119-.609.237-.89.337-.152.054-.292.102-.436.151-.247.084-.483.162-.708.233-.151.047-.299.094-.44.135-.2.058-1.88.462-2.002.483-.082.015-.164.03-.238.042-.108.017-.201.032-.29.044-.067.009-.123.016-.18.023-.07.008-.136.016-.19.021-.092.008-.166.013-.215.016-.007,0-.009,0-.016,0-.042.002-.07.002-.07.002,0,0-.046-.001-.115-.005-.007,0-.006,0-.013,0-.488-.03-2.38-.231-5.66-1.523-.42-.217-.841-.417-1.262-.628-.501-.26-1.003-.501-1.504-.752-.501-.26-1.003-.501-1.504-.752-.501-.26-1.003-.501-1.504-.752-.501-.26-1.003-.501-1.504-.752-.501-.26-1.003-.501-1.504-.752-3.426-1.781-6.874-3.353-10.318-4.711-1.518-.599-3.035-1.156-4.549-1.673-4.543-1.549-9.058-2.729-13.489-3.539-1.477-.27-2.944-.499-4.399-.687-1.401-.172-2.818-.32-4.246-.456-.344-.033-.691-.062-1.037-.093-1.218-.108-2.444-.206-3.681-.288-.223-.015-.445-.032-.668-.046-1.521-.096-3.05-.181-4.6-.238-1.628-.061-3.279-.092-4.94-.109-.417-.004-.835-.007-1.254-.009-1.67-.007-3.351,0-5.055.038-1.692.037-3.406.103-5.132.185-.386.018-.773.038-1.16.058-1.723.091-3.458.195-5.214.329-.191.015-.382.03-.574.045-1.503.118-3.022.256-4.55.406-.308.03-.62.064-.929.096-1.254.128-2.516.267-3.788.417-.35.041-.7.084-1.051.127-1.295.159-2.6.328-3.913.509-.288.04-.574.078-.862.119-1.576.222-3.162.458-4.764.714-.009.001-.018.003-.027.004-.002,0-.005,0-.007.001-1.621.259-3.251.53-4.898.822-.464.089-.914.208-1.363.327-.344.091-.68.194-1.015.303-.379.123-.761.24-1.126.385-.555.22-1.095.465-1.617.734-.187.096-.359.212-.541.315-.077.044-.154.089-.23.134-.5.291-.978.61-1.439.947-.141.104-.289.202-.426.311-.172.135-.334.281-.5.423-.228.196-.452.395-.667.604-.124.12-.249.24-.369.364-.334.346-.658.701-.957,1.077-.047.06-.103.112-.149.172-.072.094-.131.198-.2.295-.233.317-.458.641-.665.979-.08.13-.153.264-.228.397-.189.333-.366.676-.53,1.028-.066.14-.133.279-.194.422-.414.967-.729,1.998-.936,3.088-.03.161-.053.326-.079.489-.065.411-.113.83-.147,1.257-.013.17-.029.339-.038.512-.028.586-.036,1.181-.004,1.794.032.611.106,1.241.201,1.879.028.188.065.378.098.568.085.48.188.968.309,1.462.048.196.094.392.148.591.184.675.391,1.358.645,2.057,0,0,0,.002,0,.002,0,.022.023.078.057.154.012.026.028.06.043.092.035.074.074.155.127.262.005.01.007.015.012.026.032.065.078.157.115.233.054.109.109.22.174.351.07.144.147.304.229.475.105.22.22.47.34.732.003.006.006.012.008.019.101.223.207.462.315.715.036.083.072.169.109.255.151.357.306.73.467,1.139.003.008.006.017.01.025.167.425.335.883.504,1.361.036.102.072.214.108.318.16.463.317.95.472,1.458.054.178.107.353.161.536.186.638.367,1.296.536,1.996.026.108.05.219.076.329.158.679.302,1.383.433,2.114.02.115.043.225.062.341.145.853.272,1.733.368,2.65.059.559.105,1.131.141,1.712.015.248.024.501.035.753.02.44.032.886.037,1.338.003.229.006.458.004.689-.004.681-.02,1.371-.061,2.076,0,.003,0,.006,0,.009,0,.017,0,.061,0,.086,0,.033,0,.058,0,.104,0,.002,0,.005,0,.007,0,.036,0,.078.001.122,0,.008,0,.014,0,.022,0,.064.001.127.003.206v.007c.001.069.003.141.005.221,0,.005,0,.008,0,.013.002.081.004.166.007.258,0,.005,0,.01,0,.015.003.097.006.193.01.302,0,.003,0,.005,0,.008.003.097.008.206.013.312,0,.004,0,.008,0,.012.01.231.022.483.038.754,0,.012.001.023.002.035.016.277.035.575.058.892,0,.003,0,.005,0,.008.009.123.017.241.027.369,0,.003,0,.007,0,.01.015.194.033.397.051.603,0,.006.001.012.001.017.011.128.023.257.035.389,0,.005,0,.009.001.014.021.227.044.458.069.698,0,.003,0,.006,0,.009.013.123.027.25.041.376,0,.005.001.01.002.014.029.268.059.536.094.818,0,.001,0,.002,0,.003.003.021.006.042.008.063,0,.002,0,.005,0,.007.086.7.19,1.443.31,2.219,0,.003,0,.005.001.008.007.043.012.084.019.128,0,.001,0,.002,0,.003.053.333.111.675.171,1.021,0,.003,0,.005.001.007.022.126.043.251.066.379,0,.002,0,.004.001.006.061.343.126.69.195,1.043,0,.003.001.007.002.01.024.124.05.25.075.376l.002.011c.075.374.152.75.236,1.134,0,.002,0,.004.001.006.013.06.028.121.041.181,0,.003.001.005.002.008.143.647.299,1.306.469,1.976.004.018.009.037.014.055.171.67.355,1.35.554,2.04,0,.003.002.006.003.01.028.095.053.189.082.284,0,.001,0,.003.001.005.122.414.252.832.384,1.251,0,.001,0,.003.001.004.042.134.085.268.129.402,0,.002.002.005.002.007.136.42.277.84.426,1.264,0,.002.002.005.003.007.038.109.079.219.118.328,0,.001.001.003.002.004.254.713.527,1.43.816,2.148.011.028.022.055.033.083.292.722.602,1.446.933,2.17.001.003.002.006.004.009.021.046.04.091.061.137h0c.198.43.407.858.618,1.287.001.003.002.005.004.008.073.147.145.294.219.44,0,0,.001.002.002.003.18.356.368.71.559,1.064.109.189.213.379.326.568.055.092.114.183.17.275ZM63.198,187.693c.006-.099.011-.197.016-.296.657-12.991-4.529-22.255-5.274-24.118-3.005-9.014,1.127-14.273,7.887-15.4,22.536-4.131,42.818-4.883,60.471-2.629,11.268,1.502,22.536,5.258,34.179,11.643,8.639,4.883,13.522,4.883,13.897,4.883.751,0,5.258,0,14.273-4.883,11.644-6.385,22.912-10.141,34.179-11.643,17.653-2.254,38.311-1.502,60.471,3.005,6.385,1.127,10.517,6.385,7.888,15.399,0,0-6.01,56.715-30.048,65.73-2.254.751-4.883,1.502-7.887,1.502-33.053,0-35.682.751-40.189-.751-12.019-4.132-20.658-20.282-26.667-48.828-1.502-7.888-9.014-13.146-16.151-10.517-4.131,1.502-7.512,5.259-8.263,10.517-6.009,28.921-14.273,44.321-26.667,48.828-4.507,1.502-7.887.751-40.189.751-3.005,0-5.634-.375-7.888-1.502-23.663-9.014-24.038-41.316-24.038-41.691Z"/>
  <path d="M68.184,221.386c.057.073.114.147.17.22-.056-.073-.113-.145-.169-.218,0,0-.001-.001-.002-.002Z"/>
  <path d="M197.483,224.553c.016.02.033.041.049.061,0,0-.001-.001-.002-.002-.016-.019-.031-.039-.047-.059Z"/>
  <path d="M173.884,155.763c.071.004.115.005.115.005,0,0-.046-.001-.115-.005Z"/>
  <path d="M60.291,205.881c.006.019.012.037.018.056l-.017-.051s0-.003-.001-.004Z"/>
  <polygon points="60.851 207.562 60.852 207.564 60.849 207.558 60.851 207.562"/>
  <path d="M57.188,187.028c0,.01,0,.021,0,.031,0-.02,0-.038,0-.055v.024Z"/>
  <path d="M104.138,224.502h15.775c18.029,0,32.677-14.648,32.677-32.677v-11.268c0-15.024-12.019-27.043-27.043-27.043l-26.292.376c-15.775,0-28.921,12.771-28.921,28.545v8.263c0,18.78,15.024,33.804,33.804,33.804ZM123.669,164.03c1.127-1.127,3.005-1.127,4.132,0l10.141,10.893c1.127,1.127,1.127,3.005,0,4.131h.376c-1.127,1.127-3.005,1.127-4.132,0l-10.517-10.892c-1.127-1.127-1.127-3.005,0-4.132ZM111.65,169.664c1.127-1.127,3.005-1.127,4.132,0l19.156,20.658c1.502,1.878.375,4.883-2.254,4.883-.751,0-1.502,0-1.878-.751l-19.156-20.658c-1.127-1.127-1.127-3.005,0-4.132Z"/>
  <path d="M229.212,224.502h15.775c18.029,0,32.677-14.648,32.677-32.677v-11.268c0-15.024-12.019-27.043-27.043-27.043l-26.292.376c-15.775,0-28.921,12.771-28.921,28.545v8.263c0,18.78,15.024,33.804,33.804,33.804ZM248.368,164.03c1.127-1.127,3.005-1.127,4.132,0l10.517,10.893c1.127,1.127,1.127,3.005,0,4.131-1.127,1.127-3.005,1.127-4.132,0l-10.517-10.892c-1.127-1.127-1.127-3.005,0-4.132ZM236.348,169.664c1.127-1.127,3.005-1.127,4.132,0l19.156,20.658c1.127,1.127,1.127,3.005,0,4.132-1.127,1.127-3.005,1.127-4.132,0l-19.156-20.658c-1.127-1.127-1.127-3.005,0-4.132Z"/>
  <path d="M77.47,156.143c0-2.282-3.7-4.131-8.263-4.131s-8.263,1.85-8.263,4.131,3.7,4.132,8.263,4.132,8.263-1.85,8.263-4.132Z"/>
  <path d="M277.664,160.274c4.507,0,8.263-1.878,8.263-4.132s-3.756-4.131-8.263-4.131c-4.883,0-8.263,1.878-8.263,4.131s3.756,4.132,8.263,4.132Z"/>
</svg>