<?xml version="1.0" encoding="UTF-8"?>
<svg id="a" data-name="Layer 1" xmlns="http://www.w3.org/2000/svg" width="400" height="400" viewBox="0 0 400 400">
  <path d="M110.561,205.833c.131-3.008-3.296-10.656-6.823-10.337-4.637.42-7.624,11.073-7.501,14.885.091,2.848,3.202,5.831,5.051,7.86-.284-6.149,2.814-11.578,9.274-12.407Z" fill="none"/>
  <path d="M176.812,208.949c-7.628-6.069-4.423-17.68,5.25-18.351-5.555-19.484-21.208-8.774-19.534,7.862.67,6.665,6.995,16.295,14.284,10.489Z" fill="none"/>
  <path d="M116.29,113.399c-.736-.178-.761.119-1.154.507-.964.953-8.797,11.397-8.874,12.145-.19,1.849,5.189,5.22,6.853,6.016,9.562,4.574,22.017,2.689,28.882-5.63l-9.262-13.038c-4.708,13.109-12.137,13.852-16.446,0Z" fill="none"/>
  <path d="M101.759,115.302c2.895-2.674,10.56-15.048,13.557-15.987,6.063-1.9,7.066,4.495,9.319,8.362,2.328-3.837,5.137-12.276,10.923-7.106,4.035,3.605,7.228,11.199,11.712,14.733.198-17.184-18.427-25.672-33.203-19.625-7.579,3.102-13.854,11.11-12.307,19.623Z" fill="none"/>
  <path d="M137.05,248.289c.83-3.485-.344-10.094,3.197-11.577,4.883-1.016,9.889-1.104,14.811-1.869,15.948-2.48,30.379-7.572,44.648-14.923,3.387-1.745,8.489-6.537,12.115-2.604,2.225,2.414,1.181,10.571.419,13.709-1.284,5.287-4.944,11.214-8.985,14.843-1.483,1.332-4.812,2.95-5.817,3.953-.548.547-1.131,2.681-1.824,3.656-2.677,3.762-8.388,7.054-12.606,8.84-2.669,1.13-9.524,2.539-11.113,3.543-.305.193-1.733,3.01-2.456,3.856-7.794,9.132-18.029,8.326-28.616,4.777-2.625-.88-8.766-4.61-10.517-4.781-1.46-.142-5.795,1.697-8.061,1.898-2.85.252-6.011.035-8.806-.467,6.259,18.527,30.921,24.278,48.374,25.728,33.681,2.797,65.3-17.43,78.799-47.958,1.201-2.716,2.956-9.453,4.575-11.152,2.044-2.146,7.436-1.501,10.446-1.944,11.79-1.736,24.667-8.808,28.082-21.005,2.186-7.809-1.538-20.92-10.022-23.625-11.084-3.534-17.352,5.312-19.063,15.032-1.016,5.771,1.479,16.445-7.283,15.128l-26.547-10.627c-2.031-1.166-2.887-3.68-2.413-5.951.476-2.278,4.064-8.213,5.22-10.986,1.046-2.509,7.246-17.497,6.373-18.9-.449-.722-8.984-5.952-10.426-6.761-12.857-7.223-27.991-11.953-42.734-13.262v.953c4.414.234,15.107,2.529,18.755,4.835,3.614,2.284,3.197,8.06-.619,9.247-3.305,1.028-9.882-2.684-13.75-3.456-10.78-2.152-12.854.076-19.906,6.997-.537.527-.616,1.397-.683,1.44,2.456-1.92,9.483-4.954,12.561-4.735,21.602,1.539,27.06,35.646,9.515,47.065-7.172,4.668-13.156,4.709-20.332.009-13.283-8.702-14.111-32.666-1.744-42.339-.149.096-3.088.487-3.518.458-3.842-.255-5.873-4.86-3.849-8.063,4.992-7.901,13.477-11.639,22.617-11.458v-.953c-12.75-1.002-30.016-.495-42.418,2.618-9.848,2.472-19.322,7.147-27.635,12.873,3.7.918,14.31,4.435,15.511,8.311,1.19,3.839-1.051,7.542-5.208,7.151-1.911-.18-7.057-3.86-10.094-4.715-2.451-.69-8.063-1.594-10.368-.89-2.34.715-5.459,10.308-4.381,12.775,13.911-17.48,28.687-2.021,30.203,15.076.2,2.259-.386,6.211.041,7.961.143.587,5.49,1.713,4.086,6.999-1.298,4.887-6.411,2.919-9.808,3.544-12.958,2.385-18.18,19.288-9.498,29.081,9.377,10.577,27.491,6.341,30.752-7.354Z" fill="none"/>
  <path d="M347.25,223.295v-7.664c-.682-3.006-1.625-5.97-3.077-8.703-1.108-2.085-2.652-3.936-4.035-5.833l-54.904-55.017c-1.442-1.233-2.949-2.344-4.5-3.376-2.925-2.088-6.151-3.831-9.562-5.23-.165-.068-.347-.136-.538-.204-2.607-.933-7.423-1.932-9.017-3.108-3.005-2.216-10.227-13.037-13.324-16.7-8.488-10.035-17.535-19.725-27.555-28.054-10.909-9.068-22.972-16.52-36.725-21.04-6.377-2.157-13.135-3.694-20.358-4.479-.857-.163-1.712-.334-2.563-.53h-3.232c-.078-.048-.155-.1-.228-.158h-12.206c-.08.058-.164.109-.249.158h-4.101l-3.35.597c-7.893.851-15.606,2.67-22.62,5.726-3.865,1.653-7.562,3.681-10.883,6.149-2.193,1.629-4.167,3.416-5.965,5.323-.256.272-.52.538-.768.815-.006.007-.012.014-.018.021-2.79,3.036-5.241,6.499-7.262,10.443-7.693,15.016-8.788,32.239-9.361,48.83-.053.111-.259.253-.554.412-9.072,3.054-19.661,7.965-25.469,15.8-.791,1.035-1.523,2.124-2.168,3.285l-.456,1.206-.693,1.833c-.845,2.569-1.22,5.375-.974,8.449,1.191,14.872,17.399,22.091,30.496,23.119.364,12.414,6.013,24.072,14.7,32.717-.077.122-.149.247-.224.37-1.305,2.132-2.334,4.412-3.073,6.77-3.293,9.265-1.072,19.316,5.312,27.379.595.752,3.352,3.414,3.536,3.844.2.469.37,1.183.53,2.009.103.959.212,1.936.419,2.691.042.152.088.3.132.451.172.955.357,1.861.579,2.555,1.281,4.005,3.398,7.598,5.747,11.001,18.523,18.374,36.049,38.33,55.322,55.95,14.421,13.184,33.443,17.729,52.518,18.73.908.048,2.396.281,3.267.565h6.812c1.13-.93,2.723-.44,4.08-.604,27.691-3.343,53.74-21.137,67.424-45.046,2.777-4.851,4.975-10.072,6.911-15.307.548-.629,4.729-.502,5.734-.655,15.062-2.289,29.625-11.131,34.769-25.976.749-2.16,1.215-4.429,1.722-6.652v-6.529c-.415-1.589-.498-3.341-.874-4.945-.991-4.226-3.699-9.494-6.227-13.016-.16-.223-.584-.156-.575-.354,2.885-3.946,5.56-8.308,6.749-13.126.394-1.595.507-3.31.927-4.892ZM147.269,115.304c-4.484-3.534-7.677-11.128-11.712-14.733-5.786-5.17-8.594,3.268-10.923,7.106-2.253-3.867-3.256-10.261-9.319-8.362-2.996.939-10.661,13.313-13.557,15.987-1.547-8.513,4.728-16.522,12.307-19.623,14.776-6.047,33.4,2.441,33.203,19.625ZM141.998,126.437c-6.865,8.319-19.321,10.204-28.882,5.63-1.664-.796-7.042-4.168-6.853-6.016.077-.748,7.909-11.192,8.874-12.145.392-.388.418-.685,1.154-.507,4.309,13.853,11.737,13.11,16.446,0l9.262,13.038ZM101.287,218.24c-1.848-2.029-4.959-5.011-5.051-7.86-.123-3.812,2.864-14.464,7.501-14.885,3.527-.319,6.954,7.329,6.823,10.337-6.46.83-9.557,6.258-9.274,12.407ZM115.796,226.562c3.397-.625,8.51,1.343,9.808-3.544,1.404-5.286-3.943-6.413-4.086-6.999-.427-1.75.159-5.702-.041-7.961-1.516-17.097-16.292-32.556-30.203-15.076-1.078-2.467,2.041-12.061,4.381-12.775,2.305-.704,7.917.2,10.368.89,3.037.855,8.183,4.536,10.094,4.715,4.156.391,6.397-3.312,5.208-7.151-1.201-3.876-11.811-7.393-15.511-8.311,8.314-5.726,17.787-10.401,27.635-12.873,12.402-3.113,29.668-3.62,42.418-2.618v.953c-9.14-.181-17.625,3.557-22.617,11.458-2.024,3.203.007,7.808,3.849,8.063.429.028,3.368-.362,3.518-.458.067-.043.146-.913.683-1.44,7.052-6.921,9.126-9.149,19.906-6.997,3.868.772,10.445,4.484,13.75,3.456,3.816-1.187,4.233-6.963.619-9.247-3.648-2.306-14.341-4.601-18.755-4.835v-.953c14.743,1.31,29.877,6.04,42.734,13.262,1.441.81,9.977,6.039,10.426,6.761.873,1.404-5.327,16.391-6.373,18.9-1.156,2.773-4.744,8.708-5.22,10.986-.474,2.27.381,4.785,2.413,5.951l26.547,10.627c8.762,1.318,6.266-9.356,7.283-15.128,1.711-9.72,7.979-18.566,19.063-15.032,8.484,2.705,12.208,15.816,10.022,23.625-3.415,12.197-16.292,19.269-28.082,21.005-3.011.443-8.403-.202-10.446,1.944-1.619,1.7-3.374,8.436-4.575,11.152-13.499,30.529-45.119,50.755-78.799,47.958-17.453-1.449-42.115-7.201-48.374-25.728,2.795.502,5.957.719,8.806.467,2.266-.201,6.601-2.04,8.061-1.898,1.75.171,7.892,3.901,10.517,4.781,10.587,3.55,20.822,4.355,28.616-4.777.723-.847,2.151-3.664,2.456-3.856,1.589-1.003,8.444-2.412,11.113-3.543,4.218-1.786,9.928-5.078,12.606-8.84.694-.975,1.276-3.109,1.824-3.656,1.005-1.003,4.334-2.621,5.817-3.953,4.041-3.629,7.701-9.556,8.985-14.843.762-3.138,1.806-11.295-.419-13.709-3.626-3.933-8.728.859-12.115,2.604-14.27,7.351-28.7,12.443-44.648,14.923-4.922.765-9.928.853-14.811,1.869-3.541,1.483-2.367,8.092-3.197,11.577-3.26,13.696-21.375,17.932-30.752,7.354-8.682-9.793-3.46-26.697,9.498-29.081Z"/>
  <path d="M162.361,217.213c7.175,4.7,13.159,4.659,20.332-.009,17.545-11.419,12.088-45.525-9.515-47.065-3.078-.219-10.105,2.815-12.561,4.735-12.367,9.673-11.539,33.636,1.744,42.339ZM182.062,190.599c-9.674.671-12.879,12.282-5.25,18.351-7.289,5.806-13.614-3.824-14.284-10.489-1.673-16.636,13.979-27.346,19.534-7.862Z"/>
</svg>