<?xml version="1.0" encoding="UTF-8"?>
<svg id="a" data-name="Layer 1" xmlns="http://www.w3.org/2000/svg" width="400" height="400" viewBox="0 0 400 400">
  <path d="M224.39,59.001c10.919,6.181,20.88,14.155,30.011,22.719,1.444,1.34,2.904,2.615,4.425,3.866,2.118,1.793,3.892,3.788,5.685,5.903,1.457,1.691,2.981,3.307,4.508,4.935,11.385,12.526,19.892,26.767,27.999,41.538,2.17,3.952,4.378,7.883,6.623,11.792l.989,1.725,2.06,3.587c1.947,3.392,3.893,6.787,5.835,10.182l1.411,2.464c2.539,4.429,5.056,8.867,7.513,13.341,3.664,6.662,7.212,13.077,11.943,19.045,4.246,5.581,6.638,12.644,7.653,19.544.602,5.405.564,10.797.532,16.226l-.009,3.116c-.006,2.14-.014,4.28-.024,6.419-.012,2.93-.02,5.859-.023,8.789-.017,10.859-.061,21.719-.116,32.578-.028,5.409-.05,10.816-.06,16.224-.009,4.792-.028,9.584-.058,14.376-.015,2.513-.026,5.026-.025,7.539q0,23.562-5.235,32.832c-3.359,5.138-7.124,8.732-12.386,11.913-9.565,4.37-18.888,4.232-29.187,4.229l-3.834.007c-3.456.006-6.913.009-10.37.008l-6.494.004c-7.566.006-15.132.009-22.699.008-7.029,0-14.058.006-21.086.018-6.054.009-12.108.013-18.163.012-3.607,0-7.214.002-10.822.009-3.397.006-6.793.007-10.191.002-1.238-.001-2.476,0-3.715.005q-21.557.069-30.792-4.906c-7.34-4.566-13.263-11.228-19.313-17.309-1.073-1.075-2.147-2.149-3.222-3.223-2.241-2.242-4.48-4.486-6.716-6.733-2.857-2.867-5.716-5.731-8.579-8.593-2.214-2.215-4.428-4.431-6.64-6.649l-3.163-3.167c-1.476-1.478-2.951-2.958-4.425-4.439l-1.298-1.298c-2.539-2.564-4.982-5.222-7.324-7.966-1.129-1.277-2.307-2.478-3.525-3.671-2.092-2.059-4.027-4.213-5.941-6.437-1.376-1.58-2.791-3.117-4.209-4.659-9.403-10.446-17.633-21.791-21.848-35.353v-1.376l-1.943-.18c-7.539-.831-14.463-2.34-20.722-6.916-3.968-3.403-6.532-6.691-8.397-11.623-2.371-6.792-3.189-13.513-2.183-20.677,1.21-5.991,3.236-10.866,7.159-15.588,3.973-4.363,8.152-7.585,13.701-9.701q7.263-2.064,11.01-2.064l-.525-1.089c-5.285-11.065-9.487-21.475-8.565-33.963,2.227-21.88,16.687-44.084,29.196-61.581,4.079-5.603,8.373-10.87,13.229-15.816,1.148-1.171,2.28-2.355,3.413-3.54,13.171-13.626,29.422-24.151,47.694-29.473,4.37-1.173,8.794-1.886,13.273-2.487l2.212-.299c23.186-2.417,45.653,4.802,65.754,15.819M133.563,69.352c-2.801,2.205-5.241,4.785-6.78,8.021-.716,2.119-.822,3.811-.839,6.046l-.026,2.492-.005,2.676-.014,2.769c-.008,1.932-.011,3.865-.01,5.797,0,2.464-.019,4.928-.042,7.392-.014,1.906-.02,3.812-.017,5.718-.004,1.346-.015,2.693-.032,4.039q.021,5.247,1.646,10.169c2.073,3.239,4.152,5.416,7.517,7.26,2.733,1.251,5.362,2.036,8.387,1.892,4.127-.782,7.754-2.104,11.01-4.817,2.925-3.426,3.884-7.375,4.817-11.698v-1.376l1.113.475c3.668,1.415,6.51,1.729,10.405,1.259,1.606-.37,2.873-.936,4.309-1.734l.228,1.51q.838,5.369,3.212,10.188c2.252,2.356,4.531,4.319,7.441,5.806,3.871.683,7.613.925,11.459-.038,3.571-1.38,5.873-3.437,8.344-6.323,1.554-2.42,2.272-4.832,2.535-7.692l.022-2.181.034-2.492.011-2.665.019-2.766c.011-1.929.017-3.857.019-5.785.003-2.459.03-4.917.061-7.376.021-1.903.025-3.806.026-5.71.004-1.343.025-2.686.045-4.029q.01-4.45-1.172-8.686c-1.422-2.32-3.013-4.348-5.146-6.06l-1.163-.962c-2.161-1.517-3.585-2.18-6.263-2.476l-2.637-.046-2.61-.083c-3.478.244-6.1,1.943-8.959,3.825-2.561,1.786-5.061,3.651-7.54,5.55l-1.481,1.089-1.312.993q-1.365.626-3.01.536c-2.172-.724-3.783-1.755-5.672-3.05l-2.196-1.489-2.272-1.564c-1.491-1.02-2.984-2.038-4.478-3.053l-1.998-1.374c-1.963-1.248-3.406-1.736-5.725-1.93q-5.882-.14-11.26,1.952M117.893,173.12c-8.233,5.259-17.706,11.825-22.714,20.372-.987,2.176-1.76,4.394-2.494,6.667l-.623,1.912c-4.985,15.994-4.888,32.469-1.353,48.758,1.796,7.567,4.829,14.334,8.599,21.11l1.086,2.008c3.264,5.581,7.724,10.091,12.21,14.694,1.008,1.044,2.006,2.097,2.993,3.16,10.04,10.549,23.67,17.057,37.489,21.18,14.903,4.151,32.15,3.715,47.096.003,12.196-3.272,22.733-8.586,31.892-17.39,11.533-11.868,23.289-27.991,28.17-43.954,3.715-16.081,3.072-33.593-1.548-49.416-2.221-7.066-4.728-12.201-10.164-17.33-6.595-5.784-13.591-10.511-21.232-14.798l-1.981-1.134c-17.476-9.397-37.467-11.79-56.991-11.346-17.864.736-35.261,6.117-50.435,15.504M274.781,192.116l.33,1.148c1.282,4.567,2.427,9.166,3.54,13.776l.454,1.856c2.794,11.68,3.196,24.592-.196,36.206-.993,2.994-2.116,5.93-3.298,8.854q-.913,1.985-.831,3.532c5.178.406,9.66-.795,14.451-2.753,5.348-3,10.052-7.075,13.548-12.128,3.315-5.753,4.608-11.7,4.645-18.278-.103-6.429-1.235-11.253-4.559-16.817-4.359-6.446-9.379-10.597-16.386-14.021-3.817-1.504-7.652-1.545-11.698-1.376"/>
  <path d="M106.878,236.156c6.064.638,11.803,2.161,17.672,3.776,1.289.349,2.582.684,3.88,1.005q10.497,2.604,13.273,5.198c1.932,2.426,3.115,5.097,4.399,7.912,3.31,4.368,7.51,7.068,12.481,9.306,6.982,2.854,14.753,3.736,22.189,2.782,7.695-1.272,14.521-3.891,20.682-8.819,2.607-2.462,4.397-5.385,6.206-8.462.966-1.536,1.77-2.569,3.126-3.752q1.256-.557,2.673-.981l1.616-.494,1.74-.509,1.803-.542c1.259-.376,2.52-.75,3.781-1.12,1.917-.564,3.831-1.14,5.745-1.717l3.681-1.094,1.718-.517c3.43-1,6.715-1.621,10.272-1.972-.82,11.679-5.158,23.643-11.01,33.718-3.55,5.25-7.68,9.489-13.258,12.556-3.131,1.415-5.914,1.99-9.346,2.255-2.178.177-4.186.442-6.298,1.016-1.636,1.869-2.082,3.84-2.753,6.193-1.766,2.675-3.454,4.318-6.279,5.763-3.047,1.207-5.835,1.514-9.099,1.39-2.781-.414-5.039-1.409-7.33-3.024l-1.102-1.129-.962-.936q-1.36-.034-2.753.688c-1.15.914-2.297,1.832-3.441,2.753-2.209,1.263-4.204,1.518-6.709,1.634-3.106-.083-5.575-.659-8.354-2.049-2.584-1.713-4.597-3.864-6.269-6.467-.503-1.361-.962-2.738-1.376-4.129l-2.293-.054c-6.007-.202-11.576-.467-16.975-3.387-5.687-3.61-9.833-8.447-13.079-14.33-1.702-3.286-3.014-6.629-4.167-10.142l-.534-1.62c-2.15-6.708-3.986-13.606-3.552-20.702M141.284,200.373c2.713.869,4.516,2.494,6.667,4.344,2.237,2.6,3.88,4.928,4.763,8.238.537,3.388.229,6.051-.849,9.308-1.228,2.987-2.497,4.985-5.075,7.011-2.078,1.496-3.765,2.631-6.193,3.441-3.999.366-7.84.426-11.612-1.075-3.061-1.575-5.078-3.642-6.967-6.495-1.676-2.904-2.214-5.299-2.322-8.602.108-3.303.647-5.698,2.322-8.602,1.799-2.639,3.794-4.826,6.537-6.494,4.018-1.789,8.442-1.581,12.73-1.076M217.667,200.373c3.322,1.14,5.49,3.3,7.827,5.849,1.543,1.828,2.441,3.571,3.183,5.849.475,3.952.418,7.829-1.032,11.57-1.705,3.325-4.172,5.594-7.225,7.698-3.121,1.595-6.307,1.67-9.765,1.586-3.103-.337-5.541-1.215-8.126-2.962-2.316-2.122-4.209-4.29-5.618-7.107-1.171-3.742-.996-7.607-.575-11.472,1.17-3.317,3.317-5.507,5.892-7.827,4.692-3.88,9.579-3.775,15.44-3.183"/>
</svg>