<?xml version="1.0" encoding="UTF-8"?>
<svg id="a" data-name="Layer 1" xmlns="http://www.w3.org/2000/svg" width="400" height="400" viewBox="0 0 400 400">
  <path d="M104.878,277.227c14.826,15.294,29.778,30.806,44.462,46.531,5.411,5.847,11.843,11.223,19.412,13.768,6.469,2.369,13.987,2.541,20.93,2.39,15.581-.208,31.252-.236,46.74-.211,14.966.026,29.888.093,44.99.098,11.615-.202,26.807.759,35.694-7.371,3.482-3.338,5.574-8.028,6.688-14.476.921-5.158,1.103-12.063,1.125-17.517.076-47.704.035-95.364.019-143.061.094-8.934-.021-18.334-2.863-26.913-7.428-23.772-29.021-41.078-54.456-42.148-30.643-1.137-61.664.572-91.643-.559-9.452-.967-14.471-8.372-20.017-15.287-11.19-13.684-31.156-17.388-46.564-8.692-7.976,4.354-14.208,10.977-20.73,17.136-4.265,4.164-8.469,8.457-12.559,12.818-5.539,5.868-11.287,12.235-14.249,19.835-6.012,14.055-1.49,30.392,8.741,41.342,3.17,3.538,6.845,6.236,10.667,9.042,2.604,2.242,6.875,3.99,7.06,7.193-.363,3.087-6.133,5.836-8.532,8.161-27.443,21.821-26.232,44.554-3.245,68.46,9.308,9.885,18.785,19.574,28.193,29.323l.136.14ZM88.697,143.179c-12.147-12.623-9.155-22.856,2.785-33.973,6.214-6.231,12.456-12.347,18.535-18.652,6.417-7.228,15.456-11.814,24.938-7.129,7.743,3.31,9.914,12.36,9.909,19.871.065,8.2,8.264,6.028,13.83,6.22,29.963.095,59.678.079,89.686.077,7.87.108,13.974-.233,20.841.128,9.15.406,17.608,5.636,18.525,15.623,1.273,9.887-4.659,17.482-14.382,19.008-6.556,1.169-13.037.745-19.645.832-34.183.041-68.555-.004-102.933.023-3.036-.096-5.086.864-5.371,4.159-.848,6.297-.675,13.136-5.113,18.238-5.112,5.757-14.471,7.916-21.444,4.246-3.986-1.959-7.068-5.189-10.078-8.368-6.411-6.716-13.64-13.167-19.947-20.155l-.136-.149ZM85.111,202.224c5.317-5.996,14.922-6.47,22.6-6.475,36.803-.165,75.249-.031,112.054-.067,3.762.186,4.175-2.392,4.406-6.076.356-4.293.574-8.592,2.305-12.441,2.204-5.396,8.559-8.942,14.34-9.512,12.457-1.422,19.07,10.681,27.406,17.967,6.93,7.244,21.282,18.88,20.129,29.467-.8,7.027-7.212,13.446-11.976,18.542-5.063,5.278-10.32,10.475-15.327,15.414-3.293,3.195-6.312,6.381-10.422,8.596-7.255,4.373-17.591,1.777-22.43-5.029-2.421-3.382-3.227-6.952-3.614-10.608-.302-3.163-.258-7.265-1.539-9.556-.903-1.494-2.144-1.058-4.577-1.13-15.166.005-47.553-.011-65.715-.008-15.252.007-30.042-.035-45.23.009-3.655-.018-7.109.108-10.581-.419-5.067-.765-10.117-2.902-13.03-7.9-3.847-6.119-3.689-15.347,1.085-20.642l.116-.131Z" fill="#060606"/>
</svg>