<?xml version="1.0" encoding="UTF-8"?>
<svg id="a" data-name="Layer 1" xmlns="http://www.w3.org/2000/svg" width="400" height="400" viewBox="0 0 400 400">
  <path d="M342.346,111.997c-2.832-4.453-7.037-7.73-10.175-11.113-7.499-7.514-14.69-14.679-22.147-22.147-5.426-5.281-11.277-11.925-17.671-15.989-3.155-2.101-5.906-1.647-9.139-1.664-35.272-.061-139.867.044-193.212,0-10.079,0-17.951,0-22.593,0-1.617.012-2.878-.074-4.411.104-2.776.266-7.186,4.544-7.659,8.303-.733,19.303-.055,67.47-.215,86.148.112,7.398,6.894,12.703,11.466,18.13,2.489,2.853,3.475,5.481,3.55,9.678.304,13.435.026,46.351.087,60.802-.358,6.467,2.704,10.859,7.435,15.966,4.484,4.758,9.232,9.295,13.865,13.992,5.775,5.784,11.741,11.734,17.474,17.474,16.968,16.981,33.276,33.267,50.205,50.205,4.456,4.454,9.616,9.452,16.256,9.107,20.139.095,78.307-.055,96.295.006,3.223.014,6.273-.096,9.082-1.732,1.754-.992,3.801-2.671,6.265-5.132,4.859-4.953,12.476-12.396,18.146-18.141,4.802-4.782,9.646-9.66,14.324-14.324,3.817-3.774,9.004-8.489,9.78-13.03.967-5.027.301-10.888.494-16.991-.005-9.268.003-18.867,0-28.311.067-10.69-.077-24.478.027-33.496.036-2.804,1.133-4.067,3.301-4.814,4.256-1.447,11.077-3.462,11.587-8.922.744-18.157-.039-66.11.236-83.692.099-3.762-.409-7.152-2.59-10.32l-.064-.099ZM257.168,121.76c-1.963,4.747-7.607,5.565-12.402,6.061-4.26.389-7.651.19-7.268,5.581,0,6.816-.008,12.708-.004,21.406-.005,16.774.004,34.773,0,51.555.46,17.675-.56,16.144-12.788,28.648-5.158,5.219-11.927,11.882-16.709,16.75-3.613,3.645-4.418,4.499-8.46,5.051-11.476,1.25-25.567.868-37.731.881-6.517-.036-12.781-.148-19.143-.158-5.333-.016-6.86.269-11.096-2.946-9.726-7.835-19.487-18.646-27.975-27.351-3.76-3.965-5.477-7.394-5.245-12.584-.049-13.054.036-63.168-.008-81.903.301-4.332-2.466-4.525-6.144-4.811-3.114-.192-7.483-.703-10.174-2.298-5.706-3.573-4.182-11.652-4.502-17.519.097-6.336-.353-11.546,1.594-15.746,2.208-5.219,8.309-5.334,13.274-5.205,10.26,0,30.364-.002,40.13,0,2.672.016,5.565-.055,7.974.896,7.43,3.526,5.799,11.338,6.13,19.578-.019,4.941.114,9.72-.864,13.01-2.682,7.98-6.547,6.292-5.762,16.697.007,17.989-.016,60.538.011,71.682.034,1.24-.011,2.486.738,3.275.482.453,1.303.635,2.634.717,1.842.105,4.756.061,8.501.071,10.065.013,26.759-.009,36.806,0,3.165-.18,8.277.825,8.035-2.734.181-20.503.03-62.599.052-77.166.124-3.159-1.603-5.09-3.695-7.288-3.38-3.493-3.872-8.319-3.849-13.802-.003-3.878-.065-8.185.068-12.036.286-11.358,5.568-13.373,15.381-12.899,11.208.016,25.126-.012,36.508,0,7.772-.141,14.305-.447,16.326,7.398,1.052,3.796.749,9.595.806,15.209-.065,3.906.22,8.219-1.093,11.84l-.058.143Z" stroke="#000" stroke-miterlimit="10"/>
</svg>