<?xml version="1.0" encoding="UTF-8"?>
<svg id="a" data-name="Layer 1" xmlns="http://www.w3.org/2000/svg" width="400" height="400" viewBox="0 0 400 400">
  <path d="M355.586,163.159l-77.901-117.801c-1.62-2.45-4.317-3.975-7.252-4.1l-39.458-1.679c-1.868-.079-3.716.415-5.296,1.416l-35.185,22.312c-2.16,1.37-3.649,3.581-4.107,6.098l-.616,3.385c-.433,2.383-1.793,4.498-3.782,5.881l-3.268,2.274c-3.725,2.591-8.786,2.065-11.898-1.237l-5.745-6.096c-1.882-1.997-4.56-3.045-7.297-2.856l-22.402,1.545c-1.493.103-2.939.57-4.209,1.361l-79.954,49.749c-4.423,2.752-5.664,8.635-2.729,12.939l20.081,29.452c2.595,3.806,1.96,8.947-1.483,12.008-1.9,1.689-3.013,4.091-3.072,6.633l-1.745,74.607c-.05,2.121.638,4.193,1.947,5.863l34.566,44.129c.217.277.417.566.601.866l27.143,44.334c1.611,2.631,4.438,4.275,7.522,4.373l57.055,1.811c.668.021,1.336-.031,1.992-.155l122.852-23.216c2.046-.387,3.899-1.459,5.254-3.04l37.701-43.985c1.423-1.66,2.205-3.775,2.205-5.962v-115.856c0-1.797-.529-3.554-1.52-5.053ZM113.134,241.943c0,2.218-1.854,4.015-4.142,4.015h-21.257c-2.288,0-4.142-1.797-4.142-4.015v-36.046c0-2.218,1.854-4.015,4.142-4.015h21.257c2.288,0,4.142,1.797,4.142,4.015v36.046ZM166.569,241.943c0,2.218-1.854,4.015-4.142,4.015h-21.257c-2.288,0-4.142-1.797-4.142-4.015v-56.399c0-2.218,1.854-4.015,4.142-4.015h21.257c2.288,0,4.142,1.797,4.142,4.015v56.399ZM220.004,241.943c0,2.218-1.854,4.015-4.142,4.015h-21.257c-2.288,0-4.142-1.797-4.142-4.015v-76.752c0-2.218,1.854-4.015,4.142-4.015h21.257c2.288,0,4.142,1.797,4.142,4.015v76.752ZM240.839,109.964c-1.964-1.779-4.945-1.981-7.145-.483l-63.86,43.495c-2.421,1.649-5.742,1.22-7.634-.985l-20.183-23.533c-1.806-2.106-4.935-2.605-7.343-1.171l-37.53,22.36c-2.394,1.426-5.504.942-7.316-1.14l-10.007-11.495c-2.267-2.605-1.574-6.56,1.455-8.292l59.243-33.883c2.408-1.377,5.492-.851,7.27,1.24l19.384,22.794c1.908,2.243,5.286,2.662,7.715.957l37.701-26.469c2.808-1.971,3.155-5.898.734-8.303-3.345-3.324-1.205-8.922,3.568-9.329l32.647-2.786c3.58-.305,6.549,2.648,6.142,6.109l-3.439,29.22c-.529,4.494-6.114,6.487-9.523,3.398l-1.879-1.703ZM273.438,241.943c0,2.218-1.854,4.015-4.142,4.015h-21.257c-2.288,0-4.142-1.797-4.142-4.015v-97.104c0-2.218,1.854-4.015,4.142-4.015h21.257c2.287,0,4.142,1.797,4.142,4.015v97.104Z"/>
</svg>