<?xml version="1.0" encoding="UTF-8"?>
<svg id="a" data-name="Layer 1" xmlns="http://www.w3.org/2000/svg" width="400" height="400" viewBox="0 0 400 400">
  <path d="M326.501,97.477c-10.146-10.081-18.16-18.499-25.22-26.483-10.804-12.222-24.042-17.926-41.629-17.926h-.504l-15.357.097c-49.785.323-101.271.656-151.911-.251-.348-.007-.696-.011-1.041-.011-13.706,0-26.044,4.847-34.833,13.71-8.893,8.963-13.593,21.478-13.238,35.249.938,36.285.941,75.571.009,120.091-.394,18.79,5.98,33.664,20.057,46.815,25.2,23.543,49.919,47.212,73.473,70.347,7.583,7.45,16.544,10.924,28.186,10.924h.158c22.647-.061,45.289-.047,67.933-.043,25.207.014,50.416.022,75.625-.065,20.84-.068,31.459-10.97,31.563-32.402.108-21.912.084-43.821.059-65.733l-.02-28.746c0-8.959-.034-17.918-.066-26.881-.081-21.579-.165-43.896.244-65.859.242-13.007-4.046-23.44-13.489-32.833ZM285.988,123.369c-.027,3.632-.052,7.263-.052,10.895l.016,26.77c.022,21.324.041,42.652-.054,63.98-.088,19.614-5.232,24.723-25.024,24.845-19.983.125-39.962.1-59.941.068l-25.37-.022-81.058.029c-1.024.011-2.061.022-3.108.022-1.646,0-3.313-.029-4.985-.136-13.912-.9-18.209-5.051-19.162-18.514-.099-1.405-.086-2.818-.07-4.234l.013-1.466c-.004-41.132-.007-82.264.007-123.396,0-3.137.02-6.213.256-9.339.679-8.945,5.874-14.33,14.629-15.165,3.494-.341,6.987-.337,10.374-.333h.85c47.18-.018,94.348-.014,141.542-.014l25.743-.022c1.785-.032,3.571-.054,5.351.065,13.532.907,19.483,7.023,19.899,20.457.264,8.522.203,17.158.145,25.512Z" fill="#070707"/>
  <polygon points="215.56 163.673 149.445 117.5 149.445 210.187 215.56 163.673" fill="#070707"/>
</svg>