<?xml version="1.0" encoding="UTF-8"?>
<svg id="a" data-name="Layer 1" xmlns="http://www.w3.org/2000/svg" width="400" height="400" viewBox="0 0 400 400">
  <path d="M347.663,153.314c-4.029-8.85-10.595-18.052-20.186-19.652-64.352-10.736-51.411-1.138-72.153-21.88-3.344-3.344-76.074-79.418-81.361-84.705-4.458-4.458-17.833-6.687-25.634-5.573-15.213,2.173-24.073,2.211-26.657,7.481-3.373,6.879-3.435,8.08-4.106,18.012l-.128.806c-.586,3.879-.778,52.629-.828,70.444-.008,2.66-7.29,9.138-9.519,9.138-8.308,0-31.57-21.055-38.956-27.941-1.541-1.437-3.498-2.332-5.595-2.543-9.254-.933-34.756-2.329-35.54,10.492-.952,15.557-.988,140.736-.156,141.477,20.062,17.833,44.953,38.872,63.219,52.093,13.601,9.124,28.84-.272,27.579,7.429-.045.603-.091,1.208-.136,1.811.138,9.47,4.84,18.455,12.585,23.863,16.925,12.691,33.859,25.393,50.79,38.091,10.141,8.891,24.855,6.203,37.167,6.356,10.727.577,127.554-86.177,149.292-109.89,2.717-2.964,3.058-7.032,4.563-11.884,8.215-26.488-12.965-78.661-24.239-103.426ZM327.497,170.852h-.215c-.654,11.562-8.251,20.92-19.119,22.999-13.988,2.676-30.914,1.931-47.283,1.211-13.738-.606-27.945-1.23-39.662.254l-1.293.159c-.036.004-.071.009-.107.013-3.329.402-6.202,2.509-7.602,5.556-.51,1.109-.946,2.073-1.134,2.504l-44.042,100.444c-1.253,2.881-4.079,4.768-7.202,4.809l-20.815.253c-4.021.046-7.328-3.211-7.375-7.258l-1.152-96.086c-.025-2.106-.667-5.196-5.928-7.711-9.711-4.639-28.021-2.286-33.561,1.761-3.372,2.462-9.26,9.333-14.456,15.395-8.615,10.052-14.124,16.321-18.641,18.444-3.778,1.776-7.666,1.616-10.789,1.488-.756-.032-1.506-.064-2.242-.064-3.984.004-7.262-3.251-7.307-7.253l.417-59.147v-55.444c.046-3.978,3.308-7.213,7.272-7.209.732,0,1.479-.032,2.231-.063,3.108-.128,6.977-.287,10.737,1.479,4.495,2.11,9.977,8.339,18.551,18.33,5.17,6.024,11.03,12.853,14.386,15.299,5.514,4.023,23.735,6.36,33.399,1.75,5.235-2.499,5.874-5.571,5.899-7.663l1.146-95.491c.047-4.021,3.338-7.259,7.339-7.213l20.714.252c3.107.04,5.92,1.916,7.167,4.779l43.83,99.822c.186.424.614,1.37,1.116,2.46,1.401,3.045,4.275,5.151,7.603,5.552.027.003.054.007.081.01l1.287.158c11.661,1.475,25.799.855,39.471.253,16.291-.715,33.135-1.456,47.055,1.204,11.163,2.132,18.882,11.965,19.09,23.964h.92c.021-.372.057-.738.063-1.115h.152s-.003,1.057-.004,1.034c0-.023.004.081.004.081Z" fill="#323232"/>
  <path d="M326.23,173.081c-.006.376-.042.743-.063,1.115h.215s-.003-.104-.004-.081c0,.023.004-1.034.004-1.034h-.152Z" fill="#323232"/>
</svg>