<?xml version="1.0" encoding="UTF-8"?>
<svg id="a" data-name="Layer 1" xmlns="http://www.w3.org/2000/svg" width="400" height="400" viewBox="0 0 400 400">
  <path d="M383.833,261.963l-.003-.093c-.092-4.401-.098-9.586-.16-14.096-.195-5.846.598-4.025-8.361-16.794-11.631-15.501-101.271-133.922-102.876-136.568-1.922-3.001-4.674-5.66-7.563-7.956-2.765-3.615-5.993-6.892-9.711-9.547-21.434-16.064-42.747-32.08-64.163-48.113-7.846-5.562-17.552-8.482-27.22-8.148-20.264.843-37.129,14.65-41.007,34.408-4.779,24.233.1,52.792-1.151,77.132-1.634,1.098-87.213,38.258-88.936,39.31-10.834,4.945-16.997,16.372-16.286,28.059.371,9.064-1.727,19.024,2.022,27.507,1.956,4.6,24.051,5.754,24.051,5.754l50.433,7.395c4.45.461,7.385,4.852,6.101,9.138-4.777,15.948-14.768,49.709-14.637,52.71-.185,7.635,2.437,15.243,7.828,20.72,23.487,18.347,47.294,36.469,71.629,53.615,3.668,1.853,7.821,2.85,11.934,2.9,12.493.189,105.826-.031,107.583,0,8.162-.09,15.696-3.885,20.646-9.782,17.064-16.646,81.394-100.437,79.849-107.553ZM281.692,217.879l-88.549,1.07c-1.94.023-4.789.62-7.106,5.506-4.275,9.019-2.107,26.024,1.623,31.17,2.269,3.131,8.601,8.601,14.187,13.426,9.264,8.001,15.041,13.117,16.997,17.313,1.637,3.509,1.489,7.119,1.371,10.02-.029.702-.059,1.398-.059,2.082.004,3.7-2.996,6.744-6.685,6.787l-53.48.646v.002h-.064s-.064,0-.064,0v-.002l-53.48-.646c-3.689-.042-6.689-3.087-6.685-6.787,0-.684-.029-1.38-.059-2.082-.118-2.901-.266-6.512,1.371-10.02,1.957-4.195,7.733-9.311,16.997-17.313,5.586-4.825,11.918-10.294,14.187-13.426,3.73-5.146,5.898-22.151,1.623-31.17-2.318-4.886-5.166-5.482-7.106-5.506l-88.549-1.07c-3.729-.043-6.731-3.115-6.689-6.849l.234-19.332c.037-2.9,1.777-5.525,4.432-6.689l92.565-40.904c.917-.404,4.467-2.039,6.208-2.905.769-1.467.927-2.775,1.231-5.307l.147-1.201c1.368-10.883.793-24.077.235-36.836-.663-15.203-1.35-30.923,1.116-43.914,1.977-10.418,11.095-17.622,22.222-17.816v-.007c.022,0,.042.003.064.004.022,0,.043-.003.064-.004v.007c11.127.194,20.245,7.397,22.222,17.816,2.466,12.991,1.78,28.711,1.116,43.914-.558,12.759-1.133,25.954.235,36.836l.147,1.201c.303,2.533.461,3.84,1.231,5.307,1.741.866,5.291,2.501,6.208,2.905l92.565,40.904c2.655,1.164,4.394,3.789,4.432,6.689l.234,19.332c.042,3.734-2.96,6.806-6.689,6.849Z" fill="#323232"/>
</svg>