<?xml version="1.0" encoding="UTF-8"?>
<svg id="a" data-name="Layer 1" xmlns="http://www.w3.org/2000/svg" width="400" height="400" viewBox="0 0 400 400">
  <path d="M332.483,176.801h0c-16.299-14.897-32.566-30.328-48.299-45.251-12.696-12.046-25.768-24.448-38.907-36.615-22.084-20.443-46.72-30.808-73.224-30.808-13.392,0-27.487,2.653-41.895,7.887-42.663,15.502-68.196,47.828-73.839,93.482-2.198,17.775-1.921,36.182-1.653,53.982.15,9.868.305,20.037.044,30.163-.523,20.419,6.165,38.479,19.88,53.676,9.361,10.37,19.312,20.546,28.934,30.387l.903.924c3.348,3.425,6.693,6.85,10.022,10.292,8.961,9.272,19.277,13.292,33.424,13.052,19.188-.425,38.53-.332,57.236-.242,7.965.038,15.931.075,23.896.075l24.494.008c22.686.028,40.112.02,56.499-.023,30.957-.076,38.084-7.363,38.129-38.988.016-10.877-.029-21.941-.073-32.641l-.003-.715c-.096-23.236-.194-47.263.307-70.923.334-15.75-4.562-27.384-15.875-37.722ZM257.19,282.9c-4.599,4.642-9.708,6.995-15.187,6.995-5.259,0-10.551-2.192-15.73-6.515-5.279-4.409-9.98-9.091-14.959-14.048l-.787-.783c-.918-.913-1.841-1.831-2.773-2.749-27.703,10.429-52.764,10.361-76.516-.201-3.739,2.419-6.844,5.72-10.114,9.197-2.475,2.634-5.023,5.345-7.974,7.796-5.461,4.542-19.56,13.617-32.474-.185-8.447-9.032-8.087-21.518.896-31.07,3.993-4.244,8.553-7.475,13.381-10.895.382-.27.765-.541,1.146-.812-19.163-26.713-25.417-52.258-19.674-80.193,4.655-22.632,16.696-41.509,35.79-56.106,35.875-27.442,88.015-24.865,121.278,5.997,35.631,33.065,39.105,80.181,9.655,129.514.528.445,1.055.886,1.578,1.324l.192.162c4.499,3.77,8.712,7.301,12.468,11.607,8.809,10.096,8.732,21.962-.197,30.966Z" fill="#060606"/>
  <g>
    <path d="M95.034,53.947c-.496-2.039-3.002-6.003-7.871-8.572-5.835-3.077-11.336-2.305-16.075,2.175-9.893,9.333-21.481,20.481-32.421,32.401-8.002,8.726-4.746,15.918-.605,20.414,2.992,3.251,6.469,4.875,10.12,4.875,3.809,0,7.807-1.765,11.644-5.288,9.136-8.388,17.923-17.47,26.42-26.252l4.66-4.809c2.409-2.482,4.918-5.859,4.191-14.561l-.062-.383Z"/>
    <path d="M301.024,80.029c-8.018-8.937-16.783-17.492-25.275-25.78-2.318-2.261-4.637-4.527-6.944-6.802-2.689-2.643-6.313-4.267-11.041-4.958l-.692-.112-.673.167c-6.476,1.59-10.494,4.438-12.646,8.96-2.997,6.294-2.068,12.449,2.616,17.331,10.298,10.732,20.947,21.83,32.321,32.303,3.715,3.416,7.509,5.147,11.274,5.147,3.596,0,7.068-1.563,10.321-4.645,6.611-6.26,6.901-14.743.739-21.612Z"/>
  </g>
  <path d="M207.627,185.808c-.688-7.527-4.719-11.831-11.979-12.792-3.213-.427-6.496-.547-10.652-.699l-.104-.004c-2.203-.079-4.647-.168-7.448-.311l-1.29-.068v-1.29c0-3.35.04-6.588.079-9.78.086-6.82.166-13.263-.183-19.652-.556-10.235-6.022-16.846-14.252-17.251-3.801-.208-7.232,1.024-9.943,3.482-3.181,2.888-5.064,7.327-5.305,12.5-.687,14.799-.432,29.533-.055,45.879v.002c.162,6.819,3.358,14.379,11.841,15.147,5.986.543,12.171.815,18.515.815s12.863-.272,19.485-.817c3.919-.328,6.484-2.47,7.947-4.21,2.454-2.921,3.704-7.014,3.345-10.951Z"/>
</svg>