<?xml version="1.0" encoding="UTF-8"?>
<svg id="a" data-name="Layer 1" xmlns="http://www.w3.org/2000/svg" width="400" height="400" viewBox="0 0 400 400">
  <path d="M398.862,226.144l-.323-.694c-9.569-19.583-19.899-40.57-30.577-61.338l-.608-1.228c-1.89-3.832-4.031-8.175-7.29-10.94l-.164-.128c-28.553-20.358-84.938-60.531-125.301-89.287l-40.478-28.841c-5.375-4.974-12.583-6.688-18.408-4.363-5.38,2.147-8.685,7.24-9.068,13.971l-.004.13c-.034,8.376-.027,20.793-.021,31.747.004,6.791.008,13.085,0,17.65-.095,1.391-.034,2.557.016,3.498.008.143.015.295.022.446-10.412.034-57.856.026-96.504.019-26.417-.005-49.232-.01-53.773.002-4.124.081-9.718,2.19-13.057,7.863l-.074.135c-2.516,4.959-2.304,9.6-2.081,14.514.109,2.395.222,4.871.004,7.473l-.009.187c-.028,3.586-.069,7.643-.113,12.013-.439,43.414-.566,79.846,2.34,85.974,6.127,12.404,12.568,25.31,18.797,37.792,4.586,9.188,9.158,18.345,13.614,27.323,3.451,13.547,29.628,13.339,59.921,13.096,5.12-.041,10.414-.082,15.664-.056,7.196-.073,15.765-.399,24.05-.715,13.207-.504,26.857-1.023,35.762-.57,2.772.641,5.361,6.494,7.259,10.785,1.005,2.273,1.955,4.421,2.937,6.022,1.563,2.729,3.534,7.237,5.817,12.457,7.801,17.842,17.405,39.806,29.649,39.805.711,0,1.431-.074,2.161-.228l.433-.134c10.151-4.187,73.123-49.974,123.723-86.764,25.399-18.467,47.334-34.416,51.685-37.086l.141-.094c5.756-4.099,7.608-13.992,3.853-20.435ZM23.423,215.064l-.005-91.582,165.256.004v-62.326l151.57,107.741-151.574,108.439v-62.276H23.423Z"/>
</svg>