<?xml version="1.0" encoding="UTF-8"?>
<svg id="a" data-name="Layer 1" xmlns="http://www.w3.org/2000/svg" width="400" height="400" viewBox="0 0 400 400">
  <path d="M153.116,117.784c0,8.775,7.113,15.888,15.888,15.888s15.888-7.113,15.887-15.888c0-8.774-7.113-15.888-15.887-15.888-8.771.009-15.879,7.117-15.888,15.888Z" fill="none"/>
  <path d="M236.545,258.602l-27.489-11.271c-2.403-1.05-4.86-1.947-7.287-2.93-19.334-6.312-39.008-11.533-58.928-15.641-16.362-3.589-33.059-5.43-49.81-5.49h-.297c-5.295,5.261-10.105,10.988-14.371,17.112.687-.062,1.411-.12,2.172-.173.69-.042,1.284.484,1.327,1.174.042.682-.47,1.271-1.151,1.325-1.558.108-2.959.242-4.194.38-13.981,20.375-21.681,44.402-22.147,69.108h96.893v-28.175c0-2.767,2.242-5.009,5.009-5.009s5.009,2.243,5.009,5.009v28.175h87.642c.881-17.357-2.263-34.683-9.186-50.623l-3.191-2.97ZM94.408,241.241c.086-.649.681-1.105,1.33-1.018,3.377.244,6.739.668,10.072,1.269.596.108,1.029.627,1.028,1.233,0,.692-.562,1.252-1.253,1.252-.075,0-.15-.007-.225-.02-3.245-.586-6.519-.999-9.807-1.235-.002,0-.004,0-.006,0-.688-.053-1.202-.652-1.149-1.34,0-.048.004-.094.01-.141ZM127.054,293.12c-.007,5.446-4.42,9.86-9.866,9.866h-31.61c-5.446-.007-9.86-4.42-9.866-9.866v-10.321c.007-5.446,4.42-9.86,9.866-9.866h31.61c5.446.007,9.86,4.42,9.866,9.866v10.321ZM129.074,252.313c-.22,0-.435-.057-.626-.166-2.843-1.631-5.806-3.044-8.863-4.226-.007-.003-.014-.005-.02-.008-.642-.256-.955-.985-.698-1.627.256-.642.985-.955,1.628-.698,3.174,1.229,6.251,2.696,9.206,4.388.388.224.627.637.627,1.085,0,.692-.56,1.253-1.252,1.254ZM148.322,268.65c-.561.406-1.344.282-1.751-.279-1.924-2.641-4.066-5.118-6.403-7.403-.483-.482-.492-1.262-.019-1.754.479-.499,1.272-.515,1.771-.036,2.436,2.382,4.669,4.964,6.677,7.716.002.002.003.004.005.006.406.56.281,1.344-.279,1.75ZM209.257,294.823c-.001,7.363-5.971,13.331-13.334,13.329s-13.331-5.971-13.33-13.334c.002-7.363,5.972-13.331,13.335-13.33,7.359.008,13.323,5.973,13.329,13.332v.002Z" fill="none"/>
  <path d="M201.543,157.42c-.528.446-1.318.379-1.763-.149-.446-.528-.379-1.318.149-1.763,1.488-1.257,2.696-2.324,3.764-3.283l-17.35-15.331c-10.509,9.63-26.834,8.918-36.464-1.591-9.63-10.509-8.918-26.834,1.591-36.464,1.46-1.338,3.068-2.503,4.794-3.472-1.273-1.365-2.526-2.813-3.74-4.381-.42-.551-.313-1.338.237-1.757.547-.416,1.326-.315,1.749.226,1.266,1.626,2.617,3.183,4.048,4.665,9.366-4.209,20.343-2.392,27.853,4.61,26.973-17.049,57.377-27.933,89.042-31.875-18.128-25.19-47.255-40.136-78.29-40.172-.851,0-1.703,0-2.554.05-21.498.601-42.159,8.458-58.625,22.292.372,1.398.828,3.032,1.391,4.887.202.661-.171,1.36-.832,1.561-.001,0-.003,0-.004.001-.117.036-.239.054-.362.054-.551,0-1.037-.361-1.198-.888-.417-1.373-.775-2.625-1.087-3.756-39.625,34.76-43.569,95.062-8.808,134.687.849.968,1.718,1.918,2.605,2.851,6.53,6.871,14.036,12.743,22.276,17.427,15.636,3.342,32.157,7.454,48.254,12.384,20.866-.119,41.105-7.15,57.55-19.993l-50.186-44.347c-1.124,1.013-2.413,2.154-4.039,3.527ZM140.778,67.27c.639-.264,1.371.04,1.635.679,1.321,3.143,2.735,6.168,4.202,8.99.319.613.08,1.369-.533,1.688-.613.319-1.369.08-1.688-.533-1.502-2.881-2.945-5.97-4.29-9.176-.002-.004-.003-.008-.005-.012-.264-.639.04-1.371.679-1.635ZM144.345,188.709c-3.304.78-6.655,1.342-10.033,1.685l-.122.005c-.644,0-1.183-.489-1.247-1.13-.067-.689.436-1.302,1.125-1.37,3.269-.33,6.512-.874,9.71-1.629.014-.003.027-.006.04-.009.664-.144,1.318.278,1.462.941.158.674-.26,1.348-.934,1.507ZM168.045,179.876c-3.091,1.553-6.188,2.959-9.211,4.18-.15.059-.309.09-.47.091-.509,0-.967-.31-1.159-.782-.261-.641.048-1.372.689-1.633,2.959-1.193,5.997-2.571,9.025-4.092.617-.311,1.369-.062,1.68.555.311.617.062,1.369-.555,1.68ZM189.592,166.729c-2.754,1.974-5.567,3.874-8.369,5.652-.2.128-.433.196-.67.196-.429,0-.829-.22-1.058-.582-.37-.584-.196-1.357.388-1.727,2.759-1.754,5.537-3.63,8.252-5.574.562-.403,1.344-.273,1.746.289.402.562.273,1.344-.289,1.746Z" fill="none"/>
  <path d="M275.956,78.487c-26.667,2.476-52.458,10.808-75.533,24.402-1.146-1.137-1.544,8.584-1.775,15.945-.168,5.374-.15,16.814.716,16.069,0,0,64.904,52.764,64.784,52.111,30.122-25.947,38.036-69.405,18.995-104.305.089-.165-7.85-5.557-7.186-4.221ZM263.032,177.437c-10.786-8.553-37.773-30.403-57.478-46.419-.132-2.847-.157-7.738-.032-11.701.178-5.738.372-9.135.545-11.131,20.872-11.833,44.362-19.341,68.223-21.799.77.482,1.661,1.069,2.353,1.543,15.347,29.557,9.6,66.039-13.611,89.506Z" fill="none"/>
  <path d="M140.104,68.917c1.345,3.207,2.788,6.296,4.29,9.176.318.613,1.074.852,1.688.533.613-.319.852-1.074.533-1.688-1.467-2.822-2.881-5.847-4.202-8.99-.264-.639-.996-.943-1.635-.679s-.943.996-.679,1.635c.002.004.003.008.005.012Z" fill="#323232"/>
  <path d="M188.135,164.694c-2.715,1.944-5.493,3.82-8.252,5.574-.584.37-.758,1.143-.388,1.727.23.363.629.582,1.058.582.237,0,.47-.068.67-.196,2.803-1.778,5.615-3.678,8.369-5.652.562-.403.691-1.184.289-1.746-.403-.562-1.184-.691-1.746-.289Z" fill="#323232"/>
  <path d="M166.92,177.64c-3.028,1.521-6.066,2.898-9.025,4.092-.641.261-.95.992-.689,1.633.192.472.65.781,1.159.782.161,0,.32-.031.47-.091,3.023-1.221,6.119-2.627,9.211-4.18.617-.311.866-1.063.555-1.68-.311-.617-1.063-.866-1.68-.555Z" fill="#323232"/>
  <path d="M148.596,266.894c-2.008-2.752-4.241-5.334-6.677-7.716-.499-.479-1.292-.463-1.771.036-.472.492-.464,1.272.019,1.754,2.337,2.285,4.479,4.762,6.403,7.403.406.561,1.19.686,1.751.279.56-.406.685-1.19.279-1.75-.001-.002-.003-.004-.005-.006Z" fill="#323232"/>
  <path d="M143.817,186.262c-.013.003-.026.006-.04.009-3.198.755-6.441,1.299-9.71,1.629-.689.068-1.192.681-1.125,1.37.064.641.603,1.129,1.247,1.13l.122-.005c3.377-.343,6.729-.905,10.033-1.685.674-.158,1.092-.832.934-1.507-.144-.663-.798-1.085-1.462-.941Z" fill="#323232"/>
  <path d="M95.547,242.722s.004,0,.006,0c3.288.237,6.563.649,9.807,1.235.075.012.15.019.225.02.692,0,1.253-.56,1.253-1.252,0-.606-.432-1.125-1.028-1.233-3.332-.601-6.694-1.025-10.072-1.269-.648-.086-1.244.37-1.33,1.018-.006.047-.01.093-.01.141-.053.687.462,1.287,1.149,1.34Z" fill="#323232"/>
  <path d="M117.188,272.933h-31.61c-5.446.007-9.86,4.42-9.866,9.866v10.321c.007,5.446,4.42,9.859,9.866,9.866h31.61c5.446-.007,9.86-4.42,9.866-9.866v-10.321c-.007-5.446-4.42-9.86-9.866-9.866Z" fill="#323232"/>
  <path d="M129.7,249.974c-2.954-1.692-6.031-3.159-9.206-4.388-.642-.257-1.371.056-1.628.698-.257.642.056,1.371.698,1.627.006.003.013.006.02.008,3.057,1.183,6.02,2.595,8.863,4.226.191.109.407.166.626.166.692,0,1.253-.562,1.252-1.254,0-.447-.239-.861-.627-1.085Z" fill="#323232"/>
  <path d="M195.927,281.488c-7.363-.001-13.333,5.967-13.335,13.33-.001,7.363,5.967,13.333,13.33,13.334s13.333-5.966,13.334-13.329v-.002c-.006-7.36-5.97-13.324-13.329-13.332Z" fill="#323232"/>
  <path d="M358.175,129.401c.1-.2.25-.401.351-.601,1.409-3.148,1.047-6.807-.952-9.617-7.042-9.958-78.785-65.479-80.489-66.681-.908-.725-1.854-1.395-2.784-2.088-18.497-19.71-43.975-31.771-71.333-33.271-32.864-1.802-63.042,11.597-83.71,34.068-16.65,17.565-27.434,40.861-28.864,66.92-1.671,29.07,8.795,57.53,28.902,78.591,1.461,1.54,3.021,2.942,4.569,4.36-10.301-1.833-19.788-3.337-27.766-4.483-3.136-.467-6.328.358-8.844,2.287-.333.251-.651.519-.956.803-.226.211-.391.458-.597.682-.178.148-.363.288-.532.447-4.771,4.457-5.024,11.938-.567,16.709-27.127,26.629-42.077,63.263-41.328,101.268.085,2.705,77.828,61.205,80.144,61.206h204.223c2.613,0,4.788-2.008,4.994-4.613,1.69-19.199-1.113-38.527-8.187-56.454,2.353-.881,4.361-2.496,5.727-4.605,1.763-2.804,2.292-6.212,1.463-9.419-.805-3.158-24.36-21.63-25.803-22.406-.439-.233-1.915-1.26-2.207-1.563,11.658-3.729,22.605-9.453,32.305-16.999,2.252-1.751,3.61-4.412,3.707-7.263.035-.79-.033-1.581-.2-2.354,34.904-32.023,42.71-84.071,18.733-124.924ZM248.735,312h-87.485v-28.017c0-2.407-1.611-4.621-3.971-5.093-3.212-.642-6.029,1.804-6.029,4.91v28.199H54.531c.465-24.727,8.152-48.774,22.107-69.167,1.233-.138,2.631-.272,4.186-.38.679-.054,1.19-.644,1.149-1.326-.042-.691-.635-1.217-1.324-1.175-.759.054-1.482.111-2.168.174,4.259-6.129,9.06-11.861,14.346-17.125h.297c16.721.059,33.388,1.901,49.721,5.494,19.884,4.111,39.522,9.337,58.822,15.654,2.423.984,4.875,1.881,7.274,2.932l27.44,11.281,3.185,2.973c6.911,15.954,10.049,33.295,9.17,50.667ZM198.218,218.234c-16.097-4.93-32.618-9.042-48.254-12.384-8.24-4.684-15.746-10.556-22.276-17.427-.888-.933-1.756-1.884-2.605-2.851-34.76-39.625-30.816-99.927,8.808-134.687.312,1.131.67,2.383,1.087,3.756.161.527.647.887,1.198.888.123,0,.245-.018.362-.054.002,0,.003,0,.004-.001.661-.202,1.034-.9.832-1.561-.564-1.855-1.019-3.489-1.391-4.887,16.466-13.834,37.127-21.691,58.625-22.292.852-.05,1.703-.05,2.554-.05,31.035.036,60.162,14.982,78.29,40.172-31.665,3.942-62.069,14.826-89.042,31.875-7.51-7.003-18.487-8.819-27.853-4.61-1.431-1.483-2.782-3.04-4.048-4.665-.422-.542-1.202-.643-1.749-.226-.551.42-.657,1.206-.237,1.757,1.214,1.568,2.467,3.015,3.74,4.381-1.726.97-3.335,2.135-4.794,3.472-10.509,9.63-11.221,25.956-1.591,36.464,9.63,10.509,25.955,11.221,36.464,1.591l17.35,15.331c-1.069.959-2.276,2.026-3.764,3.283-.528.446-.595,1.235-.149,1.763.446.528,1.235.595,1.763.149,1.626-1.373,2.914-2.514,4.039-3.527l50.186,44.347c-16.445,12.844-36.684,19.875-57.55,19.993ZM184.891,117.784c0,8.775-7.113,15.888-15.887,15.888s-15.888-7.113-15.888-15.888c.01-8.771,7.117-15.878,15.888-15.888,8.775,0,15.887,7.113,15.887,15.888ZM264.147,187.013c.121.653-64.784-52.111-64.784-52.111-.866.745-.884-10.694-.716-16.069.23-7.361.629-17.082,1.775-15.945,23.074-13.594,48.866-21.926,75.533-24.402-.664-1.336,7.276,4.056,7.186,4.221,19.041,34.9,11.127,78.358-18.995,104.305Z" fill="#323232"/>
  <path d="M274.29,86.387c-23.861,2.458-47.351,9.967-68.223,21.799-.174,1.996-.367,5.393-.545,11.131-.125,3.962-.1,8.854.032,11.701,19.706,16.015,46.693,37.866,57.478,46.419,23.211-23.467,28.958-59.949,13.611-89.506-.692-.475-1.582-1.061-2.353-1.543Z" fill="#323232"/>
</svg>