<?xml version="1.0" encoding="UTF-8"?>
<svg id="a" data-name="Layer 1" xmlns="http://www.w3.org/2000/svg" width="400" height="400" viewBox="0 0 400 400">
  <path d="M334,109.644c-36.236-37.776-33.569-40.692-38.176-43.76-.874-.582-1.888-.884-2.925-.884h-91.791c-3.019,0-5.466,2.551-5.466,5.698v78.298c0,3.059-2.319,5.529-5.249,5.697-11.661.666-23.039-.141-35.452-.355-3-.052-5.418-2.57-5.418-5.698v-29.864c0-3.147-2.447-5.698-5.466-5.698h-74.718c-3.019,0-5.466,2.551-5.466,5.698v201.7c0,12.533,9.746,22.692,21.767,22.692h241.771M81.72,292.81l-1.327-156.812c-.027-3.166,2.428-5.748,5.466-5.748h38.437c3.017,0,5.464,2.549,5.466,5.694l.093,156.812c.002,3.148-2.446,5.701-5.466,5.701h-37.203c-3,0-5.439-2.521-5.466-5.648ZM192.677,294.926h-38.082c-3.019,0-5.466-2.551-5.466-5.698v-108.81c0-3.154,2.477-5.708,5.502-5.696,15.045.059,26.298-.283,38.894.008,2.995.069,5.395,2.618,5.373,5.741l-.755,108.798c-.022,3.131-2.462,5.657-5.466,5.657ZM262.65,295.09h-38.482c-3.019,0-5.466-2.551-5.466-5.698V94.737c0-3.147,2.447-5.698,5.466-5.698h38.482c3.019,0,5.466,2.551,5.466,5.698v194.655c0,3.147-2.447,5.698-5.466,5.698Z"/>
</svg>