<?xml version="1.0" encoding="UTF-8"?>
<svg id="a" data-name="Layer 1" xmlns="http://www.w3.org/2000/svg" width="398.274" height="411.774" viewBox="0 0 398.274 411.774">
  <path d="M247.807,247.961l.065-.24c.125-.457.403-1.474.349-1.907-.781-.418-1.899-.269-3.567-.002-.716.115-1.456.233-2.232.292-1.674.211-3.323.346-4.901.405-5.743.242-11.768-.572-17.896-2.418l-.294-.081c-1.204-.334-2.449-.677-3.359-.466l-.046.013c-.9.255-1.205,1.767-1.484,3.569l-.009.058c-1.599,10.969-4.043,27.836-5.927,40.837l-1.97,13.574c-.28,1.809-.314,2.73.252,3.072,1.039.637,2.37.644,4.054.653.381.002.769.004,1.163.014,1.334.003,2.693.005,4.068.006h.773c2.367.004,4.842.007,7.133,0,.37-.006.759-.007,1.144-.009,1.636-.006,3.181-.012,4.414-.391l.076-.022c1.422-.373,2.257-1.575,2.882-4.15l.022-.081,3.987-13.745c3.893-13.419,8.853-30.516,11.302-38.98Z" fill="none"/>
  <path d="M165.438,248.662c.415,2.904.898,6.23,1.413,9.775l.83,5.723c.849,5.831,1.703,11.724,2.504,17.251,1.139,7.853,2.17,14.969,2.927,20.13.198,1.328.437,2.197,1.068,2.696,1.487,1.111,4.024,1.057,6.477,1.005.953-.021,1.936-.042,2.887.005.845-.037,1.732-.02,2.67-.004,2.813.051,6.003.109,7.342-1.433.532-.639.747-1.743.935-2.912,1.169-7.34,2.912-19.584,4.597-31.425,1.066-7.486,2.072-14.557,2.849-19.785.184-1.275.414-2.864-.013-3.772-.837-1.298-2.784-1.014-5.647-.435-.868.176-1.689.342-2.481.425-7.382,1.148-14.893,1.113-22.326-.104-.557-.072-1.135-.177-1.694-.278-1.457-.266-3.106-.565-4.131-.186l-.01.005c-.527.261-.412,1.591-.23,3.047l.034.272Z" fill="none"/>
  <path d="M135.262,301.131c.41,1.33.888,2.884,1.82,3.466l.071.045c1.241.736,3.1.74,5.253.745.561.001,1.131.003,1.707.017,1.375.001,2.802.002,4.227,0h3.204s1.488,0,1.488,0c1.367-.002,2.721.001,4.051-.02.942-.016,2.906-.049,3.741-.775.308-.276.146-1.447.039-2.222-1.272-8.857-4.298-29.757-6.484-44.856l-1.687-11.648c-.137-.93-.322-2.191-.779-2.652-1.152-.751-3.263-.029-5.307.669-1.058.362-2.151.735-3.198.93-5.938,1.547-12.099,2.028-18.315,1.429-.431-.024-.906-.076-1.408-.13-1.05-.114-3.51-.379-4.021.115-.023.022-.062.138-.06.368,2.067,7.915,5.911,21.046,9.629,33.748,2.229,7.615,4.335,14.806,6.029,20.772Z" fill="none"/>
  <path d="M269.363,213.346l.034-.085c4.78-11.059,1.772-21.365-1.593-28.063-4.318-8.595-11.848-16.44-20.66-21.524-1.477-.876-3.07-1.529-4.755-2.22-2.21-.906-4.495-1.843-6.556-3.324-2.758-1.976-4.573-4.721-6.328-7.375-.428-.648-.855-1.294-1.293-1.922-4.459-6.519-10.321-12.108-16.962-16.175-1.915-1.131-5.528-3.267-6.702-2.62-.391.216-.831,1.166-.891,3.188-.137,2.53-.099,5.077-.062,7.541l.003.218c.057,2.553.494,4.063,1.46,5.036.488.488,1.162.962,1.876,1.463,1.952,1.371,4.381,3.077,4.483,6.359.072,1.571-.413,2.96-1.405,3.989-2.139,2.22-6.03,2.192-8.606,2.166h-.158c-4.157,0-8.089.002-12.138,0h-1.82c-5.45-.006-11.481-.002-17.176.006-.999-.023-2.006-.01-2.979.002-2.058.025-4.184.052-6.195-.224-2.108-.239-3.785-1.418-4.604-3.239-.845-1.88-.599-4.067.657-5.856.96-1.449,2.311-2.352,3.504-3.149,1.119-.748,2.085-1.394,2.528-2.313.871-1.69.856-4.228.841-6.682-.004-.685-.008-1.357.006-2l-.005-.755c-.01-1.978-.025-5.289-.869-6.172-.65-.664-2.886-.48-9.743,4.26-.403.278-.761.526-1.063.727-5.216,3.843-9.799,8.703-13.621,14.444-.373.55-.729,1.098-1.088,1.651-1.867,2.875-3.799,5.848-7.004,7.696l-.084.049c-2.247,1.292-4.681,1.911-7.035,2.509-.974.248-1.893.482-2.792.758-16.764,4.668-28.216,23.172-25.578,41.262,1.403,11.824,8.76,22.318,19.686,28.123,10.986,5.836,23.871,6.057,34.467.594l.169-.077c2.563-1.019,4.575-1.488,6.526-1.521.109-.003.219-.004.329-.004,1.581,0,3.266.282,5.256.88l.163.057c13.686,5.513,27.911,6.204,40.054,1.947l.856-.314c5.752-2.112,10.72-3.937,17.418-.913,9.507,4.413,20.257,5.135,28.775,1.942,9.386-3.233,17.097-10.83,20.675-20.339ZM171.728,196.464c-.843,1.329-2.325,2.252-4.046,2.501-.313.046-.627.068-.94.068-1.506,0-2.971-.518-4.049-1.458-2.314-1.942-2.664-5.941-.705-8.367.95-1.225,2.507-2.024,4.248-2.162,1.799-.143,3.512.417,4.708,1.536l.098.095c1.925,1.869,2.241,5.436.686,7.786ZM188.038,196.464c-.843,1.329-2.325,2.252-4.046,2.501-.313.046-.627.068-.94.068-1.506,0-2.971-.518-4.049-1.458-2.314-1.942-2.664-5.941-.705-8.367.95-1.225,2.507-2.024,4.248-2.162,1.798-.143,3.512.417,4.708,1.536l.098.095c1.925,1.869,2.241,5.436.686,7.786Z" fill="none"/>
  <path d="M177.371,131.39c-.018,3.626-.037,7.375-.002,10.634.01.324.014.694.017,1.068.014,1.642.029,3.341.788,3.966.753.622,2.027.727,3.267.781l.441.008c1.862.039,3.787.078,5.522-.13,1.748-.183,2.541-1.04,2.595-2.779-.004-2.44.023-4.973.053-7.653.068-6.179.137-12.568-.198-18.029-.133-.768-.579-2.31-5.327-2.193-.483.015-1.019.014-1.579.012-1.639-.013-3.876-.014-4.797.601-.856.776-.79,3.778-.751,5.578.019.875.037,1.702-.007,2.429-.002,1.855-.011,3.778-.021,5.706Z" fill="none"/>
  <path d="M183.481,50.29c-.526-.01-1.3.651-2.102,1.807-3.906,6.257-6.541,12.713-7.85,19.226,2.352-4.323,5.553-10.05,10.14-10.432,2.334-.201,4.539,1.016,6.56,3.599,1.131,1.443,2.125,3.063,3.026,4.679-1.211-4.314-3.508-9.66-6.699-15.462-1.735-3.116-2.793-3.403-3.076-3.416Z" fill="none"/>
  <path d="M332.676,248.24l-.052-.18c-.369-1.224-.903-2.357-1.42-3.452-.808-1.713-1.572-3.331-1.542-4.995v-.039s0-.039,0-.039c-.023-.995.152-2.042.337-3.151.204-1.227.416-2.496.361-3.728-.041-2.148-.758-4.268-2.192-6.482l-.037-.055c-8.127-11.65-26.019-34.722-34.618-45.81-1.845-2.378-3.224-4.157-3.962-5.121-.689-.852-1.172-1.261-2.251-1.907-.974-.579-2.504-1.356-4.836-2.511-9.803-4.734-16.672-9.562-20.443-14.384-11.924-14.555-5.442-49.359-5.442-49.359.037-.274.081-.544.125-.812.185-1.132.393-2.409.038-3.703-.43-2.641-5.335-7.546-20.315-21.454-4.839-4.492-9.409-8.735-12.475-11.847l-.047-.046c-2.376-2.248-4.86-4.755-7.491-7.408-2.945-2.97-5.99-6.042-8.954-8.806-6.347-5.725-18.041-15.407-25.012-15.923-.499-.047-.97-.036-1.42.02l-3.77,1.639s-18.625,26.748-17.257,39.837c.403,5.863,3.327,11.578,8.936,17.467.524.652,5.308,5.611,5.238,6.888-.007.136-.027.495-.657,1.028-.594.449-1.534.778-2.528,1.127-1.366.478-2.914,1.02-4.151,2.093-1.659,1.361-2.488,3.231-3.289,5.041-.68,1.536-1.322,2.986-2.401,3.91l-.083.076c-1.171,1.13-2.768,1.955-4.415,2.759-11.242,5.296-20.522,12.626-27.585,21.787l-.037.049c-3.104,4.305-6.094,7.507-10.582,9.128-13.735,3.793-25.349,13.26-31.873,25.983-6.438,12.556-7.343,27.271-2.5,40.326,3.068,8.944,9.358,15.767,15.441,22.366,1.11,1.205,2.258,2.45,3.358,3.679,1.262,1.599,2.296,3.796,3.075,6.533,2.174,7.617,4.804,16.796,7.507,26.227,3.385,11.815,6.884,24.026,9.743,34.063l.236.826c.612,2.147,1.244,4.365,2.328,6.42,1.329,2.558,3.39,4.736,5.222,6.581,3.618,3.618,7.237,7.242,10.858,10.867,9.375,9.386,19.069,19.092,28.606,28.571,1.521,1.518,3.194,3.057,5.087,4.014,2.79,1.473,5.771,1.458,8.393,1.436,10.585-.019,95.062.02,99.856-.042,3.723-.123,6.129-2.53,7.153-7.154l2.402-8.418c4.601-16.135,12.298-43.126,16.831-58.497.443-1.211,1.019-2.271,1.769-3.254.838-1.119,1.959-2.176,2.926-3.063,3.081-2.749,5.603-5.35,7.708-7.947,2.94-3.609,5.32-7.431,7.091-11.4,2.323-5.556,4.764-12.822,3.009-19.755ZM232.495,300.767c-.625,2.575-1.46,3.778-2.882,4.15l-.076.022c-1.233.379-2.778.385-4.414.391-.385.002-.774.003-1.144.009-2.291.007-4.765.005-7.133.002h-.773c-1.375-.003-2.734-.004-4.068-.007-.395-.01-.783-.012-1.163-.014-1.685-.009-3.015-.016-4.054-.653-.566-.343-.532-1.263-.252-3.072l1.97-13.574c1.883-13,4.327-29.868,5.927-40.837l.009-.058c.279-1.801.584-3.313,1.484-3.569l.046-.013c.91-.211,2.156.132,3.359.466l.294.081c6.128,1.846,12.153,2.659,17.896,2.418,1.579-.058,3.227-.194,4.901-.405.776-.058,1.516-.177,2.232-.292,1.668-.267,2.785-.416,3.567.002.054.433-.224,1.45-.349,1.907l-.065.24c-2.449,8.464-7.409,25.561-11.302,38.98l-3.987,13.745-.022.081ZM119.664,246.243c.511-.494,2.97-.228,4.021-.115.502.054.978.106,1.408.13,6.216.599,12.378.118,18.315-1.429,1.046-.195,2.14-.569,3.198-.93,2.044-.698,4.155-1.42,5.307-.669.457.46.643,1.722.779,2.652l1.687,11.648c2.186,15.099,5.212,35.999,6.484,44.856.107.775.269,1.946-.039,2.222-.835.726-2.799.759-3.741.775-1.33.021-2.684.018-4.051.02h-1.488s-3.204,0-3.204,0c-1.425.002-2.852,0-4.227,0-.576-.014-1.146-.016-1.707-.017-2.153-.004-4.013-.008-5.253-.745l-.071-.045c-.932-.582-1.41-2.135-1.82-3.466-1.694-5.966-3.8-13.157-6.029-20.772-3.718-12.701-7.562-25.832-9.629-33.748-.002-.229.037-.345.06-.368ZM165.634,245.342l.01-.005c1.024-.38,2.674-.08,4.131.186.559.101,1.137.206,1.694.278,7.433,1.217,14.944,1.252,22.326.104.792-.083,1.613-.25,2.481-.425,2.863-.579,4.81-.864,5.647.435.427.909.197,2.498.013,3.772-.777,5.228-1.783,12.299-2.849,19.785-1.686,11.841-3.429,24.085-4.597,31.425-.188,1.169-.402,2.273-.935,2.912-1.339,1.542-4.528,1.484-7.342,1.433-.938-.016-1.826-.033-2.67.004-.95-.047-1.934-.026-2.887-.005-2.452.052-4.99.106-6.477-1.005-.631-.499-.87-1.368-1.068-2.696-.757-5.161-1.789-12.277-2.927-20.13-.801-5.527-1.656-11.419-2.504-17.251l-.83-5.723c-.515-3.545-.998-6.871-1.413-9.775l-.034-.272c-.181-1.456-.297-2.786.23-3.047ZM219.912,231.743c-6.698-3.024-11.666-1.199-17.418.913l-.856.314c-12.143,4.257-26.368,3.566-40.054-1.947l-.163-.057c-1.99-.598-3.675-.88-5.256-.88-.11,0-.22.001-.329.004-1.951.032-3.964.501-6.526,1.521l-.169.077c-10.596,5.463-23.481,5.242-34.467-.594-10.926-5.804-18.283-16.299-19.686-28.123-2.638-18.091,8.814-36.595,25.578-41.262.899-.277,1.819-.511,2.792-.758,2.354-.598,4.788-1.217,7.035-2.509l.084-.049c3.206-1.847,5.137-4.82,7.004-7.696.359-.552.715-1.101,1.088-1.651,3.822-5.741,8.404-10.6,13.621-14.444.302-.202.661-.449,1.063-.727,6.857-4.74,9.093-4.924,9.743-4.26.843.883.859,4.195.869,6.172l.005.755c-.014.643-.01,1.315-.006,2,.015,2.454.03,4.992-.841,6.682-.443.919-1.409,1.565-2.528,2.313-1.193.797-2.544,1.7-3.504,3.149-1.256,1.789-1.502,3.976-.657,5.856.819,1.821,2.496,3,4.604,3.239,2.011.276,4.137.249,6.195.224.973-.012,1.98-.025,2.979-.002,5.696-.007,11.726-.012,17.176-.006h1.82c4.049.002,7.982,0,12.138-.001h.158c2.576.027,6.467.056,8.606-2.165.992-1.03,1.477-2.419,1.405-3.989-.101-3.282-2.531-4.988-4.483-6.359-.714-.501-1.388-.975-1.876-1.463-.967-.973-1.404-2.482-1.46-5.036l-.003-.218c-.037-2.464-.076-5.011.062-7.541.06-2.021.5-2.972.891-3.188,1.174-.647,4.787,1.489,6.702,2.62,6.641,4.068,12.503,9.656,16.962,16.175.438.629.865,1.274,1.293,1.922,1.755,2.655,3.57,5.399,6.328,7.375,2.062,1.48,4.347,2.417,6.556,3.324,1.686.691,3.278,1.344,4.755,2.22,8.812,5.084,16.343,12.929,20.66,21.524,3.365,6.699,6.374,17.005,1.593,28.063l-.034.085c-3.578,9.509-11.29,17.106-20.675,20.339-8.518,3.193-19.268,2.47-28.775-1.942ZM177.399,123.256c-.039-1.8-.104-4.802.751-5.578.921-.615,3.158-.614,4.797-.601.56.002,1.096.003,1.579-.012,4.749-.118,5.194,1.425,5.327,2.193.336,5.461.266,11.85.198,18.029-.029,2.68-.057,5.212-.053,7.653-.054,1.74-.847,2.596-2.595,2.779-1.735.208-3.66.169-5.522.13l-.441-.008c-1.24-.055-2.514-.16-3.267-.781-.759-.626-.774-2.324-.788-3.966-.003-.374-.007-.745-.017-1.068-.035-3.259-.016-7.008.002-10.634.01-1.928.019-3.851.021-5.706.044-.727.026-1.554.007-2.429ZM190.23,64.489c-2.022-2.583-4.226-3.8-6.56-3.599-4.587.382-7.789,6.109-10.14,10.432,1.31-6.513,3.944-12.969,7.85-19.226.801-1.156,1.576-1.817,2.102-1.807.283.013,1.341.3,3.076,3.416,3.191,5.802,5.488,11.148,6.699,15.462-.901-1.616-1.895-3.236-3.026-4.679Z"/>
  <path d="M170.944,188.582c-1.196-1.119-2.909-1.679-4.708-1.536-1.741.138-3.297.937-4.248,2.162-1.958,2.426-1.609,6.424.705,8.367,1.078.94,2.543,1.458,4.049,1.458.312,0,.627-.022.94-.068,1.721-.249,3.203-1.172,4.046-2.501,1.555-2.351,1.239-5.918-.686-7.786l-.098-.095Z"/>
  <path d="M187.254,188.582c-1.196-1.119-2.91-1.679-4.708-1.536-1.741.138-3.297.937-4.248,2.162-1.958,2.426-1.609,6.424.705,8.367,1.078.94,2.543,1.458,4.049,1.458.312,0,.627-.022.94-.068,1.721-.249,3.203-1.172,4.046-2.501,1.555-2.351,1.239-5.918-.686-7.786l-.098-.095Z"/>
</svg>