<?xml version="1.0" encoding="UTF-8"?>
<svg id="a" data-name="Layer 1" xmlns="http://www.w3.org/2000/svg" width="400" height="400" viewBox="0 0 400 400">
  <path d="M322.746,92.423c-10.765-17.701-24.148-25.436-43.405-24.952-68.201.545-130.713.549-191.149.011-12.319-.33-23.348,3.646-31.126,11.207-7.847,7.626-12.027,18.246-12.089,30.709-.243,49.839-.179,99.071-.009,157.658.033,11.973,3.928,21.81,11.911,30.077,9.626,9.97,22.208,23.206,34.177,37.176,7.755,9.053,17.007,12.958,30.229,12.847,13.89-.154,29.058-.228,46.373-.228,15.709,0,31.349.06,46.733.12l.589.002c30.162.12,64.354.254,97.215-.152,18.282-.313,26.894-8.756,27.917-27.373.118-19.468-.018-39.562-.15-58.992-.226-33.574-.46-68.186.652-102.255.748-23.654-4.93-44.58-17.869-65.854ZM307.881,185.366l-1.854.201,1.854-.009c.056,11.991.112,23.98.078,35.97-.071,24.938-7.079,31.796-32.605,31.906l-20.128.098c-36.61.176-74.463.362-111.714-.351-13.032-.174-21.163,3.215-28.044,11.688-3.957,4.875-8.454,9.099-12.804,13.182-1.603,1.505-3.204,3.008-4.77,4.538-5.08,4.966-10.48,7.483-16.053,7.483s-10.966-2.503-16.089-7.44l-1.23-1.184-.589-1.605c-2.497-6.824-2.371-13.001-2.258-18.451.024-1.094.047-2.171.045-3.244-.014-14.883.014-29.764.043-44.645.06-31.827.121-64.381-.255-96.368-.125-10.594.304-19.898,6.835-26.437,5.196-5.199,13.101-7.467,25.941-7.326,57.874.605,118.971.603,181.59-.009,8.78-.092,18.644.681,25.235,7.365,5.207,5.279,7.4,13.032,7.11,25.139-.552,23.119-.444,46.695-.339,69.496Z" fill="#010101"/>
  <path d="M186.866,132.502c4.14-.186,7.142-3.76,10.759-5.494,12.643-7.132,29.587-2.575,37.735,9.22,16.884,25.086-4.545,54.738-24.257,71.078-4.808,4.105-9.806,8.046-14.897,11.779-2.924,2.113-6.419,3.975-9.972,3.718-6.174-.533-10.997-5.63-15.856-9.147-2.542-2.007-5.048-4.054-7.495-6.165-18.675-15.776-38.119-40.737-27.698-66.114,6.006-14.958,26.145-22.527,40.374-14.868,3.766,1.728,6.946,5.676,11.176,5.99l.132.002Z"/>
</svg>