<?xml version="1.0" encoding="UTF-8"?>
<svg id="a" data-name="Layer 1" xmlns="http://www.w3.org/2000/svg" width="400" height="400" viewBox="0 0 400 400">
  <polygon points="101.512 74.486 101.589 78.011 101.649 80.728 203.579 80.764 203.517 78.011 203.44 74.549 203.397 74.549 203.397 53.26 101.257 53.824 101.569 74.486 101.512 74.486" fill="none"/>
  <rect x="121.098" y="26.704" width="64.307" height="13.639" fill="none"/>
  <path d="M245.775,79.985l-25.101.019v14.204l-132.466-.272-.14-14.005-29.109.054v225.688h186.816V79.985ZM208.041,109.232h18.454c2.723,0,4.932,2.208,4.932,4.932s-2.208,4.932-4.932,4.932h-18.454c-2.724,0-4.932-2.208-4.932-4.932s2.208-4.932,4.932-4.932ZM156.51,156.576h21.699v49.069h-21.699v-49.069ZM124.948,173.146h21.699v32.499h-21.699v-32.499ZM93.386,135.025h21.699v70.62h-21.699v-70.62ZM227.771,288.991H75.387v-49.316h152.384v49.316ZM188.072,205.645v-19.085h21.699v19.085h-21.699ZM226.51,138.185h-34.679c-2.724,0-4.932-2.208-4.932-4.932s2.208-4.932,4.932-4.932h34.679c2.724,0,4.932,2.208,4.932,4.932s-2.208,4.932-4.932,4.932Z" fill="none"/>
  <path d="M358.976,135.584c.271-1.591-1.77-3.533-4.095-5.436l-.567-.432c-29.634-22.265-59.248-44.488-88.948-66.722-.342-2.292-2.234-4.08-4.621-4.08h-9.011c-1.672-.465-3.208-1.19-4.428-2.492-14.083-10.761-28.397-21.185-42.483-31.966-1.287-.849-2.538-1.786-3.789-2.727v-5.851h-95.567v25.558h-16.391v17.477h-42.096c-3.303,0-5.981,2.678-5.981,5.981v253.335c0,2.71,92.133,55.68,108.437,65.705,4.394.035,203.936.686,206.132-.677,1.527-1.026,3.356-2.923,3.406-4.771,0-10.89,0-232.015,0-242.904ZM121.098,26.704h64.307v13.639h-64.307v-13.639ZM203.397,53.26v21.289h.043l.077,3.462.061,2.752-101.93-.036-.06-2.717-.077-3.526h.057l-.313-20.661,102.141-.564ZM58.958,305.673V79.985l29.109-.054.14,14.005,132.466.272v-14.204l25.101-.019v225.688H58.958Z"/>
  <rect x="93.386" y="135.025" width="21.699" height="70.62"/>
  <rect x="124.948" y="173.146" width="21.699" height="32.499"/>
  <rect x="156.51" y="156.576" width="21.699" height="49.069"/>
  <rect x="188.072" y="186.56" width="21.699" height="19.085"/>
  <rect x="75.387" y="239.675" width="152.384" height="49.316"/>
  <path d="M208.041,119.095h18.454c2.723,0,4.932-2.208,4.932-4.932s-2.208-4.932-4.932-4.932h-18.454c-2.724,0-4.932,2.208-4.932,4.932s2.208,4.932,4.932,4.932Z"/>
  <path d="M226.51,128.322h-34.679c-2.724,0-4.932,2.208-4.932,4.932s2.208,4.932,4.932,4.932h34.679c2.724,0,4.932-2.208,4.932-4.932s-2.208-4.932-4.932-4.932Z"/>
</svg>