<?xml version="1.0" encoding="UTF-8"?>
<svg id="a" data-name="Layer 1" xmlns="http://www.w3.org/2000/svg" width="398.274" height="411.774" viewBox="0 0 398.274 411.774">
  <path d="M343.282,176.909c-.812-9.404-16.057-34.982-23.653-45.955-15.48-22.357-40.497-32.512-65.299-26.497-24.415,5.923-41.707,25.906-45.127,52.153l-.285,2.181-65.78-.118-26.182-78.704c-.404-.409-.79-.827-1.166-1.234-.933-1.011-1.813-1.965-2.77-2.564-3.561-2.239-43.28-15.317-47.223-15.549-6.895-.399-10.611,4.263-11.691,8.386-1.112,4.252-.138,10.325,6.271,13.447,2.651,1.291,8.979,3.18,15.097,5.006,12.623,3.769,20.451,6.241,22.721,8.805l.34.385.162.487,20.388,61.658h-33.245c-5.221,0-11.667,13.975-14.885,27.485-9.866,41.434,2.092,77.001,37.632,111.934,1.482,1.458,3.049,3.003,4.682,4.614,13.37,13.189,31.682,31.254,44.844,41.179,5.394,4.066,9.436,5.543,16.635,6.078,24.447,1.819,50.569.984,75.831.177,23.188-.74,47.163-1.506,69.941-.236,12.167-1.784,21.692-11.722,22.755-23.752-1.534-23.259-.637-48.03.231-71.989.938-25.904,1.908-52.689-.223-77.375ZM248.471,262.056c-16.548,23.364-43.102,37.032-71.579,37.032-1.201,0-2.4-.024-3.608-.073-27.724-1.121-53.469-16.18-68.865-40.28-14.848-23.24-17.516-50.657-7.321-75.223l.64-1.542h159.614l.627,1.576c10.538,26.484,7.073,55.101-9.507,78.51ZM306.045,165.359c-.689,12.36-7.21,23.314-17.442,29.303l-3.538,2.071-.221-4.094c-.513-9.479-8.386-33.845-15.62-33.845h-37.409l.485-2.911c2.093-12.562,10.118-22.51,22.018-27.295,12.487-5.02,26.4-3.197,37.225,4.879,9.788,7.304,15.21,19.226,14.503,31.892Z"/>
</svg>