<?xml version="1.0" encoding="UTF-8"?>
<svg id="a" data-name="Layer 1" xmlns="http://www.w3.org/2000/svg" width="400" height="400" viewBox="0 0 400 400">
  <path d="M69.01,113.302v101.039l10.856-6.381c3.913-2.3,8.456-3.516,13.137-3.516h15.599v-115.219l-15.574.083c-13.243.011-24.018,10.774-24.018,23.993ZM103.602,94.253v105.191h-10.599c-5.57,0-10.989,1.454-15.67,4.205l-3.323,1.953v-92.301c0-10.464,8.533-18.984,19.033-18.993l10.559-.056Z" fill="none"/>
  <path d="M346.525,164.041c-.336-2.563-1.584-4.944-3.543-6.7-.267-.297-.553-.583-.854-.854-.267-.298-.554-.585-.855-.855-.267-.298-.554-.585-.855-.855-.27-.301-.557-.588-.856-.857-.269-.299-.556-.585-.854-.854-.267-.299-.554-.585-.855-.856-.268-.298-.554-.585-.855-.855-.268-.298-.554-.585-.855-.855-.268-.298-.554-.585-.855-.855-.268-.298-.554-.585-.855-.855-.268-.298-.554-.585-.855-.855-.268-.298-.554-.585-.855-.855-.268-.298-.554-.585-.855-.855-.268-.298-.554-.585-.855-.855-.268-.298-.554-.585-.855-.855-.268-.298-.554-.585-.855-.855-.268-.298-.554-.585-.855-.855-.268-.298-.554-.585-.855-.855-.268-.298-.554-.585-.855-.855-.268-.298-.554-.585-.855-.855-.268-.298-.554-.585-.855-.855-.268-.298-.554-.585-.855-.855-.268-.299-.555-.585-.856-.855-.267-.298-.553-.585-.855-.855-.267-.298-.553-.585-.855-.855-.267-.298-.553-.585-.855-.855-.267-.298-.553-.585-.855-.855-.267-.298-.553-.585-.855-.855-.267-.298-.553-.585-.855-.855-.267-.298-.553-.585-.855-.855-.267-.298-.553-.585-.855-.855-.267-.298-.553-.585-.855-.855-.267-.298-.553-.585-.855-.855-.265-.296-.552-.583-.855-.855-.268-.298-.554-.585-.855-.855-.268-.298-.554-.585-.855-.855-.268-.298-.554-.585-.855-.855-.268-.298-.554-.584-.855-.855-.268-.298-.554-.585-.855-.855-.268-.298-.554-.585-.855-.855-.268-.298-.554-.585-.855-.855-.268-.298-.554-.584-.855-.855-.268-.298-.554-.585-.855-.855-.268-.298-.554-.585-.855-.855-.267-.297-.553-.584-.855-.855-.268-.298-.554-.585-.855-.855-.268-.298-.554-.585-.855-.855-.27-.301-.557-.588-.856-.857-.269-.299-.556-.586-.854-.854-.268-.298-.554-.585-.855-.855-.268-.298-.554-.585-.855-.855-.268-.298-.554-.585-.855-.855-.268-.298-.554-.585-.855-.855-.268-.298-.554-.585-.855-.855-.268-.298-.554-.585-.855-.855-.268-.298-.554-.585-.855-.855-.268-.298-.554-.585-.855-.855-.268-.298-.554-.585-.855-.855-.267-.298-.554-.584-.855-.854-2.075-2.322-5.024-3.65-8.118-3.65h-146.65c-.053-.049-.105-.097-.158-.145-.267-.298-.553-.585-.855-.855-.267-.298-.553-.585-.855-.855-.267-.298-.554-.586-.857-.856-.267-.298-.553-.584-.854-.854-.268-.298-.554-.585-.855-.855-.268-.298-.554-.584-.855-.855-.268-.298-.554-.585-.855-.855-.268-.298-.554-.585-.855-.855-.268-.298-.554-.585-.855-.855-.268-.298-.554-.584-.855-.855-.268-.298-.554-.585-.855-.855-.268-.298-.554-.585-.855-.855-.268-.298-.554-.585-.855-.855-.268-.298-.554-.584-.855-.855-.268-.298-.554-.585-.855-.855-.268-.298-.554-.585-.855-.855-.268-.298-.554-.585-.855-.855-.268-.298-.554-.584-.855-.855-.268-.298-.554-.585-.855-.855-.268-.298-.554-.585-.855-.855-.268-.298-.554-.585-.855-.855-.268-.298-.554-.584-.855-.855-.268-.298-.554-.585-.855-.855-.268-.298-.554-.585-.856-.855-.265-.296-.551-.583-.853-.854-2.075-2.323-5.024-3.652-8.12-3.652h-16.787c-19.892,0-36.075,16.203-36.075,36.12v117.558c0,9.888,3.924,19.118,10.982,25.926.302.313.608.621.858.859.301.312.606.618.855.855.301.312.606.618.855.855.301.312.606.618.855.855.301.312.606.618.855.855.301.312.606.618.855.855.301.312.606.618.855.855.301.312.606.618.855.855.301.312.606.618.855.855.3.311.605.616.855.855.3.311.605.616.855.855.3.311.605.616.855.855.3.311.605.616.855.855.3.311.605.616.855.855.3.311.605.616.855.855.3.311.605.616.855.855.3.311.605.616.855.855.3.311.605.616.855.855.3.311.605.616.855.855.3.311.605.616.855.855.3.311.605.616.855.855.3.311.605.616.855.855.3.311.605.616.855.855.3.311.605.616.855.855.3.311.605.616.855.855.3.311.605.616.855.855.3.311.605.616.855.855.3.311.605.616.855.855.3.311.605.616.855.855.3.311.605.616.855.855.3.311.605.616.855.855.3.311.605.616.853.853.301.312.607.618.855.855.301.312.607.618.855.855.301.312.607.618.855.855.301.312.607.618.855.855.301.312.607.618.855.855.301.312.607.618.855.855.302.313.609.621.855.855.302.313.609.621.855.855.302.313.609.621.858.858.304.313.609.621.854.853.303.314.61.623.855.855.303.314.61.623.855.855.302.313.608.621.858.859.301.312.606.618.855.855.301.312.606.618.855.855.301.312.606.618.855.855.301.312.606.618.855.855.301.312.606.618.855.855.301.312.606.618.855.855.301.312.606.618.855.855.301.312.606.618.855.855.3.311.605.616.855.855.3.311.605.616.855.855.3.311.605.616.855.855.3.311.605.616.855.855.3.311.605.616.855.855.3.311.605.616.854.854,6.873,7.123,16.104,11.046,25.991,11.046h193.146c6.031,0,10.938-4.887,10.938-10.894v-144.079l-.225-.149ZM292.427,256.085c0,3.354-2.854,6.188-6.233,6.188H93.047c-17.322,0-31.414-14.093-31.414-31.414v-117.558c0-17.322,14.072-31.415,31.37-31.415h16.787c3.412,0,6.188,2.776,6.188,6.188v18.993h170.125c3.412,0,6.188,2.776,6.188,6.188v1.171l.135.089v141.568Z"/>
  <path d="M292.292,113.257c0-3.412-2.776-6.188-6.188-6.188H115.979v-18.993c0-3.412-2.776-6.188-6.188-6.188h-16.787c-17.298,0-31.37,14.093-31.37,31.415v117.558c0,17.321,14.092,31.414,31.414,31.414h193.146c3.379,0,6.233-2.834,6.233-6.188V114.516l-.135-.089v-1.171ZM287.427,256.085c0,.622-.588,1.188-1.233,1.188H93.047c-14.564,0-26.414-11.85-26.414-26.414v-117.558c0-14.565,11.829-26.415,26.37-26.415h16.787c.655,0,1.188.533,1.188,1.188v23.993h175.125c.655,0,1.188.533,1.188,1.188v3.862l.135.089v138.877Z"/>
  <path d="M74.01,113.302v92.301l3.323-1.953c4.681-2.751,10.1-4.205,15.67-4.205h10.599v-105.191l-10.559.056c-10.5.009-19.033,8.529-19.033,18.993Z"/>
  <path d="M147.947,187.048c1.455-.503,3.26-.674,5.175-.721h-1.719c-5.869,0-10.644,4.755-10.644,10.6,0,1.914.518,3.707,1.409,5.258-.83-1.542-1.241-3.207-1.311-4.698-.173-3.688,1.571-8.63,7.09-10.438Z"/>
  <path d="M247.423,153.476c.561.186,1.08.402,1.568.639-.499-.257-1.027-.463-1.568-.639Z"/>
  <path d="M227.483,140.478c1.027,1.495,1.717,3.342,1.982,5.37-.159-1.996-.871-3.834-1.982-5.37Z"/>
  <path d="M228.165,217.942c.19-.423.357-.858.492-1.308l-.112.271c-.114.362-.241.707-.38,1.037Z"/>
  <path d="M254.611,164.724c-.539,4.402-3.819,9.015-9.934,9.395l-.153.013c-1.665.097-3.719.084-5.704.075-1.351-.008-2.629-.014-3.795.012h9.154c5.844,0,10.599-4.774,10.599-10.644,0-1.17-.197-2.293-.547-3.347.455,1.53.552,3.096.38,4.496Z"/>
  <path d="M157.813,173.936c-.786.005-1.586.009-2.413,0-4.414.021-6.613.024-9.63-1.758-.846-.503-1.557-1.089-2.156-1.729,1.939,2.141,4.723,3.5,7.832,3.5h9.154c-.836-.022-1.785-.02-2.787-.014Z"/>
  <path d="M187.333,147.056c.01.384.031.77.072,1.151v-1.599c0-3.207-1.443-6.067-3.695-8.019,1.239,1.127,2.297,2.672,3.016,4.733.317.951.517,2.197.606,3.733Z"/>
  <path d="M166.388,216.752c.24.802.578,1.561.991,2.271-.353-.617-.647-1.272-.865-1.962l-.126-.309Z"/>
  <path d="M148.376,153.242c.492-.145.977-.262,1.458-.348-.5.078-.984.203-1.458.348Z"/>
  <path d="M141.006,162.005c.157-1.252.554-2.605,1.236-3.878-.883,1.544-1.395,3.324-1.395,5.225,0,1.402.293,2.73.792,3.955-.691-1.793-.837-3.68-.633-5.302Z"/>
  <path d="M186.708,216.257l-.113.227-.065.245c-1.011,3.779-4.408,6.713-8.235,7.425,5.009-.844,8.842-5.218,8.842-10.485v-1.698c-.131.792-.168,1.57-.198,2.213-.031.657-.083,1.759-.23,2.073Z"/>
  <path d="M165.939,213.179v.535c0,.734.075,1.45.218,2.142-.064-.463-.099-1.009-.128-1.492-.023-.379-.051-.779-.09-1.185Z"/>
  <path d="M160.712,186.327h-4.487c.203.003.406.006.608.009,1.361.024,2.647.035,3.879-.009Z"/>
  <path d="M208.651,144.079l.124-.248.067-.269c.801-3.227,3.38-5.82,6.9-6.938,1.295-.412,2.603-.582,3.866-.532-.247-.017-.494-.038-.745-.038-5.869,0-10.644,4.755-10.644,10.599v1.721c.13-.789.167-1.566.196-2.211.03-.662.08-1.769.234-2.085Z"/>
  <path d="M180.441,136.634c-1.149-.425-2.385-.669-3.679-.669-3.098,0-5.882,1.333-7.828,3.443,1.665-1.76,3.851-2.845,6.041-3.23,1.682-.295,3.618-.205,5.466.456Z"/>
  <path d="M217.696,224.091c-3.875-.331-8.693-2.886-9.523-8.996l-.045-.238c-.095-.4-.111-.945-.13-1.523-.01-.335-.028-.791-.09-1.296v1.588c0,5.844,4.755,10.599,10.599,10.599,1.335,0,2.609-.26,3.787-.714-1.555.543-3.166.701-4.598.582Z"/>
  <path d="M228.931,215.461c.109-.612.176-1.238.176-1.881v-.66c-.042.444-.067.882-.089,1.294-.02.384-.044.836-.087,1.246Z"/>
  <path d="M246.535,206.921c-.628.168-1.281.295-1.958.38.676-.057,1.324-.2,1.958-.38Z"/>
  <path d="M239.412,186.084c.564-.011,1.121-.021,1.669-.024h-5.657c1.332.064,2.673.049,3.988.024Z"/>
  <path d="M254.144,195.042c-.802-5.081-5.198-8.983-10.5-8.983h-2.515c1.654-.009,3.225.047,4.666.36,4.269.846,7.645,4.376,8.35,8.622Z"/>
  <path d="M222.71,223.346c2.212-.88,4.264-2.567,5.455-5.404-1.085,2.412-3.034,4.35-5.455,5.404Z"/>
  <path d="M175.252,224.232c.077.009.151.027.228.034.684.077,1.367.068,2.043-.003-.325.03-.652.05-.985.05-.436,0-.864-.03-1.286-.081Z"/>
  <path d="M173.907,223.981c-1.256-.323-2.423-.87-3.455-1.598,1.039.735,2.208,1.281,3.455,1.598Z"/>
  <path d="M167.801,219.701c.53.781,1.168,1.48,1.885,2.087-.716-.609-1.351-1.311-1.885-2.087Z"/>
  <path d="M170.45,222.381c-.258-.182-.508-.375-.749-.579.241.204.491.397.749.579Z"/>
  <path d="M247.859,206.485c4.059-1.682,6.805-6.084,6.4-10.496-.003-.042-.011-.083-.014-.125.022.278.042.556.042.839,0,4.382-2.652,8.152-6.428,9.782Z"/>
  <path d="M229.106,207.347v5.574c.142-1.513.501-3.123,1.773-4.264.938-.84,2.16-1.234,3.622-1.184,1.376-.06,2.79-.033,4.161-.007,1.993.04,4.031.072,5.914-.164-.294.025-.589.045-.889.045h-14.582Z"/>
  <path d="M151.357,207.525c-.707,0-1.397-.073-2.066-.206,1.589.421,3.864.361,6.076.296.844-.024,1.697-.049,2.542-.049,1.855,0,3.672.118,5.267.62l.522.164.405.367c1.329,1.203,1.687,2.893,1.836,4.46v-5.654h-14.582Z"/>
  <path d="M187.137,207.436v4.534c.291-1.76,1.045-3.597,3.227-4.203l.443-.081c2.148-.197,5.509-.163,8.473-.134,1.404.014,2.718.027,3.742.013,3.776.005,4.657,2.599,4.887,4.472v-4.601h-20.771Z"/>
  <path d="M166.361,216.685l.027.066c-.088-.294-.168-.591-.231-.895.048.346.112.646.204.829Z"/>
  <path d="M228.71,216.505c.108-.207.175-.602.221-1.044-.071.399-.16.791-.274,1.173l.053-.129Z"/>
  <path d="M142.168,202.185c1.111,2.064,2.985,3.901,5.851,4.793-2.488-.829-4.564-2.554-5.851-4.793Z"/>
  <path d="M229.508,152.932h14.627c.999,0,1.962.148,2.879.406-1.76-.608-4.161-.552-6.704-.487-2.673.067-5.435.14-7.955-.562l-.359-.1-.314-.201c-1.836-1.171-1.994-3.239-2.08-4.351l-.007-.149c-.009-.558-.059-1.103-.129-1.641.022.281.043.564.043.851v6.233Z"/>
  <path d="M208.221,152.842v-4.467c-.3,1.816-1.1,3.7-3.488,4.205l-.353.048c-2.21.146-5.606.12-8.604.097-1.333-.01-2.568-.021-3.542-.012-1.342.048-2.52-.352-3.379-1.164-.966-.914-1.317-2.105-1.449-3.342v4.635h20.815Z"/>
  <path d="M227.483,140.478c-.543-.79-1.168-1.491-1.888-2.051l-.1-.081c-1.489-1.286-3.354-2.023-5.349-2.206,3.015.364,5.639,1.992,7.337,4.338Z"/>
  <path d="M166.118,152.753v-6.188c0-2.187.669-4.22,1.813-5.91-1.188,1.73-1.93,3.931-1.897,6.612-.142,5.424-4.329,5.38-6.571,5.37-.343-.003-.707-.007-1.085,0-1.07.026-2.104.013-3.101,0-1.795-.022-3.335-.037-4.858.172.353-.035.71-.054,1.072-.054h14.627Z"/>
  <path d="M147.752,153.441c-2.662.902-4.441,2.692-5.51,4.686,1.223-2.139,3.171-3.808,5.51-4.686Z"/>
  <path d="M166.029,173.95h-5.429c.513.014.993.035,1.386.076,1.386.194,2.367.744,3.006,1.644.96,1.253.94,3.116.921,5.089v.113c.021,1.171-.099,2.969-1.4,4.243-.581.569-1.601,1.234-3.273,1.2-.17.009-.354.006-.527.012h5.317v-12.377Z"/>
  <path d="M254.231,160.228c-.712-2.397-2.326-4.693-5.24-6.113,2.457,1.266,4.358,3.457,5.24,6.113Z"/>
  <path d="M232.715,185.789l-.267-.108c-3.03-1.232-2.807-4.709-2.698-6.38.018-.269.035-.521.037-.742.089-2.583,1.958-4.325,4.563-4.325.011,0,.022,0,.033,0,.207-.007.426-.011.642-.016h-5.428v11.841h5.826c-.814-.039-1.625-.1-2.424-.226l-.285-.045Z"/>
  <path d="M229.598,174.219h5.428c1.166-.025,2.444-.02,3.795-.012,1.985.009,4.039.021,5.704-.075l.153-.013c6.114-.38,9.395-4.992,9.934-9.395.171-1.4.074-2.967-.38-4.496-.883-2.656-2.784-4.847-5.24-6.113-.488-.238-1.007-.454-1.568-.639-.137-.045-.27-.098-.409-.138-.917-.258-1.88-.406-2.879-.406h-14.627v-6.233c0-.287-.021-.569-.043-.851-.265-2.027-.955-3.875-1.982-5.37-1.698-2.346-4.323-3.974-7.337-4.338-.108-.013-.216-.027-.325-.036-.071-.004-.141-.008-.211-.011-1.264-.05-2.571.12-3.866.532-3.521,1.118-6.1,3.712-6.9,6.938l-.067.269-.124.248c-.154.316-.204,1.423-.234,2.085-.029.645-.066,1.421-.196,2.211v4.467h-20.815v-4.635c-.041-.382-.062-.767-.072-1.151-.09-1.536-.289-2.782-.606-3.733-.719-2.061-1.778-3.606-3.016-4.733-.184-.167-.371-.326-.562-.476-.054-.042-.109-.082-.164-.123-.149-.108-.299-.214-.454-.315-.187-.123-.376-.237-.567-.345-.072-.04-.143-.082-.216-.12-.215-.114-.432-.218-.652-.314-.098-.044-.195-.09-.295-.131-.119-.048-.239-.089-.359-.132-1.849-.661-3.784-.751-5.466-.456-2.19.385-4.376,1.47-6.041,3.23-.091.096-.179.193-.267.292-.076.088-.149.178-.222.269-.173.212-.339.432-.497.661-.006.008-.011.016-.017.024-1.144,1.69-1.813,3.723-1.813,5.91v6.188h-14.627c-.362,0-.719.019-1.072.054-.076.008-.15.024-.226.033-.12.018-.24.033-.359.055-.482.086-.966.203-1.458.348-.209.064-.421.122-.624.198-2.339.878-4.287,2.547-5.51,4.686-.683,1.273-1.079,2.626-1.236,3.878-.204,1.621-.058,3.509.633,5.302.1.26.211.518.335.772.002.004.004.007.005.011.09.179.183.356.283.53.08.141.167.28.255.419.065.102.127.206.196.306.097.141.204.277.31.414.183.237.381.467.591.691.599.64,1.31,1.226,2.156,1.729,3.017,1.782,5.216,1.778,9.63,1.758.827.009,1.627.005,2.413,0,1.001-.006,1.951-.009,2.787.014h5.429v12.377h-5.317c-1.232.044-2.519.033-3.879.009-.202-.003-.405-.006-.608-.009-1.042-.015-2.087-.025-3.103,0-1.914.047-3.72.218-5.175.721-5.519,1.809-7.263,6.751-7.09,10.438.07,1.491.48,3.156,1.311,4.698,1.286,2.239,3.363,3.964,5.851,4.793.414.138.837.255,1.272.342.669.133,1.359.206,2.066.206h14.582v5.654c.039.406.066.806.09,1.185.03.483.064,1.03.128,1.492.063.304.143.601.231.895l.126.309c.218.689.512,1.344.865,1.962.078.137.161.27.245.403.059.092.115.185.176.275.534.776,1.169,1.478,1.885,2.087.005.004.01.01.016.014.241.204.49.397.749.579,0,0,.002.001.002.002,1.032.727,2.199,1.275,3.455,1.598.003,0,.007.002.01.003.386.098.779.173,1.177.224.052.007.104.017.157.023.422.051.851.081,1.286.081.332,0,.66-.02.985-.05.137-.013.272-.035.408-.053.121-.018.243-.033.364-.056,3.827-.712,7.224-3.646,8.235-7.425l.065-.245.113-.227c.147-.314.199-1.416.23-2.073.03-.643.067-1.42.198-2.213v-4.534h20.771v4.601c.062.505.079.961.09,1.296.019.578.035,1.123.13,1.523l.045.238c.83,6.11,5.648,8.665,9.523,8.996,1.432.12,3.043-.038,4.598-.582.04-.014.078-.029.118-.043.1-.04.2-.077.299-.12,2.421-1.055,4.37-2.992,5.455-5.404.138-.33.266-.675.38-1.037l.112-.271c.114-.382.203-.774.274-1.173.042-.411.067-.862.087-1.246.022-.413.047-.85.089-1.294v-5.574h14.582c.3,0,.595-.021.889-.045.677-.085,1.331-.212,1.958-.38.313-.089.629-.17.93-.286.108-.039.216-.076.322-.118.024-.01.048-.022.072-.032,3.776-1.63,6.428-5.4,6.428-9.782,0-.283-.021-.561-.042-.839-.017-.216-.043-.428-.073-.64-.009-.061-.018-.122-.028-.182-.705-4.246-4.081-7.776-8.35-8.622-1.441-.313-3.012-.37-4.666-.36-.016,0-.031,0-.047,0-.548.003-1.105.014-1.669.024-1.315.025-2.656.039-3.988-.024h-5.826v-11.841ZM208.489,182.745v3.984h-3.114c-.228.023-.454.033-.677.033-.286,0-.567-.014-.84-.027-.049-.002-.102-.003-.151-.006h-1.423l-.03.002-.104-.002h-4.717c-.169.002-.339.003-.508.005-1.861.017-3.554.032-4.879-.005h-4.375v-7.852c-.011-.253-.021-.585,0-.96v-3.565h6.688c3.801-.039,6.745-.039,8.801,0h5.327v4.275l.003.036-.003.072v1.569c0,.048.001.091.002.14.014.78.024,1.568-.002,2.3Z"/>
  <path d="M169.701,221.802c-.005-.005-.01-.01-.016-.014.005.005.01.01.016.014Z"/>
  <path d="M247.285,153.426l-.124-.042c-.047-.018-.1-.029-.147-.046.139.039.272.093.409.138-.047-.016-.09-.035-.138-.05Z"/>
  <path d="M148.152,153.305c-.138.041-.267.091-.4.136.203-.076.415-.135.624-.198-.075.022-.148.038-.224.062Z"/>
  <path d="M246.856,206.843c.207-.06.408-.134.609-.207-.301.116-.617.197-.93.286.106-.028.217-.048.321-.079Z"/>
  <path d="M148.901,207.221l.175.046c.068.021.145.035.215.053-.435-.086-.858-.204-1.272-.342.286.089.577.173.883.243Z"/>
  <path d="M208.243,184.786l-.42.803-.488.406c-.636.476-1.304.667-1.96.734h3.114v-3.984c-.022.63-.07,1.219-.175,1.709l-.071.332Z"/>
  <path d="M189.563,186.524l-.52-.385c-1.35-1.001-1.353-2.429-1.354-3.039,0-.099.002-.208-.008-.326l-.008-.184-.002-2.834v6.973h4.375c-.742-.021-1.372-.057-1.844-.119l-.64-.086Z"/>
  <path d="M187.677,178.972c-.001-.029-.002-.063-.004-.094v.879l.016-.14c.012-.109-.003-.433-.012-.646Z"/>
  <path d="M189.948,174.51l.343-.105.357-.006c1.32-.019,2.552-.034,3.713-.046h-6.688v3.565c.067-1.219.466-2.85,2.275-3.407Z"/>
  <path d="M202.359,186.724l-.075.005h1.423c-.425-.021-.865-.038-1.348-.005Z"/>
  <path d="M208.489,180.305v-1.569l-.003.072c-.015.406-.006.935.003,1.497Z"/>
  <path d="M197.435,186.729h4.717c-1.458-.027-3.1-.016-4.717,0Z"/>
  <path d="M206.584,174.519l.595.469c1.323,1.046,1.306,2.443,1.296,3.115,0,.124-.006.262.006.416l.009.108v-4.275h-5.327c1.181.022,2.074.057,2.668.105l.754.062Z"/>
  <polygon points="202.255 186.731 202.285 186.729 202.151 186.729 202.255 186.731"/>
  <path d="M203.858,186.735c.272.014.554.027.84.027.223,0,.449-.01.677-.033h-1.668c.05.002.102.003.151.006Z"/>
  <path d="M196.927,186.734c.168-.002.339-.003.508-.005h-5.387c1.326.037,3.019.022,4.879.005Z"/>
  <path d="M208.489,180.305v2.44c.026-.732.016-1.52.002-2.3,0-.049-.001-.092-.002-.14Z"/>
  <path d="M187.673,178.877v-.96c-.021.375-.011.707,0,.96Z"/>
  <polygon points="208.492 178.664 208.489 178.628 208.489 178.736 208.492 178.664"/>
  <path d="M194.361,174.352h8.801c-2.056-.039-5-.039-8.801,0Z"/>
</svg>