<?xml version="1.0" encoding="UTF-8"?>
<svg id="a" data-name="Layer 1" xmlns="http://www.w3.org/2000/svg" width="400" height="400" viewBox="0 0 400 400">
  <path d="M263.657,107.553l.034-.042c-21.053-20.75-48.946-32.173-78.58-32.173h-1.224c-29.835.296-57.857,12.146-78.866,33.37-21.005,21.219-32.573,49.351-32.573,79.214,0,46.417,28.765,85.434,75.07,101.823,8.056,2.834,16.744,2.361,24.458-1.336,7.714-3.696,13.523-10.169,16.357-18.229,1.194-3.406,1.8-6.997,1.8-10.669,0-11.971,9.721-21.71,21.67-21.71h51.688c14.88.048,27.989-10.408,31.213-24.915,1.929-8.64,2.868-17.399,2.793-26.036-.228-29.685-12.562-58.586-33.841-79.297ZM122.092,238.626c-10.397,1.125-20.237-7.283-20.414-17.964-.183-11.054,10.059-19.856,20.68-18.562,8.883,1.082,16.229,9.007,16.066,18.562-.16,9.38-7.501,17.009-16.332,17.964ZM120.484,176.732c-10.265,0-18.615-8.351-18.615-18.615s8.332-18.614,18.573-18.614c10.189,0,18.551,8.408,18.573,18.572.021,10.176-8.325,18.596-18.53,18.657ZM167.068,139.487c-10.397,1.125-20.237-7.283-20.414-17.964-.183-11.053,10.059-19.856,20.68-18.562,8.883,1.082,16.229,9.007,16.066,18.562-.16,9.38-7.501,17.009-16.331,17.964ZM228.91,152.306c-10.397,1.125-20.237-7.283-20.414-17.965-.183-11.053,10.059-19.855,20.68-18.562,8.883,1.082,16.229,9.007,16.066,18.562-.16,9.38-7.501,17.009-16.331,17.965Z" fill="none"/>
  <path d="M333.912,166.671c-5.642-9.84-12.416-18.97-20.208-27.212-24.427-27.104-53.523-57.966-90.589-68.394-78.043-28.937-164.29,35.369-162.914,118.441-1.373,36.045,22.285,72.986,52.702,101.557,82.954,56.422,106.938,82.531,129.297,37.573,4.006-15.015.231-30.444,21.478-32.221,0,0,55.783,0,55.783,0,31.549.634,42.432-32.598,40.782-59.11-.161-21.342-15.634-51.975-26.331-70.634ZM294.705,212.886c-11.625,53.168-100.346-2.559-104.573,46.624-13.92,79.744-126.049-6.475-117.68-71.589-1.668-97.97,122.484-150.308,191.239-80.41l-.034.042c27.75,26.801,39.797,67.721,31.048,105.333Z"/>
  <path d="M229.176,115.779c-10.621-1.294-20.863,7.509-20.68,18.562.177,10.681,10.017,19.09,20.414,17.965,8.83-.956,16.171-8.584,16.331-17.965.163-9.555-7.183-17.479-16.066-18.562Z"/>
  <path d="M120.441,139.503c-10.241,0-18.573,8.351-18.573,18.614s8.351,18.615,18.615,18.615c10.205-.062,18.551-8.481,18.53-18.657-.021-10.164-8.383-18.572-18.573-18.572Z"/>
  <path d="M122.358,202.1c-10.621-1.294-20.863,7.508-20.68,18.562.177,10.681,10.017,19.09,20.414,17.964,8.831-.956,16.171-8.584,16.332-17.964.163-9.555-7.183-17.48-16.066-18.562Z"/>
  <path d="M167.334,102.961c-10.621-1.294-20.863,7.508-20.68,18.562.177,10.681,10.017,19.09,20.414,17.964,8.83-.956,16.171-8.584,16.331-17.964.163-9.555-7.183-17.48-16.066-18.562Z"/>
</svg>