<?xml version="1.0" encoding="UTF-8"?>
<svg id="a" data-name="Layer 1" xmlns="http://www.w3.org/2000/svg" width="400" height="400" viewBox="0 0 400 400">
  <polygon points="180.832 143.835 158.56 143.835 158.56 183.86 180.832 183.901 180.832 143.835" fill="none"/>
  <rect x="111.353" y="155.213" width="22.312" height="28.647" fill="none"/>
  <rect x="205.726" y="128.463" width="22.312" height="55.398" fill="none"/>
  <polygon points="142.784 246.359 129.348 271.254 210.044 271.254 196.446 246.359 142.784 246.359" fill="none"/>
  <path d="M64.388,238.29h210.616c4.234,0,7.666-3.432,7.666-7.666V88.639c-.022-4.225-3.441-7.644-7.666-7.666H64.388c-4.225.022-7.644,3.441-7.666,7.666v141.984c0,4.234,3.432,7.666,7.666,7.666ZM88.314,228.525c-.38.364-.816.663-1.291.888-.988.375-2.079.375-3.066,0-.487-.224-.937-.524-1.331-.888-.368-.391-.668-.841-.888-1.332-.375-.988-.375-2.079,0-3.066.234-.482.533-.93.888-1.332,1.574-1.564,4.115-1.564,5.689,0,.008.008.016.015.023.023,1.569,1.582,1.559,4.137-.023,5.706ZM105.099,227.194c-.209.496-.511.948-.888,1.332-.368.378-.807.679-1.291.888-.5.198-1.035.294-1.574.282-1.058-.004-2.073-.424-2.824-1.17-.77-.755-1.206-1.786-1.21-2.865.004-1.079.44-2.11,1.21-2.865.372-.363.81-.651,1.291-.847.739-.312,1.553-.396,2.34-.242.266.044.524.125.766.242.248.081.48.203.686.363l.605.484c.368.391.668.841.888,1.332.375.988.375,2.079,0,3.066ZM120.955,227.194c-.204.489-.491.939-.847,1.332-.401.355-.849.654-1.332.888-.493.202-1.021.305-1.553.303-2.228-.011-4.026-1.827-4.014-4.055.015-1.068.433-2.092,1.17-2.865,1.16-1.145,2.895-1.479,4.398-.847.489.204.939.491,1.332.847.737.773,1.155,1.797,1.17,2.865-.006.527-.116,1.048-.323,1.533ZM67.777,95.095c0-2.228,1.806-4.035,4.035-4.035h195.768c2.228,0,4.035,1.807,4.035,4.035v114.992c0,2.228-1.806,4.035-4.035,4.035H71.812c-2.228,0-4.035-1.806-4.035-4.035v-114.992Z" fill="none"/>
  <path d="M349.122,139.229c-.228-.242-.463-.477-.705-.705-.228-.242-.463-.477-.705-.705-.228-.242-.463-.477-.705-.705-.228-.242-.463-.477-.705-.705-.228-.242-.463-.477-.705-.705-.228-.242-.463-.477-.705-.705-.228-.242-.463-.477-.705-.705-.228-.242-.463-.477-.705-.705-.228-.242-.463-.477-.705-.705-.228-.242-.463-.477-.705-.705-.228-.242-.463-.477-.705-.705-.228-.242-.463-.477-.705-.705-.228-.242-.463-.477-.705-.705-.228-.242-.463-.477-.705-.705-.228-.242-.463-.477-.705-.705-.228-.242-.463-.477-.705-.705-.228-.242-.463-.477-.705-.705-.228-.242-.463-.477-.705-.705-.228-.242-.463-.477-.705-.705-.228-.242-.463-.477-.705-.705-.228-.242-.463-.477-.705-.705-.228-.242-.463-.477-.705-.705-.228-.242-.463-.477-.705-.705-.228-.242-.463-.477-.705-.705-.228-.242-.463-.477-.705-.705-.228-.242-.463-.477-.705-.705-.228-.242-.463-.477-.705-.705-.228-.242-.463-.477-.705-.705-.228-.242-.463-.477-.705-.705-.228-.242-.463-.477-.705-.705-.228-.242-.463-.477-.705-.705-.228-.242-.463-.477-.705-.705-.228-.242-.463-.477-.705-.705-.228-.242-.463-.477-.705-.705-.228-.242-.463-.477-.705-.705-.228-.242-.463-.477-.705-.705-.228-.242-.463-.477-.705-.705-.228-.242-.463-.477-.705-.705-.228-.242-.463-.477-.705-.705-.228-.242-.463-.477-.705-.705-.228-.242-.463-.477-.705-.705-.228-.242-.463-.477-.705-.705-.228-.242-.463-.477-.705-.705-.228-.242-.463-.477-.705-.705-.228-.242-.463-.477-.705-.705-.228-.242-.463-.477-.705-.705-.228-.242-.463-.477-.705-.705-.228-.242-.463-.477-.705-.705-.228-.242-.463-.477-.705-.705-.228-.242-.463-.477-.705-.705-.228-.242-.463-.477-.705-.705-.228-.242-.463-.477-.705-.705-.228-.242-.463-.477-.705-.705-.228-.242-.463-.477-.705-.705-.228-.242-.463-.477-.705-.705-.228-.242-.463-.477-.705-.705-.228-.242-.463-.477-.705-.705-.228-.242-.463-.477-.705-.705-.228-.242-.463-.477-.705-.705-.228-.242-.463-.477-.705-.705-.228-.242-.463-.477-.705-.705-.228-.242-.463-.477-.705-.705-.228-.242-.463-.477-.705-.705-.228-.242-.463-.477-.705-.705-.228-.242-.463-.477-.705-.705-.228-.242-.463-.477-.705-.705-.228-.242-.463-.477-.705-.705-.228-.242-.463-.477-.705-.705-.228-.242-.463-.477-.705-.705-.228-.242-.463-.477-.705-.705-.228-.242-.463-.477-.705-.705-.228-.242-.463-.477-.705-.705-.228-.242-.463-.477-.705-.705-.228-.242-.463-.477-.705-.705-.228-.242-.463-.477-.705-.705-.228-.242-.463-.477-.705-.705-.228-.242-.463-.477-.705-.705-.228-.242-.463-.477-.705-.705-.228-.242-.463-.477-.705-.705-.228-.242-.463-.477-.705-.705-.228-.242-.463-.477-.705-.705-.228-.242-.463-.477-.705-.705-.228-.242-.463-.477-.705-.705-.228-.242-.463-.477-.705-.705-.228-.242-.463-.477-.705-.705-.228-.242-.463-.477-.705-.705-.228-.242-.463-.477-.705-.705-.228-.242-.463-.477-.705-.705-.228-.242-.463-.477-.705-.705-2.869-3.056-6.939-4.97-11.459-4.982H64.3c-8.681.022-15.714,7.054-15.736,15.736v141.984c.001.577.035,1.145.097,1.706.423,3.833,2.219,7.25,4.885,9.753.228.242.463.477.705.705.228.242.463.477.705.705.228.242.463.477.705.705.228.242.463.477.705.705.228.242.463.477.705.705.215.229.438.45.666.666.013.012.026.026.039.039.228.242.463.477.705.705.228.242.463.477.705.705.228.242.463.477.705.705.228.242.463.477.705.705.228.242.463.477.705.705.228.242.463.477.705.705.228.242.463.477.705.705.228.242.463.477.705.705.228.242.463.477.705.705.228.242.463.477.705.705.228.242.463.477.705.705.228.242.463.477.705.705.228.242.463.477.705.705.228.242.463.477.705.705.228.242.463.477.705.705.228.242.463.477.705.705.228.242.463.477.705.705.228.242.463.477.705.705.228.242.463.477.705.705.228.242.463.477.705.705.228.242.463.477.705.705.228.242.463.477.705.705.228.242.463.477.705.705.228.242.463.477.705.705.228.242.463.477.705.705.228.242.463.477.705.705.228.242.463.477.705.705.228.242.463.477.705.705.228.242.463.477.705.705.228.242.463.477.705.705.228.242.463.477.705.705.228.242.463.477.705.705.228.242.463.477.705.705.228.242.463.477.705.705.228.242.463.477.705.705.228.242.463.477.705.705.228.242.463.477.705.705.228.242.463.477.705.705.228.242.463.477.705.705.228.242.463.477.705.705.228.242.463.477.705.705.228.242.463.477.705.705.228.242.463.477.705.705.228.242.463.477.705.705.228.242.463.477.705.705.228.242.463.477.705.705.228.242.463.477.705.705.228.242.463.477.705.705.228.242.463.477.705.705.228.242.463.477.705.705.228.242.463.477.705.705.228.242.463.477.705.705.228.242.463.477.705.705.228.242.463.477.705.705.228.242.463.477.705.705.228.242.463.477.705.705.228.242.463.477.705.705.228.242.463.477.705.705.228.242.463.477.705.705.228.242.463.477.705.705.228.242.463.477.705.705.228.242.463.477.705.705.228.242.463.477.705.705.228.242.463.477.705.705.228.242.463.477.705.705.228.242.463.477.705.705.228.242.463.477.705.705.228.242.463.477.705.705.228.242.463.477.705.705.228.242.463.477.705.705.228.242.463.477.705.705.228.242.463.477.705.705.228.242.463.477.705.705.228.242.463.477.705.705.228.242.463.477.705.705.228.242.463.477.705.705.228.242.463.477.705.705.228.242.463.477.705.705.228.242.463.477.705.705.228.242.463.477.705.705.228.242.463.477.705.705.228.242.463.477.705.705.228.242.463.477.705.705,2.869,3.056,6.939,4.97,11.459,4.982h23.56c.142.151.292.293.454.419.206.266.444.501.705.705.206.266.444.501.705.705.206.266.444.501.705.705.206.266.444.501.705.705.206.266.444.501.705.705.206.266.444.501.705.705.206.266.444.501.705.705.206.266.444.501.705.705.206.266.444.501.705.705.206.266.444.501.705.705.206.266.444.501.705.705.206.266.444.501.705.705.206.266.444.501.705.705.206.266.444.501.705.705.206.266.444.501.705.705.206.266.444.501.705.705.206.266.444.501.705.705.206.266.444.501.705.705.206.266.444.501.705.705.206.266.444.501.705.705.206.266.444.501.705.705.206.266.444.501.705.705.206.266.444.501.705.705.206.266.444.501.705.705.206.266.444.501.705.705.206.266.444.501.705.705.206.266.444.501.705.705.206.266.444.501.705.705.206.266.444.501.705.705.206.266.444.501.705.705.206.266.444.501.705.705.206.266.444.501.705.705.206.266.444.501.705.705.206.266.444.501.705.705.206.266.444.501.705.705.206.266.444.501.705.705.206.266.444.501.705.705.206.266.444.501.705.705.206.266.444.501.705.705.206.266.444.501.705.705.206.266.444.501.705.705.206.266.444.501.705.705.206.266.444.501.705.705.206.266.444.501.705.705.758.978,1.931,1.564,3.187,1.564h94.011c1.425,0,2.743-.752,3.47-1.977.721-1.248.721-2.786,0-4.035l-14.566-26.993h69.479c8.681-.022,15.714-7.054,15.736-15.736v-141.984c-.012-4.52-1.926-8.59-4.982-11.459ZM56.722,230.624V88.639c.022-4.225,3.441-7.644,7.666-7.666h210.616c4.225.022,7.644,3.441,7.666,7.666v141.984c0,4.234-3.432,7.666-7.666,7.666H64.388c-4.234,0-7.666-3.432-7.666-7.666ZM129.348,271.254l13.436-24.895h53.663l13.597,24.895h-80.696Z"/>
  <path d="M71.812,214.121h195.768c2.228,0,4.035-1.806,4.035-4.035v-114.992c0-2.228-1.806-4.035-4.035-4.035H71.812c-2.228,0-4.035,1.807-4.035,4.035v114.992c0,2.228,1.806,4.035,4.035,4.035ZM205.726,128.463h22.312v55.398h-22.312v-55.398ZM158.56,143.835h22.272v40.065l-22.272-.04v-40.025ZM111.353,155.213h22.312v28.647h-22.312v-28.647Z"/>
  <path d="M88.314,222.796c-1.574-1.564-4.115-1.564-5.689,0-.355.401-.654.849-.888,1.332-.375.988-.375,2.079,0,3.066.219.491.519.94.888,1.332.395.364.844.663,1.331.888.988.375,2.079.375,3.066,0,.475-.224.911-.524,1.291-.888,1.582-1.569,1.593-4.124.023-5.706-.008-.008-.015-.015-.023-.023Z"/>
  <path d="M104.211,222.796l-.605-.484c-.206-.16-.438-.283-.686-.363-.243-.117-.501-.198-.766-.242-.787-.154-1.602-.07-2.34.242-.481.197-.919.484-1.291.847-.77.755-1.206,1.786-1.21,2.865.004,1.078.44,2.11,1.21,2.865.752.746,1.766,1.166,2.824,1.17.538.012,1.073-.084,1.574-.282.484-.209.923-.51,1.291-.888.377-.384.678-.836.888-1.332.375-.988.375-2.079,0-3.066-.219-.491-.519-.94-.888-1.332Z"/>
  <path d="M118.777,221.949c-1.502-.632-3.238-.297-4.398.847-.737.773-1.155,1.797-1.17,2.865-.011,2.228,1.786,4.044,4.014,4.055.533.003,1.061-.1,1.553-.303.482-.234.93-.533,1.332-.888.356-.392.643-.842.847-1.332.207-.485.317-1.006.323-1.533-.015-1.068-.433-2.092-1.17-2.865-.392-.356-.843-.643-1.332-.847Z"/>
</svg>