<?xml version="1.0" encoding="UTF-8"?>
<svg id="a" data-name="Layer 1" xmlns="http://www.w3.org/2000/svg" width="400" height="400" viewBox="0 0 400 400">
  <path d="M88.254,330.482c13.763,13.267,20.741,16.389,22.537,16.189l.169-.019h.17l217.948.156c12.094-.864,22.218-10.579,24.172-23.174l-.298-154.42-2.442-6.877c-9.134-9.108-18.463-19.147-27.49-28.862-15.421-16.595-31.367-33.754-47.633-47.786l-1.314-1.143c-4.37-3.81-7.007-6.11-12.632-6.589-26.077-2.22-54.344-1.208-81.68-.229-25.331.907-51.525,1.846-76.147.237-3.998-.082-7.078,1.674-10.503,6.044l-51.991,89.419v5.749c1.777,3.475,6.713,8.518,8.447,8.518h20.473v121.51c.701,2.251,7.845,11.282,18.215,21.277ZM254.818,100.934l.891,1.334c8.237,12.338,15.75,25.511,23.016,38.249,3.708,6.5,7.542,13.222,11.41,19.723l2.698,4.534h-59.372l-39.235-63.84h60.593ZM181.235,129.984c.549-.172,2.225-.698,3.795.199,1.365.781,1.729,2.07,1.882,2.71,5.252,7.088,9.84,15.745,14.277,24.12,4.604,8.686,9.362,17.667,14.707,24.526,1.995,2.562,6.003,5.958,7.27,6.16l49.315-.004v107.221h-107.221v-63.499c-.51-1.331-2.808-5.237-3.548-5.996-4.98-4.334-26.1-4.161-30.632.272-.621.795-2.662,4.518-3.201,5.812v63.41h-34.921v-106.869l2.627-.329c6.843-.859,14.974-.355,22.836.132,8.309.514,16.898,1.046,23.387-.106.393-.104,1.432-.713,2.054-1.079.621-.364,1.26-.739,1.868-1.029,3.765-2.518,14.821-22.29,21.455-34.151,10.295-18.409,11.871-20.821,14.05-21.503ZM106.96,105.386l3.909-4.452h60.347l-39.235,63.84h-59.292l34.271-59.389Z"/>
  <rect x="208.641" y="216.615" width="34.921" height="49.38"/>
</svg>