<?xml version="1.0" encoding="UTF-8"?>
<svg id="a" data-name="Layer 1" xmlns="http://www.w3.org/2000/svg" width="400" height="400" viewBox="0 0 400 400">
  <path d="M65.611,91.804c-.002-.037.223-1.377.126-.745-.149.97-.257,1.946-.3,2.932-.013.296-.015.4-.008.182.019-.661.088-1.592.162-2.215l.019-.155Z"/>
  <path d="M65.637,274.868c-.092-.708-.188-1.886-.205-2.619.01.607.113,1.94.205,2.619h0Z"/>
  <path d="M67.247,85.413c-.597,1.483-1.202,3.738-1.482,5.366.191-1.484.883-3.868,1.483-5.368v.002Z"/>
  <path d="M72.585,289.095c.503.514,1.308,1.256,1.852,1.701-.419-.337-1.392-1.225-1.852-1.701h0Z"/>
  <path d="M341.682,144.23c-.173-7.456-3.633-14.09-8.984-18.523-1.002-1.214-2.12-2.328-3.332-3.332-15.171-15.32-30.429-30.699-45.818-45.778-3.368-3.044-7.507-5.136-12.019-6.011-15.268-1.489-137.463-.2-182.239-.549-12.473.561-22.984,10.904-23.78,23.212-.143,12.655-.272,135.867.035,180.275.746,8.862,5.908,14.825,12.179,20.659,8.908,8.846,17.703,17.844,26.708,26.604,1.003,1.213,2.119,2.329,3.332,3.332,1.003,1.213,2.119,2.329,3.332,3.332,1.003,1.213,2.119,2.329,3.332,3.332,1.003,1.213,2.119,2.329,3.332,3.332,1.003,1.213,2.119,2.329,3.332,3.332,4.433,5.364,11.08,8.831,18.547,9.004v.026h178.005v-.03c13.247-.307,23.914-10.97,24.217-24.217h.03v-178.002h-.21ZM280.599,265.922c-.844,9.313-7.572,17.73-16.853,19.81-1.692.42-3.597.749-5.137.788-1.978.003-11.177,0-24.273.001-33.185.016-126-.011-133.118,0-6.32-.146-13.575-3.396-17.293-8.464-2.87-3.498-4.439-8.204-4.859-12.558-.233-8.49.027-105.895-.068-140.283.155-12.105-.272-15.867.18-20.327.695-5.565,3.203-10.847,7.666-14.625,3.847-3.374,8.942-5.108,13.886-5.437,2.116-.127,8.626.068,19.281-.012,35.318.18,131.494-.389,140.934.246,11.307,1.476,19.041,10.682,19.764,21.97-.281,14.011.324,126.653-.098,158.79l-.012.102Z"/>
  <path d="M129.273,214.174c-11.662-.109-21.507,10.238-20.75,21.916,1.199,21.876,30.969,27.326,39.944,7.448,6.169-13.47-4.109-29.489-18.993-29.364h-.201Z"/>
  <path d="M129.273,114.44c-11.662-.109-21.507,10.238-20.75,21.916,1.199,21.876,30.969,27.326,39.944,7.448,6.169-13.47-4.109-29.489-18.993-29.364h-.201Z"/>
  <path d="M230.233,215.073c-11.743-.114-21.624,10.379-20.739,22.128,1.415,21.843,31.225,27.017,40.011,7.056,6.008-13.456-4.272-29.308-19.072-29.184h-.2Z"/>
  <path d="M230.233,114.439c-11.743-.114-21.624,10.379-20.739,22.129,1.415,21.843,31.225,27.017,40.011,7.056,6.008-13.455-4.272-29.309-19.072-29.184h-.2Z"/>
  <path d="M65.961,89.679c-.101.578-.272,1.678-.364,2.237.061-.566.239-1.662.363-2.237h0Z"/>
</svg>