<?xml version="1.0" encoding="UTF-8"?>
<svg id="a" data-name="Layer 1" xmlns="http://www.w3.org/2000/svg" width="400" height="400" viewBox="0 0 400 400">
  <path d="M351.421,155.927c-.892-9.918-6.15-15.599-12.934-21.996-13.166-12.415-28.137-24.326-42.615-35.846-12.913-10.274-26.264-20.896-38.367-31.896-9.618-5.272-21.613-5.931-37.717-2.076l-1.534.367-.992-1.228c-13.077-16.177-26.953-22.825-43.678-20.917-12.196,1.392-22.793,8.235-32.396,20.921l-1.067,1.41-1.685-.537c-16.104-5.13-32.22-2.841-44.209,6.287-11.578,8.815-17.606,22.537-16.975,38.638l.075,1.914-1.829.57c-15.599,4.864-27.567,16.483-32.017,31.083-4.315,14.161-1.123,29.334,8.757,41.628l1.223,1.521-1.179,1.556c-9.967,13.145-13.09,28.881-8.569,43.173,4.524,14.305,16.116,25.385,31.802,30.399l1.734.554.005,1.82c.04,15.032,4.428,26.946,13.041,35.412,1.78,1.75,4.133,3.252,6.409,4.704,2.237,1.428,4.551,2.904,6.476,4.692,3.583,3.33,7.504,7.527,11.654,11.972,12.041,12.895,27.013,28.926,40.694,30.312,10.373-.723,21.043-.994,31.833-.994,16.643,0,33.573.646,50.165,1.279,29.593,1.129,60.195,2.296,88.184-.266,13.41-1.228,23.687-11.012,25.646-24.381-1.755-26.281-.698-54.404.323-81.604,1.115-29.67,2.268-60.354-.259-88.473ZM283.141,199.569c4.604,6.07,9.82,12.951,7.787,22.084-2.298,10.317-11.42,13.286-19.469,15.905-6.065,1.975-11.796,3.839-14.352,8.415-2.057,3.683-1.895,8.402-1.723,13.399.208,6.063.443,12.937-3.511,18.923-7.181,10.871-18.031,7.686-27.604,4.875-6.104-1.791-11.871-3.486-16.646-2.002-3.164.982-5.863,5.049-8.721,9.354-4.397,6.626-9.381,14.136-18.601,14.997-.576.054-1.139.08-1.687.08-9.347,0-14.652-7.583-19.364-14.317-3.257-4.653-6.332-9.049-10.1-10.05-5.403-1.438-10.46.17-15.813,1.869-5.583,1.772-11.354,3.604-17.987,2.251-12.636-2.578-12.944-15.338-13.192-25.59-.137-5.646-.266-10.979-2.03-14.437-1.807-3.541-7.391-5.426-13.302-7.421-6.76-2.281-13.749-4.64-17.289-10.138-7.516-11.672-.923-20.585,4.375-27.747,3.063-4.142,5.957-8.053,6.302-12.082.557-6.483-2.818-11.06-6.392-15.905-3.923-5.319-8.369-11.349-7.252-20.202,1.454-11.532,11.66-14.687,19.86-17.222,5.056-1.562,9.831-3.038,12.227-5.977,3.25-3.984,3.38-10.71,3.506-17.214.132-6.853.27-13.938,4.038-18.705,7.541-9.544,17.613-6.449,26.498-3.719,7.855,2.414,15.276,4.693,21.14-.777,1.797-1.676,3.553-4.335,5.411-7.15,3.517-5.326,7.503-11.363,13.578-13.28,13.409-4.235,19.888,5.21,25.09,12.797,3.335,4.863,6.485,9.457,10.875,10.618,4.708,1.244,10.112-.418,15.832-2.179,9.298-2.861,19.833-6.103,27.247,5.111,3.881,5.872,3.708,12.159,3.54,18.24-.152,5.532-.296,10.757,2.784,15.113,2.716,3.84,7.992,5.555,13.58,7.37,8.669,2.817,18.495,6.011,19.666,18.324.692,7.27-3.781,13.384-8.106,19.297-3.623,4.951-7.044,9.628-6.826,14.226.209,4.398,3.327,8.511,6.629,12.864Z"/>
  <path d="M212.446,131.66c-4.981-3.231-12.587-3.916-18.362,1.826l-62.799,94.332c-3.303,8.698.884,15.581,6.509,18.55,5.622,2.966,13.676,2.53,18.986-5.139l61.191-91.645c3.223-8.495-.958-14.963-5.525-17.925Z"/>
  <path d="M138.238,114.479c-1.554,0-3.183.138-4.888.414-20.456,3.316-19.262,28.688-17.799,39.441,1.766,12.975,12.212,18.782,21.782,18.782h0c9.565,0,20.006-5.809,21.77-18.782,3.064-22.552-4.913-32.312-7.431-34.767-3.473-3.386-7.979-5.089-13.436-5.089Z"/>
  <path d="M227.759,189.079c-1.554,0-3.183.138-4.889.414-20.456,3.315-19.262,28.687-17.799,39.441,1.766,12.975,12.213,18.781,21.783,18.782h.002c9.565,0,20.006-5.809,21.769-18.782,3.063-22.554-4.914-32.313-7.432-34.768-3.473-3.385-7.979-5.088-13.435-5.088Z"/>
</svg>