<?xml version="1.0" encoding="UTF-8"?>
<svg id="a" data-name="Layer 1" xmlns="http://www.w3.org/2000/svg" width="400" height="400" viewBox="0 0 400 400">
  <path d="M358.295,177.823c-.135-.15-.278-.293-.428-.428-.135-.15-.278-.293-.428-.428-.135-.15-.278-.293-.428-.428-.135-.15-.278-.293-.428-.428-.135-.15-.278-.293-.428-.428-.135-.15-.278-.293-.428-.428-.135-.15-.278-.293-.428-.428-.135-.15-.278-.293-.428-.428-.135-.15-.278-.293-.428-.428-.135-.15-.278-.293-.428-.428-.135-.15-.278-.293-.428-.428-.135-.15-.278-.293-.428-.428-.135-.15-.278-.293-.428-.428-.135-.15-.278-.293-.428-.428-.135-.15-.278-.293-.428-.428-.135-.15-.278-.293-.428-.428-.135-.15-.278-.293-.428-.428-.135-.15-.278-.293-.428-.428-.135-.15-.278-.293-.428-.428-.135-.15-.278-.293-.428-.428-.135-.15-.278-.293-.428-.428-.135-.15-.278-.293-.428-.428-.135-.15-.278-.293-.428-.428-.135-.15-.278-.293-.428-.428-.135-.15-.278-.293-.428-.428-.135-.15-.278-.293-.428-.428-.135-.15-.278-.293-.428-.428-.135-.15-.278-.293-.428-.428-.135-.15-.278-.293-.428-.428-.135-.15-.278-.293-.428-.428-.135-.15-.278-.293-.428-.428-.135-.15-.278-.293-.428-.428-.135-.15-.278-.293-.428-.428-.135-.15-.278-.293-.428-.428-.135-.15-.278-.293-.428-.428-.135-.15-.278-.293-.428-.428-.135-.15-.278-.293-.428-.428-.135-.15-.278-.293-.428-.428-.135-.15-.278-.293-.428-.428-.135-.15-.278-.293-.428-.428-.135-.15-.278-.293-.428-.428-.135-.15-.278-.293-.428-.428-.135-.15-.278-.293-.428-.428-.135-.15-.278-.293-.428-.428-.135-.15-.278-.293-.428-.428-.135-.15-.278-.293-.428-.428-.135-.15-.278-.293-.428-.428-.135-.15-.278-.293-.428-.428-.135-.15-.278-.293-.428-.428-.135-.15-.278-.293-.428-.428-.135-.15-.278-.293-.428-.428-.135-.15-.278-.293-.428-.428-.135-.15-.278-.293-.428-.428-.135-.15-.278-.293-.428-.428-.135-.15-.278-.293-.428-.428-.135-.15-.278-.293-.428-.428-.135-.15-.278-.293-.428-.428-.135-.15-.278-.293-.428-.428-.135-.15-.278-.293-.428-.428-.135-.15-.278-.293-.428-.428-.135-.15-.278-.293-.428-.428-.135-.15-.278-.293-.428-.428-.135-.15-.278-.293-.428-.428-.135-.15-.278-.293-.428-.428-.135-.15-.278-.293-.428-.428-.135-.15-.278-.293-.428-.428-.135-.15-.278-.293-.428-.428-.135-.15-.278-.293-.428-.428-.135-.15-.278-.293-.428-.428-.135-.15-.278-.293-.428-.428-.135-.15-.278-.293-.428-.428-.135-.15-.278-.293-.428-.428-.135-.15-.278-.293-.428-.428-.135-.15-.278-.293-.428-.428-.135-.15-.278-.293-.428-.428-.135-.15-.278-.293-.428-.428-.135-.15-.278-.293-.428-.428-.135-.15-.278-.293-.428-.428-.135-.15-.278-.293-.428-.428-.135-.15-.278-.293-.428-.428-.135-.15-.278-.293-.428-.428-.135-.15-.278-.293-.428-.428-.135-.15-.278-.293-.428-.428-.065-.072-.137-.137-.205-.205-.282-.781-.727-1.5-1.325-2.098l-.855-.855c-1.069-1.069-2.519-1.67-4.032-1.67h-18.477c-.321-.897-.861-1.689-1.556-2.314-.135-.15-.278-.293-.428-.428-.135-.15-.278-.293-.428-.428-.135-.15-.278-.293-.428-.428-.135-.15-.278-.293-.428-.428-.135-.15-.278-.293-.428-.428-.044-.049-.087-.098-.132-.146,2.14-3.319,3.717-7.229,3.717-11.554,0-7.328-4.52-13.464-8.651-17.545-.143-.145-.285-.287-.428-.428-.143-.145-.285-.287-.428-.428-.143-.145-.285-.287-.428-.428-.143-.145-.285-.287-.428-.428-.143-.145-.285-.287-.428-.428-.143-.145-.285-.287-.428-.428-.143-.145-.285-.287-.428-.428-.143-.145-.285-.287-.428-.428-.143-.145-.285-.287-.428-.428-.143-.145-.285-.287-.428-.428-.143-.145-.285-.287-.428-.428-.143-.145-.285-.287-.428-.428-.143-.145-.285-.287-.428-.428-.143-.145-.285-.287-.428-.428-.143-.145-.285-.287-.428-.428-.143-.145-.285-.287-.428-.428-.143-.145-.285-.287-.428-.428-.143-.145-.285-.287-.428-.428-.143-.145-.285-.287-.428-.428-.143-.145-.285-.287-.428-.428-.143-.145-.285-.287-.428-.428-.143-.145-.285-.287-.428-.428-.143-.145-.285-.287-.428-.428-.143-.145-.285-.287-.428-.428-.143-.145-.285-.287-.428-.428-.143-.145-.285-.287-.428-.428-.143-.145-.285-.287-.428-.428-.143-.145-.285-.287-.428-.428-.143-.145-.285-.287-.428-.428-.143-.145-.285-.287-.428-.428-.143-.145-.285-.287-.428-.428-.143-.145-.285-.287-.428-.428-.143-.145-.285-.287-.428-.428-.143-.145-.285-.287-.428-.428-.143-.145-.285-.287-.428-.428-.143-.145-.285-.287-.428-.428-.143-.145-.285-.287-.428-.428-.143-.145-.285-.287-.428-.428-.143-.145-.285-.287-.428-.428-.143-.145-.285-.287-.428-.428-.143-.145-.285-.287-.428-.428-.143-.145-.285-.287-.428-.428-.143-.145-.285-.287-.428-.428-.143-.145-.285-.287-.428-.428-.143-.145-.285-.287-.428-.428-.143-.145-.285-.287-.428-.428-.143-.145-.285-.287-.428-.428-.143-.145-.285-.287-.428-.428-.143-.145-.285-.287-.428-.428-.143-.145-.285-.287-.428-.428-.143-.145-.285-.287-.428-.428-.143-.145-.285-.287-.428-.428-.143-.145-.285-.287-.428-.428-.143-.145-.285-.287-.428-.428-.143-.145-.285-.287-.428-.428-.143-.145-.285-.287-.428-.428-.143-.145-.285-.287-.428-.428-.143-.145-.285-.287-.428-.428-.143-.145-.285-.287-.428-.428-.143-.145-.285-.287-.428-.428-.143-.145-.285-.287-.428-.428-.143-.145-.285-.287-.428-.428-.143-.145-.285-.287-.428-.428-.143-.145-.285-.287-.428-.428-.143-.145-.285-.287-.428-.428-.143-.145-.285-.287-.428-.428-.143-.145-.285-.287-.428-.428-.143-.145-.285-.287-.428-.428-.143-.145-.285-.287-.428-.428-.143-.145-.285-.287-.428-.428-.143-.145-.285-.287-.428-.428-.143-.145-.285-.287-.428-.428-.143-.145-.285-.287-.428-.428-.143-.145-.285-.287-.428-.428-.143-.145-.285-.287-.428-.428-.131-.133-.262-.263-.392-.392-1.163-1.804-2.581-3.582-4.245-5.314-3.566-3.711-7.073-6.012-7.461-6.262-.921-.593-1.993-.909-3.089-.909h-.926c-1.095,0-2.168.315-3.089.909-.388.25-3.895,2.551-7.46,6.263-5.308,5.524-8.113,11.514-8.113,17.322,0,3.979,1.318,8.043,3.854,11.985-.256.111-.502.245-.74.392-.016-.015-.031-.031-.047-.046-.143-.145-.285-.287-.428-.428-.143-.145-.285-.287-.428-.428-.143-.145-.285-.287-.428-.428-.143-.145-.285-.287-.428-.428-.143-.145-.285-.287-.428-.428-.143-.145-.285-.287-.428-.428-.143-.145-.285-.287-.428-.428-.143-.145-.285-.287-.428-.428-.143-.145-.285-.287-.428-.428-.143-.145-.285-.287-.428-.428-.143-.145-.285-.287-.428-.428-.143-.145-.285-.287-.428-.428-.143-.145-.285-.287-.428-.428-.143-.145-.285-.287-.428-.428-.143-.145-.285-.287-.428-.428-.143-.145-.285-.287-.428-.428-.143-.145-.285-.287-.428-.428-.143-.145-.285-.287-.428-.428-.143-.145-.285-.287-.428-.428-.143-.145-.285-.287-.428-.428-.143-.145-.285-.287-.428-.428-.143-.145-.285-.287-.428-.428-.143-.145-.285-.287-.428-.428-.143-.145-.285-.287-.428-.428-.143-.145-.285-.287-.428-.428-.143-.145-.285-.287-.428-.428-.143-.145-.285-.287-.428-.428-.143-.145-.285-.287-.428-.428-.143-.145-.285-.287-.428-.428-.143-.145-.285-.287-.428-.428-.143-.145-.285-.287-.428-.428-.143-.145-.285-.287-.428-.428-.143-.145-.285-.287-.428-.428-.143-.145-.285-.287-.428-.428-.143-.145-.285-.287-.428-.428-.143-.145-.285-.287-.428-.428-.143-.145-.285-.287-.428-.428-.143-.145-.285-.287-.428-.428-.143-.145-.285-.287-.428-.428-.143-.145-.285-.287-.428-.428-.143-.145-.285-.287-.428-.428-.143-.145-.285-.287-.428-.428-.143-.145-.285-.287-.428-.428-.143-.145-.285-.287-.428-.428-.143-.145-.285-.287-.428-.428-.143-.145-.285-.287-.428-.428-.143-.145-.285-.287-.428-.428-.143-.145-.285-.287-.428-.428-.143-.145-.285-.287-.428-.428-.143-.145-.285-.287-.428-.428-.143-.145-.285-.287-.428-.428-.143-.145-.285-.287-.428-.428-.143-.145-.285-.287-.428-.428-.143-.145-.285-.287-.428-.428-.143-.145-.285-.287-.428-.428-.143-.145-.285-.287-.428-.428-.131-.133-.262-.263-.392-.392-1.163-1.804-2.581-3.582-4.245-5.314-3.566-3.711-7.073-6.012-7.461-6.262-.921-.593-1.993-.909-3.089-.909h-.926c-1.095,0-2.168.315-3.089.909-.388.25-3.895,2.551-7.46,6.263-5.308,5.524-8.113,11.514-8.113,17.322,0,3.979,1.318,8.044,3.854,11.985-.256.111-.502.245-.74.392-.016-.015-.032-.031-.047-.047-.143-.145-.285-.287-.428-.428-.143-.145-.285-.287-.428-.428-.143-.145-.285-.287-.428-.428-.143-.145-.285-.287-.428-.428-.143-.145-.285-.287-.428-.428-.143-.145-.285-.287-.428-.428-.143-.145-.285-.287-.428-.428-.143-.145-.285-.287-.428-.428-.143-.145-.285-.287-.428-.428-.143-.145-.285-.287-.428-.428-.143-.145-.285-.287-.428-.428-.143-.145-.285-.287-.428-.428-.143-.145-.285-.287-.428-.428-.143-.145-.285-.287-.428-.428-.143-.145-.285-.287-.428-.428-.143-.145-.285-.287-.428-.428-.143-.145-.285-.287-.428-.428-.143-.145-.285-.287-.428-.428-.143-.145-.285-.287-.428-.428-.143-.145-.285-.287-.428-.428-.143-.145-.285-.287-.428-.428-.143-.145-.285-.287-.428-.428-.143-.145-.285-.287-.428-.428-.143-.145-.285-.287-.428-.428-.143-.145-.285-.287-.428-.428-.143-.145-.285-.287-.428-.428-.143-.145-.285-.287-.428-.428-.143-.145-.285-.287-.428-.428-.143-.145-.285-.287-.428-.428-.143-.145-.285-.287-.428-.428-.143-.145-.285-.287-.428-.428-.143-.145-.285-.287-.428-.428-.143-.145-.285-.287-.428-.428-.143-.145-.285-.287-.428-.428-.143-.145-.285-.287-.428-.428-.143-.145-.285-.287-.428-.428-.143-.145-.285-.287-.428-.428-.143-.145-.285-.287-.428-.428-.143-.145-.285-.287-.428-.428-.143-.145-.285-.287-.428-.428-.143-.145-.285-.287-.428-.428-.143-.145-.285-.287-.428-.428-.143-.145-.285-.287-.428-.428-.143-.145-.285-.287-.428-.428-.143-.145-.285-.287-.428-.428-.143-.145-.285-.287-.428-.428-.143-.145-.285-.287-.428-.428-.143-.145-.285-.287-.428-.428-.143-.145-.285-.287-.428-.428-.143-.145-.285-.287-.428-.428-.143-.145-.285-.287-.428-.428-.143-.145-.285-.287-.428-.428-.143-.145-.285-.287-.428-.428-.143-.145-.285-.287-.428-.428-.143-.145-.285-.287-.428-.428-.143-.145-.285-.287-.428-.428-.131-.133-.262-.263-.392-.392-1.163-1.804-2.581-3.582-4.245-5.314-3.566-3.711-7.073-6.012-7.461-6.262-.921-.593-1.993-.909-3.089-.909h-.926c-1.095,0-2.168.315-3.089.909-.388.25-3.895,2.551-7.46,6.263-5.308,5.524-8.113,11.514-8.113,17.322,0,3.979,1.318,8.044,3.854,11.985-.656.283-1.261.686-1.776,1.201l-.251.251-.239.239-.365.365c-1.069,1.069-1.67,2.519-1.67,4.032v36.079h-55.385c-1.512,0-2.962.601-4.032,1.67l-.216.216-.323.323-.317.317c-1.069,1.069-1.67,2.519-1.67,4.032v21.374c0,.006,0,.012,0,.018v110.599c0,.006,0,.012,0,.018v14.818h-3.09c-3.149,0-5.701,2.553-5.701,5.701v1.71c0,3.149,2.553,5.701,5.701,5.701h8.263c.062.061.12.127.186.186.135.15.278.293.428.428.135.15.278.293.428.428.135.15.278.293.428.428.135.15.278.293.428.428.135.15.278.293.428.428.135.15.278.293.428.428.135.15.278.293.428.428.135.15.278.293.428.428.135.15.278.293.428.428.135.15.278.293.428.428.135.15.278.293.428.428.135.15.278.293.428.428.135.15.278.293.428.428.135.15.278.293.428.428.135.15.278.293.428.428.135.15.278.293.428.428.135.15.278.293.428.428.135.15.278.293.428.428.135.15.278.293.428.428.135.15.278.293.428.428.135.15.278.293.428.428.135.15.278.293.428.428.135.15.278.293.428.428.135.15.278.293.428.428.135.15.278.293.428.428.135.15.278.293.428.428.135.15.278.293.428.428.135.15.278.293.428.428.135.15.278.293.428.428.135.15.278.293.428.428.135.15.278.293.428.428.135.15.278.293.428.428.135.15.278.293.428.428.135.15.278.293.428.428.135.15.278.293.428.428.135.15.278.293.428.428.135.15.278.293.428.428.135.15.278.293.428.428.135.15.278.293.428.428.135.15.278.293.428.428.135.15.278.293.428.428.135.15.278.293.428.428.135.15.278.293.428.428.135.15.278.293.428.428.135.15.278.293.428.428.135.15.278.293.428.428.135.15.278.293.428.428.135.15.278.293.428.428.135.15.278.293.428.428.135.15.278.293.428.428.135.15.278.293.428.428.135.15.278.293.428.428.135.15.278.293.428.428.135.15.278.293.428.428.135.15.278.293.428.428.135.15.278.293.428.428.135.15.278.293.428.428.135.15.278.293.428.428.135.15.278.293.428.428.135.15.278.293.428.428.135.15.278.293.428.428.135.15.278.293.428.428.135.15.278.293.428.428.135.15.278.293.428.428.135.15.278.293.428.428.135.15.278.293.428.428.135.15.278.293.428.428.135.15.278.293.428.428.135.15.278.293.428.428.135.15.278.293.428.428.135.15.278.293.428.428.135.15.278.293.428.428.135.15.278.293.428.428.135.15.278.293.428.428.135.15.278.293.428.428.135.15.278.293.428.428.135.15.278.293.428.428.135.15.278.293.428.428.135.15.278.293.428.428.135.15.278.293.428.428.135.15.278.293.428.428.135.15.278.293.428.428.8.889,1.87,1.529,3.086,1.778.371.076.755.116,1.149.116h261.226c.04,0,.079,0,.119-.001.081-.002.159-.012.239-.017.094-.006.188-.009.28-.02.097-.011.192-.028.288-.044.091-.015.183-.028.273-.047.094-.02.185-.047.277-.071.088-.024.177-.045.264-.073.09-.029.178-.064.266-.097.084-.032.17-.061.252-.097.086-.037.169-.081.253-.122.08-.04.162-.077.24-.12.082-.045.16-.096.239-.145.076-.047.153-.091.226-.141.077-.053.15-.111.224-.167.07-.053.142-.104.21-.161.072-.06.139-.125.208-.189.064-.059.131-.116.193-.179.067-.067.128-.139.191-.21.058-.064.118-.127.173-.194.061-.074.115-.153.173-.231.051-.069.104-.135.152-.207.054-.081.102-.166.152-.25.044-.073.09-.144.131-.219.047-.088.087-.179.13-.27.036-.075.075-.149.107-.226.04-.095.072-.195.107-.293.027-.076.058-.15.082-.228.033-.107.057-.217.084-.326.018-.073.04-.143.055-.217.025-.123.04-.25.057-.376.008-.063.022-.124.028-.187.019-.191.029-.384.029-.579v-153.384c0-1.683-.734-3.192-1.894-4.235ZM60.861,191.14c4.569,3.484,10.104,5.531,16.067,5.531,8.583,0,16.498-4.308,21.769-11.268,5.271,6.96,13.186,11.268,21.769,11.268s16.497-4.309,21.768-11.269c5.271,6.96,13.186,11.269,21.769,11.269s16.499-4.308,21.769-11.268c5.271,6.96,13.186,11.268,21.769,11.268s16.498-4.308,21.769-11.268c5.271,6.96,13.186,11.268,21.769,11.268s16.498-4.308,21.769-11.268c5.271,6.96,13.186,11.268,21.769,11.268,5.963,0,11.498-2.048,16.068-5.532v59.221c-4.569-3.484-10.104-5.532-16.068-5.532-8.583,0-16.498,4.308-21.769,11.268-5.271-6.96-13.186-11.268-21.769-11.268s-16.497,4.308-21.768,11.269c-5.271-6.96-13.186-11.269-21.769-11.269s-16.499,4.308-21.769,11.268c-5.271-6.96-13.186-11.268-21.769-11.268s-16.498,4.308-21.769,11.268c-5.271-6.96-13.186-11.268-21.769-11.268s-16.498,4.308-21.769,11.268c-5.271-6.96-13.186-11.268-21.769-11.268-5.963,0-11.498,2.047-16.067,5.531v-59.22ZM60.861,276.048c.009-10.457,7.213-18.961,16.067-18.961s16.067,8.514,16.067,18.98c0,3.149,2.553,5.701,5.701,5.701s5.701-2.553,5.701-5.701c0-10.466,7.208-18.98,16.068-18.98s16.067,8.514,16.067,18.98c0,3.149,2.552,5.701,5.701,5.701s5.701-2.553,5.701-5.701c0-10.466,7.208-18.98,16.067-18.98s16.068,8.514,16.068,18.98c0,3.149,2.553,5.701,5.701,5.701s5.701-2.553,5.701-5.701c0-10.466,7.208-18.98,16.068-18.98s16.067,8.514,16.067,18.98c0,3.149,2.553,5.701,5.701,5.701s5.701-2.553,5.701-5.701c0-10.466,7.208-18.98,16.067-18.98s16.068,8.514,16.068,18.98c0,3.149,2.552,5.701,5.701,5.701s5.701-2.553,5.701-5.701c0-10.466,7.208-18.98,16.067-18.98s16.068,8.514,16.068,18.98v14.818H60.861v-14.838ZM248.295,83.349c0,3.967-3.775,8.195-6.867,10.894-3.096-2.702-6.868-6.928-6.868-10.894s3.784-8.204,6.877-10.903c3.216,2.815,6.857,7.078,6.857,10.903ZM234.113,107.124h14.629v30.377h-14.629v-30.377ZM192.64,83.349c0,3.967-3.775,8.195-6.867,10.894-3.096-2.702-6.868-6.928-6.868-10.894s3.784-8.204,6.877-10.903c3.216,2.815,6.857,7.078,6.857,10.903ZM178.458,107.124h14.629v30.377h-14.629v-30.377ZM136.985,83.349c0,3.967-3.775,8.195-6.867,10.894-3.096-2.702-6.868-6.928-6.868-10.894s3.784-8.204,6.877-10.903c3.216,2.815,6.857,7.078,6.857,10.903ZM122.803,107.124h14.629v30.377h-14.629v-30.377ZM310.684,149.76v15.673c0,10.466-7.208,18.981-16.067,18.981s-16.067-8.515-16.067-18.981c0-3.149-2.552-5.701-5.701-5.701s-5.701,2.552-5.701,5.701c0,10.466-7.208,18.981-16.068,18.981s-16.067-8.515-16.067-18.981c0-3.149-2.552-5.701-5.701-5.701s-5.701,2.552-5.701,5.701c0,10.466-7.208,18.981-16.068,18.981s-16.067-8.515-16.067-18.981c0-3.149-2.552-5.701-5.701-5.701s-5.701,2.552-5.701,5.701c0,10.466-7.208,18.981-16.068,18.981s-16.067-8.515-16.067-18.981c0-3.149-2.552-5.701-5.701-5.701s-5.701,2.552-5.701,5.701c0,10.466-7.208,18.981-16.068,18.981s-16.067-8.515-16.067-18.981c0-3.149-2.552-5.701-5.701-5.701s-5.701,2.552-5.701,5.701c0,10.466-7.208,18.981-16.068,18.981s-16.058-8.504-16.067-18.961v-15.692h249.823Z"/>
</svg>