<?xml version="1.0" encoding="UTF-8"?>
<svg id="a" data-name="Layer 1" xmlns="http://www.w3.org/2000/svg" width="400" height="400" viewBox="0 0 400 400">
  <path d="M75.943,233.19c-2.143,0-4.164.01-6.186.043-17.773.292-20.034,2.572-20.152,20.314-.072,10.914-.054,21.827-.036,32.741l.015,12.49c.013,24.947,14.991,39.903,40.064,40.012,63.641.275,132.33.278,216.181.023,21.868-.069,30.849-8.82,30.993-30.205.234-34.671.185-69.932.138-104.029-.02-14.478-.039-28.957-.039-43.435,0-18.348-7.339-32.263-22.437-42.534-12.465-8.483-24.868-17.057-37.271-25.628-16.705-11.546-33.976-23.485-51.114-34.986-5.175-3.473-11.389-5.734-16.618-6.052-9.831-.583-19.93-.482-29.701-.39-5.683.052-11.371.111-17.049.043-5.247-.128-9.187,1.111-11.612,3.493-2.413,2.369-3.653,6.228-3.683,11.467-.07,12.342-.066,24.685-.061,37.027l.003,9.882c-.002,12.962-.002,20.101,2.716,23.577,2.713,3.47,9.615,5.164,22.147,8.24l2.556.629.005,31.952-21.189-.007c-13.478-.007-26.603-.013-39.73.02q-21.746.056-21.855,21.123c-.033,6.307-.026,12.614-.016,19.724l.008,14.498-10.697-.016c-1.91-.007-3.684-.013-5.382-.013ZM300.076,256.404v46.109h-59.937v-46.109h59.937ZM258.494,199.958v31.932h-61.074v-31.932h61.074ZM170.55,120.465v-46.433h32.081v46.433h-32.081ZM216.261,255.814v46.175h-60.07v-46.175h60.07ZM113.581,199.823h61.176v32.224h-61.176v-32.224ZM132.787,256.545v45.277h-60.286v-45.277h60.286Z"/>
</svg>