<?xml version="1.0" encoding="UTF-8"?>
<svg id="a" data-name="Layer 1" xmlns="http://www.w3.org/2000/svg" width="400" height="400" viewBox="0 0 400 400">
  <path d="M183.61,77.571l95.491.241c8.869,1.043,17.622,4.026,24.671,9.541,8.217,6.43,37.147,37.335,42.751,45.892,3.074,4.694,4.825,10.623,5.301,16.213,4.749,55.749-3.862,118.342-.265,174.814-2.397,14.824-13.346,25.869-28.484,27.235-58.683,5.298-125.452-4.334-184.99-.25-8.436-.694-16.76-4.189-22.062-10.879-17.379-29.287-46.734-58.826-62.192-88.474-3.225-6.186-5.538-12.088-6.139-19.172,2.9-48.684-3.482-101.323.186-149.534,1.356-17.816,14.287-33.698,32.535-35.854,16.074-1.9,58.355-1.834,74.436.097,15.786,1.896,25.722,15.429,28.76,30.128ZM279.666,108.571l-201.416-.263-.164,125.17c-.007,5.319,8.955,12.592,14.596,12.093l183.041.286c8.277.091,15.289-6.453,15.854-14.643-2.368-34.33,3.311-72.989.19-106.792-.627-6.793-4.927-14.563-12.1-15.852Z"/>
</svg>