<?xml version="1.0" encoding="UTF-8"?>
<svg id="a" data-name="Layer 1" xmlns="http://www.w3.org/2000/svg" width="400" height="400" viewBox="0 0 400 400">
  <path d="M288.294,185.669c3.454-1.973,7.37-4.209,9.202-9.245l.463-1.27-.356-1.306c-.402-1.466-.775-2.935-1.146-4.396-1.649-6.501-3.354-13.223-7.46-19.272l-.812-1.212-1.378-.448c-3.772-1.246-7.408-.964-10.626-.715-2.61.197-4.898.37-6.905-.232l-11.9-16.576,6.157-17.036-1.842-1.907c-7.411-7.66-14.482-12.771-22.252-16.083l-1.652-.706-1.659.696c-3.323,1.396-5.84,3.632-8.083,5.626-2.099,1.872-3.938,3.511-6.109,4.21l-19.562-6.706c-.532-1.316-.862-2.79-1.237-4.458-.83-3.721-1.864-8.352-5.985-12.305l-.979-.929-1.346-.199c-8.292-1.193-17.171-2.083-26.55,1.21l-2.062.722-4.717,16.166-20.178,6.34c-1.751-1.022-3.228-2.352-4.782-3.75-2.727-2.451-5.816-5.229-10.458-6.064l-1.603-.29-1.383.855c-1.075.664-2.167,1.31-3.257,1.955l-.184.109c-6.516,3.849-13.253,7.83-17.52,15.206l-.73,1.256.194,1.446c.42,3.092,1.58,5.78,2.62,8.19,1.087,2.515,2.039,4.716,2.071,7.073l-11.683,15.935c-1.974.486-4.043.328-6.434.148-3.775-.299-8.476-.672-12.944,2.384l-.981.671-1.125,2.481c-3.279,7.185-6.671,14.614-6.219,24.147l.1,2.07,13.517,9.569v21.347c-1.254,1.168-2.75,2.087-4.451,3.131-3.179,1.949-6.782,4.157-9.215,8.59l-.762,1.384.844,3.982c1.597,7.648,3.246,15.556,8.995,22.304l.719.843,1.051.392c3.754,1.378,7.198.882,10.29.438,2.525-.363,4.564-.658,6.521.079l11.951,16.793c-.212,1.761-1.021,3.565-1.938,5.614-1.473,3.286-3.141,7.011-2.612,11.555l.153,1.305.866.996c6.428,7.36,14.332,11.954,20.496,15.132l1.283.664,1.426-.257c4.448-.809,7.462-3.406,10.12-5.697,1.988-1.712,3.729-3.21,5.846-3.842l17.5,5.736c2.41,2.189,3.012,4.682,3.766,7.806.837,3.469,1.785,7.4,5.552,10.435l1.111.899,1.428.042c1.438.043,2.877.108,4.312.173l.497.022c2.651.122,5.393.249,8.127.249,4.543,0,8.205-.352,11.515-1.104l1.308-.292.901-.989c3.101-3.398,3.925-7.281,4.652-10.704.537-2.518,1.007-4.722,2.328-6.344l19.602-5.967,13.984,10.669,2.282-1.004c9.447-4.119,16.829-9.46,21.938-15.872l.792-.991.115-1.257c.45-4.708-1.298-8.531-2.703-11.603-1.014-2.217-1.836-4.016-1.792-5.709l12.671-16.875c1.661-.287,3.443-.053,5.483.214,3.548.463,7.962,1.041,12.741-1.378l1.376-.697.609-1.423c2.722-6.335,6.448-15.012,7.477-24.125l.188-1.682-1.027-1.359c-2.528-3.33-5.908-5.268-8.633-6.831-2.188-1.254-3.967-2.272-5.01-3.64v-20.873c1.312-1.469,3.086-2.483,5.103-3.635ZM165.888,261.938l-2.893-.46c-15.439-2.455-28.691-11.295-37.312-24.89-10.479-16.521-12.898-37.964-6.639-58.831l.984-3.281,32.137,22.041.014,1.301c.102,10.061,4.186,18.268,12.852,25.829l.856.747v37.544ZM191.348,173.19c-8.062-2.182-16.09-1.223-23.562.138l-1.034.188-30.259-21.394,1.916-2.092c9.135-9.977,24.459-16.136,40.992-16.474,16.906-.362,33.004,5.432,43.018,15.532l2.095,2.113-32.04,22.293-1.125-.305ZM239.182,231.469c-8.841,16.367-24.268,27.757-42.324,31.25l-2.975.576v-38.453l.915-.75c9.156-7.506,13.715-16.556,13.55-26.898l-.021-1.33,32.368-22.58,1.188,2.879c7.476,18.13,6.491,38.288-2.701,55.305Z" fill="none"/>
  <path d="M330.879,201.318l-.007-4.689c-.019-12.507-.037-25.013-.043-37.52-.005-10.105-3.071-17.644-9.376-23.047l-12.024-10.335c-15.361-13.218-31.245-26.884-47.219-39.954-10.882-8.9-22.914-16.063-37.165-8.295l-2.942,1.602-2.243-2.487c-10.453-11.578-24.184-17.998-38.661-18.075h-.275c-14.405,0-28.098,6.24-38.553,17.57l-1.689,1.832-2.424-.58c-13.139-3.173-26.604-.765-37.916,6.78-12.575,8.388-21.261,22.449-23.829,38.575l-.378,2.383-2.246.895c-12.02,4.77-21.234,14.628-25.951,27.762-5.297,14.751-3.981,31.118,3.609,44.903l1.229,2.234-1.393,2.133c-7.21,11.069-8.898,25.282-4.632,38.992,4.589,14.744,15.179,26.47,29.054,32.171l3.013,1.244-.413,3.225c-1.293,10.027,1.82,18.451,9.799,26.513,11.47,11.59,23.15,23.993,35.709,37.917,7.014,7.775,15.423,11.554,25.708,11.554,5.285-.007,10.521-.01,15.757-.01,10.2,0,20.401.012,30.603.024l6.12.007c35.529.056,67.559.08,99.739-.188,19.563-.163,28.739-9.454,28.876-29.238.289-41.309.226-83.294.164-123.897ZM288.201,213.817c2.725,1.563,6.104,3.501,8.633,6.831l1.027,1.359-.188,1.682c-1.028,9.113-4.755,17.79-7.477,24.125l-.609,1.423-1.376.697c-4.779,2.419-9.193,1.841-12.741,1.378-2.04-.267-3.822-.5-5.483-.214l-12.671,16.875c-.044,1.693.778,3.492,1.792,5.709,1.405,3.072,3.153,6.895,2.703,11.603l-.115,1.257-.792.991c-5.109,6.412-12.491,11.752-21.938,15.872l-2.282,1.004-13.984-10.669-19.602,5.967c-1.321,1.622-1.791,3.826-2.328,6.344-.728,3.423-1.552,7.306-4.652,10.704l-.901.989-1.308.292c-3.31.752-6.972,1.104-11.515,1.104-2.734,0-5.476-.126-8.127-.249l-.497-.022c-1.435-.065-2.873-.13-4.312-.173l-1.428-.042-1.111-.899c-3.767-3.035-4.715-6.966-5.552-10.435-.754-3.125-1.355-5.617-3.766-7.806l-17.5-5.736c-2.117.632-3.857,2.13-5.846,3.842-2.658,2.291-5.672,4.889-10.12,5.697l-1.426.257-1.283-.664c-6.164-3.178-14.068-7.772-20.496-15.132l-.866-.996-.153-1.305c-.528-4.544,1.14-8.269,2.612-11.555.917-2.048,1.726-3.853,1.938-5.614l-11.951-16.793c-1.957-.737-3.996-.442-6.521-.079-3.092.444-6.536.94-10.29-.438l-1.051-.392-.719-.843c-5.749-6.749-7.398-14.656-8.995-22.304l-.844-3.982.762-1.384c2.433-4.433,6.036-6.642,9.215-8.59,1.701-1.044,3.197-1.962,4.451-3.131v-21.347l-13.517-9.569-.1-2.07c-.452-9.533,2.939-16.962,6.219-24.147l1.125-2.481.981-.671c4.469-3.056,9.169-2.683,12.944-2.384,2.391.18,4.46.338,6.434-.148l11.683-15.935c-.032-2.357-.984-4.559-2.071-7.073-1.04-2.41-2.2-5.098-2.62-8.19l-.194-1.446.73-1.256c4.267-7.376,11.004-11.357,17.52-15.206l.184-.109c1.09-.645,2.182-1.291,3.257-1.955l1.383-.855,1.603.29c4.642.835,7.731,3.613,10.458,6.064,1.555,1.399,3.031,2.728,4.782,3.75l20.178-6.34,4.717-16.166,2.062-.722c9.379-3.294,18.258-2.404,26.55-1.21l1.346.199.979.929c4.121,3.953,5.155,8.584,5.985,12.305.375,1.669.705,3.143,1.237,4.458l19.562,6.706c2.172-.7,4.011-2.339,6.109-4.21,2.243-1.994,4.76-4.23,8.083-5.626l1.659-.696,1.652.706c7.77,3.312,14.841,8.423,22.252,16.083l1.842,1.907-6.157,17.036,11.9,16.576c2.007.603,4.295.429,6.905.232,3.218-.249,6.854-.531,10.626.715l1.378.448.812,1.212c4.105,6.05,5.811,12.771,7.46,19.272.371,1.462.744,2.931,1.146,4.396l.356,1.306-.463,1.27c-1.832,5.035-5.748,7.271-9.202,9.245-2.017,1.152-3.791,2.167-5.103,3.635v20.873c1.043,1.367,2.821,2.386,5.01,3.64Z" fill="#070707"/>
  <path d="M240.695,173.285l-32.368,22.58.021,1.33c.165,10.342-4.394,19.392-13.55,26.898l-.915.75v38.453l2.975-.576c18.057-3.494,33.483-14.884,42.324-31.25,9.192-17.017,10.177-37.175,2.701-55.305l-1.188-2.879Z"/>
  <path d="M152.18,197.818l-.014-1.301-32.137-22.041-.984,3.281c-6.26,20.867-3.84,42.31,6.639,58.831,8.62,13.595,21.872,22.436,37.312,24.89l2.893.46v-37.544l-.856-.747c-8.666-7.561-12.75-15.768-12.852-25.829Z"/>
  <path d="M222.418,149.089c-10.014-10.1-26.111-15.894-43.018-15.532-16.533.338-31.857,6.497-40.992,16.474l-1.916,2.092,30.259,21.394,1.034-.188c7.473-1.361,15.501-2.32,23.562-.138l1.125.305,32.04-22.293-2.095-2.113Z"/>
</svg>