<?xml version="1.0" encoding="UTF-8"?>
<svg id="a" data-name="Layer 1" xmlns="http://www.w3.org/2000/svg" width="400" height="400" viewBox="0 0 400 400">
  <path d="M223.361,267.269c.216-1.365.19-5.501.025-6.923-.358-3.093-3.122-1.805-5.363-2.039l-.318,10.714h4.571c.348,0,1.012-1.289,1.085-1.752Z" fill="none"/>
  <path d="M165.372,302.117c-.606.11-.52.659-.643,1.088-.959,3.352-1.111,7.214-2.191,10.575h5.044l-2.21-11.662Z" fill="none"/>
  <path d="M242.937,56.891h-117.425c-2.549,0-4.616,2.067-4.616,4.616v273.366c0,2.549,2.067,4.616,4.616,4.616h117.425c2.549,0,4.616-2.067,4.616-4.616v-173.438c0-2.549-2.067-4.616-4.616-4.616h-58.712c-19.132-.003-34.694-15.569-34.692-34.698.003-19.129,15.567-34.691,34.694-34.691,15.309.002,28.725,10.212,33.152,24.481.648,2.087,2.555,3.526,4.74,3.526h20.817c2.549,0,4.616-2.067,4.616-4.616v-49.314c0-2.549-2.067-4.616-4.616-4.616ZM150.243,327.018c-5.326,1.115-17.644,1.892-19.56-4.87-.725-2.56-.657-17.659-.301-20.819.806-7.154,11.205-7.218,16.547-6.772.891.075,2.379.243,2.999.784v6.462c-2.06-.813-9.43-1.768-10.687.189-.328.51-.31.965-.361,1.53-.31,3.403-.432,12.216-.001,15.475.509,3.857,8.731,1.873,11.365,1.718v6.304ZM234.413,327.648h-7.881l.473-19.861-4.883,11.196-6.636.01-4.713-10.885c.018,2.193.553,4.603.64,6.762.13,3.214.36,8.646.003,11.691-.054.459-.039.81-.489,1.087h-7.251l-.473-.473v-32.623h8.354l7.097,16.39,7.404-16.39h8.354v33.096ZM209.194,252h15.289c.442,0,2.811.787,3.382,1.032,2.671,1.149,3.791,3.193,4.038,6.049.23,2.664.309,10.014-.727,12.219-.578,1.231-1.47,2.065-2.656,2.703-.627.337-3.201,1.322-3.721,1.322h-6.778l-.315,9.456h-8.512v-32.781ZM185.866,252h19.545v6.304h-11.034c-.073,2.163-.947,4.987.158,6.934h9.3v5.989h-9.3l-.473.473v6.777h11.349v6.304h-19.545v-32.781ZM189.964,294.552v26.792h10.403v6.304h-18.442l-.473-.473v-32.623h8.512ZM162.222,252h19.545v6.304h-11.034c-.073,2.163-.947,4.987.158,6.934h9.3v5.989h-9.3l-.473.473v6.777h11.349v6.304h-19.545v-32.781ZM171.215,294.859l7.401,32.788h-7.723l-1.917-7.583-7.684.034-1.748,7.549h-7.723l7.758-33.115,11.637.327ZM149.77,252h8.984l-7.123,15.921,7.753,16.859h-9.3l-6.778-14.814v14.814h-8.512v-32.781h8.512v14.184l6.462-14.184Z" fill="none"/>
  <path d="M253.617,55.01c-.022-.025-3.626-3.64-3.797-3.776-.695-.874-1.765-1.436-2.969-1.436H117.941c-3.081,0-5.579,2.498-5.579,5.579.005,15.232.562,287.125,1.436,287.82.136.171,17.573,17.608,17.744,17.744.695.874,1.765,1.436,2.969,1.436h134.489v-190.502c0-1.203-.562-2.274-1.436-2.969-.136-.172-16.969-17.025-17.27-17.295-.145-.163-.304-.313-.474-.449-.695-.874-1.765-1.436-2.969-1.436h-65.347c-2.836,0-5.575-.417-8.166-1.185-.562-.166-1.007-.611-1.173-1.173-5.625-18.032,8.747-37.359,27.698-37.05,3.154,0,6.203.51,9.063,1.455.524,1.587.92,3.237,1.166,4.942.133.926.599,1.727,1.26,2.305.26.298.538.58.837.839.119.138,16.807,16.83,17.033,17.011.699.89,1.78,1.455,2.98,1.455h36.798v-66.378c0-1.203-15.248-16.819-15.383-16.937ZM247.552,110.821c0,2.549-2.067,4.616-4.616,4.616h-20.817c-2.186,0-4.093-1.438-4.74-3.526-4.427-14.269-17.843-24.479-33.152-24.481-19.127,0-34.691,15.562-34.694,34.691-.002,19.13,15.56,34.695,34.692,34.698h58.712c2.549,0,4.616,2.067,4.616,4.616v173.438c0,2.549-2.067,4.616-4.616,4.616h-117.425c-2.549,0-4.616-2.067-4.616-4.616V61.507c0-2.549,2.067-4.616,4.616-4.616h117.425c2.549,0,4.616,2.067,4.616,4.616v49.314Z"/>
  <path d="M218.655,310.942l-7.097-16.39h-8.354v32.623l.473.473h7.251c.45-.277.435-.628.489-1.087.357-3.045.127-8.478-.003-11.691-.087-2.159-.622-4.569-.64-6.762l4.713,10.885,6.636-.01,4.883-11.196-.473,19.861h7.881v-33.096h-8.354l-7.404,16.39Z"/>
  <polygon points="143.308 252 134.796 252 134.796 284.781 143.308 284.781 143.308 269.966 150.086 284.781 159.385 284.781 151.632 267.921 158.755 252 149.77 252 143.308 266.184 143.308 252"/>
  <path d="M159.543,327.648l1.748-7.549,7.684-.034,1.917,7.583h7.723l-7.401-32.788-11.637-.327-7.758,33.115h7.723ZM164.729,303.205c.123-.429.037-.978.643-1.088l2.21,11.662h-5.044c1.08-3.36,1.232-7.222,2.191-10.575Z"/>
  <path d="M218.02,275.325h6.778c.52,0,3.094-.985,3.721-1.322,1.187-.637,2.078-1.472,2.656-2.703,1.035-2.205.957-9.555.727-12.219-.247-2.856-1.367-4.901-4.038-6.049-.57-.245-2.94-1.032-3.382-1.032h-15.289v32.781h8.512l.315-9.456ZM218.023,258.307c2.242.234,5.005-1.054,5.363,2.039.165,1.422.191,5.559-.025,6.923-.073.462-.737,1.752-1.085,1.752h-4.571l.318-10.714Z"/>
  <path d="M205.411,278.477h-11.349v-6.777l.473-.473h9.3v-5.989h-9.3c-1.104-1.947-.231-4.772-.158-6.934h11.034v-6.304h-19.545v32.781h19.545v-6.304Z"/>
  <path d="M181.767,278.477h-11.349v-6.777l.473-.473h9.3v-5.989h-9.3c-1.104-1.947-.231-4.772-.158-6.934h11.034v-6.304h-19.545v32.781h19.545v-6.304Z"/>
  <path d="M138.878,318.996c-.43-3.259-.309-12.072.001-15.475.052-.565.034-1.02.361-1.53,1.257-1.957,8.627-1.002,10.687-.189v-6.462c-.62-.54-2.108-.709-2.999-.784-5.342-.447-15.741-.382-16.547,6.772-.356,3.161-.424,18.259.301,20.819,1.916,6.763,14.234,5.985,19.56,4.87v-6.304c-2.633.156-10.855,2.139-11.365-1.718Z"/>
  <polygon points="181.452 327.175 181.925 327.648 200.367 327.648 200.367 321.344 189.964 321.344 189.964 294.552 181.452 294.552 181.452 327.175"/>
</svg>