<?xml version="1.0" encoding="UTF-8"?>
<svg id="a" data-name="Layer 1" xmlns="http://www.w3.org/2000/svg" width="400" height="400" viewBox="0 0 400 400">
  <path d="M288.341,240.162l-79.401-46.141c-3.68-2.162-8.695-2.944-13.433-2.438,3.128-3.91,5.198-8.971,5.198-13.525l-.276-95.686c0-3.634-1.334-6.394-3.726-7.774,0,0-.046,0-.046-.046l-12.973-7.544c-2.392-1.38-5.566-1.104-8.695.69l-118.135,68.222c-5.934,3.404-10.719,11.685-10.673,18.447l.23,95.686c0,3.588,1.334,6.348,3.68,7.774l13.019,7.544h.092c.644.368,1.38.598,2.162.736-.506.92-.782,1.886-.828,2.852-.046.138-.092.276-.092.414l.046,15.319c.046,2.76,1.794,5.244,4.876,7.084l79.401,46.141c2.99,1.748,6.808,2.622,10.627,2.622s7.682-.874,10.673-2.576l118.135-68.176c3.174-1.84,4.968-4.416,4.968-7.222l-.046-14.537c.046-.276.046-.506.046-.782.046-2.714-1.702-5.244-4.83-7.084ZM207.238,196.919l79.401,46.141c1.978,1.15,3.082,2.576,3.174,4.048,0,.046-.046.092-.046.138,0,1.564-1.15,3.082-3.266,4.278l-118.089,68.222c-4.876,2.806-13.111,2.806-17.987,0l-79.171-46.003c-.046-.046-.092-.092-.184-.138-2.07-1.196-3.22-2.714-3.22-4.232s1.15-3.036,3.266-4.278l.69-.414s.046,0,.046-.046l117.399-67.716c4.922-2.806,13.111-2.806,17.987,0ZM188.331,193.561c-.092.046-.138.092-.184.138-.184.092-.414.184-.552.276l-117.399,67.808c-2.07,1.196-4.002,1.426-5.29.69-.736-.414-1.242-1.15-1.61-2.116-.276-.782-.414-1.702-.414-2.76l-.276-95.686c-.046-5.612,4.094-12.697,9.017-15.549l118.089-68.176c.828-.46,1.61-.736,2.346-.92.184-.046.414-.138.598-.138h.23c.368-.046.736-.046,1.058,0,.092,0,.184.092.276.092.276.046.552.138.782.276h.046c1.288.782,2.024,2.484,2.024,4.83l.23,95.686c.046,5.612-4.048,12.743-8.971,15.549Z"/>
  <path d="M236.128,267.717l-23.277-13.525c-1.242-.736-2.806-.736-4.048,0l-38.366,22.173c-.69.414-1.104,1.15-1.104,1.932s.414,1.518,1.104,1.932l23.277,13.525c.644.368,1.334.552,2.024.552s1.38-.184,2.024-.552l38.366-22.173c.69-.414,1.104-1.15,1.104-1.932s-.414-1.518-1.104-1.932Z"/>
  <path d="M167.768,216.378l-14.537,8.419-14.537,8.419-14.537,8.419-14.537,8.419-14.537,8.419-14.537,8.373c-.506.322-.828.874-.828,1.472s.322,1.15.828,1.472l14.445,8.419,14.445,8.419,14.445,8.419c.276.138.552.23.828.23s.598-.092.828-.23l14.537-8.373,14.537-8.419,43.657-25.21,14.537-8.419,14.537-8.373,14.537-8.419c.506-.322.828-.874.828-1.472s-.322-1.15-.828-1.472l-14.445-8.419-14.445-8.419-14.445-8.419c-.506-.322-1.15-.322-1.702,0l-14.537,8.419-14.537,8.326ZM183.179,211.364l11.133,6.44-11.179,6.486-11.133-6.44,11.179-6.486ZM212.207,211.41l11.133,6.44-11.179,6.486-11.133-6.486,11.179-6.44ZM153.829,274.71l-11.133-6.44,40.298-23.277,11.133,6.44-40.298,23.277ZM124.801,274.71l-11.133-6.44,11.179-6.486,11.133,6.44-11.179,6.486ZM139.43,253.41l11.133,6.486-11.179,6.486-11.133-6.486,11.179-6.486ZM153.967,244.992l11.133,6.486-11.179,6.486-11.133-6.486,11.179-6.486ZM168.55,236.573l11.133,6.486-11.179,6.486-11.133-6.486,11.179-6.486ZM183.087,228.201l11.133,6.486-11.179,6.486-11.133-6.486,11.179-6.486ZM197.486,249.546l-11.133-6.44,11.179-6.486,11.133,6.486-11.179,6.44ZM212.023,241.128l-11.133-6.486,11.179-6.486,11.133,6.44-11.179,6.532ZM208.756,226.269l-11.179,6.486-11.133-6.44,11.179-6.486,11.133,6.44ZM168.596,219.782l11.133,6.44-11.179,6.486-11.133-6.44,11.179-6.486ZM154.059,228.201l11.133,6.44-11.179,6.486-11.133-6.486,11.179-6.44ZM139.522,236.573l11.133,6.486-11.179,6.486-11.133-6.44,11.179-6.532ZM124.985,244.992l11.133,6.44-11.179,6.486-11.133-6.44,11.179-6.486ZM110.402,253.364l11.133,6.44-11.179,6.486-11.133-6.44,11.179-6.486ZM95.866,261.783l11.133,6.44-11.179,6.44-11.133-6.44,11.179-6.44ZM110.356,270.201l11.133,6.44-11.179,6.44-11.133-6.44,11.179-6.44ZM124.755,291.501l-11.133-6.44,11.179-6.44,11.133,6.44-11.179,6.44ZM139.292,283.128l-11.133-6.44,11.179-6.486,11.133,6.44-11.179,6.486ZM226.559,232.709l-11.133-6.44,11.179-6.486,11.133,6.44-11.179,6.486ZM197.716,202.991l11.133,6.44-11.179,6.486-11.133-6.44,11.179-6.486Z"/>
  <path d="M84.365,153.492c.276,0,.552-.092.828-.23l24.841-14.353c.782-.46,1.058-1.472.598-2.3-.46-.782-1.472-1.058-2.3-.598l-24.841,14.353c-.782.46-1.058,1.472-.598,2.3.322.506.874.828,1.472.828Z"/>
  <path d="M73.6,159.657c.276,0,.552-.092.828-.23l4.554-2.622c.782-.46,1.058-1.472.598-2.3-.46-.782-1.472-1.058-2.3-.598l-4.554,2.622c-.782.46-1.058,1.472-.598,2.3.322.552.92.828,1.472.828Z"/>
  <path d="M93.979,157.909c-.46-.782-1.472-1.058-2.3-.598l-18.907,10.903c-.782.46-1.058,1.472-.598,2.3.322.552.874.828,1.472.828.276,0,.552-.092.828-.23l18.907-10.903c.782-.506,1.058-1.518.598-2.3Z"/>
  <path d="M181.293,113.516c-1.748-1.012-3.91-.828-6.164.46-4.002,2.3-7.176,7.774-7.13,12.375,0,2.254.782,4.002,2.162,5.06l-18.953,42.047c-1.334-.184-2.806.138-4.324,1.012-2.392,1.38-4.416,3.818-5.704,6.578l-18.585-4.002c.23-.966.414-1.932.414-2.898,0-2.576-.966-4.508-2.714-5.52s-3.956-.828-6.164.46c-4.002,2.3-7.176,7.774-7.13,12.375,0,1.242.23,2.3.644,3.22l-17.527,31.604c-1.472-.322-3.128,0-4.784.966-4.002,2.3-7.176,7.774-7.13,12.375,0,2.576.966,4.508,2.714,5.52.736.414,1.61.644,2.484.644,1.15,0,2.392-.368,3.68-1.104,4.002-2.3,7.176-7.774,7.13-12.375,0-1.702-.46-3.128-1.288-4.186l17.205-31.006c.644.276,1.334.46,2.07.46,1.15,0,2.392-.368,3.68-1.104,2.3-1.334,4.278-3.68,5.566-6.302l18.631,4.002c-.184.874-.322,1.794-.322,2.622,0,2.576.966,4.508,2.714,5.52.736.414,1.61.644,2.484.644,1.15,0,2.392-.368,3.68-1.104,4.002-2.346,7.176-7.774,7.13-12.375,0-1.886-.552-3.496-1.518-4.554l19.137-42.461c1.104-.046,2.3-.368,3.496-1.104,4.002-2.3,7.176-7.774,7.13-12.375-.046-2.53-1.012-4.508-2.714-5.474Z"/>
  <path d="M336,209.892v-12.881c-.046-2.024-1.426-3.91-3.726-5.198l-11.869-6.44-.184-31.742c0-2.484-1.564-4.692-4.324-6.302-5.244-3.036-13.433-3.036-18.677,0-2.806,1.61-4.37,3.91-4.37,6.394l.092,16.699-1.472-.782-.184-56.813c0-2.484-1.564-4.692-4.324-6.348-5.244-3.036-13.433-3.036-18.677,0-2.806,1.61-4.37,3.91-4.37,6.394l.138,41.817-1.518-.828-.276-71.442c0-2.484-1.564-4.692-4.324-6.348-5.198-3.036-13.433-3.036-18.677,0-2.806,1.61-4.37,3.91-4.37,6.394l.184,68.084-17.849,10.995c-2.07,1.242-3.174,2.944-3.22,4.83,0,.046-.046.138-.046.184v12.789c0,1.012.368,2.024.966,2.898.644.92,1.564,1.702,2.76,2.346l40.344,21.989,39.332,21.437c.092.046.23.092.322.138.368.184.736.368,1.15.506.184.046.322.092.506.184.23.092.46.184.736.23.092,0,.138.046.23.046l1.242.276c.276.046.552.092.828.138s.598.046.874.046c.368.046.736.092,1.104.092,1.242,0,2.438-.138,3.588-.414.046,0,.092-.046.184-.046.23-.046.46-.138.736-.23.368-.092.782-.184,1.104-.368.598-.23,1.15-.506,1.656-.782l14.813-9.109,6.256-3.864.552-.414c1.794-1.196,2.76-2.806,2.76-4.554ZM317.093,197.057c0,1.242-.966,2.484-2.714,3.496-4.186,2.392-11.179,2.392-15.319,0-1.702-.966-2.668-2.254-2.668-3.45l-.23-37.676c.276.23.598.414.92.598,2.622,1.518,5.98,2.3,9.339,2.3s6.716-.736,9.339-2.254c.368-.23.736-.46,1.058-.69l.138,26.866v.046l.138,10.765ZM267.18,118.576c.276.23.598.414.966.598,2.622,1.518,5.98,2.3,9.339,2.3s6.716-.736,9.339-2.254c.368-.23.736-.46,1.058-.69l.23,62.748c0,1.242-.966,2.484-2.714,3.496-4.186,2.392-11.179,2.392-15.319,0-1.702-.966-2.668-2.254-2.668-3.45l-.23-62.748ZM238.244,88.215c.276.23.598.414.966.598,2.622,1.518,5.98,2.3,9.339,2.3s6.716-.736,9.339-2.254c.368-.23.69-.414,1.058-.69l.23,77.331c0,1.242-.966,2.484-2.714,3.496-4.186,2.392-11.179,2.392-15.319,0-1.702-.966-2.668-2.254-2.668-3.45l-.23-77.331ZM218.969,164.441l16.101-9.937.046,11.041c0,2.484,1.518,4.738,4.324,6.348,2.622,1.518,5.98,2.3,9.339,2.3s6.716-.736,9.339-2.254c2.806-1.656,4.37-3.91,4.37-6.394l-.046-7.82,1.518.828.092,22.863c0,2.484,1.518,4.738,4.324,6.348,2.622,1.518,5.98,2.3,9.339,2.3s6.716-.736,9.339-2.254c2.806-1.61,4.37-3.91,4.37-6.394l-.046-7.82,1.472.782.138,22.863c0,2.484,1.518,4.738,4.324,6.348,2.622,1.518,5.98,2.3,9.339,2.3s6.716-.736,9.339-2.254c2.806-1.61,4.37-3.91,4.37-6.394l-.046-7.82,10.259,5.566c1.242.69,1.978,1.518,1.978,2.346,0,.092-.046.184-.046.276-.138.644-.69,1.334-1.61,1.932l-10.627,6.532-10.443,6.394c-.138.092-.322.138-.506.23-.23.092-.46.23-.736.322-.092.046-.23.046-.322.092-.322.092-.69.23-1.058.322-.138.046-.23.046-.368.046-.414.092-.782.138-1.196.184h-.276c-.414.046-.874.046-1.288.046h-.414c-.368,0-.736-.046-1.104-.092-.184,0-.368-.046-.506-.092-.322-.046-.644-.092-.92-.184-.23-.046-.506-.138-.736-.23-.138-.046-.276-.092-.414-.138-.414-.138-.782-.322-1.104-.506l-79.677-43.427c-.828-.46-1.38-.966-1.702-1.518-.046-.046-.092-.138-.138-.184,0-.046,0-.092-.046-.092-.046-.184-.092-.322-.092-.506.092-.828.69-1.656,1.748-2.3h0Z"/>
</svg>