<?xml version="1.0" encoding="UTF-8"?>
<svg id="a" data-name="Layer 1" xmlns="http://www.w3.org/2000/svg" width="400" height="400" viewBox="0 0 400 400">
  <path d="M58.402,302.185l.687,1.895c6.6,10.27,24.476,24.361,36.333,33.709,6.005,4.733,9.44,7.465,10.937,9.097,8.525,4.421,20.721,8.257,29.249,10.153,6.815.056,12.421.082,18.14.082l6.979.005c48.202.034,128.673.096,169.494-.008,5.46-3.93,11.691-13.015,17.726-21.811,3.214-4.686,6.251-9.113,9.242-12.905,3.182-4.418,4.713-8.641,4.43-12.213l-.008-.163c-.156-11.195-1.562-110.413-2.549-146.29l-.003-.092.005-.092c.333-7.192-.919-12.15-4.321-17.113-1.788-2.812-3.456-5.821-5.069-8.731-3.298-5.951-6.707-12.104-10.969-16.426-23.589-20.14-64.824-55.286-76.627-64.965-2.982-2.497-7.941-3.101-12.317-3.635-.853-.104-1.685-.205-2.479-.317-12.995.159-32.927.281-54.022.411-47.943.295-107.58.662-119.178,1.665-11.301,1.882-20.848,11.218-22.228,21.752-.312,3.1-.258,5.875-.177,10.077.067,3.463.15,7.773.073,14.045.262,45.976.572,150.568.207,178.31.27,6.56,3.839,16.382,6.447,23.561ZM81.929,84.758l.252-.327c6.247-6.868,26.062-6.424,51.155-5.863,13.548.303,28.903.646,43.273-.22l.156-.004c6.34.011,14.241-.091,22.616-.204,13.668-.185,27.803-.375,34.632.009l.554.092c9.092,1.914,8.812,14.169,8.46,29.685-.147,6.466-.314,13.794.243,20.816l.009.109v.109c-.157,19.076.506,44.144,1.147,68.387,1.078,40.783,2.098,79.304-.417,92.997l-.085.332c-2.612,7.919-20.174,8.131-51.003,7.824-13.544-.136-27.545-.274-39.879.648l-.124.006c-8.899.223-18.478.38-27.741.532-9.819.161-19.095.313-26.336.526-.436.031-.868.046-1.294.046-4.292,0-8.084-1.567-11.031-4.576-3.864-3.945-5.917-10.166-5.375-16.263l-.151-15.578c-.375-38.7-1.282-132.271-1.645-170.725.065-3.214.813-5.614,2.583-8.359Z"/>
  <path d="M228.133,179.719c1.663-4.634.813-9.367-2.271-12.66l-.081-.09c-2.953-3.474-7.564-4.036-12.447-4.63-2.19-.267-4.454-.542-6.613-1.095-8.396-2.473-9.161-10.294-9.776-16.58-.275-2.807-.535-5.459-1.328-7.571l-.036-.101c-1.248-3.811-3.795-7.976-6.812-11.143-8.89-9.352-23.034-13.023-36.92-9.581-12.975,3.215-22.642,11.964-25.859,23.402l-.054.17c-.61,1.693-1.688,4.103-4.002,5.468l-.149.087c-2.318,1.317-5.065,1.303-7.277,1.287l-.393-.002c-.309-.011-.616-.017-.92-.017-4.988,0-9.41,1.461-12.904,4.25-4.843,3.834-7.875,10.022-8.12,16.56-.229,6.119,1.938,11.603,6.104,15.442,4.028,3.911,11.24,6.159,20.904,6.545,15.287.883,31.646.273,47.466-.315,14.319-.533,29.125-1.085,43.191-.543,2.669.094,5.44.19,8.069-.285l.123-.02c4.547-.589,8.419-3.876,10.107-8.58Z"/>
  <path d="M202.803,256.883c-.438,4.812,1.627,11.298,8.891,13.744,3.914,1.375,8.348.674,11.881-1.867,3.505-2.52,5.564-6.461,5.508-10.543v-.234c.06-3.717-1.617-7.301-4.602-9.874-2.465-2.125-5.48-3.269-8.502-3.269-.646,0-1.291.052-1.931.158-7.613,1.097-10.808,7.086-11.245,11.884Z"/>
</svg>