<?xml version="1.0" encoding="UTF-8"?>
<svg id="a" data-name="Layer 1" xmlns="http://www.w3.org/2000/svg" width="400" height="400" viewBox="0 0 400 400">
  <path d="M53.423,272.276c19.246,23.873,43.517,51.74,64.922,74.544.544.578,1.088,1.163,1.635,1.751,6.161,6.623,12.53,13.469,21.169,15.125l189.03.671c15.172-1.344,26.736-12.946,28.139-28.253,3.047-33.266,1.66-69.633.318-104.803-1.236-32.437-2.516-65.976-.343-97.236-.327-6.421-2.773-12.371-7.691-18.71-12.003-15.475-43.964-49.471-57.879-60.681-6.403-5.158-13.704-8.64-21.704-10.353l-193.905-.258c-20.783,3.843-35.806,19.196-39.293,40.148,1.574,23.688.542,49.279-.456,74.031-1.124,27.9-2.287,56.752.297,82.811,1.225,12.345,7.306,20.725,15.762,31.214ZM65.179,90.452c.944-10.086,6.031-16.401,15.119-18.771l.314-.082,188.186.579.47.202c7.96,3.425,11.854,9.005,12.628,18.092,2.065,24.272,1.127,50.391.22,75.649-.835,23.218-1.697,47.226-.217,69.66l.009.128-.005.127c-.4,11.131-7.595,18.368-19.244,19.359-13.174,1.121-26.798,1.52-40.579,1.52-17.304,0-34.855-.629-52.082-1.245-28.399-1.018-57.763-2.07-85.208-.271l-.136.005c-.067,0-.135,0-.201,0-9.954,0-18.557-8.028-19.225-17.989l-.012-.171.012-.171c1.566-22.352.622-46.525-.291-69.904-1.004-25.721-2.043-52.318.242-76.719Z"/>
  <path d="M206.452,111.497l-85.767,85.943c-3.623,6.967-1.274,13.104,2.176,16.553,3.449,3.449,9.587,5.796,16.551,2.176l86.975-86.975c2.695-5.207,2.357-10.858-.928-15.18-3.416-4.493-9.074-6.342-15.129-4.947-1.245.287-2.441,1.037-3.878,2.431Z"/>
  <path d="M132.837,108.921c-7.551,0-13.694,6.144-13.694,13.695s6.144,13.695,13.694,13.695,13.695-6.144,13.695-13.695-6.144-13.695-13.695-13.695Z"/>
  <path d="M214.234,190.318c-7.552,0-13.695,6.144-13.695,13.695s6.144,13.695,13.695,13.695,13.695-6.144,13.695-13.695-6.144-13.695-13.695-13.695Z"/>
</svg>