<?xml version="1.0" encoding="UTF-8"?>
<svg id="a" data-name="Layer 1" xmlns="http://www.w3.org/2000/svg" width="400" height="400" viewBox="0 0 400 400">
  <path d="M214.229,250.965c1.442,1.435,2.682,2.699,3.506,3.468,1.476,1.387,1.754,1.19,2.777.182,5.269-5.218,30.108-29.822,35.186-34.858.373-.397.837-.784.727-1.309-.091-.417-.563-.968-1.417-1.849-1.591-1.619-4.663-4.667-6.939-6.949-1.734-1.722-2.813-2.86-3.428-3.141l-.063-.028c-.348-.14-.6-.043-.885.176-8.576,8.365-31.565,31.249-35.976,35.596-1.156,1.072-.45,1.656.709,2.894,1.299,1.333,3.682,3.691,5.803,5.818Z" fill="none"/>
  <path d="M129.447,180.854h-.2c-11.655-.161-20.291,12.059-16.385,22.999,5.634,16.351,29.028,15.343,33.35-1.346,2.911-10.669-5.681-21.78-16.765-21.653Z" fill="none"/>
  <path d="M244.538,120.405l-.033-.026c-.043-.036-.071-.071-.101-.107-.056.02-.108.042-.175.059.102.026.207.047.309.074Z" fill="none"/>
  <path d="M290.187,126.457c.652.343,1.303.703,1.954,1.092-.644-.38-1.294-.745-1.954-1.092Z" fill="none"/>
  <path d="M90.272,137.761c-12.876,1.881-22.23,14.067-21.941,26.802.061,9.052-.135,81.236.094,104.52l.01.114c.721,11.957,9.873,22.534,21.837,24.362,8.716,1.136,11.714.248,29.749.516,40.211-.03,140.003.077,149.655-.067,14.411-.726,25.496-12.893,25.242-27.251-.022-8.503.031-68.989,0-90.06-.213-9.922.6-11.428-.734-18.597-2.288-12.15-13.776-20.778-25.849-20.854-14.255.473-134.95-.935-178.063.515ZM189.57,235.874c12.809-12.79,40.814-40.855,47.846-47.831,2.501-2.569,7.623-3.568,11.141-1.725,2.377,1.173,3.285,2.453,5.775,4.868,4.236,4.251,9.885,9.864,14.364,14.364,3.996,4.283,8.881,7.318,8.669,13.146-.105,2.664-1.245,5.265-3.072,6.987-3.526,3.532-18.435,18.436-30.792,30.794-5.158,5.156-8.989,8.992-13.504,13.504-1.716,1.61-3.242,3.505-4.926,4.638-3.151,2.141-7.823,2.169-10.941.082l-.114-.073c-6.779-5.856-15.91-15.828-21.889-21.531-2.753-2.639-5.463-5.255-5.675-9.24-.086-3.561,1.022-5.868,3.117-7.984ZM164.09,201.366c-1.431,17.793-16.819,31.851-34.641,31.777h-.203c-18.598.224-34.739-15.654-34.771-34.259-.651-19.913,16.942-36.803,36.739-35.448,19.521.859,34.758,18.455,32.876,37.93Z" fill="none"/>
  <path d="M250.298,121.396c15.042.08,27.17-1.242,38.987,4.593-7.348-3.661-15.577-5.297-24.031-4.827-4.685-.001-12.479.003-16.62-.002-.446.005-.855-.009-1.24-.034.907.187,1.852.314,2.904.27Z" fill="none"/>
  <path d="M107.515,121.384c-4.826-.033-9.003-.049-11.572.017,2.515-.061,6.715-.047,11.572-.017Z" fill="none"/>
  <path d="M172.793,86.523h1.208c-1.887-.029-3.722-.057-5.559-.007,1.374-.002,2.792.019,4.35.007Z" fill="none"/>
  <path d="M196.395,102.366c-4.802,0-16.988,0-24.719,0-3.27.109-5.82-.299-8.849.359-3.492.744-6.814,4.236-7.112,8.07l-.026.19c-.248,2.408-.298,5.05-.073,7.449.218,1.745,1.062,1.357,3.034,1.413.636,0,1.25.001,1.926,0,10.602-.019,40.523.039,45.933-.028,1.921.015,1.111-5.388,1.166-7.511.036-6.308-5.265-10.487-11.28-9.94Z" fill="none"/>
  <path d="M179.595,86.523c-.111,0-.222,0-.333,0-.005,0-.01,0-.016,0h.349Z" fill="none"/>
  <path d="M195.551,86.522c-1.48,0-3.088,0-4.777,0h2.861c.661.004,1.295.002,1.916,0Z" fill="none"/>
  <path d="M335.508,168.93c-.121-.124-.249-.24-.372-.362-.069-.07-.134-.143-.203-.212-.121-.124-.249-.24-.372-.362-.069-.07-.134-.143-.203-.212-.121-.124-.249-.24-.372-.362-.069-.07-.133-.143-.203-.212-.121-.124-.249-.24-.372-.362-.069-.07-.134-.143-.203-.212-.121-.124-.249-.24-.372-.362-.069-.07-.134-.143-.203-.212-.121-.124-.249-.24-.372-.362-.069-.07-.134-.143-.203-.212-.121-.124-.249-.24-.372-.362-.069-.07-.133-.143-.203-.212-.121-.124-.249-.24-.372-.362-.069-.07-.134-.143-.203-.212-.121-.124-.249-.24-.372-.362-.069-.07-.134-.143-.203-.212-.121-.124-.249-.24-.372-.362-.069-.07-.134-.143-.203-.212-.121-.124-.249-.24-.372-.362-.069-.07-.134-.143-.203-.212-.121-.124-.249-.24-.372-.362-.069-.07-.133-.143-.203-.212-.121-.124-.249-.24-.372-.362-.069-.07-.134-.143-.203-.212-.121-.124-.249-.24-.372-.362-.069-.07-.134-.143-.203-.212-.121-.124-.249-.24-.372-.362-.069-.07-.134-.143-.203-.212-.121-.124-.249-.24-.372-.362-.069-.07-.133-.143-.203-.212-.121-.124-.249-.24-.372-.362-.069-.07-.134-.143-.203-.212-.121-.124-.249-.24-.372-.362-.069-.07-.134-.143-.203-.212-.121-.124-.249-.24-.372-.362-.069-.07-.134-.143-.203-.212-.121-.124-.249-.24-.372-.362-.069-.07-.133-.143-.203-.212-.121-.124-.249-.24-.372-.362-.069-.07-.133-.143-.203-.212-.121-.124-.249-.24-.372-.362-.069-.07-.134-.143-.203-.212-.121-.124-.249-.24-.372-.362-.069-.07-.134-.143-.203-.212-.121-.124-.249-.24-.372-.362-.069-.07-.134-.143-.203-.212-.121-.124-.249-.24-.372-.362-.069-.07-.133-.143-.203-.212-.121-.124-.249-.24-.372-.362-.069-.07-.134-.143-.203-.212-.121-.124-.249-.24-.372-.362-.069-.07-.134-.143-.203-.212-.121-.124-.249-.24-.372-.362-.069-.07-.134-.143-.203-.212-.121-.124-.249-.24-.372-.362-.069-.07-.133-.143-.203-.212-.121-.124-.249-.24-.372-.362-.069-.07-.134-.143-.203-.212-.121-.124-.249-.24-.372-.362-.069-.07-.134-.143-.203-.212-.121-.124-.249-.24-.372-.362-.069-.07-.134-.143-.203-.212-.121-.124-.249-.24-.372-.362-.069-.07-.134-.143-.203-.212-.121-.124-.249-.24-.372-.362-.069-.07-.133-.143-.203-.212-.121-.124-.249-.24-.372-.362-.069-.07-.134-.143-.203-.212-.121-.124-.249-.24-.372-.362-.069-.07-.134-.143-.203-.212-.121-.124-.249-.24-.372-.362-.069-.07-.134-.143-.203-.212-.121-.124-.249-.24-.372-.362-.069-.07-.133-.143-.203-.212-.121-.124-.249-.24-.372-.362-.069-.07-.134-.143-.203-.212-.121-.124-.249-.24-.372-.362-.069-.07-.134-.143-.203-.212-.121-.124-.249-.24-.372-.362-.069-.07-.134-.143-.203-.212-.121-.124-.249-.24-.372-.362-.069-.07-.133-.143-.203-.212-.121-.124-.249-.24-.372-.362-.069-.07-.133-.143-.203-.212-.121-.124-.249-.24-.372-.362-3.056-3.066-6.177-6.182-9.25-9.253-2.967-2.895-5.899-5.165-8.837-6.945,3.026,1.81,5.88,3.976,8.497,6.52-.027-.072-.236-.261-.33-.372-.029-.03-.123-.128-.153-.159-9.372-10.141-22.933-14.984-36.448-14.235-5.031.014-13.998-.029-17.812.022-.548.019-.948.079-1.241.163-.152-.605-1.153-1.471-2.114-2.415-7.881-7.448-15.654-15.291-23.636-22.575-.11-.034-.046.135.162.498-3.192-3.795-7.56-6.593-12.769-7.706-2.837-.692-5.279-.858-7.843-.891.37,0,.73,0,1.072.001,5.556-.099,11.452,1.093,16.205,4.022.811.368,2.431,1.636,2.812,1.653-5.458-5.244-13.885-7.591-21.467-7.231-5.358,0-17.976,0-25.436,0-16.653-1.368-31.353,7.122-32.892,24.695-.185,2.066-.156,4.659-.216,6.623-.061,1.755-.254,2.964-.984,3.31-9.423.688-34.878.029-43.288.25-24.026.045-43.492,19.511-43.537,43.537v104.554c.022,12.06,4.94,22.968,12.869,30.851.544.596,1.099,1.181,1.675,1.746.19.194.381.385.574.574.189.194.381.385.574.574.19.193.381.385.574.574.189.193.381.385.574.574,9.534,9.538,19.063,19.064,28.604,28.606,5.741,6.047,12.628,11.372,20.775,13.855,4.365,1.43,9.62,2.165,14.093,2.197,41.587-.001,165.508,0,173.468,0,24.045,0,43.537-19.492,43.537-43.537v-104.553c-.046-11.443-4.628-22.399-12.742-30.468ZM265.253,121.163c8.454-.471,16.683,1.166,24.031,4.827-11.817-5.835-23.945-4.513-38.987-4.593-1.052.044-1.997-.082-2.904-.27.384.025.794.039,1.24.034,4.142.005,11.936,0,16.62.002ZM292.141,127.549c-.651-.389-1.302-.749-1.954-1.092.659.347,1.31.711,1.954,1.092ZM244.505,120.379l.033.026c-.102-.026-.207-.048-.309-.074.067-.017.119-.038.175-.059.03.036.058.071.101.107ZM268.335,137.245c12.072.077,23.56,8.704,25.849,20.854,1.334,7.168.521,8.675.734,18.597.031,21.071-.022,81.557,0,90.06.254,14.358-10.831,26.524-25.242,27.251-9.652.145-109.444.037-149.655.067-18.035-.268-21.033.62-29.749-.516-11.964-1.829-21.116-12.406-21.837-24.362l-.01-.114c-.229-23.284-.033-95.467-.094-104.52-.289-12.735,9.065-24.92,21.941-26.802,43.112-1.451,163.808-.042,178.063-.515ZM207.675,112.307c-.055,2.124.756,7.527-1.166,7.511-5.411.067-35.331.009-45.933.028-.677.001-1.29,0-1.926,0-1.973-.056-2.816.332-3.034-1.413-.225-2.399-.175-5.04.073-7.449l.026-.19c.298-3.834,3.62-7.326,7.112-8.07,3.029-.658,5.579-.25,8.849-.359,7.731,0,19.918,0,24.719,0,6.015-.547,11.316,3.632,11.28,9.94ZM190.774,86.523c1.689,0,3.297,0,4.777,0-.621.003-1.255.005-1.916,0h-2.861ZM179.595,86.523h-.349c.005,0,.01,0,.016,0,.111,0,.222,0,.333,0ZM174.001,86.523h-1.208c-1.558.012-2.977-.009-4.35-.007,1.837-.05,3.671-.022,5.559.007ZM107.515,121.384c-4.856-.03-9.057-.044-11.572.017,2.568-.065,6.746-.05,11.572-.017Z"/>
  <path d="M300.366,133.662s.002.002.003.003c-.02-.02-.016-.016-.003-.003Z"/>
  <path d="M131.214,163.435c-19.797-1.354-37.391,15.535-36.739,35.448.032,18.605,16.174,34.483,34.771,34.259h.203c17.822.074,33.21-13.985,34.641-31.777,1.882-19.476-13.354-37.072-32.876-37.93ZM146.212,202.507c-4.322,16.689-27.716,17.698-33.35,1.346-3.905-10.94,4.73-23.16,16.385-22.999h.2c11.083-.128,19.676,10.984,16.765,21.653Z"/>
  <path d="M192.128,253.098c5.979,5.703,15.111,15.675,21.889,21.531l.114.073c3.117,2.087,7.79,2.059,10.941-.082,1.684-1.133,3.209-3.028,4.926-4.638,4.515-4.512,8.345-8.348,13.504-13.504,12.357-12.358,27.266-27.263,30.792-30.794,1.828-1.722,2.968-4.323,3.072-6.987.212-5.829-4.673-8.863-8.669-13.146-4.479-4.5-10.128-10.113-14.364-14.364-2.49-2.415-3.398-3.694-5.775-4.868-3.518-1.843-8.639-.844-11.141,1.725-7.032,6.976-35.037,35.042-47.846,47.831-2.094,2.116-3.203,4.423-3.117,7.984.211,3.986,2.922,6.601,5.675,9.24ZM207.717,242.254c4.411-4.347,27.4-27.23,35.976-35.596.286-.219.537-.316.885-.176l.063.028c.615.281,1.694,1.419,3.428,3.141,2.276,2.282,5.348,5.33,6.939,6.949.854.881,1.326,1.432,1.417,1.849.11.525-.354.912-.727,1.309-5.078,5.036-29.917,29.64-35.186,34.858-1.022,1.008-1.301,1.205-2.777-.182-.824-.769-2.064-2.032-3.506-3.468-2.121-2.128-4.505-4.485-5.803-5.818-1.159-1.238-1.865-1.822-.709-2.894Z"/>
</svg>