<?xml version="1.0" encoding="UTF-8"?>
<svg id="a" data-name="Layer 1" xmlns="http://www.w3.org/2000/svg" width="400" height="400" viewBox="0 0 400 400">
  <path d="M117.827,80.31c.64.557,6.433.728,9.579,3.394,8.202,6.951,6.187,22.047-3.95,25.526-4.668,1.602-32.981,1.81-38.533.893-11.373-1.879-15.536-16.635-8.119-24.949,3.602-4.038,9.989-4.059,10.933-4.86.384-.326,1.064-5.184,2.162-7.119,5.632-9.929,20.15-9.896,25.763,0,1.109,1.954,1.754,6.757,2.165,7.115Z"/>
  <path d="M233.495,51.119c4.16-.676,8.194.011,11.476,2.776,32.043,34.175,69.655,66.002,98.798,102.673,5.179,6.516,10.757,13.356,11.207,22.165-3.19,45.415,4.072,96.242.003,141.008-1.311,14.422-12.404,25.714-26.619,27.766-64.224-3.814-134.275,5.051-197.814.037-27.72-2.187-60.56-36.18-84.053-50.674-6.026-7.607-.675-20.297,2.199-28.797,14.395-42.567,51.145-95.496,80.641-129.481,6.443-7.423,17.22-20.359,24.743-25.933,8.416-6.235,21.737-9.513,30.202-15.53,14.551-10.344,29.018-33.16,43.289-43.233,1.926-1.36,3.515-2.384,5.928-2.776ZM289.406,162.096l-8.071-30.851-45.514-44.456c-2.556.453-30.102,31.371-36.016,35.753-8.251,6.113-20.751,9.038-29.074,15.423-2.99,2.293-35.271,37.258-33.342,38.952,13.357-1.834,28.963-23.345,41.252-22.174,8.056.768,20.568,19.02,28.089,25.151,7.116,5.802,16.322,11.57,25.048,14.443,2.292-.36,19.387-33.517,26.842-37.7,9.007-5.053,21.764,2.716,30.786,5.459ZM310.43,273.337c-2.073-25.874-7.537-51.317-12.996-76.615l-24.737-9.521c-2.387.262-20.291,30.425-24.099,34.81-7.981,9.191-12.941,7.643-23.432,3.718-20.302-7.597-36.65-22.029-51.305-37.468-18.142,13.722-39.662,22.779-62.414,25.145-13.196,18.097-25.144,38.617-32.152,59.931h231.134Z"/>
</svg>