<?xml version="1.0" encoding="UTF-8"?>
<svg id="a" data-name="Layer 1" xmlns="http://www.w3.org/2000/svg" width="400" height="400" viewBox="0 0 400 400">
  <path d="M348.813,142.154c-.702-9.461-3.774-15.876-10.266-21.422l-113.443-78.104c-9.609-4.654-13.348-1.34-19.531,7.289-11.207,15.634-21.334,33.457-31.128,50.693-9.549,16.806-19.42,34.179-30.39,49.736-11.034,31.063-19.428,59.846-25.655,87.977l-.231,1.049-20.474,12.291v-24.723c0-1.521.976-2.31,3.331-4.215,3.628-2.934,10.381-8.395,11.394-14.717,3.329-20.776-10.73-48.875-26.406-63.266-19.834,17.472-28.765,44.743-27.558,58.188.833,9.276,5.359,16.291,13.453,20.851l1.272.717-.002,40.494-1.177.734c-2.076,1.296-4.567,2.656-7.204,4.097-8.742,4.776-20.715,11.316-21.502,18.624-.365,3.396,1.741,7.106,6.263,11.028,11.45,9.931,56.827,41.117,67.567,44.191,3.525,1.009,7.706,1.793,10.911,2.047,32.615,2.576,67.628,1.406,101.489.274,31.237-1.043,63.532-2.122,94.06-.281,12.331-1.068,22.578-10.506,25.049-23.052-1.448-27.853-.512-57.197.394-85.58,1.01-31.624,2.053-64.325-.216-94.921ZM148.315,218.041c2.895-7.638,5.186-16.152,7.4-24.386,2.867-10.66,5.832-21.684,10.222-31.407,6.039-13.382,15.248-26.991,24.154-40.151,7.936-11.727,16.142-23.852,21.957-35.627l.347-.703,5.925-3.272,33.17,79.071c6.901,10.013,13.354,7.364,24.112,1.836,2.251-1.156,4.577-2.352,6.968-3.375l2.692-1.153,10.661,42.261-62.017,15.524-.42-.037c-6.113-.541-13.861-3.604-22.065-6.847-9.048-3.577-18.398-7.272-24.083-6.749-2.945.273-13.864,6.594-21.09,10.777-9.895,5.728-13.492,7.722-15.478,7.722-.71,0-1.214-.254-1.727-.685l-1.358-1.141.629-1.659ZM296.343,270.82l-.707,6H104.209l85.21-48.048,44.374,13.517,63.553-15.374.372,2.746c1.877,13.871.224,27.743-1.375,41.159Z"/>
  <path d="M116.485,58.984c-2.646-2.244-6.498-2.985-8.799-3.429-.126-.024-.26-.05-.393-.076-.059-.247-.119-.507-.172-.734-.421-1.824-.946-4.094-1.771-5.551-3.08-5.429-8.69-8.669-15.008-8.669-6.311,0-11.915,3.241-14.994,8.669-.825,1.455-1.359,3.757-1.788,5.607-.056.238-.119.512-.181.768-.206.047-.426.096-.628.14-2.648.584-7.081,1.561-10.132,4.98-4.24,4.752-5.491,11.62-3.267,17.924,2.097,5.94,6.885,10.07,12.809,11.049,2.351.388,8.117.594,14.581.594,10.074,0,21.842-.5,25.005-1.585,5.332-1.83,9.2-6.556,10.347-12.643,1.231-6.538-.918-13.069-5.609-17.045Z"/>
</svg>