<?xml version="1.0" encoding="UTF-8"?>
<svg id="a" data-name="Layer 1" xmlns="http://www.w3.org/2000/svg" width="400" height="400" viewBox="0 0 400 400">
  <path d="M116.103,101.571l118.094-.636c7.521-.04,11.291-9.107,6.017-14.468l-57.755-58.716c-3.294-3.349-8.678-3.393-12.027-.099l-60.339,59.352c-5.442,5.353-1.623,14.609,6.01,14.568Z" fill="#323232"/>
  <g>
    <path d="M291.325,134.577c-.16-.082-.323-.161-.485-.242-.16-.082-.323-.161-.485-.242-.16-.082-.323-.161-.485-.242-.16-.082-.323-.161-.485-.242-.16-.082-.323-.161-.485-.242-.16-.082-.323-.161-.485-.242-.16-.082-.323-.161-.485-.242-.16-.082-.323-.161-.485-.242-.16-.082-.323-.161-.485-.242-.16-.082-.323-.161-.485-.242-.16-.082-.323-.161-.485-.242-.16-.082-.323-.161-.485-.242-.16-.082-.323-.161-.485-.242-.16-.082-.323-.161-.485-.242-.16-.082-.323-.161-.485-.242-.16-.082-.323-.161-.485-.242-.16-.082-.323-.161-.485-.242-.16-.082-.323-.161-.485-.242-.16-.082-.323-.161-.485-.242-.16-.082-.323-.161-.485-.242-.16-.082-.323-.161-.485-.242-.16-.082-.323-.161-.485-.242-.16-.082-.323-.161-.485-.242-.16-.082-.323-.161-.485-.242-.16-.082-.323-.161-.485-.242-.16-.082-.323-.161-.485-.242-.16-.082-.323-.161-.485-.242-.16-.082-.323-.161-.485-.242-.16-.082-.323-.161-.485-.242-.16-.082-.323-.161-.485-.242-.16-.082-.323-.161-.485-.242-.16-.082-.323-.161-.485-.242-.16-.082-.323-.161-.485-.242-.16-.082-.323-.161-.485-.242-.16-.082-.323-.161-.485-.242-.16-.082-.323-.161-.485-.242-.16-.082-.323-.161-.485-.242-.16-.082-.323-.161-.485-.242-.16-.082-.323-.161-.485-.242-.16-.082-.323-.161-.485-.242-.16-.082-.323-.161-.485-.242-.16-.082-.323-.161-.485-.242-.16-.082-.323-.161-.485-.242-.16-.082-.323-.161-.485-.242-.16-.082-.323-.161-.485-.242-.16-.082-.323-.161-.485-.242-.16-.082-.323-.161-.485-.242-.16-.082-.323-.161-.485-.242-.16-.082-.323-.161-.485-.242-.16-.082-.323-.161-.485-.242-.16-.082-.323-.161-.485-.242-.16-.082-.323-.161-.485-.242-.16-.082-.323-.161-.485-.242-.16-.082-.323-.161-.485-.242-.16-.082-.323-.161-.485-.242-.16-.082-.323-.161-.485-.242-.16-.082-.323-.161-.485-.242-.16-.082-.323-.161-.485-.242-.16-.082-.323-.161-.485-.242-8.406-4.307-17.936-6.738-28.035-6.738h-108.055c-33.908,0-61.396,27.488-61.396,61.396v107.736c0,24,13.808,44.779,33.925,54.863.16.082.323.161.485.242.16.082.323.161.485.242.16.082.323.161.485.242.16.082.323.161.485.242.16.082.323.161.485.242.16.082.323.161.485.242.16.082.323.161.485.242.16.082.323.161.485.242.16.082.323.161.485.242.16.082.323.161.485.242.16.082.323.161.485.242.16.082.323.161.485.242.16.082.323.161.485.242.16.082.323.161.485.242.16.082.323.161.485.242.16.082.323.161.485.242.16.082.323.161.485.242.16.082.323.161.485.242.16.082.323.161.485.242.16.082.323.161.485.242.16.082.323.161.485.242.16.082.323.161.485.242.16.082.323.161.485.242.16.082.323.161.485.242.16.082.323.161.485.242.16.082.323.161.485.242.16.082.323.161.485.242.16.082.323.161.485.242.16.082.323.161.485.242.16.082.323.161.485.242.16.082.323.161.485.242.16.082.323.161.485.242.16.082.323.161.485.242.16.082.323.161.485.242.16.082.323.161.485.242.16.082.323.161.485.242.16.082.323.161.485.242.16.082.323.161.485.242.16.082.323.161.485.242.16.082.323.161.485.242.16.082.323.161.485.242.16.082.323.161.485.242.16.082.323.161.485.242.16.082.323.161.485.242.16.082.323.161.485.242.16.082.323.161.485.242.16.082.323.161.485.242.16.082.323.161.485.242.16.082.323.161.485.242.16.082.323.161.485.242.16.082.323.161.485.242.16.082.323.161.485.242.16.082.323.161.485.242.16.082.323.161.485.242.16.082.323.161.485.242.16.082.323.161.485.242.16.082.323.161.485.242.16.082.323.161.485.242.16.082.323.161.485.242,8.406,4.307,17.936,6.738,28.036,6.738h108.055c33.908,0,61.395-27.488,61.395-61.395v-107.736c0-24-13.808-44.779-33.925-54.863ZM230.84,316.571h-108.181c-21.213,0-38.41-17.197-38.41-38.41v-108.181c0-21.213,17.196-38.409,38.409-38.409h108.182c21.213,0,38.409,17.196,38.409,38.409v108.181c0,21.213-17.197,38.41-38.41,38.41Z" fill="#323232"/>
    <path d="M191.532,191.695c-.28,24.541,1.271,43.198,4.66,55.965-2.958-10.139-8.778-25.035-17.459-44.692l-20.44-45.908-34.09-.389-1.557,136.416,34.09.389.413-36.22c.289-25.326-1.12-43.193-4.226-53.598,3.414,10.277,16.202,40.347,38.364,90.212l33.169.379,1.557-136.416-34.09-.389-.391,34.252Z" fill="#323232"/>
  </g>
</svg>