<?xml version="1.0" encoding="UTF-8"?>
<svg id="a" data-name="Layer 1" xmlns="http://www.w3.org/2000/svg" width="400" height="400" viewBox="0 0 400 400">
  <path d="M372.267,305.4c-6.245-6.277-12.515-12.539-18.783-18.8-3.102-3.098-6.202-6.194-9.301-9.294l-5.23-5.234c-3.585-3.589-7.168-7.177-10.773-10.762-1.655-1.818-3.707-3.196-5.943-3.99l-.2-.066c-6.672-2.023-13.789-3.472-21.639-4.398,5.399-16.691,6.959-34.341,4.592-51.683,8.481,3.681,19.583,8.499,19.997,8.678l.129.054c1.53.606,3.222.977,4.943,1.072,6.431.263,13.157-2.886,17.544-8.262,3.834-4.698,5.258-10.484,3.907-15.875l-.104-.355c-.499-1.467-1.053-2.913-1.589-4.311-.485-1.27-.944-2.469-1.312-3.566-.395-1.107-.765-2.186-1.128-3.244-1.372-3.995-2.668-7.77-4.845-12.016-3.38-6.372-7.412-12.249-13.92-20.286l-.085-.103c-3.612-4.202-7.629-8.149-11.513-11.967-2.009-1.974-4.085-4.015-6.083-6.072l-16.221-16.221c-2.23-2.227-4.475-4.473-6.721-6.72l-4.282-4.283c-9.246-9.854-18.369-16.433-27.82-20.085-6.898-2.798-14.159-4.448-21.605-4.915l-22.412-22.414c-1.623-1.593-3.241-3.23-4.87-4.879-5.871-5.941-11.943-12.085-18.843-16.873-5.625-4.046-8.392-4.833-14.807-4.23l-.207.024c-5.558.787-11.247,4.808-14.847,10.493-2.25,3.554-3.435,7.357-3.466,10.938-1.633-.53-3.269-.986-4.884-1.362-22.353-6.036-53.457,3.87-66.033,13.676l-11.537,8.282c-6.95,4.215-10.23,13.132-7.834,21.331,1.344,5.382,4.951,9.323,8.325,12.473,1.342,1.352,2.615,2.621,3.887,3.889.948.945,1.896,1.89,2.872,2.869,3.677,3.684,7.46,7.465,11.166,11.162-1.835,2.664-3.662,5.406-5.263,8.261-6.857,11.889-11.523,24.803-13.87,38.386-.485,2.271.036,4.337.418,5.854l.174.703c1.578,6.061,5.836,10.162,9.593,13.78.989.953,1.924,1.854,2.791,2.766l.078.08c8.625,8.638,17.258,17.275,25.9,25.907,3.986,3.992,7.888,7.896,11.961,11.959,3.524,3.833,8.198,6.374,13.099,7.232-.029.205-.058.411-.087.618-.263,1.855-.535,3.775-.723,5.604-1.231,10.267-1.922,19.9-2.062,28.694-28.945,5.016-52.124,10.572-68.931,16.526-20.493,7.405-31.681,14.249-38.616,23.622l-.208.307c-2.936,4.738-2.869,10.858.171,15.592l.059.09c1.213,1.794,2.687,3.217,3.987,4.472.476.459.953.918,1.46,1.445,4.463,4.494,8.94,8.965,13.423,13.441,4.007,4.002,8.019,8.008,12.06,12.069,1.553,1.532,3.1,3.085,4.65,4.641,1.644,1.65,3.291,3.305,4.954,4.941.865.93,1.734,1.775,2.577,2.594.673.653,1.35,1.31,2.016,2.008,3.539,4.037,7.757,6.224,11.968,6.224.212,0,.425-.006.637-.017,4.46-.064,8.769-2.315,11.602-6.056,1.522-1.624,2.929-2.638,5.402-4.212,15.903-9.312,38.518-14.658,62.208-19.746,5.131-1.059,11.309-2.235,17.771-3.387.811-.127,1.64-.279,2.474-.434.483-.089.955-.176,1.416-.257,5.388,6.213,13.517,9.489,23.563,9.489h.124l.278-.01c17.409-1.125,33.785-5.954,48.676-14.353l.354-.223c1.858-1.289,3.381-3.107,4.44-5.267,18.188-1.905,37.563-3.651,56.227-5.064,13.559-1.08,27.738.366,42.141,4.3l.478.104c6.469,1.027,12.699-2.316,15.519-8.326,2.814-5.995,1.472-12.664-3.414-17.035ZM145.617,277.52c1.363-1.791,1.316-3.691,1.252-6.321-.033-1.352-.078-3.202.01-5.733.533-19.939,3.587-42.028,9.606-69.496,4.844-21.688,10.04-40.777,17.376-63.83l2.95-9.27-8.975,3.754c-3.5,1.464-11.635,5.195-18.813,8.488-4.923,2.259-9.574,4.392-10.72,4.864l-.246.11c-.052.024-.088.038-.097.045-.21-.066-1.017-.546-2.031-2.092l-4.019-6.129-3.647,6.357c-.955,1.663-1.512,3.766-2.101,5.991-.407,1.535-.913,3.446-1.389,4.297l-.104.197c-.076.153-.133.263-.175.34-.334.256-.827.636-1.51,1.284-2.01,1.744-4.06,3.516-6.214,5.376-2.083,1.799-4.263,3.682-6.594,5.703l-14.29,12.362c-.615.444-1.93.422-3.493-.071-3.171-.971-5.666-3.8-6.235-6.995,4.267-24.397,17.312-46.336,36.784-61.836l2.353-2.206-.815-2.697c-.87-2.877-3.393-3.279-6.064-3.706-1.326-.212-3.143-.502-5.083-.948l-15.716-3.01c-7.314-1.4-13.863-2.653-15.343-2.937-.022-.008-.042-.015-.057-.021l-.098-.046c-1.666-.749-3.164-2.974-3.562-5.291-.213-1.24-.201-2.963,1.017-4.245.941-.721,1.848-1.362,2.887-2.097.796-.563,1.64-1.16,2.585-1.854l.299-.239c9.876-8.622,25.099-15.19,39.727-17.143,12.035-1.606,29.144-.954,42.308,11.273l3.035,2.561,2.886-2.285c1.299-1.028,1.895-2.616,1.661-4.181v-.223s-.145-.422-.145-.422c-.037-.122-.079-.243-.126-.363l-.638-1.855c-.674-1.969-1.687-4.908-2.657-7.725-1.095-3.177-2.32-6.734-2.651-7.715-.196-1.608.645-3.717,2.189-5.45,1.581-1.773,3.606-2.816,5.311-2.72.999.119,1.404.322,1.912.719l.252.183c11.521,7.776,25.685,22.373,30.884,40.019l.051.16c.269.802.484,1.695.713,2.643.213.879.432,1.789.715,2.705l1.217,3.946,4.036-.875c5.67-1.229,10.903-1.717,15.646-1.444,39.969,1.536,55.765,44.527,59.66,57.688.487,1.619-.395,3.087-1.221,4.034-1.558,1.785-4.058,2.964-5.903,2.829-1.938-.699-3.598-1.446-5.498-2.302-1.369-.616-2.92-1.313-4.751-2.07-3.65-1.643-9.45-4.132-15.06-6.541-4.664-2.002-9.068-3.893-11.376-4.931l-6.444-2.897.099,7.065c.013.894.269,1.608.439,2.059l.097.322c3.448,11.545,4.812,23.499,4.052,35.529-.785,12.382-3.736,24.296-8.773,35.424-1.604,1.788-3.972,2.76-6.475,2.621l-.282-.016-.282.02c-2.054.151-4.156-.98-5.062-2.704l-1.349-5.05c-.946-3.819-2.111-8.031-3.344-12.49-1.811-6.545-3.679-13.302-4.864-18.914.358-1.664,1.262-4.459,1.888-6.395.666-2.059,1.021-3.17,1.177-3.974l1.346-6.937-6.855,1.714c-.48.12-.988.274-1.511.437-.576.179-1.533.481-1.882.469l-.219-.013h-.06c-.321-.332-.84-1.22-1.195-1.828-.166-.283-.332-.566-.55-.924-.951-1.502-2.313-3.788-3.516-5.805-.868-1.457-1.688-2.832-2.305-3.836-1.067-1.733-3.052-4.959-6.717-3.353-1.837.805-2.872,2.65-2.678,4.601.275,11.275.337,21.327.396,31.05.188,30.669.336,54.894,7.471,85.114l.826,3.497,3.594-.031c6.279-.056,12.692-.827,18.894-1.573,3.039-.365,6.181-.743,9.317-1.034,26.567-3,56.679-6.399,83.248,1.346.044.013.168.095.271.274.104.181.109.332.084.424l-.026.104c-.026.089-.145.232-.316.329-.142.081-.278.104-.351.084-16.032-4.582-33.587-5.924-52.178-3.979-18.679,1.472-38.169,3.297-56.365,5.277l-.2.026c-1.3.201-2.458.939-3.178,2.026-.702,1.06-.928,2.275-.666,3.641l.095.497c.065.305-.01.599-.08.743-18.444,9.328-33.859,12.996-47.115,11.212-3.597-.676-6.566-3.17-8.155-6.854l-1.268-2.941-3.193.234c-1.572.115-3.086.397-4.551.67-.781.146-1.558.291-2.318.399l-.236.04c-3.04.601-6.278,1.218-9.66,1.861-29.453,5.608-69.79,13.289-87.189,31.038l-.368.425c-.096.126-.165.176-.179.183-.046.018-.274-.002-.546-.167-.309-.188-.44-.418-.452-.458,0,0,.017-.098.145-.286,16.578-17.955,55.943-25.657,84.709-31.285,3.314-.648,6.491-1.27,9.482-1.877l.118-.025c3.409-.789,5.633-1.016,7.257-1.182,2.191-.223,4.456-.454,6.045-2.543Z"/>
</svg>