<?xml version="1.0" encoding="UTF-8"?>
<svg id="a" data-name="Layer 1" xmlns="http://www.w3.org/2000/svg" width="400" height="400" viewBox="0 0 400 400">
  <path d="M281.043,59.801c9.063,0,16.411-7.347,16.411-16.411s-7.347-16.411-16.411-16.411-16.411,7.347-16.411,16.411,7.347,16.411,16.411,16.411Z"/>
  <path d="M363.526,92.794c9.064,0,16.411-7.347,16.411-16.411s-7.347-16.411-16.411-16.411-16.411,7.347-16.411,16.411,7.347,16.411,16.411,16.411Z"/>
  <path d="M380.072,159.506c-1.307-15.236-7.674-20.875-19.411-28.704-49.41-32.962-105.906-60.342-156.482-92.341-8.794-5.564-12.871-14.138-25.265-11.271-5.343,1.236-11.394,8.935-11.902,14.311-1.001,10.585,9.001,13.545,7.591,19.741l-108.075,245.452,1.749,7.897c16.339,15.481,35.312,55.023,58.471,58.374l222.403.417c15.883-1.289,28.741-14.002,30.881-29.606-3.84-59.555,5.083-125.466.04-184.269ZM330.533,125.958c9.064,0,16.411,7.347,16.411,16.411s-7.347,16.411-16.411,16.411-16.411-7.348-16.411-16.411,7.347-16.411,16.411-16.411ZM116.085,274.336l83.87-189.7,105.83,105.83-189.7,83.87ZM346.89,248.771c-3.066,18.653-15.65,34.924-34.202,40.033-12.73,3.506-26.566-1.957-31.281,14.085-3.572,12.154,5.41,32.6-12.648,36.857-23.206,5.47-23.028-26.005-20.359-40.995,3.224-18.113,16-33.913,33.993-38.868,12.568-3.461,26.96,1.806,31.313-14.053,3.298-12.017-5.346-34.083,13.743-37.18,22.024-3.573,21.857,25.429,19.442,40.12Z"/>
  <path d="M98.278,122.509c4.781-15.059-1.145-26.974,20.014-29.476,10.806-1.277,26.569,3.908,30.181-11.049,5.229-21.654-16.928-23.395-32.677-21.691-25.077,2.714-42.067,15.526-47.484,40.497-1.603,7.39,1.875,11.617-5.929,17.441-13.552,10.113-44.036.437-44.043,23.452-.007,21.125,27.349,16.848,41.076,13.449,17.576-4.353,33.194-14.77,38.862-32.623Z"/>
</svg>