<?xml version="1.0" encoding="UTF-8"?>
<svg id="a" data-name="Layer 1" xmlns="http://www.w3.org/2000/svg" width="400" height="400" viewBox="0 0 400 400">
  <path d="M320.247,173.696c-11.071-11.076-22.146-22.15-33.22-33.225l-15.138-15.137c-4.371-4.203-8.663-8.58-12.813-12.812-11.212-11.433-22.805-23.254-37.013-32.725-20.359-13.42-45.544-20.795-74.948-21.923-66.976,0-121.464,44.775-121.464,99.812,0,7.162.922,14.237,2.741,21.029l.073.229c2.146,5.744,4.129,10.917,6.657,16.004,1.354,2.843,2.978,5.568,4.548,8.204,2.289,3.843,4.451,7.474,5.494,10.961l.039.12c1.735,4.887.467,10.606-3.767,16.998-7.221,10.883-6.671,19.321,1.839,28.218,5.401,5.645,11.059,11.23,16.529,16.633,2.479,2.447,4.958,4.896,7.421,7.354.401.59.904,1.113,1.481,1.545.373.501.821.949,1.328,1.326.372.502.821.951,1.327,1.328.373.501.821.95,1.328,1.328.372.501.821.949,1.328,1.327.372.502.821.951,1.327,1.328.373.501.821.949,1.327,1.327.373.502.822.951,1.328,1.328.373.501.821.95,1.328,1.328.372.501.821.949,1.327,1.327.373.502.822.951,1.328,1.328.373.501.821.95,1.328,1.328.373.501.821.949,1.327,1.327.373.502.822.951,1.328,1.328.373.502.821.95,1.327,1.327.373.502.822.951,1.328,1.328.373.501.821.95,1.328,1.328.372.501.821.949,1.327,1.327.373.502.822.951,1.328,1.328.373.501.821.95,1.328,1.328.373.501.821.949,1.328,1.327.372.502.821.951,1.327,1.328.373.501.821.95,1.328,1.327.372.502.821.951,1.327,1.328.373.501.821.95,1.328,1.328.372.501.821.949,1.327,1.327.373.502.822.951,1.328,1.328.373.501.821.95,1.328,1.328.372.501.821.949,1.327,1.327.373.502.822.951,1.328,1.328.373.501.821.95,1.327,1.327.373.502.822.951,1.328,1.329.373.5.821.949,1.328,1.327.372.501.82.949,1.326,1.326,1.206,1.63,3.132,2.62,5.158,2.62.883,0,21.411-.134,40.683-11.498,20.209,11.365,43.868,17.366,68.526,17.366,66.976,0,121.465-44.775,121.465-99.812,0-23.277-9.982-45.927-28.107-63.775ZM57.553,229.745c.668-2.598,1.5-5.83,1.642-9.238.088-1.861-.05-3.763-.411-5.655-1.194-6.175-4.423-11.478-7.546-16.606-.587-.963-1.171-1.922-1.754-2.908-7.018-11.581-10.768-24.508-10.844-37.381v-.191c-.313-46.182,44.881-79.716,88.817-85.465,25.404-3.988,54.608.28,76.208,11.139,13.255,6.62,36.585,21.23,43.999,44.743,5.163,20.381,1.378,41.021-10.948,59.692-16.59,25.132-46.882,43.863-79.085,48.891-20.288,3.42-40.419,2.639-58.191-2.256-6.135-1.754-13.088-3.741-20.214-3.778-.186-.002-.371-.003-.558-.003-1.576,0-3.179.08-4.759.238-3.715.339-7.411,1.229-10.672,2.014-1.932.465-3.6.866-4.879,1.061-.812.112-1.377.148-1.685.105-.035-.845.487-2.878.879-4.4Z"/>
  <g>
    <path d="M118.04,112.965c-12.833,1.303-15.192,14.553-13.84,25.219,1.129,8.909,5.864,14.884,15.212,15.508,15.492,1.035,20.072-11.223,18.595-24.595-1.309-11.853-7.959-17.351-19.967-16.132ZM167.53,113.615h-12l-37.92,82.08h11.64l38.28-82.08ZM161.24,155.685c-12.77,1.3-15.376,13.961-14.108,24.767,1.284,10.944,7.559,16.783,18.834,15.96,13.346-.974,16.32-13.475,15.001-24.835-1.334-11.494-8.04-17.081-19.728-15.891Z" fill="#fff"/>
    <g>
      <path d="M118.04,112.965c12.009-1.219,18.658,4.279,19.967,16.132,1.477,13.373-3.103,25.631-18.595,24.595-9.348-.625-14.083-6.599-15.212-15.508-1.352-10.666,1.007-23.916,13.84-25.219ZM119.705,124.23c-.709.145-1.656.935-2.094,1.506-2.229,2.903-2.256,12.811.351,15.487,1.571,1.613,4.247,1.645,5.865.089,2.479-2.384,2.361-10.715,1.337-13.77-.878-2.621-2.632-3.89-5.459-3.311Z"/>
      <g>
        <polygon points="167.53 113.615 129.25 195.695 117.61 195.695 155.53 113.615 167.53 113.615"/>
        <path d="M161.24,155.685c11.688-1.19,18.394,4.398,19.728,15.891,1.319,11.36-1.655,23.861-15.001,24.835-11.275.823-17.55-5.016-18.834-15.96-1.268-10.806,1.337-23.467,14.108-24.767ZM162.665,166.95c-2.433.498-3.386,4.18-3.544,6.296-.236,3.14-.388,10.852,3.592,11.786,6.454,1.514,6.375-7.952,6.013-12.013-.315-3.536-1.919-6.917-6.061-6.069Z"/>
      </g>
    </g>
  </g>
</svg>