<?xml version="1.0" encoding="UTF-8"?>
<svg id="a" data-name="Layer 1" xmlns="http://www.w3.org/2000/svg" width="400" height="400" viewBox="0 0 400 400">
  <path d="M106.992,66.941c-31.438.539-48.033,17.416-47.992,48.806.027,21.553.308,43.47.577,64.666.232,18.234.466,36.471.548,54.709.076,16.42,5.88,29.73,17.744,40.694,23.051,21.299,47.572,44.047,71.656,67.397,9.357,9.074,19.923,13.094,33.474,12.919,26.647-.512,53.74-.773,79.94-1.027,17.268-.168,34.539-.337,51.805-.574,27.815-.381,36.672-9.675,36.458-38.244-.148-19.395-.373-38.794-.598-58.189l-.297-26.068c-.065-6.068-.113-12.135-.163-18.2-.103-13.022-.211-26.483-.498-39.718-.196-9.077-.208-16.454-.216-22.577q-.041-29.18-21.038-51.173c-4.372-4.58-9.634-10.091-15.966-16.973-11.522-12.53-24.597-18.389-41.074-18.389-.335,0-.67.003-1.008.007-23.918.34-47.839.577-71.759.811-30.022.299-61.067.605-91.592,1.124ZM268.7,91.555c21.101-.23,24.575,3.164,24.86,23.484.603,43.233,1.015,81.69,1.263,117.56.125,17.928-4.604,22.917-22,23.206-52.426.859-107.361,1.464-163.279,1.797-.216,0-.431.003-.644.003-17.521,0-21.895-4.456-22.177-22.151-.612-38.237-1.051-78.385-1.307-119.326-.12-19.089,3.396-22.505,23.515-22.831,18.696-.306,37.394-.488,56.092-.667l48.536-.526c18.382-.223,36.76-.443,55.142-.55Z" fill="#070707"/>
  <path d="M215.007,188.628c-3.681,4.305-6.75,6.164-9.691,5.93-3.865-.347-6.451-4.26-9.193-8.957-6.674-11.417-13.747-22.876-20.587-33.953-4.089-6.624-8.179-13.249-12.213-19.907-1.989-3.281-2.828-3.645-3.103-3.645-.017-.014-.801-.244-2.785,3.367-17.786,32.348-33.704,60.886-48.662,87.246-2.177,3.834-1.797,4.855-1.699,5.02.208.35,1.211.941,5.707.838,18.617-.344,37.545-.526,55.849-.701l43.147-.467c18.55-.22,37.1-.443,55.648-.526,5.241-.021,5.777-.835,5.82-.928.005-.01.356-1.024-2.591-4.652-3.664-4.518-7.238-9.215-10.692-13.757-3.214-4.223-6.427-8.449-9.747-12.582-1.867-2.326-3.556-5.157-5.19-7.892-3.355-5.621-6.825-11.434-11.345-11.799-5.255-.467-9.916,5.848-14.427,11.905-1.438,1.931-2.847,3.821-4.248,5.46Z" fill="#050505"/>
  <path d="M235.273,137.925c1.311,8.047,5.815,11.891,13.51,11.589,7.189-.344,11.014-4.26,12.366-12.688-1.718-8.256-5.846-12.242-12.972-12.53-.137-.007-.277-.01-.416-.01-3.398,0-6.908,1.687-9.464,4.573-2.415,2.728-3.518,6.033-3.024,9.067Z" fill="#0f0f0f"/>
</svg>