<?xml version="1.0" encoding="UTF-8"?>
<svg id="a" data-name="Layer 1" xmlns="http://www.w3.org/2000/svg" width="400" height="400" viewBox="0 0 400 400">
  <path d="M368.426,314.968l.076-.044-24.177-41.635h9.515v-.044c1.984,0,3.594-1.598,3.594-3.571,0-.61-.195-1.158-.464-1.659l.063-.037-22.359-38.507h5.44v-.029c1.417,0,2.565-1.146,2.565-2.549,0-.436-.139-.825-.332-1.183l.043-.027-32.531-56.031-.033.02c-.539-1.097-1.507-1.951-2.697-2.306l-.588-1.015-.033.021c-.539-1.097-1.507-1.95-2.697-2.307l-.588-1.014-.033.02c-.539-1.097-1.507-1.95-2.697-2.307l-.588-1.013-.033.02c-.539-1.097-1.507-1.95-2.697-2.307l-.588-1.014-.033.02c-.539-1.097-1.507-1.95-2.697-2.307l-.588-1.014-.033.021c-.539-1.097-1.508-1.951-2.697-2.307l-.588-1.013-.033.019c-.54-1.097-1.508-1.95-2.697-2.307l-.588-1.014-.033.021c-.54-1.097-1.508-1.95-2.697-2.307l-.588-1.013-.033.019c-.539-1.097-1.508-1.95-2.697-2.307l-.588-1.014-.033.021c-.539-1.098-1.508-1.951-2.697-2.307l-.588-1.013-.033.019c-.539-1.097-1.508-1.95-2.697-2.307l-.588-1.014-.033.02c-.539-1.096-1.508-1.95-2.697-2.306l-.588-1.013-.033.019c-.539-1.097-1.508-1.95-2.697-2.307l-.588-1.014-.033.021c-.539-1.098-1.508-1.951-2.697-2.306l-.588-1.015-.033.02c-.539-1.097-1.508-1.95-2.697-2.307l-.588-1.014-.033.02c-.717-1.458-2.191-2.489-3.936-2.489s-3.212,1.027-3.933,2.482l-.017-.01-25.61,44.108-42.524-73.223-.017.01c-.637-1.299-1.739-2.297-3.062-2.896l-.24-.414-.017.01c-.638-1.3-1.739-2.297-3.062-2.897l-.24-.414-.017.01c-.637-1.299-1.739-2.296-3.062-2.897l-.241-.414-.017.01c-.638-1.299-1.739-2.296-3.062-2.896l-.24-.414-.017.01c-.637-1.3-1.739-2.297-3.062-2.896l-.24-.414-.017.01c-.637-1.3-1.739-2.297-3.062-2.897l-.24-.414-.017.01c-.638-1.299-1.739-2.297-3.062-2.897l-.24-.414-.017.01c-.637-1.299-1.739-2.296-3.062-2.896l-.241-.414-.017.01c-.638-1.3-1.739-2.297-3.062-2.897l-.24-.414-.017.011c-.637-1.3-1.739-2.297-3.062-2.897l-.24-.414-.017.01c-.637-1.299-1.739-2.297-3.062-2.897l-.24-.414-.017.01c-.638-1.299-1.739-2.297-3.062-2.896l-.24-.414-.017.01c-.637-1.3-1.739-2.297-3.062-2.897l-.24-.414-.017.01c-.638-1.299-1.739-2.296-3.062-2.896l-.24-.415-.017.011c-.638-1.3-1.739-2.297-3.062-2.897l-.24-.414-.017.01c-1.012-2.062-3.12-3.498-5.585-3.498-2.516,0-4.673,1.491-5.655,3.628l-45.822,78.917.01.006c-.285.515-.491,1.075-.491,1.703,0,1.906,1.494,3.421,3.37,3.554.131,1.782,1.531,3.172,3.319,3.3.077,1.044.593,1.932,1.372,2.54l-27.841,47.946c-.647.848-1.049,1.891-1.049,3.036,0,2.261,1.509,4.152,3.57,4.792.495,1.577,1.734,2.808,3.319,3.3.495,1.577,1.734,2.807,3.319,3.3.453,1.444,1.522,2.614,2.921,3.177l-28.156,48.497c-.797,1.036-1.284,2.316-1.284,3.722,0,2.557,1.569,4.753,3.803,5.689.629,1.484,1.825,2.674,3.319,3.3.629,1.485,1.825,2.675,3.319,3.3.629,1.484,1.825,2.675,3.319,3.3.629,1.484,1.825,2.675,3.319,3.3.629,1.484,1.825,2.674,3.319,3.3.629,1.485,1.825,2.675,3.319,3.3.629,1.484,1.825,2.675,3.319,3.3.629,1.485,1.825,2.675,3.319,3.3.629,1.484,1.825,2.675,3.319,3.3.629,1.484,1.825,2.674,3.319,3.3.629,1.484,1.825,2.675,3.319,3.3.629,1.485,1.825,2.675,3.319,3.3.629,1.485,1.825,2.676,3.319,3.301.629,1.484,1.825,2.675,3.319,3.299.94,2.221,3.149,3.783,5.725,3.783v.069h36.153c.567,1.346,1.732,2.365,3.156,2.778.467,1.591,1.718,2.836,3.319,3.3.467,1.592,1.718,2.837,3.319,3.3.467,1.592,1.718,2.837,3.319,3.3.467,1.592,1.718,2.837,3.319,3.3.467,1.591,1.718,2.836,3.319,3.3.467,1.591,1.718,2.836,3.319,3.3.467,1.592,1.718,2.837,3.319,3.3.468,1.592,1.718,2.837,3.319,3.3.595,2.025,2.454,3.515,4.681,3.515h24.503c2.705,0,4.902-2.181,4.902-4.874v-27.82h34.284c.497,1.431,1.703,2.461,3.214,2.783.362,1.674,1.635,2.941,3.319,3.3.362,1.675,1.635,2.941,3.319,3.3.362,1.673,1.635,2.941,3.319,3.3.426,1.972,2.105,3.48,4.216,3.48v.05h33.28c.104,1.767,1.521,3.163,3.305,3.231.069,1.801,1.511,3.232,3.319,3.3.069,1.802,1.511,3.231,3.319,3.3.069,1.801,1.511,3.232,3.319,3.3.07,1.846,1.576,3.326,3.445,3.326h17.364c1.918,0,3.471-1.545,3.471-3.451v-13.006h46.629v-.05c2.43,0,4.401-1.957,4.401-4.372-.003-.749-.239-1.423-.574-2.035ZM196.32,244.429h-44.73v22.549c0,2.182-1.837,3.951-4.098,3.951h-20.487c-2.262,0-4.096-1.772-4.096-3.951v-22.549h-54.883v-.057c-2.866,0-5.192-2.241-5.192-5.002,0-1.14.408-2.177,1.074-3.018l28.137-46.985h-11.332v-.048c-2.339,0-4.24-1.83-4.24-4.088,0-.928.336-1.772.877-2.461l26.07-43.526h-6.507v-.032c-1.671,0-3.025-1.305-3.025-2.921,0-.508.172-.963.411-1.38l-.008-.005,38.312-63.968c.821-1.734,2.625-2.943,4.728-2.943,2.062,0,3.824,1.163,4.67,2.835l.014-.008,38.387,64.084-.053.03c.228.409.391.855.391,1.352,0,1.617-1.354,2.922-3.027,2.922v.031h-6.418l26.38,44.048-.042.024c.319.575.516,1.223.516,1.918,0,2.255-1.898,4.088-4.24,4.088v.048h-11.227l23.306,38.915-9.668,16.146ZM302.339,258.627v.038h-36.582v9.677c0,1.42-1.218,2.569-2.723,2.569h-13.623c-1.502,0-2.723-1.149-2.723-2.569v-9.677h-36.493v-.038c-1.906,0-3.45-1.456-3.45-3.253,0-.569.198-1.078.469-1.542l-.008-.005,4.424-7.226,9.071-14.823,5.468-8.934h-7.535v-.032c-1.557,0-2.82-1.189-2.82-2.657,0-.464.161-.879.383-1.259l-.008-.003,17.541-28.654h-4.325v-.023c-1.112,0-2.013-.85-2.013-1.896,0-.332.114-.628.273-.898l-.005-.003,25.521-41.692.013.008c.565-1.083,1.721-1.846,3.085-1.846s2.526.766,3.088,1.851l.026-.015,25.521,41.695-.034.02c.151.267.26.558.26.881,0,1.044-.901,1.896-2.013,1.896v.023h-4.268l17.541,28.654-.05.028c.211.372.365.781.365,1.235,0,1.468-1.263,2.657-2.82,2.657v.032h-7.465l18.968,30.982-.06.032c.263.457.448.958.45,1.515,0,1.798-1.547,3.253-3.452,3.253Z" fill="#231f20"/>
</svg>