<?xml version="1.0" encoding="UTF-8"?>
<svg id="a" data-name="Layer 1" xmlns="http://www.w3.org/2000/svg" width="400" height="400" viewBox="0 0 400 400">
  <path d="M347.314,201.522c-.654-7.593-3.588-14.441-8.262-19.285-9.305-9.645-23.839-20.671-37.895-31.333-7.978-6.052-15.512-11.767-21.888-17.071-12.239-10.182-24.047-20.659-35.102-31.148-3.665-1.998-18.934-5.507-23.065-5.507h-32.051l9.803-8.733c4.799-4.274,7.65-8.917,7.824-12.739.111-2.43-.839-4.684-2.902-6.891-1.961-2.096-3.981-3.104-6.36-3.176-.095-.002-.189-.004-.284-.004-8.066,0-18.602,10.004-26.318,17.332-2.615,2.483-5.084,4.828-7.222,6.564l-6.514,5.292-1.553-8.248c-3.595-19.093-20.664-40.912-81.564-36.438-24.237,1.78-28.154,9.103-29.894,35.21-1.174,17.618-.66,60.219,29.391,75.249,19.268,9.633,36.002,4.916,55.963-15.777l8.599-8.913v55.228h-70.813c-1.046.23-4.126,2.585-6.245,6.235-1.428,2.459-1.586,4.108-1.439,4.521l.096.299,32.429,113.271c4.303,3.75,9.444,8.852,15.32,14.682,15.918,15.795,37.666,37.374,51.127,38.937,10.018-.692,20.309-.953,30.704-.953,16.113,0,32.484.625,48.529,1.238,28.475,1.09,57.921,2.215,84.76-.245,12.876-1.179,22.764-10.527,24.746-23.327-1.422-22.473-.557-46.318.281-69.383.911-25.101,1.854-51.055-.2-74.886ZM133.801,109.537c-4.418,5.954-23.307,24.637-29.015,29.039-3.951,3.048-7.582,5.457-12.471,5.457-1.869,0-3.922-.352-6.248-1.154-22.737-7.854-22.101-52.056-19.296-67.268l.755-4.094h37.438c2.272,0,15.768,4.515,15.883,4.561,8.686,3.412,14.795,9.308,16.762,16.174,1.146,3.998,1.415,10.243-3.809,17.285ZM187.777,300.136l-76.105.732-27.177-88.418h128.222l-24.939,87.686ZM218.677,185.61c-3.812,3.807-8.262,5.74-13.099,5.74-2.035,0-4.139-.343-6.292-1.032-5.14-1.646-11.548-8.454-21.492-19.474-5.248-5.814-10.675-11.827-13.647-13.835l-.828-.559-.55-.835c-4.629-7.029-3.76-12.492-1.031-18.532,9.021-19.964,50.07-20.291,64.885-17.056l2.82.615.877,2.751c4.079,12.799,1.909,48.682-11.643,62.216Z"/>
</svg>