<?xml version="1.0" encoding="UTF-8"?>
<svg id="a" data-name="Layer 1" xmlns="http://www.w3.org/2000/svg" width="400" height="400" viewBox="0 0 400 400">
  <path d="M381.768,234.738c0-3.244-32.053-36.091-32.91-36.808l14.429-24.993-.066-.039c1.203-2.759,1.155-6.025-.466-8.83-.895-1.547-104.143-104.432-104.711-105.021-.028-.029-1.332-1.235-2.1-1.679-2.109-1.218-4.474-1.55-6.692-1.127-.739.141-1.461.366-2.152.669l-.048-.084-25.846,14.923c-.568-.557-28.17-28.197-28.17-28.197l-.07.041c-1.341-1.815-3.28-3.164-5.532-3.726-.751-.186-1.536-.286-2.347-.286s-1.598.1-2.35.288c-.564.14-1.109.33-1.628.564-1.561.704-2.904,1.806-3.909,3.171l-.088-.052-19.57,33.896-33.698-19.457-.04.07c-2.072-.902-4.424-1.1-6.655-.459-.744.214-1.474.52-2.175.925-2.316,1.336-3.808,3.49-4.469,5.878-.141.51-.293,1.021-.353,1.547h-.098v39.141h-38.912v.077c-2.992.337-5.794,2.012-7.414,4.818-.81,1.404-1.227,2.924-1.291,4.437s.226,3.02.828,4.399l-.064.041-.02.011,19.236,33.32-34.446,19.89.041.07c-.605.447-1.158.961-1.648,1.53-1.469,1.708-2.364,3.918-2.364,6.35,0,1.622.399,3.148,1.101,4.49.662,1.266,31.132,31.752,31.809,32.317l-14.429,24.993.066.036c-.602,1.38-.89,2.888-.825,4.399.064,1.511.481,3.029,1.291,4.431.004.007.009.011.013.016.442.759,3.599,3.52,3.599,3.522.004.006,101.648,102.268,103.195,103.163,2.813,1.624,6.084,1.669,8.845.458l.047.084,25.846-14.923c.568.557,1.192,1.044,1.879,1.448,0,0,31.504,30.72,34.241,30.72,3.244,0,7.971-3.971,7.971-3.971l19.57-33.896,33.701,19.457.04-.07c2.761,1.201,6.025,1.155,8.83-.466,2.813-1.622,4.489-4.43,4.823-7.427h.098v-39.135h38.916v-.077c2.992-.337,5.793-2.012,7.414-4.818,1.621-2.809,1.669-6.077.462-8.838l.084-.047-19.235-33.32,34.446-19.89-.041-.07c2.421-1.789,4.012-4.641,4.012-7.883ZM318.441,187.596l-38.714,21.513,20.58,37.131.213.508c.537,1.288.446,2.693-.252,3.849-.693,1.157-1.891,1.896-3.28,2.031l-43.428-.718-.751,43.078-.074.577c-.179,1.382-.959,2.551-2.148,3.209-1.175.658-2.579.694-3.85.117l-37.255-22.329-22.197,36.946-.347.452c-1.688,2.212-5.233,2.157-6.856-.119l-.204-.278-20.693-37.332-38.585,21.388-.505.211c-1.292.539-2.698.443-3.972-.368l-.722-.574c-.677-.7-1.098-1.617-1.189-2.581l.719-43.885-43.442-.757-.554-.073c-.541-.07-1.104-.275-1.673-.615-.295-.175-.586-.401-.847-.654l-.204-.195c-.18-.195-.313-.368-.322-.368l-.329-.641c-.223-.498-.343-1.026-.356-1.573-.017-.658.124-1.333.407-1.958l22.558-37.618-37.189-22.344-.498-.381c-.533-.406-.97-.929-1.268-1.525-.301-.598-.448-1.247-.435-1.929.023-1.349.689-2.587,1.826-3.399l38.71-21.513-20.577-37.121-.216-.522c-.26-.623-.376-1.3-.337-1.96.04-.674.237-1.307.587-1.886.695-1.16,1.891-1.9,3.275-2.031l43.43.714.755-43.263.068-.361c.036-.192.101-.375.203-.718.234-.788.76-1.869,1.945-2.526,1.176-.652,2.583-.698,3.857-.115l37.246,22.327,22.169-36.897.381-.501c.617-.807,1.484-1.377,2.46-1.602.641-.145,1.355-.132,2.002.036.948.254,1.798.855,2.394,1.689l20.897,37.609,38.56-21.378.535-.221c1.286-.539,2.687-.45,3.848.248.23.139.44.299.671.523l.158.174c.258.285.474.584.645.895.319.582.504,1.146.555,1.679l-.719,43.889,43.431.756.581.074c.591.074,1.171.276,1.691.591l.594.508c.187.163.36.346.426.419.163.195.35.386.311.296l.35.724.039.043c.443,1.077.414,2.294-.097,3.408l-22.559,37.633,37.199,22.35.479.367c1.111.85,1.735,2.112,1.712,3.464-.023,1.35-.688,2.588-1.823,3.4Z"/>
  <path d="M188.204,143.767l21.071,18.581c.579-.757.01-1.279-.368-1.895-4.514-7.358-9.695-14.35-14.067-21.804l8.07-7.269,21.093,18.294-15.071-23.754,8.728-7.515,26.287,42.621-8.633,7.961-24.176-20.279,16.08,26.722-9.364,8.661-38.015-33.121,8.364-7.202Z"/>
  <polygon points="126.02 197.311 154.444 210.833 135.111 189.483 144.566 181.342 177.126 219.156 167.671 227.297 138.257 213.361 158.216 235.439 148.761 243.58 116.201 205.765 126.02 197.311"/>
  <path d="M175.477,154.727l6.262,7.272-12.728,10.959c2.064,2.567,3.862,6.694,7.069,7.843l10.728-9.237,5.948,6.908-10.728,9.237-.076,1.015,6.731,7.817,13.091-11.272,6.262,7.272-22.546,19.413-32.56-37.815,22.546-19.413Z"/>
</svg>