<?xml version="1.0" encoding="UTF-8"?>
<svg id="a" data-name="Layer 1" xmlns="http://www.w3.org/2000/svg" width="400" height="400" viewBox="0 0 400 400">
  <path d="M256.778,149.108c-9.188-25.631-30.264-46.1-57.697-55.398-7.697,9.817-19.449,15.588-32.041,15.588s-24.344-5.771-32.041-15.589c-27.81,9.426-49.082,30.331-58.065,56.454,17.772-7.934,54.123-21.792,91.119-21.792,35.405,0,70.219,12.693,88.725,20.738Z" fill="none"/>
  <path d="M191.409,62.942c0-4.723-1.442-9.237-4.173-13.073l-.132-.132c-.216-.226-.437-.447-.663-.663l-.108-.108c-.216-.226-.437-.447-.663-.663l-.108-.108c-.216-.226-.437-.447-.663-.663l-.105-.105c-4.305-4.488-10.092-6.958-16.296-6.958-2.571,0-5.1.433-7.519,1.287-8.8,3.239-14.741,11.76-14.741,21.186,0,12.453,10.132,22.585,22.585,22.585s22.585-10.132,22.585-22.585Z" fill="none"/>
  <path d="M256.404,166.648c-14.307-6.753-51.63-22.459-89.122-22.459s-74.816,15.706-89.123,22.459c-3.929,1.854-6.463,5.647-6.769,10.035-.02.297-.031.596-.031.898v83.373c0,.435.024.864.065,1.288.647,6.317,5.999,11.261,12.484,11.261h45.099c2.235,0,4.435-.599,6.361-1.733l27.676-16.279c1.299-.763,2.753-1.145,4.206-1.145,1.468,0,2.935.389,4.241,1.168l27.257,16.223c1.941,1.156,4.16,1.766,6.418,1.766h45.488c6.919,0,12.549-5.63,12.549-12.55v-83.373c0-4.764-2.606-8.953-6.8-10.933ZM246.986,239.98c0,9.84-8.006,17.89-17.846,17.945l-20.748.115h-.099c-3.269,0-6.473-.891-9.273-2.581l-31.012-18.718c-.924-.557-2.071-.558-2.996,0l-31.039,18.733c-2.798,1.689-6.004,2.581-9.272,2.581h-20.722c-9.895,0-17.945-8.05-17.945-17.945v-47.843c0-6.922,4.007-13.175,10.208-15.931,11.302-5.022,40.773-16.702,70.268-16.702s58.965,11.679,70.267,16.702c6.202,2.756,10.208,9.009,10.208,15.931v47.712Z" fill="none"/>
  <path d="M277.224,195.732l-2.056-.726v54.69l2.055-.726c6.849-2.42,11.451-8.929,11.451-16.197v-20.843c0-7.266-4.601-13.775-11.45-16.197Z" fill="none"/>
  <path d="M337.276,252.237c-.15-.161-.301-.319-.457-.473v-3.958c0-4.248-2.353-22.249-1.528-21.735-3.47-18.536-12.68-35.133-25.785-48.155-.255-.259-.513-.515-.771-.771-.255-.259-.513-.515-.771-.771-.255-.259-.513-.515-.771-.771-.255-.259-.513-.515-.771-.771-.255-.259-.513-.515-.771-.771-.255-.259-.513-.515-.771-.771-.255-.259-.513-.515-.771-.771-.255-.259-.513-.515-.771-.771-.255-.259-.513-.515-.771-.771-.255-.259-.513-.515-.771-.771-.255-.259-.513-.515-.771-.771-.255-.259-.513-.515-.771-.771-.255-.259-.513-.515-.771-.771-.255-.259-.513-.515-.771-.771-.255-.259-.513-.515-.771-.771-.255-.259-.513-.515-.771-.771-.255-.259-.513-.515-.771-.771-.255-.259-.513-.515-.771-.771-.255-.259-.513-.515-.771-.771-.255-.259-.513-.515-.771-.771-.255-.259-.513-.515-.771-.771-.255-.259-.513-.515-.771-.771-.255-.259-.513-.515-.771-.771-.255-.259-.513-.515-.771-.771-.255-.259-.513-.515-.771-.771-.255-.259-.513-.515-.771-.771-.255-.259-.513-.515-.771-.771-.255-.259-.513-.515-.771-.771-.255-.259-.513-.515-.771-.771-.255-.259-.513-.515-.771-.771-.255-.259-.513-.515-.771-.771-.255-.259-.513-.515-.771-.771-.255-.259-.513-.515-.771-.771-.255-.259-.513-.515-.771-.771-.255-.259-.513-.515-.771-.771-.255-.259-.513-.515-.771-.771-.255-.259-.513-.515-.771-.771-.255-.259-.513-.515-.771-.771-.255-.259-.513-.515-.771-.771-.255-.259-.513-.515-.771-.771-.255-.259-.513-.515-.771-.771-.255-.259-.513-.515-.771-.771-.255-.259-.513-.515-.771-.771-.255-.259-.513-.515-.771-.771-.255-.259-.513-.515-.771-.771-.255-.259-.513-.515-.771-.771-.255-.259-.513-.515-.771-.771-.255-.259-.513-.515-.771-.771-.255-.259-.513-.515-.771-.771-.255-.259-.513-.515-.771-.771-.255-.259-.513-.515-.771-.771-.255-.259-.513-.515-.771-.771-.255-.259-.513-.515-.771-.771-.255-.259-.513-.515-.771-.771-.255-.259-.513-.515-.771-.771-.255-.259-.513-.515-.771-.771-.255-.259-.513-.515-.771-.771-.255-.259-.513-.515-.771-.771-.255-.259-.513-.515-.771-.771-.06-.061-.118-.125-.179-.186-.244-7.022-3.266-13.335-8.002-17.878-.252-.262-.509-.519-.771-.771-.252-.262-.509-.519-.771-.771-.252-.262-.509-.519-.771-.771-.252-.262-.509-.519-.771-.771-.252-.262-.509-.519-.771-.771-.252-.262-.509-.519-.771-.771-.252-.262-.509-.519-.771-.771-.252-.262-.509-.519-.771-.771-.252-.262-.509-.519-.771-.771-.252-.262-.509-.519-.771-.771-.252-.262-.509-.519-.771-.771-.252-.262-.509-.519-.771-.771-.252-.262-.509-.519-.771-.771-.252-.262-.509-.519-.771-.771-.252-.262-.509-.519-.771-.771-.252-.262-.509-.519-.771-.771-.252-.262-.509-.519-.771-.771-.252-.262-.509-.519-.771-.771-.252-.262-.509-.519-.771-.771-.252-.262-.509-.519-.771-.771-.252-.262-.509-.519-.771-.771-.252-.262-.509-.519-.771-.771-.252-.262-.509-.519-.771-.771-.252-.262-.509-.519-.771-.771-.252-.262-.509-.519-.771-.771-.252-.262-.509-.519-.771-.771-.252-.262-.509-.519-.771-.771-.252-.262-.509-.519-.771-.771-.252-.262-.509-.519-.771-.771-.252-.262-.509-.519-.771-.771-.252-.262-.509-.519-.771-.771-.252-.262-.509-.519-.771-.771-.252-.262-.509-.519-.771-.771-.252-.262-.509-.519-.771-.771-.252-.262-.509-.519-.771-.771-.252-.262-.509-.519-.771-.771-.252-.262-.509-.519-.771-.771-.252-.262-.509-.519-.771-.771-.252-.262-.509-.519-.771-.771-.252-.262-.509-.519-.771-.771-.252-.262-.509-.519-.771-.771-.252-.262-.509-.519-.771-.771-.252-.262-.509-.519-.771-.771-.252-.262-.509-.519-.771-.771-.252-.262-.509-.519-.771-.771-.252-.262-.509-.519-.771-.771-.252-.262-.509-.519-.771-.771-.252-.262-.509-.519-.771-.771-.252-.262-.509-.519-.771-.771-.252-.262-.509-.519-.771-.771-.252-.262-.509-.519-.771-.771-.252-.262-.509-.519-.771-.771-.252-.262-.509-.519-.771-.771-.252-.262-.509-.519-.771-.771-.252-.262-.509-.519-.771-.771-.252-.262-.509-.519-.771-.771-.252-.262-.509-.519-.771-.771-.252-.262-.509-.519-.771-.771-.252-.262-.509-.519-.771-.771-.252-.262-.509-.519-.771-.771-.252-.262-.509-.519-.771-.771-.252-.262-.509-.519-.771-.771-.252-.262-.509-.519-.771-.771-.252-.262-.509-.519-.771-.771-.252-.262-.509-.519-.771-.771-.252-.262-.509-.519-.771-.771-.252-.262-.509-.519-.771-.771-.252-.262-.509-.519-.771-.771-.252-.262-.509-.519-.771-.771-.252-.262-.509-.519-.771-.771-.252-.262-.509-.519-.771-.771-.252-.262-.509-.519-.771-.771-.252-.262-.509-.519-.771-.771-.252-.262-.509-.519-.771-.771-.252-.262-.509-.519-.771-.771-.252-.262-.509-.519-.771-.771-.252-.262-.509-.519-.771-.771-.252-.262-.509-.519-.771-.771-.252-.262-.509-.519-.771-.771-.252-.262-.509-.519-.771-.771-.252-.262-.509-.519-.771-.771-.252-.262-.509-.519-.771-.771-.252-.262-.509-.519-.771-.771-.171-.178-.347-.35-.522-.522-.449-.77-.921-1.524-1.444-2.241-.094-.093-.185-.189-.28-.28-.252-.263-.509-.519-.771-.771-.252-.263-.509-.519-.771-.771-.252-.263-.509-.519-.771-.771-4.742-4.944-11.409-8.026-18.799-8.026-3.042,0-5.959.527-8.673,1.485-6.522,2.401-11.803,7.345-14.681,13.62-1.767,3.514-2.767,7.48-2.767,11.681,0,7.391,3.082,14.057,8.026,18.799.252.262,15.927,15.937,16.189,16.189.252.262.509.519.771.771.23.239.463.474.702.705-7.381-.073-29.652-16.499-29.652-16.499l-3.024.924c-36.485,11.154-63.307,40.288-69.996,76.032l-1.774,9.478-4.615,24.761c-6.072,2.146-10.422,7.937-10.422,14.743v20.843c0,4.508,1.916,8.563,4.969,11.416.248.266.505.522.771.771.248.266.505.522.771.771.248.266.505.522.771.771.248.266.505.522.771.771.248.266.505.522.771.771.248.266.505.522.771.771.248.266.505.522.771.771.248.266.505.522.771.771.248.266.505.522.771.771.248.266.505.522.771.771.248.266.505.522.771.771.248.266.505.522.771.771.248.266.505.522.771.771.248.266.505.522.771.771.248.266.505.522.771.771.248.266.505.522.771.771.248.266.505.522.771.771.248.266.505.522.771.771.248.266.505.522.771.771.025.027.052.051.078.078v4.281c0,5.288,2.632,9.953,6.651,12.782.085.083.165.171.253.253.248.266.505.523.771.771.248.266.505.523.771.771.248.266.505.523.771.771.248.266.505.523.771.771.248.266.505.523.771.771.248.266.505.523.771.771.248.266.505.523.771.771.248.266.505.523.771.771.248.266.505.523.771.771.248.266.505.523.771.771.248.266.505.523.771.771.248.266.505.523.771.771.248.266.505.523.771.771.248.266.505.523.771.771.248.266.505.523.771.771.248.266.505.523.771.771.248.266.505.523.771.771.248.266.505.523.771.771.248.266.505.523.771.771.248.266.505.523.771.771.248.266.505.523.771.771.248.266.505.523.771.771.248.266.505.523.771.771.248.266.505.523.771.771.248.266.505.523.771.771.248.266.505.523.771.771.248.266.505.523.771.771.248.266.505.523.771.771.248.266.505.523.771.771.248.266.505.523.771.771.248.266.505.523.771.771.248.266.505.523.771.771.248.266.505.523.771.771.248.266.505.523.771.771.248.266.505.523.771.771.248.266.505.523.771.771.248.266.505.523.771.771.248.266.505.523.771.771.248.266.505.523.771.771.248.266.505.523.771.771.248.266.505.523.771.771.248.266.505.523.771.771.248.266.505.523.771.771.248.266.505.523.771.771.248.266.505.523.771.771.248.266.505.523.771.771.248.266.505.523.771.771.248.266.505.523.771.771.248.266.505.523.771.771.248.266.505.523.771.771.248.266.505.523.771.771.248.266.505.523.771.771.248.266.505.523.771.771.248.266.505.523.771.771.248.266.505.523.771.771.248.266.505.523.771.771.248.266.505.523.771.771.248.266.505.523.771.771.248.266.505.523.771.771.248.266.505.523.771.771.248.266.505.523.771.771.248.266.505.523.771.771.248.266.505.523.771.771.248.266.505.523.771.771.248.266.505.523.771.771.248.266.505.523.771.771.248.266.505.523.771.771.248.266.505.523.771.771.248.266.505.523.771.771.248.266.505.523.771.771.248.266.505.523.771.771.248.266.505.523.771.771.248.266.505.523.771.771.248.266.505.523.771.771.248.266.505.523.771.771.248.266.505.523.771.771.248.266.505.523.771.771.248.266.505.523.771.771.248.266.505.523.771.771.248.266.505.523.771.771.248.266.505.523.771.771.248.266.505.523.771.771.248.266.505.523.771.771.248.266.505.523.771.771.248.266.505.523.771.771.248.266.505.523.771.771.248.266.505.523.771.771.248.266.505.523.771.771,2.854,3.059,6.908,4.983,11.421,4.983h166.747c8.634,0,36.476-40.091,36.476-46.897,0,0-20.121-47.429-20.386-47.677ZM56.312,240.684c-3.563-2.444-5.796-6.535-5.796-10.994v-20.844c0-4.459,2.233-8.55,5.796-10.994v42.832ZM146.239,62.942c0-9.426,5.941-17.947,14.741-21.186,2.418-.854,4.948-1.287,7.519-1.287,6.204,0,11.991,2.471,16.296,6.958l.105.105c.226.216.447.437.663.663l.108.108c.226.216.447.437.663.663l.108.108c.226.216.447.437.663.663l.132.132c2.731,3.836,4.173,8.35,4.173,13.073,0,12.453-10.132,22.585-22.585,22.585s-22.585-10.132-22.585-22.585ZM76.934,150.162c8.983-26.123,30.255-47.027,58.065-56.454,7.697,9.818,19.449,15.589,32.041,15.589s24.344-5.771,32.041-15.588c27.434,9.299,48.509,29.768,57.697,55.398-18.507-8.045-53.32-20.738-88.725-20.738-36.997,0-73.347,13.858-91.119,21.792ZM263.204,260.954c0,6.92-5.63,12.55-12.549,12.55h-45.488c-2.258,0-4.477-.611-6.418-1.766l-27.257-16.223c-1.306-.778-2.773-1.168-4.241-1.168-1.453,0-2.907.382-4.206,1.145l-27.676,16.279c-1.927,1.134-4.126,1.733-6.361,1.733h-45.099c-6.485,0-11.837-4.944-12.484-11.261-.041-.424-.065-.854-.065-1.288v-83.373c0-.302.011-.601.031-.898.305-4.388,2.84-8.181,6.769-10.035,14.307-6.753,51.63-22.459,89.123-22.459s74.815,15.706,89.122,22.459c4.195,1.979,6.8,6.169,6.8,10.933v83.373ZM288.674,232.772c0,7.268-4.601,13.778-11.451,16.197l-2.055.726v-54.69l2.056.726c6.849,2.422,11.45,8.931,11.45,16.197v20.843Z"/>
  <path d="M236.778,176.337c-11.302-5.022-40.773-16.702-70.267-16.702s-58.966,11.679-70.268,16.702c-6.201,2.756-10.208,9.009-10.208,15.931v47.843c0,9.895,8.05,17.945,17.945,17.945h20.722c3.268,0,6.474-.893,9.272-2.581l31.039-18.733c.924-.559,2.071-.558,2.996,0l31.012,18.718c2.8,1.689,6.004,2.581,9.273,2.581h.099l20.748-.115c9.84-.054,17.846-8.104,17.846-17.945v-47.712c0-6.922-4.007-13.175-10.208-15.931Z"/>
</svg>