<?xml version="1.0" encoding="UTF-8"?>
<svg id="a" data-name="Layer 1" xmlns="http://www.w3.org/2000/svg" width="400" height="400" viewBox="0 0 400 400">
  <path d="M338.151,253.253c-4.227-4.067-8.329-8.299-12.491-12.437-1.554-1.526-3.132-3.146-4.705-4.677-.338-.338-.379-.417-.255-.627,1.142-2.963,11.115-27.166,11.592-28.575-.853-8.173-3.07-25.485-3.951-33.605-.279-1.512-.108-2.466-.435-2.721-20.204-19.387-39.962-39.743-59.822-59.612-.162-.724-.421-.322-.984-.342-4.67.335-26.685,3.572-27.36,2.968-.023-1.274.654-9.942.558-11.746-20.14-19.443-39.702-39.684-59.638-59.398-.33-.277-.322-.654-.329-.756-26.226-1.541-77.163-4.046-106.456-5.634-.341,3.804-.579,12.617-.966,18.163-.426,12.647-1.916,26.591-1.119,27.678,6.306,6.314,12.651,12.651,18.965,18.967.928,1.003,2.149,1.997,2.967,3.061-4.333,6.863-17.71,28.356-23.939,38.191-1.106,1.844-1.748,2.667-2.379,3.842-.056,1.006-1.742,32.993-2.17,41.077-.036,1.001-.12,1.629-.068,1.799.217.105.521.097.763.379,11.495,11.475,22.968,22.971,34.463,34.45.201.204.44.44.609.637.264.345.143.682.164.796-.783,6.52-2.735,26.502-3.119,29.665.096.201.392.117.61.322.093.067.181.15.273.24,2.076,2.063,4.109,4.119,6.196,6.185.117.123.205.239.286.332.163.197.311.22.192.391-.941,1.252-6.622,8.746-9.081,11.996-.585.82-.938,1.161-1.185,1.608.095.887-3.111,28.043-3.517,33.257,20.09,19.35,39.765,39.749,59.706,59.453.292.253.321.562.317.696.007.044.021.062.042.069.372.044,2.399.254,5.531.586,14.812,1.5,46.255,4.939,61.21,6.448,2.397-1.475,8.499-5.69,11.504-7.623.238-.187.296-.148.327-.361.149-1.398,1.782-16.886,2.511-23.788.147-1.316.226-2.193.331-3.138.021-.188-.007-.218-.133-.355-.885-.908-8.461-8.642-9.561-9.764-.433-.402-1.022-1.029-1.474-1.477-.238-.252-.348-.414-.299-.549,1.035-1.394,13.3-17.344,14.142-18.459.853-5.801,2.223-21.284,2.594-23.895.023-.24.263-.352.521-.151,5.394,5.287,10.653,10.64,16.005,15.966.415.323.424.874.477.896,1.93-.294,86.097-9.967,87.503-10.369-1.06-8.445-4.212-37.591-4.853-39.993l-.072-.062ZM166.302,246.104c-1.123,1.57-26.389,34.324-26.344,34.412,4.326.503,17.661,1.857,19.515,2.075.756.33,1.97,1.928,2.756,2.625.236.27.347.33.367.586-.076,1.147-1.284,12.012-1.612,15.352-.046.865-.52.687-1.593,1.535-.931.572-1.467,1.051-2.022,1.293-1.106-.101-26.332-2.776-40.726-4.29-5.629-.603-9.588-.994-9.807-1.048-.018-.925,1.203-11.271,1.653-15.983.167-1.277.135-1.782.272-2.297.682-.933,25.417-33.521,25.608-33.845.029-.046-1.158-.134-3.12-.352-5.497-.576-11.954-1.264-17.547-1.851-.827-.11-.669.086-.603-.752.271-2.551.535-5.081.813-7.709.416-3.874.96-9.388,1.37-12.773,1.211.265,43.213,4.417,52.79,5.549.178.505-1.662,15.876-1.765,17.451l-.006.022ZM168.158,79.778c.08.081-43.635,68.12-43.809,68.991,2.215.12,39.937,2.101,40.686,2.152-.238,6.273-.806,15.414-1.136,22.208-.272,4.228-.28,6.776-.504,8.877-1.128-.058-44.504-2.348-68.397-3.609-9.133-.607-15.477-.548-15.414-1.001.155-2.347,1.076-20.801,1.457-27.583.453-1.168,42.648-67.868,42.599-68.018-7.398-.42-32.53-1.708-34.842-1.845-.177-.039-.166-.081-.394-.285-.525-.614-2.621-2.377-2.84-2.95.216-2.982,1.141-22.429,1.461-27.674.747-.852,67.106,3.426,81.863,3.958.338.039.519-.01.679.057.013.04-1.403,26.665-1.405,26.71l-.002.012ZM207.848,230.333c-.207-1.725-1.976-16.691-2.617-22.184.429-1.601,20.958-52.366,21.798-54.644-.684-.054-20.673,2.356-27.163,3.106-.416-.766-2.248-19.553-3.051-25.184.705-.724,60.547-7.12,62.432-7.563.272,1.079,1.983,16.207,2.573,21.485-.571,1.444-21.943,53.904-22.483,55.341,1.686-.21,5.694-.626,8.427-.975,7.179-.843,16.513-1.946,17.614-2.07.795.252,2.595,1.811,3.257,2.222.179.15.244.188.283.364.128,1.261,1.55,12.994,2.04,17.303.29,2.826.615,4.592.59,5.332-1.166.136-63.675,7.52-63.694,7.48l-.006-.012Z"/>
</svg>