<?xml version="1.0" encoding="UTF-8"?>
<svg id="a" data-name="Layer 1" xmlns="http://www.w3.org/2000/svg" width="400" height="400" viewBox="0 0 400 400">
  <path d="M363.748,200.771c0-3.082-1.368-5.839-3.523-7.717-.31-.356-.644-.69-1-1-.31-.356-.644-.69-1-1-.31-.356-.644-.69-1-1-.31-.356-.644-.69-1-1-.31-.356-.644-.69-1-1-.31-.356-.644-.69-1-1-.31-.356-.644-.69-1-1-.31-.356-.644-.69-1-1-.31-.356-.644-.69-1-1-.31-.356-.644-.69-1-1-.31-.356-.644-.69-1-1-.31-.356-.644-.69-1-1-.31-.356-.644-.69-1-1-.31-.356-.644-.69-1-1-.31-.356-.644-.69-1-1-.31-.356-.644-.69-1-1-.31-.356-.644-.69-1-1-.31-.356-.644-.69-1-1-.31-.356-.644-.69-1-1-.31-.356-.644-.69-1-1-.31-.356-.644-.69-1-1-.31-.356-.644-.69-1-1-.31-.356-.644-.69-1-1-.31-.356-.644-.69-1-1-.31-.356-.644-.69-1-1-.31-.356-.644-.69-1-1-.31-.356-.644-.69-1-1-.31-.356-.644-.69-1-1-.31-.356-.644-.69-1-1-.31-.356-.644-.69-1-1-.31-.356-.644-.69-1-1-.31-.356-.644-.69-1-1-.147-.168-.293-.337-.45-.496l4.4-7.788c1.407-2.379,1.791-5.226,1.067-7.893-.428-2.031-1.519-3.839-3.068-5.172-.307-.358-.641-.691-1-1-.307-.358-.641-.691-1-1-.307-.358-.641-.691-1-1-.307-.358-.641-.691-1-1-.307-.358-.641-.691-1-1-.307-.358-.641-.691-1-1-.307-.358-.641-.691-1-1-.307-.358-.641-.691-1-1-.307-.358-.641-.691-1-1-.307-.358-.641-.691-1-1-.307-.358-.641-.691-1-1-.307-.358-.641-.691-1-1-.307-.358-.641-.691-1-1-.307-.358-.641-.691-1-1-.307-.358-.641-.691-1-1-.307-.358-.641-.691-1-1-.307-.358-.641-.691-1-1-.307-.358-.641-.691-1-1-.307-.358-.641-.691-1-1-.307-.358-.641-.691-1-1-.307-.358-.641-.691-1-1-.307-.358-.641-.691-1-1-.307-.358-.641-.691-1-1-.307-.358-.641-.691-1-1-.307-.358-.641-.691-1-1-.307-.358-.641-.691-1-1-.307-.358-.641-.691-1-1-.307-.358-.641-.691-1-1-.307-.358-.641-.691-1-1-.307-.358-.641-.691-1-1-.307-.358-.641-.691-1-1-.307-.358-.641-.691-1-1-.307-.358-.641-.691-1-1-.307-.358-.641-.691-1-1-.307-.358-.641-.691-1-1-.307-.358-.641-.691-1-1-.307-.358-.641-.691-1-1-.307-.358-.641-.691-1-1-.307-.358-.641-.691-1-1-.307-.358-.641-.691-1-1-.307-.358-.641-.691-1-1-.307-.358-.641-.691-1-1-.307-.358-.641-.691-1-1-.307-.358-.641-.691-1-1-.307-.358-.641-.691-1-1-.307-.358-.641-.691-1-1-.307-.358-.641-.691-1-1-.307-.358-.641-.691-1-1-.307-.358-.641-.691-1-1-.307-.358-.641-.691-1-1-.307-.358-.641-.691-1-1-.307-.358-.641-.691-1-1-.307-.358-.641-.691-1-1-.307-.358-.641-.691-1-1-.307-.358-.641-.691-1-1-.307-.358-.641-.691-1-1-.307-.358-.641-.691-1-1-.307-.358-.641-.691-1-1-.307-.358-.641-.691-1-1-.68-.793-1.489-1.48-2.412-2.015l-61.227-35.2c-.024-.014-.047-.028-.071-.042-4.881-2.856-11.153-1.214-14.009,3.668l-15.058,26.652c-.077-.071-.158-.136-.237-.204-.312-.36-.647-.692-1-1-.312-.36-.647-.692-1-1-.312-.36-.647-.692-1-1-.312-.36-.647-.692-1-1-.312-.36-.647-.692-1-1-.312-.36-.647-.692-1-1-.312-.36-.647-.692-1-1-.312-.36-.647-.692-1-1-.312-.36-.647-.692-1-1-.312-.36-.647-.692-1-1-.312-.36-.647-.692-1-1-.312-.36-.647-.692-1-1-.312-.36-.647-.692-1-1-.312-.36-.647-.692-1-1-.312-.36-.647-.692-1-1-.312-.36-.647-.692-1-1-.312-.36-.647-.692-1-1-.312-.36-.647-.692-1-1-.312-.36-.647-.692-1-1-.312-.36-.647-.692-1-1-.312-.36-.647-.692-1-1-.312-.36-.647-.692-1-1-.312-.36-.647-.692-1-1-.312-.36-.647-.692-1-1-.312-.36-.647-.692-1-1-.312-.36-.647-.692-1-1-.312-.36-.647-.692-1-1-.312-.36-.647-.692-1-1-.312-.36-.647-.692-1-1-3.158-3.646-8.556-4.656-12.878-2.141l-61.227,35.2c-2.303,1.334-3.931,3.583-4.48,6.187-.724,2.667-.339,5.514,1.067,7.893l21.333,37.76h-42.667c-5.655,0-10.24,4.585-10.24,10.24v70.827c-.003.143-.003.287,0,.431.063,2.92,1.375,5.513,3.406,7.302.307.359.646.688,1,1,.307.359.646.688,1,1,.307.359.646.688,1,1,.307.359.646.688,1,1,.307.359.646.688,1,1,.307.359.646.688,1,1,.307.359.646.688,1,1,.307.359.646.688,1,1,.307.359.646.688,1,1,.307.359.646.688,1,1,.307.359.646.688,1,1,.307.359.646.688,1,1,.307.359.646.688,1,1,.307.359.646.688,1,1,.307.359.646.688,1,1,.307.359.646.688,1,1,.307.359.646.688,1,1,.307.359.646.688,1,1,.307.359.646.688,1,1,.307.359.646.688,1,1,.307.359.646.688,1,1,.307.359.646.688,1,1,.307.359.646.688,1,1,.307.359.646.688,1,1,.307.359.646.688,1,1,.307.359.646.688,1,1,.307.359.646.688,1,1,.307.359.646.688,1,1,.307.359.646.688,1,1,.307.359.646.688,1,1,.307.359.646.688,1,1,.307.359.646.688,1,1,.166.194.344.376.524.557l-4.356,7.711c-2.543,4.361-1.57,9.82,2.093,13.07.304.355.644.684,1,1,.304.355.644.684,1,1,.304.355.644.684,1,1,.304.355.644.684,1,1,.304.355.644.684,1,1,.304.355.644.684,1,1,.304.355.644.684,1,1,.304.355.644.684,1,1,.304.355.644.684,1,1,.304.355.644.684,1,1,.304.355.644.684,1,1,.304.355.644.684,1,1,.304.355.644.684,1,1,.304.355.644.684,1,1,.304.355.644.684,1,1,.304.355.644.684,1,1,.304.355.644.684,1,1,.304.355.644.684,1,1,.304.355.644.684,1,1,.304.355.644.684,1,1,.304.355.644.684,1,1,.304.355.644.684,1,1,.304.355.644.684,1,1,.304.355.644.684,1,1,.304.355.644.684,1,1,.304.355.644.684,1,1,.304.355.644.684,1,1,.304.355.644.684,1,1,.304.355.644.684,1,1,.304.355.644.684,1,1,.304.355.644.684,1,1,.304.355.644.684,1,1,.304.355.644.684,1,1,.304.355.644.684,1,1,.304.355.644.684,1,1,.304.355.644.684,1,1,.304.355.644.684,1,1,.304.355.644.684,1,1,.304.355.644.684,1,1,.304.355.644.684,1,1,.304.355.644.684,1,1,.304.355.644.684,1,1,.304.355.644.684,1,1,.304.355.644.684,1,1,.304.355.644.684,1,1,.304.355.644.684,1,1,.304.355.644.684,1,1,.304.355.644.684,1,1,.304.355.644.684,1,1,.304.355.644.684,1,1,.304.355.644.684,1,1,.304.355.644.684,1,1,.304.355.644.684,1,1,.304.355.644.684,1,1,.304.355.644.684,1,1,.304.355.644.684,1,1,.304.355.644.684,1,1,.304.355.644.684,1,1,.304.355.644.684,1,1,.654.763,1.43,1.443,2.32,2.01l61.653,33.92c1.664.807,3.484,1.244,5.333,1.28h2.347c2.699-.593,5.023-2.297,6.4-4.693l15-26.55c.166.164.331.329.507.48.315.357.646.695,1,1,.315.357.646.695,1,1,.315.357.646.695,1,1,.315.357.646.695,1,1,.315.357.646.695,1,1,.315.357.646.695,1,1,.315.357.646.695,1,1,.315.357.646.695,1,1,.315.357.646.695,1,1,.315.357.646.695,1,1,.315.357.646.695,1,1,.315.357.646.695,1,1,.315.357.646.695,1,1,.315.357.646.695,1,1,.315.357.646.695,1,1,.315.357.646.695,1,1,.315.357.646.695,1,1,.315.357.646.695,1,1,.315.357.646.695,1,1,.315.357.646.695,1,1,.315.357.646.695,1,1,.315.357.646.695,1,1,.315.357.646.695,1,1,.315.357.646.695,1,1,.315.357.646.695,1,1,.315.357.646.695,1,1,.315.357.646.695,1,1,.315.357.646.695,1,1,.315.357.646.695,1,1,3.305,3.742,8.912,4.686,13.306,1.977l61.227-35.413c2.235-1.408,3.841-3.624,4.48-6.187.749-2.665.363-5.522-1.067-7.893l-21.333-37.76h42.667c.144.003.287.003.431,0,5.536-.119,9.928-4.704,9.809-10.241l-1.067-69.76ZM298.631,214.335c-.151.157-.31.161-.37.162l.205,9.498-.237-9.498-59.139-.002,29.34,51.934.137.234c.075.124.095.275.056.415l-.072.271c-.04.16-.132.301-.262.402l-60.984,35.272-.23.138c-.222.136-.464.176-.719.115s-.454-.204-.597-.436c-.025-.04-.046-.082-.065-.128l-.222-.538-29.891-52.908-29.528,52.267h-.429c-.398-.016-.795-.104-1.161-.26l-60.958-33.538c-.34-.295-.431-.795-.197-1.196l29.405-52.046h-58.945l-.205.002c-.056-.002-.218.005-.376-.146-.157-.151-.161-.31-.162-.4l.002-71.022c0-.408.332-.74.74-.74h58.945l-29.34-51.933-.093-.161c-.101-.171-.129-.379-.077-.57l-.009-.173.056-.267,61.27-35.226c.066-.037.265-.151.561-.075.296.079.413.278.476.392l30.025,53.239,29.553-52.31c.053-.083.175-.242.431-.31.276-.071.465.022.543.067l61.308,35.247.118.481c.052.191.024.398-.076.567l-29.434,52.097h58.945c.408,0,.74.332.74.739l1.069,69.965c0,.06.004.218-.146.376Z"/>
</svg>