<?xml version="1.0" encoding="UTF-8"?>
<svg id="a" data-name="Layer 1" xmlns="http://www.w3.org/2000/svg" width="400" height="400" viewBox="0 0 400 400">
  <path d="M212.601,53.871v1.277c.028-.011.057-.022.085-.033v-1.895c-.338.122-.671.258-1.006.389v.618c.307-.119.611-.245.92-.356Z" fill="none"/>
  <path d="M150.255,154.85l-25.383,25.384c-2.479,2.478-2.479,6.495,0,8.973,1.239,1.24,2.863,1.859,4.486,1.859s3.247-.62,4.487-1.859l25.383-25.384c2.479-2.479,2.479-6.495,0-8.973-2.479-2.479-6.495-2.479-8.973,0Z" fill="#fff"/>
  <g>
    <path d="M203.676,62.498v85.908c1.788-1.563,3.549-3.082,5.328-4.583V58.887c-1.928,1.045-3.708,2.251-5.328,3.612Z" fill="none"/>
    <path d="M125.837,88.258v35.737c5.314-5.415,10.523-10.938,15.563-16.504-5.466-6.434-10.672-12.869-15.563-19.233Z" fill="none"/>
    <path d="M60.011,64.616c-7.224,7.224-10.827,17.163-9.887,27.268.926,9.927,6.176,18.852,14.401,24.482,4.867,3.329,10.1,7.123,15.873,11.509V55.011c-7.809.825-14.946,4.166-20.387,9.606h0Z" fill="none"/>
    <path d="M105.782,62.498c-1.62-1.361-3.4-2.567-5.328-3.612v84.937c.816.689,1.664,1.41,2.55,2.174.922-.84,1.849-1.69,2.778-2.547V62.498Z" fill="none"/>
    <path d="M229.059,55.011v72.865c5.77-4.384,11.004-8.178,15.874-11.51,8.225-5.63,13.475-14.554,14.401-24.483.939-10.104-2.665-20.043-9.887-27.266-5.441-5.44-12.577-8.78-20.388-9.606Z" fill="none"/>
    <path d="M244.886,202.279c-12.495-8.52-25.426-18.471-38.479-29.611l-7.855,7.429c-10.427,9.861-20.658,20.299-30.447,31.062,11.208,13.116,21.079,25.9,29.368,38.039,5.708,8.358,14.762,13.69,24.841,14.629,10.266.965,19.984-2.628,27.13-9.776,7.228-7.229,10.832-17.167,9.888-27.265-.938-9.955-6.204-18.888-14.446-24.507Z" fill="none"/>
    <path d="M183.621,166.618v-78.358c-32.876,42.793-77.686,85.813-119.049,114.019-8.243,5.62-13.508,14.553-14.446,24.508-.945,10.096,2.659,20.034,9.888,27.264,7.146,7.145,16.905,10.745,27.124,9.776,10.084-.938,19.138-6.271,24.846-14.629,17.928-26.252,43.982-56.28,71.636-82.58ZM161.832,166.426l-25.383,25.383c-1.895,1.895-4.413,2.939-7.09,2.939s-5.198-1.044-7.092-2.939c-1.893-1.892-2.936-4.411-2.936-7.089s1.043-5.197,2.938-7.091l25.383-25.382c1.894-1.895,4.412-2.939,7.091-2.939s5.196,1.044,7.09,2.939c1.894,1.894,2.937,4.412,2.937,7.09,0,2.678-1.044,5.196-2.938,7.09Z" fill="none"/>
    <path d="M344.826,309.451c-.83-10.915-7.364-20.2-15.069-27.529-13.247-13.475-26.858-26.543-39.871-40.17-6.002-7.124,4.045-10.387,4.5-17.747.982-2.795-.752-17.031,2.015-16.955,2.675.07,7.572,9.153,12.078,8.171,3.699-1.324,7.23-4.454,10.94-6.682,5.485-3.697,11.073-7.252,15.585-12.022,11.274-11.634,13.188-30.919,4.621-44.66-1.932-3.227-4.262-6.058-6.547-8.526-26.567-26.892-53.246-53.489-79.984-80.191-5.833-5.719-13.709-10.828-22.074-11.914-9.529-1.291-4.261,13.344-9.608,11.177-2.577-1.176-5.951-6.007-9.414-7.276-3.698-1.497-7.939.868-10.419,3.577-2.083,2.368-2.447,5.608-2.545,8.706-.108,4.896.032,12.141-.087,16.301-.106,1.106.008,2.667-.811,3.392-.548.384-1.487-.147-2.752-1.263-2.849-2.331-5.757-6.849-9.735-6.362-2.144.53-3.628,2.726-5.015,4.448-5.615,7.293-11.705,15.038-17.975,22.138-2.691,3.056-4.738,4.063-7.62.825-10.98-10.573-34.462-35.3-48.83-48.351-2.581-1.814-6.35-4.795-8.753-3.082-1.376.938-1.813,2.858-2.766,4.092-2.434,2.837-8.069-5.552-10.96-6.708-2.308-1.372-4.391-1.062-7.853-.181-13.16,3.107-24.33,9.563-28.689,23.513-4.498,13.016-.801,27.99,8.598,37.917,14.054,14.783,28.802,28.914,43.08,43.453,2.908,2.777,4.945,6.48,1.998,10.065-9.524,9.691-21.297,17.807-31.586,25.619-11.197,7.452-21.492,16.413-23.494,30.555-1.824,10.58,1.341,21.737,8.074,30.001,25.666,27.491,52.997,53.228,79.261,80.087,9.035,9.809,20.48,17.617,34.551,16.627,13.319-.449,24.557-8.778,31.65-19.584,6.045-8.509,12.803-17.459,19.71-25.864,5.433-6.108,10.943-16.689,18.827-8.323,11.827,11.771,23.642,23.676,35.465,35.5,12.207,13.358,26.119,22.102,44.821,16.807,16.737-4.694,28.572-22.086,26.7-39.386l-.019-.197ZM78.865,127.366c-2.404-1.189-5.347-3.764-8.646-6.079-5.213-3.778-10.539-7.658-14.178-13.115-12.843-18.363-3.847-45.787,17.529-52.455,3.281-1.018,7.171-2.348,6.936,1.892.012,10.154.005,41.816.006,56.458,0,2.83,0,5.502,0,8.259-.147,3.282.582,5.842-1.563,5.075l-.084-.035ZM205.004,148.184c-1.593.728-1.271-.888-1.328-3.407,0-12.148,0-25.711,0-39.88,0-8.437,0-16.843,0-23.947.004-7.364-.009-13.314.007-16.474-.019-1.44.366-2.762,1.377-3.82,1.747-1.84,3.987-2.832,3.925-.17.046,11.581.007,67.064.02,80.709.369,2.821-1.765,5.791-3.935,6.956l-.064.032ZM126.279,88.346c.941.456,2.656,2.628,4.631,4.97,2.399,2.917,5.046,5.856,7.427,8.782,5.072,5.946.872,9.98-4.208,14.901-1.37,1.038-7.4,8.512-8.577,6.634-.384-.589-.451-2.011-.451-4.016,0-4.565-.001-10.014,0-14.924,0-3.776,0-7.472,0-10.442.054-1.532-.333-6.809,1.11-5.936l.069.031ZM103.008,145.672c-1.713.181-2.6-1.473-2.537-3.133-.041-2.226-.006-7.718-.018-11.284,0-13.775,0-34.349,0-49.13,0-5.663,0-10.775,0-14.816.181-3.828-.411-6.293.339-8.474.73-.921,3.221.708,4.322,2.566,1.8,14.377.117,67.329.65,80.627.072,1.764-.885,3.636-2.683,3.64l-.075.004ZM111.583,250.268c-11.652,16.247-35.538,19.507-50.343,5.545-16.785-15.503-13.884-41.687,4.756-54.306,41.569-29.011,83.102-70.573,116.638-112.393,1.73-1.176.987,3.078,1.165,6.525-.005,1.144.003,2.24,0,3.427-.005,17.865.01,52.249-.008,62.992-.017,1.486-.18,2.817-.844,4.125-1.324,2.494-3.975,4.87-6.249,7.191-25.217,24.904-47.19,51.494-64.998,76.747l-.116.147ZM250.337,255.007c-11.568,11.964-31.701,13.424-44.993,3.462-7.892-5.809-12.428-14.366-18.282-21.83-3.994-5.342-8.078-10.551-12.324-15.761-2.638-3.272-6.13-6.93-5.331-11.165.383-2.083,1.849-4.076,3.34-5.722,5.954-6.397,12.158-12.672,18.363-18.74,17.488-17.906,15.603-12.573,33.355.711,4.525,3.51,9.077,6.914,13.718,10.238,5.599,4.016,11.695,8.022,15.888,13.82,10.032,13.246,8.279,33.345-3.592,44.845l-.143.143ZM259.213,92.001c-.844,11.475-8.188,21.251-17.445,27.447-2.282,1.678-4.675,3.426-7,5.164-2.479,1.831-4.334,3.163-5.129,2.892-.727-.216-.673-1.698-.69-2.539.482-13.681-.952-56.309.536-69.674.753-1.1,3.623-.466,5.193.021,4.686,1.373,9.169,3.755,12.898,7.074,8.259,7.216,12.69,18.505,11.654,29.412l-.019.201Z"/>
    <path d="M154.742,149.309c-2.678,0-5.197,1.044-7.091,2.939l-25.383,25.382c-1.894,1.894-2.938,4.413-2.938,7.091s1.043,5.197,2.936,7.089c1.894,1.896,4.412,2.939,7.092,2.939s5.195-1.044,7.09-2.939l25.383-25.383c1.894-1.894,2.937-4.412,2.938-7.09,0-2.678-1.043-5.196-2.937-7.09-1.894-1.895-4.412-2.939-7.09-2.939Z"/>
  </g>
</svg>