<?xml version="1.0" encoding="UTF-8"?>
<svg id="a" data-name="Layer 1" xmlns="http://www.w3.org/2000/svg" width="400" height="400" viewBox="0 0 400 400">
  <path d="M297.186,296.872c-.173-.176-.346-.352-.524-.524-.173-.176-.346-.352-.524-.524-.173-.176-.346-.352-.524-.524-.173-.176-.346-.352-.524-.524-.173-.176-.346-.352-.524-.524-.173-.176-.346-.352-.524-.524-.173-.176-.346-.352-.524-.524-.174-.176-.346-.352-.524-.524-.173-.176-.346-.352-.524-.524-.173-.176-.346-.352-.523-.524-.174-.176-.346-.352-.524-.524-.109-.11-.218-.221-.329-.33,20.207-19.556,21.357-51.764,2.307-72.72-.653-.719-1.326-1.414-2.014-2.092-.174-.176-.348-.351-.524-.524-.174-.176-.348-.351-.524-.524-.173-.176-.348-.351-.523-.524-.174-.176-.348-.351-.524-.524-.174-.176-.348-.351-.524-.524-.174-.176-.348-.351-.524-.524-.174-.176-.348-.351-.524-.524-.174-.176-.348-.351-.524-.524-.174-.176-.348-.351-.524-.524-.174-.176-.348-.351-.524-.524-.174-.176-.348-.351-.524-.524-.174-.176-.348-.351-.524-.524-.174-.176-.348-.351-.524-.524-.174-.176-.348-.351-.524-.524-.174-.176-.348-.351-.524-.524-.174-.176-.348-.351-.523-.524-.174-.176-.348-.351-.524-.524-.174-.176-.348-.351-.524-.524-.174-.176-.348-.351-.524-.524-.174-.176-.348-.351-.524-.524-.174-.176-.348-.351-.524-.524-.174-.176-.348-.351-.524-.524-.174-.176-.348-.351-.524-.524-.174-.176-.348-.351-.524-.524-.174-.176-.348-.351-.524-.524-.174-.176-.348-.351-.524-.524-.174-.176-.348-.351-.524-.524-.174-.176-.348-.351-.524-.524-.174-.176-.348-.351-.523-.524-.174-.176-.348-.351-.524-.524-.174-.176-.348-.351-.524-.524-.174-.176-.348-.351-.524-.524-.174-.176-.348-.351-.524-.524-.174-.176-.348-.351-.524-.524-.174-.176-.348-.351-.524-.524-.174-.176-.348-.351-.524-.524-.128-.129-.254-.259-.383-.387,11.054-4.819,19.567-12.806,23.388-22.787.712-1.934.712-4.058,0-5.991-2.303-5.352-5.65-10.118-9.787-14.053-.176-.173-.345-.353-.524-.524-.176-.173-.345-.353-.524-.524-.176-.173-.345-.353-.524-.524-.176-.173-.345-.353-.524-.524-.176-.173-.345-.353-.524-.524-.176-.173-.345-.353-.524-.524-.176-.173-.344-.353-.523-.524-.176-.173-.345-.353-.524-.524-.176-.173-.345-.353-.524-.524-.176-.173-.344-.353-.524-.524-.176-.173-.345-.353-.524-.524-.176-.173-.345-.353-.524-.524-.176-.173-.345-.353-.524-.524-.176-.173-.345-.353-.524-.524-.176-.173-.345-.353-.524-.524-.176-.173-.345-.353-.524-.524-.176-.173-.345-.353-.524-.524-.176-.173-.345-.353-.524-.524-.176-.173-.345-.353-.524-.524-.176-.173-.345-.353-.523-.524-.176-.173-.345-.353-.524-.524-.176-.173-.345-.353-.524-.524-.176-.173-.345-.353-.524-.524-.176-.173-.345-.353-.524-.524-.128-.126-.251-.257-.381-.381,3.377-9.689,3.169-20.323-.683-29.933-.472-1.045-1.154-1.966-1.986-2.727-.167-.182-.342-.357-.524-.524-.167-.182-.342-.357-.524-.524-.167-.182-.341-.357-.523-.524-.167-.182-.342-.357-.524-.524-.167-.182-.341-.357-.524-.524-.167-.182-.341-.357-.524-.524-.167-.182-.341-.357-.524-.524-.167-.182-.341-.357-.524-.524-.167-.182-.341-.357-.524-.524-.167-.182-.341-.357-.524-.524-.167-.182-.341-.357-.524-.524-.167-.182-.342-.357-.524-.524-.167-.182-.341-.357-.524-.524-.167-.182-.342-.357-.524-.524-.167-.182-.342-.357-.524-.524-.167-.182-.341-.357-.523-.524-.167-.182-.342-.357-.524-.524-.167-.182-.341-.357-.524-.524-.167-.182-.341-.357-.524-.524-.167-.182-.341-.357-.524-.524-.167-.182-.341-.357-.524-.524-.167-.182-.341-.357-.524-.524-.167-.182-.341-.357-.524-.524-.167-.182-.341-.357-.524-.524-.167-.182-.342-.357-.524-.524-.167-.182-.341-.357-.524-.524-.167-.182-.341-.357-.523-.524-.167-.182-.342-.357-.524-.524-.167-.182-.341-.357-.524-.524-.167-.182-.341-.357-.524-.524-.167-.182-.341-.357-.524-.524-.167-.182-.341-.357-.524-.524-.167-.182-.341-.357-.524-.524-.167-.182-.341-.357-.524-.524-.167-.182-.341-.357-.524-.524-.167-.182-.342-.357-.524-.524-.167-.182-.341-.357-.524-.524-.167-.182-.342-.357-.524-.524-.167-.182-.342-.357-.524-.524-.167-.182-.341-.357-.523-.524-.167-.182-.342-.357-.524-.524-.167-.182-.341-.357-.524-.524-.167-.182-.341-.357-.524-.524-.167-.182-.341-.357-.524-.524-.167-.182-.341-.357-.524-.524-.167-.182-.341-.357-.524-.524-.167-.182-.341-.357-.524-.524-.167-.182-.341-.357-.524-.524-.167-.182-.342-.357-.524-.524-.167-.182-.341-.357-.524-.524-.167-.182-.342-.357-.524-.524-.167-.182-.342-.357-.524-.524-.167-.182-.341-.357-.523-.524-.033-.036-.071-.069-.104-.104-.255-.756-.527-1.508-.825-2.252-.84-1.86-2.329-3.35-4.19-4.19-10.149-3.971-21.379-3.941-31.462-.016-.005-.005-.01-.01-.015-.015-.175-.175-.346-.352-.524-.524-.175-.175-.346-.352-.524-.524-.175-.175-.346-.352-.524-.524-.175-.175-.346-.352-.524-.524-.175-.175-.346-.352-.524-.524-.175-.175-.346-.352-.524-.524-.175-.175-.346-.352-.524-.524-.175-.175-.346-.352-.524-.524-.175-.175-.346-.352-.524-.524-.175-.175-.346-.352-.524-.524-.175-.175-.346-.352-.523-.524-.175-.175-.346-.352-.524-.524-.045-.046-.091-.091-.136-.136-4.639-8.135-11.832-14.622-20.589-18.351-1.934-.712-4.058-.712-5.991,0-9.355,4.047-16.903,11.245-21.425,20.234-1.003,1.822-1.88,3.722-2.617,5.692-10.741-5.132-23.123-5.62-34.235-1.332-1.86.84-3.35,2.329-4.19,4.19-.03.074-.054.15-.083.225-.252.378-.478.775-.667,1.193-4.245,10.589-4.057,22.418.469,32.859-9.487,3.858-17.252,10.986-21.906,20.069-.726,1.295-1.39,2.632-1.983,4.008-.712,1.933-.712,4.057,0,5.991,1.88,4.877,4.877,9.279,8.745,13.069.173.176.347.351.524.524.173.176.347.351.523.524.173.176.347.351.524.524.173.176.347.351.524.524.173.176.347.351.524.524.173.176.347.351.524.524.173.176.347.351.524.524.173.176.347.351.524.524.173.176.347.351.524.524.173.176.347.351.524.524.173.176.347.351.524.524.173.176.347.351.524.524.173.176.347.351.524.524.173.176.347.351.524.524.173.176.347.351.523.524.173.176.347.351.524.524.173.176.347.351.524.524.173.176.347.351.524.524.173.176.347.351.524.524.173.176.347.351.524.524.173.176.347.351.524.524.173.176.347.351.524.524.173.176.347.351.524.524.134.137.271.272.407.407h-.672c-11.945.017-22.271,6.92-27.233,16.951-2.469,4.389-3.885,9.449-3.893,14.842,0,8.368,3.439,16.208,9.265,21.84.173.176.346.352.524.524.173.176.346.352.524.524.173.176.346.352.524.524.173.176.346.352.524.524.173.176.346.352.524.524.173.176.346.352.524.524.173.176.346.352.524.524.173.176.346.352.524.524.173.176.346.352.523.524.173.176.346.352.524.524.173.176.346.352.524.524.168.171.336.341.508.508-3.975,4.03-7.174,8.564-9.58,13.407-10.12,18.879-7.95,42.847,7.193,59.699.708.788,1.439,1.548,2.189,2.287.173.176.348.351.524.524.173.176.348.351.524.524.174.176.348.351.524.524.173.176.348.351.524.524.173.176.348.351.523.524.174.176.348.351.524.524.173.176.348.351.524.524.173.176.348.351.524.524.173.176.348.351.524.524.173.176.348.351.524.524.173.176.348.351.524.524.173.176.348.351.524.524.173.176.348.351.524.524.173.176.348.351.524.524.173.176.348.351.524.524.174.176.348.351.524.524.173.176.348.351.524.524.173.176.348.351.523.524.174.176.348.351.524.524.173.176.348.351.524.524.173.176.348.351.524.524.173.176.348.351.524.524.173.176.348.351.524.524.173.176.348.351.524.524.173.176.348.351.524.524.173.176.348.351.524.524.174.176.348.351.524.524.173.176.348.351.524.524.173.176.348.351.523.524.174.176.348.351.524.524.173.176.348.351.524.524.173.176.348.351.524.524.173.176.348.351.524.524.173.176.348.351.524.524.173.176.348.351.524.524.173.176.348.351.524.524.173.176.348.351.524.524.173.176.348.351.524.524.173.176.348.351.524.524.174.176.348.351.524.524.173.176.348.351.524.524.173.176.348.351.523.524.174.176.348.351.524.524.173.176.348.351.524.524.173.176.348.351.524.524.173.176.348.351.524.524.173.176.348.351.524.524.173.176.348.351.524.524.173.176.348.351.524.524.173.176.348.351.524.524.173.176.348.351.524.524.173.176.348.351.524.524.173.176.348.351.523.524.173.176.348.351.524.524.173.176.348.351.524.524.173.176.348.351.524.524.173.176.348.351.524.524.173.176.348.351.524.524.173.176.348.351.524.524,9.882,10.022,23.416,15.67,37.558,15.588h117.309c16.775-.024,30.355-13.643,30.331-30.419-.012-8.354-3.45-16.176-9.267-21.799-.173-.176-.346-.352-.524-.524ZM245.974,300.015h-117.309c-19.667,0-35.612-15.944-35.612-35.612s15.944-35.612,35.612-35.612h102.646c4.628,0,8.379-3.752,8.379-8.379s-3.751-8.379-8.379-8.379h-124.641c-7.52,0-13.616-6.096-13.616-13.616-.023-7.497,6.035-13.593,13.532-13.616.028,0,.056,0,.084,0h117.309c19.668,0,35.612,15.944,35.612,35.612s-15.944,35.612-35.612,35.612h-102.646c-4.628,0-8.379,3.751-8.379,8.379s3.751,8.379,8.379,8.379h124.641c7.52,0,13.616,6.096,13.616,13.616s-6.096,13.616-13.616,13.616ZM104.03,138.086c3.839-5.506,9.416-9.564,15.837-11.521,1.55,1.885,3.142,3.729,4.902,5.488,7.803,8.036,17.702,13.726,28.573,16.423-5.719,2.452-11.876,3.721-18.099,3.729-13.407,0-25.976-5.782-31.213-14.119ZM175.798,66.36c8.379,5.153,14.077,17.638,14.077,31.213s-5.782,26.018-14.077,31.213c-8.379-5.195-14.119-17.638-14.119-31.213s5.782-26.06,14.119-31.213ZM247.524,138.086c-5.153,8.379-17.638,14.119-31.213,14.119-6.223-.008-12.38-1.276-18.099-3.729,10.794-2.718,20.616-8.39,28.364-16.381,1.802-1.801,3.394-3.645,4.944-5.53,6.482,1.924,12.123,5.985,16.004,11.521ZM206.634,97.573c0-1.927,0-3.771-.251-5.656,6.246-3.596,13.546-4.914,20.655-3.729,2.221,9.552-2.514,22.456-12.15,32.05-5.081,5.169-11.353,9.01-18.267,11.186,6.691-10.009,10.183-21.814,10.013-33.852ZM154.934,131.425c-6.931-2.185-13.219-6.041-18.309-11.228-9.594-9.552-14.329-22.456-12.108-32.008,7.109-1.186,14.409.132,20.655,3.729,0,1.885-.251,3.729-.251,5.656-.169,12.038,3.323,23.843,10.013,33.852Z"/>
</svg>