<?xml version="1.0" encoding="UTF-8"?>
<svg id="a" data-name="Layer 1" xmlns="http://www.w3.org/2000/svg" width="400" height="400" viewBox="0 0 400 400">
  <g>
    <path d="M123.588,183.797c-9.931,0-18.008,8.077-18.008,18.008s8.076,18.008,18.008,18.008,18.008-8.077,18.008-18.008-8.077-18.008-18.008-18.008ZM123.588,210.81c-4.966,0-9.004-4.039-9.004-9.004s4.039-9.004,9.004-9.004,9.004,4.039,9.004,9.004-4.039,9.004-9.004,9.004Z"/>
    <path d="M111.401,164.47c.878.878,2.03,1.319,3.183,1.319s2.305-.441,3.183-1.319l5.821-5.821,5.821,5.821c.878.878,2.03,1.319,3.183,1.319s2.305-.441,3.183-1.319c1.76-1.76,1.76-4.605,0-6.366l-5.821-5.821,5.821-5.821c1.76-1.76,1.76-4.605,0-6.366s-4.605-1.761-6.366,0l-5.821,5.821-5.821-5.821c-1.76-1.761-4.606-1.761-6.366,0-1.76,1.76-1.76,4.606,0,6.366l5.821,5.821-5.821,5.821c-1.76,1.76-1.76,4.605,0,6.366Z"/>
    <path d="M173.11,242.324c-9.931,0-18.008,8.076-18.008,18.008s8.076,18.008,18.008,18.008,18.008-8.077,18.008-18.008-8.076-18.008-18.008-18.008ZM173.11,269.336c-4.966,0-9.004-4.039-9.004-9.004s4.039-9.004,9.004-9.004,9.004,4.038,9.004,9.004-4.039,9.004-9.004,9.004Z"/>
    <path d="M173.11,183.797c-9.931,0-18.008,8.077-18.008,18.008s8.076,18.008,18.008,18.008,18.008-8.077,18.008-18.008-8.076-18.008-18.008-18.008ZM173.11,210.81c-4.966,0-9.004-4.039-9.004-9.004s4.039-9.004,9.004-9.004,9.004,4.039,9.004,9.004-4.039,9.004-9.004,9.004Z"/>
    <path d="M160.923,164.47c.878.878,2.03,1.319,3.183,1.319s2.305-.441,3.183-1.319l5.821-5.821,5.821,5.821c.878.878,2.03,1.319,3.183,1.319s2.305-.441,3.183-1.319c1.761-1.76,1.761-4.605,0-6.366l-5.821-5.821,5.821-5.821c1.761-1.76,1.761-4.605,0-6.366-1.76-1.761-4.606-1.761-6.366,0l-5.821,5.821-5.821-5.821c-1.76-1.761-4.605-1.76-6.366,0s-1.761,4.606,0,6.366l5.821,5.821-5.821,5.821c-1.761,1.76-1.761,4.605,0,6.366Z"/>
    <path d="M279.839,207.627l-13.501-13.506c-.419-.414-.919-.743-1.468-.972-1.098-.455-2.341-.455-3.439,0-.549.229-1.049.558-1.468.972l-13.501,13.506c-1.761,1.76-1.761,4.606,0,6.366,1.76,1.761,4.606,1.761,6.366,0l5.821-5.821v7.14c0,23.1-23.226,40.518-54.024,40.518-2.485,0-4.502,2.017-4.502,4.502s2.017,4.502,4.502,4.502c35.931,0,63.028-21.29,63.028-49.522v-7.14l5.821,5.821c.878.878,2.03,1.319,3.183,1.319s2.305-.441,3.183-1.319c1.76-1.761,1.76-4.606,0-6.366Z"/>
    <path d="M216.267,152.284l-5.821,5.821c-1.761,1.76-1.761,4.605,0,6.366.878.878,2.03,1.319,3.183,1.319s2.305-.441,3.183-1.319l5.821-5.821,5.821,5.821c.878.878,2.03,1.319,3.183,1.319s2.305-.441,3.183-1.319c1.761-1.76,1.761-4.605,0-6.366l-5.821-5.821,5.821-5.821c1.761-1.76,1.76-4.605,0-6.366-1.76-1.761-4.605-1.761-6.366,0l-5.821,5.821-5.821-5.821c-1.76-1.761-4.606-1.761-6.366,0-1.761,1.76-1.761,4.606,0,6.366l5.821,5.821Z"/>
    <path d="M222.633,219.813c9.931,0,18.008-8.077,18.008-18.008s-8.076-18.008-18.008-18.008-18.008,8.077-18.008,18.008,8.076,18.008,18.008,18.008ZM222.633,192.801c4.966,0,9.004,4.039,9.004,9.004s-4.039,9.004-9.004,9.004-9.004-4.039-9.004-9.004,4.039-9.004,9.004-9.004Z"/>
  </g>
  <path d="M343.696,190.226c-.273-20.6-.488-36.872-.149-41.409.145-1.95.099-3.675-.141-5.272-.848-5.646-3.455-10.763-7.543-14.798l-18.673-18.674c-1.931-1.969-3.222-4.044-4.469-6.052-2.843-4.573-5.767-9.331-14.815-9.019l-.112.005c-7.275.502-42.874.341-64.146.247l-6.792-.029c-5.325-.022-10.333-2.109-14.101-5.876l-5.781-5.779-4.553-4.797c-5.438-5.566-13.772-7.181-21.229-4.106-7.136,2.94-11.533,9.52-11.481,17.173-.017.434-.009,1.01.003,1.838l.004.312c.006.427-.207.708-.334.838-.126.128-.398.344-.817.346-8.286.045-23.197.206-38.983.378-20.436.221-41.566.45-50.675.45-.02.009-.054,0-.081,0-3.549,0-8.567.188-12.487,1.074-7.404,1.674-8.655,7.78-8.952,12.228-.247,3.698,1.629,157.105,2.063,168.96-.021.197-.03.396-.022.596.517,12.816,5.22,18.281,9.259,21.608,1.353,1.115,2.933,2.082,4.971,3.042.273.129.346.204.347.204.009.018.43.922-.812,4.234l-.068.202c-2.911,9.841,3.751,15.163,9.629,19.859,1.816,1.451,3.694,2.951,5.31,4.569,5.77,5.775,11.542,11.549,17.317,17.319,3.357,3.765,8.289,5.984,13.547,6.095.137.003.272.005.408.005,5.11,0,9.962-2.014,13.325-5.521l19.013-19.053c.22-.221.537-.316.818-.34,4.518.021,17.328-.008,33.546-.041,32.727-.069,86.426-.182,94.399.104l19.014,19.014c5.654,5.707,13.251,7.332,20.319,4.344,7.418-3.134,12.305-10.378,12.16-18.024-.104-5.451,1.707-10.529,5.095-14.3.49-.545.955-1.113,1.387-1.698,2.307-1.391,3.441-5.692,4.302-15.278.681-7.58,1.119-18.143,1.34-32.291.4-25.614-.02-57.259-.355-82.686ZM181.924,99.545v-8.283c.02-4.455,3.2-6.482,6.344-6.515.025,0,.05,0,.075,0,2.785,0,6.041,1.623,6.155,6.143v8.728c0,3.944,3.208,7.159,7.15,7.166,11.268.007,45.304-.313,70.176-.556,11.448-.111,21.578-.21,24.932-.229l1.244.002c5.479,0,6.308,3.166,6.308,14.056v157.111c-.307,6.693-3.521,11.048-9.556,12.94-2.956.927-5.168,3.133-6.067,6.052-.766,2.486-.444,5.179.831,7.437l-.108.436,1.297,1.206c2.099,1.953,1.985,4.741,1.179,6.699-.816,1.98-2.716,4.064-5.67,3.971-1.643,0-3.251-.666-4.412-1.827l-20.937-20.938c-1.346-1.347-3.134-2.092-5.031-2.099-9.259-.037-53.745-.022-89.489-.011-21.9.008-41.047.014-44.499.005l-3.603-1.484v3.115c-1.362,1.242-3.292,3.288-6.196,6.389-4.672,4.988-15.558,16.608-18.866,17.054l-.268-.074-.45.012c-2.964.046-4.885-2.104-5.656-3.997-.377-.923-1.4-4.127,1.243-6.579l2.061-2.048c1.951-1.94,2.613-4.745,1.729-7.32-.879-2.557-3.062-4.385-5.775-4.847l-.212-.074-.486-.009c-6.674-.125-8.309-1.895-10.936-11.834-.282-1.066-.436-2.173-.458-3.285-.104-5.426-1.042-54.783-1.971-116.09-.019-2.233.06-38.646.14-40.829.233-2.11.17-4.062.113-5.785-.156-4.828.138-5.037,2.037-5.358,1.579-.027,12.889-.126,25.893-.239,26.034-.226,65.378-.567,74.876-.755,3.785-.074,6.865-3.418,6.865-7.454Z"/>
</svg>