<?xml version="1.0" encoding="UTF-8"?>
<svg id="a" data-name="Layer 1" xmlns="http://www.w3.org/2000/svg" width="400" height="400" viewBox="0 0 400 400">
  <rect x="75.757" y="220.674" width="42.801" height="42.012" fill="#231f20"/>
  <rect x="137.833" y="220.674" width="42.801" height="42.012" fill="#231f20"/>
  <rect x="199.908" y="220.674" width="42.801" height="42.012" fill="#231f20"/>
  <path d="M370.988,194.076l-95.908-115.024c-2.406-2.886-5.968-4.558-9.726-4.566l-218.391-.459c-7.08-.015-12.804,5.763-12.724,12.842l2.34,205.975c.042,3.731,1.723,7.254,4.597,9.634l45.371,37.584c2.291,1.898,5.176,2.931,8.151,2.919l235.471-.942c5.831-.023,10.896-4.015,12.283-9.679l31.117-127.134c.958-3.916,0-8.054-2.581-11.15ZM263.094,281.965H52.354V92.788h210.74v189.177Z" fill="#231f20"/>
  <rect x="71.629" y="112.067" width="172.186" height="89.332" fill="#231f20"/>
  <path d="M52.354,281.965h210.74V92.788H52.354v189.177ZM118.558,262.686h-42.801v-42.012h42.801v42.012ZM180.634,262.686h-42.801v-42.012h42.801v42.012ZM242.71,262.686h-42.801v-42.012h42.801v42.012ZM71.629,112.067h172.186v89.332H71.629v-89.332Z" fill="#fff"/>
</svg>