<?xml version="1.0" encoding="UTF-8"?>
<svg id="a" data-name="Layer 1" xmlns="http://www.w3.org/2000/svg" width="400" height="400" viewBox="0 0 400 400">
  <g>
    <path d="M215.849,265.525c-2.431,0-4.843,1.066-6.619,2.922-1.67,1.746-2.534,3.943-2.434,6.187.227,5.045,4.204,8.999,9.053,8.999,2.431,0,4.844-1.066,6.622-2.924,1.668-1.746,2.533-3.942,2.432-6.184-.226-5.047-4.202-9.001-9.053-9.001Z" stroke="#000" stroke-miterlimit="10" stroke-width="8"/>
    <path d="M215.849,237.587c-2.431,0-4.843,1.066-6.619,2.923-1.67,1.745-2.534,3.942-2.434,6.187.227,5.045,4.204,8.998,9.053,8.998,2.431,0,4.844-1.066,6.622-2.925,1.668-1.745,2.533-3.941,2.432-6.182-.226-5.048-4.202-9.002-9.053-9.002Z" stroke="#000" stroke-miterlimit="10" stroke-width="8"/>
    <path d="M243.787,237.587c-2.431,0-4.843,1.066-6.621,2.925-1.668,1.745-2.533,3.941-2.433,6.184.226,5.046,4.203,9,9.053,9,2.431,0,4.844-1.066,6.622-2.925,1.668-1.744,2.532-3.94,2.432-6.182-.226-5.048-4.203-9.002-9.053-9.002Z" stroke="#000" stroke-miterlimit="10" stroke-width="8"/>
    <path d="M313.18,201.714l-1.924-7.442h-.59l-.205-.792h-.564l-.202-.792h-.611l-.205-.789h-.585l-.205-.792h-.564l-.202-.792h-.611l-.205-.789h-.585l-.205-.792h-.585l-.205-.789h-.627l-.21-.792h-.54l-.205-.792h-.585l-.205-.789h-.585l-.205-.792h-.566l-.202-.792h-.609l-.205-.789h-.585l-.205-.792H65.379l-1.924,7.442c-2.593,10.025-3.909,20.388-3.909,30.804,0,32.811,12.778,63.66,35.937,86.821l11.902,11.902c23.202,23.2,54.049,35.978,86.861,35.978s63.662-12.778,86.863-35.978c23.202-23.203,35.979-54.052,35.979-86.863,0-10.416-1.315-20.779-3.909-30.804ZM253.091,291.521c-20.431,20.43-47.595,31.683-76.489,31.683s-56.057-11.253-76.488-31.682c-20.431-20.431-31.682-47.596-31.682-76.49,0-7.953.869-15.867,2.584-23.576h211.173c1.716,7.711,2.585,15.623,2.585,23.576,0,28.893-11.252,56.057-31.683,76.489Z" stroke="#000" stroke-miterlimit="10" stroke-width="8"/>
  </g>
  <path d="M109.934,136.946l-33.557,31.499h218.479s-33.557-31.5-33.557-31.5c-1.566-1.47-3.633-2.288-5.781-2.288h-8.496v-36.055h30.966c4.665,0,8.447-3.782,8.447-8.447,0-2.548-1.134-4.828-2.919-6.377-.263-.303-.546-.586-.849-.849-.263-.303-.546-.586-.849-.849-.263-.303-.546-.586-.849-.849-.263-.303-.546-.586-.849-.849-.263-.303-.546-.586-.849-.849-.263-.303-.546-.586-.849-.849-.263-.303-.546-.586-.849-.849-.263-.303-.546-.586-.849-.849-.263-.303-.546-.586-.849-.849-.263-.303-.546-.586-.849-.849-.263-.303-.546-.586-.849-.849-.263-.303-.546-.586-.849-.849-.263-.303-.546-.586-.849-.849-.263-.303-.546-.586-.849-.849-.635-.731-1.397-1.345-2.245-1.825-1.29-.798-2.805-1.267-4.433-1.267h-39.413c-4.665,0-8.447,3.782-8.447,8.447v57.407h-53.441l-4.502-16.803,32.3-8.655c3.3-.884,5.742-3.669,6.188-7.057.375-2.847-.728-5.645-2.845-7.48-.261-.301-.545-.585-.849-.849-.261-.301-.545-.585-.849-.849-.261-.301-.545-.585-.849-.849-.261-.301-.545-.585-.849-.849-.261-.301-.545-.585-.849-.849-.261-.301-.545-.585-.849-.849-.261-.301-.545-.585-.849-.849-.261-.301-.545-.585-.849-.849-.261-.301-.545-.585-.849-.849-.261-.301-.545-.585-.849-.849-.261-.301-.545-.585-.849-.849-.261-.301-.545-.585-.849-.849-.216-.249-.455-.477-.701-.701-.715-1.563-1.9-2.907-3.453-3.805l-52.307-30.2c-1.966-1.135-4.304-1.431-6.489-.822-2.186.609-4.035,2.071-5.131,4.059l-28.611,51.882c-1.188,2.155-1.345,4.67-.548,6.909.266,1.215.797,2.38,1.596,3.4.342.436.728.823,1.137,1.176.266.305.548.589.849.849.266.305.548.589.849.849.266.305.548.589.849.849.266.305.548.589.849.849.266.305.548.589.849.849.266.305.548.589.849.849.266.305.548.589.849.849.266.305.548.589.849.849.266.305.548.589.849.849.266.305.548.589.849.849.266.305.548.589.849.849.266.305.548.589.849.849.266.305.548.589.849.849.266.305.548.589.849.849,1.622,1.863,3.947,2.912,6.363,2.912.485,0,15.7-3.988,25.756-6.638l2.713,10.125h-21.103c-2.148,0-4.215.818-5.781,2.288ZM142.558,134.766l-8.851-33.034-5.317,1.409c-11.471,3.039-29.887,7.878-33.496,8.729-.743-.106-1.414-.492-1.885-1.092-.725-.927-.827-2.192-.259-3.223l28.612-51.882c.377-.685,1.026-1.198,1.78-1.407.755-.211,1.574-.104,2.25.285l52.306,30.2c1.03.595,1.596,1.741,1.441,2.92-.155,1.179-.998,2.14-2.146,2.448l-37.629,10.083,9.26,34.557,1.451,5.416h72.539v-62.924c0-1.615,1.314-2.93,2.929-2.93h39.414c1.615,0,2.929,1.315,2.929,2.93s-1.314,2.93-2.929,2.93h-36.484v59.994h27.046c.748,0,1.46.282,2.005.793l23.396,21.961H90.315l23.395-21.96c.545-.512,1.257-.794,2.005-.794h28.292l-1.449-5.408Z" stroke="#000" stroke-miterlimit="10" stroke-width="8"/>
</svg>