<?xml version="1.0" encoding="UTF-8"?>
<svg id="a" data-name="Layer 1" xmlns="http://www.w3.org/2000/svg" width="400" height="400" viewBox="0 0 400 400">
  <path d="M336.196,161.498c-4.789-5.091-9.481-10.282-14.173-15.469-6.443-7.128-13.106-14.494-19.906-21.459-19.372-19.834-46.921-22.322-68.559-6.176-9.587,7.151-15.197,5.549-23.443-.461-18.927-13.798-41.876-13.781-59.888.05-10.721,8.236-17.071,4.988-24.872-.507-21.139-14.866-48.286-12.438-66.019,5.917-4.317,4.464-7.761,9.748-11.41,15.34-1.484,2.279-2.97,4.554-4.514,6.773v28.259c19.595,35.035,44.151,67.546,67.903,98.992,6.808,9.015,13.615,18.027,20.322,27.111,5.929,8.027,14.113,11.612,26.528,11.612h.109c9.594-.017,19.191-.023,28.785-.023,11.013,0,22.025.007,33.038.017,30.897.02,62.848.04,94.266-.116,21.456-.106,30.289-8.995,30.489-30.68.187-20.076.154-40.501.123-60.252-.02-11.771-.038-23.546-.013-35.317.022-9.718-2.765-17.221-8.766-23.609ZM97.024,191.693c-.297.007-.595.01-.892.01-8.27.003-16.36-3.317-22.317-9.181-6.103-6.01-9.403-13.914-9.294-22.259.224-16.882,14.31-30.654,31.403-30.703h.083c17.007,0,31.055,13.695,31.338,30.567.284,16.916-13.32,31.075-30.322,31.566ZM179.985,191.733c-.138,0-.272-.003-.41-.003-17.086-.209-31.013-14.139-31.045-31.052-.015-8.418,3.362-16.305,9.508-22.216,6.206-5.967,14.71-9.217,23.342-8.823,17.05.71,30.481,15.045,29.939,31.96-.542,16.972-14.27,30.133-31.334,30.133ZM285.967,182.861c-5.907,5.735-13.685,8.856-22.003,8.856-.383,0-.765-.007-1.149-.02-16.879-.58-30.758-15.148-30.305-31.804.453-16.766,14.567-30.312,31.516-30.312h.255c17.045.136,30.977,14.003,31.057,30.912.04,8.524-3.289,16.468-9.37,22.368Z" fill="#050505"/>
</svg>