<?xml version="1.0" encoding="UTF-8"?>
<svg id="a" data-name="Layer 1" xmlns="http://www.w3.org/2000/svg" width="400" height="400" viewBox="0 0 400 400">
  <rect x="127.486" y="251.353" width="82.686" height="20.626"/>
  <rect x="127.486" y="282.382" width="82.686" height="20.626"/>
  <path d="M294.339,143.598l-.091-.093c-5.09-5.405-19.458-12.64-19.918-13.133-.117-.125-.236-.25-.356-.373l-.003-.003s-.008-.009-.012-.013c-.829-.84-5.716-35.894-7.914-51.931-1.981-12.742-.639-15.775-5.986-22.814-1.665-2.014-3.747-3.69-6.071-4.93-.286-.153-.576-.299-.868-.438-4.524-2.204-30.479-16.016-31.059-16.442-1.5-1.572-5.249-4.365-5.367-4.464-4.821-4.068-11.023-6.392-17.506-6.392h-.126c-12.86,0-23.845,8.942-26.294,21.081-.034.169-.078.337-.132.5-.549,1.665-7.089,51.594-7.089,51.594-.35,2.758-2.696,4.824-5.476,4.824l-33.072.02c-29.259,0-53.091,23.197-53.126,51.71,0,.856.02,1.714.062,2.553,1.669,33.542,3.938,80.028,5.762,117.381l1.344,27.537c.517,10.458,4.184,20.052,10.075,27.945.092.14.185.281.277.42,6.479,11.213,16.523,17.18,28.317,22.412,11.853,5.781,40.42,19.468,42.998,20.234,10,2.66,73.481,2.049,89.804,2.014,24.928,0,45.729-18.893,47.45-43.12,2.274-43.505,5.243-107.434,7.481-152.353.502-12.438-4.232-24.685-13.101-33.727ZM252.205,153.489c-.851,17.083-1.833,37.382-2.839,58.197l-.021.433c-1.47,30.399-2.989,61.833-4.23,85.963-.983,19.88-17.75,35.469-38.171,35.489h-72.652c-20.431,0-37.206-15.576-38.189-35.459l-1.231-25.221c-1.847-37.836-4.144-84.925-5.854-119.272-.029-.601-.044-1.218-.044-1.834.025-20.52,17.179-37.213,38.288-37.213h46.425c2.771,0,5.109-2.06,5.458-4.809l7.995-62.924c.749-5.853,5.889-10.267,11.958-10.267h.008c6.041,0,11.159,4.405,11.907,10.249l8.228,64.143c.282,2.195,1.852,4.008,3.984,4.601l1.168.325c6.567,1.827,12.539,5.329,17.268,10.126,7.197,7.33,11.04,17.344,10.544,27.474Z"/>
  <path d="M199.813,143.95h-62.059c-5.454-.013-10.69,2.133-14.565,5.971-3.859,3.905-6.035,9.166-6.062,14.656v41.433c.021,5.464,2.199,10.699,6.062,14.565,3.754,3.808,8.856,5.985,14.203,6.061h61.969c.061,0,.121,0,.182,0,11.391-.05,20.585-9.325,20.535-20.717l.452-41.252c0-.061,0-.121,0-.181-.05-11.391-9.325-20.585-20.717-20.535Z"/>
</svg>