<?xml version="1.0" encoding="UTF-8"?><svg id="a" xmlns="http://www.w3.org/2000/svg" viewBox="0 0 400 400"><path d="M112.1,123.2c1.4,1.2,3.6.2,3.6-1.6l.3-75.8c0-5.4,9.4-12.3,14.8-13.1,8.8-1.2,51.2-1,58.4,1.4,2.8.9,5.8,3.6,8.6,5s.3.2.4.3c51.5,40.6,62.7,47.6,156.3,116.5,8,5.9,12,12.7,13.1,23.1,3.9,37.1-.3,91.3-1.9,129.5s5.6,59-32.8,59.2c-89.7.6-88.3.7-186.6-.6,0,0-.2,0-.3,0-15.4-.6-24.8-12.1-34.6-22.4-26.1-27.4-49.7-57.6-76.1-84.9-.2-.2-.4-.5-.5-.7l-3.1-8.3c-.1-.3-.1-.6-.1-.9,3.1-42.9-3.7-91.2.4-133.3.9-8.9,5.6-15.9,14.9-17.2,7.3-1,31.4-1,38.5.3,8.6,1.6,18.3,16.2,26.6,23.6ZM169.5,66.1h-18.1c-1.2,0-2.2.9-2.2,2.1l-.3,84.9c0,5.1-2.9,8.9-8.1,11.4-10.6,5.1-28.9,2.8-35.2-1.7-7.5-5.4-22.9-26.6-29.1-29.4-2.8-1.3-6-.8-9-.7s-2.1,1-2.1,2.1l-.3,95.9c0,1.2.9,2.1,2.1,2.2,3,.1,6.2.6,9-.7,6.2-2.8,21.7-23.9,29.3-29.2s24.6-4.7,31.9-2.4,1.7.7,2.6,1.3c5.5,3.6,8.7,10,8.7,16.6l-.3,79.4c0,1.2,1,2.2,2.1,2.2h18.1c.8,0,1.6-.4,2-1.2l40.2-89.5c.2-.4,3.2-6.6,3.6-6.8,3.2-2.1,6.4-2.1,10.3-2.6,23.9-2.6,56.3,4,79.1,0,16.4-2.9,16.1-29.6-1.3-32.8-22.5-4.1-54.2,2.2-77.7-.6s-6.2-.5-9.4-2.6-3.6-7.2-3.7-7.5l-40.3-89.1c-.3-.8-1.1-1.3-2-1.3Z"/></svg>