<?xml version="1.0" encoding="UTF-8"?><svg id="a" xmlns="http://www.w3.org/2000/svg" viewBox="0 0 400 400"><defs><style>.b{fill:#060606;}</style></defs><path class="b" d="M307.4,149.1c-37-26.7-74.9-52.8-110.6-81.8-6.1-4.9-13.1-9.6-20.3-12.2-14.1-5.2-29.4-4.3-44.5-3.6-12.5-1-15,10.5-14.5,20.5.1,17.5,0,34,0,51.6.1,6.2.4,13.9-6.7,5.9-13.2-17-38.5-25.4-59.4-17.5-8.5,5-6.7,17.4-6.9,26,.5,30.4-.4,60.3.2,90.2.4,11.1,8.2,19.6,15.6,27.4,21.1,22.6,37.4,40.8,54.1,59.7,10.2,13.3,26.3,18.4,42.7,17.1,22.7-.1,45.5-.1,68,0,28.1-1.1,57.2,2.7,84.9-2.4,15.3-4.1,16.5-21,16.7-34.4.3-33.4-.5-66.4.6-100.1,1.8-18.3-3.7-35.7-19.7-46.3h-.2ZM286.5,191.1c-7.8,7.3-19.8,6-29.7,6.1-16,.6-31.7-1.2-47.5.9-9.4,2.2-12.7,12.3-16.2,20.2-6.4,15.1-13.2,29.9-19.3,45-2.5,6.3-5.7,13.4-11.1,17.6-6.7,5.1-16.9,5-23-1-6-7.3-2.8-17.7-3.5-26.3-.5-14.7.4-29.3-.4-43.9,0-12.4-15.3-14.6-24.4-12-14.2,4-25.3,31.6-41.6,25.8-8-4.4-6.3-14.8-6.5-22.6,0-16.2,0-32.5,0-48.4-.6-10.4,0-25.7,14.6-22.5,12.8,5.2,19.8,21.1,32.8,26.1,11.4,3.8,26.1-.3,25.3-14.3.6-14.5-.2-29.1.1-43.6.1-10.5-2.2-26.3,12-28,13.6-2.6,21.8,9,25.6,20.3,6.1,14.9,12.9,29,18.9,43.8,3.5,8.3,6.8,18.7,16.3,21.6,5.3,1.6,11.1,1.4,16.7,1.4,13.1-.3,25.1,0,38.2,0,8.4.1,18.4.6,23.9,7.8,5.5,7.3,5.1,19.1-1.2,25.6h-.1Z"/></svg>