<?xml version="1.0" encoding="UTF-8"?><svg id="a" xmlns="http://www.w3.org/2000/svg" viewBox="0 0 115 115"><defs><style>.b{fill:#050505;}</style></defs><path class="b" d="M33.7,88.4c2.8,2.8,5.5,5.7,8.1,8.5l.4.5c2,2.1,4.4,3.1,7.6,3.1h0c1.4,0,2.9,0,4.3,0,3.5,0,7.1,0,10.6,0,9.4,0,19.1,0,28.6,0,6,0,8.9-3,9-9.1,0-11.3,0-22.8,0-34v-8.5c0-3.6-1.4-6.2-4.1-8-4-2.6-8-5.2-12-7.8-8.4-5.5-17.1-11.1-25.8-16.4-4.1-2.5-9-2.7-13.2-.6-4.5,2.2-7.4,6.7-7.9,11.8-.1,1.1,0,2.4.2,3.6.3,2.6.6,5.2-1.4,7.1-1.8,1.7-4.3,2.6-6.7,3.6-1,.4-2.1.8-3.1,1.3-.2,0-.4.2-.6.3-.4.2-.8.4-1.2.6-6.7,2.3-11.2,6.1-13.9,11.5v7.6c0,0,.1,0,.2.1.3.2.6.5.8.9,2.3,6.2,6.7,9.2,13.1,8.8,1.1,0,1.9.1,2.3.6.6.6.5,1.6.4,2.6-.7,4.5.8,8.4,4.4,12.1ZM27.3,65.9c-3.8.4-6.3-1.3-7.2-4.8-.8-3,.5-5.9,3.5-7.6,1.1-.6,2.2-1.1,3.3-1.6.4-.2.8-.4,1.2-.5,1.4-.7,2.9-1.3,4.3-2,3.7-1.7,7.5-3.5,11.4-5.1,2.2-.9,2.9-2,2.8-4.3-.2-3.1-.2-6.4,0-10.4.1-2.6.9-4.7,2.3-5.9,1.2-1.1,2.8-1.6,4.7-1.5,3.9.2,6.3,2.9,6.4,7.6,0,.6,0,1.2,0,1.8,0,2.2.2,4.5-.1,6.7-.5,3.6.7,5.5,4.6,7,3.8,1.5,7.5,3.3,11.1,5,1.5.7,3.1,1.5,4.6,2.2l.6.3c.5.2,1.1.5,1.6.8,3.3,1.8,4.8,4.8,4,7.8-.9,3.4-3.8,5.1-7.9,4.8-2.4-.2-4.9-.6-7.2-.9-1.2-.2-2.4-.3-3.6-.5-.4,0-.8-.1-1.2-.2-1.2-.2-2.4-.3-3.6-.3-.4,0-.8-.1-1.2-.2-.5-.1-1.1-.3-1.4-.1-.1,0-.2.3-.3.5-.5,2.1-.7,3.7,1.1,4.8,1.2.7,2.4,1.4,3.6,2.2l.2.2c4.7,2.9,6.2,6.2,4.6,9.8-1.8,3.7-5.4,4.6-10.9,2.4-.2,0-.5-.2-.7-.3-.6-.2-1.1-.4-1.7-.7-2-1.1-4-1.1-6,0-1.4.8-3.1,1.4-5.1,2-.8.2-1.5.3-2.2.3-2.5,0-4.7-1.3-5.9-3.7-1.6-3.1-.8-6.2,2.2-8.4.7-.5,1.5-1,2.2-1.4.4-.2.8-.5,1.2-.7.2-.2.5-.3.7-.5.4-.3.9-.7,1.4-.9,1.9-.9,2.4-2.4,1.6-4.9-.2-.7-.6-.7-1.7-.5-.6.1-1.2.3-1.8.1-1.5.2-3,.4-4.6.6-3.6.5-7.3,1-11,1.4Z"/></svg>