<?xml version="1.0" encoding="UTF-8"?><svg id="a" xmlns="http://www.w3.org/2000/svg" viewBox="0 0 400 400"><path d="M98.5,312.3c-5.7-5.8-6.7-14.7-2.4-21.6,5.5-8.9,13.2-21.3,20.1-31.2s-.4-17.7-9.5-17.3c-18.2.7-43.6-2.2-59-2.9-7.6-.3-13.6-6.6-13.6-14.3,0-11.4,1-28.9,1.6-38.5s2.7-8,6.5-9.9,11.4-5.8,13.1-6.6c11.9-5.7,37.6-14,56.5-23.5,6.8-3.4,23.4-20.9,23.7-28.5.7-16.5,2.1-45,3.1-55.1,1-10.9,7.9-20.5,18-24.8s.2,0,.2-.1c4.1-1.7,10.3-2.8,16.3-3.5,11.2-1.3,22.5,1.5,31.8,7.9,32.9,22.7,117.4,81.3,145,101.9,7.9,5.9,16.2,13.9,16.1,23.8-1.5,93.5-1.5,149.1-1.4,175.8,0,10.8-8.6,19.6-19.4,19.8-47.1.7-164,2.4-180,2.1-8.5-.1-16.6-3.6-22.6-9.5-11.9-11.8-32.2-32-44-44ZM57.8,200.1l-.2,18.7c0,.8.7,1.5,1.5,1.6l85.5,1c5.1,0,8.9,3,11.3,8.2,5,10.6,2.5,28.9-2,35.2-5.4,7.5-26.8,22.7-29.6,28.9-1.4,3-.8,6.4-.8,9.6s.7,1.5,1.5,1.5l97.1,1.2c.8,0,1.5-.7,1.6-1.5,0-3.2.7-6.6-.6-9.6-2.7-6.2-23.7-21.9-28.9-29.6-4.4-6.4-4.5-24.6-2.1-31.9.7-2.1,3-5.1,5.7-7.5,2.8-2.5,6.5-3.7,10.2-3.7l82,1c.8,0,1.5-.7,1.6-1.5l.2-18.7c0-.8-.5-1.6-1.2-2l-89.1-41c-.4-.2-6.6-3.3-6.8-3.6-2-3.2-2.1-6.4-2.5-10.4-2.4-23.9,4.5-56.3.6-79.1-2.8-16.4-29.5-16.4-32.8,1-4.3,22.4,1.7,54.2-1.3,77.7-.5,3.9-.6,6.2-2.7,9.4s-7.2,3.5-7.6,3.7l-89.4,39.5c-.8.3-1.3,1.1-1.3,1.9Z"/></svg>