<?xml version="1.0" encoding="UTF-8"?><svg id="a" xmlns="http://www.w3.org/2000/svg" viewBox="0 0 400 400"><path d="M345.7,172c-1.2-13.3-6.7-18-15.9-25.9-1.1-1-2.3-2-3.5-3-16-13.9-33.1-27.4-49.6-40.4-11.9-9.4-24.2-19.1-36.1-28.9-6.3-5.2-14.5-5.9-22.6-6.5-5.5-.4-10.7-.8-15.4-2.6-2.2-.8-4.2-2.3-6.2-3.7-1.5-1.1-3-2.2-4.4-2.9-12.6-6.1-20.5-8.4-34.1-6.6-7.2,1-11.9,4.1-17,7.3-3.3,2.2-6.8,4.4-10.9,5.9-5.7,2.1-10.8,2.5-15.7,2.9-7.1.6-13.8,1.2-22.5,6.4-11.1,6.7-14,13.6-17.4,21.7-1.8,4.3-3.7,8.8-6.9,13.7-3.5,5.2-7.5,8.5-11.3,11.7-6.2,5.1-12,10-15.3,23-2.8,11.1-1.1,17,.7,23.2,1.1,4,2.3,8.2,2.5,13.7,0,3.4-1.1,7.6-2.4,12.1-1.1,3.9-2.3,8-2.4,11.3-.6,11,2.6,22,9.4,31.7v.2c8.2,14.9,14.7,33.3,21,51,7.1,20,14.5,40.7,24,56.3,5.1,8.3,13.1,13.8,22.2,15h203c13.7-1.1,24.7-11,26.8-24.3-1.6-25.2-.6-52,.3-77.9,1-28.3,2.1-57.6-.2-84.6ZM266.9,212.4c-1.6,8-7.8,12.7-13.8,17.2-3.5,2.7-6.9,5.2-9,8.2-2.3,3.2-3.7,7.1-5.2,11.3-1.5,4.1-3,8.4-5.4,11.9-6.9,10-16.1,10.3-24.9,10.5-4.5.1-9.1.2-13.4,1.6-3.4,1.1-6.7,3.4-10.2,5.9-5.6,3.9-11.4,8-18.5,8s-13-4.1-18.5-8c-3.5-2.5-6.8-4.8-10.2-5.9-3.9-1.3-8.3-1.4-13-1.5-6.5-.2-13.2-.4-18.8-4-6.7-4.4-9.3-11.5-11.8-18.5-1.5-4.2-3-8.2-5.3-11.3-2.2-3-5.5-5.5-9-8.2-5.7-4.3-11.6-8.7-13.5-16.1-1.8-7,.2-13.4,2.1-19.6,1.2-4.1,2.4-7.9,2.5-11.7,0-4.5-1.3-8.9-2.6-13.1-2.6-8.4-5.3-17.1,2.3-26.8,2.4-3.1,6.1-5.7,9.6-8.3,3.3-2.4,6.7-4.9,8.6-7.4,2.2-2.9,3.8-7.5,5.4-12,1.8-5.1,3.7-10.4,6.5-14,6-7.4,15.9-7.8,24.7-8.2,4.1-.2,7.9-.3,11.1-1.1,3.1-.8,7.1-3.5,10.9-6.2,4.5-3.1,9.2-6.3,13.5-7.2,10.7-2.2,18,2.9,24.4,7.5,3.9,2.8,7.6,5.4,11.8,6.2,3,.6,6.4.7,10.1.9,7.8.3,16.6.6,22.6,6,4.3,3.9,6.6,10.3,8.9,16.5,1.6,4.5,3.2,8.8,5.3,11.7,1.9,2.5,5.3,5,8.7,7.4,3.8,2.8,7.8,5.6,10.2,9,6.8,9.5,4.2,17.9,1.6,25.9-1.2,3.9-2.5,8-2.6,12.1,0,4,1.2,8.3,2.6,12.9,1.8,6,3.7,12.3,2.4,18.5Z"/><path d="M154.1,216.5c4,2.3,8.5,2.3,12.6.1l53.2-53.6c1.6-5.1.7-10.3-2.5-13.9-3.3-3.7-8.3-5.1-13.7-3.8-3.9.9-14.8,12.8-22.8,21.4-7.3,8-14.3,15.5-18.6,18.3l-.4.3h-.5c-2.6.5-5.3-2-11.6-8.8-2.5-2.7-5.6-6.1-6.9-6.7-6-3.1-11.6-1-14.9,2-3.3,3.1-6,8.6-3.4,15,2.1,3,26.7,28,29.4,29.8Z"/></svg>