<?xml version="1.0" encoding="UTF-8"?><svg id="a" xmlns="http://www.w3.org/2000/svg" viewBox="0 0 400 400"><defs><style>.b{fill:#050505;}</style></defs><path class="b" d="M87.3,293.7c12.7,14.1,25.2,28.9,37.9,43.1,10.8,11.5,23.5,11.9,38.2,11.5,47.1-.1,93.8.1,141.1-.1,5.7,0,12.3-.5,17.5-2.5,13.1-4.4,16.2-18.3,16.3-30.9.4-15.2.6-30.5.9-45.5.3-14.8.6-29.7,1-44.6.3-6.5,0-13.4-2.2-19.4-1.2-3.5-2.9-6.8-5.1-10-17-21-33.2-39.3-53.3-64.5-17.6-22.3-31.4-35.1-62.3-22.6-3.1,1.1-7.4,2.7-10.5,1.2-2.6-1.1-2.6-6.1-3.1-8.9-4.5-32.5-25.1-47.2-52-41-16.3,3.6-27.4,22.2-31.2,45.8-.9,7.3-3.2,5.5-8.7,3.7-10.3-3.4-19.8-5.6-30.3-4.6-13.5,1-24,9.9-29.9,22-7.6,14.2-4,28.6,5.6,40.7,3.5,4.7,8.6,10,14,15,4.6,4.3,8.1,5.7,2.2,11.3-17.5,14.3-31.6,29.2-23.5,52.1,2.6,8,9.5,17.3,15.9,24.3,7,8,14.1,16,21.1,24h.1ZM78.5,217.9c15-10.1,30.6-18.7,45.8-28.2,1.2-.8,2.5-1.5,1-2.4-5-3.1-21.9-13.4-30.2-18.4-7.9-5.1-18.7-9.6-22.8-19-5.9-12.1,5.8-27,18.9-24,4,.6,8,2.7,11.5,4.7,10.7,6.1,21,12.5,31.5,18.8,3.1,1.2,10.8,8.9,10.3,1.2,0-8.3,0-16.6,0-24.5.3-11.1-1.4-22.6,1.9-33.5,4.7-14,21.8-14.6,30.2-5.4,8.3,10.4,3.9,35.6,4.9,49.2.7,2.2-1.8,20.2,1.7,17.9,5.6-3.3,23.2-13.8,31.9-19,12.3-8.3,29.4-16.8,38.4.7,5.2,9.8-1.2,19.9-9.7,25.1-13.5,8.7-27,16-40.6,24.6-1.5.9-3.9,2.1-1.8,3.7,3.2,2.3,6.8,4.1,10.1,6.2,9.7,5.9,18.7,11.3,28.1,16.9,4.2,2.5,8.7,5.7,11.6,9.7,11,13.8-3.6,34.2-21,26.6-12.9-5.3-24-13.6-36-20.3-3-1.7-6.6-4-9.9-5.8-2.9-1.6-2.7,2.4-2.7,4.2,0,9.3,0,20.2,0,29.3-.1,7.5.7,15.8-.8,23.4-2.7,17.7-26.1,21.7-33.9,5.8-3.8-10.4-1.6-22.3-2.3-33.2,0-8.5,0-16.9,0-25.4,0-1.3,0-3.2-.6-4.1-2.5-1.5-8.3,3.9-11,5.1-8.9,5.4-18.3,10.9-27.1,16.2-5.7,3.4-12.2,6.9-19,6.6-15.9-.4-22.2-24.4-8.4-32.6h.2Z"/></svg>