<?xml version="1.0" encoding="UTF-8"?><svg id="a" xmlns="http://www.w3.org/2000/svg" viewBox="0 0 400 400"><path d="M362.4,190.4c-10.7-12.4-21.3-25.8-31.4-38.8-12.8-16.3-26.1-33.2-39.8-48.3-17.2-18.8-30.1-20.7-41.5-20-8,.5-14.6,3.9-21.6,7.4-2,1-4.1,2.1-6.2,3.1l-3.9,1.8.4-4.3c2.4-29.7-12.3-43.5-21.3-49-14.6-9-34.2-8.9-48.8,0-9,5.5-23.8,19.3-21.3,49l.4,4.7-4.1-2.3c-11.4-6.5-20.7-10.4-30.9-10.4s-8.8.7-13.7,2.2c-16.4,5.1-28,18.1-31,34.9-3.1,17.2,3.6,34.6,17.5,45.4.6.5,2.4,1.4,4.1,2.4,7.3,4,11.7,6.6,10.9,10.2-.4,1.7-2.2,2.9-9.2,6.6-2,1.1-4.3,2.3-5,2.9-12.3,9.4-18.8,19.4-19.9,30.5-2.1,21.8,17.1,43.8,34,63.1,1.9,2.2,3.7,4.3,5.5,6.3,3.5,4.1,7.5,8.8,11.6,13.8,12,14.5,25.7,30.9,36.5,40.6,6,5.4,12.3,8.2,19.8,8.9,29.9,2.7,62.6,1.5,94.3.3,29.2-1.1,59.4-2.3,87.5-.3,17.6-1.7,27.3-12.5,28.9-31.9,1.7-20.3,1.3-42.4,1-63.7-.3-18.3-.6-37.1.4-54.9l-3.1-10.5ZM271.4,227.5c-.5,5.6-4.2,11-9.6,14-5.2,3-11.1,3.3-16,.9h-.2c0-.1-54.3-32.7-54.3-32.7v67.2c0,7.3-11.5,15.1-17.9,15.3-.1,0-.2,0-.3,0-4.5,0-10.4-2.7-14.6-6.7-2.9-2.8-4.4-5.7-4.4-8.5v-67.2l-54.5,32.7c-4.9,2.4-10.8,2-16-.9-5.4-3.1-9.1-8.4-9.6-14-1.1-11.2,6.4-16.2,13.7-21.1l.4-.2c8.6-5.7,17.8-10.8,26.7-15.8,7.6-4.2,15.5-8.6,22.9-13.3l-54.5-32c-7.9-5.3-11.1-14.1-8-22.3,2.5-6.9,9.9-13.2,20.7-12h.5c0,0,57.9,34,57.9,34v-67.2c0-7.3,11.5-15.1,17.9-15.3,4.5-.2,10.7,2.6,14.9,6.7,2.9,2.8,4.4,5.7,4.4,8.5v67.2l57.8-33.9h.5c7.2-1.3,14.4,1.7,18.6,7.7,4.2,5.9,4.5,13.2.9,19.6l-.2.4-.3.3c-13.4,11.7-29.8,20.9-45.7,29.7-5,2.8-10.1,5.6-15.1,8.5,7.2,4.5,14.8,8.7,22.2,12.9,9.2,5.1,18.7,10.4,27.5,16.3l.4.2c7.2,4.8,14.7,9.8,13.7,21.1Z"/></svg>