<?xml version="1.0" encoding="UTF-8"?><svg id="a" xmlns="http://www.w3.org/2000/svg" viewBox="0 0 400 400"><path d="M329,173.1c-.6-6.9-2.6-11.8-7.5-17.8-15.5-15.4-30.5-31.8-45-47.6-12.3-13.4-24.9-27.2-37.8-40.3-.8-.8-1.9-1.9-3.1-3.2-4.6-4.8-18.6-19.6-22.8-20.3-1.8-.3-3-.3-4.7,0-3,.5-6.1,3-8.5,4.8-24.1,19-47.6,41.6-70.3,63.4-22.7,21.8-46.2,44.4-70.6,63.7-1.5,1.7-3.1,3.2-4.7,4.6-5.8,5.4-9,8.9-7.1,15.7l110.2,148.3c6.5,7.3,11.9,11.4,21.3,12.3,22.6,2.1,47.5,1.1,71.6.1,19.2-.8,39.1-1.5,57.6-.8,10.7-2.8,19-11.7,21.2-22.7-1.5-24.6-.5-50.7.4-76,1-28.2,2.1-57.4-.2-84.2ZM198.2,133.7l-.9.9c-8,7.9-16.8,15.1-25.4,22.2-8.3,6.8-16.9,13.9-24.6,21.5l-1.3,1.3c-7.8,7.6-11.7,12-6.2,20l58.4,51.9v50.5l-120-108.8,120-109.8v50.5Z"/></svg>