<?xml version="1.0" encoding="UTF-8"?><svg id="a" xmlns="http://www.w3.org/2000/svg" viewBox="0 0 115 115"><defs><style>.b{fill:#070707;}</style></defs><path class="b" d="M21.6,64.3c6.7,8.4,13.8,17.4,20.7,26.6,2.4,3.2,5.2,4.6,9.4,4.5,7.7,0,15.4,0,22.9,0,4.4,0,8.8,0,13.2,0,7.4,0,9.5-2.2,9.5-9.5v-4.9c0-10.4,0-21.2,0-31.8,0-2.4,0-4.4,0-6.1q0-7.6-5.3-13.4c-1.2-1.3-2.8-3-4.6-5.1-3-3.4-6.5-4.9-11.1-4.8-5.3,0-10.7,0-16,0-2.3,0-4.5,0-6.8,0-2.4,0-4.8,0-7.3,0-2.3,0-4.7,0-7,0s-6,0-9,0c-8.6,0-12.7,4.2-12.8,13,0,2.7,0,5.3,0,8,0,3.9,0,7.9,0,11.8-.1,4.4,1.2,8.2,4.1,11.8ZM86.7,66.4c.2,0,.5,0,.7,0,1-.1,2.3-.3,3.4.6.7.6,1.1,1.5,1.1,2.7v.5c0,2.2.2,5.3-3.2,6.9-1.3.6-2.5.6-3.6.6h-.4s-10,0-10,0c-5.2,0-10.5,0-15.7,0s-13.5,0-20.2,0c-5,0-7.1-1.7-7.5-6.2-.1-1.3,0-2.9.9-3.9,1-1.1,2.6-1.2,3.7-1.2,6.3.1,12.6.1,18.8,0,2.5,0,4.9,0,7.4,0h6c6.1,0,12.5,0,18.8,0ZM23.1,30.8c0-3.6,2.2-5.8,5.8-5.8,4.8,0,9.6,0,14.5,0h10.5s0,0,0,0h2.7c2.3,0,4.5,0,6.6,0,5.2,0,10.2,0,15.1,0,3.2,0,5.3,2.3,5.4,5.7,0,8.1,0,16.2,0,24.3,0,3.6-2.2,5.8-5.8,5.9-2.9,0-5.9,0-8.8,0s-3.9,0-5.9,0c-2.1,0-4.2,0-6.3,0h-5.1,0s-8.4,0-8.4,0c-4.9,0-9.7,0-14.5,0-3.6,0-5.8-2.2-5.8-5.8,0-8.6,0-16.5,0-24.3Z"/><path class="b" d="M42.5,42.9c0,5.9,2.8,11.5,7.9,15.4l2.5,2,3.1-2c5.2-3.4,8.2-9.2,8.1-15.6-.2-6.2-3.3-11.9-8.2-14.7l-3.2-1.8-2.3,1.7c-5,3.8-7.9,9.3-7.9,15.2Z"/><path class="b" d="M73.9,40.3c-1.3,0-2.5,1.4-2.4,2.8,0,.7.4,1.4.9,1.8.5.5,1.1.7,1.7.6,1.2,0,2.6-1.6,2.5-2.8,0-1.2-1.5-2.5-2.7-2.5s0,0,0,0Z"/><path class="b" d="M32.6,45.6c.6,0,1.3-.2,1.8-.7.5-.5.8-1.2.9-1.9h0c0-1.4-1.1-2.7-2.5-2.7,0,0,0,0,0,0-.6,0-1.2.2-1.7.7-.5.5-.8,1.2-.8,1.9,0,1.4,1.1,2.7,2.5,2.7Z"/></svg>