<?xml version="1.0" encoding="UTF-8"?><svg id="a" xmlns="http://www.w3.org/2000/svg" viewBox="0 0 400 400"><path d="M334,109.6c-36.2-37.8-33.6-40.7-38.2-43.8s-1.9-.9-2.9-.9h-91.8c-3,0-5.5,2.6-5.5,5.7v78.3c0,3.1-2.3,5.5-5.2,5.7-11.7.7-23-.1-35.5-.4-3,0-5.4-2.6-5.4-5.7v-29.9c0-3.1-2.4-5.7-5.5-5.7h-74.7c-3,0-5.5,2.6-5.5,5.7v201.7c0,12.5,9.7,22.7,21.8,22.7h241.8M81.7,292.8l-1.3-156.8c0-3.2,2.4-5.7,5.5-5.7h38.4c3,0,5.5,2.5,5.5,5.7v156.8c0,3.1-2.4,5.7-5.4,5.7h-37.2c-3,0-5.4-2.5-5.5-5.6ZM192.7,294.9h-38.1c-3,0-5.5-2.6-5.5-5.7v-108.8c0-3.2,2.5-5.7,5.5-5.7,15,0,26.3-.3,38.9,0,3,0,5.4,2.6,5.4,5.7l-.8,108.8c0,3.1-2.5,5.7-5.5,5.7ZM262.6,295.1h-38.5c-3,0-5.5-2.6-5.5-5.7V94.7c0-3.1,2.4-5.7,5.5-5.7h38.5c3,0,5.5,2.6,5.5,5.7v194.7c0,3.1-2.4,5.7-5.5,5.7Z"/></svg>