<?xml version="1.0" encoding="UTF-8"?><svg id="a" xmlns="http://www.w3.org/2000/svg" viewBox="0 0 115 115"><path d="M99,31.7c-11-11-10.2-11.8-11.6-12.7s-.6-.3-.9-.3h-27.9c-.9,0-1.7.7-1.7,1.7v22.8c0,.9-.7,1.6-1.6,1.7-3.5.2-7,0-10.8-.1s-1.6-.7-1.6-1.7v-8.7c0-.9-.7-1.7-1.7-1.7h-22.7c-.9,0-1.7.7-1.7,1.7v58.7c0,3.6,3,6.6,6.6,6.6h73.4M22.4,85l-.4-45.7c0-.9.7-1.7,1.7-1.7h11.7c.9,0,1.7.7,1.7,1.7v45.7c0,.9-.7,1.7-1.6,1.7h-11.3c-.9,0-1.7-.7-1.7-1.6ZM56.1,85.6h-11.6c-.9,0-1.7-.7-1.7-1.7v-31.7c0-.9.8-1.7,1.7-1.7,4.6,0,8,0,11.8,0s1.6.8,1.6,1.7l-.2,31.7c0,.9-.7,1.6-1.7,1.6ZM77.3,85.7h-11.7c-.9,0-1.7-.7-1.7-1.7V27.3c0-.9.7-1.7,1.7-1.7h11.7c.9,0,1.7.7,1.7,1.7v56.7c0,.9-.7,1.7-1.7,1.7Z"/></svg>