<?xml version="1.0" encoding="UTF-8"?><svg id="a" xmlns="http://www.w3.org/2000/svg" viewBox="0 0 398.3 411.8"><defs><style>.b{fill:none;}</style></defs><path class="b" d="M247.8,248v-.2c.2-.5.5-1.5.4-1.9-.8-.4-1.9-.3-3.6,0-.7.1-1.5.2-2.2.3-1.7.2-3.3.3-4.9.4-5.7.2-11.8-.6-17.9-2.4h-.3c-1.2-.4-2.4-.8-3.4-.5h0c-.9.3-1.2,1.8-1.5,3.6h0c-1.6,11-4,27.9-5.9,40.9l-2,13.6c-.3,1.8-.3,2.7.3,3.1,1,.6,2.4.6,4.1.7.4,0,.8,0,1.2,0,1.3,0,2.7,0,4.1,0h.8c2.4,0,4.8,0,7.1,0,.4,0,.8,0,1.1,0,1.6,0,3.2,0,4.4-.4h0c1.4-.4,2.3-1.6,2.9-4.2h0c0,0,4-13.8,4-13.8,3.9-13.4,8.9-30.5,11.3-39Z"/><path class="b" d="M165.4,248.7c.4,2.9.9,6.2,1.4,9.8l.8,5.7c.8,5.8,1.7,11.7,2.5,17.3,1.1,7.9,2.2,15,2.9,20.1.2,1.3.4,2.2,1.1,2.7,1.5,1.1,4,1.1,6.5,1,1,0,1.9,0,2.9,0,.8,0,1.7,0,2.7,0,2.8,0,6,.1,7.3-1.4.5-.6.7-1.7.9-2.9,1.2-7.3,2.9-19.6,4.6-31.4,1.1-7.5,2.1-14.6,2.8-19.8.2-1.3.4-2.9,0-3.8-.8-1.3-2.8-1-5.6-.4-.9.2-1.7.3-2.5.4-7.4,1.1-14.9,1.1-22.3-.1-.6,0-1.1-.2-1.7-.3-1.5-.3-3.1-.6-4.1-.2h0c-.5.3-.4,1.6-.2,3.1v.3Z"/><path class="b" d="M135.3,301.1c.4,1.3.9,2.9,1.8,3.5h0c1.2.8,3.1.8,5.3.8.6,0,1.1,0,1.7,0,1.4,0,2.8,0,4.2,0h3.2s1.5,0,1.5,0c1.4,0,2.7,0,4.1,0,.9,0,2.9,0,3.7-.8.3-.3.1-1.4,0-2.2-1.3-8.9-4.3-29.8-6.5-44.9l-1.7-11.6c-.1-.9-.3-2.2-.8-2.7-1.2-.8-3.3,0-5.3.7-1.1.4-2.2.7-3.2.9-5.9,1.5-12.1,2-18.3,1.4-.4,0-.9,0-1.4-.1-1.1-.1-3.5-.4-4,.1,0,0,0,.1,0,.4,2.1,7.9,5.9,21,9.6,33.7,2.2,7.6,4.3,14.8,6,20.8Z"/><path class="b" d="M269.4,213.3h0c4.8-11.1,1.8-21.4-1.6-28.1-4.3-8.6-11.8-16.4-20.7-21.5-1.5-.9-3.1-1.5-4.8-2.2-2.2-.9-4.5-1.8-6.6-3.3-2.8-2-4.6-4.7-6.3-7.4-.4-.6-.9-1.3-1.3-1.9-4.5-6.5-10.3-12.1-17-16.2-1.9-1.1-5.5-3.3-6.7-2.6-.4.2-.8,1.2-.9,3.2-.1,2.5,0,5.1,0,7.5v.2c0,2.6.5,4.1,1.5,5,.5.5,1.2,1,1.9,1.5,2,1.4,4.4,3.1,4.5,6.4,0,1.6-.4,3-1.4,4-2.1,2.2-6,2.2-8.6,2.2h-.2c-4.2,0-8.1,0-12.1,0h-1.8c-5.4,0-11.5,0-17.2,0-1,0-2,0-3,0-2.1,0-4.2,0-6.2-.2-2.1-.2-3.8-1.4-4.6-3.2-.8-1.9-.6-4.1.7-5.9,1-1.4,2.3-2.4,3.5-3.1,1.1-.7,2.1-1.4,2.5-2.3.9-1.7.9-4.2.8-6.7,0-.7,0-1.4,0-2v-.8c0-2,0-5.3-.9-6.2-.7-.7-2.9-.5-9.7,4.3-.4.3-.8.5-1.1.7-5.2,3.8-9.8,8.7-13.6,14.4-.4.5-.7,1.1-1.1,1.7-1.9,2.9-3.8,5.8-7,7.7h0c-2.2,1.3-4.7,2-7,2.6-1,.2-1.9.5-2.8.8-16.8,4.7-28.2,23.2-25.6,41.3,1.4,11.8,8.8,22.3,19.7,28.1,11,5.8,23.9,6.1,34.5.6h.2c2.6-1.1,4.6-1.6,6.5-1.6.1,0,.2,0,.3,0,1.6,0,3.3.3,5.3.9h.2c13.7,5.6,27.9,6.3,40.1,2l.9-.3c5.8-2.1,10.7-3.9,17.4-.9,9.5,4.4,20.3,5.1,28.8,1.9,9.4-3.2,17.1-10.8,20.7-20.3ZM171.7,196.5c-.8,1.3-2.3,2.3-4,2.5-.3,0-.6,0-.9,0-1.5,0-3-.5-4-1.5-2.3-1.9-2.7-5.9-.7-8.4,1-1.2,2.5-2,4.2-2.2,1.8-.1,3.5.4,4.7,1.5h0c1.9,2,2.2,5.5.7,7.9ZM188,196.5c-.8,1.3-2.3,2.3-4,2.5-.3,0-.6,0-.9,0-1.5,0-3-.5-4-1.5-2.3-1.9-2.7-5.9-.7-8.4,1-1.2,2.5-2,4.2-2.2,1.8-.1,3.5.4,4.7,1.5h0c1.9,2,2.2,5.5.7,7.9Z"/><path class="b" d="M177.4,131.4c0,3.6,0,7.4,0,10.6,0,.3,0,.7,0,1.1,0,1.6,0,3.3.8,4,.8.6,2,.7,3.3.8h.4c1.9,0,3.8,0,5.5-.1,1.7-.2,2.5-1,2.6-2.8,0-2.4,0-5,0-7.7,0-6.2.1-12.6-.2-18-.1-.8-.6-2.3-5.3-2.2-.5,0-1,0-1.6,0-1.6,0-3.9,0-4.8.6-.9.8-.8,3.8-.8,5.6,0,.9,0,1.7,0,2.4,0,1.9,0,3.8,0,5.7Z"/><path class="b" d="M183.5,50.3c-.5,0-1.3.7-2.1,1.8-3.9,6.3-6.5,12.7-7.9,19.2,2.4-4.3,5.6-10,10.1-10.4,2.3-.2,4.5,1,6.6,3.6,1.1,1.4,2.1,3.1,3,4.7-1.2-4.3-3.5-9.7-6.7-15.5-1.7-3.1-2.8-3.4-3.1-3.4Z"/><path d="M332.7,248.2v-.2c-.4-1.2-1-2.4-1.5-3.5-.8-1.7-1.6-3.3-1.5-5h0s0,0,0,0c0-1,.2-2,.3-3.2.2-1.2.4-2.5.4-3.7,0-2.1-.8-4.3-2.2-6.5h0c-8.1-11.7-26-34.8-34.6-45.9-1.8-2.4-3.2-4.2-4-5.1-.7-.9-1.2-1.3-2.3-1.9-1-.6-2.5-1.4-4.8-2.5-9.8-4.7-16.7-9.6-20.4-14.4-11.9-14.6-5.4-49.4-5.4-49.4,0-.3,0-.5.1-.8.2-1.1.4-2.4,0-3.7-.4-2.6-5.3-7.5-20.3-21.5-4.8-4.5-9.4-8.7-12.5-11.8h0c-2.4-2.3-4.9-4.8-7.5-7.5-2.9-3-6-6-9-8.8-6.3-5.7-18-15.4-25-15.9-.5,0-1,0-1.4,0l-3.8,1.6s-18.6,26.7-17.3,39.8c.4,5.9,3.3,11.6,8.9,17.5.5.7,5.3,5.6,5.2,6.9,0,.1,0,.5-.7,1-.6.4-1.5.8-2.5,1.1-1.4.5-2.9,1-4.2,2.1-1.7,1.4-2.5,3.2-3.3,5-.7,1.5-1.3,3-2.4,3.9h0c-1.2,1.2-2.8,2-4.4,2.8-11.2,5.3-20.5,12.6-27.6,21.8h0c-3.1,4.4-6.1,7.6-10.6,9.2-13.7,3.8-25.3,13.3-31.9,26-6.4,12.6-7.3,27.3-2.5,40.3,3.1,8.9,9.4,15.8,15.4,22.4,1.1,1.2,2.3,2.4,3.4,3.7,1.3,1.6,2.3,3.8,3.1,6.5,2.2,7.6,4.8,16.8,7.5,26.2,3.4,11.8,6.9,24,9.7,34.1l.2.8c.6,2.1,1.2,4.4,2.3,6.4,1.3,2.6,3.4,4.7,5.2,6.6,3.6,3.6,7.2,7.2,10.9,10.9,9.4,9.4,19.1,19.1,28.6,28.6,1.5,1.5,3.2,3.1,5.1,4,2.8,1.5,5.8,1.5,8.4,1.4,10.6,0,95.1,0,99.9,0,3.7-.1,6.1-2.5,7.2-7.2l2.4-8.4c4.6-16.1,12.3-43.1,16.8-58.5.4-1.2,1-2.3,1.8-3.3.8-1.1,2-2.2,2.9-3.1,3.1-2.7,5.6-5.3,7.7-7.9,2.9-3.6,5.3-7.4,7.1-11.4,2.3-5.6,4.8-12.8,3-19.8ZM232.5,300.8c-.6,2.6-1.5,3.8-2.9,4.2h0c-1.2.4-2.8.4-4.4.4-.4,0-.8,0-1.1,0-2.3,0-4.8,0-7.1,0h-.8c-1.4,0-2.7,0-4.1,0-.4,0-.8,0-1.2,0-1.7,0-3,0-4.1-.7-.6-.3-.5-1.3-.3-3.1l2-13.6c1.9-13,4.3-29.9,5.9-40.8h0c.3-1.9.6-3.4,1.5-3.6h0c.9-.2,2.2.1,3.4.5h.3c6.1,1.9,12.2,2.7,17.9,2.5,1.6,0,3.2-.2,4.9-.4.8,0,1.5-.2,2.2-.3,1.7-.3,2.8-.4,3.6,0,0,.4-.2,1.5-.3,1.9v.2c-2.5,8.5-7.5,25.6-11.4,39l-4,13.7h0ZM119.7,246.2c.5-.5,3-.2,4-.1.5,0,1,.1,1.4.1,6.2.6,12.4.1,18.3-1.4,1-.2,2.1-.6,3.2-.9,2-.7,4.2-1.4,5.3-.7.5.5.6,1.7.8,2.7l1.7,11.6c2.2,15.1,5.2,36,6.5,44.9.1.8.3,1.9,0,2.2-.8.7-2.8.8-3.7.8-1.3,0-2.7,0-4.1,0h-1.5s-3.2,0-3.2,0c-1.4,0-2.9,0-4.2,0-.6,0-1.1,0-1.7,0-2.2,0-4,0-5.3-.7h0c-.9-.6-1.4-2.2-1.8-3.5-1.7-6-3.8-13.2-6-20.8-3.7-12.7-7.6-25.8-9.6-33.7,0-.2,0-.3,0-.4ZM165.6,245.3h0c1-.4,2.7,0,4.1.2.6.1,1.1.2,1.7.3,7.4,1.2,14.9,1.3,22.3.1.8,0,1.6-.2,2.5-.4,2.9-.6,4.8-.9,5.6.4.4.9.2,2.5,0,3.8-.8,5.2-1.8,12.3-2.8,19.8-1.7,11.8-3.4,24.1-4.6,31.4-.2,1.2-.4,2.3-.9,2.9-1.3,1.5-4.5,1.5-7.3,1.4-.9,0-1.8,0-2.7,0-1,0-1.9,0-2.9,0-2.5,0-5,.1-6.5-1-.6-.5-.9-1.4-1.1-2.7-.8-5.2-1.8-12.3-2.9-20.1-.8-5.5-1.7-11.4-2.5-17.3l-.8-5.7c-.5-3.5-1-6.9-1.4-9.8v-.3c-.2-1.5-.3-2.8.2-3ZM219.9,231.7c-6.7-3-11.7-1.2-17.4.9l-.9.3c-12.1,4.3-26.4,3.6-40.1-1.9h-.2c-2-.7-3.7-.9-5.3-.9s-.2,0-.3,0c-2,0-4,.5-6.5,1.5h-.2c-10.6,5.5-23.5,5.3-34.5-.5-10.9-5.8-18.3-16.3-19.7-28.1-2.6-18.1,8.8-36.6,25.6-41.3.9-.3,1.8-.5,2.8-.8,2.4-.6,4.8-1.2,7-2.5h0c3.2-1.9,5.1-4.9,7-7.7.4-.6.7-1.1,1.1-1.7,3.8-5.7,8.4-10.6,13.6-14.4.3-.2.7-.4,1.1-.7,6.9-4.7,9.1-4.9,9.7-4.3.8.9.9,4.2.9,6.2v.8c0,.6,0,1.3,0,2,0,2.5,0,5-.8,6.7-.4.9-1.4,1.6-2.5,2.3-1.2.8-2.5,1.7-3.5,3.1-1.3,1.8-1.5,4-.7,5.9.8,1.8,2.5,3,4.6,3.2,2,.3,4.1.2,6.2.2,1,0,2,0,3,0,5.7,0,11.7,0,17.2,0h1.8c4,0,8,0,12.1,0h.2c2.6,0,6.5,0,8.6-2.2,1-1,1.5-2.4,1.4-4-.1-3.3-2.5-5-4.5-6.4-.7-.5-1.4-1-1.9-1.5-1-1-1.4-2.5-1.5-5v-.2c0-2.5,0-5,0-7.5,0-2,.5-3,.9-3.2,1.2-.6,4.8,1.5,6.7,2.6,6.6,4.1,12.5,9.7,17,16.2.4.6.9,1.3,1.3,1.9,1.8,2.7,3.6,5.4,6.3,7.4,2.1,1.5,4.3,2.4,6.6,3.3,1.7.7,3.3,1.3,4.8,2.2,8.8,5.1,16.3,12.9,20.7,21.5,3.4,6.7,6.4,17,1.6,28.1h0c-3.6,9.6-11.3,17.2-20.7,20.4-8.5,3.2-19.3,2.5-28.8-1.9ZM177.4,123.3c0-1.8-.1-4.8.8-5.6.9-.6,3.2-.6,4.8-.6.6,0,1.1,0,1.6,0,4.7-.1,5.2,1.4,5.3,2.2.3,5.5.3,11.8.2,18,0,2.7,0,5.2,0,7.7,0,1.7-.8,2.6-2.6,2.8-1.7.2-3.7.2-5.5.1h-.4c-1.2,0-2.5-.2-3.3-.8-.8-.6-.8-2.3-.8-4,0-.4,0-.7,0-1.1,0-3.3,0-7,0-10.6,0-1.9,0-3.9,0-5.7,0-.7,0-1.6,0-2.4ZM190.2,64.5c-2-2.6-4.2-3.8-6.6-3.6-4.6.4-7.8,6.1-10.1,10.4,1.3-6.5,3.9-13,7.9-19.2.8-1.2,1.6-1.8,2.1-1.8.3,0,1.3.3,3.1,3.4,3.2,5.8,5.5,11.1,6.7,15.5-.9-1.6-1.9-3.2-3-4.7Z"/><path d="M170.9,188.6c-1.2-1.1-2.9-1.7-4.7-1.5-1.7.1-3.3.9-4.2,2.2-2,2.4-1.6,6.4.7,8.4,1.1.9,2.5,1.5,4,1.5s.6,0,.9,0c1.7-.2,3.2-1.2,4-2.5,1.6-2.4,1.2-5.9-.7-7.8h0Z"/><path d="M187.3,188.6c-1.2-1.1-2.9-1.7-4.7-1.5-1.7.1-3.3.9-4.2,2.2-2,2.4-1.6,6.4.7,8.4,1.1.9,2.5,1.5,4,1.5s.6,0,.9,0c1.7-.2,3.2-1.2,4-2.5,1.6-2.4,1.2-5.9-.7-7.8h0Z"/></svg>