<?xml version="1.0" encoding="UTF-8"?><svg id="a" xmlns="http://www.w3.org/2000/svg" viewBox="0 0 115 115"><path d="M103.2,60.3l-.5-.3-.2-.3-.5-.3-.2-.3-.5-.3-.2-.3-.5-.3-.2-.3-.5-.3-.2-.3-.5-.3-.2-.3-.5-.3-.2-.3-.5-.3-.2-.3-.5-.3-.2-.3-.5-.3-.2-.3-.5-.3-.2-.3-.5-.3-.2-.3-32.8-19.1-.3-.7-.4-.2-.2-.5-.4-.2-.2-.5-.4-.2-.2-.5-.4-.2-.2-.5-.4-.2-.2-.5-.4-.2-.2-.5-.4-.2-.2-.5-.4-.2-.2-.5-.4-.2-.2-.5-.4-.2-.2-.5-.4-.2-.2-.5-.4-.2-.2-.5-8.8-3.3-4.3,1.9-13.7,36.1,1.9,4.3.4.2.2.5.4.2.2.5.4.2.2.5.4.2.2.5.4.2.2.5.4.2.2.5.4.2.2.5.4.2.2.5.4.2.2.5.4.2.2.5.4.2.2.5.4.2.2.5,8.8,3.3,4.3-1.9v-.4c.1,0,3.6.7,3.6.7l-1.4,3.7,3,6.6.4.2.2.5.4.2.2.5.4.2.2.5.4.2.2.5.4.2.2.5.4.2.2.5.4.2.2.5.4.2.2.5.4.2.2.5.4.2.2.5.4.2.2.5.4.2.2.5,5.4,2.1,6.6-3,4.5-11.7,15,3,4.1-1.8,5.9-15.7-1.8-4.1ZM88.1,71.5l-3.3,1.3-12.4-2.7-3.1,9.1-5.3,2.2-4.5-1.7-2.7-5.3,2.5-7.1-10.8-2.4v.3c-.1,0-3.5,1.4-3.5,1.4l-7.4-2.8-1.8-3.4,9.6-27.9,3.4-1.4,7.4,2.8,1.8,3.4v.3c-.1,0,32.7,18.7,32.7,18.7l1.7,3.2-4.2,12.1Z"/><polygon points="61.3 74.3 62.4 76.5 63.6 77 65.8 76.1 68.2 69.2 63.4 68.2 61.3 74.3"/><polygon points="49.2 35.4 48.9 35.5 40.3 60.3 40.5 60.6 44.5 62.2 44.8 62 53.4 37.3 53.2 36.9 49.2 35.4"/><rect x="16.8" y="27.4" width="5.2" height="18.2" transform="translate(-21.6 41.7) rotate(-69.2)"/><rect x="28.2" y="22" width="5.2" height="10.3" transform="translate(-8.4 15) rotate(-24.2)"/><rect x="16.5" y="48.5" width="10.3" height="5.2" transform="translate(-19 13.4) rotate(-24.2)"/></svg>