<?xml version="1.0" encoding="UTF-8"?><svg id="a" xmlns="http://www.w3.org/2000/svg" viewBox="0 0 400 400"><defs><style>.b{fill:#323232;}</style></defs><path class="b" d="M359.6,82.9l-2.7-2.7-2.7-2.7-2.7-2.7-2.7-2.7-2.7-2.7-.9-.9-1.8-1.8-.9-.9-1.8-1.8-.9-.9-1.8-1.8-.9-.9-1.8-1.8-.9-.9-1.8-1.8-.9-.9-1.8-1.8-.9-.9-1.8-1.8-.9-.9-1.8-1.8-.9-.9-1.8-1.8-16.8-16.8h-29.8l-16.8,16.8v29.8l1,1-14,14v-4.9l-2.7-2.7-2.7-2.7-2.7-2.7-2.7-2.7-2.7-2.7-2.7-2.7-.9-.9-1.8-1.8-.9-.9-1.8-1.8-.9-.9-1.8-1.8-.9-.9-1.8-1.8-.9-.9-1.8-1.8-.9-.9-1.8-1.8-.9-.9-1.8-1.8-.9-.9-1.8-1.8-.9-.9-1.8-1.8-.9-.9-2.7-2.7-2.7-2.7-2.7-2.7-2.7-2.7-2.7-2.7-2.7-2.7h-29.8l-16.8,16.8v29.8l2.7,2.7,2.7,2.7,2.7,2.7,2.7,2.7,2.7,2.7,2.7,2.7.9.9,1.8,1.8.9.9,1.7,1.7v37.9h-16.8l-18.3-18.3,1-1v-29.8l-2.7-2.7-2.7-2.7-2.7-2.7-2.7-2.7-2.7-2.7-2.7-2.7-.9-.9-1.8-1.8-.9-.9-1.8-1.8-.9-.9-1.8-1.8-.9-.9-1.8-1.8-.9-.9-1.8-1.8-.9-.9-1.8-1.8-.9-.9-1.8-1.8-.9-.9-1.8-1.8-.9-.9-1.8-1.8-.9-.9-2.7-2.7-2.7-2.7-2.7-2.7-2.7-2.7-2.7-2.7-2.7-2.7h-29.8l-16.8,16.8v29.8l16.8,16.8h0l1.8,1.8.9.9,1.8,1.8.9.9,1.8,1.8.9.9,1.8,1.8.9.9,1.8,1.8.9.9,1.8,1.8.9.9,1.8,1.8.9.9,1.8,1.8.9.9,1.8,1.8.9.9,2.7,2.7,2.7,2.7,2.7,2.7,2.7,2.7,2.7,2.7,2.7,2.7h29.8l1-1,.2.2,3.2,3.2h-10.6l-37.9,37.9v72l2.7,2.7,2.7,2.7,2.7,2.7,2.7,2.7,2.7,2.7,2.7,2.7,2.7,2.7,2.7,2.7,2.7,2.7,2.7,2.7.8.8,1.8,1.8,2.5,2.5v21.1l27.4,27.4h0l1.8,1.8.8.8,1.8,1.8.8.8,1.8,1.8.8.8,1.8,1.8.8.8,1.8,1.8.8.8,2.7,2.7,2.7,2.7,2.7,2.7,2.7,2.7,2.7,2.7,2.7,2.7,2.7,2.7,2.7,2.7,2.7,2.7,2.7,2.7h93.2l27.4-27.4v-25.5h4.3l27.4-27.4v-72l-2.7-2.7-2.7-2.7-2.7-2.7-2.7-2.7-2.7-2.7-2.7-2.7-2.7-2.7-2.7-2.7-2.7-2.7-2.7-2.7-2.7-2.7-2.7-2.7-2.7-2.7-2.7-2.7-2.7-2.7-3.4-3.4,37.9-37.9,1,1h29.8l16.8-16.8v-29.8l-2.7-2.7ZM280.2,54.5l4.3-4.3h12.5l4.3,4.3v12.5l-4.3,4.3h-12.5l-4.3-4.3v-12.5ZM164,54.5l4.3-4.3h12.5l4.3,4.3v12.5l-4.3,4.3h-12.5l-4.3-4.3v-12.5ZM47.8,54.5l4.3-4.3h12.5l4.3,4.3v12.5l-4.3,4.3h-12.5l-4.3-4.3v-12.5ZM121.7,288.8v-75.8l14.9-14.9h75.8l14.9,14.9v75.8l-14.9,14.9h-75.8l-14.9-14.9Z"/><rect class="b" x="142.9" y="219.1" width="21.1" height="21.1"/><rect class="b" x="185.1" y="219.1" width="21.1" height="21.1"/><polygon class="b" points="189.5 293.1 206.2 276.3 206.2 261.4 185.1 261.4 185.1 267.6 180.7 272 168.4 272 164 267.6 164 261.4 142.9 261.4 142.9 276.3 159.6 293.1 189.5 293.1"/></svg>