<?xml version="1.0" encoding="UTF-8"?><svg id="a" xmlns="http://www.w3.org/2000/svg" viewBox="0 0 115 115"><defs><style>.b{fill:#050505;}</style></defs><path class="b" d="M97.6,42.4c-3.7-4.8-7.5-9.9-11.6-15.4-2.9-3.9-6.7-5.8-11.5-5.6-2.4,0-4.8,0-7.1,0-1,0-1.9,0-2.9,0h-.4l-.3-.3c-1.1-1.2-1.1-2.1-1.2-2.8-.3-4.8-.6-5.1-5.2-5.1-4.5,0-8.5,0-12.4,0-4.4,0-4.9.5-5.3,5.2,0,.3,0,.6-.1,1.1l-.3,1.9h-.9c-1.1,0-2.2,0-3.3,0-2.3,0-4.6,0-6.8,0-4-.1-7.4,1-9.7,3.3-2.4,2.4-3.7,6-3.7,10.1.2,12.3.1,24.6,0,37.1,0,4.2,1.2,7.7,3.8,10.7,4.8,5.6,9,10.7,13,15.6,2.1,2.6,4.7,3.8,8.2,3.8h0c2.6,0,5.3,0,7.9,0,5.3,0,10.6,0,15.9,0,9.1,0,18.1,0,27.2,0,6,0,8.7-2.7,8.7-8.8,0-7.2,0-14.4,0-21.6,0-7.3,0-14.7,0-22,0-2.8-.7-5-2.4-7.2ZM81.2,73.9c0,3-1.7,4.8-4.8,5.2-.5,0-1.1,0-1.6,0s-.7,0-1,0c-.3,0-.6,0-1,0-14.3,0-28.7,0-43,0-.3,0-.6,0-.9,0-.9,0-1.8,0-2.7,0-2.7-.4-4.4-2.1-4.4-4.4,0-5.1,0-10,0-15.3,0-2,0-4.1,0-6.1v-1.3l1.3.3c7.4,2,14.9,3.2,23.8,3.8h.6s.3.5.3.5c.2.3.3.6.4.9.9,1.9,1.5,3,3.3,3h0c1.9,0,2.5-1.1,3.4-3.1.1-.3.2-.5.4-.8l.3-.5h.6c8.4-.5,16.3-1.7,24-3.8l1.3-.3v1.3c0,2,0,4,0,6,0,5,0,9.7,0,14.5ZM81.2,41.1c0,1.1,0,2.3,0,3.5v.7l-.7.2c-9.1,2.8-16.8,4.1-24.3,4.2h-.5s-.3-.4-.3-.4c-1.7-2.1-3.2-3.2-4.4-3.1-1.1,0-2.2,1.1-3.4,3l-.3.5h-.6c-8.9,0-17.4-2.1-24.5-4.1l-.7-.2v-3.7c0-2.1,0-4.1,0-6.1,0-6.9,1-7.9,7.7-7.9,9.7,0,19.4,0,29.2,0h10.8c.6,0,1.2,0,1.8,0,1.4,0,2.8,0,4.2,0,4.3.2,5.8,1.8,5.9,6.1,0,2.4,0,4.8,0,7.3Z"/></svg>