<?xml version="1.0" encoding="UTF-8"?><svg id="a" xmlns="http://www.w3.org/2000/svg" viewBox="0 0 400 400"><defs><style>.b{fill:#050505;}</style></defs><path class="b" d="M354,138.7c-14-18.3-28.3-37.4-43.8-58.4-10.6-14.3-24.2-21-41.7-20.5-8.7.3-17.3.2-25.6.2h-1.3c-3.7,0-7.3,0-10.8,0h-2.6l-1.7-1.9c-4.5-5-4.8-9-5-11.9-1.2-17-1.6-17.4-17.6-17.5-16.8-.2-32.1-.2-46.7,0-15.5.2-16.5,1.2-17.9,17.8,0,1.2-.3,2.4-.5,4.4l-1.2,9h-5.1c-4.3,0-8.4,0-12.5,0-8.4,0-17.2.1-25.8-.1-14.7-.4-26.9,3.7-35.3,11.9-8.8,8.6-13.5,21.6-13.3,36.6.6,46.5.4,92.9,0,140.4-.1,15.2,4.4,28,13.9,39.1,18.1,21.1,34.2,40.4,49.2,59,7.5,9.2,16.9,13.5,29.6,13.5h.1c9.9,0,19.9,0,29.9,0,20,0,40.1,0,60.1,0h2c33,0,67.1,0,100.7,0,21.7,0,31-9.4,31.1-31.2.1-27.5.1-55,0-81.5,0-27.2,0-55.4.1-83.1,0-10-2.7-18.2-8.5-25.9ZM295.5,256.6c-.2,12.4-7.1,19.9-19.8,21.7-1.9.3-3.9.4-6.3.4s-2.6,0-3.9,0h-.3c-1.1,0-2.2,0-3.3,0-54.2,0-108.4,0-162.6,0-1.1,0-2.3,0-3.4,0-3,0-6.8.2-10.5-.4-11.4-1.7-18.4-8.7-18.5-18.6-.3-19.1-.2-37.9-.2-57.8v-.2c0-7.6,0-15.3,0-23.1v-7.6l7.3,2c27.8,7.6,56.2,12.2,89.5,14.4l3.3.2,1.5,2.9c.6,1.1,1.1,2.3,1.7,3.4,3.6,7.5,5.5,10.3,10.8,10.4h.2c5.6,0,7.4-2.8,11.1-10.7.5-1,.9-2,1.4-3l1.5-3,3.4-.2c31.8-1.7,61.3-6.3,90.1-14l7.3-2v7.5c0,7.5,0,14.9,0,22.2v.6c0,19,.1,36.8-.2,54.9ZM295.8,132.4v.4c0,4.2,0,8.5,0,12.9v4.3l-4.1,1.2c-34.6,10.6-63.9,15.6-92.4,16h-2.8s-1.8-2.2-1.8-2.2c-7.5-9.4-12.2-11.1-14.9-10.9-3.4.2-7.2,3.7-11.1,10.2l-1.7,2.8h-3.3c-33.7-.1-66-8-93.1-15.7l-4.2-1.2v-16.1c0-7.7,0-15.1,0-22.5.1-27.2,4.5-31.7,31.1-31.7,32.3,0,65.2,0,96.9,0h54.3c2.3,0,4.5,0,6.8,0,5.4,0,10.6,0,15.9.1,17.3.7,23.9,7.6,24.4,25.1.2,9,.2,17.9.1,27.3Z"/></svg>