<?xml version="1.0" encoding="UTF-8"?><svg id="a" xmlns="http://www.w3.org/2000/svg" viewBox="0 0 400 400"><path d="M330.8,258.6l-117-67.6c-2.4-1.4-4.8-3.7-6.6-6.6l-24.9-38.5c-4.4-6.7-12.6-9.5-18.5-6.1l-110.2,63.7c-.4.2-.8.6-1.2.9,0,0,0,0-.1,0s0,0-.1.1c-.1.1-.3.2-.4.4-.3.3-.7.7-1,1.1,0,0-.1.2-.2.3l-6.2,6.7c-4.8,3.9-5.3,11.4-1.3,17.6l25.1,38.7c4.4,6.8,10.1,12.4,15.9,15.8l117.8,68.1c1.3.8,2.9,1.4,4.5,1.8,1.9.5,4,.8,6.2.8s4.2-.3,6-.7c1.7-.4,3.2-1,4.6-1.8l107.9-62.7c3.3-1.9,5.3-4.7,5.3-7.7v-16.7h0c0-3-1.9-5.7-5.3-7.7h0ZM165.7,143c4.2-2.4,10.3-.2,13.6,4.9l24.9,38.5c2.2,3.4,5,6.1,7.9,7.8l117,67.6c2.2,1.3,3.5,2.9,3.5,4.6s0,.3,0,.4c0,.9-.6,1.8-1.4,2.6s-1.2,1.1-2,1.5l-107.9,62.7c-1,.6-2.2,1.1-3.7,1.4-1.5.4-3.3.6-5.2.6s-3.6-.2-5.3-.6c-1.3-.3-2.5-.8-3.6-1.4l-117.8-68.1c-2.4-1.4-4.8-3.8-6.6-6.6l-25.1-38.8h0c-.4-.7-.7-1.3-1-2,0-.1-.1-.3-.2-.5-.2-.5-.4-1.1-.5-1.7,0,0,0-.2,0-.3,0-.6-.1-1.2-.2-1.9v-.6c0-.5,0-1.1.2-1.6s.2-1,.4-1.5c0,0,0,0,0,0,.1-.3.3-.6.5-.9,0,0,0-.2.2-.3l1.3-1.4c.3-.2.6-.4.9-.6l110.2-63.5Z"/><path d="M61.1,214.8c0,.2,0,.3.2.5,0,0,0,0,0,.1h0c0,0,2,3.2,2,3.2h0l22,34.1c.3.5.9.8,1.5.8s.6,0,.9-.2l107-61.8c.2-.1.4-.3.5-.5,0,0,0,0,0-.1,0-.1.2-.3.2-.5v-.2c0-.1,0-.3,0-.4,0,0,0-.2,0-.3,0,0,0-.2,0-.3h0c0,0-24.1-37.4-24.1-37.4,0,0,0,0,0,0,0,0,0-.1-.1-.2s0,0-.1,0-.1,0-.2-.1c0,0-.2,0-.3-.1s-.1,0-.2,0c-.1,0-.2,0-.4,0h-.2c-.2,0-.4,0-.6.2l-107,61.7h0s0,0,0,0c0,0-.1.1-.2.2s-.1.1-.2.2c0,.1-.1.3-.2.4,0,0,0,.1,0,.2,0,.2,0,.3,0,.5,0,0,0,.1,0,.2ZM87.6,249.4l-20.1-31.1,98.2-56.7,20.1,31.1-98.2,56.7Z"/><path d="M141.6,268.2v-8c0-1-.6-1.9-1.6-2.5l-14.4-8.3c-1.5-.9-3.8-.9-5.3,0l-14.5,8.3c-1,.6-1.6,1.5-1.6,2.5h0v8.1c0,1,.6,2,1.6,2.6l14.4,8.3c.7.4,1.7.7,2.7.7s1.9-.2,2.6-.6l14.5-8.4c1.4-.9,1.6-2,1.6-2.6ZM122.1,252.4c.4-.2,1.3-.2,1.7,0l13.4,7.8-13.5,7.8c-.4.2-1.3.2-1.7,0l-13.4-7.8,13.5-7.8Z"/><path d="M171.2,285.3v-8h0c0-1.1-.6-2-1.6-2.6l-14.4-8.3c-1.5-.9-3.8-.9-5.3,0l-14.5,8.3c-1,.6-1.6,1.5-1.6,2.5h0v8.1c0,1,.6,1.9,1.6,2.6l14.4,8.4c.7.4,1.7.6,2.6.6s1.9-.2,2.6-.6l14.4-8.3c1.1-.6,1.7-1.6,1.7-2.6ZM151.7,269.5c.4-.2,1.3-.2,1.7,0l13.4,7.8-13.5,7.8c-.4.2-1.2.2-1.7,0l-13.4-7.8,13.6-7.8Z"/><path d="M200.8,302.5v-8h0c0-1.1-.6-2-1.6-2.6l-14.4-8.3c-1.5-.9-3.8-.9-5.3,0l-14.5,8.3c-1,.6-1.6,1.5-1.6,2.6v8c0,1,.6,1.9,1.6,2.6l14.4,8.4c.7.4,1.7.6,2.6.6s1.9-.2,2.6-.6l14.4-8.3c1.1-.6,1.7-1.5,1.7-2.6ZM181.3,286.7c.4-.2,1.3-.2,1.7,0l13.4,7.8-13.5,7.8c-.4.2-1.2.2-1.6,0l-13.4-7.8,13.5-7.8Z"/><path d="M230.3,311.6c0-1-.6-1.9-1.6-2.5l-14.4-8.3c-1.5-.9-3.8-.9-5.3,0l-14.5,8.3c-1,.6-1.6,1.5-1.6,2.6v8c0,1,.6,1.9,1.6,2.6l14.4,8.4c.7.4,1.7.6,2.6.6s1.9-.2,2.6-.6l14.4-8.3c1.1-.6,1.7-1.5,1.7-2.6v-8s0,0,0,0ZM210.8,303.9c.4-.2,1.3-.2,1.7,0l13.4,7.8-13.5,7.8c-.4.2-1.2.2-1.6,0l-13.4-7.8,13.5-7.8Z"/><path d="M149.9,232l-14.5,8.3c-1,.6-1.6,1.5-1.6,2.5h0v8.1c0,1,.6,2,1.6,2.6l14.4,8.3c.7.4,1.7.7,2.7.7s1.9-.2,2.6-.6l14.5-8.4c1.4-.8,1.6-2,1.6-2.6v-8c0-1-.6-1.9-1.6-2.5l-14.4-8.3c-1.5-.9-3.8-.9-5.3,0ZM151.7,235.2c.4-.2,1.3-.2,1.7,0l13.4,7.8-13.5,7.8c-.4.2-1.3.2-1.7,0l-13.4-7.8,13.5-7.8Z"/><path d="M163.4,260.1v8c0,1,.6,1.9,1.6,2.6l14.4,8.4c.7.4,1.7.6,2.6.6s1.9-.2,2.6-.6l14.4-8.3c1.1-.6,1.7-1.5,1.7-2.6v-8h0c0-1.1-.6-2-1.6-2.6l-14.4-8.3c-1.5-.9-3.8-.9-5.3,0l-14.5,8.3c-1,.6-1.6,1.5-1.6,2.6ZM181.3,252.4c.4-.2,1.3-.2,1.7,0l13.4,7.8-13.5,7.8c-.4.2-1.2.2-1.6,0l-13.4-7.8,13.5-7.8Z"/><path d="M194.6,287.9l14.4,8.4c.7.4,1.7.6,2.6.6s1.9-.2,2.6-.6l14.4-8.3c1.1-.6,1.7-1.5,1.7-2.6v-8h0c0-1.1-.6-2-1.6-2.6l-14.4-8.3c-1.5-.9-3.8-.9-5.3,0l-14.5,8.3c-1,.6-1.6,1.5-1.6,2.6v8c0,1,.6,2,1.6,2.6ZM210.8,269.5c.4-.2,1.3-.2,1.7,0l13.4,7.8-13.5,7.8c-.4.2-1.2.2-1.6,0l-13.4-7.8,13.5-7.8Z"/><path d="M259.9,294.5c0-1-.6-1.9-1.6-2.5l-14.4-8.3c-1.5-.9-3.8-.9-5.3,0l-14.5,8.3c-1,.6-1.6,1.5-1.6,2.5h0v8.1c0,1,.6,1.9,1.6,2.6l14.4,8.4c.7.4,1.7.6,2.6.6s1.9-.2,2.6-.6l14.4-8.3c1.1-.6,1.7-1.5,1.7-2.6v-8.1ZM240.4,286.7c.4-.2,1.3-.2,1.7,0l13.4,7.8-13.5,7.8c-.4.2-1.2.2-1.7,0l-13.4-7.8,13.6-7.8Z"/><path d="M163.4,225.8v8c0,1,.6,2,1.6,2.6l14.4,8.3c.7.4,1.7.7,2.7.7s1.9-.2,2.6-.6l14.5-8.4c1.4-.8,1.6-2,1.6-2.6v-8c0-1-.6-1.9-1.6-2.5l-14.4-8.3c-1.5-.9-3.8-.9-5.3,0l-14.5,8.2c-1,.6-1.6,1.5-1.6,2.6t0,0s0,0,0,0ZM181.3,218c.4-.2,1.3-.2,1.7,0l13.4,7.8-13.5,7.8c-.4.2-1.3.2-1.7,0l-13.4-7.8,13.5-7.8Z"/><path d="M230.3,242.9c0-1-.6-1.9-1.6-2.5l-14.4-8.3c-1.5-.9-3.8-.9-5.3,0l-14.5,8.3c-1,.6-1.6,1.5-1.6,2.6v8c0,1,.6,1.9,1.6,2.6l14.4,8.4c.7.4,1.7.6,2.6.6s1.9-.2,2.6-.6l14.4-8.3c1.1-.6,1.7-1.5,1.7-2.6v-8.1s0,0,0,0ZM210.8,235.2c.4-.2,1.3-.2,1.7,0l13.4,7.8-13.5,7.8c-.4.2-1.2.2-1.6,0l-13.4-7.8,13.5-7.8Z"/><path d="M241.1,279.8c.9,0,1.9-.2,2.6-.6l14.4-8.3c1.1-.6,1.7-1.5,1.7-2.6v-8h0c0-1.1-.6-2-1.6-2.6l-14.4-8.3c-1.5-.9-3.8-.9-5.3,0l-14.5,8.3c-1,.6-1.6,1.5-1.6,2.5h0v8.1c0,1,.6,1.9,1.6,2.6l14.4,8.4c.8.4,1.8.6,2.7.6ZM240.4,252.4c.4-.2,1.3-.2,1.7,0l13.4,7.8-13.5,7.8c-.4.2-1.2.2-1.7,0l-13.4-7.8,13.6-7.8Z"/><path d="M289.4,277.3c0-1-.6-1.9-1.6-2.5l-14.4-8.3c-1.5-.9-3.8-.9-5.3,0l-14.5,8.3c-1,.6-1.6,1.5-1.6,2.6v8c0,1,.6,1.9,1.6,2.6l14.4,8.4c.7.4,1.7.6,2.6.6s1.9-.2,2.6-.6l14.4-8.3c1.1-.6,1.7-1.5,1.7-2.6v-8.1c0,0,0,0,0,0ZM270,269.5c.4-.2,1.3-.2,1.7,0l13.4,7.8-13.5,7.8c-.4.2-1.2.2-1.6,0l-13.4-7.8,13.5-7.8Z"/><path d="M192.9,208.6s0,0,0,0t0,0v8.1c0,1,.6,2,1.6,2.6l14.4,8.3c.7.4,1.7.7,2.7.7s1.9-.2,2.6-.6l14.5-8.4c1.4-.8,1.6-2,1.6-2.6v-8c0-1-.6-1.9-1.6-2.5l-14.4-8.3c-1.5-.9-3.8-.9-5.3,0l-14.5,8.3c-1,.5-1.6,1.4-1.6,2.5ZM210.8,200.8c.4-.2,1.3-.2,1.7,0l13.4,7.8-13.5,7.8c-.4.2-1.3.2-1.7,0l-13.4-7.8,13.5-7.8Z"/><path d="M222.5,225.8v8c0,1,.6,1.9,1.6,2.6l14.4,8.4c.7.4,1.7.6,2.6.6s1.9-.2,2.6-.6l14.4-8.3c1.1-.6,1.7-1.5,1.7-2.6v-8h0c0-1.1-.6-2-1.6-2.6l-14.4-8.3c-1.5-.9-3.8-.9-5.3,0l-14.5,8.3c-1,.6-1.6,1.5-1.6,2.6ZM240.4,218c.4-.2,1.3-.2,1.7,0l13.4,7.8-13.5,7.8c-.4.2-1.2.2-1.6,0l-13.4-7.8,13.5-7.8Z"/><path d="M252,242.9s0,0,0,0v8.1c0,1,.6,1.9,1.6,2.6l44,25.6c.7.4,1.7.6,2.6.6s1.9-.2,2.6-.6l14.4-8.3c1.1-.6,1.7-1.5,1.7-2.6v-8h0c0-1.1-.6-2-1.6-2.6l-43.9-25.5c-1.5-.9-3.8-.9-5.3,0l-14.5,8.3c-1.1.5-1.7,1.5-1.7,2.5ZM269.9,235.2c.4-.2,1.3-.2,1.7,0l43,25-13.5,7.8c-.4.2-1.2.2-1.6,0l-43-25,13.5-7.8Z"/><path d="M352.2,168.7s0,0,0,0c0-.3,0-.6-.2-.8,0,0,0-.1-.1-.2,0-.2-.2-.3-.4-.4,0,0,0,0,0,0l-24.8-14.3c-.5-.3-1.2-.3-1.8,0l-14,8.1.2-57.5s0,0,0-.1c0-.2,0-.4-.1-.6,0,0,0-.1,0-.2-.1-.2-.3-.4-.6-.6l-24.8-14.3c-.5-.3-1.2-.3-1.8,0l-13.9,8.1v-35.7c0,0,0,0,0-.1,0-.2,0-.4-.1-.6,0,0,0-.1,0-.2-.1-.2-.3-.4-.6-.6l-24.8-14.3c-.5-.3-1.2-.3-1.8,0l-24.6,14.3c-.2.1-.4.3-.6.6,0,0,0,.1,0,.2,0,.2-.1.4-.1.6s0,0,0,.1l-.3,108.9c0,.6.3,1.2.9,1.6l24.8,14.3c.2.1.5.2.8.2s0,0,0,0,0,0,0,0c0,0,.1,0,.2,0,.2,0,.5,0,.7-.2l13.8-8v16c0,.6.3,1.2.8,1.6l24.8,14.3c.2.1.6.2.9.2s.2,0,.3,0c.2,0,.4,0,.6-.1l13.9-8.1v16c0,.6.2,1.2.8,1.6l24.8,14.3c.2.1.6.2.9.2s.2,0,.3,0c.2,0,.4,0,.6-.1l24.6-14.3c.5-.3.9-.9.9-1.5l.4-47.9ZM325.6,156.5l21.2,12.2-21,12.2-21.2-12.2,21-12.2ZM284.4,91.3l21.2,12.2-21,12.2-21.2-12.2,21-12.2ZM243.1,47.8l21.2,12.2-21.1,12.2-21.2-12.2,21.1-12.2ZM257.1,172.9l-12.3,7.2.3-104.7,21-12.2v34.7c0,0-7.2,4.2-7.2,4.2-.2.1-.4.3-.6.6,0,0,0,.1,0,.2,0,.2-.1.4-.1.6s0,0,0,.1l-.2,69.2c-.2,0-.4,0-.6.1ZM298.6,196.6l-12.6,7.3.3-85.1,21-12.2v56.4c-.1,0-7.2,4.1-7.2,4.1-.2.1-.4.3-.6.6,0,0,0,.1,0,.2,0,.2-.1.4-.1.6s0,0,0,.1l-.2,27.7c-.1,0-.3,0-.4.1ZM327.3,227.7l.3-43.6,21-12.2-.3,43.6-21,12.2Z"/></svg>