<?xml version="1.0" encoding="UTF-8"?><svg id="a" xmlns="http://www.w3.org/2000/svg" viewBox="0 0 115 115"><defs><style>.b{stroke:#000;stroke-miterlimit:10;stroke-width:2px;}.c{fill:#0a0a0a;}</style></defs><path class="c" d="M96.7,89.5c0-9.5,0-19.2,0-28.6,0-6.2,0-12.3,0-18.5,0-3.9-1.5-6.7-4.6-8.9-5.2-3.6-10.5-7.4-15.6-11-1.6-1.2-3.2-2.3-4.8-3.5-2.9-2.1-6.2-3.1-10-3-4.8,0-9.6,0-14.4,0-2.1,0-4.2,0-6.3,0s-5.6,0-8.4,0c-9.6,0-14.2,4.6-14.3,14.3,0,5.8,0,11.7,0,17.3,0,2.6,0,5.1,0,7.7v5.9c0,5.5,0,11.1,0,16.6,0,11.7,8.8,20.7,20.4,20.8,16.6.2,33.1,0,48.5,0,6.4,0,9.4-3,9.5-9.3ZM68.4,30.6v.8s0,7,0,7c0,13.7,0,27.4,0,41.1,0,6.7-1,7.7-7.7,7.7h-3.1c-4.1,0-8.2,0-12.3,0s-8.8,0-13.1,0c-5.1,0-6.3-1.3-6.3-6.4,0-7.5,0-14.9,0-22.4,0-9.4,0-18.8,0-28.2,0-2.5.4-4.1,1.5-5.1.9-.9,2.2-1.3,3.9-1.3h0c4.9,0,9.8,0,14.7,0,5.8,0,11.6,0,17.4,0,1.2,0,2.5.1,4.1,1.6h0c1.1,1.6,1.1,3.5,1.1,5.3Z"/><path class="c" d="M47.2,58c-.2,0-.4,0-.6,0-2,.2-3.1,1.5-3.1,3.6,0,1.2.4,2.8,2.3,3.3,2.6.7,4.2-.3,5-3.2-.6-2.5-1.7-3.7-3.6-3.7Z"/><path class="c" d="M31,73.4c-.4,2.5.8,4,3.6,4.5,2.8-.6,3.9-2.1,3.3-4.7-.3-1.7-1.5-2.5-3.5-2.5-1.9,0-3.2,1-3.5,2.8Z"/><path class="c" d="M59.6,70.7c-2.1,0-3.4,1.1-3.6,3.1-.3,2.3.9,3.6,3.7,4.2,2.9-.9,3.9-2.5,3.2-5.1-.5-1.9-2.1-2.2-3.3-2.2Z"/><path class="c" d="M34.5,65.2c2.2,0,3.4-1.1,3.6-3.5-.1-1.6-.8-3.5-3.5-3.6-2.2,0-3.6,1.3-3.6,3.5,0,2.3,1.2,3.5,3.5,3.6Z"/><path class="c" d="M59.4,65.2c2.2.1,3.5-1,3.7-3.3,0-1.7-.7-3.7-3.4-3.8-2.1-.1-3.6,1.1-3.7,3.4-.1,2.2,1.1,3.6,3.4,3.7Z"/><path class="c" d="M47.1,70.7c-2,0-3.6,1.1-3.6,3.3,0,2.4,1.2,3.7,3.8,4,2.1-.5,3.1-1.7,3.5-3.9-.6-2.3-1.8-3.4-3.6-3.4Z"/><path class="b" d="M58.3,30.3h-23.1c-2.1,0-3.7,1.7-3.7,3.7v11.3c0,2.1,1.7,3.7,3.7,3.7h23.1c2.1,0,3.7-1.7,3.7-3.7v-11.3c0-2.1-1.7-3.7-3.7-3.7ZM58.9,43.6c0,1.6-1.3,2.8-2.8,2.8h-18.8c-1.6,0-2.8-1.3-2.8-2.8v-7.8c0-1.6,1.3-2.8,2.8-2.8h18.8c1.6,0,2.8,1.3,2.8,2.8v7.8Z"/></svg>