<?xml version="1.0" encoding="UTF-8"?><svg id="a" xmlns="http://www.w3.org/2000/svg" viewBox="0 0 115 115"><defs><style>.b{fill:#060606;}</style></defs><path class="b" d="M87.4,31.1c-3.6-3.1-6.5-5.2-10.5-4.8-4.4.5-7.9-1.1-10.6-4.7-2.3-3.1-5.1-4.3-8.9-3.8-2.3.3-4.8.3-7.3,0-4.6-.5-7.8.8-10.2,4.2-2.7,3.9-6.5,4.4-10.2,4.4-7.8,0-11.9,4.1-12,11.9-.1,7,0,14,0,20.9v5.7c0,3.4,1.2,6.3,3.5,8.9,6.3,7.1,12,13.7,17.5,20.1,2.1,2.4,4.4,3.5,7.4,3.5h0c2.1,0,4.2,0,6.2,0,3.3,0,6.5,0,9.8,0,8.8,0,17.9,0,26.9,0,5.7,0,8.1-2.5,8.2-8.3,0-4.9,0-9.9,0-14.7,0-2.2,0-4.3,0-6.5,0-1.2,0-2.3,0-3.5,0-2.6-.2-5.3.2-8,1.4-10.3-1.7-18.3-9.8-25.2ZM83.5,63.2c0,6.6-1.7,8.3-8.4,8.3-5.2,0-10.3,0-15.5,0h-6.7s-6.3,0-6.3,0c-2.2,0-4.5,0-6.8,0s-5.8,0-8.6,0c-6.6,0-8.1-1.5-8.2-8,0-2.9,0-5.8,0-8.7,0-5.1,0-10.3,0-15.5,0-3.1.6-5.3,2.1-6.6,1.4-1.2,3.4-1.7,5.9-1.3,4.7.7,8.4-.9,11.9-5,1.9-2.3,5.7-3.6,10-3.6,4.6,0,8.7,1.4,10.8,3.8,3.3,3.8,6.8,5.2,11.7,4.8,2.8-.2,5,0,6.4,1.2,1.5,1.3,1.7,3.5,1.8,6.7,0,7.1,0,14.9,0,23.7Z"/><path class="b" d="M53.1,60.1h0c6,0,10.6-4.5,10.7-10.6,0-6-4.5-10.9-10.4-11,0,0-.2,0-.3,0-2.7,0-5.4,1.1-7.5,3.2-2.2,2.1-3.4,4.9-3.4,7.8,0,5.9,4.9,10.7,10.8,10.7Z"/></svg>