<?xml version="1.0" encoding="UTF-8"?><svg id="a" xmlns="http://www.w3.org/2000/svg" viewBox="0 0 115 112"><path d="M101,81.8c0,0-.2-.2-.3-.2,0,0-.2-.2-.2-.3,0,0-.2-.2-.3-.2,0,0-.2-.2-.2-.3,0,0-.2-.2-.3-.2,0,0-.2-.2-.2-.3,0,0-.2-.2-.3-.2,0,0-.2-.2-.2-.3,0,0-.2-.2-.3-.2,0,0-.2-.2-.2-.3,0,0-.2-.2-.3-.2,0,0-.2-.2-.2-.3,0,0-.2-.2-.3-.2,0,0-.2-.2-.2-.3,0,0-.2-.2-.3-.2,0,0-.2-.2-.2-.3,0,0-.2-.2-.3-.2,0,0-.2-.2-.2-.3,0,0-.2-.2-.3-.2,0,0-.2-.2-.2-.3,0,0-.2-.2-.3-.2,0,0-.2-.2-.2-.3,0,0-.2-.2-.3-.2,0,0-.2-.2-.2-.3,0,0-.2-.2-.3-.2,0,0-.2-.2-.2-.3,0,0-.2-.2-.3-.2,0,0-.2-.2-.2-.3,0,0-.2-.2-.3-.2,0,0-.2-.2-.2-.3-.2-.3-.5-.5-.8-.6v-10.6c0-4.4-1.8-8.4-4.8-11.2-.2-.2-.3-.3-.5-.5-.2-.2-.3-.3-.5-.5-.2-.2-.3-.3-.5-.5-.2-.2-.3-.3-.5-.5-.2-.2-.3-.3-.5-.5-.2-.2-.3-.3-.5-.5-.2-.2-.3-.3-.5-.5-.2-.2-.3-.3-.5-.5-.2-.2-.3-.3-.5-.5-.2-.2-.3-.3-.5-.5-.2-.2-.3-.3-.5-.5-.2-.2-.3-.3-.5-.5-.2-.2-.3-.3-.5-.5,0,0,0,0,0,0-.2-.2-.3-.3-.5-.5h0c-1.3-1.4-2.9-2.5-4.6-3.3-.5-.8-1.2-1.5-1.8-2.2-.2-.2-.3-.3-.5-.5-.2-.2-.3-.3-.5-.5-.2-.2-.3-.3-.5-.5-.2-.2-.3-.3-.5-.5-.2-.2-.3-.3-.5-.5-.2-.2-.3-.3-.5-.5-.2-.2-.3-.3-.5-.5-.2-.2-.3-.3-.5-.5-.2-.2-.3-.3-.5-.5-.2-.2-.3-.3-.5-.5-.2-.2-.3-.3-.5-.5-.2-.2-.3-.3-.5-.5-.2-.2-.3-.3-.5-.5,0,0,0,0,0,0-.2-.2-.3-.3-.5-.5,0,0,0,0,0,0-2.4-2.5-5.8-4.1-9.5-4.1h-16.7c-3.3,0-6,2.7-6,6v6.1c-2.7.6-4.8,3-4.8,5.8v27.6c-1.4.5-2.4,1.8-2.4,3.4s.4,1.9,1,2.5c0,0,.2.2.3.2,0,0,.1.2.2.3,0,0,0,0,0,0,0,0,0,0,0,0,0,0,.2.2.3.2,0,0,.2.2.2.3,0,0,.2.2.3.2,0,0,.2.2.2.3,0,0,.2.2.3.2,0,0,.2.2.2.3,0,0,.2.2.3.2,0,0,.2.2.2.3,0,0,.2.2.3.2,0,0,.2.2.2.3,0,0,.2.2.3.2,0,0,.2.2.2.3,0,0,.2.2.3.2,0,0,.2.2.2.3,0,0,.2.2.3.2,0,0,.2.2.2.3,0,0,.2.2.3.2,0,0,.2.2.2.3,0,0,.2.2.3.2,0,0,.2.2.2.3,0,0,.2.2.3.2,0,0,.2.2.2.3,0,0,.2.2.3.2,0,0,.2.2.2.3,0,0,.2.2.3.2,0,0,.2.2.2.3,0,0,.2.2.3.2,0,0,.2.2.2.3.7.7,1.6,1.1,2.5,1.1h1.3c.1.1.2.2.4.4.2.2.3.3.5.5.2.2.3.3.5.5.2.2.3.3.5.5.2.2.3.3.5.5.2.2.3.3.5.5.2.2.3.3.5.5.2.2.3.3.5.5.2.2.3.3.5.5,1.5,1.7,3.7,2.7,6.1,2.7,4.2,0,7.7-3.1,8.3-7.2h27c.1.2.3.3.4.4.1.2.3.4.5.5.1.2.3.4.5.5.1.2.3.4.5.5.1.2.3.4.5.5.1.2.3.4.5.5.1.2.3.4.5.5.1.2.3.4.5.5.1.2.3.4.5.5.1.2.3.4.5.5.1.2.3.4.5.5.1.2.3.4.5.5.1.2.3.4.5.5.2.4.6.6,1.1.6.7,0,1.2-.5,1.2-1.2v-6h3.6c2,0,3.6-1.6,3.6-3.6s-.4-1.9-1-2.5ZM51.8,78.4c-.1-.8-.4-1.6-.7-2.4h40.2c.3,0,.6.1.8.4.2.2.3.5.3.8,0,.7-.5,1.2-1.2,1.2h-39.4ZM43.6,71.2c-2.3,0-4.3.9-5.8,2.4h-4.9v-7.2h29.8v7.2h-13.2c-1.5-1.5-3.6-2.4-5.8-2.4ZM35.3,78.4h-3.7c-.3,0-.6-.1-.8-.4-.2-.2-.3-.5-.3-.8,0-.7.5-1.2,1.2-1.2h4.4c-.4.7-.6,1.5-.7,2.4ZM32.8,47.4h6v11.9h-6v-11.9ZM67.4,64v-1.2c0-.7.5-1.2,1.2-1.2s1.2.5,1.2,1.2v1.2c0,.7-.5,1.2-1.2,1.2s-1.2-.5-1.2-1.2ZM79.3,73.6v-7.2h3.6v7.2h-3.6ZM69.8,42.6c7.2,0,13.1,5.9,13.1,13.1v8.3h-3.6v-8.3c0-2-1.6-3.6-3.6-3.6h-9.5c-2,0-3.6,1.6-3.6,3.6v8.3h-29.8v-2.4h23.8c2,0,3.6-1.6,3.6-3.6v-9.5c0-2-1.6-3.6-3.6-3.6h-23.6c.5-1.4,1.8-2.4,3.4-2.4h33.4ZM41.2,59.3v-11.9h7.2v11.9h-7.2ZM50.7,59.3v-11.9h6c.7,0,1.2.5,1.2,1.2v9.5c0,.7-.5,1.2-1.2,1.2h-6Z"/></svg>