<?xml version="1.0" encoding="UTF-8"?><svg id="a" xmlns="http://www.w3.org/2000/svg" viewBox="0 0 400 400"><defs><style>.b{fill:#010101;}</style></defs><path class="b" d="M322.7,92.4c-10.8-17.7-24.1-25.4-43.4-25-68.2.5-130.7.5-191.1,0-12.3-.3-23.3,3.6-31.1,11.2-7.8,7.6-12,18.2-12.1,30.7-.2,49.8-.2,99.1,0,157.7,0,12,3.9,21.8,11.9,30.1,9.6,10,22.2,23.2,34.2,37.2,7.8,9.1,17,13,30.2,12.8,13.9-.2,29.1-.2,46.4-.2s31.3,0,46.7.1h.6c30.2.1,64.4.3,97.2-.2,18.3-.3,26.9-8.8,27.9-27.4.1-19.5,0-39.6-.2-59-.2-33.6-.5-68.2.7-102.3.7-23.7-4.9-44.6-17.9-65.9ZM307.9,185.4l-1.9.2h1.9c0,12,.1,24,0,36,0,24.9-7.1,31.8-32.6,31.9h-20.1c-36.6.3-74.5.5-111.7-.3-13-.2-21.2,3.2-28,11.7-4,4.9-8.5,9.1-12.8,13.2-1.6,1.5-3.2,3-4.8,4.5-5.1,5-10.5,7.5-16.1,7.5s-11-2.5-16.1-7.4l-1.2-1.2-.6-1.6c-2.5-6.8-2.4-13-2.3-18.5,0-1.1,0-2.2,0-3.2,0-14.9,0-29.8,0-44.6,0-31.8.1-64.4-.3-96.4-.1-10.6.3-19.9,6.8-26.4,5.2-5.2,13.1-7.5,25.9-7.3,57.9.6,119,.6,181.6,0,8.8,0,18.6.7,25.2,7.4,5.2,5.3,7.4,13,7.1,25.1-.6,23.1-.4,46.7-.3,69.5Z"/><path d="M186.9,132.5c4.1-.2,7.1-3.8,10.8-5.5,12.6-7.1,29.6-2.6,37.7,9.2,16.9,25.1-4.5,54.7-24.3,71.1-4.8,4.1-9.8,8-14.9,11.8-2.9,2.1-6.4,4-10,3.7-6.2-.5-11-5.6-15.9-9.1-2.5-2-5-4.1-7.5-6.2-18.7-15.8-38.1-40.7-27.7-66.1,6-15,26.1-22.5,40.4-14.9,3.8,1.7,6.9,5.7,11.2,6h.1Z"/></svg>