<?xml version="1.0" encoding="UTF-8"?><svg id="a" xmlns="http://www.w3.org/2000/svg" viewBox="0 0 115 115"><path d="M101.2,54.9s0,0-.1,0c-1.1-1.1-2.3-2.3-3.4-3.4-1.6-1.6-3.2-3.3-4.8-4.9-3.1-3.1-6.2-6.2-9.4-9.3-.1-.1-.3-.3-.4-.4-.5-.6-1.2-1.3-2.5-1.5-2.8-.4-5.7-.8-8.5-1.2-1.7-.3-3.4-.5-5.1-.7-.2,0-.2,0-.4-.3-.3-.6-11.3-13.8-15.5-18-2.2-2.2-4.4-4.4-6.6-6.6l-.8-.8-.5,1c-2.3,4.6-4.6,9.2-6.8,13.7-1.5,3-3,6-4.5,9.1v.2c-.1,0-.2.2-.3.3-8.2,1.2-16.9,2.4-25.4,3.7h-.4c0,0-.6,1.2-.6,1.2l.4.4c3.7,3.4,7.4,7.1,10.9,10.7,2.4,2.4,4.8,4.9,7.2,7.2.3.3.3.4.3.5-1,5.4-1.9,11-2.8,16.3-.5,2.7-.9,5.3-1.4,8,0,.4,17.9,18.6,18.7,19.6,1.1,1.5,2.5.7,3,.5.9-.5,18.7-9.9,21-11.1.4-.2.7-.2,1.1,0,3.1,1.7,6.2,3.3,9.3,4.9,4.2,2.2,8.6,4.5,12.8,6.8h.2c0,.1,1.3.1,1.3.1v-.9c-.9-5.3-1.8-10.6-2.8-15.8-.5-3.1-1.1-6.3-1.6-9.4,0-.2,0-.3.1-.5,2.3-2.3,4.8-4.7,7.1-6.9,3.7-3.6,7.5-7.2,11.1-11l-.3-1.3ZM28.7,70.5c.9-5.3,1.7-10.3,2.7-15.5.2-1-.4-1.5-.7-1.9-1.9-1.8-3.8-3.7-5.6-5.5-2.6-2.5-5.2-5.1-7.8-7.7l3.1-.5c5.2-.8,10.3-1.5,15.4-2.2.7,0,1.4-.3,1.9-1.3l1.2-2.5c2.3-4.7,4.7-9.6,7.1-14.4,2.8,5.6,5.5,11.2,8.3,16.8.4.9,1,1.3,2,1.5,5.3.7,10.7,1.5,15.9,2.3l2.6.4c-1.7,1.7-3.4,3.3-5.1,5-2.8,2.8-5.6,5.5-8.5,8.3-.7.7-.7,1.4-.6,1.9.9,5.3,1.8,10.7,2.8,16.1l.4,2.5c-4.5-2.3-9-4.7-13.4-7l-3.4-1.8c-.4-.2-.7-.3-1-.3s-.7.1-1,.3l-3.2,1.7c-4.4,2.3-9,4.7-13.5,7.1l.6-3.2Z"/></svg>