<?xml version="1.0" encoding="UTF-8"?><svg id="a" xmlns="http://www.w3.org/2000/svg" viewBox="0 0 400 400"><defs><style>.b{fill:none;}</style></defs><path class="b" d="M69,113.3v101l10.9-6.4c3.9-2.3,8.5-3.5,13.1-3.5h15.6v-115.2h-15.6c-13.2,0-24,10.9-24,24.1ZM103.6,94.3v105.2h-10.6c-5.6,0-11,1.5-15.7,4.2l-3.3,2v-92.3c0-10.5,8.5-19,19-19h10.6Z"/><path d="M346.5,164c-.3-2.6-1.6-4.9-3.5-6.7-.3-.3-.6-.6-.9-.9-.3-.3-.6-.6-.9-.9-.3-.3-.6-.6-.9-.9-.3-.3-.6-.6-.9-.9-.3-.3-.6-.6-.9-.9-.3-.3-.6-.6-.9-.9-.3-.3-.6-.6-.9-.9-.3-.3-.6-.6-.9-.9-.3-.3-.6-.6-.9-.9-.3-.3-.6-.6-.9-.9-.3-.3-.6-.6-.9-.9-.3-.3-.6-.6-.9-.9-.3-.3-.6-.6-.9-.9-.3-.3-.6-.6-.9-.9-.3-.3-.6-.6-.9-.9-.3-.3-.6-.6-.9-.9-.3-.3-.6-.6-.9-.9-.3-.3-.6-.6-.9-.9-.3-.3-.6-.6-.9-.9-.3-.3-.6-.6-.9-.9-.3-.3-.6-.6-.9-.9-.3-.3-.6-.6-.9-.9-.3-.3-.6-.6-.9-.9-.3-.3-.6-.6-.9-.9-.3-.3-.6-.6-.9-.9-.3-.3-.6-.6-.9-.9-.3-.3-.6-.6-.9-.9-.3-.3-.6-.6-.9-.9-.3-.3-.6-.6-.9-.9-.3-.3-.6-.6-.9-.9-.3-.3-.6-.6-.9-.9-.3-.3-.6-.6-.9-.9-.3-.3-.6-.6-.9-.9-.3-.3-.6-.6-.9-.9-.3-.3-.6-.6-.9-.9-.3-.3-.6-.6-.9-.9-.3-.3-.6-.6-.9-.9-.3-.3-.6-.6-.9-.9-.3-.3-.6-.6-.9-.9-.3-.3-.6-.6-.9-.9-.3-.3-.6-.6-.9-.9-.3-.3-.6-.6-.9-.9-.3-.3-.6-.6-.9-.9-.3-.3-.6-.6-.9-.9-.3-.3-.6-.6-.9-.9-.3-.3-.6-.6-.9-.9-.3-.3-.6-.6-.9-.9-.3-.3-.6-.6-.9-.9-.3-.3-.6-.6-.9-.9-.3-.3-.6-.6-.9-.9-.3-.3-.6-.6-.9-.9-.3-.3-.6-.6-.9-.9-.3-.3-.6-.6-.9-.9-.3-.3-.6-.6-.9-.9-.3-.3-.6-.6-.9-.9-.3-.3-.6-.6-.9-.9-.3-.3-.6-.6-.9-.9-.3-.3-.6-.6-.9-.9-.3-.3-.6-.6-.9-.9-2.1-2.3-5-3.7-8.1-3.7h-146.7c0,0-.1,0-.2-.1-.3-.3-.6-.6-.9-.9-.3-.3-.6-.6-.9-.9-.3-.3-.6-.6-.9-.9-.3-.3-.6-.6-.9-.9-.3-.3-.6-.6-.9-.9-.3-.3-.6-.6-.9-.9-.3-.3-.6-.6-.9-.9-.3-.3-.6-.6-.9-.9-.3-.3-.6-.6-.9-.9-.3-.3-.6-.6-.9-.9-.3-.3-.6-.6-.9-.9-.3-.3-.6-.6-.9-.9-.3-.3-.6-.6-.9-.9-.3-.3-.6-.6-.9-.9-.3-.3-.6-.6-.9-.9-.3-.3-.6-.6-.9-.9-.3-.3-.6-.6-.9-.9-.3-.3-.6-.6-.9-.9-.3-.3-.6-.6-.9-.9-.3-.3-.6-.6-.9-.9-.3-.3-.6-.6-.9-.9-.3-.3-.6-.6-.9-.9-.3-.3-.6-.6-.9-.9-.3-.3-.6-.6-.9-.9-.3-.3-.6-.6-.9-.9-2.1-2.3-5-3.7-8.1-3.7h-16.8c-19.9,0-36.1,16.2-36.1,36.1v117.6c0,9.9,3.9,19.1,11,25.9.3.3.6.6.9.9.3.3.6.6.9.9.3.3.6.6.9.9.3.3.6.6.9.9.3.3.6.6.9.9.3.3.6.6.9.9.3.3.6.6.9.9.3.3.6.6.9.9.3.3.6.6.9.9.3.3.6.6.9.9.3.3.6.6.9.9.3.3.6.6.9.9.3.3.6.6.9.9.3.3.6.6.9.9.3.3.6.6.9.9.3.3.6.6.9.9.3.3.6.6.9.9.3.3.6.6.9.9.3.3.6.6.9.9.3.3.6.6.9.9.3.3.6.6.9.9.3.3.6.6.9.9.3.3.6.6.9.9.3.3.6.6.9.9.3.3.6.6.9.9.3.3.6.6.9.9.3.3.6.6.9.9.3.3.6.6.9.9.3.3.6.6.9.9.3.3.6.6.9.9.3.3.6.6.9.9.3.3.6.6.9.9.3.3.6.6.9.9.3.3.6.6.9.9.3.3.6.6.9.9.3.3.6.6.9.9.3.3.6.6.9.9.3.3.6.6.9.9.3.3.6.6.9.9.3.3.6.6.9.9.3.3.6.6.9.9.3.3.6.6.9.9.3.3.6.6.9.9.3.3.6.6.9.9.3.3.6.6.9.9.3.3.6.6.9.9.3.3.6.6.9.9.3.3.6.6.9.9.3.3.6.6.9.9.3.3.6.6.9.9.3.3.6.6.9.9.3.3.6.6.9.9.3.3.6.6.9.9.3.3.6.6.9.9.3.3.6.6.9.9.3.3.6.6.9.9.3.3.6.6.9.9.3.3.6.6.9.9.3.3.6.6.9.9,6.9,7.1,16.1,11,26,11h193.1c6,0,10.9-4.9,10.9-10.9v-144.1h-.2ZM292.4,256.1c0,3.4-2.9,6.2-6.2,6.2H93c-17.3,0-31.4-14.1-31.4-31.4v-117.6c0-17.3,14.1-31.4,31.4-31.4h16.8c3.4,0,6.2,2.8,6.2,6.2v19h170.1c3.4,0,6.2,2.8,6.2,6.2v1.2h.1v141.7Z"/><path d="M292.3,113.3c0-3.4-2.8-6.2-6.2-6.2H116v-19c0-3.4-2.8-6.2-6.2-6.2h-16.8c-17.3,0-31.4,14.1-31.4,31.4v117.6c0,17.3,14.1,31.4,31.4,31.4h193.1c3.4,0,6.2-2.8,6.2-6.2V114.5h-.1v-1.3ZM287.4,256.1c0,.6-.6,1.2-1.2,1.2H93c-14.6,0-26.4-11.8-26.4-26.4v-117.6c0-14.6,11.8-26.4,26.4-26.4h16.8c.7,0,1.2.5,1.2,1.2v24h175.1c.7,0,1.2.5,1.2,1.2v3.9h.1v139Z"/><path d="M74,113.3v92.3l3.3-2c4.7-2.8,10.1-4.2,15.7-4.2h10.6v-105.2h-10.6c-10.5,0-19,8.6-19,19Z"/><path d="M147.9,187c1.5-.5,3.3-.7,5.2-.7h-1.7c-5.9,0-10.6,4.8-10.6,10.6s.5,3.7,1.4,5.3c-.8-1.5-1.2-3.2-1.3-4.7-.2-3.7,1.6-8.6,7.1-10.4Z"/><path d="M247.4,153.5c.6.2,1.1.4,1.6.6-.5-.3-1-.5-1.6-.6Z"/><path d="M227.5,140.5c1,1.5,1.7,3.3,2,5.4-.2-2-.9-3.8-2-5.4Z"/><path d="M228.2,217.9c.2-.4.4-.9.5-1.3v.3c-.2.4-.4.7-.5,1Z"/><path d="M254.6,164.7c-.5,4.4-3.8,9-9.9,9.4h-.2c-1.7.1-3.7,0-5.7,0-1.4,0-2.6,0-3.8,0h9.2c5.8,0,10.6-4.8,10.6-10.6s-.2-2.3-.5-3.3c.5,1.5.6,3.1.4,4.5Z"/><path d="M157.8,173.9c-.8,0-1.6,0-2.4,0-4.4,0-6.6,0-9.6-1.8-.8-.5-1.6-1.1-2.2-1.7,1.9,2.1,4.7,3.5,7.8,3.5h9.2c-.8,0-1.8,0-2.8,0Z"/><path d="M187.3,147.1c0,.4,0,.8,0,1.2v-1.6c0-3.2-1.4-6.1-3.7-8,1.2,1.1,2.3,2.7,3,4.7.3,1,.5,2.2.6,3.7Z"/><path d="M166.4,216.8c.2.8.6,1.6,1,2.3-.4-.6-.6-1.3-.9-2v-.3Z"/><path d="M148.4,153.2c.5-.1,1-.3,1.5-.3-.5,0-1,.2-1.5.3Z"/><path d="M141,162c.2-1.3.6-2.6,1.2-3.9-.9,1.5-1.4,3.3-1.4,5.2s.3,2.7.8,4c-.7-1.8-.8-3.7-.6-5.3Z"/><path d="M186.7,216.3v.2c-.1,0-.2.2-.2.2-1,3.8-4.4,6.7-8.2,7.4,5-.8,8.8-5.2,8.8-10.5v-1.7c-.1.8-.2,1.6-.2,2.2,0,.7,0,1.8-.2,2.1Z"/><path d="M165.9,213.2v.5c0,.7,0,1.5.2,2.1,0-.5,0-1-.1-1.5,0-.4,0-.8,0-1.2Z"/><path d="M160.7,186.3h-4.5c.2,0,.4,0,.6,0,1.4,0,2.6,0,3.9,0Z"/><path d="M208.7,144.1v-.2c.1,0,.2-.3.2-.3.8-3.2,3.4-5.8,6.9-6.9,1.3-.4,2.6-.6,3.9-.5-.2,0-.5,0-.7,0-5.9,0-10.6,4.8-10.6,10.6v1.7c.1-.8.2-1.6.2-2.2,0-.7,0-1.8.2-2.1Z"/><path d="M180.4,136.6c-1.1-.4-2.4-.7-3.7-.7-3.1,0-5.9,1.3-7.8,3.4,1.7-1.8,3.9-2.8,6-3.2,1.7-.3,3.6-.2,5.5.5Z"/><path d="M217.7,224.1c-3.9-.3-8.7-2.9-9.5-9v-.2c-.1-.4-.2-.9-.2-1.5,0-.3,0-.8,0-1.3v1.6c0,5.8,4.8,10.6,10.6,10.6s2.6-.3,3.8-.7c-1.6.5-3.2.7-4.6.6Z"/><path d="M228.9,215.5c.1-.6.2-1.2.2-1.9v-.7c0,.4,0,.9,0,1.3,0,.4,0,.8,0,1.2Z"/><path d="M246.5,206.9c-.6.2-1.3.3-2,.4.7,0,1.3-.2,2-.4Z"/><path d="M239.4,186.1c.6,0,1.1,0,1.7,0h-5.7c1.3,0,2.7,0,4,0Z"/><path d="M254.1,195c-.8-5.1-5.2-9-10.5-9h-2.5c1.7,0,3.2,0,4.7.4,4.3.8,7.6,4.4,8.4,8.6Z"/><path d="M222.7,223.3c2.2-.9,4.3-2.6,5.5-5.4-1.1,2.4-3,4.3-5.5,5.4Z"/><path d="M175.3,224.2c0,0,.2,0,.2,0,.7,0,1.4,0,2,0-.3,0-.7,0-1,0s-.9,0-1.3,0Z"/><path d="M173.9,224c-1.3-.3-2.4-.9-3.5-1.6,1,.7,2.2,1.3,3.5,1.6Z"/><path d="M167.8,219.7c.5.8,1.2,1.5,1.9,2.1-.7-.6-1.4-1.3-1.9-2.1Z"/><path d="M170.4,222.4c-.3-.2-.5-.4-.7-.6.2.2.5.4.7.6Z"/><path d="M247.9,206.5c4.1-1.7,6.8-6.1,6.4-10.5,0,0,0,0,0-.1,0,.3,0,.6,0,.8,0,4.4-2.7,8.2-6.4,9.8Z"/><path d="M229.1,207.3v5.6c.1-1.5.5-3.1,1.8-4.3.9-.8,2.2-1.2,3.6-1.2,1.4,0,2.8,0,4.2,0,2,0,4,0,5.9-.2-.3,0-.6,0-.9,0h-14.6Z"/><path d="M151.4,207.5c-.7,0-1.4,0-2.1-.2,1.6.4,3.9.4,6.1.3.8,0,1.7,0,2.5,0,1.9,0,3.7.1,5.3.6l.5.2.4.4c1.3,1.2,1.7,2.9,1.8,4.5v-5.7h-14.6Z"/><path d="M187.1,207.4v4.5c.3-1.8,1-3.6,3.2-4.2h.4c2.1-.3,5.5-.2,8.5-.2,1.4,0,2.7,0,3.7,0,3.8,0,4.7,2.6,4.9,4.5v-4.6h-20.8Z"/><path d="M166.4,216.7h0c0-.2-.2-.5-.2-.8,0,.3.1.6.2.8Z"/><path d="M228.7,216.5c.1-.2.2-.6.2-1,0,.4-.2.8-.3,1.2h0Z"/><path d="M142.2,202.2c1.1,2.1,3,3.9,5.9,4.8-2.5-.8-4.6-2.6-5.9-4.8Z"/><path d="M229.5,152.9h14.6c1,0,2,.1,2.9.4-1.8-.6-4.2-.6-6.7-.5-2.7,0-5.4.1-8-.6h-.4c0,0-.3-.3-.3-.3-1.8-1.2-2-3.2-2.1-4.4h0c0-.7,0-1.3-.1-1.8,0,.3,0,.6,0,.9v6.2Z"/><path d="M208.2,152.8v-4.5c-.3,1.8-1.1,3.7-3.5,4.2h-.4c-2.2.2-5.6.2-8.6.1-1.3,0-2.6,0-3.5,0-1.3,0-2.5-.4-3.4-1.2-1-.9-1.3-2.1-1.4-3.3v4.6h20.8Z"/><path d="M227.5,140.5c-.5-.8-1.2-1.5-1.9-2.1h0c-1.5-1.4-3.4-2.1-5.3-2.3,3,.4,5.6,2,7.3,4.3Z"/><path d="M166.1,152.8v-6.2c0-2.2.7-4.2,1.8-5.9-1.2,1.7-1.9,3.9-1.9,6.6-.1,5.4-4.3,5.4-6.6,5.4-.3,0-.7,0-1.1,0-1.1,0-2.1,0-3.1,0-1.8,0-3.3,0-4.9.2.4,0,.7,0,1.1,0h14.6Z"/><path d="M147.8,153.4c-2.7.9-4.4,2.7-5.5,4.7,1.2-2.1,3.2-3.8,5.5-4.7Z"/><path d="M166,174h-5.4c.5,0,1,0,1.4,0,1.4.2,2.4.7,3,1.6,1,1.3.9,3.1.9,5.1h0c0,1.3,0,3.1-1.4,4.4-.6.6-1.6,1.2-3.3,1.2-.2,0-.4,0-.5,0h5.3v-12.4Z"/><path d="M254.2,160.2c-.7-2.4-2.3-4.7-5.2-6.1,2.5,1.3,4.4,3.5,5.2,6.1Z"/><path d="M232.7,185.8h-.3c-3-1.3-2.8-4.8-2.7-6.5,0-.3,0-.5,0-.7,0-2.6,2-4.3,4.6-4.3s0,0,0,0c.2,0,.4,0,.6,0h-5.4v11.8h5.8c-.8,0-1.6-.1-2.4-.2h-.3Z"/><path d="M229.6,174.2h5.4c1.2,0,2.4,0,3.8,0,2,0,4,0,5.7,0h.2c6.1-.4,9.4-5,9.9-9.4.2-1.4,0-3-.4-4.5-.9-2.7-2.8-4.8-5.2-6.1-.5-.2-1-.5-1.6-.6-.1,0-.3,0-.4-.1-.9-.3-1.9-.4-2.9-.4h-14.6v-6.2c0-.3,0-.6,0-.9-.3-2-1-3.9-2-5.4-1.7-2.3-4.3-4-7.3-4.3-.1,0-.2,0-.3,0,0,0-.1,0-.2,0-1.3,0-2.6.1-3.9.5-3.5,1.1-6.1,3.7-6.9,6.9v.3c0,0-.2.2-.2.2-.2.3-.2,1.4-.2,2.1,0,.6,0,1.4-.2,2.2v4.5h-20.8v-4.6c0-.4,0-.8,0-1.2,0-1.5-.3-2.8-.6-3.7-.7-2.1-1.8-3.6-3-4.7-.2-.2-.4-.3-.6-.5,0,0-.1,0-.2-.1-.1-.1-.3-.2-.5-.3-.2-.1-.4-.2-.6-.3,0,0-.1,0-.2-.1-.2-.1-.4-.2-.7-.3,0,0-.2,0-.3-.1-.1,0-.2,0-.4-.1-1.8-.7-3.8-.8-5.5-.5-2.2.4-4.4,1.5-6,3.2,0,0-.2.2-.3.3,0,0-.1.2-.2.3-.2.2-.3.4-.5.7,0,0,0,0,0,0-1.1,1.7-1.8,3.7-1.8,5.9v6.2h-14.6c-.4,0-.7,0-1.1,0,0,0-.1,0-.2,0-.1,0-.2,0-.4,0-.5,0-1,.2-1.5.3-.2,0-.4.1-.6.2-2.3.9-4.3,2.5-5.5,4.7-.7,1.3-1.1,2.6-1.2,3.9-.2,1.6,0,3.5.6,5.3.1.3.2.5.3.8,0,0,0,0,0,0,0,.2.2.4.3.5,0,.1.2.3.3.4,0,.1.1.2.2.3,0,.1.2.3.3.4.2.2.4.5.6.7.6.6,1.3,1.2,2.2,1.7,3,1.8,5.2,1.8,9.6,1.8.8,0,1.6,0,2.4,0,1,0,2,0,2.8,0h5.4v12.4h-5.3c-1.2,0-2.5,0-3.9,0-.2,0-.4,0-.6,0-1,0-2.1,0-3.1,0-1.9,0-3.7.2-5.2.7-5.5,1.8-7.3,6.8-7.1,10.4,0,1.5.5,3.2,1.3,4.7,1.3,2.2,3.4,4,5.9,4.8.4.1.8.3,1.3.3.7.1,1.4.2,2.1.2h14.6v5.7c0,.4,0,.8,0,1.2,0,.5,0,1,.1,1.5,0,.3.1.6.2.9v.3c.3.7.6,1.3,1,2,0,.1.2.3.2.4,0,0,.1.2.2.3.5.8,1.2,1.5,1.9,2.1,0,0,0,0,0,0,.2.2.5.4.7.6,0,0,0,0,0,0,1,.7,2.2,1.3,3.5,1.6,0,0,0,0,0,0,.4,0,.8.2,1.2.2,0,0,.1,0,.2,0,.4,0,.9,0,1.3,0s.7,0,1,0c.1,0,.3,0,.4,0,.1,0,.2,0,.4,0,3.8-.7,7.2-3.6,8.2-7.4v-.2c0,0,.2-.2.2-.2.1-.3.2-1.4.2-2.1,0-.6,0-1.4.2-2.2v-4.5h20.8v4.6c0,.5,0,1,0,1.3,0,.6,0,1.1.1,1.5v.2c.9,6.1,5.7,8.7,9.6,9,1.4.1,3,0,4.6-.6,0,0,0,0,.1,0,0,0,.2,0,.3-.1,2.4-1.1,4.4-3,5.5-5.4.1-.3.3-.7.4-1v-.3c.2-.4.3-.8.4-1.2,0-.4,0-.9,0-1.2,0-.4,0-.9,0-1.3v-5.6h14.6c.3,0,.6,0,.9,0,.7,0,1.3-.2,2-.4.3,0,.6-.2.9-.3.1,0,.2,0,.3-.1,0,0,0,0,0,0,3.8-1.6,6.4-5.4,6.4-9.8s0-.6,0-.8c0-.2,0-.4,0-.6,0,0,0-.1,0-.2-.7-4.2-4.1-7.8-8.4-8.6-1.4-.3-3-.4-4.7-.4,0,0,0,0,0,0-.5,0-1.1,0-1.7,0-1.3,0-2.7,0-4,0h-5.8v-11.8ZM208.5,182.7v4h-3.1c-.2,0-.5,0-.7,0s-.6,0-.8,0c0,0-.1,0-.2,0h-1.5s-.1,0-.1,0h-4.7c-.2,0-.3,0-.5,0-1.9,0-3.6,0-4.9,0h-4.4v-7.9c0-.3,0-.6,0-1v-3.6h6.7c3.8,0,6.7,0,8.8,0h5.3v4.3h0s0,.1,0,.1v1.6s0,0,0,.1c0,.8,0,1.6,0,2.3Z"/><path d="M169.7,221.8s0,0,0,0c0,0,0,0,0,0Z"/><path d="M247.3,153.4h-.1c0,0,0,0-.1,0,.1,0,.3,0,.4.1,0,0,0,0-.1,0Z"/><path d="M148.2,153.3c-.1,0-.3,0-.4.1.2,0,.4-.1.6-.2,0,0-.1,0-.2,0Z"/><path d="M246.9,206.8c.2,0,.4-.1.6-.2-.3.1-.6.2-.9.3.1,0,.2,0,.3,0Z"/><path d="M148.9,207.2h.2c0,0,.1,0,.2,0-.4,0-.9-.2-1.3-.3.3,0,.6.2.9.2Z"/><path d="M208.2,184.8l-.4.8-.5.4c-.6.5-1.3.7-2,.7h3.1v-4c0,.6,0,1.2-.2,1.7v.3Z"/><path d="M189.6,186.5l-.5-.4c-1.3-1-1.4-2.4-1.4-3,0,0,0-.2,0-.3v-.2s0-2.8,0-2.8v7h4.4c-.7,0-1.4,0-1.8-.1h-.6Z"/><path d="M187.7,179s0,0,0,0v.9h0c0-.2,0-.6,0-.8Z"/><path d="M189.9,174.5h.3c0-.1.4-.1.4-.1,1.3,0,2.6,0,3.7,0h-6.7v3.6c0-1.2.5-2.9,2.3-3.4Z"/><path d="M202.4,186.7h0s1.4,0,1.4,0c-.4,0-.9,0-1.3,0Z"/><path d="M208.5,180.3v-1.6h0c0,.5,0,1,0,1.6Z"/><path d="M197.4,186.7h4.7c-1.5,0-3.1,0-4.7,0Z"/><path d="M206.6,174.5l.6.5c1.3,1,1.3,2.4,1.3,3.1,0,.1,0,.3,0,.4h0c0,.1,0-4.2,0-4.2h-5.3c1.2,0,2.1,0,2.7.1h.8Z"/><polygon points="202.3 186.7 202.3 186.7 202.2 186.7 202.3 186.7"/><path d="M203.9,186.7c.3,0,.6,0,.8,0s.4,0,.7,0h-1.7s.1,0,.2,0Z"/><path d="M196.9,186.7c.2,0,.3,0,.5,0h-5.4c1.3,0,3,0,4.9,0Z"/><path d="M208.5,180.3v2.4c0-.7,0-1.5,0-2.3,0,0,0,0,0-.1Z"/><path d="M187.7,178.9v-1c0,.4,0,.7,0,1Z"/><polygon points="208.5 178.7 208.5 178.6 208.5 178.7 208.5 178.7"/><path d="M194.4,174.4h8.8c-2.1,0-5,0-8.8,0Z"/></svg>