<?xml version="1.0" encoding="UTF-8"?><svg id="a" xmlns="http://www.w3.org/2000/svg" viewBox="0 0 400 400"><defs><style>.b{fill:none;}</style></defs><rect class="b" x="190.2" y="176.9" width="15.8" height="7.4"/><path class="b" d="M289.8,113.3c0-2-1.7-3.7-3.7-3.7H113.5v-21.5c0-2-1.7-3.7-3.7-3.7h-16.8c-15.9,0-28.9,13-28.9,28.9v117.6c0,15.9,13,28.9,28.9,28.9h193.1c2,0,3.7-1.7,3.7-3.7V115.9h-.1v-2.6ZM106.1,201.9h-13.1c-5.1,0-10.1,1.3-14.4,3.9l-7.1,4.2v-96.7c0-11.8,9.7-21.5,21.5-21.5h13.1c0,0,0,110.1,0,110.1ZM243.6,183.6c7.2,0,13.1,5.9,13.1,13.1s-5.9,13.1-13.1,13.1h-12.1v3.7c0,7.2-5.9,13.1-13.1,13.1s-13.1-5.9-13.1-13.1v-3.7h-15.8v3.7c0,7.2-5.9,13.1-13.1,13.1s-13.1-5.9-13.1-13.1v-3.7h-12.1c-7.2,0-13.1-5.9-13.1-13.1s5.9-13.1,13.1-13.1h12.1v-7.4h-12.1c-7.2,0-13.1-5.9-13.1-13.1s5.9-13.1,13.1-13.1h12.1v-3.7c0-7.2,5.9-13.1,13.1-13.1s13.1,5.9,13.1,13.1v3.7h15.8v-3.7c0-7.2,5.9-13.1,13.1-13.1s13.1,5.9,13.1,13.1v3.7h12.1c7.2,0,13.1,5.9,13.1,13.1s-5.9,13.1-13.1,13.1h-12.1v6.8h11.5Z"/><path d="M71.5,113.3v96.7l7.1-4.2c4.3-2.5,9.3-3.9,14.4-3.9h13.1v-110.2h-13.1c-11.9,0-21.5,9.7-21.5,21.6Z"/><path d="M244.8,176.6c14.4-.9,17.2-21.2,3.2-25.6-4.2-1.6-10.5.1-15-1.2-.7-.4-.8-1.3-.9-2.4,0-4.1-1.6-8.4-5-11-6.8-5.9-18.6-2.2-20.7,6.5-1,2,.3,6.6-2.2,7.2-3.1.2-8.9,0-12,0-1.9,0-2.3-1.1-2.4-3.2,0-1.5-.3-3.1-.7-4.5-5.1-14.5-25.8-10.5-25.6,4.8,0,3.3-2,2.8-5.2,2.8-4.1,0-7.3-.4-10.9.8-10.4,3.1-12.3,17.8-2.9,23.4,3.6,2.1,6.4,2.1,11,2.1,2.2,0,4.9,0,6.3,0,.5,0,.9.2,1.2.6.5.7.5,2.2.5,3.7,0,1.6-.3,3-2.2,3-4.2.2-10-.5-14.1.9-12.3,4-11.5,22.1,1.2,25,4,1.2,10.2-.3,14.1.9,1.6,1.5.7,5.2,1.7,7.2,1.5,4.9,5.9,8.5,11.1,8.9,6.1.7,12.1-3.5,13.7-9.4,1-2-.2-6.6,2.1-7.2,3-.3,8.8,0,12-.1,3.2,0,2.1,3,2.6,5.4,1.9,13.7,21.1,15.3,25.2,2.2,1.3-2.5-.6-7.9,3.6-7.7,4.2-.2,9,.5,13.1-.7,5.7-1.6,9.7-7.5,9.2-13.5-.4-5.9-4.9-10.7-10.5-11.8-4.1-.9-8.8,0-12.9-.6-1.7-.7-1.1-3.3-1.1-4.8,0-1.3.9-1.9,2.1-1.8,3-.1,7.2,0,10.3-.1h.2ZM205.8,184c-.7.5-1.8.1-3.6.2-4.2,0-9.8.2-11.7,0-.5-.3-.3-.8-.4-1.6,0-.7,0-1.7,0-2.7.1-1-.3-2.7.5-3,3,0,12.2-.2,14.9,0,.5.4.3.9.4,1.8,0,1.4.1,4-.1,5.2h0Z"/><path d="M344.1,165.4c0-2.5-1.1-4.8-2.9-6.3-.3-.3-.6-.6-.9-.9-.3-.3-.6-.6-.9-.9-.3-.3-.6-.6-.9-.9-.3-.3-.6-.6-.9-.9-.3-.3-.6-.6-.9-.9-.3-.3-.6-.6-.9-.9-.3-.3-.6-.6-.9-.9-.3-.3-.6-.6-.9-.9-.3-.3-.6-.6-.9-.9-.3-.3-.6-.6-.9-.9-.3-.3-.6-.6-.9-.9-.3-.3-.6-.6-.9-.9-.3-.3-.6-.6-.9-.9-.3-.3-.6-.6-.9-.9-.3-.3-.6-.6-.9-.9-.3-.3-.6-.6-.9-.9-.3-.3-.6-.6-.9-.9-.3-.3-.6-.6-.9-.9-.3-.3-.6-.6-.9-.9-.3-.3-.6-.6-.9-.9-.3-.3-.6-.6-.9-.9-.3-.3-.6-.6-.9-.9-.3-.3-.6-.6-.9-.9-.3-.3-.6-.6-.9-.9-.3-.3-.6-.6-.9-.9-.3-.3-.6-.6-.9-.9-.3-.3-.6-.6-.9-.9-.3-.3-.6-.6-.9-.9-.3-.3-.6-.6-.9-.9-.3-.3-.6-.6-.9-.9-.3-.3-.6-.6-.9-.9-.3-.3-.6-.6-.9-.9-.3-.3-.6-.6-.9-.9-.3-.3-.6-.6-.9-.9-.3-.3-.6-.6-.9-.9-.3-.3-.6-.6-.9-.9-.3-.3-.6-.6-.9-.9-.3-.3-.6-.6-.9-.9-.3-.3-.6-.6-.9-.9-.3-.3-.6-.6-.9-.9-.3-.3-.6-.6-.9-.9-.3-.3-.6-.6-.9-.9-.3-.3-.6-.6-.9-.9-.3-.3-.6-.6-.9-.9-.3-.3-.6-.6-.9-.9-.3-.3-.6-.6-.9-.9-.3-.3-.6-.6-.9-.9-.3-.3-.6-.6-.9-.9-.3-.3-.6-.6-.9-.9-.3-.3-.6-.6-.9-.9-.3-.3-.6-.6-.9-.9-.3-.3-.6-.6-.9-.9-.3-.3-.6-.6-.9-.9-.3-.3-.6-.6-.9-.9-.3-.3-.6-.6-.9-.9-.3-.3-.6-.6-.9-.9-.3-.3-.6-.6-.9-.9-.3-.3-.6-.6-.9-.9-.3-.3-.6-.6-.9-.9-1.5-1.8-3.8-2.9-6.3-2.9h-147.7s0,0,0,0c-.3-.3-.6-.6-.9-.9-.3-.3-.6-.6-.9-.9-.3-.3-.6-.6-.9-.9-.3-.3-.6-.6-.9-.9-.3-.3-.6-.6-.9-.9-.3-.3-.6-.6-.9-.9-.3-.3-.6-.6-.9-.9-.3-.3-.6-.6-.9-.9-.3-.3-.6-.6-.9-.9-.3-.3-.6-.6-.9-.9-.3-.3-.6-.6-.9-.9-.3-.3-.6-.6-.9-.9-.3-.3-.6-.6-.9-.9-.3-.3-.6-.6-.9-.9-.3-.3-.6-.6-.9-.9-.3-.3-.6-.6-.9-.9-.3-.3-.6-.6-.9-.9-.3-.3-.6-.6-.9-.9-.3-.3-.6-.6-.9-.9-.3-.3-.6-.6-.9-.9-.3-.3-.6-.6-.9-.9-.3-.3-.6-.6-.9-.9-.3-.3-.6-.6-.9-.9-.3-.3-.6-.6-.9-.9-.3-.3-.6-.6-.9-.9-.3-.3-.6-.6-.9-.9-1.5-1.8-3.8-2.9-6.3-2.9h-16.8c-18.6,0-33.6,15-33.6,33.6v117.6c0,9.5,3.9,18.1,10.3,24.2.3.3.6.6.9.9.3.3.6.6.9.9.3.3.6.6.9.9.3.3.6.6.9.9.3.3.6.6.9.9.3.3.6.6.9.9.3.3.6.6.9.9.3.3.6.6.9.9.3.3.6.6.9.9.3.3.6.6.9.9.3.3.6.6.9.9.3.3.6.6.9.9.3.3.6.6.9.9.3.3.6.6.9.9.3.3.6.6.9.9.3.3.6.6.9.9.3.3.6.6.9.9.3.3.6.6.9.9.3.3.6.6.9.9.3.3.6.6.9.9.3.3.6.6.9.9.3.3.6.6.9.9.3.3.6.6.9.9.3.3.6.6.9.9.3.3.6.6.9.9.3.3.6.6.9.9.3.3.6.6.9.9.3.3.6.6.9.9.3.3.6.6.9.9.3.3.6.6.9.9.3.3.6.6.9.9.3.3.6.6.9.9.3.3.6.6.9.9.3.3.6.6.9.9.3.3.6.6.9.9.3.3.6.6.9.9.3.3.6.6.9.9.3.3.6.6.9.9.3.3.6.6.9.9.3.3.6.6.9.9.3.3.6.6.9.9.3.3.6.6.9.9.3.3.6.6.9.9.3.3.6.6.9.9.3.3.6.6.9.9.3.3.6.6.9.9.3.3.6.6.9.9.3.3.6.6.9.9.3.3.6.6.9.9.3.3.6.6.9.9.3.3.6.6.9.9.3.3.6.6.9.9.3.3.6.6.9.9.3.3.6.6.9.9.3.3.6.6.9.9.3.3.6.6.9.9.3.3.6.6.9.9.3.3.6.6.9.9.3.3.6.6.9.9,6.1,6.3,14.7,10.3,24.2,10.3h193.1c4.6,0,8.4-3.8,8.4-8.4v-142.7h-.1ZM289.9,256.1c0,2-1.7,3.7-3.7,3.7H93c-15.9,0-28.9-13-28.9-28.9v-117.6c0-15.9,13-28.9,28.9-28.9h16.8c2,0,3.7,1.7,3.7,3.7v21.5h172.6c2,0,3.7,1.7,3.7,3.7v2.5h.1v140.3Z"/></svg>