<?xml version="1.0" encoding="UTF-8"?><svg id="a" xmlns="http://www.w3.org/2000/svg" viewBox="0 0 400 400"><defs><style>.b{fill:none;}</style></defs><path class="b" d="M263.7,107.6h0c-21.1-20.8-48.9-32.2-78.6-32.2h-1.2c-29.8.3-57.9,12.1-78.9,33.4-21,21.2-32.6,49.4-32.6,79.2,0,46.4,28.8,85.4,75.1,101.8,8.1,2.8,16.7,2.4,24.5-1.3,7.7-3.7,13.5-10.2,16.4-18.2,1.2-3.4,1.8-7,1.8-10.7,0-12,9.7-21.7,21.7-21.7h51.7c14.9,0,28-10.4,31.2-24.9,1.9-8.6,2.9-17.4,2.8-26-.2-29.7-12.6-58.6-33.8-79.3ZM122.1,238.6c-10.4,1.1-20.2-7.3-20.4-18-.2-11.1,10.1-19.9,20.7-18.6,8.9,1.1,16.2,9,16.1,18.6-.2,9.4-7.5,17-16.3,18ZM120.5,176.7c-10.3,0-18.6-8.4-18.6-18.6s8.3-18.6,18.6-18.6,18.6,8.4,18.6,18.6c0,10.2-8.3,18.6-18.5,18.7ZM167.1,139.5c-10.4,1.1-20.2-7.3-20.4-18-.2-11.1,10.1-19.9,20.7-18.6,8.9,1.1,16.2,9,16.1,18.6-.2,9.4-7.5,17-16.3,18ZM228.9,152.3c-10.4,1.1-20.2-7.3-20.4-18-.2-11.1,10.1-19.9,20.7-18.6,8.9,1.1,16.2,9,16.1,18.6-.2,9.4-7.5,17-16.3,18Z"/><path d="M333.9,166.7c-5.6-9.8-12.4-19-20.2-27.2-24.4-27.1-53.5-58-90.6-68.4-78-28.9-164.3,35.4-162.9,118.4-1.4,36,22.3,73,52.7,101.6,83,56.4,106.9,82.5,129.3,37.6,4-15,.2-30.4,21.5-32.2,0,0,55.8,0,55.8,0,31.5.6,42.4-32.6,40.8-59.1-.2-21.3-15.6-52-26.3-70.6ZM294.7,212.9c-11.6,53.2-100.3-2.6-104.6,46.6-13.9,79.7-126-6.5-117.7-71.6-1.7-98,122.5-150.3,191.2-80.4h0c27.7,26.8,39.8,67.8,31,105.4Z"/><path d="M229.2,115.8c-10.6-1.3-20.9,7.5-20.7,18.6.2,10.7,10,19.1,20.4,18,8.8-1,16.2-8.6,16.3-18,.2-9.6-7.2-17.5-16.1-18.6Z"/><path d="M120.4,139.5c-10.2,0-18.6,8.4-18.6,18.6s8.4,18.6,18.6,18.6c10.2,0,18.6-8.5,18.5-18.7,0-10.2-8.4-18.6-18.6-18.6Z"/><path d="M122.4,202.1c-10.6-1.3-20.9,7.5-20.7,18.6.2,10.7,10,19.1,20.4,18,8.8-1,16.2-8.6,16.3-18,.2-9.6-7.2-17.5-16.1-18.6Z"/><path d="M167.3,103c-10.6-1.3-20.9,7.5-20.7,18.6.2,10.7,10,19.1,20.4,18,8.8-1,16.2-8.6,16.3-18,.2-9.6-7.2-17.5-16.1-18.6Z"/></svg>