<?xml version="1.0" encoding="UTF-8"?><svg id="a" xmlns="http://www.w3.org/2000/svg" viewBox="0 0 115 112"><defs><style>.b{fill:#fff;}</style></defs><path d="M59.8,31.1c-3.5-2.8-8-4.4-12.8-4.4-11.5,0-20.8,9.3-20.8,20.8s1.8,9.6,4.8,13.2l11.6-19.4,17.2-10.3Z"/><path d="M87.8,35.8c-.3-.3-.7-.7-1-1-.3-.3-.7-.7-1-1-.3-.3-.7-.7-1-1-.3-.3-.7-.7-1-1-.3-.3-.7-.7-1-1-.3-.3-.7-.7-1-1-.3-.3-.7-.7-1-1-.3-.3-.7-.7-1-1-.3-.3-.7-.7-1-1-.3-.3-.7-.7-1-1-.3-.3-.7-.7-1-1-.3-.3-.7-.7-1-1-.3-.3-.7-.7-1-1-.3-.3-.7-.7-1-1-6.8-7.1-16.4-11.5-27-11.5-20.7,0-37.5,16.8-37.5,37.5s3.7,18.5,9.8,25.2h0s0,0,0,0c.6.6,1.1,1.2,1.7,1.8.3.3.7.7,1,1,.3.3.7.7,1,1,.3.3.7.7,1,1,.3.3.7.7,1,1,.3.3.7.7,1,1,.3.3.7.7,1,1,.3.3.7.7,1,1,.3.3.7.7,1,1,.3.3.7.7,1,1,.3.3.7.7,1,1,.3.3.7.7,1,1,.3.3.7.7,1,1,.3.3.7.7,1,1,.3.3.7.7,1,1,6.8,7.1,16.4,11.5,27,11.5,20.7,0,37.5-16.8,37.5-37.5s-4.4-20.2-11.5-27ZM47,79c-17.4,0-31.5-14.1-31.5-31.5s14.1-31.5,31.5-31.5,31.5,14.1,31.5,31.5-14.1,31.5-31.5,31.5Z"/><path d="M53.2,51.9l-19.4,11.6c3.6,3,8.2,4.8,13.2,4.8,11.5,0,20.8-9.3,20.8-20.8s-1.7-9.2-4.4-12.8l-10.2,17.2Z"/><path class="b" d="M73.3,40.5c0-.3-.2-.7-.3-1v.8c0,0,0,.1.1.2,0,0,.1,0,.2.1Z"/></svg>