<?xml version="1.0" encoding="UTF-8"?><svg id="a" xmlns="http://www.w3.org/2000/svg" viewBox="0 0 115 115"><defs><style>.b{fill:#060606;}</style></defs><path class="b" d="M32.4,79.9c4.4,4.5,8.9,9.2,13.3,13.9,2.7,2.9,5.8,4.3,9.7,4.2,6.7-.1,13.5,0,20.1,0,3.2,0,6.4,0,9.6,0,8.4,0,10.6-2.2,10.6-10.4,0-14.1,0-28.2,0-42.3v-2.3c0-9.5-7.6-17.2-17-17.3-8.3,0-16.4,0-24.2,0-2.6,0-4.6-.5-6.4-3.3-1.9-2.9-4.6-4.7-7.8-5.1-.5,0-.9,0-1.4,0-2.8,0-5.5,1.1-7.8,3.1-2.9,2.6-5.8,5.5-8.7,8.7-4.4,4.9-4.4,11.1.2,16,.7.8,1.7,1.5,2.8,2.3.6.4,1.2.9,1.8,1.4l1.1.8-1.1.8c-4.9,3.4-7.6,6.9-8,10.5-.3,3.3,1.3,6.9,4.8,10.6,2.8,2.9,5.5,5.8,8.3,8.7ZM27.9,41.3l-.5-.5c-2.5-2.6-2.5-5.4,0-7.9,1-1,2-2,3-3,1.3-1.3,2.7-2.6,3.9-4,1.3-1.3,3.3-3,6.3-2,3.2,1,3.3,4.1,3.4,5.7,0,.6,0,1.2,0,1.7h0c.6.6,1.1.6,2,.5.3,0,.6,0,.9,0,7.3,0,14.6,0,21.9,0h8.2c.3,0,.6,0,.9,0,.9,0,1.8,0,2.7.1,2.8.4,4.4,2.2,4.5,4.9,0,2.7-1.6,4.6-4.4,5-1.3.2-2.5.2-3.8.2h-.8c-8.3,0-16.6,0-24.9,0h-7c-.1.7-.2,1.4-.2,2.1-.2,2.2-.3,4.7-3.4,5.8-.7.3-1.4.4-2,.4-2.3,0-3.8-1.7-5.1-3-.4-.5-.8-.9-1.3-1.3-1.6-1.4-3-2.9-4.5-4.4ZM26.7,58.3c1.1-1.2,2.9-1.8,5.2-1.8,8.4,0,16.8,0,25.3,0h9.2c.1-.7.2-1.4.2-2,.1-2.1.2-4.6,3.2-5.7,3.6-1.4,5.7.9,7.4,2.8.5.5.9,1,1.4,1.4,1.6,1.4,3,3,4.3,4.3,3.2,3.4,3.1,5.5,0,8.9-1.8,2-3.8,3.9-5.7,5.7l-.6.6c-1,1-2.5,2.4-4.6,2.4s-1.1,0-1.7-.3c-3.5-1.2-3.5-4.4-3.5-6.1v-.2c0-.6,0-1-.4-1.6h-23.2c-3.8,0-7.6,0-11.4,0-1.5,0-5.9,0-6.2-4.9,0-1.4.3-2.6,1.1-3.5Z"/></svg>