<?xml version="1.0" encoding="UTF-8"?><svg id="a" xmlns="http://www.w3.org/2000/svg" viewBox="0 0 400 400"><path d="M356.5,153.2c-.8-11.1-3.8-15.8-11.8-23.4-12-11.5-26-22.3-39.5-32.7-14.4-11.1-29.3-22.6-42.2-35.2l-7.8-3.4-156,.6-5.2,3.2-63,79.7v8.5l101.5,195.7c4.9,4.4,11.5,7.2,18.1,7.8h181.3c12.7-1.9,22.7-11.9,24.6-24.6-1.5-27.5-.6-56.5.3-84.5,1-30.6,2-62.2-.2-91.8ZM287.8,133.6h-78.8l43.1-43.8,35.8,43.8ZM223.5,83.6l-44.3,44.8-45.4-44.8h89.7ZM105.2,89.9l43.1,43.8h-78.8l35.8-43.8ZM179.2,304.3l-110.7-145.6h220.4l-109.7,145.6Z"/></svg>