<?xml version="1.0" encoding="UTF-8"?><svg id="a" xmlns="http://www.w3.org/2000/svg" viewBox="0 0 115 115"><defs><style>.b{fill:#040404;}</style></defs><path class="b" d="M100.4,55.8c0-2.7-.9-5-2.7-7-9.3-10.4-19.5-21-31.2-32.4-1.3-1.3-2.2-1.9-3-1.9s-1.8.7-3.2,2.1c-7.6,7.6-15.2,15.2-22.8,22.8-5.9,6-11.9,11.9-17.9,17.9-1.3,1.3-2,2.7-2.2,4.7-.6,4.6-1.3,9.2-2.1,13.6l-.5,3.2c-.4,2.5.1,4.2,1.9,5.7,4.9,4.1,9.7,8.5,14.6,13,2.4,2.2,5.1,3.2,8.3,3.2,6.1,0,12.2,0,18.2,0,5,0,10.1,0,15.1,0,6,0,12.1,0,18.2,0,2.9,0,5.2-.8,6.8-2.3,1.6-1.6,2.4-3.9,2.4-6.8,0-12.2,0-24.3,0-35.6ZM52.2,59.9c-1.2,1.2-2.4,2.4-3.6,3.6-2.8,2.7-5.6,5.6-8.4,8.5-1.8,1.9-4.2,3.9-8,3.9-1,0-2.1.2-3.2.4-1.3.2-2.6.5-4,.5s-1.1,0-1.6-.1h-.7c0-.1-.1-.8-.1-.8-.6-3.1,0-6,.5-8.8.3-1.3.5-2.7.7-4,0-.9.9-1.7,1.5-2.3l.3-.3c6.5-6.6,13.9-14,21.2-21.2,2.6-2.6,3.5-2.6,6.2,0,2.1,2,4.1,4.1,6.2,6.2,1,1,2,2,3,3l.7.7-10.7,10.8ZM67.4,43.6l-12.3-12.1.4-.7c1.2-1.9,2.9-3.5,4.7-5.2.8-.7,1.6-1.5,2.4-2.3l.6-.7.7.6c3.4,2.8,6.3,5.9,9.2,8.9.7.7,1.4,1.5,2.1,2.2l.7.7-8.6,8.5Z"/></svg>