<?xml version="1.0" encoding="UTF-8"?><svg id="a" xmlns="http://www.w3.org/2000/svg" viewBox="0 0 115 115"><defs><style>.b{fill:#080808;}</style></defs><path class="b" d="M95.3,29.5c-.9-.9-1.8-1.9-2.7-3-3.1-4.1-7.3-6-13-5.7-2.3,0-4.7,0-7,0-1.9,0-3.9,0-5.8,0-3.1,0-5.2-.6-7.2-2.2-2.3-1.9-5.3-2.1-8.1-2.1-2.7,0-5.4,0-8.1,0-1.8,0-3.5,0-5.3,0s-4.9,0-7.3,0c-9.4,0-14.1,4.7-14.1,14.2,0,5.6,0,11.2,0,16.8,0,6.6,0,13.5,0,20.3,0,4.7,1.5,8.4,4.8,11.5,5,4.7,10.4,9.7,15.7,15.1,2.7,2.8,5.8,4,9.8,3.9,8.5,0,17.2,0,25.5,0,5.2,0,10.3,0,15.5,0,7.6,0,10.3-2.7,10.3-10.2,0-5.8,0-11.6,0-17.5v-7.8c0-2.4,0-4.8,0-7.2,0-5.9,0-12,0-18,0-3.3-1-6-3.1-8.2ZM58,68.4c0,4.5-1.5,6-6.1,6.2-.8,0-1.7,0-2.5,0-.5,0-1,0-1.5,0q-5.2,0-6.9,5.5l-.2.7-.6-.5c-.4-.3-.7-.6-1-.9-.6-.5-1.1-1-1.6-1.5-2.1-2.5-4.4-3.6-7.7-3.5-2.2,0-3.6-.3-4.5-1.1-.9-.9-1.3-2.3-1.3-4.7,0-12.5,0-25.5,0-38.6,0-4.8,1.1-5.9,6.1-5.9,8,0,15.1,0,21.8,0,4.8,0,6,1.3,6,6.2,0,13.1,0,26,0,38.1ZM86.8,37.7c0,.7,0,1.3,0,2v7.3c0,6.9,0,13.9,0,20.8,0,5.2-1,6.3-6,6.7-2.2.1-3.7.8-5,2.1-.6.6-1.3,1.2-1.9,1.7-.2.2-.5.4-.7.6-.5.4-1,.8-1.7,1.4l-2.3,1.9v-1.1c0-4.1-.5-6.4-3.6-6.8h-.4V28.2h.5c1.7,0,3.3,0,5,0,4,0,7.7,0,11.5,0,2.8,0,4.3,1.5,4.5,4.5.1,1.7,0,3.4,0,5Z"/><path class="b" d="M50.3,48.9c1.6-1.8,2.5-4.2,2.7-7.4,0-3.2-1-5.8-2.8-8-3.1-3.8-8.2-5.4-12.8-3.9-4.7,1.6-8.1,6-8.2,10.5,0,2.5.9,3.9,2.9,4.2,2.5.5,3.6-1.3,4.1-2.9,0-.3.1-.6.2-1,0-.5.2-1,.4-1.5.8-1.8,2.2-2.8,3.9-2.8s.7,0,1,.1c2.2.5,3.5,2,3.7,4.2.2,1.9-.4,3.5-1.8,4.9l-.7.7c-1.4,1.3-2.8,2.7-4.1,4.2-1.9,2.1-2,3.8-.5,5.4,1.6,1.6,3.5,1.5,5.4-.2,2-1.9,4.1-4,6.5-6.7Z"/><path class="b" d="M37.4,65.8c0,1.8,1.8,3.5,3.7,3.5h0c1,0,1.9-.4,2.5-1,.6-.6,1-1.5.9-2.5,0-.9-.4-1.9-1.2-2.6-.7-.6-1.6-1-2.4-1h0c-1.7,0-3.6,1.9-3.6,3.7Z"/><path class="b" d="M77.6,41.1c-.2-2.2-1.6-3.7-3.5-3.8,0,0-.1,0-.2,0-1.7,0-3.4,1.2-3.5,3.5-.2,4.2-.3,8.5,0,12.7.1,2.2,1.5,3.6,3.6,3.5,2,0,3.3-1.4,3.5-3.7.1-1.3,0-2.7,0-4,0-.6,0-1.2,0-1.8,0-.7,0-1.3,0-2,0-1.4,0-2.9,0-4.4Z"/><path class="b" d="M71.4,68.2c.6.7,1.5,1,2.4,1.1,1.9.1,3.7-1.6,3.8-3.4,0-1.7-1.7-3.7-3.5-3.8-.9,0-1.7.3-2.4.9-.7.7-1.2,1.6-1.2,2.5,0,1,.3,1.9.9,2.6Z"/></svg>