<?xml version="1.0" encoding="UTF-8"?><svg id="a" xmlns="http://www.w3.org/2000/svg" viewBox="0 0 115 112"><polygon points="15.5 71.5 15.5 71.5 15.5 71.5 15.5 71.5 15.5 71.5"/><path d="M15.5,71.5c0,.3,0,.5,0,.8,0-.3,0-.5,0-.8h0Z"/><path d="M98.4,33.1c0-2.2-1.1-4.2-2.7-5.6-.3-.4-.6-.7-1-1-.3-.4-.6-.7-1-1-.3-.4-.6-.7-1-1-.3-.4-.6-.7-1-1-.3-.4-.6-.7-1-1-.3-.4-.6-.7-1-1-.3-.4-.6-.7-1-1-.3-.4-.6-.7-1-1-.3-.4-.6-.7-1-1-.3-.4-.6-.7-1-1-.3-.4-.6-.7-1-1-.3-.4-.6-.7-1-1-.3-.4-.6-.7-1-1-.3-.4-.6-.7-1-1h0c-.2-.2-.3-.4-.5-.5,0,0-.1-.1-.2-.2-.1-.1-.2-.2-.4-.3,0,0-.2-.1-.2-.2-.1,0-.2-.2-.4-.3,0,0-.2-.1-.3-.2-.1,0-.3-.1-.4-.2,0,0-.2,0-.3-.1-.1,0-.3-.1-.4-.2,0,0-.2,0-.3-.1-.1,0-.3,0-.4-.1,0,0-.2,0-.3,0-.2,0-.3,0-.5,0,0,0-.2,0-.3,0-.3,0-.5,0-.8,0h0s-53.4,0-53.4,0h0c-.2,0-.5,0-.7,0-3.6.4-6.4,3.5-6.5,7.2h0v53.4h0s0,0,0,0c0,.3,0,.5,0,.8,0,0,0,.2,0,.2,0,.2,0,.3,0,.5,0,0,0,.2,0,.3,0,.2,0,.3.1.5,0,0,0,.2.1.3,0,.1.1.3.2.4,0,0,0,.2.1.3,0,.1.1.3.2.4,0,0,0,.2.2.2,0,.1.2.3.3.4,0,0,.1.1.2.2.1.1.2.3.4.4,0,0,0,0,.1.1.2.2.4.4.6.5h0c.3.4.6.7,1,1,.3.4.6.7,1,1,.3.4.6.7,1,1,.3.4.6.7,1,1,.3.4.6.7,1,1,.3.4.6.7,1,1,.3.4.6.7,1,1,.3.4.6.7,1,1,.3.4.6.7,1,1,.3.4.6.7,1,1,.3.4.6.7,1,1,.3.4.6.7,1,1,.3.4.6.7,1,1,.3.4.6.7,1,1,1.3,1.6,3.3,2.7,5.6,2.7h0s53.4,0,53.4,0h0c4-.1,7.2-3.3,7.3-7.3h0v-53.4h0ZM66.5,20.8c3.9,0,7,3.1,7,7s-3.2,7-7,7-7-3.1-7-7,3.1-7,7-7ZM66.5,54.7c3.9,0,7,3.1,7,7s-3.2,7-7,7-7-3.1-7-7,3.1-7,7-7ZM49.4,37.7c3.9,0,7,3.1,7,7,0,3.9-3.1,7-7,7s-7-3.1-7-7,3.1-7,7-7ZM32.4,20.8c3.9,0,7,3.1,7,7s-3.2,7-7,7-7-3.1-7-7,3.2-7,7-7ZM32.4,54.4c3.9,0,7,3.1,7,7s-3.2,7-7,7-7-3.1-7-7,3.2-7,7-7Z"/></svg>