<?xml version="1.0" encoding="UTF-8"?><svg id="a" xmlns="http://www.w3.org/2000/svg" viewBox="0 0 400 400"><defs><style>.b{fill:none;}.c{fill:#323232;}</style></defs><path class="b" d="M226.5,193.4c0-2.6-2.1-4.7-4.7-4.7h-4.7v9.4h4.7c2.6,0,4.7-2.1,4.7-4.7Z"/><path class="b" d="M108.4,217c2.6,0,4.7-2.1,4.7-4.7v-18.9c0-2.6-2.1-4.7-4.7-4.7s-4.7,2.1-4.7,4.7v18.9c0,2.6,2.1,4.7,4.7,4.7Z"/><path class="b" d="M141.5,141.4v-14.2c0-2.6-2.1-4.7-4.7-4.7s-4.7,2.1-4.7,4.7v14.2h9.4Z"/><path class="b" d="M276,235.9V103.6c0-1.8-.3-3.5-.8-5.1-.3-1-.7-1.9-1.2-2.8-2.8-5.1-8.2-8.6-14.5-8.6H70.6c-9.1,0-16.4,7.4-16.4,16.4v132.2c0,2.8.7,5.5,2,7.8.3.6.7,1.3,1.2,1.8.9,1.2,1.9,2.2,3,3.1,1.7,1.4,3.7,2.4,5.8,3,1.4.4,2.9.6,4.5.6h188.9c9.1,0,16.4-7.4,16.4-16.4ZM84.8,146.1v-18.9c0-7.8,6.4-14.2,14.2-14.2s14.2,6.4,14.2,14.2-2.1,4.7-4.7,4.7-4.7-2.1-4.7-4.7-2.1-4.7-4.7-4.7-4.7,2.1-4.7,4.7v18.9c0,2.6,2.1,4.7,4.7,4.7s4.7-2.1,4.7-4.7c-2.6,0-4.7-2.1-4.7-4.7s2.1-4.7,4.7-4.7h4.7c2.6,0,4.7,2.1,4.7,4.7v4.7c0,7.8-6.4,14.2-14.2,14.2s-14.2-6.4-14.2-14.2ZM122.6,212.2c0,7.8-6.4,14.2-14.2,14.2s-14.2-6.4-14.2-14.2v-18.9c0-7.8,6.4-14.2,14.2-14.2s14.2,6.4,14.2,14.2v18.9ZM127.3,160.3c-2.6,0-4.7-2.1-4.7-4.7v-28.3c0-7.8,6.4-14.2,14.2-14.2s14.2,6.4,14.2,14.2v28.3c0,2.6-2.1,4.7-4.7,4.7s-4.7-2.1-4.7-4.7v-4.7h-9.4v4.7c0,2.6-2.1,4.7-4.7,4.7ZM160.3,207.5c0,.9-.3,1.8-.8,2.6l-9.4,14.2c-.9,1.3-2.4,2.1-3.9,2.1s-3.1-.8-3.9-2.1l-9.4-14.2c-.5-.8-.8-1.7-.8-2.6v-23.6c0-2.6,2.1-4.7,4.7-4.7s4.7,2.1,4.7,4.7v22.2l4.7,7.1,4.7-7.1v-22.2c0-2.6,2.1-4.7,4.7-4.7s4.7,2.1,4.7,4.7v23.6ZM188.7,198.1c2.6,0,4.7,2.1,4.7,4.7s-2.1,4.7-4.7,4.7h-9.4v9.4h14.2c2.6,0,4.7,2.1,4.7,4.7s-2.1,4.7-4.7,4.7h-18.9c-2.6,0-4.7-2.1-4.7-4.7v-37.8c0-2.6,2.1-4.7,4.7-4.7h18.9c2.6,0,4.7,2.1,4.7,4.7s-2.1,4.7-4.7,4.7h-14.2v9.4h9.4ZM202.8,160.3c-2.6,0-4.7-2.1-4.7-4.7v-28.3c0-2.6-2.1-4.7-4.7-4.7s-4.7,2.1-4.7,4.7v28.3c0,2.6-2.1,4.7-4.7,4.7s-4.7-2.1-4.7-4.7v-28.3c0-2.6-2.1-4.7-4.7-4.7s-4.7,2.1-4.7,4.7v28.3c0,2.6-2.1,4.7-4.7,4.7s-4.7-2.1-4.7-4.7v-28.3c0-7.8,6.4-14.2,14.2-14.2s6.9,1.4,9.4,3.6c2.5-2.2,5.8-3.6,9.4-3.6,7.8,0,14.2,6.4,14.2,14.2v28.3c0,2.6-2.1,4.7-4.7,4.7ZM235.9,212.2v9.4c0,2.6-2.1,4.7-4.7,4.7s-4.7-2.1-4.7-4.7v-9.4c0-2.6-2.1-4.7-4.7-4.7h-4.7v14.2c0,2.6-2.1,4.7-4.7,4.7s-4.7-2.1-4.7-4.7v-37.8c0-2.6,2.1-4.7,4.7-4.7h9.4c7.8,0,14.2,6.4,14.2,14.2s-1.4,6.9-3.6,9.4c2.3,2.5,3.6,5.8,3.6,9.4ZM235.9,132c2.6,0,4.7,2.1,4.7,4.7s-2.1,4.7-4.7,4.7h-9.4v9.4h14.2c2.6,0,4.7,2.1,4.7,4.7s-2.1,4.7-4.7,4.7h-18.9c-2.6,0-4.7-2.1-4.7-4.7v-37.8c0-2.6,2.1-4.7,4.7-4.7h18.9c2.6,0,4.7,2.1,4.7,4.7s-2.1,4.7-4.7,4.7h-14.2v9.4h9.4Z"/><path d="M347.7,162.6c-.3-.3-.5-.6-.8-.8-.3-.3-.5-.5-.8-.8-.3-.3-.5-.5-.8-.8-.3-.3-.5-.6-.8-.8-.3-.3-.5-.5-.8-.8-.3-.3-.5-.5-.8-.8-.3-.3-.5-.6-.8-.8-.3-.3-.5-.6-.8-.8-.3-.3-.5-.5-.8-.8-.3-.3-.5-.5-.8-.8-.3-.3-.5-.6-.8-.8-.3-.3-.5-.5-.8-.8-.3-.3-.5-.6-.8-.8-.3-.3-.5-.6-.8-.8-.3-.3-.5-.5-.8-.8-.3-.3-.5-.5-.8-.8-.3-.3-.5-.6-.8-.8-.3-.3-.5-.5-.8-.8-.3-.3-.5-.6-.8-.8-.3-.3-.5-.5-.8-.8-.3-.3-.5-.5-.8-.8-.3-.3-.5-.6-.8-.8-.3-.3-.5-.5-.8-.8-.3-.3-.5-.6-.8-.8-.3-.3-.5-.6-.8-.8-.3-.3-.5-.5-.8-.8-.3-.3-.5-.5-.8-.8-.3-.3-.5-.6-.8-.8-.3-.3-.5-.6-.8-.8-.3-.3-.5-.5-.8-.8-.3-.3-.5-.5-.8-.8-.3-.3-.5-.6-.8-.8-.3-.3-.5-.5-.8-.8-.3-.3-.5-.6-.8-.8-.3-.3-.5-.6-.8-.8-.3-.3-.5-.5-.8-.8-.3-.3-.5-.5-.8-.8-.3-.3-.5-.6-.8-.8-.3-.3-.5-.5-.8-.8-.3-.3-.5-.5-.8-.8-.3-.3-.5-.5-.8-.8-.3-.3-.5-.6-.8-.8-.3-.3-.5-.5-.8-.8-.3-.3-.5-.5-.8-.8-.3-.3-.5-.6-.8-.8-.3-.3-.5-.5-.8-.8-.3-.3-.5-.6-.8-.8-.3-.3-.5-.6-.8-.8-.3-.3-.5-.6-.8-.8-.3-.3-.5-.5-.8-.8-.3-.3-.5-.5-.8-.8-.3-.3-.5-.6-.8-.8-.3-.3-.5-.5-.8-.8-.3-.3-.5-.5-.8-.8-.3-.3-.5-.6-.8-.8-.3-.3-.5-.5-.8-.8-.3-.3-.5-.6-.8-.8-.3-.3-.5-.6-.8-.8-.3-.3-.5-.5-.8-.8-.3-.3-.5-.5-.8-.8-.3-.3-.5-.6-.8-.8-.3-.3-.5-.6-.8-.8-.3-.3-.5-.5-.8-.8-.3-.3-.5-.5-.8-.8-.3-.3-.5-.6-.8-.8-.3-.3-.5-.5-.8-.8-.3-.3-.5-.6-.8-.8-.3-.3-.5-.6-.8-.8-.3-.3-.5-.5-.8-.8-.3-.3-.5-.5-.8-.8-.3-.3-.5-.6-.8-.8-.3-.3-.5-.6-.8-.8-.3-.3-.5-.5-.8-.8-.3-.3-.5-.5-.8-.8-.3-.3-.5-.6-.8-.8-.3-.3-.5-.5-.8-.8-.3-.3-.5-.5-.8-.8-.3-.3-.5-.6-.8-.8-.3-.3-.5-.5-.8-.8-.3-.3-.5-.6-.8-.8-.3-.3-.5-.6-.8-.8-.3-.3-.5-.5-.8-.8-.2-.2-.4-.4-.6-.6-3.4-8.3-11.7-13.8-20.7-13.8H70.6c-9.9,0-18.8,6.7-21.5,16.2-1,2.6-1.5,5.2-1.5,8v132.2c0,6.1,2.5,12,7,16.2.3.3.5.5.8.8.3.3.5.6.8.8.3.3.5.5.8.8.3.3.5.6.8.8.3.3.5.6.8.8.3.3.5.5.8.8.3.3.5.5.8.8.3.3.5.6.8.8.3.3.5.6.8.8.3.3.5.5.8.8.3.3.5.6.8.8.3.3.5.5.8.8.3.3.5.5.8.8.3.3.5.6.8.8.3.3.5.6.8.8.3.3.5.5.8.8.3.3.5.6.8.8.3.3.5.6.8.8.3.3.5.5.8.8.3.3.5.5.8.8.3.3.5.6.8.8.3.3.5.5.8.8.3.3.5.5.8.8.3.3.5.6.8.8.3.3.5.6.8.8.3.3.5.6.8.8.3.3.5.6.8.8.3.3.5.6.8.8.3.3.5.5.8.8.3.3.5.5.8.8.3.3.5.6.8.8.3.3.5.6.8.8.3.3.5.5.8.8.3.3.5.6.8.8.3.3.5.6.8.8.3.3.5.5.8.8.3.3.5.6.8.8.3.3.5.6.8.8.3.3.5.5.8.8.3.3.5.5.8.8.3.3.5.6.8.8.3.3.5.6.8.8.3.3.5.5.8.8.3.3.5.6.8.8.3.3.5.6.8.8.3.3.5.5.8.8.3.3.5.6.8.8.3.3.5.6.8.8.3.3.5.6.8.8.3.3.5.6.8.8.3.3.5.6.8.8.3.3.5.5.8.8.3.3.5.6.8.8.3.3.5.6.8.8.3.3.5.6.8.8.3.3.5.5.8.8.3.3.5.6.8.8.3.3.5.6.8.8.3.3.5.5.8.8.3.3.5.6.8.8.3.3.5.6.8.8.3.3.5.5.8.8.3.3.5.6.8.8.3.3.5.6.8.8.3.3.5.6.8.8.3.3.5.5.8.8.3.3.5.6.8.8.3.3.5.6.8.8.3.3.5.5.8.8.3.3.5.6.8.8.3.3.5.6.8.8.3.3.5.5.8.8.3.3.5.6.8.8.3.3.5.6.8.8.3.3.5.5.8.8.3.3.5.5.8.8.3.3.5.6.8.8.3.3.5.6.8.8.3.3.5.5.8.8.3.3.5.6.8.8.3.3.5.6.8.8.3.3.5.5.8.8.3.3.5.6.8.8.3.3.5.6.8.8.3.3.5.5.8.8.3.3.5.6.8.8.3.3.5.6.8.8.3.3.5.5.8.8.3.3.5.5.8.8,4.2,4.4,10.1,7,16.2,7h188.9c12.3,0,22.4-10,22.4-22.4v-132.2c0-6.1-2.5-12-7-16.2ZM272.5,235.9c0,7.1-5.8,12.9-12.9,12.9H70.6c-1.2,0-2.4-.2-3.5-.5-1.7-.5-3.2-1.3-4.6-2.4-.9-.7-1.7-1.5-2.4-2.5-.3-.5-.6-.9-.9-1.5-1-1.9-1.6-4-1.6-6.2V103.6c0-7.1,5.8-12.9,12.9-12.9h188.9c4.7,0,9.1,2.6,11.4,6.8.4.7.7,1.4.9,2.2.4,1.3.6,2.6.6,4v132.2Z"/><path class="c" d="M221.7,179.2h-9.4c-2.6,0-4.7,2.1-4.7,4.7v37.8c0,2.6,2.1,4.7,4.7,4.7s4.7-2.1,4.7-4.7v-14.2h4.7c2.6,0,4.7,2.1,4.7,4.7v9.4c0,2.6,2.1,4.7,4.7,4.7s4.7-2.1,4.7-4.7v-9.4c0-3.6-1.4-6.9-3.6-9.4,2.3-2.5,3.6-5.8,3.6-9.4,0-7.8-6.4-14.2-14.2-14.2ZM217,188.6h4.7c2.6,0,4.7,2.1,4.7,4.7s-2.1,4.7-4.7,4.7h-4.7v-9.4Z"/><path class="c" d="M193.4,188.6c2.6,0,4.7-2.1,4.7-4.7s-2.1-4.7-4.7-4.7h-18.9c-2.6,0-4.7,2.1-4.7,4.7v37.8c0,2.6,2.1,4.7,4.7,4.7h18.9c2.6,0,4.7-2.1,4.7-4.7s-2.1-4.7-4.7-4.7h-14.2v-9.4h9.4c2.6,0,4.7-2.1,4.7-4.7s-2.1-4.7-4.7-4.7h-9.4v-9.4h14.2Z"/><path class="c" d="M155.6,179.2c-2.6,0-4.7,2.1-4.7,4.7v22.2l-4.7,7.1-4.7-7.1v-22.2c0-2.6-2.1-4.7-4.7-4.7s-4.7,2.1-4.7,4.7v23.6c0,.9.3,1.8.8,2.6l9.4,14.2c.9,1.3,2.4,2.1,3.9,2.1s3.1-.8,3.9-2.1l9.4-14.2c.5-.8.8-1.7.8-2.6v-23.6c0-2.6-2.1-4.7-4.7-4.7Z"/><path class="c" d="M108.4,179.2c-7.8,0-14.2,6.4-14.2,14.2v18.9c0,7.8,6.4,14.2,14.2,14.2s14.2-6.4,14.2-14.2v-18.9c0-7.8-6.4-14.2-14.2-14.2ZM103.7,193.4c0-2.6,2.1-4.7,4.7-4.7s4.7,2.1,4.7,4.7v18.9c0,2.6-2.1,4.7-4.7,4.7s-4.7-2.1-4.7-4.7v-18.9Z"/><path class="c" d="M240.6,122.5c2.6,0,4.7-2.1,4.7-4.7s-2.1-4.7-4.7-4.7h-18.9c-2.6,0-4.7,2.1-4.7,4.7v37.8c0,2.6,2.1,4.7,4.7,4.7h18.9c2.6,0,4.7-2.1,4.7-4.7s-2.1-4.7-4.7-4.7h-14.2v-9.4h9.4c2.6,0,4.7-2.1,4.7-4.7s-2.1-4.7-4.7-4.7h-9.4v-9.4h14.2Z"/><path class="c" d="M207.6,127.2c0-7.8-6.4-14.2-14.2-14.2s-6.9,1.4-9.4,3.6c-2.5-2.2-5.8-3.6-9.4-3.6-7.8,0-14.2,6.4-14.2,14.2v28.3c0,2.6,2.1,4.7,4.7,4.7s4.7-2.1,4.7-4.7v-28.3c0-2.6,2.1-4.7,4.7-4.7s4.7,2.1,4.7,4.7v28.3c0,2.6,2.1,4.7,4.7,4.7s4.7-2.1,4.7-4.7v-28.3c0-2.6,2.1-4.7,4.7-4.7s4.7,2.1,4.7,4.7v28.3c0,2.6,2.1,4.7,4.7,4.7s4.7-2.1,4.7-4.7v-28.3Z"/><path class="c" d="M132,150.9h9.4v4.7c0,2.6,2.1,4.7,4.7,4.7s4.7-2.1,4.7-4.7v-28.3c0-7.8-6.4-14.2-14.2-14.2s-14.2,6.4-14.2,14.2v28.3c0,2.6,2.1,4.7,4.7,4.7s4.7-2.1,4.7-4.7v-4.7ZM136.7,122.5c2.6,0,4.7,2.1,4.7,4.7v14.2h-9.4v-14.2c0-2.6,2.1-4.7,4.7-4.7Z"/><path class="c" d="M113.1,146.1v-4.7c0-2.6-2.1-4.7-4.7-4.7h-4.7c-2.6,0-4.7,2.1-4.7,4.7s2.1,4.7,4.7,4.7c0,2.6-2.1,4.7-4.7,4.7s-4.7-2.1-4.7-4.7v-18.9c0-2.6,2.1-4.7,4.7-4.7s4.7,2.1,4.7,4.7,2.1,4.7,4.7,4.7,4.7-2.1,4.7-4.7c0-7.8-6.4-14.2-14.2-14.2s-14.2,6.4-14.2,14.2v18.9c0,7.8,6.4,14.2,14.2,14.2s14.2-6.4,14.2-14.2Z"/></svg>