<?xml version="1.0" encoding="UTF-8"?><svg id="a" xmlns="http://www.w3.org/2000/svg" viewBox="0 0 115 115"><defs><style>.b{fill:#070707;}</style></defs><path class="b" d="M28.5,86.2c3.3,3.3,6.6,6.8,10.2,10.8,2.2,2.4,4.7,3.5,7.9,3.5h0c1.5,0,3,0,4.5,0,3.5,0,7,0,10.5,0,9.4,0,19,0,28.6,0,6,0,8.9-3,9-9.1,0-11.8,0-23.8,0-35.5,0-4,0-8.1,0-12.1,0-3.1-1-5.4-2.9-7.1l-3.4-3c-4.4-3.8-9-7.7-13.5-11.4-3.1-2.6-7-4.9-11.4-2.4l-.3.2-.3-.3c-3.1-3.5-7.2-5.4-11.6-5.4h0c-4.3,0-8.4,1.9-11.6,5.3l-.2.2h-.3c-4-1-8-.3-11.4,2-3.8,2.5-6.4,6.7-7.1,11.5v.3s-.3.1-.3.1c-3.6,1.4-6.4,4.4-7.8,8.4-1.6,4.4-1.2,9.3,1.1,13.4v.3c.1,0,0,.3,0,.3-2.2,3.3-2.7,7.6-1.4,11.8,1.4,4.4,4.6,7.9,8.7,9.7h.4c0,.1,0,.5,0,.5-.4,3.1.6,5.7,3,8.2ZM25.5,69.4c-1.5-1.8-2-4-2.4-6.1l-.2-.9v-.2c.7-1.1,1.6-1.7,2.5-2.2.6-.4,1.2-.7,1.6-1.2v-6.8l-3.9-2.8v-.2c-.1-2.6.8-4.6,1.7-6.6l.2-.5h.1c1.1-.8,2.2-.7,3.2-.6.8,0,1.6.1,2.3-.1l3.6-4.9c0-.9-.3-1.7-.6-2.6-.3-.7-.6-1.4-.7-2.2v-.2s0-.1,0-.1c1.1-2,3-3,4.8-4.1.3-.2.7-.4,1-.6h.2c0-.1.2,0,.2,0,1.1.2,1.9.9,2.6,1.6.5.5,1.1,1,1.8,1.3l6.4-2,1.4-4.6h.2c2.5-1,5-.7,7.3-.4h.2s.1.1.1.1c1,1,1.3,2.1,1.5,3.2.1.6.3,1.2.5,1.7l6.1,2.1c.9-.2,1.5-.8,2.2-1.4.6-.6,1.3-1.1,2.1-1.5h.2c0,0,.2,0,.2,0,2.1.9,4.1,2.3,6.1,4.4l.2.2-1.7,4.8,3.8,5.2c.8.3,1.6.2,2.5.2.9,0,1.8-.1,2.8.2h.2c0,0,0,.2,0,.2,1.1,1.6,1.6,3.5,2,5.3.1.4.2.8.3,1.3v.2s0,.1,0,.1c-.4,1.2-1.4,1.7-2.3,2.3-.7.4-1.3.8-1.8,1.4v6.4c.4.6,1,1,1.8,1.4.8.4,1.6.9,2.3,1.8v.2c.1,0,0,.2,0,.2-.3,2.5-1.3,4.9-2.1,6.7v.2c0,0-.2,0-.2,0-1.2.6-2.3.4-3.2.3-.7,0-1.4-.2-2.1,0l-3.9,5.2c-.1.7.2,1.4.6,2.2.4.8.8,1.8.7,3h0c0,.1,0,.3,0,.3-1.4,1.7-3.4,3.2-6,4.3h-.3c0,.1-4-2.9-4-2.9l-6.2,1.9c-.6.6-.8,1.4-1,2.3-.2.9-.4,1.9-1.2,2.7h-.1c0,.1-.2.2-.2.2-1,.2-2.1.3-3.1.3s-1.5,0-2.3,0c-.5,0-.9,0-1.4,0h-.2s-.1-.1-.1-.1c-.9-.7-1.1-1.7-1.3-2.6-.2-1-.5-1.9-1.4-2.7l-5.3-1.8c-.9.2-1.5.7-2.2,1.3-.7.6-1.5,1.3-2.6,1.5h-.2s-.2,0-.2,0c-1.7-.9-3.9-2.2-5.7-4.2h-.1c0-.1,0-.3,0-.3-.1-1.1.3-2,.7-2.9.3-.7.6-1.4.6-2.1l-3.7-5.2c-.8-.4-1.6-.3-2.4-.2-.8.1-1.7.2-2.6,0h-.1s0-.1,0-.1Z"/><path class="b" d="M60,72.9c5-1,9.2-4.1,11.6-8.6,2.5-4.7,2.8-10.2.7-15.2l-8.2,5.7c0,3.2-1.3,6-4.1,8.3v9.8Z"/><path class="b" d="M40.4,65.7c2.4,3.7,6,6.1,10.2,6.8v-9.6c-2.6-2.3-3.9-4.8-3.9-7.9l-8.1-5.5c-1.7,5.8-1.1,11.7,1.8,16.2Z"/><path class="b" d="M43.9,41.8l7.8,5.5c2.3-.4,4.7-.7,7.1,0l8.2-5.7c-2.7-2.8-7.1-4.3-11.8-4.2-4.6,0-8.7,1.8-11.2,4.5Z"/></svg>