<?xml version="1.0" encoding="UTF-8"?><svg id="a" xmlns="http://www.w3.org/2000/svg" viewBox="0 0 400 400"><defs><style>.b{fill:#070707;}</style></defs><path class="b" d="M86.4,306.9c11.4,11.5,23.1,23.9,35.6,37.8,7.5,8.3,16.5,12.4,27.6,12.4h0c5.2,0,10.5,0,15.7,0,12.2,0,24.5,0,36.7,0,32.7,0,66.5,0,99.8-.2,21-.2,31.2-10.5,31.4-31.7.3-41.3.2-83.3.2-123.9,0-14.1,0-28.1,0-42.2,0-10.9-3.4-19-10.2-24.9l-12-10.3c-15.4-13.2-31.3-26.9-47.3-40-11-9-24.3-17.1-39.9-8.6l-1.2.7-.9-1c-10.9-12.1-25.3-18.8-40.5-18.9h-.3c-15.1,0-29.4,6.5-40.4,18.4l-.7.8-1-.2c-13.8-3.3-28-.8-39.9,7.1-13.2,8.8-22.2,23.4-24.9,40.3l-.2,1-.9.4c-12.7,5-22.4,15.4-27.4,29.2-5.5,15.4-4.2,32.5,3.8,47l.5.9-.6.9c-7.6,11.7-9.4,26.7-4.9,41.1,4.8,15.5,15.9,27.8,30.5,33.7l1.2.5-.2,1.3c-1.4,10.9,1.9,19.9,10.5,28.6ZM75.8,248.1c-5.3-6.3-6.9-13.9-8.5-21.2l-.7-3.1.3-.6c2.1-3.9,5.3-5.8,8.3-7.7,2.1-1.3,4-2.5,5.6-4.2v-23.7l-13.6-9.6v-.9c-.5-8.9,2.8-16.1,6-23l.8-1.8.4-.3c3.7-2.5,7.6-2.3,11.3-2,2.8.2,5.5.4,8.1-.5l12.6-17.2c.2-3.2-1-6-2.3-8.9-1-2.3-2.1-4.8-2.4-7.5v-.6c0,0,.2-.5.2-.5,3.9-6.8,10.4-10.6,16.6-14.3,1.2-.7,2.3-1.4,3.5-2.1l.6-.4h.7c3.9.8,6.6,3.2,9.2,5.6,1.8,1.7,3.8,3.4,6.2,4.6l22.5-7.1,4.7-16.2.8-.3c8.8-3.1,17.4-2.2,25.4-1.1h.6c0,0,.4.5.4.5,3.6,3.4,4.5,7.5,5.3,11,.5,2.1.9,4.1,1.9,5.9l21.3,7.3c3.1-.7,5.4-2.8,7.9-5,2.2-1.9,4.4-3.9,7.4-5.2l.7-.3.7.3c7.5,3.2,14.3,8.1,21.4,15.5l.8.8-6.1,16.8,13.1,18.3c2.7,1.1,5.6.9,8.7.6,3.1-.2,6.4-.5,9.6.6l.6.2.3.5c3.9,5.7,5.5,12.2,7.1,18.5.4,1.5.8,3,1.2,4.4v.5c.1,0,0,.5,0,.5-1.5,4.2-4.9,6.1-8.1,7.9-2.4,1.4-4.7,2.7-6.4,4.9v22.5c1.3,2.2,3.6,3.5,6.3,5.1,2.7,1.5,5.7,3.2,7.9,6.2l.4.6v.7c-1.1,8.7-4.7,17.2-7.4,23.4l-.3.6-.6.3c-4.1,2.1-7.9,1.6-11.3,1.1-2.5-.3-4.9-.6-7.3,0l-13.6,18.2c-.4,2.6.7,5,1.9,7.7,1.3,2.9,2.9,6.3,2.5,10.3v.5s-.4.4-.4.4c-4.9,6.1-11.9,11.2-21,15.1l-.9.4-13.8-10.6-21.5,6.5c-2.1,2.2-2.7,5-3.4,8-.7,3.3-1.4,6.6-4.1,9.5l-.4.4h-.5c-3.6.9-7.3,1.2-11,1.2s-5.4-.1-8.1-.2c-1.6,0-3.2-.1-4.8-.2h-.6s-.5-.4-.5-.4c-3.1-2.5-3.9-5.8-4.7-9.1-.8-3.4-1.6-6.6-4.9-9.4l-18.7-6.1c-3,.6-5.2,2.5-7.6,4.5-2.5,2.2-5.2,4.4-8.9,5.1h-.6c0,.1-.5-.2-.5-.2-6-3.1-13.6-7.5-19.8-14.6l-.4-.4v-.5c-.5-3.9.9-7.1,2.3-10.2,1.1-2.5,2.2-4.8,2.2-7.4l-12.9-18.1c-2.8-1.4-5.6-1-8.5-.5-2.9.4-5.9.8-9-.3l-.4-.2-.3-.3Z"/><path class="b" d="M196.4,260.3c17.4-3.4,32.1-14.2,40.6-30,8.9-16.4,9.8-35.7,2.6-53.2l-28.7,20c.2,11.1-4.7,20.9-14.5,28.9v34.2Z"/><path class="b" d="M127.8,235.2c8.3,13,20.8,21.4,35.6,23.8v-33.5c-9.2-8-13.6-16.9-13.7-27.7l-28.2-19.4c-6.1,20.2-3.8,40.8,6.4,56.8Z"/><path class="b" d="M140.3,151.7l27.1,19.1c7.9-1.4,16.3-2.4,24.7,0l28.6-19.9c-9.6-9.6-24.8-15.2-41.2-14.8-16,.3-30.5,6.1-39.2,15.7Z"/></svg>