<?xml version="1.0" encoding="UTF-8"?><svg id="a" xmlns="http://www.w3.org/2000/svg" viewBox="0 0 115 115"><defs><style>.b{fill:#050505;}</style></defs><path class="b" d="M23.4,85.4c.9.9,2,1.7,2.9,2.5,1,.8,2.1,1.7,3.1,2.6,2.4,2.2,5.2,3.2,8.8,3.2,9.9,0,20,0,29.8,0,6.7,0,13.5,0,20.2,0,7,0,9.6-2.6,9.7-9.4,0-16,0-32.7,0-49.5,0-6.5-6.8-13.4-13.2-13.4-21.8,0-43.1,0-62.9,0-3.9,0-4.6.7-4.7,4.6,0,3.8,0,7.7,0,11.4,0,1.6,0,3.3,0,4.9s0,2.8,0,4.2c0,3.2,0,6.4,0,9.7,0,3.5.8,4.2,4.4,4.4,1.4,0,2.9,0,4.3,0,.6,0,1.2,0,1.8,0h.7l.2.7c.6,1.8,0,3-.4,3.9,0,.2-.1.3-.2.5l-1.6,3.7c-1.5,3.4-3,6.9-4.4,10.4-1.2,3-1.1,3.5,1.4,5.8ZM56.8,27.8h26.5v1c0,1.7,0,3.3,0,5,0,3.6-.1,7.4.1,11,.6,8.3-.9,15.8-4.7,22.9-1.4,2.5-2.3,4.6-2.8,6.6-.9,3.3-2.9,5-6,5s-1,0-1.6-.1c-.8-.1-1.6,0-2.6,0-.6,0-1.2,0-1.9,0h-1.5l2.9-7c1.7-4,3.3-7.7,4.8-11.5,1-2.4,1.2-4.1.6-5-.6-.9-2.2-1.4-4.7-1.4-1.8,0-3.6,0-5.4,0h-3.6s0-26.5,0-26.5ZM27.7,54.3c-1,0-2,0-3,0h-1v-26.4h26.6v6.9c0,6.7,0,13.6,0,20.3,0,1-.3,2-.8,3.2-2.1,5-4.3,10.1-6.4,15.1l-2.3,5.5h-11.5l2.3-5.4c1.6-3.8,3.1-7.4,4.7-11.1.2-.4.4-.8.6-1.2.3-.6.6-1.2.8-1.9.4-1.1.6-2.7,0-3.7-.7-1-2.2-1.3-3.3-1.3-2.1,0-4.2,0-6.4,0Z"/></svg>