<?xml version="1.0" encoding="UTF-8"?><svg id="a" xmlns="http://www.w3.org/2000/svg" viewBox="0 0 115 115"><path d="M83,20.1H20.7l-4,4v44.7l13,13h5.5l-.2.2-4.1,3.3-1.6,4.4h0v.6h.6s8.4,8.4,8.4,8.4h3.4l9.5-7.6,7.2,7.6h5v-10h4.1l12.5,10h3.4v-5l-11.5-9.1-3.6-2.9h23.6l4-4v-44.7l-13-13ZM80.7,65.8l-3.4,3.4H24.9l-3.4-3.4V28.2l3.4-3.4h52.4l3.4,3.4v37.6Z"/><rect x="26.8" y="37.6" width="12.5" height="5"/><rect x="26.8" y="45.1" width="12.5" height="5"/><rect x="26.8" y="52.7" width="12.5" height="5"/><polygon points="61.9 30.1 61.9 45.1 76.9 45.1 76.9 40.1 66.9 30.1 61.9 30.1"/><polygon points="59.4 32.6 53.3 32.6 44.3 41.6 44.3 53.7 53.3 62.7 65.4 62.7 74.4 53.7 74.4 47.6 59.4 47.6 59.4 32.6"/></svg>