<?xml version="1.0" encoding="UTF-8"?><svg id="a" xmlns="http://www.w3.org/2000/svg" viewBox="0 0 115 115"><defs><style>.b{fill:#050505;}</style></defs><path class="b" d="M94.5,34.6c-4.5-2.3-9.1-4.8-13.6-7.1-4.3-2.3-8.7-4.6-13.1-6.9-4.6-2.4-9.2-3.5-13.9-3.5s-2.4,0-3.7.2c-13.7,1.8-22.8,10-26.3,23.6-.4,1.7-1,3-2.6,4.1-3.6,2.6-5.9,6.7-6.2,11.1-.4,4.6,1.4,9.2,5,12.8,8.1,8.1,16,16.7,23.7,24.9l.2.2c2.4,2.6,5.2,3.8,8.9,3.8,7.6,0,15.3,0,22.7,0,4.8,0,9.6,0,14.4,0,7.3,0,9.8-2.5,9.9-9.7,0-5,0-10.1,0-15.1v-6.7c0-2.3,0-4.5,0-6.8,0-5.2,0-10.7,0-16,0-4.3-1.6-7.1-5.4-9ZM85.2,57.7c-.2,4.6-2.8,7.5-8,9v.4c-.3.7-.5,1.3-.6,1.9-2.2,8.9-9.4,14.5-18.1,14.5-1.2,0-2.4,0-3.6-.3-2.9-.5-4.7-2.6-4.6-5.4.2-2.7,1.8-4.3,4.7-4.6.7,0,1.5,0,2.2,0,.6,0,1.2,0,1.8,0,5-.5,7.4-3.1,7.5-8,.1-6.5.1-12.3,0-17.8-.2-7.6-5.6-13.3-12.9-13.5-7.2-.2-13.1,5-13.9,12.6,0,1,0,1.9,0,2.9v.9c0,3.6,0,7.2,0,10.9v5s-.8.2-.8.2c-2.6.6-5,.5-7.4.4-.4,0-.8,0-1.2,0-4.5-.2-7.9-2.9-8.7-7.1-.9-4.7,1.3-8.8,5.7-10.7.6-.3,1.2-.4,1.8-.5,0,0,.1,0,.2,0,1.5-15.4,9.9-24.4,23.1-24.7,14.6-.3,22.2,7.3,24.8,24.6,5.7,2.2,8,5.1,7.8,9.6Z"/></svg>