<?xml version="1.0" encoding="UTF-8"?><svg id="a" xmlns="http://www.w3.org/2000/svg" viewBox="0 0 400 400"><path d="M340.9,150.7c-21.6-25.4-78.9-82.7-104.1-96.4-22.6-12.3-47.6-17.8-72.4-15.9-23.2,1.8-45.8,9.9-65.3,23.5-19.6,13.7-35.1,32.2-44.8,53.6-10.4,22.7-13.9,48.2-10.1,73.7,5.4,37,21.1,55.4,44.3,79.4,5.8,6,12.3,13,19.2,20.4,16.3,17.6,34.8,37.6,49.5,49.3,5,4,9.4,7.5,15.5,8.9l153.5.6c7.3-1.4,13.1-3.9,17-7.7,4.4-4.1,8.2-12,8.9-18.3,2.6-24.1,1.4-51.1.3-77.3-1-24.1-2.1-49-.3-71.9-.5-8.7-5.8-15.6-11.2-21.9ZM173.8,274.2c-57.8,0-104.7-47-104.7-104.7s47-104.7,104.7-104.7,104.7,47,104.7,104.7-47,104.7-104.7,104.7Z"/><path d="M209.3,127.4c-5.3-25.4-36.5-29.1-61.6-24.5-2,.4-4,.9-5.9,1.4-1,.3-2,.5-3,.8l-1.9.5v33.5l3.5-1.6c4-1.8,8.7-3.1,14-3.8,5.9-.8,16-1.3,19.7,0,1.1.4,1.9,1,2.3,1.9,1,2.2,1.2,11.8.8,16.9-.3,3.8-1.3,5.4-4,6.3-.9.3-3.5.9-4.1,1h-20l1.4,39.6h28.6l1.3-13.2c14.4-.3,23.4-5.9,27.4-17,3.3-9.2,3.4-33,1.6-41.7Z"/><path d="M164.1,208.5h0c-6.4.2-11.6,2.7-14.7,7.1-3.3,4.7-3.9,11-1.8,17.7,2.4,7.5,10.5,10.8,17.7,10.8s.4,0,.5,0c8.7-.2,15.5-4.7,17.4-11.5,1.9-7.1,1.1-13.3-2.4-17.7-3.5-4.4-9.4-6.7-16.6-6.4Z"/></svg>