<?xml version="1.0" encoding="UTF-8"?><svg id="a" xmlns="http://www.w3.org/2000/svg" viewBox="0 0 400 400"><defs><style>.b{fill:none;}</style></defs><path class="b" d="M223.4,267.3c.2-1.4.2-5.5,0-6.9-.4-3.1-3.1-1.8-5.4-2l-.3,10.7h4.6c.3,0,1-1.3,1.1-1.8Z"/><path class="b" d="M165.4,302.1c-.6.1-.5.7-.6,1.1-1,3.4-1.1,7.2-2.2,10.6h5l-2.2-11.7Z"/><path class="b" d="M242.9,56.9h-117.4c-2.5,0-4.6,2.1-4.6,4.6v273.4c0,2.5,2.1,4.6,4.6,4.6h117.4c2.5,0,4.6-2.1,4.6-4.6v-173.4c0-2.5-2.1-4.6-4.6-4.6h-58.7c-19.1,0-34.7-15.6-34.7-34.7,0-19.1,15.6-34.7,34.7-34.7,15.3,0,28.7,10.2,33.2,24.5.6,2.1,2.6,3.5,4.7,3.5h20.8c2.5,0,4.6-2.1,4.6-4.6v-49.3c0-2.5-2.1-4.6-4.6-4.6ZM150.2,327c-5.3,1.1-17.6,1.9-19.6-4.9-.7-2.6-.7-17.7-.3-20.8.8-7.2,11.2-7.2,16.5-6.8.9,0,2.4.2,3,.8v6.5c-2.1-.8-9.4-1.8-10.7.2-.3.5-.3,1-.4,1.5-.3,3.4-.4,12.2,0,15.5.5,3.9,8.7,1.9,11.4,1.7v6.3ZM234.4,327.6h-7.9l.5-19.9-4.9,11.2h-6.6s-4.7-10.9-4.7-10.9c0,2.2.6,4.6.6,6.8.1,3.2.4,8.6,0,11.7,0,.5,0,.8-.5,1.1h-7.3l-.5-.5v-32.6h8.4l7.1,16.4,7.4-16.4h8.4v33.1ZM209.2,252h15.3c.4,0,2.8.8,3.4,1,2.7,1.1,3.8,3.2,4,6,.2,2.7.3,10-.7,12.2-.6,1.2-1.5,2.1-2.7,2.7-.6.3-3.2,1.3-3.7,1.3h-6.8l-.3,9.5h-8.5v-32.8ZM185.9,252h19.5v6.3h-11c0,2.2-.9,5,.2,6.9h9.3v6h-9.3l-.5.5v6.8h11.3v6.3h-19.5v-32.8ZM190,294.6v26.8h10.4v6.3h-18.4l-.5-.5v-32.6h8.5ZM162.2,252h19.5v6.3h-11c0,2.2-.9,5,.2,6.9h9.3v6h-9.3l-.5.5v6.8h11.3v6.3h-19.5v-32.8ZM171.2,294.9l7.4,32.8h-7.7l-1.9-7.6h-7.7s-1.7,7.6-1.7,7.6h-7.7l7.8-33.1,11.6.3ZM149.8,252h9l-7.1,15.9,7.8,16.9h-9.3l-6.8-14.8v14.8h-8.5v-32.8h8.5v14.2l6.5-14.2Z"/><path d="M253.6,55s-3.6-3.6-3.8-3.8c-.7-.9-1.8-1.4-3-1.4H117.9c-3.1,0-5.6,2.5-5.6,5.6,0,15.2.6,287.1,1.4,287.8.1.2,17.6,17.6,17.7,17.7.7.9,1.8,1.4,3,1.4h134.5v-190.5c0-1.2-.6-2.3-1.4-3-.1-.2-17-17-17.3-17.3-.1-.2-.3-.3-.5-.4-.7-.9-1.8-1.4-3-1.4h-65.3c-2.8,0-5.6-.4-8.2-1.2-.6-.2-1-.6-1.2-1.2-5.6-18,8.7-37.4,27.7-37,3.2,0,6.2.5,9.1,1.5.5,1.6.9,3.2,1.2,4.9.1.9.6,1.7,1.3,2.3.3.3.5.6.8.8.1.1,16.8,16.8,17,17,.7.9,1.8,1.5,3,1.5h36.8v-66.4c0-1.2-15.2-16.8-15.4-16.9ZM247.6,110.8c0,2.5-2.1,4.6-4.6,4.6h-20.8c-2.2,0-4.1-1.4-4.7-3.5-4.4-14.3-17.8-24.5-33.2-24.5-19.1,0-34.7,15.6-34.7,34.7,0,19.1,15.6,34.7,34.7,34.7h58.7c2.5,0,4.6,2.1,4.6,4.6v173.4c0,2.5-2.1,4.6-4.6,4.6h-117.4c-2.5,0-4.6-2.1-4.6-4.6V61.5c0-2.5,2.1-4.6,4.6-4.6h117.4c2.5,0,4.6,2.1,4.6,4.6v49.3Z"/><path d="M218.7,310.9l-7.1-16.4h-8.4v32.6l.5.5h7.3c.4-.3.4-.6.5-1.1.4-3,.1-8.5,0-11.7,0-2.2-.6-4.6-.6-6.8l4.7,10.9h6.6s4.9-11.2,4.9-11.2l-.5,19.9h7.9v-33.1h-8.4l-7.4,16.4Z"/><polygon points="143.3 252 134.8 252 134.8 284.8 143.3 284.8 143.3 270 150.1 284.8 159.4 284.8 151.6 267.9 158.8 252 149.8 252 143.3 266.2 143.3 252"/><path d="M159.5,327.6l1.7-7.5h7.7s1.9,7.5,1.9,7.5h7.7l-7.4-32.8-11.6-.3-7.8,33.1h7.7ZM164.7,303.2c.1-.4,0-1,.6-1.1l2.2,11.7h-5c1.1-3.4,1.2-7.2,2.2-10.6Z"/><path d="M218,275.3h6.8c.5,0,3.1-1,3.7-1.3,1.2-.6,2.1-1.5,2.7-2.7,1-2.2,1-9.6.7-12.2-.2-2.9-1.4-4.9-4-6-.6-.2-2.9-1-3.4-1h-15.3v32.8h8.5l.3-9.5ZM218,258.3c2.2.2,5-1.1,5.4,2,.2,1.4.2,5.6,0,6.9,0,.5-.7,1.8-1.1,1.8h-4.6l.3-10.7Z"/><path d="M205.4,278.5h-11.3v-6.8l.5-.5h9.3v-6h-9.3c-1.1-1.9-.2-4.8-.2-6.9h11v-6.3h-19.5v32.8h19.5v-6.3Z"/><path d="M181.8,278.5h-11.3v-6.8l.5-.5h9.3v-6h-9.3c-1.1-1.9-.2-4.8-.2-6.9h11v-6.3h-19.5v32.8h19.5v-6.3Z"/><path d="M138.9,319c-.4-3.3-.3-12.1,0-15.5,0-.6,0-1,.4-1.5,1.3-2,8.6-1,10.7-.2v-6.5c-.6-.5-2.1-.7-3-.8-5.3-.4-15.7-.4-16.5,6.8-.4,3.2-.4,18.3.3,20.8,1.9,6.8,14.2,6,19.6,4.9v-6.3c-2.6.2-10.9,2.1-11.4-1.7Z"/><polygon points="181.5 327.2 181.9 327.6 200.4 327.6 200.4 321.3 190 321.3 190 294.6 181.5 294.6 181.5 327.2"/></svg>