<?xml version="1.0" encoding="UTF-8"?><svg id="a" xmlns="http://www.w3.org/2000/svg" viewBox="0 0 115 115"><defs><style>.b{fill:#060606;}</style></defs><path class="b" d="M25.6,86.8c5.9,4.2,11.7,8.6,16.7,12.4,2.4,1.9,5.1,2.7,8.5,2.6,7.3-.2,14.7-.2,21.9-.3,5.2,0,10.4-.1,15.7-.2,7.3-.1,9.7-2.6,9.6-9.9,0-4.3-.1-8.6-.2-12.9,0-5.5-.2-11.2-.2-16.8q0-12.6-5.1-16.5c-1.3-1-3-2.3-5-4.1-2.5-2.2-5.2-3.4-7.8-3.5-8.1-.3-14.7-.2-20.6.4,0,0-.2,0-.3.1-.4.2-1,.5-1.7.2-.5-.2-.8-.5-1-1.1-.3-.7-.5-2,1.3-3.3,2.9-2.2,2.9-5,2-8.8-1-4.4-3.4-8.4-7.2-12.1h0c-.3.4-.6.8-.8,1.2-2.8,4.2-5.5,8.1-5.9,13.1-.2,2.9.4,4.8,2.1,6.3l.3.3c.8.7,1.7,1.4,1.9,3,.6,4-.5,7.7-3.6,11.6-1.6,2-3.7,1.9-5.4,1.7-.6,0-1.2,0-1.7,0-.7,0-1.5.1-2.2.1-1.3,0-2.7,0-4.1.5l-1.3.3v-1.3c0-.4,0-1-.1-1.5-.2-1.1-.4-2.3.3-3.1.4-.5.9-.8,1.6-.8,1-.1,1.4-.3,1.5-.4,0-.2-.3-.6-.5-.9-.2-.3-.4-.7-.6-1-.5-1-.9-2-1.4-2.9l-.9-1.9.5-.5c.7-.7,1.6-.7,2.2-.8.1,0,.2,0,.3,0-.6-.9-1.3-1.9-1.9-2.8-1.4-2.2-2.9-4.4-4.7-6.5l-6.1,9.4c0,0,.1,0,.2,0,.7,0,1.8.1,2.4,1.2l.3.5-3,6.5c.2,0,.4,0,.6,0,.8,0,1.9.1,2.6,1.3,1.1,2,.2,8.2-1.8,9.9-4,3.3-6.3,9.1-6,15.2.3,6.5,3.4,12.3,8.6,16ZM35.8,56.7c1.6,0,3.2,0,4.8,0,1,0,2.1,0,3.1,0,2.9,0,6.8-1.1,8.3-5.5,1.8-5.1,5.4-7.4,11.2-7.3,2.2,0,4.4,0,6.5,0,2.4,0,4.9-.1,7.3,0,5.7.2,9.3,3.6,9.8,9,.3,3.8-1,6.3-4.3,7.7-5,2.2-7.5,6.1-7.7,12-.2,7.1-3.6,10.4-10.9,10.6-3.2,0-6.4.1-9.6.1-1.4,0-2.9,0-4.3,0h0c-1.4,0-2.9,0-4.3,0-2.5,0-5.1.1-7.7.1s-1.2,0-1.9,0c-8,0-12.7-4.9-12.8-13.1-.1-8.5,4.1-13.2,12.3-13.5Z"/></svg>