<?xml version="1.0" encoding="UTF-8"?><svg id="a" xmlns="http://www.w3.org/2000/svg" viewBox="0 0 400 400"><path d="M336,188.5c-2.4-6.1-10-10.6-14.3-15.8-12.1-10.6,12.1,3.1,14.3-16.5h0c.3-4.6-.1-24.8,0-34.7.3-3.6-.1-6.9-3.4-8.9-10-10.3-20.4-20.3-30.5-30.6-4.9-3.4-9-12.1-15.2-12.3-6.2.9-16.4-2.6-20.7,3.7-2.9,19.1-4.5,30.6-27.7,31.2-22-.3-25-17.9-24.3-34.9-4,0-51-.1-63.2,0-6.3,0-8.8,6.3-8.1,11.8-.9,33.9-55.2,29.2-50.5-4.1-.5-2.1.9-6.6-.7-7.6-2.8,0-18.1,0-21.9,0-3-.4-6,2.6-5.7,5.6,0,11.3,0,32.2,0,41.6-.4,3.3.4,7.4,4.2,8,3.5,0,165.6,0,212.2,0,3.6,0,7.8,3.4,7.8,7.4.5,4.3-3.8,8.4-7.9,8.4-43.8,0-209.3,0-211.6,0-6,1.7-4.5,4.7-4.7,11.8,0,6.6,0,17.1,0,29.7.4,47.3-.8,116.7.5,122.4,7.7,8.4,16.3,16.4,24.4,24.6,4.8,5,9.7,9.8,14.6,14.6,2.5,2.3,4.8,6.2,8.2,6.9,13-.6,53.7.5,75.4,0,33.7,0,135.1,0,136.4,0,6.7,0,12.6-5.8,12.5-12.5-.4-8.9.3-118.7,0-149.6ZM260.7,277.4h0c-.3,6.1-5.5,11-11.5,11-8-.3-45.3.2-61.4,0-9.2,0-18.7,0-28,0-37.3-.2-64.8.5-70.4-.3-5.3-1-9.1-6.1-9.1-11.4.1-4.7,0-72.3,0-93.7.2-10.4-.4-12.3.3-16.7.7-5.2,6-9.3,10.9-9.4,7.2.3,122-.6,159.9.3,5.3.9,9.2,6,9.2,11.3.4,2.2-.3,86.6,0,108.9Z"/><path d="M107.5,84.7s0,0,0,0c.4,1.2,1,2.1,1.8,2.9.2.2.3.3.5.4l1.5.9c1.6.7,3.6,1,6.2,1,7.5,0,10.6-2.7,10.6-9.4v-21.9c0-1.9-.3-3.5-.8-4.7-.3-.8-.7-1.4-1.2-2,0,0,0,0-.1-.1-.2-.2-.5-.4-.7-.6-.1-.1-.3-.2-.4-.3-.3-.2-.5-.3-.8-.5-.4-.2-.9-.4-1.4-.5-.2,0-.5-.1-.7-.2-.4,0-.8-.2-1.3-.2-.2,0-.5,0-.7,0-.7,0-1.5-.1-2.3-.1h0c-2.2,0-4,.3-5.5.8-1,.4-1.9.8-2.6,1.4-1.3,1.1-2,2.7-2.3,4.9,0,.7-.1,1.5-.1,2.3v21.9c0,.8,0,1.6.1,2.2,0,.7.2,1.3.4,1.9Z"/><path d="M229.8,86.8s0,0,0,0c.4,1.2,1,2.1,1.8,2.9.2.2.3.3.5.4l1.5.9c1.6.7,3.6,1,6.2,1,7.5,0,10.6-2.7,10.6-9.4v-21.9c0-1.9-.3-3.5-.8-4.7-.3-.8-.7-1.4-1.2-2,0,0,0,0-.1-.1-.2-.2-.5-.4-.7-.6-.1-.1-.3-.2-.4-.3-.3-.2-.5-.3-.8-.5-.4-.2-.9-.4-1.4-.5-.2,0-.5-.1-.7-.2-.4,0-.8-.2-1.3-.2-.2,0-.5,0-.7,0-.7,0-1.5-.1-2.3-.1h0c-2.2,0-4,.3-5.5.8-1,.4-1.9.8-2.6,1.4-1.3,1.1-2,2.7-2.3,4.9,0,.7-.1,1.5-.1,2.3v21.9c0,.8,0,1.6.1,2.2,0,.7.2,1.3.4,1.9Z"/><path d="M165.4,220.1c4.5-5.1,4.3-15.7,3.4-22.1-3.1-21.6-36.6-20.4-52.6-17.1v18.2c6.6-.8,21.7-4,27.2,0,4.1,3.1,2.7,16.4-2.5,16.4h-15.1v17.7l1.3,1.3h16.4c3,2.3,3,12.7,1.4,15.2-3.9,6-24.8,1.9-31.2.4v18.2c14.4,4.3,49.3,5.9,54.5-12.5,1.4-4.8,1.5-19.7.2-24.5-1.1-4.3-3.9-6.1-8.1-7.1,1.2-1.8,3.4-2.1,5-4Z"/><path d="M182,192.1v21.6l16-9.5c0,1.3,1.3,3.8,1.3,4.8v61h23.4v-90h-21.2c-1.1,0-16.1,11.7-19.5,12.1Z"/></svg>