<?xml version="1.0" encoding="UTF-8"?><svg id="a" xmlns="http://www.w3.org/2000/svg" viewBox="0 0 115 115"><path d="M96.4,31.2l-.7-.7-.7-.7-.7-.7-.7-.7-.6-.6h-.1c0-.1-.6-.7-.6-.7h-.1c0-.1-.6-.7-.6-.7h-.1c0-.1-.6-.7-.6-.7h-.1c0-.1-.6-.7-.6-.7h-.1c0-.1-.6-.7-.6-.7h-.1c0-.1-.6-.7-.6-.7h-.1c0-.1-.6-.7-.6-.7h-.1c0-.1-.6-.7-.6-.7h-.1c0-.1-.6-.7-.6-.7h-.1c0-.1-1.1-1.2-1.1-1.2l-.2-.2-.3-.3-2.4-2.4h-21.8l-7.4,7.4h-29.2l-6.8,3.4v5l.7.7.7.7.7.7.7.7.7.7.7.7.7.7.7.7.7.7.7.7.7.7.7.7.7.7.7.7.7.7,3.7,3.7-3.9,3.9v3.5h-9.9v8.4l.7.7.7.7.7.7.7.7.7.7.7.7.5.5-4.5,11.3v7.9h.7v.7h.7v.7h.7v.7h.7v.7h.7v.7h.7v.7h.7v.7h.7v.7h.7v.7h.7v.7h.7v.7h.7v.7h.7v.7h.7v.7h.7v.7h7.9l11.3-4.5.5.5.7.7.7.7.7.7.7.7.7.7.7.7h8.4v-9.9h3.5l3.9-3.9,2.1,2.1,1.6,1.6.7.7.7.7.7.7.7.7.7.7.7.7.7.7.7.7.7.7.7.7.7.7.7.7.7.7.7.7.7.7h5l3.4-6.8v-29.2l7.4-7.4v-21.8l-.7-.7ZM54.2,46.8l-1.8,1.7v.4l3.5,3.5h.4l3.5-3.5v-.4l-4.9-4.9v-4.5l6.4-6.4h4.5l1.5,1.5,3.2-3.2,3.5,3.5-3.2,3.2,1.5,1.5v4.5l-3.2,3.2-3.5-3.5,1.8-1.7v-.4l-3.5-3.5h-.4l-3.5,3.5v.4l4.9,4.9v4.5l-6.4,6.4h-4.5l-1.5-1.5-3.2,3.2-3.5-3.5,3.2-3.2-1.5-1.5v-4.5l3.2-3.2,3.5,3.5ZM22.9,31.7l3-1.5h23.1l-13.8,13.8-12.3-12.3ZM22.8,80.1l5.4-13.4-5.4-5.4v-1.5h8.9l4.9,4.9-5.7,5.7,3.5,3.5,5.7-5.7,4.9,4.9v8.9h-1.5l-5.4-5.4-13.4,5.4h-2v-2ZM60.9,69.7l13.8-13.8v23.1l-1.5,3-12.3-12.3Z"/><polygon points="45.5 37.5 45.5 37.5 45.5 37.5 45.5 37.5"/></svg>