<?xml version="1.0" encoding="UTF-8"?><svg id="a" xmlns="http://www.w3.org/2000/svg" viewBox="0 0 115 115"><defs><style>.b{fill:#070707;}</style></defs><path class="b" d="M98.2,42.6c-7.5-9.4-13.3-16.7-18.7-23.7-1.2-1.6-2.7-2.3-4.7-2.3h0c-14.7,0-29.2,0-43,0h0c-1.9,0-3.4.5-4.7,3v38.4h-9.5c-1.8.9-2.8,1.9-3,4.6,1.9,2.8,3.9,5.6,5.8,8.5,5.5,7.9,11.1,16.2,16.8,24.3,1.5,2.1,3.8,3.1,6.9,3.1h0c.9,0,1.8,0,2.6,0,4.1,0,8.3,0,12.4,0,10.6,0,21.6,0,32.4,0,5.8,0,8.8-3.2,8.8-9.2,0-7,0-13.9,0-20.9,0-6.2,0-12.5,0-18.7,0-2.8-.7-5-2.3-7ZM53.3,89.6l-25.5-24.1h1.1c2.9-.4,4.4-.9,5.4-3.4V24.4h38v12.2c0,7.3,0,14.6,0,21.9v.6c0,1.9,0,3.7,1.5,5.4h0c.3.5.9.6,1.9.7.6,0,1.4.2,2.2.4l.8.3-25.3,23.8Z"/><path class="b" d="M53.5,71.5c2.8-.5,3.4-2.5,3.8-4.9v-.3c0,0,.3,0,.3,0,5.2-1.7,7.2-3.8,7.4-8,.3-5.1-2.7-8.8-8-9.9-.7-.2-1.5-.3-2.2-.4-1.8-.3-3.6-.6-5.3-1.3h-.2c0,0,0-.3,0-.3-.3-.9-.6-1.8.2-2.6h.2c2.8-1.5,5.4-.8,8,0,2,.5,3.8,1,5.6.6,2.3-1.6,2.2-3.4,1.6-5.1-1.3-1.6-3-2-5-2.5-.7-.2-1.4-.3-2.1-.6h-.3c0,0,0-.4,0-.4-.7-2.7-1.5-4.2-3.9-4.3-2.8-.1-3.3,1.6-3.9,4.3v.3c0,0-.3,0-.3,0-5.4,1.8-8,4.9-7.8,9.4.2,4.5,3.1,7.7,8.2,8.9.8.2,1.7.3,2.5.5.8.1,1.5.3,2.3.4h.2c1.2.3,2.6.6,3.5,2.4l.2.4-.3.3c-3.7,3-7.2,1.7-10.1,0-1.9-1.1-3.1-1.4-3.9-1.2-.9.3-1.6,1.3-2.6,3.5,1.2,2.9,1.4,3,8,6.1h.3c0,.1,0,.5,0,.5,0,2.7,1.2,4.3,3.8,4.4Z"/></svg>