<?xml version="1.0" encoding="UTF-8"?><svg id="a" xmlns="http://www.w3.org/2000/svg" viewBox="0 0 400 400"><path d="M58.4,302.2l.7,1.9c6.6,10.3,24.5,24.4,36.3,33.7,6,4.7,9.4,7.5,10.9,9.1,8.5,4.4,20.7,8.3,29.2,10.2,6.8,0,12.4,0,18.1,0h7c48.2,0,128.7.1,169.5,0,5.5-3.9,11.7-13,17.7-21.8,3.2-4.7,6.3-9.1,9.2-12.9,3.2-4.4,4.7-8.6,4.4-12.2v-.2c-.2-11.2-1.6-110.4-2.6-146.3h0c0,0,0-.2,0-.2.3-7.2-.9-12.1-4.3-17.1-1.8-2.8-3.5-5.8-5.1-8.7-3.3-6-6.7-12.1-11-16.4-23.6-20.1-64.8-55.3-76.6-65-3-2.5-7.9-3.1-12.3-3.6-.9-.1-1.7-.2-2.5-.3-13,.2-32.9.3-54,.4-47.9.3-107.6.7-119.2,1.7-11.3,1.9-20.8,11.2-22.2,21.8-.3,3.1-.3,5.9-.2,10.1,0,3.5.2,7.8,0,14,.3,46,.6,150.6.2,178.3.3,6.6,3.8,16.4,6.4,23.6ZM81.9,84.8l.3-.3c6.2-6.9,26.1-6.4,51.2-5.9,13.5.3,28.9.6,43.3-.2h.2c6.3,0,14.2,0,22.6-.2,13.7-.2,27.8-.4,34.6,0h.6c9.1,2,8.8,14.3,8.5,29.8-.1,6.5-.3,13.8.2,20.8h0c0,.1,0,.2,0,.2-.2,19.1.5,44.1,1.1,68.4,1.1,40.8,2.1,79.3-.4,93v.3c-2.7,7.9-20.3,8.1-51.1,7.8-13.5-.1-27.5-.3-39.9.6h-.1c-8.9.2-18.5.4-27.7.5-9.8.2-19.1.3-26.3.5-.4,0-.9,0-1.3,0-4.3,0-8.1-1.6-11-4.6-3.9-3.9-5.9-10.2-5.4-16.3l-.2-15.6c-.4-38.7-1.3-132.3-1.6-170.7,0-3.2.8-5.6,2.6-8.4Z"/><path d="M228.1,179.7c1.7-4.6.8-9.4-2.3-12.7h0c-3-3.6-7.6-4.1-12.4-4.7-2.2-.3-4.5-.5-6.6-1.1-8.4-2.5-9.2-10.3-9.8-16.6-.3-2.8-.5-5.5-1.3-7.6h0c-1.2-3.9-3.8-8.1-6.8-11.2-8.9-9.4-23-13-36.9-9.6-13,3.2-22.6,12-25.9,23.4v.2c-.7,1.7-1.7,4.1-4.1,5.5h-.1c-2.3,1.4-5.1,1.4-7.3,1.4h-.4c-.3,0-.6,0-.9,0-5,0-9.4,1.5-12.9,4.2-4.8,3.8-7.9,10-8.1,16.6-.2,6.1,1.9,11.6,6.1,15.4,4,3.9,11.2,6.2,20.9,6.5,15.3.9,31.6.3,47.5-.3,14.3-.5,29.1-1.1,43.2-.5,2.7,0,5.4.2,8.1-.3h.1c4.5-.6,8.4-3.9,10.1-8.6Z"/><path d="M202.8,256.9c-.4,4.8,1.6,11.3,8.9,13.7,3.9,1.4,8.3.7,11.9-1.9,3.5-2.5,5.6-6.5,5.5-10.5v-.2c0-3.7-1.6-7.3-4.6-9.9-2.5-2.1-5.5-3.3-8.5-3.3s-1.3,0-1.9.2c-7.6,1.1-10.8,7.1-11.2,11.9Z"/></svg>