<?xml version="1.0" encoding="UTF-8"?><svg id="a" xmlns="http://www.w3.org/2000/svg" viewBox="0 0 400 400"><path d="M53.4,272.3c19.2,23.9,43.5,51.7,64.9,74.5.5.6,1.1,1.2,1.6,1.8,6.2,6.6,12.5,13.5,21.2,15.1l189,.7c15.2-1.3,26.7-12.9,28.1-28.3,3-33.3,1.7-69.6.3-104.8-1.2-32.4-2.5-66-.3-97.2-.3-6.4-2.8-12.4-7.7-18.7-12-15.5-44-49.5-57.9-60.7-6.4-5.2-13.7-8.6-21.7-10.4l-193.9-.3c-20.8,3.8-35.8,19.2-39.3,40.1,1.6,23.7.5,49.3-.5,74-1.1,27.9-2.3,56.8.3,82.8,1.2,12.3,7.3,20.7,15.8,31.2ZM65.2,90.5c.9-10.1,6-16.4,15.1-18.8h.3c0,0,188.2.5,188.2.5l.5.2c8,3.4,11.9,9,12.6,18.1,2.1,24.3,1.1,50.4.2,75.6-.8,23.2-1.7,47.2-.2,69.7h0c0,.1,0,.3,0,.3-.4,11.1-7.6,18.4-19.2,19.4-13.2,1.1-26.8,1.5-40.6,1.5s-34.9-.6-52.1-1.2c-28.4-1-57.8-2.1-85.2-.3h-.1c0,0-.1,0-.2,0-10,0-18.6-8-19.2-18v-.2s0-.2,0-.2c1.6-22.4.6-46.5-.3-69.9-1-25.7-2-52.3.2-76.7Z"/><path d="M206.5,111.5l-85.8,85.9c-3.6,7-1.3,13.1,2.2,16.6,3.4,3.4,9.6,5.8,16.6,2.2l87-87c2.7-5.2,2.4-10.9-.9-15.2-3.4-4.5-9.1-6.3-15.1-4.9-1.2.3-2.4,1-3.9,2.4Z"/><path d="M132.8,108.9c-7.6,0-13.7,6.1-13.7,13.7s6.1,13.7,13.7,13.7,13.7-6.1,13.7-13.7-6.1-13.7-13.7-13.7Z"/><path d="M214.2,190.3c-7.6,0-13.7,6.1-13.7,13.7s6.1,13.7,13.7,13.7,13.7-6.1,13.7-13.7-6.1-13.7-13.7-13.7Z"/></svg>