<?xml version="1.0" encoding="UTF-8"?><svg id="a" xmlns="http://www.w3.org/2000/svg" viewBox="0 0 400 400"><defs><style>.b{fill:none;}</style></defs><path class="b" d="M214.2,251c1.4,1.4,2.7,2.7,3.5,3.5,1.5,1.4,1.8,1.2,2.8.2,5.3-5.2,30.1-29.8,35.2-34.9.4-.4.8-.8.7-1.3,0-.4-.6-1-1.4-1.8-1.6-1.6-4.7-4.7-6.9-6.9-1.7-1.7-2.8-2.9-3.4-3.1h0c-.3-.2-.6,0-.9.1-8.6,8.4-31.6,31.2-36,35.6-1.2,1.1-.5,1.7.7,2.9,1.3,1.3,3.7,3.7,5.8,5.8Z"/><path class="b" d="M129.4,180.9h-.2c-11.7-.2-20.3,12.1-16.4,23,5.6,16.4,29,15.3,33.4-1.3,2.9-10.7-5.7-21.8-16.8-21.7Z"/><path class="b" d="M244.5,120.4h0c0,0,0,0-.1-.1,0,0-.1,0-.2,0,.1,0,.2,0,.3,0Z"/><path class="b" d="M290.2,126.5c.7.3,1.3.7,2,1.1-.6-.4-1.3-.7-2-1.1Z"/><path class="b" d="M90.3,137.8c-12.9,1.9-22.2,14.1-21.9,26.8,0,9.1-.1,81.2,0,104.5h0c.7,12.1,9.9,22.6,21.8,24.5,8.7,1.1,11.7.2,29.7.5,40.2,0,140,0,149.7,0,14.4-.7,25.5-12.9,25.2-27.3,0-8.5,0-69,0-90.1-.2-9.9.6-11.4-.7-18.6-2.3-12.2-13.8-20.8-25.8-20.9-14.3.5-135-.9-178.1.5ZM189.6,235.9c12.8-12.8,40.8-40.9,47.8-47.8,2.5-2.6,7.6-3.6,11.1-1.7,2.4,1.2,3.3,2.5,5.8,4.9,4.2,4.3,9.9,9.9,14.4,14.4,4,4.3,8.9,7.3,8.7,13.1-.1,2.7-1.2,5.3-3.1,7-3.5,3.5-18.4,18.4-30.8,30.8-5.2,5.2-9,9-13.5,13.5-1.7,1.6-3.2,3.5-4.9,4.6-3.2,2.1-7.8,2.2-10.9,0h-.1c-6.8-5.9-15.9-15.9-21.9-21.6-2.8-2.6-5.5-5.3-5.7-9.2,0-3.6,1-5.9,3.1-8ZM164.1,201.4c-1.4,17.8-16.8,31.9-34.6,31.8h-.2c-18.6.2-34.7-15.7-34.8-34.3-.7-19.9,16.9-36.8,36.7-35.4,19.5.9,34.8,18.5,32.9,37.9Z"/><path class="b" d="M250.3,121.4c15,0,27.2-1.2,39,4.6-7.3-3.7-15.6-5.3-24-4.8-4.7,0-12.5,0-16.6,0-.4,0-.9,0-1.2,0,.9.2,1.9.3,2.9.3Z"/><path class="b" d="M107.5,121.4c-4.8,0-9,0-11.6,0,2.5,0,6.7,0,11.6,0Z"/><path class="b" d="M172.8,86.5h1.2c-1.9,0-3.7,0-5.6,0,1.4,0,2.8,0,4.4,0Z"/><path class="b" d="M196.4,102.4c-4.8,0-17,0-24.7,0-3.3.1-5.8-.3-8.8.4-3.5.7-6.8,4.2-7.1,8.1v.2c-.3,2.4-.3,5,0,7.4.2,1.7,1.1,1.4,3,1.4.6,0,1.2,0,1.9,0,10.6,0,40.5,0,45.9,0,1.9,0,1.1-5.4,1.2-7.5,0-6.3-5.3-10.5-11.3-9.9Z"/><path class="b" d="M179.6,86.5c-.1,0-.2,0-.3,0,0,0,0,0,0,0h.3Z"/><path class="b" d="M195.6,86.5c-1.5,0-3.1,0-4.8,0h2.9c.7,0,1.3,0,1.9,0Z"/><path d="M335.5,168.9c-.1-.1-.2-.2-.4-.4,0,0-.1-.1-.2-.2-.1-.1-.2-.2-.4-.4,0,0-.1-.1-.2-.2-.1-.1-.2-.2-.4-.4,0,0-.1-.1-.2-.2-.1-.1-.2-.2-.4-.4,0,0-.1-.1-.2-.2-.1-.1-.2-.2-.4-.4,0,0-.1-.1-.2-.2-.1-.1-.2-.2-.4-.4,0,0-.1-.1-.2-.2-.1-.1-.2-.2-.4-.4,0,0-.1-.1-.2-.2-.1-.1-.2-.2-.4-.4,0,0-.1-.1-.2-.2-.1-.1-.2-.2-.4-.4,0,0-.1-.1-.2-.2-.1-.1-.2-.2-.4-.4,0,0-.1-.1-.2-.2-.1-.1-.2-.2-.4-.4,0,0-.1-.1-.2-.2-.1-.1-.2-.2-.4-.4,0,0-.1-.1-.2-.2-.1-.1-.2-.2-.4-.4,0,0-.1-.1-.2-.2-.1-.1-.2-.2-.4-.4,0,0-.1-.1-.2-.2-.1-.1-.2-.2-.4-.4,0,0-.1-.1-.2-.2-.1-.1-.2-.2-.4-.4,0,0-.1-.1-.2-.2-.1-.1-.2-.2-.4-.4,0,0-.1-.1-.2-.2-.1-.1-.2-.2-.4-.4,0,0-.1-.1-.2-.2-.1-.1-.2-.2-.4-.4,0,0-.1-.1-.2-.2-.1-.1-.2-.2-.4-.4,0,0-.1-.1-.2-.2-.1-.1-.2-.2-.4-.4,0,0-.1-.1-.2-.2-.1-.1-.2-.2-.4-.4,0,0-.1-.1-.2-.2-.1-.1-.2-.2-.4-.4,0,0-.1-.1-.2-.2-.1-.1-.2-.2-.4-.4,0,0-.1-.1-.2-.2-.1-.1-.2-.2-.4-.4,0,0-.1-.1-.2-.2-.1-.1-.2-.2-.4-.4,0,0-.1-.1-.2-.2-.1-.1-.2-.2-.4-.4,0,0-.1-.1-.2-.2-.1-.1-.2-.2-.4-.4,0,0-.1-.1-.2-.2-.1-.1-.2-.2-.4-.4,0,0-.1-.1-.2-.2-.1-.1-.2-.2-.4-.4,0,0-.1-.1-.2-.2-.1-.1-.2-.2-.4-.4,0,0-.1-.1-.2-.2-.1-.1-.2-.2-.4-.4,0,0-.1-.1-.2-.2-.1-.1-.2-.2-.4-.4,0,0-.1-.1-.2-.2-.1-.1-.2-.2-.4-.4,0,0-.1-.1-.2-.2-.1-.1-.2-.2-.4-.4,0,0-.1-.1-.2-.2-.1-.1-.2-.2-.4-.4,0,0-.1-.1-.2-.2-.1-.1-.2-.2-.4-.4,0,0-.1-.1-.2-.2-.1-.1-.2-.2-.4-.4,0,0-.1-.1-.2-.2-.1-.1-.2-.2-.4-.4,0,0-.1-.1-.2-.2-.1-.1-.2-.2-.4-.4,0,0-.1-.1-.2-.2-.1-.1-.2-.2-.4-.4,0,0-.1-.1-.2-.2-.1-.1-.2-.2-.4-.4,0,0-.1-.1-.2-.2-.1-.1-.2-.2-.4-.4,0,0-.1-.1-.2-.2-.1-.1-.2-.2-.4-.4-3.1-3.1-6.2-6.2-9.3-9.3-3-2.9-5.9-5.2-8.8-6.9,3,1.8,5.9,4,8.5,6.5,0,0-.2-.3-.3-.4,0,0-.1-.1-.2-.2-9.4-10.1-22.9-15-36.4-14.2-5,0-14,0-17.8,0-.5,0-.9,0-1.2.2-.2-.6-1.2-1.5-2.1-2.4-7.9-7.4-15.7-15.3-23.6-22.6-.1,0,0,.1.2.5-3.2-3.8-7.6-6.6-12.8-7.7-2.8-.7-5.3-.9-7.8-.9.4,0,.7,0,1.1,0,5.6,0,11.5,1.1,16.2,4,.8.4,2.4,1.6,2.8,1.7-5.5-5.2-13.9-7.6-21.5-7.2-5.4,0-18,0-25.4,0-16.7-1.4-31.4,7.1-32.9,24.7-.2,2.1-.2,4.7-.2,6.6,0,1.8-.3,3-1,3.3-9.4.7-34.9,0-43.3.3-24,0-43.5,19.5-43.5,43.5v104.6c0,12.1,4.9,23,12.9,30.9.5.6,1.1,1.2,1.7,1.7.2.2.4.4.6.6.2.2.4.4.6.6.2.2.4.4.6.6.2.2.4.4.6.6,9.5,9.5,19.1,19.1,28.6,28.6,5.7,6,12.6,11.4,20.8,13.9,4.4,1.4,9.6,2.2,14.1,2.2,41.6,0,165.5,0,173.5,0,24,0,43.5-19.5,43.5-43.5v-104.6c0-11.4-4.6-22.4-12.7-30.5ZM265.3,121.2c8.5-.5,16.7,1.2,24,4.8-11.8-5.8-23.9-4.5-39-4.6-1.1,0-2,0-2.9-.3.4,0,.8,0,1.2,0,4.1,0,11.9,0,16.6,0ZM292.1,127.5c-.7-.4-1.3-.7-2-1.1.7.3,1.3.7,2,1.1ZM244.5,120.4h0c-.1,0-.2,0-.3,0,0,0,.1,0,.2,0,0,0,0,0,.1.1ZM268.3,137.2c12.1,0,23.6,8.7,25.8,20.9,1.3,7.2.5,8.7.7,18.6,0,21.1,0,81.6,0,90.1.3,14.4-10.8,26.5-25.2,27.3-9.7.1-109.4,0-149.7,0-18-.3-21,.6-29.7-.5-12-1.8-21.1-12.4-21.8-24.4h0c-.2-23.4,0-95.6,0-104.6-.3-12.7,9.1-24.9,21.9-26.8,43.1-1.5,163.8,0,178.1-.5ZM207.7,112.3c0,2.1.8,7.5-1.2,7.5-5.4,0-35.3,0-45.9,0-.7,0-1.3,0-1.9,0-2,0-2.8.3-3-1.4-.2-2.4-.2-5,0-7.4v-.2c.3-3.8,3.6-7.3,7.1-8.1,3-.7,5.6-.2,8.8-.4,7.7,0,19.9,0,24.7,0,6-.5,11.3,3.6,11.3,9.9ZM190.8,86.5c1.7,0,3.3,0,4.8,0-.6,0-1.3,0-1.9,0h-2.9ZM179.6,86.5h-.3s0,0,0,0c.1,0,.2,0,.3,0ZM174,86.5h-1.2c-1.6,0-3,0-4.4,0,1.8,0,3.7,0,5.6,0ZM107.5,121.4c-4.9,0-9.1,0-11.6,0,2.6,0,6.7,0,11.6,0Z"/><path d="M300.4,133.7s0,0,0,0c0,0,0,0,0,0Z"/><path d="M131.2,163.4c-19.8-1.4-37.4,15.5-36.7,35.4,0,18.6,16.2,34.5,34.8,34.3h.2c17.8,0,33.2-14,34.6-31.8,1.9-19.5-13.4-37.1-32.9-37.9ZM146.2,202.5c-4.3,16.7-27.7,17.7-33.4,1.3-3.9-10.9,4.7-23.2,16.4-23h.2c11.1-.1,19.7,11,16.8,21.7Z"/><path d="M192.1,253.1c6,5.7,15.1,15.7,21.9,21.5h.1c3.1,2.2,7.8,2.1,10.9,0,1.7-1.1,3.2-3,4.9-4.6,4.5-4.5,8.3-8.3,13.5-13.5,12.4-12.4,27.3-27.3,30.8-30.8,1.8-1.7,3-4.3,3.1-7,.2-5.8-4.7-8.9-8.7-13.1-4.5-4.5-10.1-10.1-14.4-14.4-2.5-2.4-3.4-3.7-5.8-4.9-3.5-1.8-8.6-.8-11.1,1.7-7,7-35,35-47.8,47.8-2.1,2.1-3.2,4.4-3.1,8,.2,4,2.9,6.6,5.7,9.2ZM207.7,242.3c4.4-4.3,27.4-27.2,36-35.6.3-.2.5-.3.9-.2h0c.6.3,1.7,1.4,3.4,3.2,2.3,2.3,5.3,5.3,6.9,6.9.9.9,1.3,1.4,1.4,1.8.1.5-.4.9-.7,1.3-5.1,5-29.9,29.6-35.2,34.9-1,1-1.3,1.2-2.8-.2-.8-.8-2.1-2-3.5-3.5-2.1-2.1-4.5-4.5-5.8-5.8-1.2-1.2-1.9-1.8-.7-2.9Z"/></svg>