<?xml version="1.0" encoding="UTF-8"?><svg id="a" xmlns="http://www.w3.org/2000/svg" viewBox="0 0 400 400"><defs><style>.b{fill:none;}</style></defs><polygon class="b" points="271.2 93.7 231.4 93.7 221 111.7 271.2 161.9 271.2 93.7"/><polygon class="b" points="92 193.3 92 288.8 104.8 288.8 135.1 236.3 92 193.3"/><path class="b" d="M218.4,92h-59v61.5c0,3.2-2.6,5.9-5.9,5.9h-61.5v19.1l48.4,48.4,77.9-135Z"/><polygon class="b" points="116.8 288.8 272.9 288.8 272.9 180.8 213.5 121.3 116.8 288.8"/><path d="M295.6,73.1c-.3-.4-.6-.8-.7-1.3s-.3-.8-.5-1.2l-1.6-2.8h0s0,.2,0,.2c0,0,0,0,0,0h0c-.5-.1-1-.2-1.4-.2h-135.8c-.8,0-1.6.3-2.1.9h0s-84.7,84.7-84.7,84.7c-.6.6-.9,1.3-.9,2.1v151.5c0,.2,0,.4,0,.6,0,.3,0,.5.1.9h0s0,0,0,0v.4c-.1,0,0,0,0,0,.1.4.3.7.4,1,0,0,0,0,0,0,.6,1,1.3,1.7,2.2,2.2.7.4,1.5.6,2.3.7l1.5.4c.6.1,1.1.4,1.5.9,4.8,5.2,38.1,38.9,40.9,38.9h206.3c3.7,0,6.9-2.4,8.2-5.9h.6V114.6h0c0-2.9-30.1-34.9-36.4-41.5ZM233.2,93.7h35.1c1.7,0,3,1.4,3,3v57.8c0,2.7-3.3,4.1-5.2,2.1l-43.4-43.4c-1-1-1.2-2.5-.5-3.7l8.3-14.4c.5-.9,1.5-1.5,2.6-1.5ZM92,162.5c0-1.7,1.4-3,3-3h58.5c3.2,0,5.9-2.7,5.9-5.9v-58.5c0-1.7,1.4-3,3-3h50.7c2.3,0,3.8,2.5,2.6,4.6l-73.3,127c-1,1.7-3.4,2-4.8.6l-44.7-44.7c-.6-.6-.9-1.3-.9-2.1v-14.8ZM92,285.7v-85.1c0-2.7,3.3-4.1,5.2-2.1l36.2,36.2c1,1,1.2,2.5.5,3.7l-28.2,48.9c-.5.9-1.5,1.5-2.6,1.5h-8c-1.7,0-3-1.4-3-3ZM269.9,288.8H122.1c-2.3,0-3.8-2.5-2.6-4.6l92-159.4c1-1.7,3.4-2,4.8-.6l55.8,55.8c.6.6.9,1.3.9,2.1v103.7c0,1.7-1.4,3-3,3Z"/><path d="M248.6,226.4c-.2-15.4-13-27.9-28.8-27.9s-28.6,12.5-28.8,27.9c0,.1,0,.3,0,.4,0,6,1.9,11.8,5.5,16.6l17.6,30c.1.3.3.5.5.8l.6.9h.2c1.2,1.1,2.8,1.7,4.5,1.7s2.9-.5,4-1.4l.3.2.8-1.3c.4-.5.6-.9.7-1.2l17.2-29.4c3.7-4.9,5.7-10.8,5.7-16.9s0-.3,0-.4ZM219.5,238.4c-6.7,0-12.1-5.4-12.1-12.1s5.4-12.1,12.1-12.1,12.1,5.4,12.1,12.1-5.4,12.1-12.1,12.1Z"/></svg>