<?xml version="1.0" encoding="UTF-8"?><svg id="a" xmlns="http://www.w3.org/2000/svg" viewBox="0 0 115 115"><path d="M94.3,33.8l-12.5-14.1c-1.5,0-3,0-4.5,0h-.6c-6.5,0-12.7-.2-18.8.2-1.4,1.6-1.3,3.4-1.2,5.4,0,1.5,0,3-.4,4.6l-.6,1.8-1.4-1.3c-1.8-1.6-3.3-3.4-4.7-5.1-1.6-1.9-3.3-3.9-5.3-5.5h-3.7c-6.5,0-13.3-.2-20,0-.9,2-1.3,3.7-1.3,5.7,0,13.8,0,26.4,0,38.6,0,2.6.6,4.8,1.7,6.8,1,1.8,2.1,3.5,3.2,5.3l.3.5c2.9,4.9,6,9.9,8.9,14.9.9,1.6,2.2,2.6,4.2,3.2,1.3.4,2.8.6,5,.6,5.6,0,11.2,0,16.8,0h16.3c1.1,0,2.2,0,3.3,0h.3c2.7,0,5.5,0,8.2,0,5-.2,7.8-2.9,8.1-8,0-.4,0-.8,0-1.3v-.7s0-11.2,0-11.2c0-10.9,0-22.2,0-33.3,0-2.4-.2-4.6-1.3-7ZM25.7,25.3h14.1v9.9l-1,.2c-2.3.5-4.5.5-6.9.4-1.6,0-3.3,0-4.9,0h-1.4c0,.1,0-10.5,0-10.5ZM39.9,67.4h0c0,0-6.4,10.3-6.4,10.3l-1.1-.9c-2.1-1.7-3.3-3.9-4.5-6.1-.6-1.2-1.2-2.3-2-3.3l-.2-.3v-25h14.3v25.2ZM76.9,76.3l-.3.7h-12.9l-.4-.3c-.2-.1-.3-.3-.5-.5-.1-.1-.4-.6-.4-1.2,0-15.1,0-30.1,0-45.5v-3.7l1-.2c2.9-.6,5.8-.5,8.6-.4,1.2,0,2.4,0,3.6,0h.6s.4.5.4.5c1.1,1.3.9,2.7.8,3.6,0,.2,0,.4,0,.6v.5s-.4.4-.4.4c-.6.5-1.2.9-1.8,1.1-.8.4-1.2.6-1.4,1.1-.5,1-.5,2.1,0,3.3.2.4.5.5,1.3.8.6.2,1.3.5,1.9,1.1l.4.4v8.4l-.3.4c-.7.8-1.6,1-2.3,1.2-.2,0-.5.1-.7.2h0c-.8,1.3-.8,2.3-.5,3.5.6,1,1.6,1.7,2.9,2l.9.2v8.7l-.3.4c-.7.8-1.5,1.2-2.1,1.5-.6.3-1,.5-1.1.8-.5,1.1-.5,2.2-.3,2.5.4,1,1,1.3,1.8,1.7.6.3,1.3.7,1.8,1.4v.2c.1,0,.2.2.2.2.3,1,.6,2.6-.3,4.4Z"/></svg>