<?xml version="1.0" encoding="UTF-8"?><svg id="a" xmlns="http://www.w3.org/2000/svg" viewBox="0 0 400 400"><path d="M335.6,139.2c-.8-9.3-4.3-14.4-10.4-20.7-23.5-23.8-56.5-53-78.8-71.4-4.8-4-7-5.8-12.8-6.3-18.1-1.6-37.9-.8-57.1-.1-16.1.6-32.8,1.2-48.4.5-5.3,1.1-9.8,6.8-9.8,12.3l14,55-2.1.8c-29.7,11.4-55.7,35.2-71.4,65.4-16.2,31.3-19.7,65.3-9.8,95.7,4.6,14.1,33.9,58.2,44.6,68.6,4.3,4.2,9.6,7,14.7,7.7l202,.4c12.7-.9,23.3-11,25.3-24.2-1.8-28.4-.7-58.7.3-88.1,1.2-32,2.3-65.1-.3-95.6ZM217.7,65.5l-7.3,34.6h-55.1c0,.1-8-34.6-8-34.6h70.4ZM292.4,249.1c-2.9,30.3-30.2,56-62.1,58.5-13,1-30.8,1.5-48.6,1.5s-35.8-.5-49.4-1.5c-33.9-2.6-60.6-28.2-63.4-61-2.5-29.7,6.5-58.7,25.4-81.6,19-23,45.7-37.1,75.3-39.9,33.9-3.2,66.9,8.5,90.5,32.2,23.8,23.9,35.6,57.4,32.3,91.8Z"/><path d="M213.2,223.4c-4.3-7.7-14.7-13.1-23.8-17.9-3-1.6-5.8-3-8.1-4.5l-.9-.5c-3.6-2.2-5.2-3.2-5.5-6.6-.3-3.2-.5-6.8,1-8.6.9-1.1,2.5-1.7,4.8-1.9,8.1-.6,17.2.8,25.8,4l3.4,1.3v-29.3l-1.3-.7c-4.4-2.3-9.5-3-14.1-3.5v-8.8h-29.3v10.6c-11.2,2.9-18.7,10.5-20.8,21-1.3,6.6-1.3,19.1,0,25.3,3.2,14.2,15.7,20.5,26.8,26.1,3.6,1.8,7,3.5,10.1,5.5,4.2,2.6,4.9,4,4.7,8.8-.1,3-1.3,5.8-8.8,6.4-9,.6-19.2-1-28.7-4.6l-3.4-1.3v29.9l1.6.6c5.9,2.2,12.2,3.1,17.4,3.5v8.8h27.4l1.9-1.9v-8.6c13.8-3.3,22.5-12.9,23.4-26,.9-12.7-.3-21.6-3.5-27.3Z"/></svg>