<?xml version="1.0" encoding="UTF-8"?><svg id="a" xmlns="http://www.w3.org/2000/svg" viewBox="0 0 115 115"><defs><style>.b{fill:#050505;}</style></defs><path class="b" d="M99.3,43.4c-1.4-1.5-2.8-3-4.2-4.6-1.9-2.1-3.9-4.3-5.9-6.3-5.7-5.8-13.8-6.6-20.2-1.8-2.8,2.1-4.5,1.6-6.9-.1-5.6-4.1-12.3-4.1-17.6,0-3.2,2.4-5,1.5-7.3-.1-6.2-4.4-14.2-3.7-19.4,1.7-1.3,1.3-2.3,2.9-3.4,4.5-.4.7-.9,1.3-1.3,2v8.3c5.8,10.3,13,19.9,20,29.1,2,2.7,4,5.3,6,8,1.7,2.4,4.2,3.4,7.8,3.4h0c2.8,0,5.7,0,8.5,0s6.5,0,9.7,0c9.1,0,18.5,0,27.8,0,6.3,0,8.9-2.6,9-9,0-5.9,0-11.9,0-17.7,0-3.5,0-6.9,0-10.4,0-2.9-.8-5.1-2.6-7ZM28.9,52.3c0,0-.2,0-.3,0-2.4,0-4.8-1-6.6-2.7-1.8-1.8-2.8-4.1-2.7-6.6,0-5,4.2-9,9.2-9h0c5,0,9.1,4,9.2,9,0,5-3.9,9.1-8.9,9.3ZM53.3,52.3s0,0-.1,0c-5,0-9.1-4.2-9.1-9.1,0-2.5,1-4.8,2.8-6.5,1.8-1.8,4.3-2.7,6.9-2.6,5,.2,9,4.4,8.8,9.4-.2,5-4.2,8.9-9.2,8.9ZM84.5,49.7c-1.7,1.7-4,2.6-6.5,2.6s-.2,0-.3,0c-5-.2-9.1-4.5-8.9-9.4.1-4.9,4.3-8.9,9.3-8.9h0c5,0,9.1,4.1,9.1,9.1,0,2.5-1,4.8-2.8,6.6Z"/></svg>