<?xml version="1.0" encoding="UTF-8"?><svg id="a" xmlns="http://www.w3.org/2000/svg" viewBox="0 0 400 400"><path d="M117.8,80.3c.6.6,6.4.7,9.6,3.4,8.2,7,6.2,22-3.9,25.5-4.7,1.6-33,1.8-38.5.9-11.4-1.9-15.5-16.6-8.1-24.9,3.6-4,10-4.1,10.9-4.9s1.1-5.2,2.2-7.1c5.6-9.9,20.1-9.9,25.8,0s1.8,6.8,2.2,7.1Z"/><path d="M233.5,51.1c4.2-.7,8.2,0,11.5,2.8,32,34.2,69.7,66,98.8,102.7,5.2,6.5,10.8,13.4,11.2,22.2-3.2,45.4,4.1,96.2,0,141-1.3,14.4-12.4,25.7-26.6,27.8-64.2-3.8-134.3,5.1-197.8,0-27.7-2.2-60.6-36.2-84.1-50.7-6-7.6-.7-20.3,2.2-28.8,14.4-42.6,51.1-95.5,80.6-129.5,6.4-7.4,17.2-20.4,24.7-25.9,8.4-6.2,21.7-9.5,30.2-15.5,14.6-10.3,29-33.2,43.3-43.2,1.9-1.4,3.5-2.4,5.9-2.8ZM289.4,162.1l-8.1-30.9-45.5-44.5c-2.6.5-30.1,31.4-36,35.8-8.3,6.1-20.8,9-29.1,15.4-3,2.3-35.3,37.3-33.3,39,13.4-1.8,29-23.3,41.3-22.2s20.6,19,28.1,25.2c7.1,5.8,16.3,11.6,25,14.4,2.3-.4,19.4-33.5,26.8-37.7,9-5.1,21.8,2.7,30.8,5.5ZM310.4,273.3c-2.1-25.9-7.5-51.3-13-76.6l-24.7-9.5c-2.4.3-20.3,30.4-24.1,34.8-8,9.2-12.9,7.6-23.4,3.7-20.3-7.6-36.7-22-51.3-37.5-18.1,13.7-39.7,22.8-62.4,25.1-13.2,18.1-25.1,38.6-32.2,59.9h231.1Z"/></svg>