<?xml version="1.0" encoding="UTF-8"?><svg id="a" xmlns="http://www.w3.org/2000/svg" viewBox="0 0 400 400"><defs><style>.b{fill:none;}</style></defs><path class="b" d="M268.8,118.7c-14.7-43.1-57.8-73.7-103.4-73-64.7-.5-117.3,59.4-107.4,122.8,1.4,7.3,4.1,12.5,8.2,15.9,14,11.1,38.8,1.4,59.9-2.3,9.9-1.5,13.6,4.8,13.2,13.8-.4,12.7-1.4,23.3-2.4,35.7-2.7,31.5-2.5,32.8,28.9,32.5,3.7,0,7.8-.1,11.2-.1,5.7,0,10.8,0,14.9-3.8,3.4-3.2,3.7-7.1,3.4-11.3-.6-11.4-2.3-44.7-2.8-54.7-.8-5.4,2.2-11.1,8.1-12,3.2-.5,6.6.2,9.8.9,13.1,3,26.2,7.1,38.9,6.4h.2c19.6-1.9,26-17.7,25.3-35.8-.1-11.8-2.2-23.7-6.1-34.8ZM69.2,113.5h0c0-.2.1-.4.2-.5,0,.2-.1.3-.2.5ZM89.4,119.7c-7.5,0-14.4-2.8-19.7-7.4,8.7-18.3,22.6-33.7,39.8-44.2,5.9,5.4,9.6,13.2,9.6,21.9,0,16.4-13.3,29.7-29.7,29.7ZM163.8,161.8c-16.4,0-29.7-13.3-29.7-29.7s13.3-29.7,29.7-29.7,29.7,13.3,29.7,29.7-13.3,29.7-29.7,29.7ZM238.2,119.7c-16.4,0-29.7-13.3-29.7-29.7s3.7-16.5,9.6-21.9c17.2,10.5,31.1,25.9,39.8,44.2-5.3,4.6-12.1,7.4-19.7,7.4Z"/><path d="M307,151.3c-8.3-25.7-13.4-40.5-22.1-51h0c-28.5-30.6-59.6-61.2-102.1-65.6C112.6,25.9,46.9,80,43.6,151c-1.2,18.4,5,43.7,20.1,55,12.2,8.8,41.4,24.9,52.3,39,2.6,3.2,4.4,6.5,5.2,9.6,1.1,3.9.6,7.3,1.6,11.1,4.3,15.9,32.3,49.5,54.7,53,7.2,1.3,14.4-1.8,21.2-4.2,32.2-12.4,99.6-32.1,109.2-47.9,18-31.4,9.6-77.5-1.1-115.3ZM249.5,189.3h-.2c-12.7.7-25.8-3.4-38.9-6.4-3.2-.7-6.6-1.4-9.8-.9-5.9.9-8.9,6.6-8.1,12,.5,10.1,2.2,43.3,2.8,54.7.3,4.2,0,8.1-3.4,11.3-4.1,3.9-9.2,3.7-14.9,3.8-3.5,0-7.6.1-11.2.1-31.5.4-31.7-.9-28.9-32.5,1.1-12.4,2-23,2.4-35.7.4-9-3.3-15.3-13.2-13.8-21.1,3.7-45.9,13.4-59.9,2.3-4.1-3.4-6.8-8.6-8.2-15.9-9.9-63.3,42.7-123.2,107.4-122.8,45.6-.7,88.7,29.9,103.4,73,3.9,11.2,6,23,6.1,34.8.7,18.1-5.7,33.9-25.3,35.8Z"/><path d="M163.8,102.3c-16.4,0-29.7,13.3-29.7,29.7s13.3,29.7,29.7,29.7,29.7-13.3,29.7-29.7-13.3-29.7-29.7-29.7Z"/><path d="M69.2,113.5c0-.2.1-.3.2-.5,0,.1-.1.3-.2.4h0Z"/><path d="M109.5,68c-17.2,10.5-31,25.9-39.8,44.2,5.3,4.6,12.1,7.4,19.7,7.4,16.4,0,29.7-13.3,29.7-29.7s-3.7-16.5-9.6-21.9Z"/><path d="M218.1,68c-5.9,5.4-9.6,13.2-9.6,21.9,0,16.4,13.3,29.7,29.7,29.7s14.4-2.8,19.7-7.4c-8.7-18.3-22.6-33.7-39.8-44.2Z"/></svg>