<?xml version="1.0" encoding="UTF-8"?><svg id="a" xmlns="http://www.w3.org/2000/svg" viewBox="0 0 400 400"><path d="M348.8,142.2c-.7-9.5-3.8-15.9-10.3-21.4l-113.4-78.1c-9.6-4.7-13.3-1.3-19.5,7.3-11.2,15.6-21.3,33.5-31.1,50.7-9.5,16.8-19.4,34.2-30.4,49.7-11,31.1-19.4,59.8-25.7,88l-.2,1-20.5,12.3v-24.7c0-1.5,1-2.3,3.3-4.2,3.6-2.9,10.4-8.4,11.4-14.7,3.3-20.8-10.7-48.9-26.4-63.3-19.8,17.5-28.8,44.7-27.6,58.2.8,9.3,5.4,16.3,13.5,20.9l1.3.7v40.5s-1.2.7-1.2.7c-2.1,1.3-4.6,2.7-7.2,4.1-8.7,4.8-20.7,11.3-21.5,18.6-.4,3.4,1.7,7.1,6.3,11,11.5,9.9,56.8,41.1,67.6,44.2,3.5,1,7.7,1.8,10.9,2,32.6,2.6,67.6,1.4,101.5.3,31.2-1,63.5-2.1,94.1-.3,12.3-1.1,22.6-10.5,25-23.1-1.4-27.9-.5-57.2.4-85.6,1-31.6,2.1-64.3-.2-94.9ZM148.3,218c2.9-7.6,5.2-16.2,7.4-24.4,2.9-10.7,5.8-21.7,10.2-31.4,6-13.4,15.2-27,24.2-40.2,7.9-11.7,16.1-23.9,22-35.6l.3-.7,5.9-3.3,33.2,79.1c6.9,10,13.4,7.4,24.1,1.8,2.3-1.2,4.6-2.4,7-3.4l2.7-1.2,10.7,42.3-62,15.5h-.4c-6.1-.6-13.9-3.6-22.1-6.9-9-3.6-18.4-7.3-24.1-6.7-2.9.3-13.9,6.6-21.1,10.8-9.9,5.7-13.5,7.7-15.5,7.7-.7,0-1.2-.3-1.7-.7l-1.4-1.1.6-1.7ZM296.3,270.8l-.7,6H104.2l85.2-48,44.4,13.5,63.6-15.4.4,2.7c1.9,13.9.2,27.7-1.4,41.2Z"/><path d="M116.5,59c-2.6-2.2-6.5-3-8.8-3.4-.1,0-.3,0-.4,0,0-.2-.1-.5-.2-.7-.4-1.8-.9-4.1-1.8-5.6-3.1-5.4-8.7-8.7-15-8.7-6.3,0-11.9,3.2-15,8.7-.8,1.5-1.4,3.8-1.8,5.6,0,.2-.1.5-.2.8-.2,0-.4,0-.6.1-2.6.6-7.1,1.6-10.1,5-4.2,4.8-5.5,11.6-3.3,17.9,2.1,5.9,6.9,10.1,12.8,11,2.4.4,8.1.6,14.6.6,10.1,0,21.8-.5,25-1.6,5.3-1.8,9.2-6.6,10.3-12.6,1.2-6.5-.9-13.1-5.6-17Z"/></svg>