<?xml version="1.0" encoding="UTF-8"?><svg id="a" xmlns="http://www.w3.org/2000/svg" viewBox="0 0 400 400"><path d="M310.4,127.2h0c0-.1,0-.3,0-.4,0-4.9-2.4-9.2-6-12-.8-1.1-1.8-2.1-2.9-2.9-.8-1.1-1.8-2.1-2.9-2.9-.8-1.1-1.8-2.1-2.9-2.9-.8-1.1-1.8-2.1-2.9-2.9-.8-1.1-1.8-2.1-2.9-2.9-.8-1.1-1.8-2.1-2.9-2.9-.8-1.1-1.8-2.1-2.9-2.9-.8-1.1-1.8-2.1-2.9-2.9-.8-1.1-1.8-2.1-2.9-2.9-.8-1.1-1.8-2.1-2.9-2.9-.8-1.1-1.8-2.1-2.9-2.9-.8-1.1-1.8-2.1-2.9-2.9-.8-1.1-1.8-2.1-2.9-2.9-.8-1.1-1.8-2.1-2.9-2.9,0,0,0,0,0,0-.6-.8-1.3-1.6-2.1-2.2-.2-.2-.4-.3-.6-.5-.5-.4-1-.7-1.5-1.1-.5-.3-.9-.5-1.4-.8-.3-.1-.6-.3-.8-.4-.7-.3-1.5-.5-2.3-.7-.2,0-.4,0-.6-.1-.9-.2-1.8-.3-2.7-.3s-.2,0-.3,0h-30.8c-.5-1.2-1.5-2.2-2.8-2.6-.5-1.4-1.5-2.4-2.9-2.9-.5-1.4-1.5-2.4-2.9-2.9-.5-1.4-1.5-2.4-2.9-2.9h0c-.3-.9-.9-1.7-1.6-2.2,0,0,0,0,0,0-.3-.3-.7-.4-1.1-.6,0,0-.2,0-.2,0-.4-.1-.8-.2-1.3-.2,0,0,0,0,0,0h0s-53.2,0-53.2,0h0s0,0-.1,0c-1,0-1.8.3-2.6.8-1.2.8-2,2.2-2,3.8s0,0,0,0v9.7h-42.3s0,0,0,0c-3.1,0-6,1-8.5,2.6-4,2.7-6.7,7.3-6.7,12.5h0c0,.1,0,.3,0,.4h0v203.6h0s0,0,0,0c0,0,0,0,0,0h0c0,.9.1,1.8.3,2.7,0,.2,0,.4.1.6.2.8.4,1.5.7,2.3.1.3.2.6.4.9.2.5.5.9.7,1.4.3.5.7,1,1.1,1.5.2.2.3.4.5.6.7.8,1.4,1.5,2.2,2.1,0,0,0,0,0,0,.8,1.1,1.8,2.1,2.9,2.9.8,1.1,1.8,2.1,2.9,2.9.8,1.1,1.8,2.1,2.9,2.9.8,1.1,1.8,2.1,2.9,2.9.8,1.1,1.8,2.1,2.9,2.9.8,1.1,1.8,2.1,2.9,2.9.8,1.1,1.8,2.1,2.9,2.9.8,1.1,1.8,2.1,2.9,2.9.8,1.1,1.8,2.1,2.9,2.9.8,1.1,1.8,2.1,2.9,2.9.8,1.1,1.8,2.1,2.9,2.9.8,1.1,1.8,2.1,2.9,2.9.8,1.1,1.8,2.1,2.9,2.9.8,1.1,1.8,2.1,2.9,2.9,2.8,3.6,7.1,6,12,6s.4,0,.7,0h0c0,0,145.7,0,145.7,0,.3,0,.6,0,.8,0,8.3,0,15.1-6.8,15.1-15.1s0-.1,0-.2h0V127.2ZM238.4,274.1h-120.1V97h14.4v8.9c0,0,0,.2,0,.3,0,2.9,2.3,5.2,5.2,5.2s0,0,0,0h0s80.8,0,80.8,0c2.9,0,5.2-2.4,5.2-5.2s0,0,0-.1v-9h14.4v177Z"/><path d="M147.1,152.7c0-1.9-1.5-3.4-3.5-3.4s-.2,0-.3,0h0c0,0-7.2,0-7.2,0-1.9,0-3.5,1.6-3.5,3.5v7.5h0c0,1.9,1.5,3.4,3.5,3.4h7.2c0,0,.2,0,.2,0,1.9,0,3.5-1.5,3.5-3.4h0v-7.5h0Z"/><path d="M224,152.7c0-1.9-1.5-3.4-3.5-3.4h-55.7c-1.9,0-3.5,1.6-3.5,3.5v7.5h0c0,1.9,1.5,3.4,3.5,3.4h55.7c1.9,0,3.5-1.5,3.5-3.4h0v-7.5h0Z"/><path d="M147.1,181.5c0-1.9-1.5-3.4-3.5-3.4s-.2,0-.3,0h0c0,0-7.2,0-7.2,0-1.9,0-3.5,1.6-3.5,3.5v7.5h0c0,1.9,1.5,3.4,3.5,3.4h7.2c0,0,.2,0,.2,0,1.9,0,3.5-1.5,3.5-3.4h0v-7.5h0Z"/><path d="M224,181.5c0-1.9-1.5-3.4-3.5-3.4h-55.7c-1.9,0-3.5,1.6-3.5,3.5v7.5h0c0,1.9,1.5,3.4,3.5,3.4h55.7c1.9,0,3.5-1.5,3.5-3.4h0v-7.5h0Z"/><path d="M147.1,210.3c0-1.9-1.5-3.4-3.5-3.4s-.2,0-.3,0h0c0,0-7.2,0-7.2,0-1.9,0-3.5,1.6-3.5,3.5v7.5h0c0,1.9,1.5,3.4,3.5,3.4h7.2c0,0,.2,0,.2,0,1.9,0,3.5-1.5,3.5-3.4h0v-7.5h0Z"/><path d="M224,210.3c0-1.9-1.5-3.4-3.5-3.4h-55.7c-1.9,0-3.5,1.6-3.5,3.5v7.5h0c0,1.9,1.5,3.4,3.5,3.4h55.7c1.9,0,3.5-1.5,3.5-3.4h0v-7.5h0Z"/></svg>