<?xml version="1.0" encoding="UTF-8"?><svg id="a" xmlns="http://www.w3.org/2000/svg" viewBox="0 0 400 400"><path d="M372.3,305.4c-6.2-6.3-12.5-12.5-18.8-18.8-3.1-3.1-6.2-6.2-9.3-9.3l-5.2-5.2c-3.6-3.6-7.2-7.2-10.8-10.8-1.7-1.8-3.7-3.2-5.9-4h-.2c-6.7-2.1-13.8-3.5-21.6-4.5,5.4-16.7,7-34.3,4.6-51.7,8.5,3.7,19.6,8.5,20,8.7h.1c1.5.7,3.2,1,4.9,1.1,6.4.3,13.2-2.9,17.5-8.3,3.8-4.7,5.3-10.5,3.9-15.9v-.4c-.6-1.5-1.2-2.9-1.7-4.3-.5-1.3-.9-2.5-1.3-3.6-.4-1.1-.8-2.2-1.1-3.2-1.4-4-2.7-7.8-4.8-12-3.4-6.4-7.4-12.2-13.9-20.3h0c-3.6-4.3-7.6-8.3-11.5-12.1-2-2-4.1-4-6.1-6.1l-16.2-16.2c-2.2-2.2-4.5-4.5-6.7-6.7l-4.3-4.3c-9.2-9.9-18.4-16.4-27.8-20.1-6.9-2.8-14.2-4.4-21.6-4.9l-22.4-22.4c-1.6-1.6-3.2-3.2-4.9-4.9-5.9-5.9-11.9-12.1-18.8-16.9-5.6-4-8.4-4.8-14.8-4.2h-.2c-5.6.8-11.2,4.8-14.8,10.5-2.2,3.6-3.4,7.4-3.5,10.9-1.6-.5-3.3-1-4.9-1.4-22.4-6-53.5,3.9-66,13.7l-11.5,8.3c-6.9,4.2-10.2,13.1-7.8,21.3,1.3,5.4,5,9.3,8.3,12.5,1.3,1.4,2.6,2.6,3.9,3.9.9.9,1.9,1.9,2.9,2.9,3.7,3.7,7.5,7.5,11.2,11.2-1.8,2.7-3.7,5.4-5.3,8.3-6.9,11.9-11.5,24.8-13.9,38.4-.5,2.3,0,4.3.4,5.9l.2.7c1.6,6.1,5.8,10.2,9.6,13.8,1,1,1.9,1.9,2.8,2.8h0c8.6,8.7,17.3,17.4,25.9,26,4,4,7.9,7.9,12,12,3.5,3.8,8.2,6.4,13.1,7.2,0,.2,0,.4,0,.6-.3,1.9-.5,3.8-.7,5.6-1.2,10.3-1.9,19.9-2.1,28.7-28.9,5-52.1,10.6-68.9,16.5-20.5,7.4-31.7,14.2-38.6,23.6l-.2.3c-2.9,4.7-2.9,10.9.2,15.6h0c1.2,1.9,2.7,3.3,4,4.6.5.5,1,.9,1.5,1.4,4.5,4.5,8.9,9,13.4,13.4,4,4,8,8,12.1,12.1,1.6,1.5,3.1,3.1,4.7,4.6,1.6,1.7,3.3,3.3,5,4.9.9.9,1.7,1.8,2.6,2.6.7.7,1.4,1.3,2,2,3.5,4,7.8,6.2,12,6.2s.4,0,.6,0c4.5,0,8.8-2.3,11.6-6.1,1.5-1.6,2.9-2.6,5.4-4.2,15.9-9.3,38.5-14.7,62.2-19.7,5.1-1.1,11.3-2.2,17.8-3.4.8-.1,1.6-.3,2.5-.4.5,0,1-.2,1.4-.3,5.4,6.2,13.5,9.5,23.6,9.5h.4c17.4-1.1,33.8-6,48.7-14.4l.4-.2c1.9-1.3,3.4-3.1,4.4-5.3,18.2-1.9,37.6-3.7,56.2-5.1,13.6-1.1,27.7.4,42.1,4.3h.5c6.5,1.1,12.7-2.2,15.5-8.2,2.8-6,1.5-12.7-3.4-17ZM145.6,277.5c1.4-1.8,1.3-3.7,1.3-6.3,0-1.4,0-3.2,0-5.7.5-19.9,3.6-42,9.6-69.5,4.8-21.7,10-40.8,17.4-63.8l3-9.3-9,3.8c-3.5,1.5-11.6,5.2-18.8,8.5-4.9,2.3-9.6,4.4-10.7,4.9h-.2c0,.1,0,.1,0,.2-.2,0-1-.5-2-2.1l-4-6.1-3.6,6.4c-1,1.7-1.5,3.8-2.1,6-.4,1.5-.9,3.4-1.4,4.3v.2c-.2.2-.2.3-.3.3-.3.3-.8.6-1.5,1.3-2,1.7-4.1,3.5-6.2,5.4-2.1,1.8-4.3,3.7-6.6,5.7l-14.3,12.4c-.6.4-1.9.4-3.5,0-3.2-1-5.7-3.8-6.2-7,4.3-24.4,17.3-46.3,36.8-61.8l2.4-2.2-.8-2.7c-.9-2.9-3.4-3.3-6.1-3.7-1.3-.2-3.1-.5-5.1-.9l-15.7-3c-7.3-1.4-13.9-2.7-15.3-2.9,0,0,0,0,0,0h0c-1.7-.8-3.2-3-3.6-5.3-.2-1.2-.2-3,1-4.2.9-.7,1.8-1.4,2.9-2.1.8-.6,1.6-1.2,2.6-1.9l.3-.2c9.9-8.6,25.1-15.2,39.7-17.1,12-1.6,29.1-1,42.3,11.3l3,2.6,2.9-2.3c1.3-1,1.9-2.6,1.7-4.2v-.2s-.1-.4-.1-.4c0-.1,0-.2-.1-.4l-.6-1.9c-.7-2-1.7-4.9-2.7-7.7-1.1-3.2-2.3-6.7-2.7-7.7-.2-1.6.6-3.7,2.2-5.5,1.6-1.8,3.6-2.8,5.3-2.7,1,.1,1.4.3,1.9.7l.3.2c11.5,7.8,25.7,22.4,30.9,40v.2c.3.8.5,1.7.8,2.6.2.9.4,1.8.7,2.7l1.2,3.9,4-.9c5.7-1.2,10.9-1.7,15.6-1.4,40,1.5,55.8,44.5,59.7,57.7.5,1.6-.4,3.1-1.2,4-1.6,1.8-4.1,3-5.9,2.8-1.9-.7-3.6-1.4-5.5-2.3-1.4-.6-2.9-1.3-4.8-2.1-3.7-1.6-9.5-4.1-15.1-6.5-4.7-2-9.1-3.9-11.4-4.9l-6.4-2.9v7.1c.1.9.4,1.6.5,2.1v.3c3.5,11.5,4.9,23.5,4.1,35.5-.8,12.4-3.7,24.3-8.8,35.4-1.6,1.8-4,2.8-6.5,2.6h-.3s-.3,0-.3,0c-2.1.2-4.2-1-5.1-2.7l-1.3-5c-.9-3.8-2.1-8-3.3-12.5-1.8-6.5-3.7-13.3-4.9-18.9.4-1.7,1.3-4.5,1.9-6.4.7-2.1,1-3.2,1.2-4l1.3-6.9-6.9,1.7c-.5.1-1,.3-1.5.4-.6.2-1.5.5-1.9.5h-.2s0,0,0,0c-.3-.3-.8-1.2-1.2-1.8-.2-.3-.3-.6-.5-.9-1-1.5-2.3-3.8-3.5-5.8-.9-1.5-1.7-2.8-2.3-3.8-1.1-1.7-3.1-5-6.7-3.4-1.8.8-2.9,2.7-2.7,4.6.3,11.3.3,21.3.4,31,.2,30.7.3,54.9,7.5,85.1l.8,3.5h3.6c6.3,0,12.7-.9,18.9-1.6,3-.4,6.2-.7,9.3-1,26.6-3,56.7-6.4,83.2,1.3,0,0,.2,0,.3.3.1.2.1.3,0,.4h0c0,.2-.1.3-.3.4-.1,0-.3.1-.4,0-16-4.6-33.6-5.9-52.2-4-18.7,1.5-38.2,3.3-56.4,5.3h-.2c-1.3.2-2.5,1-3.2,2.1-.7,1.1-.9,2.3-.7,3.6v.5c.2.3,0,.6,0,.7-18.4,9.3-33.9,13-47.1,11.2-3.6-.7-6.6-3.2-8.2-6.9l-1.3-2.9-3.2.2c-1.6.1-3.1.4-4.6.7-.8.1-1.6.3-2.3.4h-.2c-3,.6-6.3,1.3-9.7,1.9-29.5,5.6-69.8,13.3-87.2,31l-.4.4c0,.1-.2.2-.2.2,0,0-.3,0-.5-.2-.3-.2-.4-.4-.5-.5,0,0,0,0,.1-.3,16.6-18,55.9-25.7,84.7-31.3,3.3-.6,6.5-1.3,9.5-1.9h.1c3.4-.8,5.6-1,7.3-1.2,2.2-.2,4.5-.5,6-2.5Z"/></svg>