<?xml version="1.0" encoding="UTF-8"?><svg id="a" xmlns="http://www.w3.org/2000/svg" viewBox="0 0 400 400"><defs><style>.b{fill:#141414;}.c{fill:#060606;}.d{fill:#0c0c0c;}</style></defs><path class="c" d="M101.9,131.6c1.7-11.1,7.3-16.2,18.2-16.7,1.5,0,3,0,4.5,0,2.8,0,5.5.1,8-.5,4.1-1,8.9-3.7,8.9-11.1,0-6-2.7-9.6-8.5-11.4-11.7-3.5-25-1.5-35.7,5.3-9.7,6.2-15.8,15.4-17.2,25.9-1.7,12.6-8.3,18.7-21.3,19.9-7.4.7-14,2.8-20.8,6.6v11c.9.6,1.8,1.2,2.6,1.8,2.3,1.7,4.5,3.2,6.9,3.9,10.9,3.2,23.5,1,34.5-6,11-7,18.3-17.5,20-28.8Z"/><path class="c" d="M310,145.6c-13.6-8.1-27.5-16.2-41-23.9-30.1-17.4-61.3-35.4-90.7-55.2-2.4-1.6-4.7-2.4-7-2.4s-4.9,1-7.3,3c-4,3.3-6.5,9-2.9,13.5,6,7.3,3.2,13.3.6,19.1l-.6,1.3-14.6,32.6c-17,38.1-34.6,77.6-51.6,116.5-3.7,8.4-6.8,15-9.3,20.2q-10,21.3,3.7,37.6c4.1,4.9,9.2,10.9,15.6,19.2,8.4,10.9,18.6,15.7,33.3,15.4,18.4-.4,37.2-.3,55.3-.2,7.8,0,15.5.2,23.3,0h24.1c18.2,0,36.3,0,54.5,0,24.8-.1,33.6-8.7,33.7-33,0-17.3,0-34.7,0-52,0-25.6,0-52,.2-77.9.2-15.3-5.7-25.4-19.6-33.6ZM289.7,141.4c8.1-.5,14.2,4.3,15.4,12.2v.2c.2,13.5-7.4,16.7-13.8,16.9-.3,0-.6,0-1,0-8.5,0-14.1-5.2-14.6-13.8-.5-8.9,5-15,13.9-15.5ZM113.1,266.7l70-156.9,87.1,87-157.2,69.9ZM306.1,232.1v2.8c-1.1,25.7-14.8,40.6-39.6,43-12.2,1.2-14.7,7.2-14.8,17.2,0,1.1,0,2.3.1,3.5.1,2.1.3,4.2,0,6.3-1.4,7.8-5.8,12.2-12.8,12.8-.6,0-1.2,0-1.8,0-6.9,0-11.7-3.7-14.3-10.9-4.1-11.5-2.7-24.6,3.9-36,6.8-11.7,18-19.7,30.5-21.9q18.6-3.2,18.5-20.2c0-9.7,1.6-18.8,13.8-20.4,3.7-.5,7.1.4,9.8,2.6,4,3.3,6.4,9.4,6.9,17.5,0,1.1,0,2.1,0,3.6Z"/><path class="b" d="M308.5,110.9c2.1,2.3,5.2,3.5,8.9,3.5,6.4,0,10.4-3.9,11.9-11.9-1.3-7.4-5-11.1-11.4-11.4-.3,0-.5,0-.8,0-6.8,0-11,3.9-11.4,10.6-.2,3.7.7,6.9,2.8,9.1Z"/><path class="d" d="M241.6,84c1.9,2,4.7,3.2,8.3,3.3,6.7.3,10.8-3.3,12.5-11-.6-5.3-3.1-11.6-11.4-12-.3,0-.6,0-.8,0-3.1,0-5.8.9-7.7,2.7-2.1,1.9-3.3,4.8-3.4,8.4-.2,3.6.7,6.6,2.6,8.6Z"/></svg>