<?xml version="1.0" encoding="UTF-8"?><svg id="a" xmlns="http://www.w3.org/2000/svg" viewBox="0 0 115 115"><defs><style>.b{fill:#070707;}</style></defs><path class="b" d="M96.6,44.6c-3-2.9-6-6-8.9-8.9-4.2-4.2-8.5-8.6-12.9-12.7-14.8-14-37.6-13.5-51.9,1-14.1,14.4-14.2,37-.3,51.5,4.1,4.3,8.3,8.5,12.5,12.6,3,3,6.2,6.1,9.2,9.2,2.3,2.3,4.9,3.4,8.3,3.4h0c2.5,0,5,0,7.6,0s5.4,0,8.2,0c7.2,0,14.7,0,22,0,6.8,0,9.6-2.9,9.7-10,0-4.3,0-8.8,0-13,0-1.9,0-3.9,0-5.8,0-1.8,0-3.7,0-5.5,0-4.2,0-8.6,0-12.8,0-3.6-1.1-6.4-3.6-8.8ZM51.7,20.5c.7-.5,1.7-.6,2.9-.3l1.1.3c2.4.7,4.8,1.4,7.1,2.5,3.9,1.8,9.2,4.3,9.9,9,.3,2.5-2.7,3.8-5.7,5.2-1.1.5-2.2,1-3.1,1.5-2.5,1.5-5.1,3-7.8,4.5-1.3.7-2.6,1.4-3.9,2.2l-1.6.9v-1.9c0-2.2,0-4.3,0-6.3,0-5.1,0-9.9,0-14.8,0-1.4.3-2.3,1.1-2.9ZM67.2,74.5c-5.8,3.9-11.8,5.9-17.8,5.9s-7.8-.8-11.7-2.5c-10.4-4.4-16.7-12.5-18.2-23.5-1.9-13.8,4.9-26.4,17.3-32,2.6-1.2,4.3-1.9,5.6-1.1,1.2.8,1.3,2.6,1.4,5.4,0,1.8,0,3.5,0,5.3,0,5.7,0,11.6,0,17.4,0,3.3.9,5.4,3.5,7.3,4.8,3.6,9.3,7.3,14.2,11.2,2,1.6,3.9,3.2,6,4.8l1.2.9-1.2.8ZM75.6,65.1c-.5,1-1.3,2.1-2.5,2.3-.2,0-.3,0-.4,0-1,0-2-.7-2.8-1.3-3.5-2.9-7-5.8-10.8-8.8-1.5-1.2-3.1-2.4-4.6-3.7l-1.2-1,7.1-4.1c4.7-2.7,9.2-5.3,13.7-7.9.9-.5,2-1,3-.6,1.1.5,1.5,1.7,1.7,2.9,1.8,7.5.7,14.7-3.3,22.1Z"/></svg>