<?xml version="1.0" encoding="UTF-8"?><svg id="a" xmlns="http://www.w3.org/2000/svg" viewBox="0 0 400 400"><path d="M314.5,126.1c-1.2-1.1-2.4-2.2-3.5-3.2-1.2-1.1-2.4-2.2-3.6-3.2-1.2-1.1-2.4-2.2-3.6-3.2-1.2-1.1-2.4-2.2-3.6-3.2-1.2-1.1-2.4-2.2-3.6-3.2-1.2-1.1-2.4-2.2-3.6-3.2-1.2-1.1-2.4-2.2-3.6-3.2-1.2-1.1-2.4-2.2-3.6-3.2-1.2-1.1-2.4-2.2-3.6-3.2-1.2-1.1-2.4-2.2-3.6-3.2-1.2-1.1-2.4-2.2-3.6-3.2-1-.9-2-1.8-3-2.6-1.4-1.4-2.7-2.8-4.2-4.2-1.3-1.3-2.7-2.5-4.2-3.7-1.4-1.2-2.8-2.4-4.3-3.5-1.4-1.1-2.9-2.2-4.5-3.3-1.5-1-2.9-2-4.7-3.1-1.5-.9-3-1.8-4.5-2.7l-.4-.2c-1.5-.8-3-1.6-4.5-2.4l-.5-.3h0c-1.4-.7-2.9-1.4-4.6-2.2l-.6-.3c-1.4-.6-2.9-1.2-4.3-1.8l-.9-.4c-1.4-.5-2.8-1-4.2-1.5l-1.1-.4c-1.4-.4-2.7-.8-4.1-1.2l-1.4-.4c-1.3-.4-2.6-.7-4-1l-1.6-.4c-1.3-.3-2.6-.5-3.9-.8h-.7c-.4-.2-.7-.3-1.1-.3-1.1-.2-2.2-.3-3.3-.5l-1.2-.2c-.4,0-.8-.1-1.2-.2-1.2-.1-2.3-.2-3.8-.3h-.7c-.4-.1-.8-.1-1.3-.2-1.1,0-2.3-.1-3.4-.1h-1.3c-.4,0-.8,0-1.1,0-2,0-3.9,0-5.9,0-1.6,0-3.2.8-4.3,2-.9,1-1.4,2.1-1.6,3.4h0s5.3,108.1,5.3,108.1c0,1.7.8,3.2,2,4.3s2.8,1.7,4.5,1.6l106.1-5.2,50.8,44.9h.7c3.4-.2,6-3.2,5.8-6.6-2-31-16.2-59.2-39.8-79.4ZM279.8,145.2l-84.4,7.1-3.8-84.6c42.8,3.3,79.5,35.5,88.3,77.6Z"/><path d="M327.5,225.7c-.6-1.6-1.8-2.8-3.4-3.4-.6-1.6-1.8-2.8-3.4-3.4-.6-1.5-1.8-2.8-3.4-3.4-.6-1.6-1.8-2.8-3.4-3.4-.7-1.7-2-2.9-3.7-3.5l-27.6-26.7c-1.1-2.3-3.4-3.7-6-3.7l-101.5,3.9c-.7,0-1.5-.3-2.1-.8-.6-.6-.9-1.3-1-2.1l-4-103v-.3c0-.1,0-.2,0-.4,0-.3,0-.6-.2-.9h0c0-.2,0-.3,0-.4-.2-.8-.9-2-.9-2-.4-.6-2.5-1.9-4.1-2.5v-.4s-1.1,0-1.1,0c-.1,0-.2,0-.3,0h-1.6c-31.7,1.3-61.1,15-82.6,38.7-21.5,23.7-32.7,54.5-31.5,86.8,0,2.1.2,4.2.4,6.3,0,.4,0,.7.1,1.1v.9c.3,1.4.4,2.9.6,4.3,0,.4.1.8.2,1.2l.2,1c.2,1.3.4,2.6.7,3.9l.4,2c.3,1.4.6,2.7.9,4.1l.5,1.7c.4,1.4.7,2.8,1.2,4.2l.5,1.5c.5,1.4.9,2.9,1.4,4.3l.5,1.3c.5,1.5,1.1,2.9,1.7,4.4l.5,1.1c.6,1.5,1.3,3,2,4.5l.4.9c.7,1.5,1.5,3.1,2.3,4.5l.4.6c.8,1.6,1.7,3.1,2.6,4.6l.3.5c.9,1.6,1.9,3.1,2.9,4.6l.2.3c1.1,1.6,2.1,3.1,3.4,4.8,1.2,1.5,2.3,3.1,3.6,4.6,3.8,4.6,7.9,8.9,12.3,12.8,12.2,11.1,26.3,19.3,41.6,24.4,1.1,1.2,2.3,2.3,3.4,3.4,1.1,1.2,2.3,2.3,3.4,3.4,21.8,22.8,51.2,35.3,82.7,35.3,63.2,0,114.6-51.4,114.6-114.6v-1.2c0-2.5-1.6-4.8-3.9-5.7ZM148.9,90.6h2s1.2,2.6,1.2,2.6l3.7,83.9c.5,10.9,9.5,19.2,20.6,18.9l86.6-3.8c-2.7,49.7-43.3,90.1-93.3,92.3-53.8,2.4-99.5-39.5-101.9-93.3-2.2-49.1,32.8-92.4,81-100.6ZM164.5,80.6h0Z"/></svg>