<?xml version="1.0" encoding="UTF-8"?><svg id="a" xmlns="http://www.w3.org/2000/svg" viewBox="0 0 400 400"><path d="M342.8,150.3c.2-5.2,0-26.8,0-37,0-1.4,0-2.1-.5-3.3-9.4-10.4-20.1-19.9-29.8-30.2-4.3-3.9-8.1-8.3-12.4-12.2-1.7-2-3.5-4.1-6.4-3.7-2.6,0-9.5,0-12.4,0-2.3,0-4.4.2-6.5,1.8-5.3,4.4-1.8,12.2-4.5,17.9-2.1,6.4-7.2,12-14.1,13.7-1.7.1-3,.5-4.6,1.1-14,2.5-28-4.7-29.9-18.3-.9-5.2-.3-10.5-.5-15.5,0-.5,0-.7-.2-.7-4.7.3-52.2-.5-64.8.2-5.5.9-7,6.7-6.6,11.5-.4,14.9-10.8,23.3-26.1,23.2-20.2-.3-25.8-15.8-24.4-31.2-.1-1.6.4-3.5-.7-3.7-2.8,0-18.1,0-21.9,0-1.8-.1-3.7.7-4.7,2.3-.6,1-1,2.3-.9,3.4,0,11.3,0,32.2,0,41.6-.2,3.6,0,7.1,4.2,8,3.5,0,165.6,0,212.2,0,3.6,0,7.8,3.4,7.8,7.4.5,4.3-3.8,8.4-7.9,8.4-45.1,0-208.2-.2-212.1,0-.4,0-1.5.5-2.1.9-1.4,1-2,2.5-2.1,3.7,0,37.4,0,150.7,0,157.5,0,.4.6,2.5,1.4,3.1.8.7,1.7,1.3,2.3,2.1,2.7,3.1,5.9,5.7,8.6,8.8,10.3,10,20.3,20.4,30.6,30.5,1.1,1.5,3,3.4,4.9,3.4,12.9-.7,53.7.5,75.3,0,33.7,0,135.1,0,136.4,0,6.7,0,12.6-5.8,12.5-12.5-.4-8.9.3-118.7,0-149.6-.1-.9-.3-1.7-1-2.6-5.7-5.7-11.6-11.3-17.1-17.1,0-.3.2-.5.8-.6,1.3-.2,3.3,0,4.7,0,6.5,0,12.2-5.3,12.5-11.8h0ZM267.5,271.8c-.3,6-5.5,10.9-11.5,10.9-8-.3-45.3.2-61.4,0-9.2,0-18.7,0-28,0-37.3-.2-64.8.5-70.4-.3-5.3-1-9.1-6.1-9.1-11.4.1-4.7,0-72.3,0-93.7.2-10.4-.4-12.3.3-16.7.7-5.2,6-9.3,10.9-9.4,7.2.3,122-.6,159.9.3,5.3.9,9.2,6,9.2,11.3.4,2.2-.3,86.6,0,108.9h0Z"/><path d="M114.3,79s0,0,0,0c.4,1.2,1,2.1,1.8,2.9.2.2.3.3.5.4l1.5.9c1.6.7,3.6,1,6.2,1,7.5,0,10.6-2.7,10.6-9.4v-21.9c0-1.9-.3-3.5-.8-4.7-.3-.8-.7-1.4-1.2-2,0,0,0-.1-.1-.1-.2-.2-.5-.4-.7-.6-.1-.1-.3-.2-.4-.3-.3-.2-.5-.3-.8-.5-.4-.2-.9-.4-1.4-.5-.2,0-.5-.1-.7-.2-.4,0-.8-.2-1.3-.2-.2,0-.5,0-.7,0-.7,0-1.5-.1-2.3-.1h0c-2.2,0-4,.3-5.5.8-1,.4-1.9.8-2.6,1.4-1.3,1.1-2,2.7-2.3,4.9,0,.7-.1,1.5-.1,2.3v21.9c0,.8,0,1.6.1,2.2,0,.7.2,1.3.4,1.9Z"/><path d="M236.6,81.1s0,0,0,0c.4,1.2,1,2.1,1.8,2.9.2.2.3.3.5.4l1.5.9c1.6.7,3.6,1,6.2,1,7.5,0,10.6-2.7,10.6-9.4v-21.9c0-1.9-.3-3.5-.8-4.7-.3-.8-.7-1.4-1.2-2,0,0,0-.1-.1-.1-.2-.2-.5-.4-.7-.6-.1-.1-.3-.2-.4-.3-.3-.2-.5-.3-.8-.5-.4-.2-.9-.4-1.4-.5-.2,0-.5-.1-.7-.2-.4,0-.8-.2-1.3-.2-.2,0-.5,0-.7,0-.7,0-1.5-.1-2.3-.1h0c-2.2,0-4,.3-5.5.8-1,.4-1.9.8-2.6,1.4-1.3,1.1-2,2.7-2.3,4.9,0,.7-.1,1.5-.1,2.3v21.9c0,.8,0,1.6.1,2.2,0,.7.2,1.3.4,1.9Z"/><rect x="206.2" y="232.6" width="30" height="26"/></svg>