<?xml version="1.0" encoding="UTF-8"?><svg id="a" xmlns="http://www.w3.org/2000/svg" viewBox="0 0 115 115"><defs><style>.b{fill:#060606;}</style></defs><path class="b" d="M91.8,45.4c-10.8-7.7-21.8-15.4-32.2-23.9-5.9-4.8-12.4-3.8-19.1-3.6-.7,0-2.4,0-2.3,3.9,0,3.8,0,7.6,0,11.4,0,2.7,0,6.2,0,8.9l-2.6-3c-3-3.5-6.5-4.9-11.6-4.9-3.9,0-6.6.3-6.4,4.8.1,9.6,0,19.3,0,28.7,0,2.2.6,3.8,2.3,5.5,7.3,7.8,13.1,14.2,18.3,20.2,2.4,2.7,5.1,4,8.6,4,7.7,0,15.4,0,23,0,6.2,0,12.4,0,18.6,0,6.6,0,8.9-2.3,8.9-9.1,0-10.6-.2-21,.2-31.7.2-4.9-1.5-8.1-5.7-11.1ZM86,57.5c-2.6,2.5-8,1.3-11.5,1.6-2.9,0-5.9,0-8.8,0-2.6-.1-3.9.8-4.9,3.2-2.4,5.9-5.2,11.7-7.5,17.6-1.3,3.5-3.7,3.9-5.4,3.9-1.4,0-3.1-.3-3.8-1.3-.9-1.1-.7-2.4-.5-3.4.2-3.7-.1-7.4,0-11,0-1.4,0-2.9,0-4.3,0-2.8-.2-3.9-1.5-4.2-6-1.8-6.8.1-10.6,3.9-.8.8-1.6,1.5-2.3,2.3-1.6,1.7-3.2,1.6-4.2,1.2-2.3-1-1.9-2.8-1.8-3.9,0-6.4,0-12.9,0-19.3,0-1.1-.4-3,1.9-3.9,2-.7,3.3.6,4.1,1.4,1.8,1.8,3.5,3.5,5.3,5.2,1.9,1.8,4.3,2.2,7.7,1,1.5-.5,1.6-1.5,1.6-4,.1-4.9-.2-9.9,0-14.8,0-1.3-.6-2.8.5-4.2.6-.7,1.5-1.1,2.8-1.2,3.2-.3,5.2.9,6.3,3.9,1,2.6,2.2,5.3,3.3,7.8,1.3,2.9,2.6,5.9,3.8,8.9,1.2,3.2,2.9,4.3,6.4,4.1,3.1-.2,6.2-.1,9.3,0,3.2.2,7.8-.7,10.1,1.6,1.9,1.8,1.9,6.2,0,8Z"/></svg>