<?xml version="1.0" encoding="UTF-8"?><svg id="a" xmlns="http://www.w3.org/2000/svg" viewBox="0 0 115 115"><defs><style>.b{fill:#010101;}</style></defs><path class="b" d="M92.2,26.8c-2.9-4.8-6.5-6.9-11.7-6.7-18.4.1-35.2.1-51.5,0-3.3,0-6.3,1-8.4,3-2.1,2.1-3.2,4.9-3.3,8.3,0,13.4,0,26.7,0,42.5,0,3.2,1.1,5.9,3.2,8.1,2.6,2.7,6,6.3,9.2,10,2.1,2.4,4.6,3.5,8.2,3.5,3.7,0,7.8,0,12.5,0s8.5,0,12.6,0h.2c8.1,0,17.4,0,26.2,0,4.9,0,7.3-2.4,7.5-7.4,0-5.2,0-10.7,0-15.9,0-9.1-.1-18.4.2-27.6.2-6.4-1.3-12-4.8-17.8ZM88.2,51.9h-.5c0,0,.5,0,.5,0,0,3.2,0,6.5,0,9.7,0,6.7-1.9,8.6-8.8,8.6h-5.4c-9.9,0-20.1.1-30.1,0-3.5,0-5.7.9-7.6,3.2-1.1,1.3-2.3,2.5-3.5,3.6-.4.4-.9.8-1.3,1.2-1.4,1.3-2.8,2-4.3,2s-3-.7-4.3-2l-.3-.3-.2-.4c-.7-1.8-.6-3.5-.6-5,0-.3,0-.6,0-.9,0-4,0-8,0-12,0-8.6,0-17.4,0-26,0-2.9,0-5.4,1.8-7.1,1.4-1.4,3.5-2,7-2,15.6.2,32.1.2,49,0,2.4,0,5,.2,6.8,2,1.4,1.4,2,3.5,1.9,6.8-.1,6.2-.1,12.6,0,18.7Z"/><path class="b" d="M61.7,43.4c-1.2-.2-2.5-.3-3.7-.9h0l-.4-.2v-.2c-1.1-1-1.7-2.2-2.3-3.4-.6-1.3-1.2-2.5-2.2-3.2-1,.8-1.6,2-2.2,3.2-.7,1.3-1.3,2.7-2.5,3.7l-.3.2h-.2c-1.1.5-2.3.7-3.3.8h-.3c-1,.1-1.9.3-2.7.6-.4.2-.8.5-1.1.8.4.9,1.3,1.7,2.1,2.5.9.9,1.9,1.9,2.6,3.1v.3c.6,1.7.4,3.2.2,4.7-.2,1.3-.3,2.5,0,3.7,1.2,0,2.4-.6,3.6-1.3,1.2-.7,2.5-1.3,4-1.5h.3s.3,0,.3,0c1.2.3,2.3.9,3.3,1.4,1.2.6,2.3,1.2,3.7,1.4.4-1.2.2-2.5,0-3.8-.2-1.5-.5-3.1.1-4.7v-.2c.9-1.1,1.7-2,2.5-2.8,1-1,1.9-1.9,2.3-3-1.1-.8-2.4-1-3.9-1.2Z"/></svg>