<?xml version="1.0" encoding="UTF-8"?><svg id="a" xmlns="http://www.w3.org/2000/svg" viewBox="0 0 400 400"><path d="M347.3,201.5c-.7-7.6-3.6-14.4-8.3-19.3-9.3-9.6-23.8-20.7-37.9-31.3-8-6.1-15.5-11.8-21.9-17.1-12.2-10.2-24-20.7-35.1-31.1-3.7-2-18.9-5.5-23.1-5.5h-32.1l9.8-8.7c4.8-4.3,7.7-8.9,7.8-12.7.1-2.4-.8-4.7-2.9-6.9-2-2.1-4-3.1-6.4-3.2,0,0-.2,0-.3,0-8.1,0-18.6,10-26.3,17.3-2.6,2.5-5.1,4.8-7.2,6.6l-6.5,5.3-1.6-8.2c-3.6-19.1-20.7-40.9-81.6-36.4-24.2,1.8-28.2,9.1-29.9,35.2-1.2,17.6-.7,60.2,29.4,75.2,19.3,9.6,36,4.9,56-15.8l8.6-8.9v55.2h-70.8c-1,.2-4.1,2.6-6.2,6.2-1.4,2.5-1.6,4.1-1.4,4.5v.3c0,0,32.5,113.3,32.5,113.3,4.3,3.8,9.4,8.9,15.3,14.7,15.9,15.8,37.7,37.4,51.1,38.9,10-.7,20.3-1,30.7-1,16.1,0,32.5.6,48.5,1.2,28.5,1.1,57.9,2.2,84.8-.2,12.9-1.2,22.8-10.5,24.7-23.3-1.4-22.5-.6-46.3.3-69.4.9-25.1,1.9-51.1-.2-74.9ZM133.8,109.5c-4.4,6-23.3,24.6-29,29-4,3-7.6,5.5-12.5,5.5s-3.9-.4-6.2-1.2c-22.7-7.9-22.1-52.1-19.3-67.3l.8-4.1h37.4c2.3,0,15.8,4.5,15.9,4.6,8.7,3.4,14.8,9.3,16.8,16.2,1.1,4,1.4,10.2-3.8,17.3ZM187.8,300.1l-76.1.7-27.2-88.4h128.2l-24.9,87.7ZM218.7,185.6c-3.8,3.8-8.3,5.7-13.1,5.7s-4.1-.3-6.3-1c-5.1-1.6-11.5-8.5-21.5-19.5-5.2-5.8-10.7-11.8-13.6-13.8l-.8-.6-.5-.8c-4.6-7-3.8-12.5-1-18.5,9-20,50.1-20.3,64.9-17.1l2.8.6.9,2.8c4.1,12.8,1.9,48.7-11.6,62.2Z"/></svg>