<?xml version="1.0" encoding="UTF-8"?><svg id="a" xmlns="http://www.w3.org/2000/svg" viewBox="0 0 400 400"><defs><style>.b{fill:none;}</style></defs><path d="M183.8,85.1v17.8c0,2.4-2,4.4-4.4,4.4-12.9,0-23.6,9.4-25.7,21.7h-26.8c2.2-27,25-48.3,52.5-48.3s4.4,2,4.4,4.4Z"/><path d="M175,159v26.9c-12.4-1-24-6.4-32.9-15.2-8.9-8.9-14.2-20.5-15.2-32.9h26.8c1.8,10.9,10.4,19.5,21.3,21.3Z"/><path d="M232.1,133.4c0,27.6-21.3,50.3-48.3,52.5v-26.9c12.3-2.1,21.7-12.8,21.7-25.7s2-4.4,4.4-4.4h17.9c2.4,0,4.4,2,4.4,4.4Z"/><path d="M197,117.9c-2.4,0-4.4-2-4.4-4.4v-7.4c0-2.4,2-4.4,4.4-4.4s4.4,2,4.4,4.4v7.4c0,2.4-2,4.4-4.4,4.4Z"/><path d="M213,117.9c-2.4,0-4.4-2-4.4-4.4v-14.9c0-2.4,2-4.4,4.4-4.4s4.4,2,4.4,4.4v14.9c0,2.4-2,4.4-4.4,4.4Z"/><path d="M229,117.9c-2.4,0-4.4-2-4.4-4.4v-28.4c0-2.4,2-4.4,4.4-4.4s4.4,2,4.4,4.4v28.4c0,2.4-2,4.4-4.4,4.4Z"/><polygon class="b" points="197.9 247.2 198.2 247.2 198.2 247.5 198.5 247.5 198.4 247.8 198.7 247.8 198.7 248 199 248 198.9 248.3 199.2 248.3 199.2 248.5 199.5 248.5 199.5 248.8 199.8 248.8 199.7 249.1 200 249.1 200 249.3 200.3 249.3 200.2 249.6 200.5 249.6 200.5 249.8 200.8 249.8 200.8 250.1 201.1 250.1 201 250.4 201.3 250.4 201.3 250.6 201.6 250.6 201.5 250.9 201.8 250.9 201.8 251.1 202.1 251.1 202.1 251.4 202.4 251.4 202.3 251.7 202.6 251.7 202.6 251.9 202.9 251.9 202.8 252.2 203.1 252.2 203.1 252.4 203.4 252.4 203.4 252.7 203.7 252.7 203.6 253 203.9 253 203.9 253.2 204.2 253.2 189.5 331.1 220.8 331.1 205 247.2 197.9 247.2 197.9 247.2"/><polygon class="b" points="222.7 225 203.9 225 208.1 247.2 223.9 331.1 242.7 331.1 226.9 247.2 222.7 225"/><polygon class="b" points="164.4 247.2 168.5 225.2 149.8 225.2 145.6 247.2 129.8 331.1 148.6 331.1 164.4 247.2"/><rect class="b" x="71" y="60" width="222.3" height="146.6" rx="2.9" ry="2.9"/><path d="M292.8,51.8l-225-1c-.3,0-2.5-.1-4.2,1.6,0,0-1.2,1.2-1.6,3.4-.8,5.1.4,123.7.5,139.7-.7,6-.4,13.3,4.2,18.5,1.3,1.5,2.6,2.3,3.9,3.1,14.6,9.4,34.3,26.7,35.9,28.1.2.2.8.7,1.7,1.2,2.2,1.2,4.7,1.3,6.7,1h27.4l-15.8,83.9h-39.5c-2,0-3.6,1.6-3.6,3.6s.5,2,1.2,2.7c0,0,.2.2.3.3,0,0,.2.2.3.3,0,0,.2.2.3.3,0,0,.2.2.3.3,0,0,.2.2.3.3,0,0,.2.2.3.3,0,0,.2.2.3.3,0,0,.2.2.3.3,0,0,.2.2.3.3,0,0,.2.2.3.3,0,0,.2.2.3.3,0,0,.2.2.3.3,0,0,.2.2.3.3,0,0,.2.2.3.3,0,0,.2.2.3.3,0,0,.2.2.3.3,0,0,.2.2.3.3,0,0,.2.2.3.3,0,0,.2.2.3.3,0,0,.2.2.3.3,0,0,.2.2.3.3,0,0,.2.2.3.3,0,0,.2.2.3.3,0,0,.2.2.3.3,0,0,.2.2.3.3,0,0,.2.2.3.3,0,0,.2.2.3.3,0,0,.2.2.3.3,0,0,.2.2.3.3,0,0,.2.2.3.3,0,0,.2.2.3.3,0,0,.2.2.3.3,0,0,.2.2.3.3,0,0,.2.2.3.3,0,0,.2.2.3.3,0,0,.2.2.3.3,0,0,.2.2.3.3,0,0,.2.2.3.3,0,0,.2.2.3.3,0,0,.2.2.3.3,0,0,.2.2.3.3,0,0,.2.2.3.3,0,0,.2.2.3.3,0,0,.2.2.3.3,0,0,.2.2.3.3,0,0,.2.2.3.3,0,0,.2.2.3.3,0,0,.2.2.3.3,0,0,.2.2.3.3,0,0,.2.2.3.3,0,0,.2.2.3.3,0,0,.2.2.3.3,0,0,.2.2.3.3,0,0,.2.2.3.3,0,0,.2.2.3.3,0,0,.2.2.3.3,0,0,.2.2.3.3,0,0,.2.2.3.3,0,0,.2.2.3.3,0,0,.2.2.3.3,0,0,.2.2.3.3,0,0,.2.2.3.3,0,0,.2.2.3.3,0,0,.2.2.3.3,0,0,.2.2.3.3,0,0,.2.2.3.3,0,0,.2.2.3.3,0,0,.2.2.3.3,0,0,.2.2.3.3,0,0,.2.2.3.3,0,0,.2.2.3.3,0,0,.2.2.3.3,0,0,.2.2.3.3,0,0,.2.2.3.3,0,0,.2.2.3.3,0,0,.2.2.3.3,0,0,.2.2.3.3,0,0,.2.2.3.3,0,0,.2.2.3.3,0,0,.2.2.3.3,0,0,.2.2.3.3,0,0,.2.2.3.3,0,0,.2.2.3.3,0,0,.2.2.3.3,0,0,.2.2.3.3,0,0,.2.2.3.3,0,0,.2.2.3.3,0,0,.2.2.3.3,0,0,.2.2.3.3,0,0,.2.2.3.3,0,0,.2.2.3.3,0,0,.2.2.3.3,0,0,.2.2.3.3,0,0,.2.2.3.3,0,0,.2.2.3.3,0,0,.2.2.3.3,0,0,.2.2.3.3,0,0,.2.2.3.3,0,0,.2.2.3.3,0,0,.2.2.3.3,0,0,.2.2.3.3,0,0,.2.2.3.3,0,0,.2.2.3.3,0,0,.2.2.3.3,0,0,.2.2.3.3,0,0,.2.2.3.3,0,0,.2.2.3.3,0,0,.2.2.3.3,0,0,.2.2.3.3,0,0,.2.2.3.3,0,0,.2.2.3.3,0,0,.2.2.3.3,0,0,.2.2.3.3,0,0,.2.2.3.3,0,0,.2.2.3.3,0,0,.2.2.3.3,0,0,.2.2.3.3,0,0,.2.2.3.3,0,0,.2.2.3.3.7.7,1.6,1.2,2.7,1.2h206.9c2,0,3.6-1.6,3.6-3.6s-.5-2-1.2-2.7c0,0-.2-.2-.3-.3,0,0-.2-.2-.3-.3,0,0-.2-.2-.3-.3,0,0-.2-.2-.3-.3,0,0-.2-.2-.3-.3,0,0-.2-.2-.3-.3,0,0-.2-.2-.3-.3,0,0-.2-.2-.3-.3,0,0-.2-.2-.3-.3,0,0-.2-.2-.3-.3,0,0-.2-.2-.3-.3,0,0-.2-.2-.3-.3,0,0-.2-.2-.3-.3,0,0-.2-.2-.3-.3,0,0-.2-.2-.3-.3,0,0-.2-.2-.3-.3,0,0-.2-.2-.3-.3,0,0-.2-.2-.3-.3,0,0-.2-.2-.3-.3,0,0-.2-.2-.3-.3,0,0-.2-.2-.3-.3,0,0-.2-.2-.3-.3,0,0-.2-.2-.3-.3,0,0-.2-.2-.3-.3,0,0-.2-.2-.3-.3,0,0-.2-.2-.3-.3,0,0-.2-.2-.3-.3,0,0-.2-.2-.3-.3,0,0-.2-.2-.3-.3,0,0-.2-.2-.3-.3,0,0-.2-.2-.3-.3,0,0-.2-.2-.3-.3,0,0-.2-.2-.3-.3,0,0-.2-.2-.3-.3,0,0-.2-.2-.3-.3,0,0-.2-.2-.3-.3,0,0-.2-.2-.3-.3,0,0-.2-.2-.3-.3,0,0-.2-.2-.3-.3,0,0-.2-.2-.3-.3,0,0-.2-.2-.3-.3,0,0-.2-.2-.3-.3,0,0-.2-.2-.3-.3,0,0-.2-.2-.3-.3,0,0-.2-.2-.3-.3,0,0-.2-.2-.3-.3,0,0-.2-.2-.3-.3,0,0-.2-.2-.3-.3,0,0-.2-.2-.3-.3,0,0-.2-.2-.3-.3,0,0-.2-.2-.3-.3,0,0-.2-.2-.3-.3,0,0-.2-.2-.3-.3,0,0-.2-.2-.3-.3,0,0-.2-.2-.3-.3,0,0-.2-.2-.3-.3,0,0-.2-.2-.3-.3,0,0-.2-.2-.3-.3,0,0-.2-.2-.3-.3,0,0-.2-.2-.3-.3,0,0-.2-.2-.3-.3,0,0-.2-.2-.3-.3,0,0-.2-.2-.3-.3,0,0-.2-.2-.3-.3,0,0-.2-.2-.3-.3,0,0-.2-.2-.3-.3,0,0-.2-.2-.3-.3,0,0-.2-.2-.3-.3,0,0-.2-.2-.3-.3,0,0-.2-.2-.3-.3,0,0-.2-.2-.3-.3,0,0-.2-.2-.3-.3,0,0-.2-.2-.3-.3,0,0-.2-.2-.3-.3,0,0-.2-.2-.3-.3,0,0-.2-.2-.3-.3,0,0-.2-.2-.3-.3,0,0-.2-.2-.3-.3,0,0-.2-.2-.3-.3,0,0-.2-.2-.3-.3,0,0-.2-.2-.3-.3,0,0-.2-.2-.3-.3,0,0-.2-.2-.3-.3,0,0-.2-.2-.3-.3,0,0-.2-.2-.3-.3,0,0-.2-.2-.3-.3,0,0-.2-.2-.3-.3,0,0-.2-.2-.3-.3,0,0-.2-.2-.3-.3,0,0-.2-.2-.3-.3,0,0-.2-.2-.3-.3,0,0-.2-.2-.3-.3,0,0-.2-.2-.3-.3,0,0-.2-.2-.3-.3,0,0-.2-.2-.3-.3,0,0-.2-.2-.3-.3,0,0-.2-.2-.3-.3,0,0-.2-.2-.3-.3,0,0-.2-.2-.3-.3,0,0-.2-.2-.3-.3,0,0-.2-.2-.3-.3,0,0-.2-.2-.3-.3,0,0-.2-.2-.3-.3,0,0-.2-.2-.3-.3,0,0-.2-.2-.3-.3,0,0-.2-.2-.3-.3,0,0-.2-.2-.3-.3,0,0-.2-.2-.3-.3,0,0-.2-.2-.3-.3,0,0-.2-.2-.3-.3,0,0-.2-.2-.3-.3,0,0-.2-.2-.3-.3,0,0-.2-.2-.3-.3,0,0-.2-.2-.3-.3,0,0-.2-.2-.3-.3,0,0-.2-.2-.3-.3,0,0-.2-.2-.3-.3,0,0-.2-.2-.3-.3,0,0-.2-.2-.3-.3-.7-.7-1.6-1.2-2.7-1.2h-22l-20.9-83.9h-.2c26.5.3,52.9.6,79.4.9,1.8-.8,3.1-1.9,4.2-2.9,8.8-8.4,4.7-24.2,4.2-26,.2-38.2.4-76.3.7-114.5-6.8-8.6-14.1-17.5-22-26.5-8.3-9.5-16.5-18.3-24.5-26.5ZM223.2,327.4l-18.3-97c-.5-2.8,1.6-5.4,4.5-5.4h9.4c2.2,0,4.1,1.6,4.5,3.7l18.3,97c.5,2.8-1.6,5.4-4.5,5.4h-9.4c-2.2,0-4.1-1.6-4.5-3.7ZM205.7,251l14.1,74.7c.5,2.8-1.6,5.4-4.5,5.4h-20.7c-2.7,0-4.8-2.3-4.6-5l7.9-78.8h0s3.3,0,3.3,0c2.2,0,4.1,1.6,4.5,3.7ZM153.6,225.2h9.4c2.9,0,5,2.6,4.5,5.4l-18.2,96.7c-.4,2.2-2.3,3.7-4.5,3.7h-9.4c-2.9,0-5-2.6-4.5-5.4l18.2-96.7c.4-2.2,2.3-3.7,4.5-3.7ZM293.3,200.2c0,3.5-2.9,6.4-6.4,6.4H77.4c-3.5,0-6.4-2.9-6.4-6.4V66.4c0-3.5,2.9-6.4,6.4-6.4h209.5c3.5,0,6.4,2.9,6.4,6.4v133.7Z"/></svg>