<?xml version="1.0" encoding="UTF-8"?><svg id="a" xmlns="http://www.w3.org/2000/svg" viewBox="0 0 400 400"><defs><style>.b{fill:none;}</style></defs><path class="b" d="M199.4,173.2h0c0,.1-52.5.1-52.5.1-4,0-7.3,3.2-7.3,7.2v52.5c0,4,3.2,7.3,7.2,7.3h52.5c4,0,7.2-3.3,7.2-7.3v-52.5c0-4-3.3-7.3-7.3-7.3ZM179.6,221l.3.4c2.2,0,4,1.8,4,4s-1.8,4-4.1,4h-14.2c-.7,0-1.4-.2-2-.6-2-1.1-2.6-3.6-1.6-5.5l13.9-24.6c.6-1,.7-2.2.4-3.3-.3-1.1-1-2-2.1-2.6-.9-.5-2-.7-3-.5-1,.2-2,.7-2.6,1.6-1.4,1.8-3.9,2.1-5.7.8-1.8-1.4-2.1-3.9-.8-5.7,1.9-2.5,4.5-4.1,7.4-4.7,2.8-.6,5.9-.2,8.6,1.3,2.9,1.7,4.9,4.4,5.8,7.5.8,3,.5,6.4-1.2,9.4l-10.5,18.5h7.3Z"/><path class="b" d="M255.5,136l-.4-.6c2.5,2.7,4.8,5.6,6.7,8.9,1.7,3.7,4.5,7.6,5.2,11.8.3,1.9,2,8.7,2.2,10.7.3,2.7,2.5,4.6,4.9,4.2,2.4-.4,4.1-2.9,3.8-5.5-.2-1.6-.4-3.2-.7-4.7-.2-1.3-.5-2.5-.8-3.7-1.7-7.1-4.5-13.7-8.2-19.5-3.1-6-7.2-11.3-12.1-15.7-4.4-4-9.4-7.1-14.7-9.2l-3.9-1.4c-4.5-1.4-9.2-2.1-14-2.1-11.9,0-23,4.3-32.2,12.4-6,5.3-10.9,12.1-14.2,19.7l-1.5,3.4c-1.5-4.2-3.4-8.2-5.6-11.9-.5-.9-3.4-5.5-7.7-10.1-4.2-4.4-12.2-13.1-25.2-16.4-16.9-4.4-31.1,3-35,5-9.9,5.1-15.7,12.2-17.8,14.9-5.7,7.1-8.5,14.5-9.2,16.1,0,0,0,0,0,0h0c.1,0-1.1,2.5-1,4,.2,3.1,5.8,6.4,8,5,1.4-.9.8-3.1,1-6,.4-5.5,3.3-9.2,8-15,2.4-3,7.7-9.5,17-14,4.7-2.3,15.6-7.6,28-4,10.4,3,16.8,10.8,21,16,3.5,4.3,5.5,8.1,6,9,0,0,5.3,10.1,7.6,24.2,0,0,0,.2,0,.3.4,2.5,2.5,4.2,4.8,3.9,2-.3,7.4-13.9,8.1-15.9,3.4-6.9,8.1-12.8,13.7-17.4,8.3-6.8,18.6-10.5,29.6-9.9,11.1.7,21.1,5.8,28.6,13.7Z"/><path class="b" d="M105.1,171.3h0c0,.1-52.5.1-52.5.1-4,0-7.3,3.2-7.3,7.2v52.5c0,4,3.2,7.3,7.2,7.3h52.5c4,0,7.2-3.3,7.2-7.3v-52.5c0-4-3.3-7.3-7.3-7.3ZM85,227.2l.4.3h-10.5c-2.2,0-4.1-1.9-4.1-4.1s1.8-4.1,4-4.1h1.2v-26.2l-1.8.9c-2,1.1-4.4.4-5.5-1.6-1.1-2-.4-4.4,1.5-5.5l7.7-4.3c1.9-1.1,4.3-.4,5.5,1.5.3.6.5,1.3.5,2v33h1.2c2.2,0,4,1.8,4,4s-1.8,4-4.1,4Z"/><path class="b" d="M289.8,173.2h0c0,.1-52.5.1-52.5.1-4,0-7.3,3.2-7.3,7.2v52.5c0,4,3.2,7.3,7.2,7.3h52.5c4,0,7.2-3.3,7.2-7.3v-52.5c0-4-3.3-7.3-7.3-7.3ZM274.4,224.5c-3,2.9-7.1,4.8-11.7,4.8s-5.8-.8-8.2-2.2c-2.5-1.5-4.6-3.5-6.1-6-1.2-2-.5-4.4,1.4-5.5,1.9-1.2,4.3-.5,5.5,1.4.7,1.2,1.8,2.3,3,3,1.2.7,2.6,1.1,4.1,1.1,2.3,0,4.4-1,5.9-2.5,1.5-1.6,2.4-3.6,2.4-6s-1-4.4-2.5-6c-1.6-1.6-3.7-2.5-6-2.5s-4.1-1.9-4.1-4.1.5-2.3,1.4-3.1c0,0,0-.2.2-.2l4.8-4.9h-11.9c-2.2,0-4.1-1.8-4.1-4.1s1.8-4.1,4-4.1h21.6c2.2,0,4,1.8,4,4s-.5,2.1-1.2,2.9l-7.3,7.2c1.4.7,2.7,1.7,3.9,2.8,2.9,3,4.8,7.1,4.8,11.6s-1.9,8.6-4.8,11.6l.6.4Z"/><path d="M365.3,229.4c-8.6-9.9-18.8-18.4-27.5-28.2-4.1-5.6-6-12.6-10.5-18-20.1-22.3-42.3-42.6-63.3-64.2-4.2-4.2-8.9-8-14.1-10.8-23.8-13.4-55.3-5.6-70.7,16.7-3,4-6.5,1.7-9.4-1.6-2.3-2.4-4.7-4.9-7.3-7.2-30-28.8-85.4-11.7-89.5,30.6.5,2.7,2.3,4.8,4.2,6.7,3.1,3.1,6.1,6.1,9.3,9.3,1,1.1,4.7,4.2,1.8,4.9-3.9.5-8.1,0-12.4.2-5.6,0-12.5,0-18.5,0-3.5.1-6.6-.4-9.7.7-4.3,1.3-6.7,6.1-6.4,10.4,0,9.1,0,34.8,0,48.4-.4,5.3,2.1,10.1,6,13.7,18.5,18.3,36.5,37,55.2,55,4.1,3.8,9.6,3.7,14.8,3.6,13.9,0,36.6,0,45.2,0,6.9.3,10.9-5.4,10.5-11.9,0-4.2,0-9,0-13.6.1-4.1,2.1-3,4.3-.8,6.9,6.8,13.7,13.7,20.6,20.6,3.3,3.5,7.7,6,12.6,5.7,15.4-.2,40.2.6,52.7-.3,11.3-2.9,6.2-17.7,7.6-26.3.3-3.1,2.6-1.3,4,0,33.5,32.5,17.4,25.9,66.1,26.5,4.9,0,8.8,0,13.4,0,5.8.5,12.8-1.2,13.8-7.8.9-12.1,0-40.5.3-52.4,0-3.5-.6-6.5-3-9.6v-.2ZM111.8,232.2c-1.6,6.1-8.3,6.6-13.7,6.3-12.1,0-33.5,0-42.1,0-2.9,0-5.6-.3-8-2.7-2.3-2.4-2.7-5.1-2.7-8,0-9.2,0-32.1,0-44.9-.3-7.3,3.2-11.7,10.8-11.5,12.9,0,36.3,0,45.6,0,6.8-.6,11.2,4.3,10.6,11-.4,11.2.8,36.1-.5,49.7v.2ZM206.2,234.1c-1.6,6.1-8.3,6.6-13.7,6.3-12.1,0-33.5,0-42.1,0-2.9,0-5.6-.3-8-2.7-2.3-2.4-2.7-5.1-2.7-8,0-9.2,0-32.1,0-44.9-.3-7.3,3.2-11.7,10.8-11.5,12.9,0,36.3,0,45.6,0,6.8-.6,11.2,4.2,10.6,11-.4,11.2.8,36.1-.5,49.7v.2ZM197.4,132.3c-5.6,4.6-10.4,10.7-13.6,17.5-1.3,2.8-2.5,5.7-3.7,8.5-1.9,4.9-6,10.4-9.4,2.9-1.6-5.4-2.7-11.6-5-17.2-4.5-12-13.4-24.2-25.3-30.3-18.1-8.9-40.5,3.1-51,17.6-3.9,4.7-6.6,9.8-7.2,15.8-.5,3.3-3.4,4.6-6,2.2-3.8-3.5-1.2-8.9.7-12.7,3-5.7,6.6-11.2,11-15.7,26.5-25.9,61.8-20.5,81,10.3,2,2.9,3.4,6.3,5.2,9.3.6.9,1.7,1.7,2.6.7,2.4-3,3.7-6.9,6.1-10,21.9-32.1,66.3-29,85.1,4.6,3.5,6,6.6,12.3,8.5,19.1,1,4.4,4,14.1-1.9,15.7-4.7,0-5.2-6.7-6.1-10.3-6.4-32.8-44.2-50.3-70.9-28h-.2ZM296.6,234.1c-1.6,6.1-8.3,6.6-13.7,6.3-12.1,0-33.5,0-42.1,0-2.9,0-5.6-.3-8-2.7-2.3-2.4-2.7-5.1-2.7-8,0-9.2,0-32.1,0-44.9-.3-7.3,3.2-11.7,10.8-11.5,12.9,0,36.3,0,45.6,0,6.8-.6,11.2,4.2,10.6,11-.4,11.2.8,36.1-.5,49.7v.2Z"/><path d="M85,219.2h-1.2v-33c0-.7-.1-1.4-.5-2-1.1-1.9-3.6-2.6-5.5-1.5l-7.7,4.3c-1.9,1.1-2.6,3.6-1.5,5.5,1.1,2,3.6,2.6,5.5,1.6l1.8-.9v26.2h-1.2c-2.2,0-4,1.8-4,4.1s1.8,4.1,4.1,4.1h10.5l-.4-.3c2.2,0,4.1-1.8,4.1-4s-1.8-4-4-4Z"/><path d="M184,193.1c-.9-3.1-2.9-5.8-5.8-7.5-2.7-1.5-5.8-2-8.6-1.3-2.9.6-5.5,2.2-7.4,4.7-1.3,1.8-1,4.3.8,5.7,1.8,1.3,4.3,1,5.7-.8.6-.9,1.6-1.4,2.6-1.6,1-.2,2.1,0,3,.5,1,.6,1.8,1.5,2.1,2.6.3,1.1.2,2.3-.4,3.3l-13.9,24.6c-1.1,2-.4,4.4,1.6,5.5.6.3,1.3.5,2,.5h0s14.2,0,14.2,0c2.2,0,4.1-1.8,4.1-4s-1.8-4-4-4l-.3-.4h-7.3l10.5-18.5c1.7-3,2-6.3,1.2-9.4Z"/><path d="M273.8,200.9c-1.2-1.1-2.4-2.1-3.9-2.8l7.3-7.2c.7-.8,1.2-1.8,1.2-2.9,0-2.2-1.8-4-4-4h-21.6c-2.2,0-4,1.8-4,4.1s1.8,4.1,4.1,4.1h11.9l-4.8,4.9c0,0-.1.1-.2.2-.8.7-1.4,1.8-1.4,3.1,0,2.2,1.8,4.1,4.1,4.1s4.4.9,6,2.5c1.5,1.5,2.5,3.6,2.5,6s-.9,4.4-2.4,6c-1.5,1.5-3.6,2.5-5.9,2.5s-3-.4-4.1-1.1c-1.3-.7-2.3-1.8-3-3-1.2-2-3.6-2.6-5.5-1.4-1.9,1.1-2.5,3.6-1.4,5.5,1.5,2.4,3.5,4.5,6.1,6,2.4,1.4,5.2,2.2,8.2,2.2,4.5,0,8.7-1.9,11.7-4.8l-.6-.4c3-3,4.8-7.1,4.8-11.6s-1.9-8.6-4.8-11.6Z"/></svg>