<?xml version="1.0" encoding="UTF-8"?><svg id="a" xmlns="http://www.w3.org/2000/svg" viewBox="0 0 400 400"><defs><style>.b{fill:none;}</style></defs><path class="b" d="M268.4,160.2c.9,3.6,1.4,10.3,6.1,10.3,5.9-1.6,2.9-11.3,1.9-15.7-1.9-6.7-5-13.1-8.5-19.1-18.8-33.6-63.1-36.7-85.1-4.6-2.4,3.1-3.7,6.9-6.1,10-.9,1-2.1.3-2.6-.7-1.8-3-3.2-6.4-5.2-9.3-19.2-30.8-54.5-36.2-81-10.3-4.4,4.5-8,9.9-11,15.7-1.9,3.8-4.5,9.2-.7,12.7,2.6,2.4,5.5,1.1,6-2.2.7-6,3.4-11.1,7.2-15.8,10.5-14.5,32.9-26.6,51-17.6,11.9,6.1,20.9,18.3,25.3,30.3,2.2,5.6,3.3,11.7,5,17.2,3.4,7.5,7.4,2,9.4-2.9,1.3-2.8,2.4-5.7,3.7-8.5,3.2-6.7,8-12.8,13.6-17.5h.2c26.7-22.4,64.4-4.9,70.9,27.9Z"/><path class="b" d="M206.7,184.3c.6-6.7-3.8-11.6-10.6-11-9.3,0-32.7,0-45.6,0-7.6-.2-11.1,4.2-10.8,11.5,0,12.8,0,35.7,0,44.9,0,2.9.3,5.6,2.7,8,2.5,2.3,5.1,2.7,8,2.7,8.6,0,30,0,42.1,0,5.4.3,12.1-.2,13.7-6.3v-.2c1.3-13.5.1-38.5.5-49.7ZM186.4,199.8c-.6,7.5-7.6,10.8-12.5,15.3-2.5,2.3-3.9,3.9-3.4,7.6h15.3v9.9h-26.6v-14c0-6.7,9.2-12.2,13.5-16.3,1.9-1.8,2.5-2.9,2.6-5.6,0-2.4-.2-4.5-3-4.9-4-.6-8.4.5-12.1,1.8v-10.4c5.2-2.1,12.4-2.4,17.8-.9,8.7,2.5,9.1,9.7,8.4,17.6Z"/><path class="b" d="M112.3,182.3c.6-6.7-3.8-11.6-10.6-11-9.3,0-32.7,0-45.6,0-7.6-.2-11.1,4.2-10.8,11.5,0,12.8,0,35.7,0,44.9,0,2.9.3,5.6,2.7,8,2.5,2.3,5.1,2.7,8,2.7,8.6,0,30,0,42.1,0,5.4.3,12.1-.2,13.7-6.3v-.2c1.3-13.5.1-38.5.5-49.7ZM85,231.5l-.3.3h-11v-37.3l-8.1,5.6v-12l9.6-7.2h9.8v50.5Z"/><path class="b" d="M297.1,184.2c.6-6.7-3.8-11.6-10.6-11-9.3,0-32.7,0-45.6,0-7.6-.2-11.1,4.2-10.8,11.5,0,12.8,0,35.7,0,44.9,0,2.9.3,5.6,2.7,8,2.5,2.3,5.1,2.7,8,2.7,8.6,0,30,0,42.1,0,5.4.3,12.1-.2,13.7-6.3v-.2c1.3-13.5.1-38.5.5-49.7ZM276.6,224.9c-2.7,10.7-17.9,9.8-26.2,7.4v-10.5c2.6.8,5.2,1.6,8,1.8,2.1.1,6.9.2,7.3-2.5.2-1,.2-5.4,0-6.4-.2-1-1.5-1.7-2.3-1.7h-7v-10.3h6.4c.4,0,1.7-.7,2-1,1.3-1.4,1.4-7.2-.2-8.5-2.5-2.1-10-.6-13,.2v-10.2c.2-.5,4.8-1.1,5.5-1.1,8.2-.5,18.8.8,19.7,11,.3,3.7.5,10.1-2.3,12.8l-2.3,1.4c2.1.2,3.8,1.8,4.4,3.8.8,2.8.7,10.9,0,13.8Z"/><path d="M368.4,239.2c0-3.5-.6-6.5-3-9.6v-.2c-8.7-9.9-18.9-18.4-27.6-28.2-4.1-5.6-6-12.6-10.5-18-20.1-22.3-42.3-42.6-63.3-64.2-4.2-4.2-8.9-8-14.1-10.8-23.8-13.4-55.3-5.6-70.7,16.7-3,4-6.5,1.7-9.4-1.6-2.3-2.4-4.7-4.9-7.3-7.2-30-28.8-85.4-11.7-89.5,30.6.5,2.7,2.3,4.8,4.2,6.7,3.1,3.1,6.1,6.1,9.3,9.3,1,1.1,4.7,4.2,1.8,4.9-3.9.5-8.1,0-12.4.2-5.6,0-12.5,0-18.5,0-3.5.1-6.6-.4-9.7.7-4.3,1.3-6.7,6.1-6.4,10.4,0,9.1,0,34.8,0,48.4-.4,5.3,2.1,10.1,6,13.7,18.5,18.3,36.5,37,55.2,55,4.1,3.8,9.6,3.7,14.8,3.6,13.9,0,36.6,0,45.2,0,6.9.3,10.9-5.4,10.5-11.9,0-4.2,0-9,0-13.6.1-4.1,2.1-3,4.3-.8,6.9,6.8,13.7,13.7,20.6,20.6,3.3,3.5,7.7,6,12.6,5.7,15.4-.2,40.2.6,52.7-.3,11.3-2.9,6.2-17.7,7.6-26.3.3-3.1,2.6-1.3,4,0,33.5,32.5,17.4,25.9,66.1,26.5,4.9,0,8.8,0,13.4,0,5.8.5,12.8-1.2,13.8-7.8.9-12.1,0-40.5.3-52.4ZM111.9,232v.2c-1.6,6.1-8.4,6.6-13.7,6.3-12.1,0-33.5,0-42.1,0-2.9,0-5.6-.3-8-2.7-2.3-2.4-2.7-5.1-2.7-8,0-9.2,0-32.1,0-44.9-.3-7.3,3.2-11.7,10.8-11.5,12.9,0,36.3,0,45.6,0,6.8-.6,11.2,4.3,10.6,11-.4,11.2.8,36.1-.5,49.7ZM206.3,233.9v.2c-1.6,6.1-8.4,6.6-13.7,6.3-12.1,0-33.5,0-42.1,0-2.9,0-5.6-.3-8-2.7-2.3-2.4-2.7-5.1-2.7-8,0-9.2,0-32.1,0-44.9-.3-7.3,3.2-11.7,10.8-11.5,12.9,0,36.3,0,45.6,0,6.8-.6,11.2,4.2,10.6,11-.4,11.2.8,36.1-.5,49.7ZM197.6,132.2h-.2c-5.6,4.8-10.4,10.9-13.6,17.6-1.3,2.8-2.5,5.7-3.7,8.5-1.9,4.9-6,10.4-9.4,2.9-1.6-5.4-2.7-11.6-5-17.2-4.5-12-13.4-24.2-25.3-30.3-18.1-8.9-40.5,3.1-51,17.6-3.9,4.7-6.6,9.8-7.2,15.8-.5,3.3-3.4,4.6-6,2.2-3.8-3.5-1.2-8.9.7-12.7,3-5.7,6.6-11.2,11-15.7,26.5-25.9,61.8-20.5,81,10.3,2,2.9,3.4,6.3,5.2,9.3.6.9,1.7,1.7,2.6.7,2.4-3,3.7-6.9,6.1-10,21.9-32.1,66.3-29,85.1,4.6,3.5,6,6.6,12.3,8.5,19.1,1,4.4,4,14.1-1.9,15.7-4.7,0-5.2-6.7-6.1-10.3-6.4-32.8-44.2-50.3-70.9-28ZM296.6,233.9v.2c-1.6,6.1-8.4,6.6-13.7,6.3-12.1,0-33.5,0-42.1,0-2.9,0-5.6-.3-8-2.7-2.3-2.4-2.7-5.1-2.7-8,0-9.2,0-32.1,0-44.9-.3-7.3,3.2-11.7,10.8-11.5,12.9,0,36.3,0,45.6,0,6.8-.6,11.2,4.2,10.6,11-.4,11.2.8,36.1-.5,49.7Z"/><path d="M272.2,207.3l2.3-1.4c2.8-2.7,2.6-9.1,2.3-12.8-.8-10.2-11.4-11.5-19.7-11-.8,0-5.4.6-5.5,1.1v10.2c3-.9,10.5-2.3,13-.2,1.6,1.3,1.6,7.1.2,8.5-.3.3-1.6,1-2,1h-6.4v10.3h7c.8,0,2.2.8,2.3,1.7.2,1,.2,5.4,0,6.4-.5,2.8-5.3,2.7-7.3,2.5-2.7-.2-5.4-1-8-1.8v10.5c8.3,2.3,23.5,3.3,26.2-7.4.7-2.9.8-11,0-13.8-.6-2-2.3-3.6-4.4-3.8Z"/><path d="M178,182.2c-5.4-1.5-12.6-1.2-17.8.9v10.4c3.7-1.2,8.2-2.3,12.1-1.8,2.7.4,3.1,2.5,3,4.9-.1,2.7-.7,3.8-2.6,5.6-4.3,4.1-13.5,9.6-13.5,16.3v14h26.6v-9.9h-15.3c-.5-3.7.9-5.3,3.4-7.6,4.9-4.5,11.9-7.8,12.5-15.3.6-7.9.3-15.1-8.4-17.6Z"/><polygon points="65.7 188.2 65.7 200.2 73.7 194.5 73.7 231.8 84.7 231.8 85 231.5 85 181 75.2 181 65.7 188.2"/></svg>