<?xml version="1.0" encoding="UTF-8"?><svg id="a" xmlns="http://www.w3.org/2000/svg" viewBox="0 0 115 115"><path d="M81.6,60.6h1.1l6.8-6.8v-17.9c-7-7-14-14-20.9-20.9h-33.7l-9.4,9.4v17.9c2.6,2.6,5.3,5.3,7.9,7.9v5.2c2.6,2.6,5.3,5.3,7.9,7.9v3.1l-1.3,1.3-10.5,2.6-3.9,3.9v14.2h.8v.8h.8v.8h.8v.8h.8v.8h.8v.8h.8v.8h.8v.8h.8v.8h.8v.8h.8v.8h.8v.8h.8v.8h.8v.8h.8v.8h.8v.8h52.5v-14.2c-4.4-4.4-8.9-8.9-13.4-13.4l5.5-5.5v-6.3ZM38.6,34.5l3.7-3.7h18.8l3.7,3.7v18.8l-3.7,3.7h-18.8l-3.7-3.7v-18.8ZM57.8,69.4l-6.1,3-6.1-3,.8-.8v-6.3h10.5v6.3l.8.8Z"/><rect x="43.9" y="36" width="5.2" height="5.2"/><rect x="54.4" y="36" width="5.2" height="5.2"/><polygon points="55.5 54.4 59.6 50.2 59.6 46.5 54.4 46.5 54.4 48 53.3 49.1 50.2 49.1 49.1 48 49.1 46.5 43.9 46.5 43.9 50.2 48 54.4 55.5 54.4"/></svg>