<?xml version="1.0" encoding="UTF-8"?><svg id="a" xmlns="http://www.w3.org/2000/svg" viewBox="0 0 400 400"><defs><style>.b{fill:#323232;}.c{fill:#fff;}</style></defs><polygon class="b" points="115.1 113.9 112.2 111.2 107.4 115.7 102.7 111.2 99.8 113.9 104.6 118.4 99.8 123 102.7 125.7 107.5 121.2 112.2 125.7 115.1 123 110.4 118.4 115.1 113.9"/><path d="M150.6,145.2h27.6v19.8h-27.6v-19.8Z"/><path d="M187.3,102h27.7v63.1h-27.7v-63.1Z"/><path d="M223.9,129.9h27.7v35.2h-27.7v-35.2Z"/><path d="M260.6,116.4h27.6v48.7h-27.6v-48.7Z"/><path d="M160.8,186.7h-21.2c-2.5,0-4.5,2-4.5,4.5v21.2c0,2.5,2,4.5,4.5,4.5h21.2c2.5,0,4.5-2,4.5-4.5v-21.2c0-2.5-2-4.5-4.5-4.5Z"/><path d="M257.5,189.8h-78.8c-2.5,0-4.5,2-4.5,4.5s2,4.5,4.5,4.5h78.8c2.5,0,4.5-2,4.5-4.5s-2-4.5-4.5-4.5Z"/><path d="M178.7,211.8h42.3c2.5,0,4.5-2,4.5-4.5s-2-4.5-4.5-4.5h-42.3c-2.5,0-4.5,2-4.5,4.5s2,4.5,4.5,4.5Z"/><path d="M160.8,224.8h-21.2c-2.5,0-4.5,2-4.5,4.5v21.2c0,2.5,2,4.5,4.5,4.5h21.2c2.5,0,4.5-2,4.5-4.5v-21.2c0-2.5-2-4.5-4.5-4.5Z"/><path d="M257.5,227.8h-78.8c-2.5,0-4.5,2-4.5,4.5s2,4.5,4.5,4.5h78.8c2.5,0,4.5-2,4.5-4.5s-2-4.5-4.5-4.5Z"/><path d="M220.9,240.9h-42.3c-2.5,0-4.5,2-4.5,4.5s2,4.5,4.5,4.5h42.3c2.5,0,4.5-2,4.5-4.5s-2-4.5-4.5-4.5Z"/><polygon points="292.1 84.1 74.8 84.1 70.7 84.1 70.7 68 296.1 68 296.1 84.1 292.1 84.1"/><path d="M124,197.3v-5.5c0-.4-.3-.8-.6-1l-7.8-4.5v-2.3c-.2-4-.9-7.9-2.1-11.7,0,0,0,0,0,0,0,0,0,0,0,0-1.4-4.5-3.6-8.6-6.3-12.2-.4-.5-1.1-.5-1.5,0,0,0,0,0,0,.1-4.9,6.9-7.6,15.4-7.6,24.2v2.3s-7.7,4.7-7.7,4.7c-.3.2-.5.6-.5,1v5.5c0,.6.6,1.1,1.1,1.1l32.1-.5c.6,0,1-.5,1-1.1ZM122,196.3l-30.1.5v-3.7c0,0,7.6-4.7,7.6-4.7.3-.2.5-.6.5-1v-3c0-3.4.4-6.7,1.2-10,1.7.6,3.5.9,5.3.8,1.8,0,3.6-.4,5.3-1,.9,3.2,1.5,6.6,1.6,9.9v3c.1.4.3.8.6.9l7.8,4.5v3.7Z"/><path d="M99.4,209.7c0,4.3,6.4,14.8,7.2,16,.3.5,1,.6,1.4.3.1,0,.2-.2.3-.3.7-1.2,6.7-11.9,6.7-16.2,0-4.7-3.6-8.5-7.9-8.4s-7.7,3.9-7.6,8.7Z"/><line class="c" x1="297.2" y1="81.1" x2="295.2" y2="89.1"/><path d="M363.9,305.2c-2.2-2.9-2.7-5.3-2.6-8.5,0-21.7,0-60.6,0-92.2,0-36.3,0-70.1,0-84.1-.4-2.8,2.1-5,4-6.8,5.8-5.6,6.1-14.8,6.1-22.5,0-6.3,0-12-2-17.9-1.8-5.2-5.6-9.2-9.5-13-5.9-6-11.6-12.1-18.6-16.9-3.1-2.6-7.1-3.4-11.1-3.2-18.2,0-29.2,0-44.3,0-81.2,0-108.9,0-198.1,0-10.4,0-22.6,0-37,0-5.3-.4-10.3,2.7-12.5,7.3-4,8.8-3.4,24.7-2.4,34.4.4,5.2,4.8,10.1,7.6,14.5,3.3,36,0,138.2,1.1,182.2,0,2.2-1,4.1-2.5,5.7-13.4,13.4,6,26,14.8,35.4,8.7,9.3,19.5,8.2,31.3,8.1,9.9,0,19.9,0,30.3,0,14.7.3,29.1-.6,43.6.4,3.7.8,4.3,5.4,5.8,8.5,4.5,13.9,20.2,17.9,33,19.1,8.3,0,34.7,8.8,37.2-1.6,2.5-8.3-14.7-26.6-7.2-26.2,30.4-.2,97.7.1,124.3,0,13.1.6,17.2-12.9,8.9-22.2v-.2ZM329.7,70c.8,9.1-4.1,9.5-8,16-4.5,26.5-.3,173.1-.2,198.9-.1,1.2-2.3,1.2-3.5,1.2-13.2,0-33.6,0-53.1,0-13.5,0-26.6,0-36.8,0-16.2,1.1-27.1-4-35.1,8.5-4.3,7.1-4,16.9.8,23.8,3.4,4.7,10.5,7.7,7.6,14.7-3.6,12.4-24.2,10.5-24.9-2.5-.9-10.1,17.3-12.3,8.7-32.8-3.2-7-10.8-10.8-18.2-9.9-24.2.2-77.6,1-104.5,1.4-1.5,0-3.9.4-3.6-1.6.2-19.3,2-169.2.4-196.7.3-5.9-6.2-9.8-8.7-14-1.4-5.3-.3-11.2-.6-16.7-.3-3.2,2.1-4.7,5.1-4.2,70.8.1,199-.1,268.3,0,1.6,0,3.4,0,4.8.4,2.7,2.7,1.1,9.4,1.5,13.3v.2Z"/></svg>