<?xml version="1.0" encoding="UTF-8"?><svg id="a" xmlns="http://www.w3.org/2000/svg" viewBox="0 0 400 400"><path d="M364.8,156.5c-1.2-13.5-6.3-18.3-17.8-26-19.2-13-48.4-30.4-70.8-42.2-22.1-11.7-44.8-13.3-67.6-5-2.9,1.1-5.5,2.5-8.4,4-2.6,1.4-5.3,2.9-8.2,4l-3.4,1.3.2-19.2h2.3c7.9-.6,12-6.4,13.1-11.1,1.1-4.6,0-10.8-6.4-14.4-.9-.5-2.8-.9-4.1-1.2-2-.5-3.2-.7-4-1.6-.8-.8-1.1-2-1.6-4-.3-1.4-.7-3.2-1.2-4.1-2.3-4-6.3-6.5-10.9-6.8-4.6-.3-8.8,1.8-11.5,5.5-1.2,1.6-1.9,4.3-2.4,6.2-.5,1.7-.7,2.6-1.4,3.3-.8.8-2,1.1-4,1.6-1.4.3-3.2.7-4.1,1.2-6.4,3.6-7.5,9.8-6.4,14.4,1.2,5.2,5.7,10.5,13.1,11h2.3c0,.1.2,21.7.2,21.7l-3.9-2.5c-23.2-14.9-50.1-18.4-73.7-9.6-22.1,8.2-38.2,26.1-45.3,50.3-10.7,36.3-4.5,70.8,17.8,99.7.7.9,2,2.1,3.3,3.4,3,2.8,4.8,4.7,5.4,6.5,1.2,4.2.9,9.2.5,14.5-.4,5.9-.8,12,1.1,16.3l68.8,78.6c5.2,4.6,10,7.2,15.8,8.7l185.9.7c14-1.2,25.5-12.2,27.6-26.3-1.8-27.7-.7-57.1.3-85.6,1.1-31.1,2.3-63.3-.3-92.9ZM161.6,254.2h-69.1v-21.9c0-2.1-6.7-8.5-9.9-11.6-2.3-2.2-4.3-4.1-5.5-5.6-24.2-30-19.5-73.9.1-96,7.7-8.7,29.4-26.8,63.6-5.5,2.9,1.8,20.8,17.5,20.8,22.6v117.9ZM279,205.8c-2.3,4.3-6.8,9.6-11.2,14.7-4,4.6-8.4,9.9-9.2,12.4-1.2,3.8-1.1,7.7-.9,11.9,0,2.3.2,4.7,0,7.1l-.2,2.3h-68.9v-120.6c0-1,0-1.5,5.7-7.8,2.4-2.7,5.5-5.9,6.5-6.8,18-15.7,41.7-18.4,61.8-7.2,14.8,8.3,24,23.6,26.2,43.2,1.8,16.8-1.8,35.8-9.8,50.7Z"/><path d="M207.5,216.5c-1.1,4.7-.1,11,6.1,14.7,4,2.5,8.9,2.5,13.3.1,4.4-2.4,7-6.8,7-11.5v-.3c0-3.5-1.5-7-4.3-9.6-2.5-2.4-5.8-3.7-9-3.7s-.5,0-.8,0c-7.3.4-11.2,5.8-12.3,10.3Z"/><path d="M130.9,208.1c-2.2-1.2-4.5-1.8-6.7-1.8s-4.5.6-6.5,1.9c-6.3,3.8-7.3,10.1-6.2,14.7,1.1,4.5,5,9.8,12.3,10.3,3.5.3,7.1-1.1,9.8-3.7,2.8-2.6,4.3-6.1,4.3-9.6v-.3c0-4.7-2.6-9.1-7-11.5Z"/></svg>