<?xml version="1.0" encoding="UTF-8"?><svg id="a" xmlns="http://www.w3.org/2000/svg" viewBox="0 0 115 112"><path d="M51,18.5h0c.6,0,1.2,0,1.9,0-.6,0-1.2,0-1.9,0Z"/><path d="M84.2,36.8c-.2-.2-.4-.4-.5-.5-.2-.2-.4-.4-.5-.5-.2-.2-.4-.4-.5-.5-.2-.2-.4-.4-.5-.5-.2-.2-.4-.4-.5-.5-.2-.2-.4-.4-.5-.5-.2-.2-.4-.4-.5-.5-.2-.2-.4-.4-.5-.5-.2-.2-.4-.4-.5-.5-.2-.2-.4-.4-.5-.5-.2-.2-.4-.4-.5-.5-.2-.2-.4-.4-.5-.5-.2-.2-.4-.4-.5-.5-.2-.2-.4-.4-.5-.5-2-2.1-4.3-3.9-6.8-5.5,0,0,0,0,0,0-.5-.3-1-.6-1.5-.9,0,0,0,0,0,0-.5-.3-1-.5-1.5-.8,0,0,0,0,0,0-.5-.2-1-.5-1.5-.7,0,0-.1,0-.2,0-.5-.2-1-.4-1.4-.6,0,0-.1,0-.2,0-.5-.2-.9-.3-1.4-.5,0,0-.2,0-.3,0-.5-.1-.9-.3-1.4-.4-.1,0-.2,0-.4-.1-.4-.1-.9-.2-1.3-.3-.1,0-.3,0-.4-.1-.4,0-.9-.2-1.3-.2-.2,0-.3,0-.5,0-.4,0-.8-.1-1.3-.2-.2,0-.4,0-.5,0-.4,0-.9,0-1.3-.1-.2,0-.3,0-.5,0-.6,0-1.2,0-1.9,0s-1.2,0-1.9,0c-3.9.2-7.7,1-11.2,2.4-.6.2-1.3.5-1.9.8-.8.4-1.5.7-2.3,1.1-.5.3-1,.6-1.5.9-.6.4-1.3.8-1.9,1.2-.5.4-1.1.8-1.6,1.2-.7.6-1.4,1.1-2.1,1.7-1.8,1.6-3.5,3.5-4.9,5.5-.7,1-1.4,2-2,3.1s-1.2,2.2-1.7,3.3-.5,1.1-.7,1.7c-1.6,4.1-2.5,8.5-2.5,13.1h0s0,0,0,0c0,.6,0,1.2,0,1.9,0,.2,0,.3,0,.5,0,.4,0,.9.1,1.3,0,.2,0,.4,0,.5,0,.4,0,.9.2,1.3,0,.2,0,.3,0,.5,0,.4.1.9.2,1.3,0,.2,0,.3.1.4,0,.4.2.9.3,1.3,0,.1,0,.3.1.4.1.5.3.9.4,1.4,0,.1,0,.2.1.3.2.5.3.9.5,1.4,0,0,0,.2,0,.2.2.5.4,1,.6,1.4,0,0,0,.1,0,.2.2.5.4,1,.7,1.5,0,0,0,0,0,.1.2.5.5,1,.8,1.5,0,0,0,0,0,0,.3.5.6,1,.9,1.5,0,0,0,0,0,0,1.5,2.5,3.4,4.8,5.5,6.8,0,0,0,0,0,0,.2.2.4.4.5.5.2.2.4.4.5.5.2.2.4.4.5.5.2.2.4.4.5.5.2.2.4.4.5.5.2.2.4.4.5.5.2.2.4.4.5.5.2.2.4.4.5.5.2.2.4.4.5.5.2.2.4.4.5.5.2.2.4.4.5.5.2.2.4.4.5.5.2.2.4.4.5.5.2.2.4.4.5.5,6.5,6.7,15.7,10.8,25.7,10.8,19.9,0,36-16.2,36-36s-4.2-19.2-10.8-25.7ZM17.7,54.2c0-18.3,14.9-33.2,33.2-33.2s33.2,14.9,33.2,33.2-14.9,33.2-33.2,33.2-33.2-14.9-33.2-33.2Z"/><path d="M51.4,36.9c.1,0,.3,0,.4.1.3-.1.4-.4.4-.6s-.3-.7-.7-.7c-10.7,0-19.4,8.7-19.4,19.4s.3.7.7.7.7-.3.7-.7,0-.2,0-.3c0,0,0,0,0,0,0-9.9,8-17.9,17.9-17.9Z"/><path d="M50.5,29.9c.4,0,.7-.3.7-.7s-.3-.7-.7-.7c-14.4,0-26.1,11.7-26.1,26.1s.3.7.7.7.7-.3.7-.7c0-13.6,11.1-24.6,24.6-24.6Z"/><path d="M52.1,73c-.4,0-.7.3-.7.7s.3.7.7.7c10.7,0,19.4-8.7,19.4-19.4s-.3-.7-.7-.7-.7.3-.7.7c0,9.9-8.1,18-18,18Z"/><path d="M50.2,71.4c0,.4.3.7.7.7,9.9,0,17.9-8,17.9-17.9s-.3-.7-.7-.7-.7.3-.7.7c0,9.1-7.4,16.6-16.6,16.6s-.7.3-.7.7Z"/><path d="M27.9,56.6c0-13.6,11.1-24.6,24.6-24.6s.7-.3.7-.7-.3-.7-.7-.7c-14.4,0-26.1,11.7-26.1,26.1s.3.7.7.7.7-.3.7-.7Z"/><path d="M29,56.9c0,.4.3.7.7.7s.7-.3.7-.7c0-12.5,10.2-22.7,22.7-22.7s.7-.3.7-.7-.3-.7-.7-.7c-13.2,0-24,10.8-24,24Z"/><path d="M43,54.5c0,4.4,3.6,8,8,8s8-3.6,8-8-3.6-8-8-8-8,3.6-8,8Z"/><path d="M50.4,76.4c-.4,0-.7.3-.7.7s.3.7.7.7c13.2,0,24-10.8,24-24,0-.4-.3-.7-.7-.7s-.7.3-.7.7c0,12.5-10.2,22.7-22.7,22.7Z"/><path d="M51,79.2c-.4,0-.7.3-.7.7s.3.7.7.7c14.4,0,26.1-11.7,26.1-26.1,0-.4-.3-.7-.7-.7s-.7.3-.7.7c0,13.6-11.1,24.6-24.6,24.6Z"/></svg>