<?xml version="1.0" encoding="UTF-8"?><svg id="a" xmlns="http://www.w3.org/2000/svg" viewBox="0 0 400 400"><defs><style>.b{fill:none;}</style></defs><path class="b" d="M195.4,168.4l-3.2,4.3,4.2,3.1c0,0,.9.2,1.1.2,1.6.1,3-1.3,2.9-2.9,0-.3-.4-1.4-.6-1.6l-4.3-3.2Z"/><path class="b" d="M175.4,159.9c1.9.4,3.6-1.6,3-3.4,0-.1-.4-.9-.4-1l-4.4-3.3-3.2,4.3,4.2,3.1c0,0,.7.2.9.3Z"/><path class="b" d="M127,225c-13.6-5.6-29.6-1.7-39,9.7-7.5,9.1-15.1,42.8-19.7,75.6,31.2-10.8,62.4-24.5,69.9-33.5,5.7-7,8.4-15.7,7.6-24.7-.9-9-5.2-17.1-12.1-22.8-2-1.7-4.2-3.1-6.6-4.2Z"/><path class="b" d="M247.8,238.8l-20.4-50.5c-.9-2.1-.5-4.5.9-6.2l10.4-13.1c11.8-14.9,21.5-31.3,28.9-48.8-10.3-4.2-19.9-9.9-28.5-16.9-8.6-7.1-16.1-15.5-22.2-24.9-15.8,10.6-30,23.3-42.4,37.7l-10.9,12.8c-1.5,1.7-3.7,2.5-5.9,2.1l-53.4-10.3-13.4,16.2,143.3,118.2,13.4-16.2ZM171.8,180.2c-1.2-.6-5-3.5-6-4.5-.1-.1-.2-.2-.3-.4l2.9-12.3-1.9-1.4-6.8,9.1c-.1.1-.6,0-.7,0-1.1-.6-4.7-3.3-5.6-4.2,0,0-.2-.1-.2-.3v-.5c.1,0,17.4-23.4,17.4-23.4.3-.3.7-.9,1.2-.5,3.7,3.1,8.4,5.7,12,8.9,6.5,5.8,1.9,17.2-6.4,16.7-.4,0-1.9-.4-2.1-.1l-2.6,13c-.3.2-.5,0-.7,0ZM197.1,183.2l-.3.6-2.3,12.2c0,.2-.5.8-.6.6l-6.6-4.9,2.8-12.5-1.7-1.3-6.7,9c0,0-.4.2-.5.2-.1,0-.2,0-.3-.1-1.2-.7-4.7-3.3-5.6-4.2-.2-.2-.4-.4-.3-.7l17.9-24h.7c3.6,3.1,8.1,5.6,11.6,8.7,7.5,6.5,1.4,18.8-8,16.6Z"/><path d="M340.1,55.1c-.2-.1-.5-.2-.8-.3-.2-.1-.5-.2-.8-.3-.2-.1-.5-.2-.8-.3-.2-.1-.5-.2-.8-.3-.2-.1-.5-.2-.8-.3-.2-.1-.5-.2-.8-.3-.2-.1-.5-.2-.8-.3-.2-.1-.5-.2-.8-.3-.2-.1-.5-.2-.8-.3-.2-.1-.5-.2-.8-.3-.2-.1-.5-.2-.8-.3-.2-.1-.5-.2-.8-.3-.2-.1-.5-.2-.8-.3-.2-.1-.5-.2-.8-.3-.2-.1-.5-.2-.8-.3-.2-.1-.5-.2-.8-.3-.2-.1-.5-.2-.8-.3-.2-.1-.5-.2-.8-.3-.2-.1-.5-.2-.8-.3-.2-.1-.5-.2-.8-.3-.2-.1-.5-.2-.8-.3-.2-.1-.5-.2-.8-.3-.2-.1-.5-.2-.8-.3-.2-.1-.5-.2-.8-.3-.2-.1-.5-.2-.8-.3-.2-.1-.5-.2-.8-.3-.2-.1-.5-.2-.8-.3-.2-.1-.5-.2-.8-.3-.2-.1-.5-.2-.8-.3-.2-.1-.5-.2-.8-.3-.2-.1-.5-.2-.8-.3-.2-.1-.5-.2-.8-.3-.2-.1-.5-.2-.8-.3-.2-.1-.5-.2-.8-.3-.2-.1-.5-.2-.8-.3-.2-.1-.5-.2-.8-.3-.2-.1-.5-.2-.8-.3-.2-.1-.5-.2-.8-.3-.2-.1-.5-.2-.8-.3-.2-.1-.5-.2-.8-.3-.2-.1-.5-.2-.8-.3-.2-.1-.5-.2-.8-.3-.2-.1-.5-.2-.8-.3-.2-.1-.5-.2-.8-.3-.2-.1-.5-.2-.8-.3-.2-.1-.5-.2-.8-.3-.2-.1-.5-.2-.8-.3-.2-.1-.5-.2-.8-.3-.2-.1-.5-.2-.8-.3-.2-.1-.5-.2-.8-.3-.2-.1-.5-.2-.8-.3-.2-.1-.5-.2-.8-.3-.2-.1-.5-.2-.8-.3-.2-.1-.5-.2-.8-.3-.2-.1-.5-.2-.8-.3-.2-.1-.5-.2-.8-.3-.2-.1-.5-.2-.8-.3-.2-.1-.5-.2-.8-.3-.2-.1-.5-.2-.8-.3-.4-.2-.8-.4-1.3-.5-1.1-.7-2.4-1.2-3.8-1.1-.3,0-.5,0-.8,0-48.4,9.8-92.2,35.6-124.2,73.3l-8.5,10-53.5-10.4c-2.2-.4-4.5.4-6,2.2l-19.7,23.9c-2.2,2.7-1.8,6.6.8,8.8l105.2,86.8c-.7-.3-1.4-.6-2.1-.9-.3-.1-.5-.2-.8-.3-.3-.1-.5-.2-.8-.3-.3-.1-.5-.2-.8-.3-.3-.1-.5-.2-.8-.3-.3-.1-.5-.2-.8-.3-.3-.1-.5-.2-.8-.3-.3-.1-.5-.2-.8-.3-.3-.1-.5-.2-.8-.3-.3-.1-.5-.2-.8-.3-.3-.1-.5-.2-.8-.3-.3-.1-.5-.2-.8-.3-.3-.1-.5-.2-.8-.3-.3-.1-.5-.2-.8-.3-.3-.1-.5-.2-.8-.3-.3-.1-.5-.2-.8-.3-.3-.1-.5-.2-.8-.3-.3-.1-.5-.2-.8-.3-.3-.1-.5-.2-.8-.3-.3-.1-.5-.2-.8-.3-.3-.1-.5-.2-.8-.3-.3-.1-.5-.2-.8-.3-.3-.1-.5-.2-.8-.3-.3-.1-.5-.2-.8-.3-.3-.1-.5-.2-.8-.3-.3-.1-.5-.2-.8-.3-.3-.1-.5-.2-.8-.3-.3-.1-.5-.2-.8-.3-.3-.1-.5-.2-.8-.3-.3-.1-.5-.2-.8-.3-.3-.1-.5-.2-.8-.3-.3-.1-.5-.2-.8-.3-.3-.1-.5-.2-.8-.3-.3-.1-.5-.2-.8-.3-.3-.1-.5-.2-.8-.3-.3-.1-.5-.2-.8-.3-.3-.1-.5-.2-.8-.3-.3-.1-.5-.2-.8-.3-.3-.1-.5-.2-.8-.3-.3-.1-.5-.2-.8-.3-.3-.1-.5-.2-.8-.3-.3-.1-.5-.2-.8-.3-.3-.1-.5-.2-.8-.3-.3-.1-.5-.2-.8-.3-.3-.1-.5-.2-.8-.3-.3-.1-.5-.2-.8-.3-.3-.1-.5-.2-.8-.3-.3-.1-.5-.2-.8-.3-.3-.1-.5-.2-.8-.3-.3-.1-.5-.2-.8-.3-.3-.1-.5-.2-.8-.3-.3-.1-.5-.2-.8-.3-.3-.1-.5-.2-.8-.3-.3-.1-.5-.2-.8-.3-.3-.1-.5-.2-.8-.3-.3-.1-.5-.2-.8-.3-.3-.1-.5-.2-.8-.3-.3-.1-.5-.2-.8-.3-.3-.1-.5-.2-.8-.3-.2,0-.4-.2-.6-.3-19.4-9.4-43.4-4.7-57.8,12.7-15.4,18.7-23.7,89.1-24.7,97-.3,3.1,1.7,6,4.7,6.7.5.3,1,.6,1.5.8.2.1.5.2.8.3.2.1.5.2.8.3.2.1.5.2.8.3.2.1.5.2.8.3.2.1.5.2.8.3.2.1.5.2.8.3.2.1.5.2.8.3.2.1.5.2.8.3.2.1.5.2.8.3.2.1.5.2.8.3.2.1.5.2.8.3.2.1.5.2.8.3.2.1.5.2.8.3.2.1.5.2.8.3.2.1.5.2.8.3.2.1.5.2.8.3.2.1.5.2.8.3.2.1.5.2.8.3.2.1.5.2.8.3.2.1.5.2.8.3.2.1.5.2.8.3.2.1.5.2.8.3.2.1.5.2.8.3.2.1.5.2.8.3.2.1.5.2.8.3.2.1.5.2.8.3.2.1.5.2.8.3.2.1.5.2.8.3.2.1.5.2.8.3.2.1.5.2.8.3.2.1.5.2.8.3.2.1.5.2.8.3.2.1.5.2.8.3.2.1.5.2.8.3.2.1.5.2.8.3.2.1.5.2.8.3.2.1.5.2.8.3.2.1.5.2.8.3.2.1.5.2.8.3.2.1.5.2.8.3.2.1.5.2.8.3.2.1.5.2.8.3.2.1.5.2.8.3.2.1.5.2.8.3.2.1.5.2.8.3.2.1.5.2.8.3.2.1.5.2.8.3.2.1.5.2.8.3.2.1.5.2.8.3.2.1.5.2.8.3.2.1.5.2.8.3.2.1.5.2.8.3.2.1.5.2.8.3.2.1.5.2.8.3.2.1.5.2.8.3.2.1.5.2.8.3.2.1.5.2.8.3.2.1.5.2.8.3.2.1.5.2.8.3.7.3,1.4.6,2.2.6.8,0,1.7,0,2.5-.2,7.7-2.4,75.2-24,90.6-42.7,14.2-17.2,14.4-41.3,1.9-58.5l28.8,23.8c.7.6,1.6,1,2.4,1.2.5.3,1,.6,1.5.7.2.1.5.2.8.3.2.1.5.2.8.3.2.1.5.2.8.3.2.1.5.2.8.3.2.1.5.2.8.3.2.1.5.2.8.3.2.1.5.2.8.3.2.1.5.2.8.3.2.1.5.2.8.3.2.1.5.2.8.3.2.1.5.2.8.3.2.1.5.2.8.3.2.1.5.2.8.3.2.1.5.2.8.3.2.1.5.2.8.3.2.1.5.2.8.3.2.1.5.2.8.3.2.1.5.2.8.3.2.1.5.2.8.3.2.1.5.2.8.3.2.1.5.2.8.3.2.1.5.2.8.3.2.1.5.2.8.3.2.1.5.2.8.3.2.1.5.2.8.3.2.1.5.2.8.3.2.1.5.2.8.3.2.1.5.2.8.3.2.1.5.2.8.3.2.1.5.2.8.3.2.1.5.2.8.3.2.1.5.2.8.3.2.1.5.2.8.3.2.1.5.2.8.3.2.1.5.2.8.3.2.1.5.2.8.3.2.1.5.2.8.3.2.1.5.2.8.3.2.1.5.2.8.3.2.1.5.2.8.3.2.1.5.2.8.3.2.1.5.2.8.3.2.1.5.2.8.3.2.1.5.2.8.3.2.1.5.2.8.3.2.1.5.2.8.3.2.1.5.2.8.3.2.1.5.2.8.3.2.1.5.2.8.3.2.1.5.2.8.3.2.1.5.2.8.3.2.1.5.2.8.3.2.1.5.2.8.3.2.1.5.2.8.3.2.1.5.2.8.3.2.1.5.2.8.3.2.1.5.2.8.3.2.1.5.2.8.3.2.1.5.2.8.3,2.5,1.3,5.7.7,7.6-1.6l19.7-23.9c1.5-1.8,1.8-4.2,1-6.3l-20.4-50.5,8.2-10.3c14-17.5,25.2-37,33.3-57.9,0-.1,0-.2.2-.3,0,0,0-.2,0-.2,9.6-24.7,14.6-50.9,14.9-77.4,0-2.7-1.9-5-4.3-5.9ZM145.7,252c.9,9-1.8,17.8-7.6,24.7-7.4,9-38.7,22.8-69.9,33.5,4.6-32.9,12.2-66.6,19.7-75.6,9.4-11.4,25.4-15.4,39-9.7,2.4,1.2,4.6,2.6,6.6,4.2,7,5.7,11.3,13.8,12.1,22.8ZM91.1,136.8l13.4-16.2,53.4,10.3c2.2.4,4.4-.4,5.9-2.1l10.9-12.8c12.3-14.5,26.6-27.2,42.4-37.7,6,9.4,13.5,17.8,22.2,24.9,8.6,7.1,18.2,12.8,28.5,16.9-7.4,17.5-17.1,33.9-28.9,48.8l-10.4,13.1c-1.4,1.7-1.8,4.1-.9,6.2l20.4,50.5-13.4,16.2-143.3-118.2Z"/><path d="M205.1,166.7c-3.6-3.1-8-5.6-11.6-8.7h-.7s-17.9,24-17.9,24c-.1.3,0,.5.3.7,1,.9,4.5,3.5,5.6,4.2.1,0,.2.1.3.1,0,0,.4-.1.5-.2l6.7-9,1.7,1.3-2.8,12.5,6.6,4.9c.2.1.6-.4.6-.6l2.3-12.2.3-.6c9.5,2.3,15.5-10.1,8-16.6ZM200.3,173.1c.1,1.6-1.3,3-2.9,2.9-.2,0-1-.2-1.1-.2l-4.2-3.1,3.2-4.3,4.3,3.2c.2.2.6,1.2.6,1.6Z"/><path d="M177.3,167.4c8.3.5,12.9-10.8,6.4-16.7-3.5-3.2-8.3-5.8-12-8.9-.5-.4-.9.1-1.2.5l-17.3,23.4v.5c0,.1,0,.2.1.3,1,.9,4.5,3.6,5.6,4.2.2,0,.6.2.7,0l6.8-9.1,1.9,1.4-2.9,12.3c0,.2.2.3.3.4,1,.9,4.8,3.8,6,4.5.3.1.5.2.7,0l2.6-13c.2-.3,1.6.1,2.1.1ZM173.6,152.2l4.4,3.3s.4.8.4,1c.6,1.9-1.1,3.8-3,3.4-.2,0-.8-.2-.9-.3l-4.2-3.1,3.2-4.3Z"/></svg>