<?xml version="1.0" encoding="UTF-8"?><svg id="a" xmlns="http://www.w3.org/2000/svg" viewBox="0 0 115 115"><path d="M35.3,57.3c-.3-.6,0-1.2.8-1.7.9-.5,2.1-.8,3.3-.5l.2-2.1c-1.4-.3-2.9,0-4.3.8-2.2,1.3-2.8,3.3-1.9,4.8,2,3.5,6.7-.7,7.6.9.3.5,0,1.3-1,2-1.3.7-2.6.7-3.7.4l-.2,2.2c1.4.4,3,.2,4.8-.8,2.5-1.4,3-3.4,2-5.1-2-3.4-6.7.6-7.6-.9Z"/><path d="M103.6,65c0-.9-.4-1.7-1.1-2.2h0s-.3-.2-.3-.2c-.2-.3-.4-.6-.7-.8h0s-.3-.2-.3-.2c-.2-.3-.4-.6-.7-.8h0s-.3-.2-.3-.2c-.2-.3-.4-.6-.7-.8h0s-.3-.2-.3-.2c-.2-.3-.4-.6-.7-.8h0s-.3-.2-.3-.2c-.2-.3-.4-.6-.7-.8h0s-.3-.2-.3-.2c-.2-.3-.4-.6-.7-.8h0s-.3-.2-.3-.2c-.2-.3-.4-.6-.7-.8h0s-.3-.2-.3-.2c-.2-.3-.4-.5-.6-.7l3.9-6.8h0c.3-.8.3-1.7-.1-2.4-.2-.4-.6-.7-1-1,0,0,0,0,0,0-.2-.4-.6-.7-1-1,0,0,0,0,0,0-.2-.4-.6-.7-1-1,0,0,0,0,0,0-.2-.4-.6-.7-1-1,0,0,0,0,0,0-.2-.4-.6-.7-1-1,0,0,0,0,0,0-.2-.4-.6-.7-1-1,0,0,0,0,0,0-.2-.4-.6-.7-1-1,0,0,0,0,0,0-.2-.4-.6-.7-1-1,0,0,0,0,0,0-.2-.4-.6-.7-1-1,0,0,0,0,0,0-.2-.4-.6-.7-1-1,0,0,0,0,0,0-.2-.4-.6-.7-1-1,0,0,0,0,0,0-.2-.4-.6-.7-1-1,0,0,0,0,0,0-.2-.4-.6-.7-1-1,0,0,0,0,0,0-.2-.3-.4-.5-.6-.7,0,0-.1-.1-.2-.2,0,0,0,0,0,0,0,0,0,0-.1,0-.2-.3-.4-.5-.6-.7,0,0-.1-.1-.2-.2,0,0,0,0,0,0,0,0,0,0-.1,0,0,0,0,0,0,0,0-.1-.2-.3-.3-.4-.1-.2-.3-.3-.5-.5,0,0,0,0,0,0,0,0,0,0,0,0,0,0,0,0,0,0,0,0-.2-.1-.2-.2,0,0,0,0,0,0-.2-.4-.5-.7-1-1,0,0,0,0,0,0-.2-.4-.5-.7-1-1,0,0,0,0,0,0-.2-.4-.5-.7-1-1,0,0,0,0,0,0-.2-.4-.5-.7-1-1,0,0,0,0,0,0-.2-.4-.5-.7-1-1,0,0,0,0,0,0-.2-.4-.5-.7-1-1,0,0,0,0,0,0-.2-.4-.5-.7-1-1,0,0,0,0,0,0-.2-.4-.5-.7-1-1,0,0,0,0,0,0-.2-.4-.5-.7-1-1,0,0,0,0,0,0-.2-.4-.5-.7-1-1,0,0,0,0,0,0-.2-.4-.5-.7-1-1,0,0,0,0,0,0-.2-.4-.5-.7-1-1,0,0,0,0,0,0-.1-.2-.2-.4-.4-.5,0,0,0,0,0,0-.2-.2-.3-.3-.6-.4-.6-.3-1.2-.4-1.8-.3-.2,0-.4,0-.6.2h0s-7,4-7,4c-.2-.2-.3-.3-.5-.4l-.2-.3h0c-.2-.3-.5-.5-.8-.7l-.2-.3h0c-.2-.3-.5-.5-.8-.7l-.2-.3h0c-.2-.3-.5-.5-.8-.7l-.2-.3h0c-.2-.3-.5-.5-.8-.7l-.2-.3h0c-.2-.3-.5-.5-.8-.7l-.2-.3h0c-.2-.3-.5-.5-.8-.7l-.2-.3h0c-.2-.3-.5-.5-.8-.7l-.2-.3h0c-.4-.5-.9-.9-1.5-1-.2,0-.4,0-.6,0s-.4,0-.6,0c-.2,0-.3,0-.4.2-.4.2-.8.5-1.1.9h0s-5.3,9.2-5.3,9.2l-9.2-5.3h0c-.6-.2-1.2-.3-1.8-.1-.2,0-.4.1-.6.3-.6.4-1,1-1.2,1.6,0,.1,0,.3,0,.4h0v10.7h-10.6c-.8.1-1.6.6-2,1.3-.2.4-.3.8-.4,1.2s0,.8.2,1.2h0s0,0,0,0l5.2,9.1-9.4,5.4h0c-.2.1-.3.3-.4.4-.4.5-.6,1.1-.6,1.7s.1.9.3,1.2c.2.4.5.7.8.9h0s.3.2.3.2c.2.3.4.6.7.8h0s.3.2.3.2c.2.3.4.6.7.8h0s.3.2.3.2c.2.3.4.6.7.8h0s.3.2.3.2c.2.3.4.6.7.8h0s.3.2.3.2c.2.3.4.6.7.8h0s.3.2.3.2c.2.3.4.6.7.8h0s.3.2.3.2c.2.3.4.6.7.8h0s.3.2.3.2c.2.3.4.5.6.7l-3.9,6.8h0c-.2.4-.2.8-.2,1.2,0,.4.1.8.4,1.2,0,0,0,0,0,0,.1.2.3.4.4.5,0,0,0,0,0,0,.2.2.3.3.5.4,0,0,0,0,0,0,0,0,0,0,0,0,.2.4.6.7,1,1,0,0,0,0,0,0,.2.4.6.7,1,1,0,0,0,0,0,0,.2.4.6.7,1,1,0,0,0,0,0,0,.2.4.6.7,1,1,0,0,0,0,0,0,.2.4.6.7,1,1,0,0,0,0,0,0,.2.4.6.7,1,1,0,0,0,0,0,0,.2.4.6.7,1,1,0,0,0,0,0,0,.2.4.6.7,1,1,0,0,0,0,0,0,.2.4.6.7,1,1,0,0,0,0,0,0,.2.4.6.7,1,1,0,0,0,0,0,0,.2.4.6.7,1,1,0,0,0,0,0,0,.2.4.6.7,1,1,0,0,0,0,0,0,.2.3.4.5.6.7,0,0,0,0,0,0,0,0,.2.1.2.2,0,0,0,0,0,0,0,0,0,0,0,0,0,0,0,0,.1,0,.2.3.4.5.6.7,0,0,.2.1.2.2,0,0,0,0,0,0,0,0,0,0,.1,0,.2.3.4.5.6.7,0,0,.2.1.2.2,0,0,0,0,0,0,0,0,.2.1.2.2,0,0,0,0,0,0,.2.4.5.7,1,1,0,0,0,0,0,0,.2.4.5.7,1,1,0,0,0,0,0,0,.2.4.5.7,1,1,0,0,0,0,0,0,.2.4.5.7,1,1,0,0,0,0,0,0,.2.4.5.7,1,1,0,0,0,0,0,0,.2.4.5.7,1,1,0,0,0,0,0,0,.2.4.5.7,1,1,0,0,0,0,0,0,.2.4.5.7,1,1,0,0,0,0,0,0,.2.4.5.7,1,1,0,0,0,0,0,0,.2.4.5.7,1,1,0,0,0,0,0,0,.2.4.5.7,1,1,0,0,0,0,0,0,.2.4.5.7,1,1,0,0,0,0,0,0,.2.4.5.7,1,1,.8.4,1.7.5,2.4.1h0s7-4,7-4c.2.2.3.3.5.4l.2.3h0c.2.3.5.5.8.7l.2.3h0c.2.3.5.5.8.7l.2.3h0c.2.3.5.5.8.7l.2.3h0c.2.3.5.5.8.7l.2.3h0c.2.3.5.5.8.7l.2.3h0c.2.3.5.5.8.7l.2.3h0c.2.3.5.5.8.7l.2.3h0c.5.6,1.3,1.1,2.1,1.1s1.7-.4,2.2-1.1h0s5.3-9.2,5.3-9.2l9.2,5.3h0c.8.3,1.6.3,2.4-.1.8-.4,1.2-1.2,1.3-2h0v-10.7h10.6c.8-.1,1.6-.6,2-1.3.4-.8.5-1.7.1-2.4h0s-5.2-9.1-5.2-9.1l9.4-5.4h0c.7-.5,1.1-1.3,1.1-2.2ZM80.8,52.8h0s-7.5,4.4-7.5,4.4l4.2,7.3h0c.3.6.3,1.3-.1,1.9-.4.6-1,1-1.6,1.1h0s-8.5,0-8.5,0v8.5h0c0,.7-.4,1.3-1.1,1.6-.6.4-1.3.4-1.9.1h0s-7.4-4.2-7.4-4.2l-4.3,7.4h0c-.4.5-1,.9-1.7.9s-1.3-.3-1.7-.9h0s-4.2-7.3-4.2-7.3l-7.6,4.4h0c-.6.2-1.3.2-1.9-.1-.6-.4-1-1-1.1-1.6h0v-8.6h-8.6c-.7,0-1.3-.5-1.6-1.1-.4-.6-.4-1.3-.1-1.9h0s4.3-7.5,4.3-7.5l-7.5-4.3h0c-.5-.4-.9-1-.9-1.7s.3-1.3.9-1.7h0s7.5-4.4,7.5-4.4l-4.2-7.3h0c-.3-.6-.3-1.3.1-1.9.4-.6,1-1,1.6-1.1h0s8.5,0,8.5,0v-8.5h0c0-.7.4-1.3,1.1-1.6.6-.4,1.3-.4,1.9-.1h0s7.4,4.2,7.4,4.2l4.3-7.4h0c.4-.5,1-.9,1.7-.9s1.3.3,1.7.9h0s4.2,7.3,4.2,7.3l7.6-4.4h0c.6-.2,1.3-.2,1.9.1.6.4,1,1,1.1,1.6h0v8.6h8.6c.7,0,1.3.5,1.6,1.1.4.6.4,1.3.1,1.9h0s-4.3,7.5-4.3,7.5l7.5,4.3h0c.5.4.9,1,.9,1.7s-.3,1.3-.9,1.7Z"/><path d="M42.9,49.6l1.8,11.3,2.2-1.3-.3-1.9,4-2.3,1.5,1.2,2.2-1.3-8.9-7.2-2.5,1.4ZM46.1,55.6l-.9-4.8,3.7,3.1-2.9,1.7Z"/><polygon points="56 52 51.7 44.5 49.7 45.6 55 54.9 60.9 51.5 59.9 49.8 56 52"/><polygon points="63.2 47.9 62 45.7 66.5 43.2 65.5 41.4 61 44 59.9 42.1 64.4 39.4 63.4 37.7 56.9 41.5 62.2 50.7 68.8 46.9 67.8 45.2 63.2 47.9"/></svg>