<?xml version="1.0" encoding="UTF-8"?><svg id="a" xmlns="http://www.w3.org/2000/svg" viewBox="0 0 115 112"><path d="M35.2,56.5s0,0,0,0c0,0,0,0,0,0h0v10.5c0,.3.3.6.6.6s.6-.3.6-.6v-10.5s0,0,0,0c0,0,0,0,0,0,1.2-.3,2.1-1.3,2.1-2.6s-.9-2.3-2.1-2.6c0,0,0,0,0,0,0,0,0,0,0,0v-2.7c0-.3-.3-.6-.6-.6s-.6.3-.6.6h0v2.7s0,0,0,0c0,0,0,0,0,0-1.2.3-2.1,1.3-2.1,2.6s.9,2.3,2.1,2.6Z"/><path d="M43.7,64.3s0,0,0,0c0,0,0,0,0,0h0v2.7c0,.3.3.6.6.6s.6-.3.6-.6v-2.7s0,0,0,0c0,0,0,0,0,0,1.2-.3,2.1-1.3,2.1-2.6s-.9-2.3-2.1-2.6c0,0,0,0,0,0,0,0,0,0,0,0v-10.5c0-.3-.3-.6-.6-.6s-.6.3-.6.6h0v10.5s0,0,0,0c0,0,0,0,0,0-1.2.3-2.1,1.3-2.1,2.6s.9,2.3,2.1,2.6Z"/><path d="M53.4,59.8h2.6c0,0,.2,0,.2.1.2.5.4,1,.6,1.4,0,0,0,.2,0,.3l-1.9,1.9c0,0,0,.2,0,.3l2.6,2.6c0,0,.2,0,.3,0l2.1-2.1c0,0,.2,0,.2,0,.4.2.8.3,1.2.5,0,0,.2.1.2.2v2.9c0,.1,0,.2.2.2h3.7c.1,0,.2,0,.2-.2v-2.9c0,0,0-.2.2-.2.4-.1.8-.3,1.2-.5,0,0,.2,0,.2,0l2.1,2.1c0,0,.2,0,.3,0l2.6-2.6c0,0,0-.2,0-.3l-1.9-1.9c0,0,0-.2,0-.3.3-.4.5-.9.6-1.4,0,0,.1-.1.2-.1h2.6c.1,0,.2,0,.2-.2v-3.7c0-.1,0-.2-.2-.2h-2.6c0,0-.2,0-.2-.1-.2-.5-.4-1-.6-1.4,0,0,0-.2,0-.3l1.9-1.9c0,0,0-.2,0-.3l-2.6-2.6c0,0-.2,0-.3,0l-2.1,2.1c0,0-.2,0-.2,0-.4-.2-.8-.3-1.2-.5,0,0-.2-.1-.2-.2v-2.9c0-.1,0-.2-.2-.2h-3.7c-.1,0-.2,0-.2.2v2.9c0,0,0,.2-.2.2-.4.1-.8.3-1.2.5,0,0-.2,0-.2,0l-2.1-2.1c0,0-.2,0-.3,0l-2.6,2.6c0,0,0,.2,0,.3l1.9,1.9c0,0,0,.2,0,.3-.3.4-.5.9-.6,1.4,0,0-.1.1-.2.1h-2.6c-.1,0-.2,0-.2.2v3.7c0,.1,0,.2.2.2ZM63.6,53.9c2.1,0,3.8,1.7,3.8,3.8s-1.7,3.8-3.8,3.8-3.8-1.7-3.8-3.8c0-2.1,1.7-3.8,3.8-3.8Z"/><path d="M35.4,31.1c-1.1,0-1.9.9-1.9,1.9s.9,1.9,1.9,1.9,1.9-.9,1.9-1.9-.9-1.9-1.9-1.9Z"/><path d="M27.2,31.1c-1.1,0-1.9.9-1.9,1.9,0,1.1.9,1.9,1.9,1.9s1.9-.9,1.9-1.9-.9-1.9-1.9-1.9Z"/><path d="M91.1,37.4c-.1-.1-.3-.2-.4-.3,0-.1-.2-.3-.3-.4-.1-.1-.3-.2-.4-.3,0-.1-.2-.3-.3-.4-.1-.1-.3-.2-.4-.3,0-.1-.2-.3-.3-.4-.1-.1-.3-.2-.4-.3,0-.1-.2-.3-.3-.4-.1-.1-.3-.2-.4-.3,0-.1-.2-.3-.3-.4-.1-.1-.3-.2-.4-.3,0-.1-.2-.3-.3-.4-.1-.1-.3-.2-.4-.3,0-.1-.2-.3-.3-.4-.1-.1-.3-.2-.4-.3,0-.1-.2-.3-.3-.4-.1-.1-.3-.2-.4-.3,0-.1-.2-.3-.3-.4-.1-.1-.3-.2-.4-.3,0-.1-.2-.3-.3-.4-.1-.1-.3-.2-.4-.3,0-.1-.2-.3-.3-.4-.1-.1-.3-.2-.4-.3,0-.1-.2-.3-.3-.4-.1-.1-.3-.2-.4-.3,0-.1-.2-.3-.3-.4-.1-.1-.3-.2-.4-.3,0-.1-.2-.3-.3-.4-.1-.1-.3-.2-.4-.3,0-.1-.2-.3-.3-.4-.4-.4-.9-.7-1.4-.8-.2,0-.5-.1-.8-.1H21.4c-.2,0-.4,0-.6,0-.6.1-1.2.4-1.6.9-.6.6-.9,1.4-.9,2.2h0v47.9c0,.9.4,1.7.9,2.2.1.1.3.2.4.3,0,.1.2.3.3.4.1.1.3.2.4.3,0,.1.2.3.3.4.1.1.3.2.4.3,0,.1.2.3.3.4.1.1.3.2.4.3,0,.1.2.3.3.4.1.1.3.2.4.3,0,.1.2.3.3.4.1.1.3.2.4.3,0,.1.2.3.3.4.1.1.3.2.4.3,0,.1.2.3.3.4.1.1.3.2.4.3,0,.1.2.3.3.4.1.1.3.2.4.3,0,.1.2.3.3.4.1.1.3.2.4.3,0,.1.2.3.3.4.1.1.3.2.4.3,0,.1.2.3.3.4.1.1.3.2.4.3,0,.1.2.3.3.4.1.1.3.2.4.3,0,.1.2.3.3.4.1.1.3.2.4.3,0,.1.2.3.3.4.1.1.3.2.4.3,0,.1.2.3.3.4.6.6,1.4.9,2.2.9h56.9c.9,0,1.7-.4,2.2-.9.6-.6.9-1.4.9-2.2v-47.9c0-.9-.4-1.7-.9-2.2ZM77.5,73.8c0,.8-.3,1.5-.8,2-.5.5-1.2.8-2,.8H24c-.8,0-1.5-.3-2-.8-.5-.5-.8-1.2-.8-2v-34.8h56.3v34.8ZM77.5,37.7H21.1v-6.6c0-.8.3-1.5.8-2,.5-.5,1.2-.8,2-.8h50.7c.8,0,1.5.3,2,.8.5.5.8,1.2.8,2v6.6Z"/><path d="M26.7,64.3s0,0,0,0c0,0,0,0,0,0v2.7c0,.3.3.6.6.6s.6-.3.6-.6v-2.7s0,0,0,0c0,0,0,0,0,0,1.2-.3,2.1-1.3,2.1-2.6s-.9-2.3-2.1-2.6c0,0,0,0,0,0,0,0,0,0,0,0v-10.5c0-.3-.3-.6-.6-.6s-.6.3-.6.6v10.5s0,0,0,0c0,0,0,0,0,0-1.2.3-2.1,1.3-2.1,2.6s.9,2.3,2.1,2.6Z"/><path d="M73.1,32.4h-31.1c-.3,0-.6.3-.6.6s.3.6.6.6h31.1c.3,0,.6-.3.6-.6s-.3-.6-.6-.6Z"/></svg>