<?xml version="1.0" encoding="UTF-8"?><svg id="a" xmlns="http://www.w3.org/2000/svg" viewBox="0 0 115 115"><defs><style>.b{fill:#060606;}</style></defs><path class="b" d="M96.6,45.3c-6.3-7.2-13.1-14.1-19.6-20.8-1.7-1.8-3.5-3.5-5.2-5.3-1.6-1.6-3-2.4-4.2-2.4h0c-1.3,0-2.6.7-4.1,2.3-1,1-2,2.2-3,3.3-2.6,3-5.3,6.1-9,7.8-6.3,2.9-10.6,7.5-14.3,12.1-10.6,13-17.3,24-21.6,35.5-1.6,4.3-.8,6.8,2.9,8.9,3.7,2.1,7.2,4.7,10.2,7.1,4,3.1,8.5,4.6,13.9,4.4,5.3-.1,10.7,0,15.9,0,2.3,0,4.5,0,6.8,0h7.5c5.7,0,11.5,0,17.2,0,7.6,0,10.3-2.7,10.3-10.2,0-4.5,0-9.1,0-13.6,0-6.4,0-13,0-19.5,0-3.7-1.1-6.6-3.6-9.5ZM42,48c3.8-4.7,7.4-9.2,13.3-11.4,3.1-1.2,5.4-3.8,7.5-6.4.3-.4.7-.8,1-1.2,1.3-1.6,2.5-2.3,3.7-2.3h0c1.2,0,2.4.8,3.8,2.5,1.1,1.3,2.4,2.5,3.7,3.7,3.7,3.5,7.5,7.1,7.3,13.6v.6s-.6-.2-.6-.2q-7.6-1.9-11.9,4.6c-1.8,2.8-2.8,4.2-4.1,4.4-.1,0-.2,0-.4,0-1.2,0-2.6-1-5-2.8-2-1.5-3.9-3.3-5.4-5.2-2.3-2.8-4.4-3.1-7.3-.8-.3.2-.6.5-.9.8-1.2,1.1-2.8,2.5-5.3,1.7l-.7-.2,1.2-1.5ZM88.1,77.6c-.5.7-1.5,1-3.1,1h0c-15.2,0-30.2,0-46,0h-15.5s.2-.6.2-.6c1.7-5.5,4.4-9.9,6.9-14.1l.6-1c.5-.8,1.2-1.8,2.6-2,5.4-.8,10.4-2.8,14.8-5.8,2-1.4,3-.1,3.8.8.1.2.3.3.4.5,2.9,3.1,6.5,5.6,11.1,7.8,3.8,1.8,6.2,1.2,8-2.2.7-1.3,1.6-2.7,2.8-4.2.3-.3.5-.8.7-1.2.7-1.4,1.7-3.2,4.5-2.1.5.2,1,.4,1.4.5,2,.6,4.3,1.4,4.5,5,.3,3.6,1,7.3,1.8,10.9.3,1.4.6,2.7.8,4.1.3,1.4.2,2.4-.4,3Z"/><path class="b" d="M30.5,20.8h0c-1,0-3.4,1.7-5.4,3.8-1.4,1.5-2.3,2.9-2.2,3.6.3,4,2.5,3.9,5.4,3.9.3,0,.7,0,1,0s.9,0,1.3,0c.7,0,1.5,0,2.3,0,2.7,0,4.8.1,5.3-3.5.1-.8-.7-2.3-2.1-3.9-1.9-2.2-4.3-3.9-5.5-3.9Z"/></svg>