<?xml version="1.0" encoding="UTF-8"?><svg id="a" xmlns="http://www.w3.org/2000/svg" viewBox="0 0 115 115"><defs><style>.b{fill:#060606;}.c{fill:#040404;}.d{fill:#0f0f0f;}</style></defs><path class="b" d="M53.3,98.2c3,0,5.9,0,8.9,0,8,0,16.6,0,24.9,0,6.1,0,9-2.9,9-9.1,0-8.1,0-16.6,0-24.1,0-6.2,0-12.4,0-18.6,0-3.6-1.3-6.2-4.1-8.4-3-2.3-6.2-4.9-9.6-7.8-3.3-2.8-6.9-5.5-11.8-5.1h-.5s-.2-.4-.2-.4c-.2-.5-.5-.9-.7-1.3h0c-.5-1-1-1.9-1.4-2.9-1.1-2.8-3.1-4-6.2-3.8-1.5.1-3,0-4.5,0-.7,0-1.4,0-2,0q-9.3,0-14.2,8.1l-.2.4h-.4c-1,0-2,0-2.9,0-2,0-4.1,0-6.1,0-7.3.2-11.8,4.6-12,11.6-.2,10.6-.2,21.4-.1,31.8,0,2.9,0,5.9,0,8.8,0,3.1,1.3,5.4,4.1,7.2,5.1,3.3,10.2,6.8,15.1,10.1l2.2,1.5c2,1.3,4.1,2,6.6,2,2.1,0,4.2,0,6.3,0ZM31.5,78.9c-4.1,0-5.7-1.6-5.7-6,0-12.5,0-24,0-35.2,0-4.2,1.6-5.7,5.8-5.8,3.1,0,6.3-.2,9.5,0,2.9.2,4.7-.9,5.8-3.6.4-1,.9-1.9,1.4-2.8.2-.4.5-.8.7-1.3l.2-.4h11.7c1.2.6,1.7,1.8,2.1,2.8,1.5,4.2,3.9,5.8,8.2,5.4,1.7-.2,3.1.2,4,1,1.1.9,1.6,2.4,1.6,4.6.1,12.2,0,24.2,0,35.7,0,3.8-1.8,5.5-5.7,5.6-6.6,0-13.3,0-20,0s-13.2,0-19.6,0Z"/><path class="c" d="M55.4,41.7h-.1c-6.3,0-11.4,5.3-11.4,11.7,0,3.2,1.2,6.1,3.4,8.3,2.2,2.1,5.2,3.3,8.5,3.2,6.4-.1,11.3-5.3,11.2-11.7-.1-6.2-5.4-11.4-11.5-11.4Z"/><path class="d" d="M34.6,44.3c.9,0,1.8-.3,2.4-.9.6-.6,1-1.4,1-2.3,0-1.8-1.4-3.5-3.2-3.5h-.1c-1.7,0-3.3,1.6-3.3,3.3,0,.9.3,1.7.9,2.4.6.7,1.4,1,2.3,1.1Z"/></svg>