<?xml version="1.0" encoding="UTF-8"?><svg id="a" xmlns="http://www.w3.org/2000/svg" viewBox="0 0 115 115"><path d="M92.5,26.3c-2.9-4.6-6.3-6.5-11.3-6.5-6,0-12.2,0-18.1,0-5,0-10.1,0-15.1,0-2.5,0-5.1,0-7.7,0s-6.4,0-9.6,0c-8.8,0-12.8,4-12.9,12.8,0,3.2,0,6.5.1,9.7.2,6.3.3,12.8-.4,19.1-1.3,12.1,2.5,21.5,11.9,29.6,3,2.6,5.7,4.2,9.5,4.2,9.9,0,20,0,29.8,0,6.4,0,12.8,0,19.2,0,7.3,0,9.5-2.2,9.5-9.6,0-4.5,0-9,0-13.5,0-9.2-.1-18.7.2-28.1.2-6.2-1.4-11.9-5.1-17.7ZM86.2,67.4c-1.3,1.3-3.2,1.9-6,1.9-4.1,0-8.3,0-12.4,0-7.1,0-14.5,0-21.8-.1-4.8-.1-7.9,1.2-10.4,4.4-1,1.3-2.3,2.8-4,3.8-1.2.7-2.8,1.3-4.3,1.3s-.9,0-1.3-.2c-1.9-.6-2.8-3.6-2.9-4.9-.1-4.3-.1-8.7-.1-13,0-1.4,0-2.9,0-4.3v-5.6c0-5.7,0-11.4,0-17.1,0-7.1,1.3-8.4,8.2-8.4,5.6,0,43.4,0,49.4,0,2.4,0,4.2.5,5.4,1.7,1.2,1.2,1.8,3,1.7,5.4-.1,9.5-.2,19.6,0,29.6,0,2.5-.5,4.4-1.8,5.7Z"/><path d="M72.6,36.2c-4,0-8,0-12,0h-4.8s-4.9,0-4.9,0c-4,0-7.9,0-11.9,0,0,0-.1,0-.2,0-1.1,0-2.4,0-3.2.5-.5.3-1,.7-1.1,2.2,0,.8.2,1.4.5,1.7.6.6,1.7.9,3.5.9,10.6,0,21.7,0,34.1,0,1.7,0,2.9-.3,3.5-.9.4-.4.6-1,.6-1.8,0-1.3-.4-2.6-4-2.6s0,0-.1,0Z"/><path d="M38.3,57.8c8.1.2,16.3.2,24.2.2,3.4,0,6.9,0,10.3,0h0c1.7,0,2.9-.3,3.4-1,.1-.1.4-.5.2-1.5-.1-.7-2.3-2.4-3.7-2.5-3.9-.4-8-.3-11.9-.2-1.6,0-3.2,0-4.7,0h-5.3c-4.2,0-8.3,0-12.5,0h0c-1.7,0-2.9.3-3.4.9-.1.1-.4.5-.2,1.5.1.7,2.4,2.5,3.6,2.6Z"/></svg>