<?xml version="1.0" encoding="UTF-8"?><svg id="a" xmlns="http://www.w3.org/2000/svg" viewBox="0 0 400 400"><defs><style>.b{fill:none;}.c{fill:#fff;}</style></defs><path class="b" d="M212.6,53.9v1.3s0,0,0,0v-1.9c-.3.1-.7.3-1,.4v.6c.3-.1.6-.2.9-.4Z"/><path class="c" d="M150.3,154.9l-25.4,25.4c-2.5,2.5-2.5,6.5,0,9,1.2,1.2,2.9,1.9,4.5,1.9s3.2-.6,4.5-1.9l25.4-25.4c2.5-2.5,2.5-6.5,0-9-2.5-2.5-6.5-2.5-9,0Z"/><path class="b" d="M203.7,62.5v85.9c1.8-1.6,3.5-3.1,5.3-4.6V58.9c-1.9,1-3.7,2.3-5.3,3.6Z"/><path class="b" d="M125.8,88.3v35.7c5.3-5.4,10.5-10.9,15.6-16.5-5.5-6.4-10.7-12.9-15.6-19.2Z"/><path class="b" d="M60,64.6c-7.2,7.2-10.8,17.2-9.9,27.3.9,9.9,6.2,18.9,14.4,24.5,4.9,3.3,10.1,7.1,15.9,11.5V55c-7.8.8-14.9,4.2-20.4,9.6h0Z"/><path class="b" d="M105.8,62.5c-1.6-1.4-3.4-2.6-5.3-3.6v84.9c.8.7,1.7,1.4,2.5,2.2.9-.8,1.8-1.7,2.8-2.5V62.5Z"/><path class="b" d="M229.1,55v72.9c5.8-4.4,11-8.2,15.9-11.5,8.2-5.6,13.5-14.6,14.4-24.5.9-10.1-2.7-20-9.9-27.3-5.4-5.4-12.6-8.8-20.4-9.6Z"/><path class="b" d="M244.9,202.3c-12.5-8.5-25.4-18.5-38.5-29.6l-7.9,7.4c-10.4,9.9-20.7,20.3-30.4,31.1,11.2,13.1,21.1,25.9,29.4,38,5.7,8.4,14.8,13.7,24.8,14.6,10.3,1,20-2.6,27.1-9.8,7.2-7.2,10.8-17.2,9.9-27.3-.9-10-6.2-18.9-14.4-24.5Z"/><path class="b" d="M183.6,166.6v-78.4c-32.9,42.8-77.7,85.8-119,114-8.2,5.6-13.5,14.6-14.4,24.5-.9,10.1,2.7,20,9.9,27.3,7.1,7.1,16.9,10.7,27.1,9.8,10.1-.9,19.1-6.3,24.8-14.6,17.9-26.3,44-56.3,71.6-82.6ZM161.8,166.4l-25.4,25.4c-1.9,1.9-4.4,2.9-7.1,2.9s-5.2-1-7.1-2.9c-1.9-1.9-2.9-4.4-2.9-7.1s1-5.2,2.9-7.1l25.4-25.4c1.9-1.9,4.4-2.9,7.1-2.9s5.2,1,7.1,2.9c1.9,1.9,2.9,4.4,2.9,7.1,0,2.7-1,5.2-2.9,7.1Z"/><path d="M344.8,309.5c-.8-10.9-7.4-20.2-15.1-27.5-13.2-13.5-26.9-26.5-39.9-40.2-6-7.1,4-10.4,4.5-17.7,1-2.8-.8-17,2-17,2.7,0,7.6,9.2,12.1,8.2,3.7-1.3,7.2-4.5,10.9-6.7,5.5-3.7,11.1-7.3,15.6-12,11.3-11.6,13.2-30.9,4.6-44.7-1.9-3.2-4.3-6.1-6.5-8.5-26.6-26.9-53.2-53.5-80-80.2-5.8-5.7-13.7-10.8-22.1-11.9-9.5-1.3-4.3,13.3-9.6,11.2-2.6-1.2-6-6-9.4-7.3-3.7-1.5-7.9.9-10.4,3.6-2.1,2.4-2.4,5.6-2.5,8.7-.1,4.9,0,12.1,0,16.3-.1,1.1,0,2.7-.8,3.4-.5.4-1.5-.1-2.8-1.3-2.8-2.3-5.8-6.8-9.7-6.4-2.1.5-3.6,2.7-5,4.4-5.6,7.3-11.7,15-18,22.1-2.7,3.1-4.7,4.1-7.6.8-11-10.6-34.5-35.3-48.8-48.4-2.6-1.8-6.4-4.8-8.8-3.1-1.4.9-1.8,2.9-2.8,4.1-2.4,2.8-8.1-5.6-11-6.7-2.3-1.4-4.4-1.1-7.9-.2-13.2,3.1-24.3,9.6-28.7,23.5-4.5,13-.8,28,8.6,37.9,14.1,14.8,28.8,28.9,43.1,43.5,2.9,2.8,4.9,6.5,2,10.1-9.5,9.7-21.3,17.8-31.6,25.6-11.2,7.5-21.5,16.4-23.5,30.6-1.8,10.6,1.3,21.7,8.1,30,25.7,27.5,53,53.2,79.3,80.1,9,9.8,20.5,17.6,34.6,16.6,13.3-.4,24.6-8.8,31.6-19.6,6-8.5,12.8-17.5,19.7-25.9,5.4-6.1,10.9-16.7,18.8-8.3,11.8,11.8,23.6,23.7,35.5,35.5,12.2,13.4,26.1,22.1,44.8,16.8,16.7-4.7,28.6-22.1,26.7-39.4v-.2ZM78.9,127.4c-2.4-1.2-5.3-3.8-8.6-6.1-5.2-3.8-10.5-7.7-14.2-13.1-12.8-18.4-3.8-45.8,17.5-52.5,3.3-1,7.2-2.3,6.9,1.9,0,10.2,0,41.8,0,56.5,0,2.8,0,5.5,0,8.3-.1,3.3.6,5.8-1.6,5.1h0ZM205,148.2c-1.6.7-1.3-.9-1.3-3.4,0-12.1,0-25.7,0-39.9,0-8.4,0-16.8,0-23.9,0-7.4,0-13.3,0-16.5,0-1.4.4-2.8,1.4-3.8,1.7-1.8,4-2.8,3.9-.2,0,11.6,0,67.1,0,80.7.4,2.8-1.8,5.8-3.9,7h0ZM126.3,88.3c.9.5,2.7,2.6,4.6,5,2.4,2.9,5,5.9,7.4,8.8,5.1,5.9.9,10-4.2,14.9-1.4,1-7.4,8.5-8.6,6.6-.4-.6-.5-2-.5-4,0-4.6,0-10,0-14.9,0-3.8,0-7.5,0-10.4,0-1.5-.3-6.8,1.1-5.9h0ZM103,145.7c-1.7.2-2.6-1.5-2.5-3.1,0-2.2,0-7.7,0-11.3,0-13.8,0-34.3,0-49.1,0-5.7,0-10.8,0-14.8.2-3.8-.4-6.3.3-8.5.7-.9,3.2.7,4.3,2.6,1.8,14.4.1,67.3.7,80.6,0,1.8-.9,3.6-2.7,3.6h0ZM111.6,250.3c-11.7,16.2-35.5,19.5-50.3,5.5-16.8-15.5-13.9-41.7,4.8-54.3,41.6-29,83.1-70.6,116.6-112.4,1.7-1.2,1,3.1,1.2,6.5,0,1.1,0,2.2,0,3.4,0,17.9,0,52.2,0,63,0,1.5-.2,2.8-.8,4.1-1.3,2.5-4,4.9-6.2,7.2-25.2,24.9-47.2,51.5-65,76.7h-.1ZM250.3,255c-11.6,12-31.7,13.4-45,3.5-7.9-5.8-12.4-14.4-18.3-21.8-4-5.3-8.1-10.6-12.3-15.8-2.6-3.3-6.1-6.9-5.3-11.2.4-2.1,1.8-4.1,3.3-5.7,6-6.4,12.2-12.7,18.4-18.7,17.5-17.9,15.6-12.6,33.4.7,4.5,3.5,9.1,6.9,13.7,10.2,5.6,4,11.7,8,15.9,13.8,10,13.2,8.3,33.3-3.6,44.8h-.1ZM259.2,92c-.8,11.5-8.2,21.3-17.4,27.4-2.3,1.7-4.7,3.4-7,5.2-2.5,1.8-4.3,3.2-5.1,2.9-.7-.2-.7-1.7-.7-2.5.5-13.7-1-56.3.5-69.7.8-1.1,3.6-.5,5.2,0,4.7,1.4,9.2,3.8,12.9,7.1,8.3,7.2,12.7,18.5,11.7,29.4v.2Z"/><path d="M154.7,149.3c-2.7,0-5.2,1-7.1,2.9l-25.4,25.4c-1.9,1.9-2.9,4.4-2.9,7.1s1,5.2,2.9,7.1c1.9,1.9,4.4,2.9,7.1,2.9s5.2-1,7.1-2.9l25.4-25.4c1.9-1.9,2.9-4.4,2.9-7.1,0-2.7-1-5.2-2.9-7.1-1.9-1.9-4.4-2.9-7.1-2.9Z"/></svg>