<?xml version="1.0" encoding="UTF-8"?><svg id="a" xmlns="http://www.w3.org/2000/svg" viewBox="0 0 115 112"><path d="M36.9,78.6v1.2c0,.8.3,1.5.9,1.9,0,0,.2.2.3.3,0,0,.2.2.3.3,0,0,.2.2.3.3,0,0,.2.2.3.3,0,0,.2.2.3.3,0,0,.2.2.3.3,0,0,.2.2.3.3,0,0,.2.2.3.3,0,0,.2.2.3.3,0,0,.2.2.3.3,0,0,.2.2.3.3,0,0,.2.2.2.2h-5.4c.3-2.1.8-4.2,1.5-6.2Z"/><path d="M88.6,32c0,0,0-.1,0-.2.4-.8.3-1.8-.2-2.5-.9-1.3-2-2.6-3.1-3.7,0,0-.2-.2-.3-.3,0,0-.2-.2-.3-.3,0,0-.2-.2-.3-.3,0,0-.2-.2-.3-.3,0,0-.2-.2-.3-.3,0,0-.2-.2-.3-.3,0,0-.2-.2-.3-.3,0,0-.2-.2-.3-.3,0,0-.2-.2-.3-.3,0,0-.2-.2-.3-.3,0,0-.2-.2-.3-.3,0,0-.2-.2-.3-.3,0,0-.2-.2-.3-.3,0,0-.2-.2-.3-.3-4.8-4.8-11.2-7.7-18-8.1-15.1-.8-28.1,10.8-28.9,25.9-.4,7.5,2.3,14.9,7.5,20.4.2.2.3.3.5.5,0,0,.2.2.3.3,0,0,.2.2.3.3,0,0,.2.2.3.3,0,0,0,0,0,0-2.6-.5-5-.9-7.1-1.1-.3,0-.7,0-1,0-.7,0-1.3.2-1.9.6,0,0-.2.1-.2.2-1.2,1.2-1.3,3.1-.1,4.3-7,6.9-10.9,16.4-10.7,26.3,0,.4.2.8.5,1,0,0,.2.2.3.3,0,0,.2.2.3.3,0,0,.2.2.3.3,0,0,.2.2.3.3,0,0,.2.2.3.3,0,0,.2.2.3.3,0,0,.2.2.3.3,0,0,.2.2.3.3,0,0,.2.2.3.3,0,0,.2.2.3.3,0,0,.2.2.3.3,0,0,.2.2.3.3,0,0,.2.2.3.3,0,0,.2.2.3.3.2.3.6.5,1,.5h53c.7,0,1.2-.5,1.3-1.2.4-5-.3-10-2.1-14.6.6-.2,1.1-.6,1.5-1.2.5-.7.6-1.6.4-2.4-.2-.6-.5-1.1-.9-1.5,0,0-.2-.2-.3-.3,0,0-.2-.2-.3-.3,0,0-.2-.2-.3-.3,0,0-.2-.2-.3-.3,0,0-.2-.2-.3-.3,0,0-.2-.2-.3-.3,0,0-.2-.2-.3-.3,0,0-.2-.2-.3-.3,0,0-.2-.2-.3-.3,0,0-.2-.2-.3-.3,0,0-.2-.2-.3-.3,0,0-.2-.2-.3-.3,0,0-.2-.2-.3-.3,0,0-.2-.2-.3-.3-.2-.3-.5-.5-.8-.6,0,0-.1,0-.2,0-.1-.1-.3-.2-.4-.3-.2-.1-.5-.2-.7-.4,2.8-1,5.4-2.4,7.7-4.2.6-.5.9-1.1,1-1.9,0-.2,0-.4,0-.6h0c9-8.3,11.1-21.8,4.9-32.4ZM59.4,36c-1.9-1.8-4.7-2.2-7-1.2-.4-.4-.7-.8-1-1.2-.1-.1-.3-.2-.4,0-.1.1-.2.3,0,.4.3.4.6.8.9,1.1-.4.2-.8.5-1.2.9-2.6,2.4-2.8,6.5-.4,9.2s6.5,2.8,9.2.4l4.4,3.9c-.3.2-.6.5-.9.8-.1.1-.1.3,0,.4s.3.1.4,0c.4-.3.7-.6,1-.9l12.6,11.2c-4.1,3.2-9.2,5-14.5,5-4-1.2-8.2-2.3-12.1-3.1-2.1-1.2-4-2.7-5.6-4.4-.2-.2-.4-.5-.7-.7-8.7-10-7.8-25.1,2.2-33.9,0,.3.2.6.3.9,0,.1.2.2.3.2,0,0,0,0,0,0h0c.2,0,.3-.2.2-.4-.1-.5-.3-.9-.4-1.2,4.1-3.5,9.3-5.5,14.7-5.6.2,0,.4,0,.6,0,7.8,0,15.1,3.8,19.7,10.1-8,1-15.6,3.7-22.4,8ZM59,40.8c0,2.2-1.8,4-4,4s-4-1.8-4-4c0-2.2,1.8-4,4-4,2.2,0,4,1.8,4,4ZM35.8,67.3h0c4.2,0,8.4.5,12.5,1.4,5,1,10,2.3,14.8,3.9.6.2,1.2.5,1.8.7l6.9,2.8.8.7c1.7,4,2.5,8.4,2.3,12.7h-22v-7.1c0-.7-.6-1.3-1.3-1.3s-1.3.6-1.3,1.3v7.1h-24.4c.1-6.2,2.1-12.3,5.6-17.4.3,0,.7,0,1.1,0,.2,0,.3-.2.3-.3,0-.2-.2-.3-.3-.3-.2,0-.4,0-.5,0,1.1-1.5,2.3-3,3.6-4.3Z"/><path d="M48.3,28.2h0c0-.2-.3-.2-.4-.2s-.2.3-.2.4c0,0,0,0,0,0,.3.8.7,1.6,1.1,2.3,0,.2.3.2.4.1.2,0,.2-.3.1-.4-.4-.7-.7-1.5-1.1-2.3Z"/><path d="M52.3,57.5s0,0,.1,0c.8-.3,1.5-.7,2.3-1.1.2,0,.2-.3.1-.4,0-.2-.3-.2-.4-.1-.8.4-1.5.7-2.3,1-.2,0-.2.2-.2.4,0,.1.2.2.3.2Z"/><path d="M49.4,78.6c.1.1.3.2.4,0,.1-.1.2-.3,0-.4h0c-.5-.7-1.1-1.3-1.7-1.9-.1-.1-.3-.1-.4,0-.1.1-.1.3,0,.4.6.6,1.1,1.2,1.6,1.9Z"/><path d="M57.9,54.6c0,0,.1,0,.2,0,.7-.4,1.4-.9,2.1-1.4.1-.1.2-.3,0-.4-.1-.1-.3-.2-.4,0-.7.5-1.4,1-2.1,1.4-.1,0-.2.3,0,.4,0,0,.2.1.3.1Z"/><path d="M31.5,82.3v2.6c0,1.4,1.1,2.5,2.5,2.5h8c1.4,0,2.5-1.1,2.5-2.5v-2.6c0-1.4-1.1-2.5-2.5-2.5h-8c-1.4,0-2.5,1.1-2.5,2.5Z"/><path d="M42.6,73.5s0,0,0,0c.8.3,1.5.7,2.2,1.1,0,0,.1,0,.2,0,.2,0,.3-.1.3-.3,0-.1,0-.2-.2-.3-.7-.4-1.5-.8-2.3-1.1-.2,0-.3,0-.4.2,0,.2,0,.3.2.4Z"/><path d="M45.9,58.7h0c0,.2.2.3.3.3h0c.8,0,1.7-.2,2.5-.4.2,0,.3-.2.2-.4,0-.2-.2-.3-.4-.2,0,0,0,0,0,0-.8.2-1.6.3-2.4.4-.2,0-.3.2-.3.3Z"/><path d="M36.5,72.2s0,0,0,0c.8,0,1.7.2,2.5.3,0,0,0,0,0,0,.2,0,.3-.1.3-.3,0-.2-.1-.3-.3-.3-.8-.2-1.7-.3-2.5-.3-.2,0-.3,0-.3.3,0,0,0,0,0,0,0,.2.1.3.3.3Z"/><path d="M61.8,88.7c1.9,0,3.4-1.5,3.4-3.4h0c0-1.9-1.5-3.4-3.4-3.4-1.9,0-3.4,1.5-3.4,3.4,0,1.9,1.5,3.4,3.4,3.4Z"/></svg>