<?xml version="1.0" encoding="UTF-8"?><svg id="a" xmlns="http://www.w3.org/2000/svg" viewBox="0 0 115 115"><defs><style>.b{fill:#050505;}</style></defs><path class="b" d="M29.2,23.9c-2.2,0-4.4,0-6.6,0-5.2,0-5.7.6-5.7,5.6,0,7,0,14,0,21.1,0,6.5,0,13,0,19.5,0,2.2.5,3.9,1.4,5.6,4.8,8,8.5,14.2,11.8,19.9,1.9,3.3,4.6,4.9,8.4,4.9h0c2.6,0,5.2,0,7.8,0s6.6,0,10,0c9.2,0,18.8,0,28.2,0,6.1,0,8.8-2.7,8.9-8.7,0-10.8,0-21.8,0-32.5,0-5.2,0-10.3,0-15.5,0-2.6-.7-4.6-2.1-6.2l-3.6-4.1c-2.3-2.6-4.5-5.2-6.8-7.7-1-1.2-2-1.7-3-1.7h-3.4c-5.7,0-11.5,0-17.3,0-1.9,0-2.9.6-3.1,3.6,0,1.3,0,2.6,0,4.2,0,.8,0,1.7,0,2.8v2.6l-1.7-1.9c-1-1.1-1.9-2.1-2.8-3.1-2-2.2-3.7-4-5.4-6.1-1.4-1.7-3-2.3-5.2-2.3-3.2,0-6.5,0-9.7,0ZM60.4,30.4h13.6l.3.6c1.3,3.2-.3,4.7-2.2,5.9-1.1.7-1.7,1.7-1.6,2.8,0,.8.5,1.5,1.3,1.9,3,1.4,3,3.6,3,5.3,0,.2,0,.5,0,.7,0,.8,0,1.6,0,2.4v1.5s-.5.3-.5.3c-2.5,1.6-3.8,3-3.8,4.1,0,1,1.2,2.1,3.4,3.4l.3.2v.3c.7,1.2.6,2.5.6,3.6,0,.6,0,1.1,0,1.6.2,2.2-.5,3.6-2.5,4.9-1.1.7-1.8,1.6-1.8,2.4,0,1,.7,2,2.1,2.8,2.4,1.5,2.3,3.4,1.9,5.5v.7c-.1,0-.8.1-.8.1-1.8.3-3.6.4-5.4.4s-2.3,0-3.4,0c-1.1,0-2.2,0-3.4,0h-1V30.4ZM37.4,54.7c0,5.4.1,10.5-.2,15.7-.2,3.1-2,5.4-3.9,7.9-.7.9-1.5,1.9-2.1,2.9l-.8,1.3-1.5-2.1c-3.3-4.7-6.5-9.1-5.8-15.5.4-3.7.3-7.5.2-11.4,0-1.8,0-3.6,0-5.4v-1h14.2v1c0,2.2,0,4.5,0,6.7ZM37.3,39.8h-.8c-2.6.5-5.3.5-7.8.5-1.4,0-2.8,0-4.2,0h-1s0-9.9,0-9.9h13.9v9.4Z"/></svg>