<?xml version="1.0" encoding="UTF-8"?><svg id="a" xmlns="http://www.w3.org/2000/svg" viewBox="0 0 400 400"><path d="M123.6,183.8c-9.9,0-18,8.1-18,18s8.1,18,18,18,18-8.1,18-18-8.1-18-18-18ZM123.6,210.8c-5,0-9-4-9-9s4-9,9-9,9,4,9,9-4,9-9,9Z"/><path d="M111.4,164.5c.9.9,2,1.3,3.2,1.3s2.3-.4,3.2-1.3l5.8-5.8,5.8,5.8c.9.9,2,1.3,3.2,1.3s2.3-.4,3.2-1.3c1.8-1.8,1.8-4.6,0-6.4l-5.8-5.8,5.8-5.8c1.8-1.8,1.8-4.6,0-6.4s-4.6-1.8-6.4,0l-5.8,5.8-5.8-5.8c-1.8-1.8-4.6-1.8-6.4,0-1.8,1.8-1.8,4.6,0,6.4l5.8,5.8-5.8,5.8c-1.8,1.8-1.8,4.6,0,6.4Z"/><path d="M173.1,242.3c-9.9,0-18,8.1-18,18s8.1,18,18,18,18-8.1,18-18-8.1-18-18-18ZM173.1,269.3c-5,0-9-4-9-9s4-9,9-9,9,4,9,9-4,9-9,9Z"/><path d="M173.1,183.8c-9.9,0-18,8.1-18,18s8.1,18,18,18,18-8.1,18-18-8.1-18-18-18ZM173.1,210.8c-5,0-9-4-9-9s4-9,9-9,9,4,9,9-4,9-9,9Z"/><path d="M160.9,164.5c.9.9,2,1.3,3.2,1.3s2.3-.4,3.2-1.3l5.8-5.8,5.8,5.8c.9.9,2,1.3,3.2,1.3s2.3-.4,3.2-1.3c1.8-1.8,1.8-4.6,0-6.4l-5.8-5.8,5.8-5.8c1.8-1.8,1.8-4.6,0-6.4-1.8-1.8-4.6-1.8-6.4,0l-5.8,5.8-5.8-5.8c-1.8-1.8-4.6-1.8-6.4,0s-1.8,4.6,0,6.4l5.8,5.8-5.8,5.8c-1.8,1.8-1.8,4.6,0,6.4Z"/><path d="M279.8,207.6l-13.5-13.5c-.4-.4-.9-.7-1.5-1-1.1-.5-2.3-.5-3.4,0-.5.2-1,.6-1.5,1l-13.5,13.5c-1.8,1.8-1.8,4.6,0,6.4,1.8,1.8,4.6,1.8,6.4,0l5.8-5.8v7.1c0,23.1-23.2,40.5-54,40.5s-4.5,2-4.5,4.5,2,4.5,4.5,4.5c35.9,0,63-21.3,63-49.5v-7.1l5.8,5.8c.9.9,2,1.3,3.2,1.3s2.3-.4,3.2-1.3c1.8-1.8,1.8-4.6,0-6.4Z"/><path d="M216.3,152.3l-5.8,5.8c-1.8,1.8-1.8,4.6,0,6.4.9.9,2,1.3,3.2,1.3s2.3-.4,3.2-1.3l5.8-5.8,5.8,5.8c.9.9,2,1.3,3.2,1.3s2.3-.4,3.2-1.3c1.8-1.8,1.8-4.6,0-6.4l-5.8-5.8,5.8-5.8c1.8-1.8,1.8-4.6,0-6.4-1.8-1.8-4.6-1.8-6.4,0l-5.8,5.8-5.8-5.8c-1.8-1.8-4.6-1.8-6.4,0-1.8,1.8-1.8,4.6,0,6.4l5.8,5.8Z"/><path d="M222.6,219.8c9.9,0,18-8.1,18-18s-8.1-18-18-18-18,8.1-18,18,8.1,18,18,18ZM222.6,192.8c5,0,9,4,9,9s-4,9-9,9-9-4-9-9,4-9,9-9Z"/><path d="M343.7,190.2c-.3-20.6-.5-36.9-.1-41.4.1-2,0-3.7-.1-5.3-.8-5.6-3.5-10.8-7.5-14.8l-18.7-18.7c-1.9-2-3.2-4-4.5-6.1-2.8-4.6-5.8-9.3-14.8-9h-.1c-7.3.5-42.9.3-64.1.3h-6.8c-5.3,0-10.3-2.1-14.1-5.9l-5.8-5.8-4.6-4.8c-5.4-5.6-13.8-7.2-21.2-4.1-7.1,2.9-11.5,9.5-11.5,17.2,0,.4,0,1,0,1.8v.3c0,.4-.2.7-.3.8-.1.1-.4.3-.8.3-8.3,0-23.2.2-39,.4-20.4.2-41.6.5-50.7.5,0,0,0,0,0,0-3.5,0-8.6.2-12.5,1.1-7.4,1.7-8.7,7.8-9,12.2-.2,3.7,1.6,157.1,2.1,169,0,.2,0,.4,0,.6.5,12.8,5.2,18.3,9.3,21.6,1.4,1.1,2.9,2.1,5,3,.3.1.3.2.3.2,0,0,.4.9-.8,4.2v.2c-3,9.8,3.7,15.2,9.6,19.9,1.8,1.5,3.7,3,5.3,4.6,5.8,5.8,11.5,11.5,17.3,17.3,3.4,3.8,8.3,6,13.5,6.1.1,0,.3,0,.4,0,5.1,0,10-2,13.3-5.5l19-19.1c.2-.2.5-.3.8-.3,4.5,0,17.3,0,33.5,0,32.7,0,86.4-.2,94.4.1l19,19c5.7,5.7,13.3,7.3,20.3,4.3,7.4-3.1,12.3-10.4,12.2-18-.1-5.5,1.7-10.5,5.1-14.3.5-.5,1-1.1,1.4-1.7,2.3-1.4,3.4-5.7,4.3-15.3.7-7.6,1.1-18.1,1.3-32.3.4-25.6,0-57.3-.4-82.7ZM181.9,99.5v-8.3c0-4.5,3.2-6.5,6.3-6.5,0,0,0,0,0,0,2.8,0,6,1.6,6.2,6.1v8.7c0,3.9,3.2,7.2,7.2,7.2,11.3,0,45.3-.3,70.2-.6,11.4-.1,21.6-.2,24.9-.2h1.2c5.5,0,6.3,3.2,6.3,14.1v157.1c-.3,6.7-3.5,11-9.6,12.9-3,.9-5.2,3.1-6.1,6.1-.8,2.5-.4,5.2.8,7.4v.4c-.1,0,1.2,1.2,1.2,1.2,2.1,2,2,4.7,1.2,6.7-.8,2-2.7,4.1-5.7,4-1.6,0-3.3-.7-4.4-1.8l-20.9-20.9c-1.3-1.3-3.1-2.1-5-2.1-9.3,0-53.7,0-89.5,0-21.9,0-41,0-44.5,0l-3.6-1.5v3.1c-1.4,1.2-3.3,3.3-6.2,6.4-4.7,5-15.6,16.6-18.9,17.1h-.3c0,0-.5,0-.5,0-3,0-4.9-2.1-5.7-4-.4-.9-1.4-4.1,1.2-6.6l2.1-2c2-1.9,2.6-4.7,1.7-7.3-.9-2.6-3.1-4.4-5.8-4.8h-.2c0,0-.5,0-.5,0-6.7-.1-8.3-1.9-10.9-11.8-.3-1.1-.4-2.2-.5-3.3-.1-5.4-1-54.8-2-116.1,0-2.2,0-38.6.1-40.8.2-2.1.2-4.1.1-5.8-.2-4.8.1-5,2-5.4,1.6,0,12.9-.1,25.9-.2,26-.2,65.4-.6,74.9-.8,3.8,0,6.9-3.4,6.9-7.5Z"/></svg>