<?xml version="1.0" encoding="UTF-8"?><svg id="a" xmlns="http://www.w3.org/2000/svg" viewBox="0 0 115 112"><defs><style>.b{stroke:#000;stroke-miterlimit:10;}</style></defs><path class="b" d="M75.1,40.8c0,0-.2-.2-.3-.3-.3-.3-.7-.5-1.1-.6-.2,0-.5-.1-.7-.2-.8,0-1.6.1-2.2.6-.2.1-.3.2-.5.4,0,0,0,0,0,0l-4,4c-.6.6-1,1.4-1,2.3s.3,1.7,1,2.3c.6.6,1.3.9,2.1,1,0,0,.1,0,.2,0,.3,0,.6,0,.8-.1v21.3c0,1,.5,1.9,1.2,2.5.4.3.8.5,1.3.7.3,0,.5.1.8.1s.3,0,.5,0c1.6-.2,2.8-1.6,2.8-3.3v-21.4c.1,0,.2,0,.4,0,.2,0,.4,0,.6,0s.4,0,.6,0c.6-.1,1.1-.4,1.6-.8,0,0,.1,0,.2-.1h0c.3-.3.6-.7.7-1.1.1-.4.2-.8.2-1.2,0-.9-.3-1.7-1-2.3l-4-4Z"/><path class="b" d="M95.9,35c-.1-.2-.3-.3-.5-.5-.1-.2-.3-.3-.5-.5-.1-.2-.3-.3-.5-.5-.1-.2-.3-.3-.5-.5-.1-.2-.3-.3-.5-.5-.1-.2-.3-.3-.5-.5-.1-.2-.3-.3-.5-.5-.1-.2-.3-.3-.5-.5,0,0,0,0,0,0-.3-1.1-.8-2-1.6-2.8-1.2-1.2-2.8-1.9-4.5-1.9h-24.6c-.1-.2-.3-.3-.5-.5-.1-.2-.3-.3-.5-.5-.1-.2-.3-.3-.5-.5-.1-.2-.3-.3-.5-.5-.1-.2-.3-.3-.5-.5-.1-.2-.3-.3-.5-.5-.1-.2-.3-.3-.5-.5,0,0,0,0-.1-.1-.3-2-2-3.5-4-3.5s-4,1.8-4,4v2.9h-28c-3.5,0-6.3,2.8-6.3,6.3v48.9c0,3.3,2.6,6.1,5.8,6.3.1.1.2.2.4.4,0,0,0,0,0,0l-.5.5c-.8.8-1.2,1.8-1.2,2.9s.4,2.1,1.2,2.9c.8.8,1.8,1.2,2.9,1.2s.3,0,.4,0c0,0,0,0,.1,0,0,0,.1.2.2.3s.2.1.3.2c0,0,.1.2.2.3s.2.1.3.2c0,0,.1.2.2.3s.2.1.3.2c0,0,.1.2.2.3s.2.1.3.2c0,0,.1.2.2.3s.2.1.3.2c0,0,.1.2.2.3s.2.1.3.2c0,0,.1.2.2.3s.2.1.3.2c0,0,.1.2.2.3s.2.1.3.2c0,0,.1.2.2.3.6.6,1.3.8,2,.8s1.5-.3,2-.8l6.9-6.9s0,0,0,0h40.3l1.7,1.7c.8.8,1.8,1.2,2.9,1.2s.3,0,.4,0l.3.3h0l.5.5h0l.5.5h0l.5.5h0l.5.5h0l.5.5h0l.5.5h0l.5.5h0l.5.5c.6.6,1.3.8,2,.8s1.5-.3,2-.8c1.1-1.1,1.1-2.9,0-4.1l-.5-.5-.5-.5-.5-.5-.5-.5-.5-.5-.5-.5h0s2.2,0,2.2,0c2.9,0,5.2-2.3,5.2-5.2v-48.9c0-1.5-.7-2.9-1.8-3.9ZM86.8,78.6c0,2.2-1.8,4-4,4h-3.7l3.2,3.2.6.6c.4.4.6.8.6,1.3s0,.4,0,.6c0,.3-.2.6-.5.8-.4.4-.8.6-1.3.6s-1-.2-1.3-.6l-6.4-6.4h-38.7s-6.4,6.4-6.4,6.4c-.4.4-.8.6-1.3.6s-1-.2-1.3-.6c-.3-.3-.4-.6-.5-.9,0-.1,0-.3,0-.4,0-.5.2-1,.6-1.3l.6-.6,3.2-3.2h-4.5c-2.2,0-4-1.8-4-4v-44c0-2.2,1.8-4,4-4h26.9v-4.3c0-.1,0-.3,0-.4.2-.9.9-1.5,1.9-1.5s1.2.3,1.6.9c.2.3.3.7.3,1v4.3h26.9c1.1,0,2.1.4,2.8,1.2s1.2,1.7,1.2,2.8v44Z"/><path class="b" d="M56.1,59.4c-.3,0-.6,0-.9,0s0,0,0,0c-2.4,0-4.6,1.1-6,2.9-1,1.3-1.7,2.9-1.7,4.7s0,.3,0,.5c.1,1.7.8,3.3,1.9,4.6,1.4,1.6,3.4,2.6,5.7,2.6s4.2-1,5.6-2.5c1.1-1.2,1.8-2.8,2-4.5,0-.2,0-.4,0-.6,0-1.8-.6-3.4-1.6-4.7-1.2-1.6-3-2.7-5.1-2.9ZM56.8,67.7c-.2.3-.6.6-.9.7-.2,0-.5.1-.7.1s-.5,0-.7-.1c-.4-.1-.7-.4-.9-.7-.2-.3-.4-.7-.4-1.2s0,0,0-.1c0-1.1.9-1.9,2-1.9s1,.2,1.4.6c.3.3.5.8.6,1.3,0,0,0,0,0,.1,0,.4-.1.8-.4,1.2Z"/><path class="b" d="M43.9,43.3c0-.9-.3-1.7-1-2.3-.1-.1-.2-.2-.4-.3-.6-.5-1.4-.7-2.1-.6-.7,0-1.5.3-2,.8,0,0,0,0-.1.1l-1,1h-.1c0-.1-.8-.9-.8-.9h0c-.3-.3-.6-.5-.9-.7-.1,0-.2-.1-.4-.1-.3-.1-.7-.2-1-.2s-.5,0-.8,0c-.5.1-1,.3-1.4.7,0,0-.1.1-.2.2-.6.6-1,1.4-1,2.3s0,.5.1.8c.1.6.4,1.1.9,1.5l.9.9h.1c0,.1-1,1.1-1,1.1-.6.6-1,1.4-1,2.3s.1,1.1.4,1.5c.2.3.3.6.6.8.2.2.3.3.5.4.5.3,1.1.5,1.7.5,0,0,0,0,.1,0,.7,0,1.4-.2,1.9-.6.1,0,.3-.2.4-.3l.5-.5.5-.5,1,1c.2.2.4.3.6.5.5.3,1.1.5,1.7.5s.5,0,.7,0c.6-.1,1.2-.4,1.7-.9.6-.6,1-1.4,1-2.3s-.3-1.7-1-2.3l-1-1,1-1c.6-.6,1-1.4,1-2.3Z"/><path class="b" d="M42.3,66c.6-.6,1-1.4,1-2.3s-.3-1.7-1-2.3c-.6-.6-1.4-1-2.3-1s-1.5.3-2,.7c0,0-.2.2-.3.2l-1,1-.6-.6-.4-.4c-1.2-1.2-3.1-1.3-4.4-.2,0,0-.2.2-.3.2-.3.3-.5.6-.7.9-.2.4-.3.9-.3,1.3,0,0,0,0,0,0,0,.9.3,1.7,1,2.3l1,1-.8.8h-.1c-.2.4-.4.6-.6.9,0,0,0,.1,0,.2-.2.4-.3.9-.3,1.3s0,.4,0,.5c.1.7.4,1.3.9,1.8.4.4.8.7,1.3.8.3,0,.6.1,1,.1s.4,0,.6,0c.3,0,.6-.2.9-.3.3-.2.6-.4.8-.6h.1c0-.1.8-1,.8-1l1,1c.5.5,1.2.9,1.9.9.1,0,.3,0,.4,0,.3,0,.7,0,1-.2.5-.2.9-.4,1.3-.8,0,0,0,0,0,0,.6-.6,1-1.4,1-2.3s-.3-1.7-1-2.3l-.6-.6-.3-.3.8-.8h.1Z"/><path class="b" d="M49.3,58.2c.9,0,1.7-.3,2.3-1l1-1,1,1c.4.4.8.6,1.2.8.3.1.7.2,1.1.2.6,0,1.3-.2,1.8-.5.2-.1.4-.3.5-.4.6-.6,1-1.4,1-2.3s-.3-1.7-1-2.3l-1-1,1-1c.6-.6,1-1.4,1-2.3s-.3-1.7-1-2.3c-.6-.6-1.4-1-2.3-1s-1.7.3-2.3,1l-1,1-1-1c-.9-.9-2.2-1.2-3.4-.8-.5.2-.9.4-1.3.8-.6.6-1,1.4-1,2.3s.1,1,.4,1.5c.2.3.4.6.6.8l1,1-1,1c-.4.4-.6.8-.8,1.3-.1.3-.2.7-.2,1,0,.9.3,1.7,1,2.3.6.6,1.4.9,2.2,1,0,0,0,0,0,0Z"/></svg>