<?xml version="1.0" encoding="UTF-8"?><svg id="a" xmlns="http://www.w3.org/2000/svg" viewBox="0 0 115 115"><defs><style>.b{fill:#070707;}</style></defs><path class="b" d="M22.4,94c2.1,3,4.8,4.4,8.3,4.4h2.3c5.5,0,10.9,0,16.4,0,14.7,0,30,0,44.9,0,6,0,8.9-3,8.9-9.1v-4.9c.1-15.7.2-31.9,0-47.9-.1-5.6-3.4-10-6.6-14.3-1-1.4-2.1-2.9-3.1-4.4-.7-1-2.2-1-3.7-1h-.5s-6.7,0-6.7,0c-21,0-42.6-.2-64-.3-1.9,0-3.5.5-5.2,1.9v63.8c.9,1.1,1.7,2.3,2.6,3.4,2.1,2.7,4.2,5.5,6.2,8.4ZM58,60.8c0-2.4,0-4.7,0-7.1s0-4.8,0-7.2c0-6.1,0-12.3,0-18.5,0-1.7.2-2.6.9-3.3.6-.6,1.6-.9,3.2-.8,6.6.2,13.6.3,22.2.2,1.4,0,2.2.2,2.8.8.6.6.8,1.4.8,2.8,0,16,0,31.8,0,49.4,0,2-.5,3.4-1.4,4.3-1,1-2.5,1.5-4.6,1.4-6.1,0-13-.2-19.8,0-.1,0-.3,0-.4,0-1.4,0-2.3-.3-2.8-.8-.6-.6-.9-1.6-.9-3.2.1-6,.1-12.2,0-18.1ZM21.5,24.4c.5-.5,1.3-.7,2.6-.7,7.4.1,15.3.3,23.2.2,1.2,0,2.1.2,2.6.8.8.8.8,1.9.8,3.1v.4c0,6.3,0,12.6,0,18.8v6.9c0,2.3,0,4.6,0,7,0,6,0,12.2,0,18.2,0,1.5-.2,2.5-.8,3.1-.6.6-1.4.8-2.7.8s-.2,0-.3,0c-6.7-.2-13.4-.1-20.3,0-2,0-3.5-.5-4.4-1.4-.9-.9-1.4-2.3-1.4-4,0-8.1,0-16.1,0-24.2,0-8.7,0-17.5,0-26.2,0-1.3.2-2.1.8-2.6Z"/><path class="b" d="M42.6,33.6c-4.4-.3-9-.3-13.8,0-.9,0-1.7.4-2.2,1.1-.5.7-.7,1.6-.7,2.5.1,2,1.3,3.2,3.3,3.3,1.5,0,2.9,0,4.4,0,.6,0,1.3,0,1.9,0h.1c.6,0,1.3,0,1.9,0,1.5,0,3,0,4.5,0,2.1,0,3.2-1.2,3.3-3.2,0-1.1-.2-2.1-.8-2.8-.5-.6-1.2-.9-2-.9Z"/><path class="b" d="M41.8,50.1c-1.5,0-2.9,0-4.4,0-2.7,0-5.4,0-7.9,0-2,0-3.3,1.2-3.4,3.2-.2,2.2,1.1,3.6,3.2,3.8,1.4.1,2.9.1,4.4,0,.7,0,1.3,0,2,0h.5c.4,0,.9,0,1.3,0,1.3,0,2.7,0,4.1,0,2.6,0,3.9-1.3,3.9-3.7,0-2.8-2-3.4-3.6-3.4Z"/><path class="b" d="M45.5,70.1c0-2.5-1.7-3.3-3.1-3.6-.9-.2-1.9-.1-2.9,0-.5,0-.9,0-1.4,0h-.5c-.2-.1-.4-.1-.6-.1-.4,0-.7,0-1.1,0s-.8,0-1.2,0c-3.1.1-4.5,1.2-4.5,3.7,0,2.4,1.4,3.7,4.4,3.7h.6c2.4,0,4.8.1,7.2-.2,2-.2,3.1-1.5,3.1-3.5Z"/><path class="b" d="M74.9,40.6c1.4,0,2.9,0,4.4,0,2,0,3.2-1.3,3.3-3.3,0-1.1-.2-2-.8-2.7-.6-.6-1.4-1-2.5-1-4.6-.2-9-.2-13.2,0-1.9,0-3.1,1.4-3.1,3.5,0,2.1,1.1,3.3,3.1,3.4,1.6.1,3.2,0,4.7,0,.7,0,1.4,0,2.1,0h.5c.5,0,1,0,1.5,0Z"/><path class="b" d="M82.6,53.7c0-2.2-1.2-3.5-3.5-3.6-1.4,0-2.7,0-4.1,0-.6,0-1.2,0-1.8,0h0c-.7,0-1.4,0-2.1,0-.7,0-1.4,0-2,0s-1.8,0-2.7,0c-2.3.1-3.5,1.4-3.4,3.6,0,2,1.3,3.3,3.2,3.4,4.5.2,8.9.2,13.2,0,1.9,0,3.1-1.4,3.2-3.4Z"/><path class="b" d="M72.1,66.3c-.2,0-.3,0-.4,0-.2,0-.3,0-.5,0-.7,0-1.5,0-2.3,0-1.8,0-3.7,0-4.7.9-.6.6-.9,1.5-.9,2.7,0,1.3.2,2.2.8,2.8,1,1,2.8,1,4.5,1,.7,0,1.3,0,1.9,0h.7c.1,0,.2,0,.4,0s.3,0,.4,0c1.9,0,4.3.1,5.6-1.1.6-.6.9-1.4.9-2.5,0-1.2-.3-2.1-.9-2.7-1.1-1.1-3.3-1.2-5.4-1.1Z"/></svg>