<?xml version="1.0" encoding="UTF-8"?><svg id="a" xmlns="http://www.w3.org/2000/svg" viewBox="0 0 400 400"><defs><style>.b{fill:none;}</style></defs><path class="b" d="M87.2,229.4c2.3,1.1,4.9,1.5,7.9,1.5,32.3,0,35.7.8,40.2-.8,12.4-4.5,20.7-19.9,26.7-48.8.8-5.3,4.1-9,8.3-10.5,7.1-2.6,14.6,2.6,16.2,10.5,6,28.5,14.6,44.7,26.7,48.8,4.5,1.5,7.1.8,40.2.8s5.6-.8,7.9-1.5c24-9,30-65.7,30-65.7,2.6-9-1.5-14.3-7.9-15.4-22.2-4.5-42.8-5.3-60.5-3-11.3,1.5-22.5,5.3-34.2,11.6-9,4.9-13.5,4.9-14.3,4.9s-5.3,0-13.9-4.9c-11.6-6.4-22.9-10.1-34.2-11.6-17.7-2.3-37.9-1.5-60.5,2.6-6.8,1.1-10.9,6.4-7.9,15.4.7,1.9,5.9,11.1,5.3,24.1,0,0,0,.2,0,.3,0,.4.4,32.7,24,41.7ZM277.7,152c4.5,0,8.3,1.9,8.3,4.1s-3.8,4.1-8.3,4.1-8.3-1.9-8.3-4.1,3.4-4.1,8.3-4.1ZM195.4,182.4c0-15.8,13.1-28.5,28.9-28.5l26.3-.4c15,0,27,12,27,27v11.3c0,18-14.6,32.7-32.7,32.7h-15.8c-18.8,0-33.8-15-33.8-33.8v-8.3ZM60.9,156.1c0-2.3,3.7-4.1,8.3-4.1s8.3,1.8,8.3,4.1-3.7,4.1-8.3,4.1-8.3-1.8-8.3-4.1ZM70.3,182.4c0-15.8,13.1-28.5,28.9-28.5l26.3-.4c15,0,27,12,27,27v11.3c0,18-14.6,32.7-32.7,32.7h-15.8c-18.8,0-33.8-15-33.8-33.8v-8.3Z"/><path d="M355.8,187.6c-.4-.4-.8-.8-1.2-1.2-.4-.4-.8-.8-1.2-1.2-.4-.4-.8-.8-1.2-1.2-.4-.4-.8-.8-1.2-1.2-.4-.4-.8-.8-1.2-1.2-.4-.4-.8-.8-1.2-1.2-.4-.4-.8-.8-1.2-1.2-.4-.4-.8-.8-1.2-1.2-.4-.4-.8-.8-1.2-1.2-.4-.4-.8-.8-1.2-1.2-.4-.4-.8-.8-1.2-1.2-.4-.4-.8-.8-1.2-1.2-.4-.4-.8-.8-1.2-1.2-.4-.4-.8-.8-1.2-1.2,0,0,0,0,0,0t0,0c-.3-.3-.6-.6-.9-.9,0,0,0,0,0,0,0,0,0,0,0,0-.4-.4-.9-.8-1.4-1.1,0,0,0,0,0,0-.5-.4-1-.7-1.6-1,0,0,0,0,0,0,0,0-.1,0-.2-.1-.3-.1-.5-.3-.8-.4-.1,0-.2-.1-.3-.2,0,0,0,0-.1,0,0,0,0,0,0,0,0,0-.1,0-.2-.1-.3-.1-.5-.3-.8-.4-.1,0-.2-.1-.3-.2,0,0,0,0-.1,0,0,0,0,0,0,0,0,0-.1,0-.2-.1-.3-.1-.5-.3-.8-.4-.1,0-.2-.1-.3-.2,0,0,0,0-.1,0,0,0,0,0,0,0,0,0-.1,0-.2-.1-.3-.1-.5-.3-.8-.4-.1,0-.2-.1-.3-.2,0,0,0,0-.1,0,0,0,0,0,0,0,0,0-.1,0-.2-.1-.3-.1-.5-.3-.8-.4-.1,0-.2-.1-.3-.2,0,0,0,0-.1,0,0,0,0,0,0,0,0,0-.1,0-.2-.1-.3-.1-.5-.3-.8-.4-.1,0-.2-.1-.3-.2,0,0,0,0-.1,0,0,0,0,0,0,0,0,0-.1,0-.2-.1-.3-.1-.5-.3-.8-.4-.1,0-.2-.1-.3-.2,0,0,0,0-.1,0,0,0,0,0,0,0,0,0-.1,0-.2-.1-.3-.1-.5-.3-.8-.4-.1,0-.2-.1-.3-.2,0,0,0,0-.1,0,0,0,0,0,0,0,0,0-.1,0-.2-.1-.3-.1-.5-.3-.8-.4-.1,0-.2-.1-.3-.2,0,0,0,0-.1,0,0,0,0,0,0,0,0,0-.1,0-.2-.1-.3-.1-.5-.3-.8-.4-.1,0-.2-.1-.3-.2,0,0,0,0-.1,0,0,0,0,0,0,0,0,0-.1,0-.2-.1-.3-.1-.5-.3-.8-.4-.1,0-.2-.1-.3-.2,0,0,0,0-.1,0,0,0,0,0,0,0,0,0-.1,0-.2-.1-.3-.1-.5-.3-.8-.4-.1,0-.2-.1-.3-.2,0,0,0,0-.1,0,0,0,0,0,0,0,0,0-.1,0-.2-.1-.3-.1-.5-.3-.8-.4-.1,0-.2-.1-.3-.2,0,0,0,0-.1,0,0,0,0,0,0,0,0,0-.1,0-.2-.1-.3-.1-.5-.3-.8-.4-.1,0-.2-.1-.3-.2,0,0,0,0-.1,0,0,0,0,0,0,0,0,0-.1,0-.2-.1-.3-.1-.5-.3-.8-.4-.1,0-.2-.1-.3-.2,0,0,0,0-.1,0,0,0,0,0,0,0,0,0-.1,0-.2-.1-.3-.1-.5-.3-.8-.4-.1,0-.2-.1-.3-.2,0,0,0,0-.1,0,0,0,0,0,0,0,0,0-.1,0-.2-.1-.3-.1-.5-.3-.8-.4-.1,0-.2-.1-.3-.2,0,0,0,0-.1,0,0,0,0,0,0,0,0,0-.1,0-.2-.1-.3-.1-.5-.3-.8-.4-.1,0-.2-.1-.3-.2,0,0,0,0-.1,0,0,0,0,0,0,0,0,0-.1,0-.2-.1-.3-.1-.5-.3-.8-.4-.1,0-.2-.1-.3-.2,0,0,0,0-.1,0,0,0,0,0,0,0,0,0-.1,0-.2-.1-.3-.1-.5-.3-.8-.4-.1,0-.2-.1-.3-.2,0,0,0,0-.1,0,0,0,0,0,0,0,0,0-.1,0-.2-.1-.3-.1-.5-.3-.8-.4-.1,0-.2-.1-.3-.2,0,0,0,0-.1,0,0,0,0,0,0,0,0,0-.1,0-.2-.1-.3-.1-.5-.3-.8-.4-.1,0-.2-.1-.3-.2,0,0,0,0-.1,0,0,0,0,0,0,0,0,0-.1,0-.2-.1-.3-.1-.5-.3-.8-.4-.1,0-.2-.1-.3-.2,0,0,0,0-.1,0,0,0,0,0,0,0,0,0-.1,0-.2-.1-.3-.1-.5-.3-.8-.4-.1,0-.2-.1-.3-.2,0,0,0,0-.1,0,0,0,0,0,0,0,0,0-.1,0-.2-.1-.3-.1-.5-.3-.8-.4-.1,0-.2-.1-.3-.2,0,0,0,0-.1,0,0,0,0,0,0,0,0,0-.1,0-.2-.1-.3-.1-.5-.3-.8-.4-.1,0-.2-.1-.3-.2,0,0,0,0-.1,0,0,0,0,0,0,0,0,0-.1,0-.2-.1-.3-.1-.5-.3-.8-.4-.1,0-.2-.1-.3-.2,0,0,0,0-.1,0,0,0,0,0,0,0,0,0-.1,0-.2-.1-.3-.1-.5-.3-.8-.4-.1,0-.2-.1-.3-.2,0,0,0,0-.1,0,0,0,0,0,0,0,0,0-.1,0-.2-.1.2.2.3.3.5.5h0s0,0,0,0c3.6,4,4.9,10,2.4,17.7,0,.8-5.6,9.8-4.9,22.2,0,1.5-.4,36.4-27.8,46.9-3,1.1-6.4,1.9-10.1,1.9-32.7-.4-36.4.8-42.1-1.1-3.6-1.3-6.9-3.4-9.9-6.3-.4-.4-.8-.8-1.2-1.2,0,0,0,0,0,0,0,0,0,0,0,0,0,0,0,0,0,0-.3-.4-.7-.7-1-1.1,0,0,0,0,0,0,0,0,0,0,0-.1,0,0,0,0,0,0-.3-.4-.7-.8-1-1.2,0,0,0,0,0,0,0,0,0,0,0-.1,0,0,0,0,0,0-.3-.4-.6-.8-.9-1.2,0,0,0,0,0,0,0,0,0-.1-.1-.2,0,0,0,0,0,0-.3-.4-.6-.9-.9-1.3,0,0,0-.1-.1-.2-.3-.5-.6-1-.9-1.4,0,0,0,0,0,0,0,0,0,0,0-.1,0,0,0,0,0,0-.3-.5-.7-1.1-1-1.6,0,0,0,0,0,0,0,0,0,0,0,0,0,0,0,0,0,0-1.1-1.9-2.2-4-3.2-6.3,0,0,0,0,0,0-.3-.7-.7-1.5-1-2.2,0,0,0,0,0-.1-1.3-3.2-2.6-6.7-3.8-10.4-1.6-5.2-3.1-11-4.4-17.5-.8-3-2.6-5.6-4.9-6.4-4.1-1.1-7.9,1.9-8.6,6.4-6.4,31.2-15.8,48.1-30,53-5.6,1.9-9,1.1-42.1,1.1s-7.1-.8-10.1-1.9c-5.1-1.9-9.3-4.7-12.7-7.9-.3-.3-.7-.7-1-1,0,0,0,0,0,0-.2-.2-.3-.3-.5-.5,0,0,0,0,0,0-.3-.3-.6-.7-.9-1,0,0,0,0,0,0-.2-.2-.3-.4-.5-.5,0,0,0,0,0,0-.3-.3-.6-.7-.9-1,0,0,0,0,0,0,0,0-.1-.2-.2-.3,0,0-.1-.1-.2-.2-.5-.6-1-1.3-1.4-2,0,0,0,0,0,0-.5-.7-.9-1.3-1.3-2,0,0,0,0,0,0,0,0-.1-.2-.2-.3,0,0,0,0,0,0-.1-.2-.2-.4-.3-.6,0,0,0,.1,0,.2,0,0,0,0,0,0,0,.2.2.3.3.5,0,0,0,0,0,0,.2.4.5.8.7,1.2,0,0,0,0,0,0,0,0,.1.2.2.3,0,0,0,0,0,0,.4.7.8,1.3,1.3,2,0,0,0,0,0,0,.5.7.9,1.3,1.4,2,0,0,0,0,0,0,.1.2.2.3.4.5,0,0,0,0,0,0,.3.4.6.7.9,1,0,0,0,0,0,0,.2.2.3.4.5.5,0,0,0,0,0,0,.3.3.6.7.9,1,0,0,0,0,0,0,.2.2.3.3.5.5,0,0,0,0,0,0,.3.3.7.7,1,1,0,0,0,0,0,0,.4.4.8.8,1.2,1.2.4.4.8.8,1.2,1.2.4.4.8.8,1.2,1.2.4.4.8.8,1.2,1.2.4.4.8.8,1.2,1.2.4.4.8.8,1.2,1.2.4.4.8.8,1.2,1.2.4.4.8.8,1.2,1.2.4.4.8.8,1.2,1.2.4.4.8.8,1.2,1.2.4.4.8.8,1.2,1.2.4.4.8.8,1.2,1.2.4.4.8.8,1.2,1.2.4.4.8.8,1.2,1.2,3,3.1,6.5,5.7,10.9,7.8.5.3,1,.5,1.5.8.5.3,1,.5,1.5.8.5.3,1,.5,1.5.8.5.3,1,.5,1.5.8.5.3,1,.5,1.5.8.5.3,1,.5,1.5.8.5.3,1,.5,1.5.8.5.3,1,.5,1.5.8.5.3,1,.5,1.5.8.5.3,1,.5,1.5.8.5.3,1,.5,1.5.8.5.3,1,.5,1.5.8.5.3,1,.5,1.5.8.5.3,1,.5,1.5.8.5.3,1,.5,1.5.8.5.3,1,.5,1.5.8.5.3,1,.5,1.5.8.5.3,1,.5,1.5.8.5.3,1,.5,1.5.8.5.3,1,.5,1.5.8.5.3,1,.5,1.5.8.5.3,1,.5,1.5.8.5.3,1,.5,1.5.8.5.3,1,.5,1.5.8.5.3,1,.5,1.5.8.5.3,1,.5,1.5.8.5.3,1,.5,1.5.8.5.3,1,.5,1.5.8.5.3,1,.5,1.5.8,1.4.7,2.9,1.4,4.5,2,3,1.1,6.4,1.9,10.1,1.9,33.1,0,36.4.8,42.1-1.1,9.4-3.2,16.6-11.6,22.3-25.8,1.4,1,2.9,1.8,4.4,2.5.5.3,1,.5,1.5.8.5.3,1,.5,1.5.8.5.3,1,.5,1.5.8.5.3,1,.5,1.5.8.5.3,1,.5,1.5.8.5.3,1,.5,1.5.8.5.3,1,.5,1.5.8.5.3,1,.5,1.5.8.5.3,1,.5,1.5.8.5.3,1,.5,1.5.8.5.3,1,.5,1.5.8.5.3,1,.5,1.5.8.5.3,1,.5,1.5.8.5.3,1,.5,1.5.8.5.3,1,.5,1.5.8.5.3,1,.5,1.5.8.5.3,1,.5,1.5.8.5.3,1,.5,1.5.8.5.3,1,.5,1.5.8.5.3,1,.5,1.5.8.5.3,1,.5,1.5.8.5.3,1,.5,1.5.8.5.3,1,.5,1.5.8.5.3,1,.5,1.5.8.5.3,1,.5,1.5.8.5.3,1,.5,1.5.8.5.3,1,.5,1.5.8.5.3,1,.5,1.5.8.5.3,1,.5,1.5.8,1.1.6,2.2,1.1,3.3,1.5,5.6,1.9,9.4.8,42.1,1.1,3.8,0,7.1-.8,10.1-1.9,27.4-10.5,27.8-45.4,27.8-46.9-.8-12.4,4.9-21.4,4.9-22.2,2.7-8.5.8-15-3.6-18.9Z"/><path d="M57.2,188.3c0,0,0,.2,0,.3,0,0,0,0,0,0,0-.1,0-.2,0-.3,0,0,0,0,0,0Z"/><path d="M57.2,187.3c0,0,0,.1,0,.2,0,0,0,0,0,0,0,0,0-.2,0-.2,0,0,0,0,0,0Z"/><path d="M57.4,191.3c0,.1,0,.3,0,.4,0,0,0,0,0,0,0-.1,0-.3,0-.4,0,0,0,0,0,0Z"/><path d="M57.5,192.4s0,0,0,.1c0,0,0,0,0-.1,0,0,0,0,0,0Z"/><path d="M57.2,188s0,0,0,0c0,0,0-.2,0-.2,0,0,0,.2,0,.2Z"/><path d="M57.3,190.3c0,.1,0,.2,0,.4,0,0,0,0,0,0,0-.1,0-.3,0-.4,0,0,0,0,0,0Z"/><path d="M166,153.3c4.7,2.2,7.3,2.4,7.9,2.5-.6,0-3.2-.3-7.9-2.5Z"/><path d="M53.9,148c0,0-.1.2-.2.3.1-.2.2-.3.3-.5,0,0-.1.1-.1.2Z"/><path d="M69.2,141s0,0,0,0c0,0,0,0,0,0,0,0,0,0,0,0Z"/><path d="M199.7,227.1s0,0,0,0c0,0,0,0,0,0,0,0,0,0,0,0,0,0,0,0,0,0Z"/><path d="M70.8,224.5c.2.2.3.3.5.5,0,0,0,0,0,0-.2-.2-.3-.3-.5-.5,0,0,0,0,0,0Z"/><path d="M57.7,193.7s0,0,0,0c0,0,0,0,0,0,0,0,0,0,0,0,0,0,0,0,0,0Z"/><path d="M69.4,222.9c.2.2.3.4.5.5,0,0,0,0,0,0-.2-.2-.3-.4-.5-.5,0,0,0,0,0,0Z"/><path d="M68.6,221.9s0,0,0,0c0,0-.1-.2-.2-.3,0,0,.1.2.2.3Z"/><path d="M198.5,225.8s0,0,0,.1c0,0,0,0,0-.1,0,0,0,0,0,0Z"/><path d="M197.4,224.4s0,0,0,.1h0c0-.1,0-.1,0-.1Z"/><path d="M194.2,220s0,0,0,.1c0,0,0,0,0,0,0,0,0,0,0-.1,0,0,0,0,0,0Z"/><path d="M196.3,223c0,0,0,.1.1.2,0,0,0,0,0,0,0,0,0-.1-.1-.2,0,0,0,0,0,0Z"/><path d="M193.2,218.3s0,0,0,0c0,0,0,0,0,0,0,0,0,0,0,0,0,0,0,0,0,0Z"/><path d="M59.8,204.3c0,0,0,.2,0,.3,0,0,0,0,0,0,0,0,0-.2,0-.3,0,0,0,0,0,0Z"/><path d="M58.5,198.9s0,0,0,0c0,0,0-.2,0-.3,0,0,0,.2,0,.3Z"/><path d="M58.7,200.1s0,0,0,0c0,0,0,0,0,0,0,0,0,0,0,0Z"/><path d="M65.3,217.1c0,0,.1.2.2.3,0,0,0,0,0,0,0,0-.1-.2-.2-.3,0,0,0,0,0,0Z"/><path d="M58,195.9s0,0,0,.1c0,0,0,0,0,0,0,0,0,0,0-.1,0,0,0,0,0,0Z"/><path d="M63.4,213.7c0,.1.1.3.2.4,0,0,0,0,0,0,0-.2-.2-.3-.2-.5,0,0,0,0,0,0Z"/><path d="M64.3,215.4c0,.2.2.3.3.5,0,0,0,0,0,0,0-.2-.2-.3-.3-.5,0,0,0,0,0,0Z"/><path d="M60.4,206.3s0,0,0,0c0-.1,0-.2-.1-.4,0,.1,0,.2.1.4Z"/><path d="M62.8,212.3s0,0,0,.1c0,0,0,0,0-.1,0,0,0,0,0,0Z"/><path d="M61,207.9s0,0,0,0c0-.1,0-.2-.1-.3,0,.1,0,.2.1.3Z"/><path d="M57.2,186.9s0,0,0,0c0,0,0,0,0,0,0,0,0,0,0,0,0,0,0,0,0,0Z"/><path d="M57.2,187.1s0,0,0,0c0,0,0,0,0,0,0,0,0,0,0,0Z"/><path d="M52.5,165.3c0,0,0,.2.1.2,0,0,0-.2-.1-.3,0,0,0,0,0,0Z"/><path d="M52,163.7c.1.3.2.7.3,1,0,0,0,0,0,0,0,0,0,0,0,0-.1-.3-.2-.7-.3-1Z"/><path d="M52,163.7c-.1-.3-.2-.7-.3-1,0,.3.2.7.3,1Z"/><path d="M50.9,156.4c0,.6,0,1.2,0,1.8,0,.6.1,1.2.2,1.9-.2-1.3-.3-2.5-.2-3.7Z"/><path d="M64.4,215.5c0-.1-.1-.3-.2-.4,0,0,0,0,0,0-.2-.4-.4-.9-.6-1.3h0s0,0,0-.1c0,0,0,0,0,0-.3-.7-.6-1.4-.9-2.2,0,0,0,0,0,0-.3-.7-.6-1.4-.8-2.1,0,0,0,0,0,0,0-.1,0-.2-.1-.3,0,0,0,0,0,0-.1-.4-.3-.8-.4-1.3,0,0,0,0,0,0,0-.1,0-.3-.1-.4,0,0,0,0,0,0-.1-.4-.3-.8-.4-1.3,0,0,0,0,0,0,0,0,0-.2,0-.3,0,0,0,0,0,0-.2-.7-.4-1.4-.6-2,0,0,0,0,0,0-.2-.7-.3-1.3-.5-2,0,0,0,0,0,0,0,0,0-.1,0-.2,0,0,0,0,0,0,0-.4-.2-.8-.2-1.1h0c0-.1,0-.3,0-.4,0,0,0,0,0,0,0-.4-.1-.7-.2-1,0,0,0,0,0,0,0-.1,0-.3,0-.4,0,0,0,0,0,0,0-.3-.1-.7-.2-1,0,0,0,0,0,0,0,0,0,0,0-.1,0,0,0,0,0,0-.1-.8-.2-1.5-.3-2.2,0,0,0,0,0,0,0,0,0,0,0,0,0,0,0,0,0,0,0-.3,0-.6,0-.8,0,0,0,0,0,0,0-.1,0-.3,0-.4,0,0,0,0,0,0,0-.2,0-.5,0-.7,0,0,0,0,0,0,0-.1,0-.3,0-.4,0,0,0,0,0,0,0-.2,0-.4,0-.6,0,0,0,0,0,0,0-.1,0-.2,0-.4,0,0,0,0,0,0,0-.3,0-.6,0-.9,0,0,0,0,0,0,0-.3,0-.5,0-.8,0,0,0,0,0,0,0-.1,0-.2,0-.3,0,0,0,0,0,0,0-.1,0-.2,0-.3,0,0,0,0,0,0,0,0,0-.2,0-.3,0,0,0,0,0,0,0,0,0-.2,0-.2h0c0,0,0-.1,0-.2,0,0,0,0,0,0,0,0,0,0,0-.1s0,0,0,0c0,0,0,0,0-.1,0,0,0,0,0,0,0,0,0,0,0,0,0-.7,0-1.4,0-2.1,0-.2,0-.5,0-.7,0-.5,0-.9,0-1.3,0-.3,0-.5,0-.8,0-.6,0-1.2-.1-1.7,0-.9-.2-1.8-.4-2.6,0-.1,0-.2,0-.3-.1-.7-.3-1.4-.4-2.1,0-.1,0-.2,0-.3-.2-.7-.3-1.4-.5-2,0-.2-.1-.4-.2-.5-.2-.5-.3-1-.5-1.5,0-.1,0-.2-.1-.3-.2-.5-.3-.9-.5-1.4,0,0,0,0,0,0-.2-.4-.3-.8-.5-1.1,0,0,0-.2-.1-.3-.1-.3-.2-.5-.3-.7,0,0,0,0,0,0-.1-.3-.2-.5-.3-.7,0-.2-.2-.3-.2-.5,0-.1-.1-.2-.2-.4,0,0,0-.2-.1-.2,0,0,0,0,0,0,0-.1,0-.2-.1-.3,0,0,0,0,0,0,0,0,0-.1,0-.2,0,0,0,0,0,0-.3-.7-.5-1.4-.6-2.1,0-.2,0-.4-.1-.6-.1-.5-.2-1-.3-1.5,0-.2,0-.4,0-.6,0-.6-.2-1.3-.2-1.9,0-.6,0-1.2,0-1.8,0-.2,0-.3,0-.5,0-.4,0-.8.1-1.3,0-.2,0-.3,0-.5.2-1.1.5-2.1.9-3.1,0-.1.1-.3.2-.4.2-.4.3-.7.5-1,0-.1.1-.3.2-.4.2-.3.4-.7.7-1,0,0,.1-.2.2-.3,0,0,.1-.1.1-.2.3-.4.6-.7,1-1.1.1-.1.2-.2.4-.4.2-.2.4-.4.7-.6.2-.1.3-.3.5-.4.1-.1.3-.2.4-.3.5-.3.9-.7,1.4-.9,0,0,.2,0,.2-.1.2-.1.4-.2.5-.3.5-.3,1.1-.5,1.6-.7.4-.1.7-.3,1.1-.4.3-.1.7-.2,1-.3.4-.1.9-.2,1.4-.3,1.6-.3,3.3-.6,4.9-.8,0,0,0,0,0,0,0,0,0,0,0,0,1.6-.3,3.2-.5,4.8-.7.3,0,.6,0,.9-.1,1.3-.2,2.6-.4,3.9-.5.4,0,.7,0,1.1-.1,1.3-.2,2.5-.3,3.8-.4.3,0,.6,0,.9,0,1.5-.2,3-.3,4.6-.4.2,0,.4,0,.6,0,1.8-.1,3.5-.2,5.2-.3.4,0,.8,0,1.2,0,1.7,0,3.4-.1,5.1-.2,1.7,0,3.4,0,5.1,0,.4,0,.8,0,1.3,0,1.7,0,3.3,0,4.9.1,1.5,0,3.1.1,4.6.2.2,0,.4,0,.7,0,1.2,0,2.5.2,3.7.3.3,0,.7,0,1,0,1.4.1,2.8.3,4.2.5,1.5.2,2.9.4,4.4.7,4.4.8,8.9,2,13.5,3.5,1.5.5,3,1.1,4.5,1.7,3.4,1.4,6.9,2.9,10.3,4.7.5.3,1,.5,1.5.8.5.3,1,.5,1.5.8.5.3,1,.5,1.5.8.5.3,1,.5,1.5.8.5.3,1,.5,1.5.8.4.2.8.4,1.3.6,3.3,1.3,5.2,1.5,5.7,1.5,0,0,0,0,0,0,0,0,.1,0,.1,0,0,0,0,0,0,0,0,0,0,0,0,0,0,0,.1,0,.2,0,0,0,.1,0,.2,0,0,0,.1,0,.2,0,0,0,.2,0,.3,0,0,0,.2,0,.2,0,.1,0,1.8-.4,2-.5.1,0,.3,0,.4-.1.2,0,.5-.1.7-.2.1,0,.3,0,.4-.2.3-.1.6-.2.9-.3.2,0,.3-.1.5-.2.5-.2,1-.4,1.5-.7,0,0,.2,0,.3-.1.4-.2.8-.4,1.2-.6.1,0,.3-.1.4-.2.5-.3,1-.5,1.6-.8,0,0,0,0,0,0,3-1.7,6-3.2,9-4.6,3-1.4,6-2.6,9-3.6,3-1,6-1.9,9-2.6,3-.7,6-1.2,9-1.6,1.2-.2,2.5-.3,3.7-.4.4,0,.8,0,1.2-.1.9,0,1.7-.1,2.6-.2.5,0,1,0,1.5,0,.8,0,1.6,0,2.4-.1.5,0,3.2-.1,3.9-.1.5,0,1.1,0,1.6,0,.8,0,3.5,0,4,0,.8,0,3.6,0,4.1,0,.9,0,1.9,0,2.9.1.4,0,.8,0,1.3,0,1.4,0,2.8.1,4.2.2.2,0,.4,0,.7,0,1.9.1,3.8.3,5.8.5.3,0,.6,0,.9,0,2.1.2,7,.8,7.4.9,2.1.3,7,1,7.3,1.1,2.3.4,4.5.7,6.8,1.1v-.4.4s3.5.6,3.7.7c0,0,.1,0,.2,0,0,0,0,0,0,0,.2,0,.4.2.6.3.3.1.6.3.8.4,0,0,.1,0,.2.1,0,0,0,0,0,0,0,0,0,0,.1,0,.1,0,.2.1.3.2.3.1.6.3.8.4,0,0,.1,0,.2.1,0,0,0,0,0,0,0,0,0,0,.1,0,.1,0,.2.1.3.2.3.1.6.3.8.4,0,0,0,0,0,0-.1-.1-.3-.3-.4-.4,0,0,0,0,0,0,0,0,0,0,0,0-.4-.4-.9-.8-1.4-1.1,0,0,0,0,0,0-.5-.4-1-.7-1.6-1,0,0,0,0,0,0,0,0-.1,0-.2-.1-.3-.1-.5-.3-.8-.4-.2,0-.4-.2-.6-.3,0,0,0,0,0,0,0,0-.1,0-.2,0-.2,0-3.7-.7-3.7-.7-2.3-.4-4.6-.8-6.8-1.1-.3,0-5.2-.8-7.3-1.1-.4,0-5.4-.6-7.4-.9-.3,0-.6,0-.9,0-1.9-.2-3.9-.3-5.8-.5-.2,0-.4,0-.7,0-1.4,0-2.8-.2-4.2-.2-.4,0-.8,0-1.3,0-1,0-1.9,0-2.9-.1-.5,0-3.2,0-4.1,0-.5,0-3.2,0-4,0-.5,0-1.1,0-1.6,0-.8,0-3.4.1-3.9.1-.8,0-1.6,0-2.4.1-.5,0-1,0-1.5,0-.9,0-1.7.1-2.6.2-.4,0-.8,0-1.2.1-1.3.1-2.5.3-3.7.4-3,.4-6,.9-9,1.6-3,.7-6,1.6-9,2.6-3,1-6,2.2-9,3.6-3,1.4-6,2.9-9,4.6,0,0,0,0,0,0-.6.3-1.1.6-1.6.8-.1,0-.3.1-.4.2-.4.2-.8.4-1.2.6-.1,0-.2,0-.3.1-.5.2-1.1.5-1.5.7-.2,0-.3.1-.5.2-.3.1-.6.2-.9.3-.2,0-.3.1-.4.2-.2,0-.5.2-.7.2-.2,0-.3,0-.4.1-.2,0-1.9.5-2,.5,0,0-.2,0-.2,0-.1,0-.2,0-.3,0,0,0-.1,0-.2,0,0,0-.1,0-.2,0,0,0-.2,0-.2,0,0,0,0,0,0,0,0,0,0,0,0,0,0,0,0,0-.1,0,0,0,0,0,0,0-.6,0-3.2-.3-7.9-2.5,0,0,0,0,0,0-.5-.2-.9-.4-1.4-.7,0,0-.1,0-.2-.1-.5-.3-1-.5-1.6-.8,0,0,0,0,0,0-4.5-2.5-9.1-4.7-13.6-6.5-1.5-.6-3-1.2-4.5-1.7-4.5-1.5-9.1-2.7-13.5-3.5-1.5-.3-2.9-.5-4.4-.7-1.4-.2-2.8-.3-4.2-.5-.3,0-.7,0-1,0-1.2-.1-2.4-.2-3.7-.3-.2,0-.4,0-.7,0-1.5,0-3.1-.2-4.6-.2-1.6,0-3.3,0-4.9-.1-.4,0-.8,0-1.3,0-1.7,0-3.4,0-5.1,0-1.7,0-3.4.1-5.1.2-.4,0-.8,0-1.2,0-1.7,0-3.5.2-5.2.3-.2,0-.4,0-.6,0-1.5.1-3,.3-4.6.4-.3,0-.6,0-.9,0-1.3.1-2.5.3-3.8.4-.3,0-.7,0-1.1.1-1.3.2-2.6.3-3.9.5-.3,0-.6,0-.9.1-1.6.2-3.2.5-4.8.7,0,0,0,0,0,0-1.6.3-3.3.5-4.9.8-.5,0-.9.2-1.4.3-.3,0-.7.2-1,.3-.4.1-.8.2-1.1.4-.6.2-1.1.5-1.6.7-.2,0-.4.2-.5.3,0,0-.2,0-.2.1-.5.3-1,.6-1.4.9-.1.1-.3.2-.4.3-.2.1-.3.3-.5.4-.2.2-.5.4-.7.6-.1.1-.2.2-.4.4-.3.3-.7.7-1,1.1-.1.2-.2.3-.3.5-.2.3-.5.6-.7,1,0,.1-.2.3-.2.4-.2.3-.4.7-.5,1,0,.1-.1.3-.2.4-.4,1-.7,2-.9,3.1,0,.2,0,.3,0,.5,0,.4-.1.8-.1,1.3,0,.2,0,.3,0,.5,0,1.2,0,2.4.2,3.7,0,.2,0,.4,0,.6,0,.5.2,1,.3,1.5,0,.2,0,.4.1.6,0,.3.2.7.3,1,0,0,0,0,0,0,.1.3.2.7.3,1,0,0,0,0,0,0,0,0,0,0,0,.2,0,0,0,0,0,0,0,0,0,.2.1.3,0,0,0,.2.1.3,0,.1.1.2.2.4,0,.1.1.3.2.5.1.2.2.5.3.7,0,0,0,0,0,0,.1.2.2.5.3.7,0,0,0,.2.1.3.2.4.3.7.5,1.1,0,0,0,0,0,0,.2.4.3.9.5,1.4,0,.1,0,.2.1.3.2.5.3.9.5,1.5,0,.2.1.4.2.5.2.6.4,1.3.5,2,0,.1,0,.2,0,.3.2.7.3,1.4.4,2.1,0,.1,0,.2,0,.3.1.9.3,1.7.4,2.6,0,.6.1,1.1.1,1.7,0,.2,0,.5,0,.8,0,.4,0,.9,0,1.3,0,.2,0,.5,0,.7,0,.7,0,1.4,0,2.1,0,0,0,0,0,0,0,0,0,0,0,0,0,0,0,0,0,0,0,0,0,0,0,0,0,0,0,0,0,.1,0,0,0,.1,0,.2,0,0,0,.1,0,.2,0,0,0,0,0,0,0,0,0,0,0,0,0,0,0,.2,0,.2,0,0,0,.2,0,.3,0,.1,0,.2,0,.3,0,.2,0,.5,0,.8,0,0,0,0,0,0,0,.3,0,.6,0,.9,0,.1,0,.3,0,.4,0,.2,0,.4,0,.6,0,.1,0,.3,0,.4,0,.2,0,.5,0,.7,0,0,0,0,0,.1,0,0,0,.2,0,.3,0,0,0,0,0,0,0,.3,0,.5,0,.8,0,0,0,0,0,0,0,.7.2,1.4.3,2.2,0,0,0,0,0,.1,0,.3.1.7.2,1,0,0,0,0,0,0,0,.1,0,.3,0,.4,0,0,0,0,0,0,0,.3.1.7.2,1,0,0,0,0,0,0,0,0,0,0,0,.1,0,0,0,.2,0,.3,0,.4.2.7.2,1.1,0,0,0,0,0,0,0,0,0,0,0,.1,0,0,0,0,0,0,.1.6.3,1.3.5,2,0,0,0,0,0,0,.2.7.4,1.4.6,2,0,0,0,.2,0,.3.1.4.3.8.4,1.3,0,0,0,0,0,0h0c0,.2,0,.3.1.4.1.4.3.8.4,1.3,0,0,0,0,0,0,0,.1,0,.2.1.3.3.7.5,1.4.8,2.1,0,0,0,0,0,0,.3.7.6,1.4.9,2.2,0,0,0,0,0,.1.2.4.4.9.6,1.3,0,.2.1.3.2.5.2.4.4.8.6,1.2,0,.2.2.3.3.5.1.2.3.4.4.7-.2-.4-.4-.7-.6-1.1,0,0,0,0,0,0Z"/><path d="M57.5,192.5c0,0,0,.2,0,.3,0,0,0,0,0,0,0,0,0-.2,0-.3Z"/><path d="M57.2,187.7s0,0,0,0c0,0,0,0,0,0,0,0,0,0,0,0Z"/><path d="M58.4,198.5s0,0,0,.1c0,0,0,0,0-.1,0,0,0,0,0,0Z"/><path d="M58.8,200.1s0,0,0,.1c0,0,0,0,0,0,0,0,0,0,0-.1Z"/><path d="M58.2,197.1s0,0,0,0c0,.1,0,.3,0,.4,0,0,0,0,0,0,0-.1,0-.3,0-.4Z"/><path d="M52,163.7s0,0,0,0c0,0,0,0,0,0Z"/><path d="M65.4,217.4c.4.7.8,1.3,1.3,2,0,0,0,0,0,0,.5.7.9,1.3,1.4,2,0,0,0,0,0,0,0,0,.1.1.2.2,0,0,.1.2.2.3.3.4.6.7.9,1,.2.2.3.4.5.5.3.3.6.7.9,1,.2.2.3.3.5.5.3.3.7.7,1,1,3.4,3.2,7.6,6,12.7,7.9,3,1.1,6.4,1.9,10.1,1.9,33.1,0,36.4.8,42.1-1.1,14.3-4.9,23.7-21.8,30-53,.8-4.5,4.5-7.5,8.6-6.4,2.3.8,4.1,3.4,4.9,6.4,1.3,6.4,2.8,12.3,4.4,17.5,1.2,3.8,2.4,7.3,3.8,10.4,0,0,0,0,0,.1.3.8.6,1.5,1,2.2,0,0,0,0,0,0,1,2.3,2.1,4.4,3.2,6.3,0,0,0,0,0,0,.3.6.6,1.1,1,1.6,0,0,0,0,0,.1.3.5.6,1,.9,1.4,0,0,0,.1.1.2.3.4.6.9.9,1.3,0,0,0,.1.1.2.3.4.6.8.9,1.2h0c0,.1,0,.2,0,.2,0,0,0,0,0,0,.3.4.6.8,1,1.2,0,0,0,0,0,.1,0,0,0,0,0,0,.3.4.7.8,1,1.1,0,0,0,0,0,0,.4.4.8.8,1.2,1.2,3,2.9,6.3,5,9.9,6.3,5.6,1.9,9.4.8,42.1,1.1,3.8,0,7.1-.8,10.1-1.9,27.4-10.5,27.8-45.4,27.8-46.9-.8-12.4,4.9-21.4,4.9-22.2,2.5-7.7,1.1-13.7-2.4-17.7,0,0,0,0,0,0h0c-.2-.2-.3-.3-.5-.5,0,0,0,0,0,0-.3-.1-.5-.3-.8-.4-.1,0-.2-.1-.3-.2,0,0,0,0-.1,0,0,0,0,0,0,0,0,0-.1,0-.2-.1-.3-.1-.5-.3-.8-.4-.1,0-.2-.1-.3-.2,0,0,0,0-.1,0,0,0,0,0,0,0,0,0-.1,0-.2-.1-.3-.1-.5-.3-.8-.4-.2,0-.4-.2-.6-.3,0,0,0,0,0,0,0,0-.1,0-.2,0-.2,0-3.7-.7-3.7-.7-2.3-.4-4.6-.8-6.8-1.1-.3,0-5.2-.8-7.3-1.1-.4,0-5.4-.6-7.4-.9-.3,0-.6,0-.9,0-1.9-.2-3.9-.3-5.8-.5-.2,0-.4,0-.7,0-1.4,0-2.8-.2-4.2-.2-.4,0-.8,0-1.3,0-1,0-1.9,0-2.9-.1-.5,0-3.2,0-4.1,0-.5,0-3.2,0-4,0-.5,0-1.1,0-1.6,0-.8,0-3.4.1-3.9.1-.8,0-1.6,0-2.4.1-.5,0-1,0-1.5,0-.9,0-1.7.1-2.6.2-.4,0-.8,0-1.2.1-1.3.1-2.5.3-3.7.4-3,.4-6,.9-9,1.6-3,.7-6,1.6-9,2.6-3,1-6,2.2-9,3.6-3,1.4-6,2.9-9,4.6,0,0,0,0,0,0-.6.3-1.1.6-1.6.8-.1,0-.3.1-.4.2-.4.2-.8.4-1.2.6-.1,0-.2,0-.3.1-.5.2-1.1.5-1.5.7-.2,0-.3.1-.5.2-.3.1-.6.2-.9.3-.2,0-.3.1-.4.2-.2,0-.5.2-.7.2-.2,0-.3,0-.4.1-.2,0-1.9.5-2,.5,0,0-.2,0-.2,0-.1,0-.2,0-.3,0,0,0-.1,0-.2,0,0,0-.1,0-.2,0,0,0-.2,0-.2,0,0,0,0,0,0,0,0,0,0,0,0,0,0,0,0,0-.1,0,0,0,0,0,0,0-.5,0-2.4-.2-5.7-1.5-.4-.2-.8-.4-1.3-.6-.5-.3-1-.5-1.5-.8-.5-.3-1-.5-1.5-.8-.5-.3-1-.5-1.5-.8-.5-.3-1-.5-1.5-.8-.5-.3-1-.5-1.5-.8-3.4-1.8-6.9-3.4-10.3-4.7-1.5-.6-3-1.2-4.5-1.7-4.5-1.5-9.1-2.7-13.5-3.5-1.5-.3-2.9-.5-4.4-.7-1.4-.2-2.8-.3-4.2-.5-.3,0-.7,0-1,0-1.2-.1-2.4-.2-3.7-.3-.2,0-.4,0-.7,0-1.5,0-3.1-.2-4.6-.2-1.6,0-3.3,0-4.9-.1-.4,0-.8,0-1.3,0-1.7,0-3.4,0-5.1,0-1.7,0-3.4.1-5.1.2-.4,0-.8,0-1.2,0-1.7,0-3.5.2-5.2.3-.2,0-.4,0-.6,0-1.5.1-3,.3-4.6.4-.3,0-.6,0-.9,0-1.3.1-2.5.3-3.8.4-.3,0-.7,0-1.1.1-1.3.2-2.6.3-3.9.5-.3,0-.6,0-.9.1-1.6.2-3.2.5-4.8.7,0,0,0,0,0,0,0,0,0,0,0,0-1.6.3-3.3.5-4.9.8-.5,0-.9.2-1.4.3-.3,0-.7.2-1,.3-.4.1-.8.2-1.1.4-.6.2-1.1.5-1.6.7-.2,0-.4.2-.5.3,0,0-.2,0-.2.1-.5.3-1,.6-1.4.9-.1.1-.3.2-.4.3-.2.1-.3.3-.5.4-.2.2-.5.4-.7.6-.1.1-.2.2-.4.4-.3.3-.7.7-1,1.1,0,0-.1.1-.1.2,0,0-.1.2-.2.3-.2.3-.5.6-.7,1,0,.1-.2.3-.2.4-.2.3-.4.7-.5,1,0,.1-.1.3-.2.4-.4,1-.7,2-.9,3.1,0,.2,0,.3,0,.5,0,.4-.1.8-.1,1.3,0,.2,0,.3,0,.5,0,.6,0,1.2,0,1.8,0,.6.1,1.2.2,1.9,0,.2,0,.4,0,.6,0,.5.2,1,.3,1.5,0,.2,0,.4.1.6.2.7.4,1.4.6,2.1,0,0,0,0,0,0,0,0,0,0,0,.2,0,0,0,0,0,0,0,0,0,.2.1.3,0,0,0,0,0,0,0,0,0,.2.1.2,0,.1.1.2.2.4,0,.1.1.3.2.5.1.2.2.5.3.7,0,0,0,0,0,0,.1.2.2.5.3.7,0,0,0,.2.1.3.2.4.3.7.5,1.1,0,0,0,0,0,0,.2.4.3.9.5,1.4,0,.1,0,.2.1.3.2.5.3.9.5,1.5,0,.2.1.4.2.5.2.6.4,1.3.5,2,0,.1,0,.2,0,.3.2.7.3,1.4.4,2.1,0,.1,0,.2,0,.3.1.9.3,1.7.4,2.6,0,.6.1,1.1.1,1.7,0,.2,0,.5,0,.8,0,.4,0,.9,0,1.3,0,.2,0,.5,0,.7,0,.7,0,1.4,0,2.1,0,0,0,0,0,0,0,0,0,0,0,0,0,0,0,0,0,.1,0,0,0,0,0,0,0,0,0,0,0,.1,0,0,0,0,0,0,0,0,0,.1,0,.2h0c0,0,0,.1,0,.2,0,0,0,0,0,0,0,0,0,.2,0,.3,0,0,0,0,0,0,0,0,0,.2,0,.3,0,0,0,0,0,0,0,0,0,.2,0,.3,0,0,0,0,0,0,0,.2,0,.5,0,.8,0,0,0,0,0,0,0,.3,0,.6,0,.9,0,0,0,0,0,0,0,.1,0,.2,0,.4,0,0,0,0,0,0,0,.2,0,.4,0,.6,0,0,0,0,0,0,0,.1,0,.3,0,.4,0,0,0,0,0,0,0,.2,0,.5,0,.7,0,0,0,0,0,0,0,.1,0,.3,0,.4,0,0,0,0,0,0,0,.3,0,.5,0,.8,0,0,0,0,0,0,0,0,0,0,0,0,0,0,0,0,0,0,0,.7.2,1.4.3,2.2,0,0,0,0,0,0,0,0,0,0,0,.1,0,0,0,0,0,0,0,.3.1.7.2,1,0,0,0,0,0,0,0,.1,0,.3,0,.4,0,0,0,0,0,0,0,.3.1.7.2,1,0,0,0,0,0,0,0,.1,0,.2,0,.4h0c0,.4.2.8.2,1.1,0,0,0,0,0,0,0,0,0,.1,0,.2,0,0,0,0,0,0,.1.6.3,1.3.5,2,0,0,0,0,0,0,.2.7.4,1.4.6,2,0,0,0,0,0,0,0,0,0,.2,0,.3,0,0,0,0,0,0,.1.4.3.8.4,1.3,0,0,0,0,0,0,0,.1,0,.3.1.4,0,0,0,0,0,0,.1.4.3.8.4,1.3,0,0,0,0,0,0,0,.1,0,.2.1.3,0,0,0,0,0,0,.3.7.5,1.4.8,2.1,0,0,0,0,0,0,.3.7.6,1.4.9,2.2,0,0,0,0,0,0,0,0,0,0,0,.1h0c.2.4.4.9.6,1.3,0,0,0,0,0,0,0,.1.1.3.2.4,0,0,0,0,0,0,.2.4.4.7.6,1.1.1.2.2.4.3.6,0,0,.1.2.2.3ZM63.2,187.7c0,0,0-.2,0-.3.7-13-4.5-22.3-5.3-24.1-3-9,1.1-14.3,7.9-15.4,22.5-4.1,42.8-4.9,60.5-2.6,11.3,1.5,22.5,5.3,34.2,11.6,8.6,4.9,13.5,4.9,13.9,4.9.8,0,5.3,0,14.3-4.9,11.6-6.4,22.9-10.1,34.2-11.6,17.7-2.3,38.3-1.5,60.5,3,6.4,1.1,10.5,6.4,7.9,15.4,0,0-6,56.7-30,65.7-2.3.8-4.9,1.5-7.9,1.5-33.1,0-35.7.8-40.2-.8-12-4.1-20.7-20.3-26.7-48.8-1.5-7.9-9-13.1-16.2-10.5-4.1,1.5-7.5,5.3-8.3,10.5-6,28.9-14.3,44.3-26.7,48.8-4.5,1.5-7.9.8-40.2.8s-5.6-.4-7.9-1.5c-23.7-9-24-41.3-24-41.7Z"/><path d="M68.2,221.4c0,0,.1.1.2.2,0,0-.1-.1-.2-.2,0,0,0,0,0,0Z"/><path d="M197.5,224.6s0,0,0,0c0,0,0,0,0,0,0,0,0,0,0,0Z"/><path d="M173.9,155.8c0,0,.1,0,.1,0,0,0,0,0-.1,0Z"/><path d="M60.3,205.9s0,0,0,0h0c0,0,0,0,0,0Z"/><polygon points="60.9 207.6 60.9 207.6 60.8 207.6 60.9 207.6"/><path d="M57.2,187s0,0,0,0c0,0,0,0,0,0h0Z"/><path d="M104.1,224.5h15.8c18,0,32.7-14.6,32.7-32.7v-11.3c0-15-12-27-27-27l-26.3.4c-15.8,0-28.9,12.8-28.9,28.5v8.3c0,18.8,15,33.8,33.8,33.8ZM123.7,164c1.1-1.1,3-1.1,4.1,0l10.1,10.9c1.1,1.1,1.1,3,0,4.1h.4c-1.1,1.1-3,1.1-4.1,0l-10.5-10.9c-1.1-1.1-1.1-3,0-4.1ZM111.6,169.7c1.1-1.1,3-1.1,4.1,0l19.2,20.7c1.5,1.9.4,4.9-2.3,4.9s-1.5,0-1.9-.8l-19.2-20.7c-1.1-1.1-1.1-3,0-4.1Z"/><path d="M229.2,224.5h15.8c18,0,32.7-14.6,32.7-32.7v-11.3c0-15-12-27-27-27l-26.3.4c-15.8,0-28.9,12.8-28.9,28.5v8.3c0,18.8,15,33.8,33.8,33.8ZM248.4,164c1.1-1.1,3-1.1,4.1,0l10.5,10.9c1.1,1.1,1.1,3,0,4.1-1.1,1.1-3,1.1-4.1,0l-10.5-10.9c-1.1-1.1-1.1-3,0-4.1ZM236.3,169.7c1.1-1.1,3-1.1,4.1,0l19.2,20.7c1.1,1.1,1.1,3,0,4.1-1.1,1.1-3,1.1-4.1,0l-19.2-20.7c-1.1-1.1-1.1-3,0-4.1Z"/><path d="M77.5,156.1c0-2.3-3.7-4.1-8.3-4.1s-8.3,1.8-8.3,4.1,3.7,4.1,8.3,4.1,8.3-1.8,8.3-4.1Z"/><path d="M277.7,160.3c4.5,0,8.3-1.9,8.3-4.1s-3.8-4.1-8.3-4.1-8.3,1.9-8.3,4.1,3.8,4.1,8.3,4.1Z"/></svg>