<?xml version="1.0" encoding="UTF-8"?><svg id="a" xmlns="http://www.w3.org/2000/svg" viewBox="0 0 400 400"><defs><style>.b{fill:none;}</style></defs><path class="b" d="M110.6,205.8c.1-3-3.3-10.7-6.8-10.3-4.6.4-7.6,11.1-7.5,14.9,0,2.8,3.2,5.8,5.1,7.9-.3-6.1,2.8-11.6,9.3-12.4Z"/><path class="b" d="M176.8,208.9c-7.6-6.1-4.4-17.7,5.3-18.4-5.6-19.5-21.2-8.8-19.5,7.9.7,6.7,7,16.3,14.3,10.5Z"/><path class="b" d="M116.3,113.4c-.7-.2-.8.1-1.2.5-1,1-8.8,11.4-8.9,12.1-.2,1.8,5.2,5.2,6.9,6,9.6,4.6,22,2.7,28.9-5.6l-9.3-13c-4.7,13.1-12.1,13.9-16.4,0Z"/><path class="b" d="M101.8,115.3c2.9-2.7,10.6-15,13.6-16,6.1-1.9,7.1,4.5,9.3,8.4,2.3-3.8,5.1-12.3,10.9-7.1,4,3.6,7.2,11.2,11.7,14.7.2-17.2-18.4-25.7-33.2-19.6-7.6,3.1-13.9,11.1-12.3,19.6Z"/><path class="b" d="M137,248.3c.8-3.5-.3-10.1,3.2-11.6,4.9-1,9.9-1.1,14.8-1.9,15.9-2.5,30.4-7.6,44.6-14.9,3.4-1.7,8.5-6.5,12.1-2.6,2.2,2.4,1.2,10.6.4,13.7-1.3,5.3-4.9,11.2-9,14.8-1.5,1.3-4.8,3-5.8,4-.5.5-1.1,2.7-1.8,3.7-2.7,3.8-8.4,7.1-12.6,8.8-2.7,1.1-9.5,2.5-11.1,3.5-.3.2-1.7,3-2.5,3.9-7.8,9.1-18,8.3-28.6,4.8-2.6-.9-8.8-4.6-10.5-4.8-1.5-.1-5.8,1.7-8.1,1.9-2.8.3-6,0-8.8-.5,6.3,18.5,30.9,24.3,48.4,25.7,33.7,2.8,65.3-17.4,78.8-48,1.2-2.7,3-9.5,4.6-11.2,2-2.1,7.4-1.5,10.4-1.9,11.8-1.7,24.7-8.8,28.1-21,2.2-7.8-1.5-20.9-10-23.6-11.1-3.5-17.4,5.3-19.1,15-1,5.8,1.5,16.4-7.3,15.1l-26.5-10.6c-2-1.2-2.9-3.7-2.4-6,.5-2.3,4.1-8.2,5.2-11,1-2.5,7.2-17.5,6.4-18.9-.4-.7-9-6-10.4-6.8-12.9-7.2-28-12-42.7-13.3v1c4.4.2,15.1,2.5,18.8,4.8,3.6,2.3,3.2,8.1-.6,9.2-3.3,1-9.9-2.7-13.8-3.5-10.8-2.2-12.9,0-19.9,7-.5.5-.6,1.4-.7,1.4,2.5-1.9,9.5-5,12.6-4.7,21.6,1.5,27.1,35.6,9.5,47.1-7.2,4.7-13.2,4.7-20.3,0-13.3-8.7-14.1-32.7-1.7-42.3-.1,0-3.1.5-3.5.5-3.8-.3-5.9-4.9-3.8-8.1,5-7.9,13.5-11.6,22.6-11.5v-1c-12.7-1-30-.5-42.4,2.6-9.8,2.5-19.3,7.1-27.6,12.9,3.7.9,14.3,4.4,15.5,8.3,1.2,3.8-1.1,7.5-5.2,7.2-1.9-.2-7.1-3.9-10.1-4.7-2.5-.7-8.1-1.6-10.4-.9-2.3.7-5.5,10.3-4.4,12.8,13.9-17.5,28.7-2,30.2,15.1.2,2.3-.4,6.2,0,8,.1.6,5.5,1.7,4.1,7-1.3,4.9-6.4,2.9-9.8,3.5-13,2.4-18.2,19.3-9.5,29.1,9.4,10.6,27.5,6.3,30.8-7.4Z"/><path d="M347.2,223.3v-7.7c-.7-3-1.6-6-3.1-8.7-1.1-2.1-2.7-3.9-4-5.8l-54.9-55c-1.4-1.2-2.9-2.3-4.5-3.4-2.9-2.1-6.2-3.8-9.6-5.2-.2,0-.3-.1-.5-.2-2.6-.9-7.4-1.9-9-3.1-3-2.2-10.2-13-13.3-16.7-8.5-10-17.5-19.7-27.6-28.1-10.9-9.1-23-16.5-36.7-21-6.4-2.2-13.1-3.7-20.4-4.5-.9-.2-1.7-.3-2.6-.5h-3.2c0,0-.2,0-.2-.2h-12.2c0,0-.2.1-.2.2h-4.1l-3.4.6c-7.9.9-15.6,2.7-22.6,5.7-3.9,1.7-7.6,3.7-10.9,6.1-2.2,1.6-4.2,3.4-6,5.3-.3.3-.5.5-.8.8,0,0,0,0,0,0-2.8,3-5.2,6.5-7.3,10.4-7.7,15-8.8,32.2-9.4,48.8,0,.1-.3.3-.6.4-9.1,3.1-19.7,8-25.5,15.8-.8,1-1.5,2.1-2.2,3.3l-.5,1.2-.7,1.8c-.8,2.6-1.2,5.4-1,8.4,1.2,14.9,17.4,22.1,30.5,23.1.4,12.4,6,24.1,14.7,32.7,0,.1-.1.2-.2.4-1.3,2.1-2.3,4.4-3.1,6.8-3.3,9.3-1.1,19.3,5.3,27.4.6.8,3.4,3.4,3.5,3.8.2.5.4,1.2.5,2,.1,1,.2,1.9.4,2.7,0,.2,0,.3.1.5.2,1,.4,1.9.6,2.6,1.3,4,3.4,7.6,5.7,11,18.5,18.4,36,38.3,55.3,55.9,14.4,13.2,33.4,17.7,52.5,18.7.9,0,2.4.3,3.3.6h6.8c1.1-.9,2.7-.4,4.1-.6,27.7-3.3,53.7-21.1,67.4-45,2.8-4.9,5-10.1,6.9-15.3.5-.6,4.7-.5,5.7-.7,15.1-2.3,29.6-11.1,34.8-26,.7-2.2,1.2-4.4,1.7-6.7v-6.5c-.4-1.6-.5-3.3-.9-4.9-1-4.2-3.7-9.5-6.2-13-.2-.2-.6-.2-.6-.4,2.9-3.9,5.6-8.3,6.7-13.1.4-1.6.5-3.3.9-4.9ZM147.3,115.3c-4.5-3.5-7.7-11.1-11.7-14.7-5.8-5.2-8.6,3.3-10.9,7.1-2.3-3.9-3.3-10.3-9.3-8.4-3,.9-10.7,13.3-13.6,16-1.5-8.5,4.7-16.5,12.3-19.6,14.8-6,33.4,2.4,33.2,19.6ZM142,126.4c-6.9,8.3-19.3,10.2-28.9,5.6-1.7-.8-7-4.2-6.9-6,0-.7,7.9-11.2,8.9-12.1.4-.4.4-.7,1.2-.5,4.3,13.9,11.7,13.1,16.4,0l9.3,13ZM101.3,218.2c-1.8-2-5-5-5.1-7.9-.1-3.8,2.9-14.5,7.5-14.9,3.5-.3,7,7.3,6.8,10.3-6.5.8-9.6,6.3-9.3,12.4ZM115.8,226.6c3.4-.6,8.5,1.3,9.8-3.5,1.4-5.3-3.9-6.4-4.1-7-.4-1.8.2-5.7,0-8-1.5-17.1-16.3-32.6-30.2-15.1-1.1-2.5,2-12.1,4.4-12.8,2.3-.7,7.9.2,10.4.9,3,.9,8.2,4.5,10.1,4.7,4.2.4,6.4-3.3,5.2-7.2-1.2-3.9-11.8-7.4-15.5-8.3,8.3-5.7,17.8-10.4,27.6-12.9,12.4-3.1,29.7-3.6,42.4-2.6v1c-9.1-.2-17.6,3.6-22.6,11.5-2,3.2,0,7.8,3.8,8.1.4,0,3.4-.4,3.5-.5,0,0,.1-.9.7-1.4,7.1-6.9,9.1-9.1,19.9-7,3.9.8,10.4,4.5,13.8,3.5,3.8-1.2,4.2-7,.6-9.2-3.6-2.3-14.3-4.6-18.8-4.8v-1c14.7,1.3,29.9,6,42.7,13.3,1.4.8,10,6,10.4,6.8.9,1.4-5.3,16.4-6.4,18.9-1.2,2.8-4.7,8.7-5.2,11-.5,2.3.4,4.8,2.4,6l26.5,10.6c8.8,1.3,6.3-9.4,7.3-15.1,1.7-9.7,8-18.6,19.1-15,8.5,2.7,12.2,15.8,10,23.6-3.4,12.2-16.3,19.3-28.1,21-3,.4-8.4-.2-10.4,1.9-1.6,1.7-3.4,8.4-4.6,11.2-13.5,30.5-45.1,50.8-78.8,48-17.5-1.4-42.1-7.2-48.4-25.7,2.8.5,6,.7,8.8.5,2.3-.2,6.6-2,8.1-1.9,1.8.2,7.9,3.9,10.5,4.8,10.6,3.5,20.8,4.4,28.6-4.8.7-.8,2.2-3.7,2.5-3.9,1.6-1,8.4-2.4,11.1-3.5,4.2-1.8,9.9-5.1,12.6-8.8.7-1,1.3-3.1,1.8-3.7,1-1,4.3-2.6,5.8-4,4-3.6,7.7-9.6,9-14.8.8-3.1,1.8-11.3-.4-13.7-3.6-3.9-8.7.9-12.1,2.6-14.3,7.4-28.7,12.4-44.6,14.9-4.9.8-9.9.9-14.8,1.9-3.5,1.5-2.4,8.1-3.2,11.6-3.3,13.7-21.4,17.9-30.8,7.4-8.7-9.8-3.5-26.7,9.5-29.1Z"/><path d="M162.4,217.2c7.2,4.7,13.2,4.7,20.3,0,17.5-11.4,12.1-45.5-9.5-47.1-3.1-.2-10.1,2.8-12.6,4.7-12.4,9.7-11.5,33.6,1.7,42.3ZM182.1,190.6c-9.7.7-12.9,12.3-5.3,18.4-7.3,5.8-13.6-3.8-14.3-10.5-1.7-16.6,14-27.3,19.5-7.9Z"/></svg>