<?xml version="1.0" encoding="UTF-8"?><svg id="a" xmlns="http://www.w3.org/2000/svg" viewBox="0 0 115 115"><path d="M106,31.1h0s0,0,0,0l-25.1-23h-.1s-69.2,0-69.2,0c-1.4,0-2.6,1.1-2.6,2.5v73.4l.5.4,25.1,23.1.4-.4h68.4c1.4,0,2.6-1.1,2.6-2.5V31.2h0s0,0,0,0ZM46.8,17.6h21.7c1.4,0,2.6,1.1,2.6,2.5v10.9h-24.3v-13.5ZM16.8,35.9h25.2v14.4h-25.2v-14.4ZM42,72.4h-22.7c-1.4,0-2.6-1.1-2.6-2.5v-13.8h25.2v16.3ZM42,31.1h-25.2v-10.9c0-1.4,1.5-2.5,2.9-2.5h22.3v13.5ZM71.1,69.9c0,1.4-1.1,2.5-2.6,2.5h-21.7v-16.3h24.3v13.8ZM71.1,50.3h-24.3v-14.4h24.3v14.4Z"/></svg>