<?xml version="1.0" encoding="UTF-8"?><svg id="a" xmlns="http://www.w3.org/2000/svg" viewBox="0 0 400 400"><defs><style>.b{fill:#231f20;}</style></defs><path class="b" d="M345,111.9c-.9-1.3-2.1-2.4-3.4-3.4-.9-1.3-2.1-2.4-3.4-3.4-.9-1.3-2.1-2.4-3.4-3.4-.9-1.3-2.1-2.4-3.4-3.4-.9-1.3-2.1-2.4-3.4-3.4-.9-1.3-2.1-2.4-3.4-3.4-.9-1.3-2.1-2.4-3.4-3.4-.9-1.3-2.1-2.4-3.4-3.4-.9-1.3-2.1-2.4-3.4-3.4-.9-1.3-2.1-2.4-3.4-3.4-.9-1.3-2.1-2.4-3.4-3.4-.9-1.3-2.1-2.4-3.4-3.4-.9-1.3-2.1-2.4-3.4-3.4-.9-1.3-2.1-2.4-3.4-3.4-.4-.5-.8-1-1.2-1.4-.3-.3-.6-.6-.9-.9-.3-.3-.7-.6-1.1-.9-.4-.3-.8-.6-1.2-.8-.5-.3-1-.6-1.6-.9-.2-.1-.5-.2-.7-.3-.8-.3-1.5-.5-2.3-.7-.2,0-.4,0-.6-.1-.9-.2-1.8-.3-2.7-.3H64c-1.1,0-2.1.1-3.1.3-1.7.4-3.4,1-4.8,1.9-4.4,2.7-7.4,7.5-7.4,13.1h0v203.3h0c0,.9.2,1.7.4,2.6,0,.2,0,.4.1.5.2.7.5,1.4.8,2.1.1.3.3.6.4.8.2.4.5.8.7,1.3.3.5.7,1,1.1,1.5.1.2.3.3.4.5.7.7,1.4,1.4,2.2,2,.9,1.3,2.1,2.4,3.4,3.4.9,1.3,2.1,2.4,3.4,3.4.9,1.3,2.1,2.4,3.4,3.4.9,1.3,2.1,2.4,3.4,3.4.9,1.3,2.1,2.4,3.4,3.4.9,1.3,2.1,2.4,3.4,3.4.9,1.3,2.1,2.4,3.4,3.4.9,1.3,2.1,2.4,3.4,3.4.9,1.3,2.1,2.4,3.4,3.4.9,1.3,2.1,2.4,3.4,3.4.9,1.3,2.1,2.4,3.4,3.4.9,1.3,2.1,2.4,3.4,3.4.9,1.3,2.1,2.4,3.4,3.4.9,1.3,2.1,2.4,3.4,3.4,2.8,3.9,7.2,6.4,12.4,6.4h221.3c8.1,0,14.7-6.4,15.2-14.4h0V124.2c0-5.1-2.5-9.6-6.3-12.3ZM82.4,91.8h184.5v165.7H82.4V91.8Z"/><rect class="b" x="99.2" y="108.7" width="150.8" height="78.2"/><rect class="b" x="102.8" y="203.8" width="37.5" height="36.8"/><rect class="b" x="211.6" y="203.8" width="37.5" height="36.8"/><rect class="b" x="157.2" y="203.8" width="37.5" height="36.8"/></svg>