<?xml version="1.0" encoding="UTF-8"?><svg id="a" xmlns="http://www.w3.org/2000/svg" viewBox="0 0 115 115"><defs><style>.b{fill:#080808;}</style></defs><path class="b" d="M31.3,23c-8.3.5-12.3,4.6-12.4,12.5-.1,10.5-.1,21.2,0,31.5,0,4,0,8,0,12,0,3.5,1.4,6,4.4,7.9,4.6,2.9,9.2,6.1,13.6,9.1l3.4,2.3c2,1.4,4.1,2,6.4,2h0c1.9,0,3.8,0,5.7,0,3.1,0,6.2,0,9.3,0,8.4,0,17,0,25.5,0,6.1,0,8.9-2.8,8.9-8.8,0-10.9,0-21.9,0-32.6,0-5,0-10,0-15,0-3.2-1.1-5.7-3.4-7.5-4-3.1-7.9-6.4-11.8-9.5l-1.5-1.2c-2.4-2-4.7-2.8-7.1-2.7-2.1.1-3.5-.2-4.4-1.1-.9-.9-1.3-2.3-1.3-4.4,0-.9-.2-1.7-.8-2.2-.6-.6-1.4-.8-2.4-.8-.7,0-2.7,0-3.2,3.3,0,.3,0,.6,0,1,0,1,0,2.3-1,3.7l-.3.4h-10.7c-5.2,0-5.7-.4-6.7-5.4-.6-2.9-2.4-3-3-3-1.8,0-2.9,1-3.3,3.2,0,.3,0,.7,0,1.2,0,1,0,2.2-.7,3.5l-.3.5h-.6c-.3,0-.6,0-.9,0-.6,0-1.1,0-1.6,0ZM77.3,68.6c0,2.3,0,4.7,0,7.1,0,3.5-2.2,5.7-5.7,5.7-6.4,0-12.8,0-19.3,0s-14.4,0-21.6,0c-3.1,0-5.2-1.8-5.2-4.4-.1-7.3,0-14.7,0-21.8,0-2.7,0-5.3,0-8v-1h51.9v19.5c0,1,0,1.9,0,2.9ZM69.3,29.4c3.5,0,5.4.2,6.7,1.6,1.3,1.4,1.4,3.6,1.1,7.6v.9H26v-.8c-.8-3.8-.9-6.1.4-7.5,1.2-1.4,3.4-1.7,6.9-1.7,12,0,24,0,35.9,0Z"/><path class="b" d="M43.3,64.4c1.4,1.6,3,3.2,4.9,4.9,2.4,2.2,3.7,2.3,6,.1,3.1-2.9,6.2-6,9.1-9.1,1-1.1,1.5-2.2,1.5-3.2,0-.7-.4-1.4-1-2-1.9-1.7-4-.1-5.1,1-1.4,1.4-2.7,2.9-4.2,4.6-.7.8-1.4,1.6-2.2,2.5l-.7.8-.8-.8c-.6-.6-1-1.1-1.4-1.6-.7-.8-1.2-1.3-1.7-1.8-1.1-1-2-1.4-2.8-1.4s-1.5.4-2.1.9c-.7.6-1,1.2-1.1,1.8,0,.9.5,2,1.6,3.3Z"/></svg>