<?xml version="1.0" encoding="UTF-8"?><svg id="a" xmlns="http://www.w3.org/2000/svg" viewBox="0 0 400 400"><defs><style>.b{fill:#060606;}</style></defs><path class="b" d="M104.9,277.2c14.8,15.3,29.8,30.8,44.5,46.5,5.4,5.8,11.8,11.2,19.4,13.8,6.5,2.4,14,2.5,20.9,2.4,15.6-.2,31.3-.2,46.7-.2,15,0,29.9,0,45,0,11.6-.2,26.8.8,35.7-7.4,3.5-3.3,5.6-8,6.7-14.5.9-5.2,1.1-12.1,1.1-17.5,0-47.7,0-95.4,0-143.1,0-8.9,0-18.3-2.9-26.9-7.4-23.8-29-41.1-54.5-42.1-30.6-1.1-61.7.6-91.6-.6-9.5-1-14.5-8.4-20-15.3-11.2-13.7-31.2-17.4-46.6-8.7-8,4.4-14.2,11-20.7,17.1-4.3,4.2-8.5,8.5-12.6,12.8-5.5,5.9-11.3,12.2-14.2,19.8-6,14.1-1.5,30.4,8.7,41.3,3.2,3.5,6.8,6.2,10.7,9,2.6,2.2,6.9,4,7.1,7.2-.4,3.1-6.1,5.8-8.5,8.2-27.4,21.8-26.2,44.6-3.2,68.5,9.3,9.9,18.8,19.6,28.2,29.3h.1ZM88.7,143.2c-12.1-12.6-9.2-22.9,2.8-34,6.2-6.2,12.5-12.3,18.5-18.7,6.4-7.2,15.5-11.8,24.9-7.1,7.7,3.3,9.9,12.4,9.9,19.9,0,8.2,8.3,6,13.8,6.2,30,0,59.7,0,89.7,0,7.9.1,14-.2,20.8.1,9.1.4,17.6,5.6,18.5,15.6,1.3,9.9-4.7,17.5-14.4,19-6.6,1.2-13,.7-19.6.8-34.2,0-68.6,0-102.9,0-3,0-5.1.9-5.4,4.2-.8,6.3-.7,13.1-5.1,18.2-5.1,5.8-14.5,7.9-21.4,4.2-4-2-7.1-5.2-10.1-8.4-6.4-6.7-13.6-13.2-19.9-20.2h-.1ZM85.1,202.2c5.3-6,14.9-6.5,22.6-6.5,36.8-.2,75.2,0,112.1,0,3.8.2,4.2-2.4,4.4-6.1.4-4.3.6-8.6,2.3-12.4,2.2-5.4,8.6-8.9,14.3-9.5,12.5-1.4,19.1,10.7,27.4,18,6.9,7.2,21.3,18.9,20.1,29.5-.8,7-7.2,13.4-12,18.5-5.1,5.3-10.3,10.5-15.3,15.4-3.3,3.2-6.3,6.4-10.4,8.6-7.3,4.4-17.6,1.8-22.4-5-2.4-3.4-3.2-7-3.6-10.6-.3-3.2-.3-7.3-1.5-9.6-.9-1.5-2.1-1.1-4.6-1.1-15.2,0-47.6,0-65.7,0-15.3,0-30,0-45.2,0-3.7,0-7.1.1-10.6-.4-5.1-.8-10.1-2.9-13-7.9-3.8-6.1-3.7-15.3,1.1-20.6h.1Z"/></svg>