<?xml version="1.0" encoding="UTF-8"?><svg id="a" xmlns="http://www.w3.org/2000/svg" viewBox="0 0 400 400"><defs><style>.b{stroke:#000;stroke-miterlimit:10;stroke-width:8px;}</style></defs><path class="b" d="M215.8,265.5c-2.4,0-4.8,1.1-6.6,2.9-1.7,1.7-2.5,3.9-2.4,6.2.2,5,4.2,9,9.1,9s4.8-1.1,6.6-2.9c1.7-1.7,2.5-3.9,2.4-6.2-.2-5-4.2-9-9.1-9Z"/><path class="b" d="M215.8,237.6c-2.4,0-4.8,1.1-6.6,2.9-1.7,1.7-2.5,3.9-2.4,6.2.2,5,4.2,9,9.1,9s4.8-1.1,6.6-2.9c1.7-1.7,2.5-3.9,2.4-6.2-.2-5-4.2-9-9.1-9Z"/><path class="b" d="M243.8,237.6c-2.4,0-4.8,1.1-6.6,2.9-1.7,1.7-2.5,3.9-2.4,6.2.2,5,4.2,9,9.1,9s4.8-1.1,6.6-2.9c1.7-1.7,2.5-3.9,2.4-6.2-.2-5-4.2-9-9.1-9Z"/><path class="b" d="M313.2,201.7l-1.9-7.4h-.6l-.2-.8h-.6l-.2-.8h-.6l-.2-.8h-.6l-.2-.8h-.6l-.2-.8h-.6l-.2-.8h-.6l-.2-.8h-.6l-.2-.8h-.6l-.2-.8h-.5l-.2-.8h-.6l-.2-.8h-.6l-.2-.8h-.6l-.2-.8h-.6l-.2-.8h-.6l-.2-.8H65.4l-1.9,7.4c-2.6,10-3.9,20.4-3.9,30.8,0,32.8,12.8,63.7,35.9,86.8l11.9,11.9c23.2,23.2,54,36,86.9,36s63.7-12.8,86.9-36c23.2-23.2,36-54.1,36-86.9s-1.3-20.8-3.9-30.8ZM253.1,291.5c-20.4,20.4-47.6,31.7-76.5,31.7s-56.1-11.3-76.5-31.7c-20.4-20.4-31.7-47.6-31.7-76.5s.9-15.9,2.6-23.6h211.2c1.7,7.7,2.6,15.6,2.6,23.6,0,28.9-11.3,56.1-31.7,76.5Z"/><path class="b" d="M109.9,136.9l-33.6,31.5h218.5s-33.6-31.5-33.6-31.5c-1.6-1.5-3.6-2.3-5.8-2.3h-8.5v-36.1h31c4.7,0,8.4-3.8,8.4-8.4s-1.1-4.8-2.9-6.4c-.3-.3-.5-.6-.8-.8-.3-.3-.5-.6-.8-.8-.3-.3-.5-.6-.8-.8-.3-.3-.5-.6-.8-.8-.3-.3-.5-.6-.8-.8-.3-.3-.5-.6-.8-.8-.3-.3-.5-.6-.8-.8-.3-.3-.5-.6-.8-.8-.3-.3-.5-.6-.8-.8-.3-.3-.5-.6-.8-.8-.3-.3-.5-.6-.8-.8-.3-.3-.5-.6-.8-.8-.3-.3-.5-.6-.8-.8-.3-.3-.5-.6-.8-.8-.6-.7-1.4-1.3-2.2-1.8-1.3-.8-2.8-1.3-4.4-1.3h-39.4c-4.7,0-8.4,3.8-8.4,8.4v57.4h-53.4l-4.5-16.8,32.3-8.7c3.3-.9,5.7-3.7,6.2-7.1.4-2.8-.7-5.6-2.8-7.5-.3-.3-.5-.6-.8-.8-.3-.3-.5-.6-.8-.8-.3-.3-.5-.6-.8-.8-.3-.3-.5-.6-.8-.8-.3-.3-.5-.6-.8-.8-.3-.3-.5-.6-.8-.8-.3-.3-.5-.6-.8-.8-.3-.3-.5-.6-.8-.8-.3-.3-.5-.6-.8-.8-.3-.3-.5-.6-.8-.8-.3-.3-.5-.6-.8-.8-.3-.3-.5-.6-.8-.8-.2-.2-.5-.5-.7-.7-.7-1.6-1.9-2.9-3.5-3.8l-52.3-30.2c-2-1.1-4.3-1.4-6.5-.8-2.2.6-4,2.1-5.1,4.1l-28.6,51.9c-1.2,2.2-1.3,4.7-.5,6.9.3,1.2.8,2.4,1.6,3.4.3.4.7.8,1.1,1.2.3.3.5.6.8.8.3.3.5.6.8.8.3.3.5.6.8.8.3.3.5.6.8.8.3.3.5.6.8.8.3.3.5.6.8.8.3.3.5.6.8.8.3.3.5.6.8.8.3.3.5.6.8.8.3.3.5.6.8.8.3.3.5.6.8.8.3.3.5.6.8.8.3.3.5.6.8.8.3.3.5.6.8.8,1.6,1.9,3.9,2.9,6.4,2.9s15.7-4,25.8-6.6l2.7,10.1h-21.1c-2.1,0-4.2.8-5.8,2.3ZM142.6,134.8l-8.9-33-5.3,1.4c-11.5,3-29.9,7.9-33.5,8.7-.7-.1-1.4-.5-1.9-1.1-.7-.9-.8-2.2-.3-3.2l28.6-51.9c.4-.7,1-1.2,1.8-1.4.8-.2,1.6-.1,2.3.3l52.3,30.2c1,.6,1.6,1.7,1.4,2.9-.2,1.2-1,2.1-2.1,2.4l-37.6,10.1,9.3,34.6,1.5,5.4h72.5v-62.9c0-1.6,1.3-2.9,2.9-2.9h39.4c1.6,0,2.9,1.3,2.9,2.9s-1.3,2.9-2.9,2.9h-36.5v60h27c.7,0,1.5.3,2,.8l23.4,22H90.3l23.4-22c.5-.5,1.3-.8,2-.8h28.3l-1.4-5.4Z"/></svg>