<?xml version="1.0" encoding="UTF-8"?><svg id="a" xmlns="http://www.w3.org/2000/svg" viewBox="0 0 400 400"><defs><style>.b{fill:#070707;}</style></defs><path class="b" d="M326.5,97.5c-10.1-10.1-18.2-18.5-25.2-26.5-10.8-12.2-24-17.9-41.6-17.9h-15.9c-49.8.4-101.3.8-151.9-.2-.3,0-.7,0-1,0-13.7,0-26,4.8-34.8,13.7-8.9,9-13.6,21.5-13.2,35.2.9,36.3.9,75.6,0,120.1-.4,18.8,6,33.7,20.1,46.8,25.2,23.5,49.9,47.2,73.5,70.3,7.6,7.4,16.5,10.9,28.2,10.9h.2c22.6,0,45.3,0,67.9,0,25.2,0,50.4,0,75.6,0,20.8,0,31.5-11,31.6-32.4.1-21.9,0-43.8,0-65.7v-28.7c0-9,0-17.9,0-26.9,0-21.6-.2-43.9.2-65.9.2-13-4-23.4-13.5-32.8ZM286,123.4c0,3.6,0,7.3,0,10.9v26.8c0,21.3,0,42.7,0,64,0,19.6-5.2,24.7-25,24.8-20,.1-40,.1-59.9,0h-25.4s-81.1,0-81.1,0c-1,0-2.1,0-3.1,0-1.6,0-3.3,0-5-.1-13.9-.9-18.2-5.1-19.2-18.5,0-1.4,0-2.8,0-4.2v-1.5c0-41.1,0-82.3,0-123.4,0-3.1,0-6.2.3-9.3.7-8.9,5.9-14.3,14.6-15.2,3.5-.3,7-.3,10.4-.3h.8c47.2,0,94.3,0,141.5,0h25.7c1.8,0,3.6,0,5.4,0,13.5.9,19.5,7,19.9,20.5.3,8.5.2,17.2.1,25.5Z"/><polygon class="b" points="215.6 163.7 149.4 117.5 149.4 210.2 215.6 163.7"/></svg>