<?xml version="1.0" encoding="UTF-8"?><svg id="a" xmlns="http://www.w3.org/2000/svg" viewBox="0 0 115 115"><defs><style>.b{fill:#070707;}</style></defs><path class="b" d="M92.7,28.2c-2.8-2.7-4.9-5-6.9-7.2-2.9-3.3-6.5-4.9-11.3-4.9h-4.3c-13.6.1-27.6.2-41.4,0,0,0-.2,0-.3,0-3.7,0-7.1,1.3-9.5,3.7-2.4,2.4-3.7,5.9-3.6,9.6.3,9.9.3,20.6,0,32.7-.1,5.1,1.6,9.2,5.5,12.8,6.9,6.4,13.6,12.9,20,19.2,2.1,2,4.5,3,7.7,3h0c6.2,0,12.3,0,18.5,0,6.9,0,13.7,0,20.6,0,5.7,0,8.6-3,8.6-8.8,0-6,0-11.9,0-17.9v-7.8c0-2.4,0-4.9,0-7.3,0-5.9,0-12,0-17.9,0-3.5-1.1-6.4-3.7-8.9ZM81.7,35.2c0,1,0,2,0,3v7.3c0,5.8,0,11.6,0,17.4,0,5.3-1.4,6.7-6.8,6.8-5.4,0-10.9,0-16.3,0h-6.9s-22.1,0-22.1,0c-.3,0-.6,0-.8,0-.4,0-.9,0-1.4,0-3.8-.2-5-1.4-5.2-5,0-.4,0-.8,0-1.2v-.4c0-11.2,0-22.4,0-33.6,0-.9,0-1.7,0-2.5.2-2.4,1.6-3.9,4-4.1,1,0,1.9,0,2.8,0h.2c12.9,0,25.7,0,38.6,0h7c.5,0,1,0,1.5,0,3.7.2,5.3,1.9,5.4,5.6,0,2.3,0,4.7,0,6.9Z"/><polygon class="b" points="62.5 46.2 44.5 33.6 44.5 58.9 62.5 46.2"/></svg>