<?xml version="1.0" standalone="no"?>
<!DOCTYPE svg PUBLIC "-//W3C//DTD SVG 1.1//EN" "http://www.w3.org/Graphics/SVG/1.1/DTD/svg11.dtd" >
<svg xmlns="http://www.w3.org/2000/svg" xmlns:xlink="http://www.w3.org/1999/xlink" version="1.1">
<metadata>
Created by FontForge 20201107 at Sun Jul 13 20:54:25 2025
 By 
Copyright (c) 2025 Ivo Dolenc
</metadata>
<defs>
<font id="Aspekta-600" horiz-adv-x="1185" >
  <font-face 
    font-family="Aspekta 600"
    font-weight="600"
    font-stretch="normal"
    units-per-em="2048"
    panose-1="0 0 0 0 0 0 0 0 0 0"
    ascent="1638"
    descent="-410"
    x-height="1065"
    cap-height="1475"
    bbox="-174 -483 2603 1909"
    underline-thickness="102"
    underline-position="-317"
    unicode-range="U+0020-25CF"
  />
<missing-glyph horiz-adv-x="1388" 
d="M143 0v1475h1102v-1475h-1102z" />
    <glyph glyph-name=".notdef" horiz-adv-x="1388" 
d="M143 0v1475h1102v-1475h-1102z" />
    <glyph glyph-name=".null" horiz-adv-x="0" 
 />
    <glyph glyph-name="nonmarkingreturn" horiz-adv-x="682" 
 />
    <glyph glyph-name="space" unicode=" " horiz-adv-x="446" 
 />
    <glyph glyph-name="space" unicode="&#xa0;" horiz-adv-x="446" 
 />
    <glyph glyph-name="exclam" unicode="!" horiz-adv-x="448" 
d="M150 451l-64 573v451h276v-451l-63 -573h-149zM78 0v317h293v-317h-293z" />
    <glyph glyph-name="quotedbl" unicode="&#x22;" horiz-adv-x="950" 
d="M127 1475h272l-39 -619h-194zM551 1475h272l-39 -619h-194z" />
    <glyph glyph-name="numbersign" unicode="#" horiz-adv-x="1503" 
d="M760 0l71 373h-303l-71 -373h-240l72 373h-199l41 213h201l57 303h-196l40 213h199l72 373h239l-71 -373h303l72 373h239l-72 -373h199l-41 -213h-201l-57 -303h199l-41 -213h-201l-72 -373h-239zM571 586h303l58 303h-303z" />
    <glyph glyph-name="dollar" unicode="$" horiz-adv-x="1323" 
d="M586 -233v213q-243 22 -385 154.5t-148 361.5h273q8 -246 260 -287v432q-257 52 -375.5 154.5t-118.5 291.5q0 172 135 285t359 125v211h155v-213q239 -24 363.5 -153t132.5 -336h-266q-6 113 -62 177t-168 83v-400q156 -30 260.5 -70.5t164 -96.5t84 -121.5t24.5 -153.5
q0 -199 -146 -317t-387 -130v-210h-155zM375 1096q0 -73 42.5 -116.5t168.5 -78.5v371q-97 -11 -154 -57.5t-57 -118.5zM741 203q115 11 182.5 65t67.5 144q0 72 -51 115t-199 81v-405z" />
    <glyph glyph-name="percent" unicode="%" horiz-adv-x="1847" 
d="M406 614q-177 0 -269 122.5t-92 320.5t92 320t269 122q176 0 267 -122t91 -320t-91 -320.5t-267 -122.5zM406 782q153 0 153 275q0 274 -153 274q-156 0 -156 -274q0 -275 156 -275zM438 0l783 1475h190l-782 -1475h-191zM1444 -25q-177 0 -269 122.5t-92 320.5t92 320
t269 122q176 0 267 -122t91 -320t-91 -320.5t-267 -122.5zM1444 143q153 0 153 275q0 274 -153 274q-156 0 -156 -274q0 -275 156 -275z" />
    <glyph glyph-name="ampersand" unicode="&#x26;" horiz-adv-x="1435" 
d="M578 -25q-244 0 -382.5 119t-138.5 307q0 79 25 145t72.5 117t98.5 88t120 74q-82 90 -118 159t-36 167q0 161 115.5 254.5t294.5 93.5q180 0 294.5 -93t114.5 -255q0 -57 -16.5 -107t-42.5 -87.5t-67 -73.5t-80.5 -61.5t-92.5 -53.5l281 -311q69 132 72 288h231
q-6 -269 -143 -464l256 -281h-316l-102 113q-190 -138 -440 -138zM328 408q0 -90 68 -150.5t190 -60.5q153 0 280 84l-340 376q-96 -53 -147 -111t-51 -138zM477 1143q0 -55 26 -100t87 -113q101 49 154 98t53 115q0 68 -45 107.5t-115 39.5t-115 -39.5t-45 -107.5z" />
    <glyph glyph-name="quotesingle" unicode="'" horiz-adv-x="526" 
d="M127 1475h272l-39 -619h-194z" />
    <glyph glyph-name="parenleft" unicode="(" horiz-adv-x="643" 
d="M315 -410q-146 268 -219 515t-73 509t73 509t219 515h238q-142 -271 -206 -513t-64 -511t64 -511t206 -513h-238z" />
    <glyph glyph-name="parenright" unicode=")" horiz-adv-x="641" 
d="M14 -410q143 272 207 514t64 510t-64 510t-207 514h238q146 -268 219.5 -515t73.5 -509t-73.5 -509t-219.5 -515h-238z" />
    <glyph glyph-name="asterisk" unicode="*" horiz-adv-x="966" 
d="M678 653l-193 258l-194 -258l-144 109l187 248l-273 82l54 174l278 -86v295h180v-295l281 86l51 -174l-270 -82l186 -248z" />
    <glyph glyph-name="plus" unicode="+" horiz-adv-x="1105" 
d="M74 625v223h366v369h224v-369h368v-223h-368v-367h-224v367h-366z" />
    <glyph glyph-name="comma" unicode="," horiz-adv-x="534" 
d="M162 317h289l-207 -618h-207z" />
    <glyph glyph-name="hyphen" unicode="-" horiz-adv-x="768" 
d="M74 483v222h620v-222h-620z" />
    <glyph glyph-name="period" unicode="." horiz-adv-x="462" 
d="M86 0v317h293v-317h-293z" />
    <glyph glyph-name="slash" unicode="/" horiz-adv-x="819" 
d="M16 0l537 1475h250l-537 -1475h-250z" />
    <glyph glyph-name="zero" unicode="0" horiz-adv-x="1304" 
d="M653 -25q-122 0 -217.5 37t-160.5 103.5t-107 162.5t-61 209.5t-19 249.5t19 249.5t61 209.5t107 162.5t160.5 103.5t217.5 37q121 0 216.5 -37t160 -103.5t107 -162.5t61.5 -209.5t19 -249.5t-19 -249.5t-61.5 -209.5t-107 -162.5t-160 -103.5t-216.5 -37zM653 209
q78 0 133 36.5t86 108t44.5 164.5t13.5 219t-13.5 219.5t-44.5 165t-86 108t-133 36.5q-79 0 -134 -36.5t-86 -108t-44.5 -165t-13.5 -219.5t13.5 -219t44.5 -164.5t86 -108t134 -36.5z" />
    <glyph glyph-name="one" unicode="1" horiz-adv-x="792" 
d="M391 0v1176l-313 -224v287l332 236h258v-1475h-277z" />
    <glyph glyph-name="two" unicode="2" horiz-adv-x="1193" 
d="M84 0v223l588 537q164 153 164 305q0 92 -63 146.5t-169 54.5q-118 0 -186.5 -69t-67.5 -202h-266q0 239 136 371.5t384 132.5q223 0 361.5 -119.5t138.5 -302.5q0 -238 -256 -471l-406 -373h678v-233h-1036z" />
    <glyph glyph-name="three" unicode="3" horiz-adv-x="1226" 
d="M627 -25q-262 0 -400 124.5t-141 355.5h266q9 -254 271 -254q121 0 192.5 62t71.5 167q0 120 -77 168.5t-228 48.5h-121v209h98q140 0 214.5 55.5t74.5 161.5q0 94 -65 147.5t-171 53.5q-237 0 -243 -246h-267q6 226 134.5 348.5t381.5 122.5q117 0 213 -33t158 -89.5
t95.5 -129.5t33.5 -155q0 -63 -20.5 -121.5t-70.5 -114t-124 -88.5q126 -43 190 -134t64 -214q0 -196 -141.5 -320.5t-388.5 -124.5z" />
    <glyph glyph-name="four" unicode="4" horiz-adv-x="1314" 
d="M66 309v256l696 910h299v-930h201v-236h-201v-309h-275v309h-720zM317 545h474v631z" />
    <glyph glyph-name="five" unicode="5" horiz-adv-x="1189" 
d="M598 -25q-222 0 -358.5 119t-157.5 318h264q11 -96 78 -153.5t174 -57.5q120 0 190 78t70 204q0 128 -70 205.5t-190 77.5q-89 0 -145.5 -38.5t-92.5 -109.5h-254l125 857h826v-234h-613l-51 -346q104 78 248 78q120 0 214.5 -39.5t152.5 -107.5t88 -155.5t30 -187.5
q0 -226 -145.5 -367t-382.5 -141z" />
    <glyph glyph-name="six" unicode="6" horiz-adv-x="1245" 
d="M643 -25q-181 0 -321 105q-234 179 -234 637q0 371 144 576.5t411 205.5q193 0 327.5 -111.5t164.5 -304.5h-258q-20 96 -82 147.5t-150 51.5q-140 0 -217.5 -117.5t-83.5 -351.5q123 156 332 156q120 0 214.5 -39t153 -107t89 -155t30.5 -187q0 -227 -141 -366.5
t-379 -139.5zM643 199q120 0 188 77t68 201q0 125 -68 203t-188 78q-119 0 -186.5 -78t-67.5 -203q0 -124 67.5 -201t186.5 -77z" />
    <glyph glyph-name="seven" unicode="7" horiz-adv-x="1062" 
d="M203 0l547 1241h-713v234h989v-218l-541 -1257h-282z" />
    <glyph glyph-name="eight" unicode="8" horiz-adv-x="1220" 
d="M612 -25q-246 0 -397.5 124t-151.5 325q0 126 63.5 216.5t178.5 141.5q-87 49 -135.5 128t-48.5 184q0 187 139 296t352 109q138 0 248.5 -47t176 -140t65.5 -218q0 -105 -48.5 -184t-135.5 -128q115 -51 178 -141.5t63 -216.5q0 -201 -151 -325t-396 -124zM612 199
q128 0 201.5 65.5t73.5 175.5q0 111 -74 177.5t-201 66.5t-201.5 -66.5t-74.5 -177.5q0 -110 73.5 -175.5t202.5 -65.5zM612 872q105 0 170.5 56.5t65.5 150.5t-66 151.5t-170 57.5q-105 0 -171 -57.5t-66 -151.5q0 -95 65 -151t172 -56z" />
    <glyph glyph-name="nine" unicode="9" horiz-adv-x="1245" 
d="M602 1499q183 0 322 -104q233 -178 233 -637q0 -371 -144 -577t-411 -206q-193 0 -327 111.5t-164 304.5h258q20 -96 81.5 -147t149.5 -51q140 0 217.5 117.5t83.5 351.5q-123 -156 -332 -156q-120 0 -214.5 39t-153 106.5t-89 154.5t-30.5 187q0 227 141 366.5
t379 139.5zM602 1276q-120 0 -188 -77t-68 -202t68 -202.5t188 -77.5q119 0 186.5 77.5t67.5 202.5q0 124 -67.5 201.5t-186.5 77.5z" />
    <glyph glyph-name="colon" unicode=":" horiz-adv-x="462" 
d="M86 707v317h293v-317h-293zM86 0v317h293v-317h-293z" />
    <glyph glyph-name="semicolon" unicode=";" horiz-adv-x="538" 
d="M160 707v317h293v-317h-293zM162 317h289l-207 -618h-207z" />
    <glyph glyph-name="less" unicode="&#x3c;" horiz-adv-x="1105" 
d="M74 866l958 389v-260l-706 -258l706 -258v-260l-958 389v258z" />
    <glyph glyph-name="equal" unicode="=" horiz-adv-x="1105" 
d="M74 823v224h958v-224h-958zM74 428v223h958v-223h-958z" />
    <glyph glyph-name="greater" unicode="&#x3e;" horiz-adv-x="1105" 
d="M1032 608l-958 -389v260l706 258l-706 258v260l958 -389v-258z" />
    <glyph glyph-name="question" unicode="?" horiz-adv-x="1110" 
d="M401 451q0 107 22 176t66 120t134 119q87 61 124 111t37 127q0 74 -60 122t-171 48q-117 0 -179.5 -64.5t-62.5 -187.5h-262q0 231 130 354t374 123q236 0 372 -105t136 -278q0 -123 -47.5 -201t-167.5 -163q-60 -43 -91.5 -70t-58.5 -62.5t-37 -74.5t-10 -94h-248z
M381 0v317h293v-317h-293z" />
    <glyph glyph-name="at" unicode="@" horiz-adv-x="1888" 
d="M952 -238q-259 0 -461 111t-313.5 309t-111.5 449q0 188 65 349.5t181 275.5t281 178.5t359 64.5q260 0 457.5 -101t305.5 -287.5t108 -430.5q0 -233 -114.5 -376.5t-313.5 -143.5q-189 0 -248 137q-105 -137 -293 -137q-145 0 -233.5 71t-88.5 199q0 116 83 181.5
t253 95.5l250 45v47q0 58 -35.5 86t-117.5 28q-75 0 -125.5 -33.5t-51.5 -101.5h-221q0 79 32.5 140t88.5 98t126 55.5t151 18.5q183 0 277.5 -71.5t94.5 -197.5v-334q0 -76 27.5 -105.5t87.5 -29.5q84 0 126 91.5t42 236.5q0 204 -85 348.5t-234.5 215.5t-348.5 71
q-197 0 -350.5 -80.5t-242.5 -237t-89 -366.5t88.5 -367.5t242.5 -240t351 -82.5q243 0 437 122v-194q-199 -107 -437 -107zM901 330q92 0 154.5 48.5t62.5 147.5v68l-207 -41q-83 -17 -118 -40.5t-35 -76.5q0 -49 35.5 -77.5t107.5 -28.5z" />
    <glyph glyph-name="A" unicode="A" horiz-adv-x="1505" 
d="M1192 0l-123 336h-641l-123 -336h-285l570 1475h319l576 -1475h-293zM514 571h469l-233 646z" />
    <glyph glyph-name="B" unicode="B" horiz-adv-x="1366" 
d="M127 0v1475h590q263 0 400.5 -106t137.5 -288q0 -206 -178 -305q118 -50 179 -140.5t61 -209.5q0 -202 -137 -314t-402 -112h-651zM401 231h377q256 0 256 203q0 205 -256 205h-377v-408zM401 862h324q129 0 193.5 50t64.5 141t-64.5 140.5t-193.5 49.5h-324v-381z" />
    <glyph glyph-name="C" unicode="C" horiz-adv-x="1515" 
d="M795 -25q-140 0 -259 39.5t-205 109.5t-146 166t-89.5 209t-29.5 238t29.5 238t89.5 209t146 166t205 109.5t259 39.5q264 0 437.5 -151t211.5 -390h-279q-28 134 -126 214.5t-244 80.5q-112 0 -199 -41t-139 -113t-78.5 -163.5t-26.5 -198.5t26.5 -198.5t78.5 -163.5
t139 -113t199 -41q155 0 254 92t125 242h276q-15 -124 -66 -230t-133.5 -184t-199.5 -122t-256 -44z" />
    <glyph glyph-name="D" unicode="D" horiz-adv-x="1478" 
d="M127 0v1475h545q149 0 271 -37t208.5 -103.5t146 -159t87.5 -202.5t28 -236q0 -158 -45.5 -290.5t-134.5 -233t-232.5 -157t-328.5 -56.5h-545zM401 240h271q117 0 206 38t142.5 106.5t79.5 157t26 195.5t-26 196t-79.5 157.5t-142.5 106.5t-206 38h-271v-995z" />
    <glyph glyph-name="E" unicode="E" horiz-adv-x="1265" 
d="M127 0v1475h1081v-248h-807v-350h748v-238h-748v-391h803v-248h-1077z" />
    <glyph glyph-name="F" unicode="F" horiz-adv-x="1204" 
d="M127 0v1475h1040v-248h-766v-350h727v-238h-727v-639h-274z" />
    <glyph glyph-name="G" unicode="G" horiz-adv-x="1599" 
d="M762 -25q-131 0 -243.5 39.5t-194.5 109.5t-141 165.5t-88 209.5t-29 238q0 125 29.5 238t89.5 209t146 166t205 109.5t259 39.5q188 0 335.5 -69.5t234 -187.5t112.5 -271h-283q-32 128 -136.5 206t-262.5 78q-112 0 -199 -41.5t-139 -113.5t-78.5 -164t-26.5 -199
t26.5 -199t78.5 -164t139 -113.5t199 -41.5q169 0 273 91.5t144 256.5h-479v226h760v-793h-207v258q-151 -283 -524 -283z" />
    <glyph glyph-name="H" unicode="H" horiz-adv-x="1488" 
d="M1087 0v631h-686v-631h-274v1475h274v-594h686v594h277v-1475h-277z" />
    <glyph glyph-name="I" unicode="I" horiz-adv-x="528" 
d="M127 0v1475h274v-1475h-274z" />
    <glyph glyph-name="J" unicode="J" horiz-adv-x="1146" 
d="M545 -25q-237 0 -362.5 134t-125.5 364v82h267v-82q0 -127 53 -192.5t168 -65.5t168 65.5t53 192.5v1002h274v-1002q0 -229 -128.5 -363.5t-366.5 -134.5z" />
    <glyph glyph-name="K" unicode="K" horiz-adv-x="1462" 
d="M127 0v1475h274v-721l695 721h346l-594 -598l594 -877h-330l-455 684l-256 -258v-426h-274z" />
    <glyph glyph-name="L" unicode="L" horiz-adv-x="1144" 
d="M127 0v1475h274v-1227h707v-248h-981z" />
    <glyph glyph-name="M" unicode="M" horiz-adv-x="1816" 
d="M791 0l-400 1114v-1114h-264v1475h395l387 -1145l385 1145h398v-1475h-267v1114l-399 -1114h-235z" />
    <glyph glyph-name="N" unicode="N" horiz-adv-x="1501" 
d="M1069 0l-676 1098v-1098h-266v1475h307l674 -1098v1098h268v-1475h-307z" />
    <glyph glyph-name="O" unicode="O" horiz-adv-x="1589" 
d="M795 -25q-140 0 -259 39.5t-205 109.5t-146 166t-89.5 209t-29.5 238t29.5 238t89.5 209t146 166t205 109.5t259 39.5t258.5 -39.5t204.5 -109.5t146.5 -166t90 -209t29.5 -238t-29.5 -238t-90 -209t-146.5 -166t-204.5 -109.5t-258.5 -39.5zM795 221q112 0 198.5 41
t139 113t78.5 163.5t26 198.5t-26 198.5t-78.5 163.5t-139 113t-198.5 41t-199 -41t-139 -113t-78.5 -163.5t-26.5 -198.5t26.5 -198.5t78.5 -163.5t139 -113t199 -41z" />
    <glyph glyph-name="P" unicode="P" horiz-adv-x="1347" 
d="M127 0v1475h621q131 0 234.5 -36.5t169 -101.5t100 -151.5t34.5 -188.5t-34.5 -187.5t-100 -150t-169 -101t-234.5 -36.5h-347v-522h-274zM401 762h332q137 0 206 61t69 174t-69 175.5t-206 62.5h-332v-473z" />
    <glyph glyph-name="Q" unicode="Q" horiz-adv-x="1589" 
d="M1159 -164l-119 174q-113 -35 -245 -35q-140 0 -259 39.5t-205 109.5t-146 166t-89.5 209t-29.5 238t29.5 238t89.5 209t146 166t205 109.5t259 39.5t258.5 -39.5t204.5 -109.5t146.5 -166t90 -209t29.5 -238q0 -197 -74.5 -362.5t-214.5 -268.5l186 -270h-262zM795 221
q55 0 94 8l-197 287h262l131 -192q76 70 114 177.5t38 235.5q0 107 -26 198.5t-78.5 163.5t-139 113t-198.5 41t-199 -41t-139 -113t-78.5 -163.5t-26.5 -198.5t26.5 -198.5t78.5 -163.5t139 -113t199 -41z" />
    <glyph glyph-name="R" unicode="R" horiz-adv-x="1380" 
d="M127 0v1475h657q260 0 391.5 -117t131.5 -318q0 -109 -60 -200.5t-170 -153.5q87 -38 132 -105t61 -163l61 -418h-282l-50 354q-17 120 -76 175t-173 55h-349v-584h-274zM401 805h349q272 0 272 219q0 221 -272 221h-349v-440z" />
    <glyph glyph-name="S" unicode="S" horiz-adv-x="1323" 
d="M682 -25q-284 0 -453.5 134.5t-175.5 386.5h273q10 -295 364 -295q136 0 218.5 55.5t82.5 155.5q0 56 -27 91.5t-108.5 68.5t-234.5 63q-276 51 -402.5 154t-126.5 298q0 184 150.5 298t396.5 114q289 0 439.5 -132t158.5 -361h-266q-8 136 -88.5 202t-243.5 66
q-120 0 -192 -48t-72 -130q0 -44 12 -73.5t48.5 -58t105.5 -51t180 -43.5q162 -30 270 -70.5t170 -97t87.5 -122.5t25.5 -156q0 -211 -163.5 -330t-428.5 -119z" />
    <glyph glyph-name="T" unicode="T" horiz-adv-x="1288" 
d="M504 0v1227h-471v248h1222v-248h-473v-1227h-278z" />
    <glyph glyph-name="U" unicode="U" horiz-adv-x="1431" 
d="M717 -25q-282 0 -446.5 151.5t-164.5 432.5v916h275v-916q0 -172 86.5 -257t249.5 -85q161 0 247.5 85t86.5 257v916h276v-916q0 -281 -164 -432.5t-446 -151.5z" />
    <glyph glyph-name="V" unicode="V" horiz-adv-x="1454" 
d="M569 0l-549 1475h293l418 -1219l410 1219h293l-547 -1475h-318z" />
    <glyph glyph-name="W" unicode="W" horiz-adv-x="2045" 
d="M1296 0l-274 1126l-274 -1126h-308l-420 1475h291l293 -1135l277 1135h284l277 -1135l293 1135h290l-419 -1475h-310z" />
    <glyph glyph-name="X" unicode="X" horiz-adv-x="1382" 
d="M1042 0l-356 524l-356 -524h-310l512 752l-491 723h319l332 -488l330 488h311l-487 -715l516 -760h-320z" />
    <glyph glyph-name="Y" unicode="Y" horiz-adv-x="1449" 
d="M592 0v575l-572 900h316l395 -650l393 650h306l-564 -897v-578h-274z" />
    <glyph glyph-name="Z" unicode="Z" horiz-adv-x="1302" 
d="M57 0v227l826 1006l-357 -6h-438v248h1147v-222l-832 -1011l363 6h479v-248h-1188z" />
    <glyph glyph-name="bracketleft" unicode="[" horiz-adv-x="735" 
d="M45 -410v2048h565v-219h-315v-1609h315v-220h-565z" />
    <glyph glyph-name="backslash" unicode="\" horiz-adv-x="819" 
d="M803 0h-250l-537 1475h250z" />
    <glyph glyph-name="bracketright" unicode="]" horiz-adv-x="727" 
d="M37 -410v220h315v1609h-315v219h565v-2048h-565z" />
    <glyph glyph-name="underscore" unicode="_" horiz-adv-x="1056" 
d="M-4 -369v199h1065v-199h-1065z" />
    <glyph glyph-name="grave" unicode="`" horiz-adv-x="497" 
d="M498 1200h-211l-287 299h299z" />
    <glyph glyph-name="a" unicode="a" horiz-adv-x="1105" 
d="M780 0v123q-123 -148 -338 -148q-177 0 -283 85t-106 237q0 139 99.5 216.5t310.5 113.5l309 55v61q0 148 -194 148q-94 0 -156 -41.5t-66 -124.5h-254q1 92 39 163.5t103.5 114.5t149 65t181.5 22q222 0 335.5 -84t113.5 -234v-772h-244zM500 166q112 0 192 62.5
t80 185.5v94l-262 -53q-101 -21 -147 -52t-46 -98q0 -65 46 -102t137 -37z" />
    <glyph glyph-name="b" unicode="b" horiz-adv-x="1239" 
d="M111 0v1475h258v-543q116 158 327 158q150 0 260 -74t164 -199t54 -285t-54 -285t-163.5 -198.5t-260.5 -73.5q-221 0 -338 172v-147h-247zM637 190q137 0 205.5 91.5t68.5 250.5t-68.5 250.5t-205.5 91.5q-135 0 -203.5 -91.5t-68.5 -250.5t68.5 -250.5t203.5 -91.5z
" />
    <glyph glyph-name="c" unicode="c" horiz-adv-x="1134" 
d="M592 -25q-239 0 -380.5 157t-141.5 400t141.5 400.5t380.5 157.5q214 0 340.5 -110t152.5 -296h-258q-19 90 -80 140t-155 50q-127 0 -193.5 -92t-66.5 -250t66.5 -250t193.5 -92q97 0 157.5 53t77.5 150h258q-24 -189 -153.5 -303.5t-339.5 -114.5z" />
    <glyph glyph-name="d" unicode="d" horiz-adv-x="1239" 
d="M1128 0h-247v147q-117 -172 -338 -172q-150 0 -259.5 73.5t-163.5 198.5t-54 285t54 285t163.5 199t259.5 74q211 0 327 -158v543h258v-1475zM602 190q135 0 203.5 91.5t68.5 250.5t-68.5 250.5t-203.5 91.5q-137 0 -205.5 -91.5t-68.5 -250.5t68.5 -250.5t205.5 -91.5z
" />
    <glyph glyph-name="e" unicode="e" horiz-adv-x="1181" 
d="M592 -25q-161 0 -281.5 73.5t-182.5 199t-62 284.5t62 285t182.5 199.5t281.5 73.5q245 0 385.5 -157.5t140.5 -420.5v-61h-796q18 -127 87.5 -200t182.5 -73q183 0 254 148h252q-54 -162 -186.5 -256.5t-319.5 -94.5zM324 635h534q-21 119 -89 185.5t-177 66.5
q-108 0 -177 -66.5t-91 -185.5z" />
    <glyph glyph-name="f" unicode="f" horiz-adv-x="798" 
d="M219 1202q0 153 74.5 213t220.5 60h231v-199h-167q-56 0 -79.5 -23.5t-23.5 -76.5v-111h270v-199h-270v-866h-256v866h-186v199h186v137z" />
    <glyph glyph-name="g" unicode="g" horiz-adv-x="1239" 
d="M590 -434q-221 0 -345 98.5t-136 272.5h251q22 -170 238 -170q272 0 272 262v127q-116 -154 -327 -154q-225 0 -351 152t-126 393q0 156 54 277.5t163.5 193.5t259.5 72q220 0 336 -164v139h249v-1036q0 -116 -41.5 -206t-115 -145.5t-170 -83.5t-211.5 -28zM602 213
q136 0 204 89t68 245q0 155 -68.5 244.5t-203.5 89.5q-137 0 -205.5 -89.5t-68.5 -244.5q0 -156 68.5 -245t205.5 -89z" />
    <glyph glyph-name="h" unicode="h" 
d="M111 0v1475h258v-545q129 160 327 160q181 0 280 -113.5t99 -304.5v-672h-256v641q0 103 -50 163t-155 60q-37 0 -73.5 -11t-74.5 -36t-64.5 -73.5t-32.5 -114.5v-629h-258z" />
    <glyph glyph-name="i" unicode="i" horiz-adv-x="473" 
d="M109 0v1065h256v-1065h-256zM109 1235v240h258v-240h-258z" />
    <glyph glyph-name="j" unicode="j" horiz-adv-x="487" 
d="M381 -137q0 -153 -74.5 -213t-220.5 -60h-205v199h139q57 0 80 23t23 77v1176h258v-1202zM123 1235v240h258v-240h-258z" />
    <glyph glyph-name="k" unicode="k" horiz-adv-x="1140" 
d="M111 0v1475h258v-854l428 444h309l-404 -408l433 -657h-301l-310 477l-155 -158v-319h-258z" />
    <glyph glyph-name="l" unicode="l" horiz-adv-x="663" 
d="M111 1475h258v-1176q0 -54 22.5 -77t79.5 -23h139v-199h-204q-146 0 -220.5 60t-74.5 212v1203z" />
    <glyph glyph-name="m" unicode="m" horiz-adv-x="1810" 
d="M1444 641q0 101 -46 162t-136 61q-39 0 -76 -13t-72.5 -42.5t-57.5 -86.5t-22 -136v-586h-258v641q0 101 -46 162t-136 61q-38 0 -74.5 -13t-72 -42.5t-57 -87t-21.5 -135.5v-586h-258v1065h249v-147q111 172 316 172q111 0 192 -53t123 -148q58 91 147 146t205 55
q166 0 261.5 -114t95.5 -304v-672h-256v641z" />
    <glyph glyph-name="n" unicode="n" 
d="M819 641q0 103 -50 163t-155 60q-37 0 -73.5 -11t-74.5 -36t-64.5 -73.5t-32.5 -114.5v-629h-258v1065h249v-145q128 170 336 170q181 0 280 -113.5t99 -304.5v-672h-256v641z" />
    <glyph glyph-name="o" unicode="o" horiz-adv-x="1208" 
d="M604 -25q-126 0 -228 42.5t-169.5 117t-104 176.5t-36.5 221q0 160 62 285t185.5 199t290.5 74t290.5 -73.5t186 -199t62.5 -285.5q0 -244 -144.5 -400.5t-394.5 -156.5zM604 190q138 0 207.5 91.5t69.5 250.5t-69.5 250.5t-207.5 91.5t-207 -91t-69 -251t69 -251
t207 -91z" />
    <glyph glyph-name="p" unicode="p" horiz-adv-x="1239" 
d="M111 1065h247v-147q117 172 338 172q150 0 260 -74t164 -199t54 -285t-54 -285t-163.5 -198.5t-260.5 -73.5q-211 0 -327 158v-543h-258v1475zM637 874q-135 0 -203.5 -91.5t-68.5 -250.5t68.5 -250.5t203.5 -91.5q137 0 205.5 91.5t68.5 250.5t-68.5 250.5t-205.5 91.5z
" />
    <glyph glyph-name="q" unicode="q" horiz-adv-x="1239" 
d="M1128 1065v-1475h-258v543q-116 -158 -327 -158q-150 0 -259.5 73.5t-163.5 198.5t-54 285t54 285t163.5 199t259.5 74q221 0 338 -172v147h247zM602 874q-137 0 -205.5 -91.5t-68.5 -250.5t68.5 -250.5t205.5 -91.5q135 0 203.5 91.5t68.5 250.5t-68.5 250.5
t-203.5 91.5z" />
    <glyph glyph-name="r" unicode="r" horiz-adv-x="817" 
d="M111 0v1065h249v-191q97 203 322 203h84v-237h-94q-146 0 -224.5 -74t-78.5 -250v-516h-258z" />
    <glyph glyph-name="s" unicode="s" horiz-adv-x="1036" 
d="M526 -25q-465 0 -487 375h250q12 -103 72.5 -145.5t173.5 -42.5q94 0 150 33t56 92q0 41 -16.5 64.5t-70.5 44t-162 38.5q-164 28 -259.5 74.5t-132.5 108.5t-37 153q0 149 120.5 234.5t320.5 85.5q225 0 344.5 -96.5t122.5 -266.5h-240q-7 176 -227 176
q-83 0 -136 -32.5t-53 -90.5q0 -59 52.5 -88t210.5 -55q161 -26 254 -71.5t129 -107.5t36 -155q0 -156 -130 -242t-341 -86z" />
    <glyph glyph-name="t" unicode="t" horiz-adv-x="798" 
d="M219 1393h256v-328h270v-199h-270v-567q0 -53 23.5 -76.5t79.5 -23.5h167v-199h-231q-146 0 -220.5 60t-74.5 212v594h-186v199h186v328z" />
    <glyph glyph-name="u" unicode="u" 
d="M367 424q0 -103 49.5 -163t154.5 -60q37 0 74 11t74.5 36t64.5 73.5t33 114.5v629h258v-1065h-250v145q-128 -170 -336 -170q-181 0 -279.5 113t-98.5 305v672h256v-641z" />
    <glyph glyph-name="v" unicode="v" horiz-adv-x="1124" 
d="M418 0l-406 1065h277l276 -823l271 823h278l-405 -1065h-291z" />
    <glyph glyph-name="w" unicode="w" horiz-adv-x="1734" 
d="M1083 0l-215 750l-217 -750h-266l-373 1065h277l239 -762l215 762h248l215 -762l240 762h276l-372 -1065h-267z" />
    <glyph glyph-name="x" unicode="x" horiz-adv-x="1087" 
d="M784 0l-241 342l-244 -342h-291l389 545l-370 520h295l223 -311l221 311h291l-367 -516l389 -549h-295z" />
    <glyph glyph-name="y" unicode="y" horiz-adv-x="1099" 
d="M61 -410v211h168q75 0 105.5 26t56.5 101l25 62l-404 1075h277l262 -811l260 811h279l-439 -1186q-25 -69 -51.5 -117t-65.5 -89.5t-95 -62t-130 -20.5h-248z" />
    <glyph glyph-name="z" unicode="z" horiz-adv-x="1056" 
d="M78 0v176l563 684h-551v205h868v-176l-565 -684h586v-205h-901z" />
    <glyph glyph-name="braceleft" unicode="{" horiz-adv-x="851" 
d="M528 -410q-144 0 -229.5 70t-85.5 223v492q0 69 -38.5 100t-137.5 31v217q99 0 137.5 31t38.5 100v492q0 153 85.5 222.5t229.5 69.5h250v-215h-196q-57 0 -90 -33t-33 -87v-492q0 -90 -43 -136.5t-125 -60.5q82 -14 125 -60t43 -136v-492q0 -54 33 -87.5t90 -33.5h196
v-215h-250z" />
    <glyph glyph-name="bar" unicode="|" horiz-adv-x="475" 
d="M127 -451v2110h221v-2110h-221z" />
    <glyph glyph-name="braceright" unicode="}" horiz-adv-x="851" 
d="M37 -410v215h196q57 0 90 33.5t33 87.5v492q0 90 43 136t125 60q-82 14 -125 60.5t-43 136.5v492q0 54 -33 87t-90 33h-196v215h250q144 0 229.5 -69.5t85.5 -222.5v-492q0 -69 38.5 -100t137.5 -31v-217q-99 0 -137.5 -31t-38.5 -100v-492q0 -153 -85.5 -223t-229.5 -70
h-250z" />
    <glyph glyph-name="exclamdown" unicode="&#xa1;" horiz-adv-x="448" 
d="M150 614h149l63 -573v-451h-276v451zM78 1065h293v-317h-293v317z" />
    <glyph glyph-name="cent" unicode="&#xa2;" horiz-adv-x="1134" 
d="M512 -233v213q-206 27 -324 178.5t-118 373.5t118 374t324 179v213h156v-213q180 -20 286.5 -126t130.5 -275h-258q-28 144 -159 180v-663q131 38 159 192h258q-22 -171 -130.5 -281.5t-286.5 -131.5v-213h-156zM332 532q0 -130 45.5 -217t134.5 -114v663
q-89 -27 -134.5 -114t-45.5 -218z" />
    <glyph glyph-name="sterling" unicode="&#xa3;" horiz-adv-x="1216" 
d="M78 223q146 76 192 168t15 207h-236v156h174q-31 63 -47 99.5t-30.5 98t-14.5 125.5q0 183 138.5 302.5t361.5 119.5q248 0 384 -132.5t136 -371.5h-266q1 133 -67.5 202t-186.5 69q-106 0 -169 -54t-63 -147q0 -28 5 -58t10 -50.5t19.5 -55t20 -47t25.5 -53t23 -47.5
h452v-156h-397q15 -100 -20.5 -195t-116.5 -170h747v-233h-1089v223z" />
    <glyph glyph-name="yen" unicode="&#xa5;" horiz-adv-x="1449" 
d="M250 549v156h260l-490 770h316l395 -650l393 650h306l-484 -770h256v-156h-336v-150h336v-155h-336v-244h-274v244h-342v155h342v150h-342z" />
    <glyph glyph-name="dieresis" unicode="&#xa8;" horiz-adv-x="665" 
d="M0 1235v240h258v-240h-258zM410 1235v240h258v-240h-258z" />
    <glyph glyph-name="copyright" unicode="&#xa9;" horiz-adv-x="1697" 
d="M860 313q-181 0 -288 119t-107 305t107 305t288 119q161 0 258 -85t115 -226h-197q-12 67 -58.5 106t-117.5 39q-96 0 -146 -69.5t-50 -188.5t50 -188.5t146 -69.5q73 0 119 41t57 113h197q-18 -143 -116.5 -231.5t-256.5 -88.5zM850 -25q-165 0 -309 57t-247.5 156.5
t-163.5 242t-60 306.5t60 306.5t163.5 242t247.5 156.5t309 57t309 -57t247.5 -156.5t163.5 -242t60 -306.5t-60 -306.5t-163.5 -242t-247.5 -156.5t-309 -57zM850 160q258 0 420 158t162 419t-162 419.5t-420 158.5t-420 -158.5t-162 -419.5t162 -419t420 -158z" />
    <glyph glyph-name="registered" unicode="&#xae;" horiz-adv-x="1697" 
d="M530 336v803h373q144 0 216.5 -65.5t72.5 -174.5q0 -121 -123 -197q91 -41 107 -153l30 -213h-182l-27 184q-7 61 -37.5 90t-87.5 29h-161v-303h-181zM850 -25q-165 0 -309 57t-247.5 156.5t-163.5 242t-60 306.5t60 306.5t163.5 242t247.5 156.5t309 57t309 -57
t247.5 -156.5t163.5 -242t60 -306.5t-60 -306.5t-163.5 -242t-247.5 -156.5t-309 -57zM850 160q258 0 420 158t162 419t-162 419.5t-420 158.5t-420 -158.5t-162 -419.5t162 -419t420 -158zM711 778h163q68 0 101 26.5t33 82.5q0 106 -134 106h-163v-215z" />
    <glyph glyph-name="degree" unicode="&#xb0;" horiz-adv-x="727" 
d="M362 924q-125 0 -213 83t-88 205q0 121 88 204t213 83q127 0 215.5 -83t88.5 -204q0 -122 -88.5 -205t-215.5 -83zM362 1085q54 0 90.5 36t36.5 91q0 54 -36.5 89.5t-90.5 35.5t-89 -35.5t-35 -89.5q0 -55 35 -91t89 -36z" />
    <glyph glyph-name="acute" unicode="&#xb4;" horiz-adv-x="497" 
d="M0 1200l199 299h299l-287 -299h-211z" />
    <glyph glyph-name="periodcentered" unicode="&#xb7;" horiz-adv-x="462" 
d="M86 578v317h293v-317h-293z" />
    <glyph glyph-name="cedilla" unicode="&#xb8;" horiz-adv-x="446" 
d="M156 -459q-84 0 -156 17v112q68 -12 115 -12q143 0 143 84q0 76 -123 76q-43 0 -63 -4v84l86 114h151l-98 -104h16q103 0 165.5 -45t62.5 -121q0 -85 -75.5 -143t-223.5 -58z" />
    <glyph glyph-name="questiondown" unicode="&#xbf;" horiz-adv-x="1110" 
d="M709 614q0 -107 -22 -176t-66 -120t-134 -119q-87 -61 -124 -111t-37 -127q0 -74 60 -122t171 -48q117 0 179.5 64.5t62.5 187.5h262q0 -231 -130 -354t-374 -123q-236 0 -372 105t-136 278q0 123 47.5 201t167.5 163q60 43 91.5 70t58.5 62.5t37 74.5t10 94h248z
M731 1065v-317h-293v317h293z" />
    <glyph glyph-name="Agrave" unicode="&#xc0;" horiz-adv-x="1505" 
d="M1192 0l-123 336h-641l-123 -336h-285l570 1475h319l576 -1475h-293zM854 1573h-211l-287 299h299zM514 571h469l-233 646z" />
    <glyph glyph-name="Aacute" unicode="&#xc1;" horiz-adv-x="1505" 
d="M1192 0l-123 336h-641l-123 -336h-285l570 1475h319l576 -1475h-293zM643 1573l199 299h299l-287 -299h-211zM514 571h469l-233 646z" />
    <glyph glyph-name="Acircumflex" unicode="&#xc2;" horiz-adv-x="1505" 
d="M1192 0l-123 336h-641l-123 -336h-285l570 1475h319l576 -1475h-293zM905 1872l256 -299h-235l-176 170l-177 -170h-235l256 299h311zM514 571h469l-233 646z" />
    <glyph glyph-name="Atilde" unicode="&#xc3;" horiz-adv-x="1505" 
d="M1192 0l-123 336h-641l-123 -336h-285l570 1475h319l576 -1475h-293zM375 1573q0 142 57.5 211t163.5 69q51 0 152 -45q8 -3 37.5 -17t52 -22t39.5 -8q34 0 49.5 21t15.5 71h178q0 -280 -219 -280q-11 0 -22.5 1t-24 4.5t-21.5 5.5t-23 8t-20 8t-22 9t-20 9
q-9 4 -37.5 17.5t-50.5 21.5t-39 8q-36 0 -52 -20.5t-16 -71.5h-178zM514 571h469l-233 646z" />
    <glyph glyph-name="Adieresis" unicode="&#xc4;" horiz-adv-x="1505" 
d="M1192 0l-123 336h-641l-123 -336h-285l570 1475h319l576 -1475h-293zM416 1573v239h258v-239h-258zM825 1573v239h258v-239h-258zM514 571h469l-233 646z" />
    <glyph glyph-name="Aring" unicode="&#xc5;" horiz-adv-x="1505" 
d="M1192 0l-123 336h-641l-123 -336h-285l535 1382q-100 84 -100 213q0 118 86 199.5t209 81.5t208.5 -81.5t85.5 -199.5q0 -129 -100 -213l541 -1382h-293zM750 1475q53 0 87.5 33.5t34.5 86.5q0 52 -34.5 86.5t-87.5 34.5q-54 0 -88.5 -34t-34.5 -87q0 -54 34.5 -87
t88.5 -33zM514 571h469l-233 646z" />
    <glyph glyph-name="AE" unicode="&#xc6;" horiz-adv-x="2170" 
d="M1108 0v354h-629l-174 -354h-285l754 1475h1340v-248h-736v-350h674v-238h-674v-391h729v-248h-999zM594 590h514v647h-197z" />
    <glyph glyph-name="Ccedilla" unicode="&#xc7;" horiz-adv-x="1515" 
d="M725 -483q-88 0 -156 16v113q73 -13 115 -13q143 0 143 84q0 76 -122 76q-44 0 -64 -4v84l80 104q-158 13 -284 78.5t-206 168.5t-122.5 234t-42.5 279q0 125 29.5 238t89.5 209t146 166t205 109.5t259 39.5q264 0 437.5 -151t211.5 -390h-279q-28 134 -126 214.5
t-244 80.5q-112 0 -199 -41t-139 -113t-78.5 -163.5t-26.5 -198.5t26.5 -198.5t78.5 -163.5t139 -113t199 -41q155 0 254 92t125 242h276q-29 -237 -182 -394.5t-398 -180.5l-90 -97h17q103 0 165 -45t62 -121q0 -85 -75.5 -142.5t-223.5 -57.5z" />
    <glyph glyph-name="Egrave" unicode="&#xc8;" horiz-adv-x="1265" 
d="M127 0v1475h1081v-248h-807v-350h748v-238h-748v-391h803v-248h-1077zM772 1573h-211l-287 299h299z" />
    <glyph glyph-name="Eacute" unicode="&#xc9;" horiz-adv-x="1265" 
d="M127 0v1475h1081v-248h-807v-350h748v-238h-748v-391h803v-248h-1077zM561 1573l199 299h299l-287 -299h-211z" />
    <glyph glyph-name="Ecircumflex" unicode="&#xca;" horiz-adv-x="1265" 
d="M127 0v1475h1081v-248h-807v-350h748v-238h-748v-391h803v-248h-1077zM823 1872l256 -299h-235l-176 170l-176 -170h-236l256 299h311z" />
    <glyph glyph-name="Edieresis" unicode="&#xcb;" horiz-adv-x="1265" 
d="M127 0v1475h1081v-248h-807v-350h748v-238h-748v-391h803v-248h-1077zM334 1573v239h258v-239h-258zM743 1573v239h258v-239h-258z" />
    <glyph glyph-name="Igrave" unicode="&#xcc;" horiz-adv-x="528" 
d="M127 0v1475h274v-1475h-274zM369 1573h-211l-287 299h299z" />
    <glyph glyph-name="Iacute" unicode="&#xcd;" horiz-adv-x="528" 
d="M127 0v1475h274v-1475h-274zM158 1573l198 299h299l-286 -299h-211z" />
    <glyph glyph-name="Icircumflex" unicode="&#xce;" horiz-adv-x="528" 
d="M127 0v1475h274v-1475h-274zM420 1872l256 -299h-236l-176 170l-176 -170h-235l256 299h311z" />
    <glyph glyph-name="Idieresis" unicode="&#xcf;" horiz-adv-x="528" 
d="M127 0v1475h274v-1475h-274zM-70 1573v239h258v-239h-258zM340 1573v239h258v-239h-258z" />
    <glyph glyph-name="Ntilde" unicode="&#xd1;" horiz-adv-x="1501" 
d="M1069 0l-676 1098v-1098h-266v1475h307l674 -1098v1098h268v-1475h-307zM377 1573q0 142 57.5 211t163.5 69q51 0 152 -45q8 -3 37.5 -17t52 -22t39.5 -8q34 0 49.5 21t15.5 71h178q0 -280 -219 -280q-11 0 -22.5 1t-24 4.5t-21.5 5.5t-23 8t-20 8t-22 9t-20 9
q-9 4 -37.5 17.5t-50.5 21.5t-39 8q-36 0 -52 -20.5t-16 -71.5h-178z" />
    <glyph glyph-name="Ograve" unicode="&#xd2;" horiz-adv-x="1589" 
d="M795 -25q-140 0 -259 39.5t-205 109.5t-146 166t-89.5 209t-29.5 238t29.5 238t89.5 209t146 166t205 109.5t259 39.5t258.5 -39.5t204.5 -109.5t146.5 -166t90 -209t29.5 -238t-29.5 -238t-90 -209t-146.5 -166t-204.5 -109.5t-258.5 -39.5zM795 221q112 0 198.5 41
t139 113t78.5 163.5t26 198.5t-26 198.5t-78.5 163.5t-139 113t-198.5 41t-199 -41t-139 -113t-78.5 -163.5t-26.5 -198.5t26.5 -198.5t78.5 -163.5t139 -113t199 -41zM899 1597h-211l-287 299h299z" />
    <glyph glyph-name="Oacute" unicode="&#xd3;" horiz-adv-x="1589" 
d="M795 -25q-140 0 -259 39.5t-205 109.5t-146 166t-89.5 209t-29.5 238t29.5 238t89.5 209t146 166t205 109.5t259 39.5t258.5 -39.5t204.5 -109.5t146.5 -166t90 -209t29.5 -238t-29.5 -238t-90 -209t-146.5 -166t-204.5 -109.5t-258.5 -39.5zM795 221q112 0 198.5 41
t139 113t78.5 163.5t26 198.5t-26 198.5t-78.5 163.5t-139 113t-198.5 41t-199 -41t-139 -113t-78.5 -163.5t-26.5 -198.5t26.5 -198.5t78.5 -163.5t139 -113t199 -41zM688 1597l199 299h299l-287 -299h-211z" />
    <glyph glyph-name="Ocircumflex" unicode="&#xd4;" horiz-adv-x="1589" 
d="M795 -25q-140 0 -259 39.5t-205 109.5t-146 166t-89.5 209t-29.5 238t29.5 238t89.5 209t146 166t205 109.5t259 39.5t258.5 -39.5t204.5 -109.5t146.5 -166t90 -209t29.5 -238t-29.5 -238t-90 -209t-146.5 -166t-204.5 -109.5t-258.5 -39.5zM795 221q112 0 198.5 41
t139 113t78.5 163.5t26 198.5t-26 198.5t-78.5 163.5t-139 113t-198.5 41t-199 -41t-139 -113t-78.5 -163.5t-26.5 -198.5t26.5 -198.5t78.5 -163.5t139 -113t199 -41zM950 1896l256 -299h-235l-176 170l-177 -170h-235l256 299h311z" />
    <glyph glyph-name="Otilde" unicode="&#xd5;" horiz-adv-x="1589" 
d="M795 -25q-140 0 -259 39.5t-205 109.5t-146 166t-89.5 209t-29.5 238t29.5 238t89.5 209t146 166t205 109.5t259 39.5t258.5 -39.5t204.5 -109.5t146.5 -166t90 -209t29.5 -238t-29.5 -238t-90 -209t-146.5 -166t-204.5 -109.5t-258.5 -39.5zM795 221q112 0 198.5 41
t139 113t78.5 163.5t26 198.5t-26 198.5t-78.5 163.5t-139 113t-198.5 41t-199 -41t-139 -113t-78.5 -163.5t-26.5 -198.5t26.5 -198.5t78.5 -163.5t139 -113t199 -41zM422 1597q0 142 57.5 211.5t163.5 69.5q51 0 152 -45q8 -3 37.5 -17t52 -22t39.5 -8q34 0 49.5 21
t15.5 71h178q0 -281 -219 -281q-11 0 -22.5 1t-24 4.5t-21.5 5.5t-23 8t-20 8t-22 9t-20 9q-10 4 -38 17.5t-50 22t-39 8.5q-36 0 -52 -21t-16 -72h-178z" />
    <glyph glyph-name="Odieresis" unicode="&#xd6;" horiz-adv-x="1589" 
d="M795 -25q-140 0 -259 39.5t-205 109.5t-146 166t-89.5 209t-29.5 238t29.5 238t89.5 209t146 166t205 109.5t259 39.5t258.5 -39.5t204.5 -109.5t146.5 -166t90 -209t29.5 -238t-29.5 -238t-90 -209t-146.5 -166t-204.5 -109.5t-258.5 -39.5zM795 221q112 0 198.5 41
t139 113t78.5 163.5t26 198.5t-26 198.5t-78.5 163.5t-139 113t-198.5 41t-199 -41t-139 -113t-78.5 -163.5t-26.5 -198.5t26.5 -198.5t78.5 -163.5t139 -113t199 -41zM461 1597v240h258v-240h-258zM870 1597v240h258v-240h-258z" />
    <glyph glyph-name="multiply" unicode="&#xd7;" horiz-adv-x="1050" 
d="M106 997l158 158l260 -258l260 260l158 -158l-260 -260l260 -260l-158 -160l-260 263l-260 -260l-158 157l261 260z" />
    <glyph glyph-name="Oslash" unicode="&#xd8;" horiz-adv-x="1589" 
d="M795 -25q-263 0 -445 136l-194 -217l-136 120l201 224q-155 202 -155 499q0 125 29.5 238t89.5 209t146 166t205 109.5t259 39.5q263 0 444 -135l195 217l133 -119l-201 -223q158 -205 158 -502q0 -125 -29.5 -238t-90 -209t-146.5 -166t-204.5 -109.5t-258.5 -39.5z
M795 221q112 0 198.5 41t139 113t78.5 163.5t26 198.5q0 166 -61 291l-650 -723q108 -84 269 -84zM352 737q0 -165 60 -288l651 720q-108 84 -268 84q-112 0 -199 -41t-139 -113t-78.5 -163.5t-26.5 -198.5z" />
    <glyph glyph-name="Ugrave" unicode="&#xd9;" horiz-adv-x="1431" 
d="M717 -25q-282 0 -446.5 151.5t-164.5 432.5v916h275v-916q0 -172 86.5 -257t249.5 -85q161 0 247.5 85t86.5 257v916h276v-916q0 -281 -164 -432.5t-446 -151.5zM821 1573h-211l-286 299h299z" />
    <glyph glyph-name="Uacute" unicode="&#xda;" horiz-adv-x="1431" 
d="M717 -25q-282 0 -446.5 151.5t-164.5 432.5v916h275v-916q0 -172 86.5 -257t249.5 -85q161 0 247.5 85t86.5 257v916h276v-916q0 -281 -164 -432.5t-446 -151.5zM610 1573l199 299h299l-287 -299h-211z" />
    <glyph glyph-name="Ucircumflex" unicode="&#xdb;" horiz-adv-x="1431" 
d="M717 -25q-282 0 -446.5 151.5t-164.5 432.5v916h275v-916q0 -172 86.5 -257t249.5 -85q161 0 247.5 85t86.5 257v916h276v-916q0 -281 -164 -432.5t-446 -151.5zM872 1872l256 -299h-235l-176 170l-176 -170h-236l256 299h311z" />
    <glyph glyph-name="Udieresis" unicode="&#xdc;" horiz-adv-x="1431" 
d="M717 -25q-282 0 -446.5 151.5t-164.5 432.5v916h275v-916q0 -172 86.5 -257t249.5 -85q161 0 247.5 85t86.5 257v916h276v-916q0 -281 -164 -432.5t-446 -151.5zM383 1573v239h258v-239h-258zM793 1573v239h258v-239h-258z" />
    <glyph glyph-name="Yacute" unicode="&#xdd;" horiz-adv-x="1449" 
d="M592 0v575l-572 900h316l395 -650l393 650h306l-564 -897v-578h-274zM625 1573l198 299h299l-286 -299h-211z" />
    <glyph glyph-name="germandbls" unicode="&#xdf;" horiz-adv-x="1193" 
d="M111 1047q0 212 123.5 332t347.5 120q207 0 332.5 -113t125.5 -288q0 -195 -161 -301q124 -49 186.5 -143.5t62.5 -225.5q0 -210 -133.5 -331.5t-386.5 -121.5q-50 0 -121 11v211q51 -11 113 -11q125 0 194.5 65t69.5 177q0 115 -70.5 178.5t-201.5 63.5h-80v192h70
q100 0 157.5 56t57.5 151q0 91 -58.5 148t-156.5 57t-155.5 -60.5t-57.5 -166.5v-1047h-258v1047z" />
    <glyph glyph-name="agrave" unicode="&#xe0;" horiz-adv-x="1105" 
d="M780 0v123q-123 -148 -338 -148q-177 0 -283 85t-106 237q0 139 99.5 216.5t310.5 113.5l309 55v61q0 148 -194 148q-94 0 -156 -41.5t-66 -124.5h-254q1 92 39 163.5t103.5 114.5t149 65t181.5 22q222 0 335.5 -84t113.5 -234v-772h-244zM500 166q112 0 192 62.5
t80 185.5v94l-262 -53q-101 -21 -147 -52t-46 -98q0 -65 46 -102t137 -37zM668 1200h-211l-287 299h299z" />
    <glyph glyph-name="aacute" unicode="&#xe1;" horiz-adv-x="1105" 
d="M780 0v123q-123 -148 -338 -148q-177 0 -283 85t-106 237q0 139 99.5 216.5t310.5 113.5l309 55v61q0 148 -194 148q-94 0 -156 -41.5t-66 -124.5h-254q1 92 39 163.5t103.5 114.5t149 65t181.5 22q222 0 335.5 -84t113.5 -234v-772h-244zM500 166q112 0 192 62.5
t80 185.5v94l-262 -53q-101 -21 -147 -52t-46 -98q0 -65 46 -102t137 -37zM457 1200l198 299h299l-286 -299h-211z" />
    <glyph glyph-name="acircumflex" unicode="&#xe2;" horiz-adv-x="1105" 
d="M780 0v123q-123 -148 -338 -148q-177 0 -283 85t-106 237q0 139 99.5 216.5t310.5 113.5l309 55v61q0 148 -194 148q-94 0 -156 -41.5t-66 -124.5h-254q1 92 39 163.5t103.5 114.5t149 65t181.5 22q222 0 335.5 -84t113.5 -234v-772h-244zM500 166q112 0 192 62.5
t80 185.5v94l-262 -53q-101 -21 -147 -52t-46 -98q0 -65 46 -102t137 -37zM719 1499l256 -299h-236l-176 170l-176 -170h-235l256 299h311z" />
    <glyph glyph-name="atilde" unicode="&#xe3;" horiz-adv-x="1105" 
d="M780 0v123q-123 -148 -338 -148q-177 0 -283 85t-106 237q0 139 99.5 216.5t310.5 113.5l309 55v61q0 148 -194 148q-94 0 -156 -41.5t-66 -124.5h-254q1 92 39 163.5t103.5 114.5t149 65t181.5 22q222 0 335.5 -84t113.5 -234v-772h-244zM500 166q112 0 192 62.5
t80 185.5v94l-262 -53q-101 -21 -147 -52t-46 -98q0 -65 46 -102t137 -37zM188 1219q0 142 58 211t164 69q50 0 151 -45q8 -3 37.5 -17t52 -22t39.5 -8q34 0 50 21t16 71h178q0 -280 -219 -280q-11 0 -22.5 1t-25 4.5t-21 5.5t-23.5 8.5t-20 7.5t-22.5 9.5t-19.5 8.5
q-9 4 -37.5 17.5t-50.5 21.5t-39 8q-36 0 -51.5 -20.5t-15.5 -71.5h-179z" />
    <glyph glyph-name="adieresis" unicode="&#xe4;" horiz-adv-x="1105" 
d="M780 0v123q-123 -148 -338 -148q-177 0 -283 85t-106 237q0 139 99.5 216.5t310.5 113.5l309 55v61q0 148 -194 148q-94 0 -156 -41.5t-66 -124.5h-254q1 92 39 163.5t103.5 114.5t149 65t181.5 22q222 0 335.5 -84t113.5 -234v-772h-244zM500 166q112 0 192 62.5
t80 185.5v94l-262 -53q-101 -21 -147 -52t-46 -98q0 -65 46 -102t137 -37zM229 1235v240h258v-240h-258zM639 1235v240h258v-240h-258z" />
    <glyph glyph-name="aring" unicode="&#xe5;" horiz-adv-x="1105" 
d="M780 0v123q-123 -148 -338 -148q-177 0 -283 85t-106 237q0 139 99.5 216.5t310.5 113.5l309 55v61q0 148 -194 148q-94 0 -156 -41.5t-66 -124.5h-254q1 92 39 163.5t103.5 114.5t149 65t181.5 22q222 0 335.5 -84t113.5 -234v-772h-244zM500 166q112 0 192 62.5
t80 185.5v94l-262 -53q-101 -21 -147 -52t-46 -98q0 -65 46 -102t137 -37zM563 1188q-124 0 -209.5 80.5t-85.5 199.5q0 118 86 199.5t209 81.5t209 -81.5t86 -199.5q0 -119 -85.5 -199.5t-209.5 -80.5zM563 1348q53 0 88 33.5t35 86.5q0 52 -35 86.5t-88 34.5
q-54 0 -88.5 -34t-34.5 -87q0 -54 34.5 -87t88.5 -33z" />
    <glyph glyph-name="ae" unicode="&#xe6;" horiz-adv-x="1847" 
d="M442 -25q-177 0 -283 85t-106 237q0 139 99.5 216.5t310.5 113.5l309 55v61q0 148 -194 148q-94 0 -156 -41.5t-66 -124.5h-254q1 92 39 163.5t103.5 114.5t149 65t181.5 22q268 0 361 -129q132 129 340 129q235 0 371.5 -158t136.5 -420v-61h-768q18 -127 85 -200
t175 -73q179 0 244 148h243q-52 -162 -179 -256.5t-308 -94.5q-126 0 -226.5 49.5t-166.5 139.5q-134 -189 -441 -189zM500 166q112 0 192 62.5t80 185.5v94l-262 -53q-101 -21 -147 -52t-46 -98q0 -65 46 -102t137 -37zM1020 635h514q-21 119 -87 185.5t-171 66.5
q-104 0 -169.5 -66.5t-86.5 -185.5z" />
    <glyph glyph-name="ccedilla" unicode="&#xe7;" horiz-adv-x="1134" 
d="M524 -483q-87 0 -155 16v113q73 -13 114 -13q144 0 144 84q0 76 -123 76q-44 0 -64 -4v84l80 107q-139 16 -241.5 92t-155.5 194.5t-53 265.5q0 243 141.5 400.5t380.5 157.5q214 0 340.5 -110t152.5 -296h-258q-19 90 -80 140t-155 50q-127 0 -193.5 -92t-66.5 -250
t66.5 -250t193.5 -92q97 0 157.5 53t77.5 150h258q-22 -171 -129.5 -281.5t-285.5 -131.5l-90 -97h16q103 0 165 -45t62 -121q0 -85 -75.5 -142.5t-223.5 -57.5z" />
    <glyph glyph-name="egrave" unicode="&#xe8;" horiz-adv-x="1181" 
d="M592 -25q-161 0 -281.5 73.5t-182.5 199t-62 284.5t62 285t182.5 199.5t281.5 73.5q245 0 385.5 -157.5t140.5 -420.5v-61h-796q18 -127 87.5 -200t182.5 -73q183 0 254 148h252q-54 -162 -186.5 -256.5t-319.5 -94.5zM696 1200h-211l-286 299h299zM324 635h534
q-21 119 -89 185.5t-177 66.5q-108 0 -177 -66.5t-91 -185.5z" />
    <glyph glyph-name="eacute" unicode="&#xe9;" horiz-adv-x="1181" 
d="M592 -25q-161 0 -281.5 73.5t-182.5 199t-62 284.5t62 285t182.5 199.5t281.5 73.5q245 0 385.5 -157.5t140.5 -420.5v-61h-796q18 -127 87.5 -200t182.5 -73q183 0 254 148h252q-54 -162 -186.5 -256.5t-319.5 -94.5zM485 1200l199 299h299l-287 -299h-211zM324 635h534
q-21 119 -89 185.5t-177 66.5q-108 0 -177 -66.5t-91 -185.5z" />
    <glyph glyph-name="ecircumflex" unicode="&#xea;" horiz-adv-x="1181" 
d="M592 -25q-161 0 -281.5 73.5t-182.5 199t-62 284.5t62 285t182.5 199.5t281.5 73.5q245 0 385.5 -157.5t140.5 -420.5v-61h-796q18 -127 87.5 -200t182.5 -73q183 0 254 148h252q-54 -162 -186.5 -256.5t-319.5 -94.5zM748 1499l256 -299h-236l-176 170l-176 -170h-236
l256 299h312zM324 635h534q-21 119 -89 185.5t-177 66.5q-108 0 -177 -66.5t-91 -185.5z" />
    <glyph glyph-name="edieresis" unicode="&#xeb;" horiz-adv-x="1181" 
d="M592 -25q-161 0 -281.5 73.5t-182.5 199t-62 284.5t62 285t182.5 199.5t281.5 73.5q245 0 385.5 -157.5t140.5 -420.5v-61h-796q18 -127 87.5 -200t182.5 -73q183 0 254 148h252q-54 -162 -186.5 -256.5t-319.5 -94.5zM258 1235v240h258v-240h-258zM668 1235v240h258
v-240h-258zM324 635h534q-21 119 -89 185.5t-177 66.5q-108 0 -177 -66.5t-91 -185.5z" />
    <glyph glyph-name="igrave" unicode="&#xec;" horiz-adv-x="473" 
d="M109 0v1065h256v-1065h-256zM342 1200h-211l-287 299h299z" />
    <glyph glyph-name="iacute" unicode="&#xed;" horiz-adv-x="473" 
d="M109 0v1065h256v-1065h-256zM131 1200l199 299h299l-287 -299h-211z" />
    <glyph glyph-name="icircumflex" unicode="&#xee;" horiz-adv-x="473" 
d="M109 0v1065h256v-1065h-256zM393 1499l256 -299h-235l-176 170l-177 -170h-235l256 299h311z" />
    <glyph glyph-name="idieresis" unicode="&#xef;" horiz-adv-x="473" 
d="M109 0v1065h256v-1065h-256zM-96 1235v240h258v-240h-258zM313 1235v240h258v-240h-258z" />
    <glyph glyph-name="ntilde" unicode="&#xf1;" 
d="M819 641q0 103 -50 163t-155 60q-37 0 -73.5 -11t-74.5 -36t-64.5 -73.5t-32.5 -114.5v-629h-258v1065h249v-145q128 170 336 170q181 0 280 -113.5t99 -304.5v-672h-256v641zM219 1219q0 142 57.5 211t163.5 69q51 0 152 -45q8 -3 37.5 -17t52 -22t39.5 -8q34 0 49.5 21
t15.5 71h179q0 -280 -220 -280q-11 0 -22.5 1t-24 4.5t-21.5 5.5t-23 8t-20 8t-22 9t-20 9q-9 4 -37.5 17.5t-50.5 21.5t-39 8q-36 0 -52 -20.5t-16 -71.5h-178z" />
    <glyph glyph-name="ograve" unicode="&#xf2;" horiz-adv-x="1208" 
d="M604 -25q-126 0 -228 42.5t-169.5 117t-104 176.5t-36.5 221q0 160 62 285t185.5 199t290.5 74t290.5 -73.5t186 -199t62.5 -285.5q0 -244 -144.5 -400.5t-394.5 -156.5zM604 190q138 0 207.5 91.5t69.5 250.5t-69.5 250.5t-207.5 91.5t-207 -91t-69 -251t69 -251
t207 -91zM709 1200h-211l-287 299h299z" />
    <glyph glyph-name="oacute" unicode="&#xf3;" horiz-adv-x="1208" 
d="M604 -25q-126 0 -228 42.5t-169.5 117t-104 176.5t-36.5 221q0 160 62 285t185.5 199t290.5 74t290.5 -73.5t186 -199t62.5 -285.5q0 -244 -144.5 -400.5t-394.5 -156.5zM604 190q138 0 207.5 91.5t69.5 250.5t-69.5 250.5t-207.5 91.5t-207 -91t-69 -251t69 -251
t207 -91zM498 1200l198 299h299l-286 -299h-211z" />
    <glyph glyph-name="ocircumflex" unicode="&#xf4;" horiz-adv-x="1208" 
d="M604 -25q-126 0 -228 42.5t-169.5 117t-104 176.5t-36.5 221q0 160 62 285t185.5 199t290.5 74t290.5 -73.5t186 -199t62.5 -285.5q0 -244 -144.5 -400.5t-394.5 -156.5zM604 190q138 0 207.5 91.5t69.5 250.5t-69.5 250.5t-207.5 91.5t-207 -91t-69 -251t69 -251
t207 -91zM760 1499l256 -299h-236l-176 170l-176 -170h-235l256 299h311z" />
    <glyph glyph-name="otilde" unicode="&#xf5;" horiz-adv-x="1208" 
d="M604 -25q-126 0 -228 42.5t-169.5 117t-104 176.5t-36.5 221q0 160 62 285t185.5 199t290.5 74t290.5 -73.5t186 -199t62.5 -285.5q0 -244 -144.5 -400.5t-394.5 -156.5zM604 190q138 0 207.5 91.5t69.5 250.5t-69.5 250.5t-207.5 91.5t-207 -91t-69 -251t69 -251
t207 -91zM231 1219q0 142 58 211t164 69q50 0 151 -45q8 -3 37.5 -17t52 -22t39.5 -8q35 0 50.5 21t15.5 71h178q0 -280 -219 -280q-11 0 -22.5 1t-25 4.5t-21 5.5t-23.5 8.5t-20 7.5t-22.5 9.5t-19.5 8.5q-9 4 -37.5 17.5t-50.5 21.5t-39 8q-36 0 -51.5 -20.5t-15.5 -71.5
h-179z" />
    <glyph glyph-name="odieresis" unicode="&#xf6;" horiz-adv-x="1208" 
d="M604 -25q-126 0 -228 42.5t-169.5 117t-104 176.5t-36.5 221q0 160 62 285t185.5 199t290.5 74t290.5 -73.5t186 -199t62.5 -285.5q0 -244 -144.5 -400.5t-394.5 -156.5zM604 190q138 0 207.5 91.5t69.5 250.5t-69.5 250.5t-207.5 91.5t-207 -91t-69 -251t69 -251
t207 -91zM270 1235v240h258v-240h-258zM680 1235v240h258v-240h-258z" />
    <glyph glyph-name="divide" unicode="&#xf7;" horiz-adv-x="1105" 
d="M74 625v223h958v-223h-958zM424 227v240h258v-240h-258zM424 1010v239h258v-239h-258z" />
    <glyph glyph-name="oslash" unicode="&#xf8;" horiz-adv-x="1208" 
d="M604 -25q-176 0 -303 82l-141 -161l-127 110l143 166q-110 147 -110 360q0 160 62 285t185.5 199t290.5 74q172 0 301 -80l137 159l129 -110l-141 -162q113 -147 113 -365q0 -244 -144.5 -400.5t-394.5 -156.5zM604 190q138 0 207.5 91.5t69.5 250.5q0 91 -25 164
l-403 -465q59 -41 151 -41zM328 532q0 -88 22 -159l404 463q-62 38 -150 38q-138 0 -207 -91t-69 -251z" />
    <glyph glyph-name="ugrave" unicode="&#xf9;" 
d="M367 424q0 -103 49.5 -163t154.5 -60q37 0 74 11t74.5 36t64.5 73.5t33 114.5v629h258v-1065h-250v145q-128 -170 -336 -170q-181 0 -279.5 113t-98.5 305v672h256v-641zM698 1200h-211l-286 299h299z" />
    <glyph glyph-name="uacute" unicode="&#xfa;" 
d="M367 424q0 -103 49.5 -163t154.5 -60q37 0 74 11t74.5 36t64.5 73.5t33 114.5v629h258v-1065h-250v145q-128 -170 -336 -170q-181 0 -279.5 113t-98.5 305v672h256v-641zM487 1200l199 299h299l-287 -299h-211z" />
    <glyph glyph-name="ucircumflex" unicode="&#xfb;" 
d="M367 424q0 -103 49.5 -163t154.5 -60q37 0 74 11t74.5 36t64.5 73.5t33 114.5v629h258v-1065h-250v145q-128 -170 -336 -170q-181 0 -279.5 113t-98.5 305v672h256v-641zM750 1499l256 -299h-236l-176 170l-176 -170h-236l256 299h312z" />
    <glyph glyph-name="udieresis" unicode="&#xfc;" 
d="M367 424q0 -103 49.5 -163t154.5 -60q37 0 74 11t74.5 36t64.5 73.5t33 114.5v629h258v-1065h-250v145q-128 -170 -336 -170q-181 0 -279.5 113t-98.5 305v672h256v-641zM260 1235v240h258v-240h-258zM670 1235v240h258v-240h-258z" />
    <glyph glyph-name="yacute" unicode="&#xfd;" horiz-adv-x="1099" 
d="M61 -410v211h168q75 0 105.5 26t56.5 101l25 62l-404 1075h277l262 -811l260 811h279l-439 -1186q-25 -69 -51.5 -117t-65.5 -89.5t-95 -62t-130 -20.5h-248zM444 1200l199 299h299l-287 -299h-211z" />
    <glyph glyph-name="ydieresis" unicode="&#xff;" horiz-adv-x="1099" 
d="M61 -410v211h168q75 0 105.5 26t56.5 101l25 62l-404 1075h277l262 -811l260 811h279l-439 -1186q-25 -69 -51.5 -117t-65.5 -89.5t-95 -62t-130 -20.5h-248zM217 1235v240h258v-240h-258zM627 1235v240h258v-240h-258z" />
    <glyph glyph-name="Abreve" unicode="&#x102;" horiz-adv-x="1505" 
d="M1192 0l-123 336h-641l-123 -336h-285l570 1475h319l576 -1475h-293zM748 1561q-146 0 -240 82.5t-109 228.5h199q12 -141 150 -141q66 0 105.5 35.5t45.5 105.5h199q-15 -147 -109 -229t-241 -82zM514 571h469l-233 646z" />
    <glyph glyph-name="abreve" unicode="&#x103;" horiz-adv-x="1105" 
d="M780 0v123q-123 -148 -338 -148q-177 0 -283 85t-106 237q0 139 99.5 216.5t310.5 113.5l309 55v61q0 148 -194 148q-94 0 -156 -41.5t-66 -124.5h-254q1 92 39 163.5t103.5 114.5t149 65t181.5 22q222 0 335.5 -84t113.5 -234v-772h-244zM500 166q112 0 192 62.5
t80 185.5v94l-262 -53q-101 -21 -147 -52t-46 -98q0 -65 46 -102t137 -37zM561 1188q-146 0 -239.5 82.5t-108.5 228.5h199q12 -141 149 -141q66 0 106 35.5t46 105.5h198q-15 -147 -109 -229t-241 -82z" />
    <glyph glyph-name="Aogonek" unicode="&#x104;" horiz-adv-x="1505" 
d="M1192 0l-123 336h-641l-123 -336h-285l570 1475h319l576 -1475q-203 -104 -203 -190q0 -40 29.5 -60t77.5 -20q43 0 96 16v-158q-65 -22 -152 -22q-118 0 -189 48.5t-71 145.5q0 73 57 136.5t150 103.5h-88zM514 571h469l-233 646z" />
    <glyph glyph-name="aogonek" unicode="&#x105;" horiz-adv-x="1105" 
d="M780 0v123q-123 -148 -338 -148q-177 0 -283 85t-106 237q0 139 99.5 216.5t310.5 113.5l309 55v61q0 148 -194 148q-94 0 -156 -41.5t-66 -124.5h-254q1 92 39 163.5t103.5 114.5t149 65t181.5 22q222 0 335.5 -84t113.5 -234v-772q-203 -104 -203 -190q0 -40 29.5 -60
t77.5 -20q43 0 96 16v-158q-65 -22 -152 -22q-118 0 -189 48.5t-71 145.5q0 73 57 136.5t150 103.5h-39zM500 166q112 0 192 62.5t80 185.5v94l-262 -53q-101 -21 -147 -52t-46 -98q0 -65 46 -102t137 -37z" />
    <glyph glyph-name="Cacute" unicode="&#x106;" horiz-adv-x="1515" 
d="M795 -25q-140 0 -259 39.5t-205 109.5t-146 166t-89.5 209t-29.5 238t29.5 238t89.5 209t146 166t205 109.5t259 39.5q264 0 437.5 -151t211.5 -390h-279q-28 134 -126 214.5t-244 80.5q-112 0 -199 -41t-139 -113t-78.5 -163.5t-26.5 -198.5t26.5 -198.5t78.5 -163.5
t139 -113t199 -41q155 0 254 92t125 242h276q-15 -124 -66 -230t-133.5 -184t-199.5 -122t-256 -44zM688 1597l199 299h299l-287 -299h-211z" />
    <glyph glyph-name="cacute" unicode="&#x107;" horiz-adv-x="1134" 
d="M592 -25q-239 0 -380.5 157t-141.5 400t141.5 400.5t380.5 157.5q214 0 340.5 -110t152.5 -296h-258q-19 90 -80 140t-155 50q-127 0 -193.5 -92t-66.5 -250t66.5 -250t193.5 -92q97 0 157.5 53t77.5 150h258q-24 -189 -153.5 -303.5t-339.5 -114.5zM487 1200l199 299
h299l-287 -299h-211z" />
    <glyph glyph-name="Ccircumflex" unicode="&#x108;" horiz-adv-x="1515" 
d="M795 -25q-140 0 -259 39.5t-205 109.5t-146 166t-89.5 209t-29.5 238t29.5 238t89.5 209t146 166t205 109.5t259 39.5q264 0 437.5 -151t211.5 -390h-279q-28 134 -126 214.5t-244 80.5q-112 0 -199 -41t-139 -113t-78.5 -163.5t-26.5 -198.5t26.5 -198.5t78.5 -163.5
t139 -113t199 -41q155 0 254 92t125 242h276q-15 -124 -66 -230t-133.5 -184t-199.5 -122t-256 -44zM950 1896l256 -299h-235l-176 170l-177 -170h-235l256 299h311z" />
    <glyph glyph-name="ccircumflex" unicode="&#x109;" horiz-adv-x="1134" 
d="M592 -25q-239 0 -380.5 157t-141.5 400t141.5 400.5t380.5 157.5q214 0 340.5 -110t152.5 -296h-258q-19 90 -80 140t-155 50q-127 0 -193.5 -92t-66.5 -250t66.5 -250t193.5 -92q97 0 157.5 53t77.5 150h258q-24 -189 -153.5 -303.5t-339.5 -114.5zM748 1499l256 -299
h-236l-176 170l-176 -170h-236l256 299h312z" />
    <glyph glyph-name="Cdotaccent" unicode="&#x10a;" horiz-adv-x="1515" 
d="M795 -25q-140 0 -259 39.5t-205 109.5t-146 166t-89.5 209t-29.5 238t29.5 238t89.5 209t146 166t205 109.5t259 39.5q264 0 437.5 -151t211.5 -390h-279q-28 134 -126 214.5t-244 80.5q-112 0 -199 -41t-139 -113t-78.5 -163.5t-26.5 -198.5t26.5 -198.5t78.5 -163.5
t139 -113t199 -41q155 0 254 92t125 242h276q-15 -124 -66 -230t-133.5 -184t-199.5 -122t-256 -44zM666 1597v240h258v-240h-258z" />
    <glyph glyph-name="cdotaccent" unicode="&#x10b;" horiz-adv-x="1134" 
d="M592 -25q-239 0 -380.5 157t-141.5 400t141.5 400.5t380.5 157.5q214 0 340.5 -110t152.5 -296h-258q-19 90 -80 140t-155 50q-127 0 -193.5 -92t-66.5 -250t66.5 -250t193.5 -92q97 0 157.5 53t77.5 150h258q-24 -189 -153.5 -303.5t-339.5 -114.5zM463 1235v240h258
v-240h-258z" />
    <glyph glyph-name="Ccaron" unicode="&#x10c;" horiz-adv-x="1515" 
d="M795 -25q-140 0 -259 39.5t-205 109.5t-146 166t-89.5 209t-29.5 238t29.5 238t89.5 209t146 166t205 109.5t259 39.5q264 0 437.5 -151t211.5 -390h-279q-28 134 -126 214.5t-244 80.5q-112 0 -199 -41t-139 -113t-78.5 -163.5t-26.5 -198.5t26.5 -198.5t78.5 -163.5
t139 -113t199 -41q155 0 254 92t125 242h276q-15 -124 -66 -230t-133.5 -184t-199.5 -122t-256 -44zM639 1597l-256 299h235l177 -170l176 170h235l-256 -299h-311z" />
    <glyph glyph-name="ccaron" unicode="&#x10d;" horiz-adv-x="1134" 
d="M592 -25q-239 0 -380.5 157t-141.5 400t141.5 400.5t380.5 157.5q214 0 340.5 -110t152.5 -296h-258q-19 90 -80 140t-155 50q-127 0 -193.5 -92t-66.5 -250t66.5 -250t193.5 -92q97 0 157.5 53t77.5 150h258q-24 -189 -153.5 -303.5t-339.5 -114.5zM436 1200l-256 299
h236l176 -170l176 170h236l-256 -299h-312z" />
    <glyph glyph-name="Dcaron" unicode="&#x10e;" horiz-adv-x="1478" 
d="M127 0v1475h545q149 0 271 -37t208.5 -103.5t146 -159t87.5 -202.5t28 -236q0 -158 -45.5 -290.5t-134.5 -233t-232.5 -157t-328.5 -56.5h-545zM543 1573l-256 299h235l176 -170l176 170h236l-256 -299h-311zM401 240h271q117 0 206 38t142.5 106.5t79.5 157t26 195.5
t-26 196t-79.5 157.5t-142.5 106.5t-206 38h-271v-995z" />
    <glyph glyph-name="dcaron" unicode="&#x10f;" horiz-adv-x="1239" 
d="M1128 0h-247v147q-117 -172 -338 -172q-150 0 -259.5 73.5t-163.5 198.5t-54 285t54 285t163.5 199t259.5 74q211 0 327 -158v543h258v-1475zM602 190q135 0 203.5 91.5t68.5 250.5t-68.5 250.5t-203.5 91.5q-137 0 -205.5 -91.5t-68.5 -250.5t68.5 -250.5t205.5 -91.5z
M1210 1126l54 349h268l-143 -349h-179z" />
    <glyph glyph-name="Dcroat" unicode="&#x110;" horiz-adv-x="1517" 
d="M0 672v166h168v649h545q185 0 328.5 -56.5t232.5 -157t134.5 -233t45.5 -290.5q0 -126 -28 -236t-87.5 -202.5t-146 -159t-208.5 -103.5t-271 -37h-545v660h-168zM442 252h271q117 0 206 38t142.5 106.5t79.5 157.5t26 196t-26 195.5t-79.5 157t-142.5 106.5t-206 38
h-271v-409h361v-166h-361v-420z" />
    <glyph glyph-name="dcroat" unicode="&#x111;" horiz-adv-x="1306" 
d="M655 1190v168h215v117h258v-117h179v-168h-179v-1190h-247v147q-117 -172 -338 -172q-150 0 -259.5 73.5t-163.5 198.5t-54 285t54 285t163.5 199t259.5 74q211 0 327 -158v258h-215zM602 190q135 0 203.5 91.5t68.5 250.5t-68.5 250.5t-203.5 91.5q-137 0 -205.5 -91.5
t-68.5 -250.5t68.5 -250.5t205.5 -91.5z" />
    <glyph glyph-name="Ebreve" unicode="&#x114;" horiz-adv-x="1265" 
d="M127 0v1475h1081v-248h-807v-350h748v-238h-748v-391h803v-248h-1077zM666 1561q-146 0 -240 82.5t-109 228.5h199q12 -141 150 -141q66 0 105.5 35.5t45.5 105.5h199q-15 -147 -109 -229t-241 -82z" />
    <glyph glyph-name="ebreve" unicode="&#x115;" horiz-adv-x="1181" 
d="M592 -25q-161 0 -281.5 73.5t-182.5 199t-62 284.5t62 285t182.5 199.5t281.5 73.5q245 0 385.5 -157.5t140.5 -420.5v-61h-796q18 -127 87.5 -200t182.5 -73q183 0 254 148h252q-54 -162 -186.5 -256.5t-319.5 -94.5zM590 1188q-146 0 -239.5 82.5t-108.5 228.5h198
q12 -141 150 -141q66 0 105.5 35.5t45.5 105.5h199q-15 -147 -109 -229t-241 -82zM324 635h534q-21 119 -89 185.5t-177 66.5q-108 0 -177 -66.5t-91 -185.5z" />
    <glyph glyph-name="Edotaccent" unicode="&#x116;" horiz-adv-x="1265" 
d="M127 0v1475h1081v-248h-807v-350h748v-238h-748v-391h803v-248h-1077zM539 1573v239h258v-239h-258z" />
    <glyph glyph-name="edotaccent" unicode="&#x117;" horiz-adv-x="1181" 
d="M592 -25q-161 0 -281.5 73.5t-182.5 199t-62 284.5t62 285t182.5 199.5t281.5 73.5q245 0 385.5 -157.5t140.5 -420.5v-61h-796q18 -127 87.5 -200t182.5 -73q183 0 254 148h252q-54 -162 -186.5 -256.5t-319.5 -94.5zM463 1235v240h258v-240h-258zM324 635h534
q-21 119 -89 185.5t-177 66.5q-108 0 -177 -66.5t-91 -185.5z" />
    <glyph glyph-name="Eogonek" unicode="&#x118;" horiz-adv-x="1265" 
d="M127 0v1475h1081v-248h-807v-350h748v-238h-748v-391h803v-248q-203 -104 -203 -190q0 -40 29.5 -60t77.5 -20q43 0 96 16v-158q-65 -22 -151 -22q-118 0 -189 48.5t-71 145.5q0 73 57 136.5t149 103.5h-872z" />
    <glyph glyph-name="eogonek" unicode="&#x119;" horiz-adv-x="1181" 
d="M614 -434q-118 0 -189 48.5t-71 145.5q0 64 45 121.5t121 98.5q-141 16 -244.5 92t-156.5 194.5t-53 265.5q0 159 62 285t182.5 199.5t281.5 73.5q245 0 385.5 -157.5t140.5 -420.5v-61h-796q18 -127 87.5 -200t182.5 -73q183 0 254 148h252q-40 -121 -126 -206
t-206 -120q-203 -104 -203 -190q0 -40 29.5 -60t77.5 -20q43 0 96 16v-158q-65 -22 -152 -22zM324 635h534q-21 119 -89 185.5t-177 66.5q-108 0 -177 -66.5t-91 -185.5z" />
    <glyph glyph-name="Ecaron" unicode="&#x11a;" horiz-adv-x="1265" 
d="M127 0v1475h1081v-248h-807v-350h748v-238h-748v-391h803v-248h-1077zM512 1573l-256 299h236l176 -170l176 170h235l-256 -299h-311z" />
    <glyph glyph-name="ecaron" unicode="&#x11b;" horiz-adv-x="1181" 
d="M592 -25q-161 0 -281.5 73.5t-182.5 199t-62 284.5t62 285t182.5 199.5t281.5 73.5q245 0 385.5 -157.5t140.5 -420.5v-61h-796q18 -127 87.5 -200t182.5 -73q183 0 254 148h252q-54 -162 -186.5 -256.5t-319.5 -94.5zM436 1200l-256 299h236l176 -170l176 170h236
l-256 -299h-312zM324 635h534q-21 119 -89 185.5t-177 66.5q-108 0 -177 -66.5t-91 -185.5z" />
    <glyph glyph-name="Gcircumflex" unicode="&#x11c;" horiz-adv-x="1599" 
d="M762 -25q-131 0 -243.5 39.5t-194.5 109.5t-141 165.5t-88 209.5t-29 238q0 125 29.5 238t89.5 209t146 166t205 109.5t259 39.5q188 0 335.5 -69.5t234 -187.5t112.5 -271h-283q-32 128 -136.5 206t-262.5 78q-112 0 -199 -41.5t-139 -113.5t-78.5 -164t-26.5 -199
t26.5 -199t78.5 -164t139 -113.5t199 -41.5q169 0 273 91.5t144 256.5h-479v226h760v-793h-207v258q-151 -283 -524 -283zM950 1896l256 -299h-235l-176 170l-177 -170h-235l256 299h311z" />
    <glyph glyph-name="gcircumflex" unicode="&#x11d;" horiz-adv-x="1239" 
d="M590 -434q-221 0 -345 98.5t-136 272.5h251q22 -170 238 -170q272 0 272 262v127q-116 -154 -327 -154q-225 0 -351 152t-126 393q0 156 54 277.5t163.5 193.5t259.5 72q220 0 336 -164v139h249v-1036q0 -116 -41.5 -206t-115 -145.5t-170 -83.5t-211.5 -28zM602 213
q136 0 204 89t68 245q0 155 -68.5 244.5t-203.5 89.5q-137 0 -205.5 -89.5t-68.5 -244.5q0 -156 68.5 -245t205.5 -89zM754 1499l256 -299h-236l-176 170l-176 -170h-236l256 299h312z" />
    <glyph glyph-name="Gbreve" unicode="&#x11e;" horiz-adv-x="1599" 
d="M762 -25q-131 0 -243.5 39.5t-194.5 109.5t-141 165.5t-88 209.5t-29 238q0 125 29.5 238t89.5 209t146 166t205 109.5t259 39.5q188 0 335.5 -69.5t234 -187.5t112.5 -271h-283q-32 128 -136.5 206t-262.5 78q-112 0 -199 -41.5t-139 -113.5t-78.5 -164t-26.5 -199
t26.5 -199t78.5 -164t139 -113.5t199 -41.5q169 0 273 91.5t144 256.5h-479v226h760v-793h-207v258q-151 -283 -524 -283zM793 1585q-146 0 -240 82.5t-109 228.5h199q12 -141 150 -141q66 0 105.5 35.5t45.5 105.5h199q-15 -147 -109 -229t-241 -82z" />
    <glyph glyph-name="gbreve" unicode="&#x11f;" horiz-adv-x="1239" 
d="M590 -434q-221 0 -345 98.5t-136 272.5h251q22 -170 238 -170q272 0 272 262v127q-116 -154 -327 -154q-225 0 -351 152t-126 393q0 156 54 277.5t163.5 193.5t259.5 72q220 0 336 -164v139h249v-1036q0 -116 -41.5 -206t-115 -145.5t-170 -83.5t-211.5 -28zM602 213
q136 0 204 89t68 245q0 155 -68.5 244.5t-203.5 89.5q-137 0 -205.5 -89.5t-68.5 -244.5q0 -156 68.5 -245t205.5 -89zM596 1188q-146 0 -239.5 82.5t-108.5 228.5h198q12 -141 150 -141q66 0 106 35.5t46 105.5h198q-15 -147 -109 -229t-241 -82z" />
    <glyph glyph-name="Gdotaccent" unicode="&#x120;" horiz-adv-x="1599" 
d="M762 -25q-131 0 -243.5 39.5t-194.5 109.5t-141 165.5t-88 209.5t-29 238q0 125 29.5 238t89.5 209t146 166t205 109.5t259 39.5q188 0 335.5 -69.5t234 -187.5t112.5 -271h-283q-32 128 -136.5 206t-262.5 78q-112 0 -199 -41.5t-139 -113.5t-78.5 -164t-26.5 -199
t26.5 -199t78.5 -164t139 -113.5t199 -41.5q169 0 273 91.5t144 256.5h-479v226h760v-793h-207v258q-151 -283 -524 -283zM666 1597v240h258v-240h-258z" />
    <glyph glyph-name="gdotaccent" unicode="&#x121;" horiz-adv-x="1239" 
d="M590 -434q-221 0 -345 98.5t-136 272.5h251q22 -170 238 -170q272 0 272 262v127q-116 -154 -327 -154q-225 0 -351 152t-126 393q0 156 54 277.5t163.5 193.5t259.5 72q220 0 336 -164v139h249v-1036q0 -116 -41.5 -206t-115 -145.5t-170 -83.5t-211.5 -28zM602 213
q136 0 204 89t68 245q0 155 -68.5 244.5t-203.5 89.5q-137 0 -205.5 -89.5t-68.5 -244.5q0 -156 68.5 -245t205.5 -89zM469 1235v240h258v-240h-258z" />
    <glyph glyph-name="Hcircumflex" unicode="&#x124;" horiz-adv-x="1488" 
d="M1087 0v631h-686v-631h-274v1475h274v-594h686v594h277v-1475h-277zM901 1872l256 -299h-235l-177 170l-176 -170h-235l256 299h311z" />
    <glyph glyph-name="hcircumflex" unicode="&#x125;" 
d="M111 0v1475h258v-545q129 160 327 160q181 0 280 -113.5t99 -304.5v-672h-256v641q0 103 -50 163t-155 60q-37 0 -73.5 -11t-74.5 -36t-64.5 -73.5t-32.5 -114.5v-629h-258zM395 1872l256 -299h-235l-176 170l-177 -170h-235l256 299h311z" />
    <glyph glyph-name="Itilde" unicode="&#x128;" horiz-adv-x="528" 
d="M127 0v1475h274v-1475h-274zM-109 1573q0 142 58 211t164 69q50 0 151 -45q8 -3 37.5 -17t52 -22t39.5 -8q35 0 50.5 21t15.5 71h178q0 -280 -219 -280q-11 0 -22.5 1t-25 4.5t-21 5.5t-23.5 8.5t-20 7.5t-22.5 9.5t-19.5 8.5q-9 4 -37.5 17.5t-50.5 21.5t-39 8
q-36 0 -51.5 -20.5t-15.5 -71.5h-179z" />
    <glyph glyph-name="itilde" unicode="&#x129;" horiz-adv-x="473" 
d="M109 0v1065h256v-1065h-256zM-137 1219q0 142 57.5 211t163.5 69q51 0 152 -45q8 -3 37.5 -17t52 -22t39.5 -8q34 0 49.5 21t15.5 71h178q0 -280 -219 -280q-11 0 -22.5 1t-24 4.5t-21.5 5.5t-23 8t-20 8t-22 9t-20 9q-9 4 -37.5 17.5t-50.5 21.5t-39 8q-36 0 -52 -20.5
t-16 -71.5h-178z" />
    <glyph glyph-name="Ibreve" unicode="&#x12c;" horiz-adv-x="528" 
d="M127 0v1475h274v-1475h-274zM262 1561q-146 0 -239.5 82.5t-108.5 228.5h199q12 -141 149 -141q66 0 106 35.5t46 105.5h198q-15 -147 -109 -229t-241 -82z" />
    <glyph glyph-name="ibreve" unicode="&#x12d;" horiz-adv-x="473" 
d="M109 0v1065h256v-1065h-256zM236 1188q-146 0 -240 82.5t-109 228.5h199q12 -141 150 -141q66 0 105.5 35.5t45.5 105.5h199q-15 -147 -109 -229t-241 -82z" />
    <glyph glyph-name="Iogonek" unicode="&#x12e;" horiz-adv-x="528" 
d="M127 0v1475h274v-1475q-202 -103 -202 -190q0 -40 29 -60t77 -20q43 0 96 16v-158q-65 -22 -151 -22q-118 0 -189 48.5t-71 145.5q0 73 57 136.5t150 103.5h-70z" />
    <glyph glyph-name="iogonek" unicode="&#x12f;" horiz-adv-x="473" 
d="M109 0v1065h256v-1063l2 -2q-203 -104 -203 -190q0 -40 29 -60t77 -20q44 0 97 16v-158q-65 -22 -152 -22q-118 0 -189 48.5t-71 145.5q0 73 57 136.5t150 103.5h-53zM109 1235v240h258v-240h-258z" />
    <glyph glyph-name="Idotaccent" unicode="&#x130;" horiz-adv-x="528" 
d="M127 0v1475h274v-1475h-274zM135 1573v239h258v-239h-258z" />
    <glyph glyph-name="dotlessi" unicode="&#x131;" horiz-adv-x="473" 
d="M109 0v1065h256v-1065h-256z" />
    <glyph glyph-name="Jcircumflex" unicode="&#x134;" horiz-adv-x="1146" 
d="M545 -25q-237 0 -362.5 134t-125.5 364v82h267v-82q0 -127 53 -192.5t168 -65.5t168 65.5t53 192.5v1002h274v-1002q0 -229 -128.5 -363.5t-366.5 -134.5zM1059 1872l256 -299h-236l-176 170l-176 -170h-235l256 299h311z" />
    <glyph glyph-name="jcircumflex" unicode="&#x135;" horiz-adv-x="487" 
d="M381 -137q0 -153 -74.5 -213t-220.5 -60h-205v199h139q57 0 80 23t23 77v1176h258v-1202zM408 1499l256 -299h-236l-176 170l-176 -170h-236l256 299h312z" />
    <glyph glyph-name="Lacute" unicode="&#x139;" horiz-adv-x="1144" 
d="M127 0v1475h274v-1227h707v-248h-981zM158 1573l198 299h299l-286 -299h-211z" />
    <glyph glyph-name="lacute" unicode="&#x13a;" horiz-adv-x="663" 
d="M111 1475h258v-1176q0 -54 22.5 -77t79.5 -23h139v-199h-204q-146 0 -220.5 60t-74.5 212v1203zM133 1573l199 299h299l-287 -299h-211z" />
    <glyph glyph-name="Lcaron" unicode="&#x13d;" horiz-adv-x="1144" 
d="M127 0v1475h274v-1227h707v-248h-981zM549 1126l53 349h268l-143 -349h-178z" />
    <glyph glyph-name="lcaron" unicode="&#x13e;" horiz-adv-x="663" 
d="M111 1475h258v-1176q0 -54 22.5 -77t79.5 -23h139v-199h-204q-146 0 -220.5 60t-74.5 212v1203zM451 1126l53 349h268l-143 -349h-178z" />
    <glyph glyph-name="Lslash" unicode="&#x141;" horiz-adv-x="1187" 
d="M168 0v637l-168 -76v189l168 75v650h274v-527l369 166v-188l-369 -166v-512h707v-248h-981z" />
    <glyph glyph-name="lslash" unicode="&#x142;" horiz-adv-x="663" 
d="M111 1475h258v-572l168 76v-188l-168 -76v-416q0 -54 22.5 -77t79.5 -23h139v-199h-204q-146 0 -220.5 60t-74.5 212v328l-168 -76v189l168 75v687z" />
    <glyph glyph-name="Nacute" unicode="&#x143;" horiz-adv-x="1501" 
d="M1069 0l-676 1098v-1098h-266v1475h307l674 -1098v1098h268v-1475h-307zM645 1573l199 299h299l-287 -299h-211z" />
    <glyph glyph-name="nacute" unicode="&#x144;" 
d="M819 641q0 103 -50 163t-155 60q-37 0 -73.5 -11t-74.5 -36t-64.5 -73.5t-32.5 -114.5v-629h-258v1065h249v-145q128 170 336 170q181 0 280 -113.5t99 -304.5v-672h-256v641zM487 1200l199 299h299l-287 -299h-211z" />
    <glyph glyph-name="Ncaron" unicode="&#x147;" horiz-adv-x="1501" 
d="M1069 0l-676 1098v-1098h-266v1475h307l674 -1098v1098h268v-1475h-307zM596 1573l-256 299h235l177 -170l176 170h235l-256 -299h-311z" />
    <glyph glyph-name="ncaron" unicode="&#x148;" 
d="M819 641q0 103 -50 163t-155 60q-37 0 -73.5 -11t-74.5 -36t-64.5 -73.5t-32.5 -114.5v-629h-258v1065h249v-145q128 170 336 170q181 0 280 -113.5t99 -304.5v-672h-256v641zM438 1200l-256 299h236l176 -170l176 170h236l-256 -299h-312z" />
    <glyph glyph-name="Obreve" unicode="&#x14e;" horiz-adv-x="1589" 
d="M795 -25q-140 0 -259 39.5t-205 109.5t-146 166t-89.5 209t-29.5 238t29.5 238t89.5 209t146 166t205 109.5t259 39.5t258.5 -39.5t204.5 -109.5t146.5 -166t90 -209t29.5 -238t-29.5 -238t-90 -209t-146.5 -166t-204.5 -109.5t-258.5 -39.5zM795 221q112 0 198.5 41
t139 113t78.5 163.5t26 198.5t-26 198.5t-78.5 163.5t-139 113t-198.5 41t-199 -41t-139 -113t-78.5 -163.5t-26.5 -198.5t26.5 -198.5t78.5 -163.5t139 -113t199 -41zM793 1585q-146 0 -240 82.5t-109 228.5h199q12 -141 150 -141q66 0 105.5 35.5t45.5 105.5h199
q-15 -147 -109 -229t-241 -82z" />
    <glyph glyph-name="obreve" unicode="&#x14f;" horiz-adv-x="1208" 
d="M604 -25q-126 0 -228 42.5t-169.5 117t-104 176.5t-36.5 221q0 160 62 285t185.5 199t290.5 74t290.5 -73.5t186 -199t62.5 -285.5q0 -244 -144.5 -400.5t-394.5 -156.5zM604 190q138 0 207.5 91.5t69.5 250.5t-69.5 250.5t-207.5 91.5t-207 -91t-69 -251t69 -251
t207 -91zM602 1188q-146 0 -239.5 82.5t-108.5 228.5h199q12 -141 149 -141q66 0 106 35.5t46 105.5h198q-15 -147 -109 -229t-241 -82z" />
    <glyph glyph-name="Racute" unicode="&#x154;" horiz-adv-x="1380" 
d="M127 0v1475h657q260 0 391.5 -117t131.5 -318q0 -109 -60 -200.5t-170 -153.5q87 -38 132 -105t61 -163l61 -418h-282l-50 354q-17 120 -76 175t-173 55h-349v-584h-274zM578 1573l198 299h299l-287 -299h-210zM401 805h349q272 0 272 219q0 221 -272 221h-349v-440z" />
    <glyph glyph-name="racute" unicode="&#x155;" horiz-adv-x="817" 
d="M111 0v1065h249v-191q97 203 322 203h84v-237h-94q-146 0 -224.5 -74t-78.5 -250v-516h-258zM334 1200l198 299h299l-286 -299h-211z" />
    <glyph glyph-name="Rcaron" unicode="&#x158;" horiz-adv-x="1380" 
d="M127 0v1475h657q260 0 391.5 -117t131.5 -318q0 -109 -60 -200.5t-170 -153.5q87 -38 132 -105t61 -163l61 -418h-282l-50 354q-17 120 -76 175t-173 55h-349v-584h-274zM528 1573l-256 299h236l176 -170l176 170h236l-256 -299h-312zM401 805h349q272 0 272 219
q0 221 -272 221h-349v-440z" />
    <glyph glyph-name="rcaron" unicode="&#x159;" horiz-adv-x="817" 
d="M111 0v1065h249v-191q97 203 322 203h84v-237h-94q-146 0 -224.5 -74t-78.5 -250v-516h-258zM283 1200l-256 299h235l176 -170l176 170h236l-256 -299h-311z" />
    <glyph glyph-name="Sacute" unicode="&#x15a;" horiz-adv-x="1323" 
d="M682 -25q-284 0 -453.5 134.5t-175.5 386.5h273q10 -295 364 -295q136 0 218.5 55.5t82.5 155.5q0 56 -27 91.5t-108.5 68.5t-234.5 63q-276 51 -402.5 154t-126.5 298q0 184 150.5 298t396.5 114q289 0 439.5 -132t158.5 -361h-266q-8 136 -88.5 202t-243.5 66
q-120 0 -192 -48t-72 -130q0 -44 12 -73.5t48.5 -58t105.5 -51t180 -43.5q162 -30 270 -70.5t170 -97t87.5 -122.5t25.5 -156q0 -211 -163.5 -330t-428.5 -119zM559 1597l199 299h299l-287 -299h-211z" />
    <glyph glyph-name="sacute" unicode="&#x15b;" horiz-adv-x="1036" 
d="M526 -25q-465 0 -487 375h250q12 -103 72.5 -145.5t173.5 -42.5q94 0 150 33t56 92q0 41 -16.5 64.5t-70.5 44t-162 38.5q-164 28 -259.5 74.5t-132.5 108.5t-37 153q0 149 120.5 234.5t320.5 85.5q225 0 344.5 -96.5t122.5 -266.5h-240q-7 176 -227 176
q-83 0 -136 -32.5t-53 -90.5q0 -59 52.5 -88t210.5 -55q161 -26 254 -71.5t129 -107.5t36 -155q0 -156 -130 -242t-341 -86zM414 1200l198 299h299l-286 -299h-211z" />
    <glyph glyph-name="Scircumflex" unicode="&#x15c;" horiz-adv-x="1323" 
d="M682 -25q-284 0 -453.5 134.5t-175.5 386.5h273q10 -295 364 -295q136 0 218.5 55.5t82.5 155.5q0 56 -27 91.5t-108.5 68.5t-234.5 63q-276 51 -402.5 154t-126.5 298q0 184 150.5 298t396.5 114q289 0 439.5 -132t158.5 -361h-266q-8 136 -88.5 202t-243.5 66
q-120 0 -192 -48t-72 -130q0 -44 12 -73.5t48.5 -58t105.5 -51t180 -43.5q162 -30 270 -70.5t170 -97t87.5 -122.5t25.5 -156q0 -211 -163.5 -330t-428.5 -119zM819 1896l256 -299h-235l-176 170l-177 -170h-235l256 299h311z" />
    <glyph glyph-name="scircumflex" unicode="&#x15d;" horiz-adv-x="1036" 
d="M526 -25q-465 0 -487 375h250q12 -103 72.5 -145.5t173.5 -42.5q94 0 150 33t56 92q0 41 -16.5 64.5t-70.5 44t-162 38.5q-164 28 -259.5 74.5t-132.5 108.5t-37 153q0 149 120.5 234.5t320.5 85.5q225 0 344.5 -96.5t122.5 -266.5h-240q-7 176 -227 176
q-83 0 -136 -32.5t-53 -90.5q0 -59 52.5 -88t210.5 -55q161 -26 254 -71.5t129 -107.5t36 -155q0 -156 -130 -242t-341 -86zM674 1499l256 -299h-236l-176 170l-176 -170h-236l256 299h312z" />
    <glyph glyph-name="Scedilla" unicode="&#x15e;" horiz-adv-x="1323" 
d="M596 -483q-88 0 -156 16v113q73 -13 115 -13q143 0 143 84q0 76 -123 76q-43 0 -63 -4v84l80 107q-245 21 -389 153t-150 363h273q10 -295 364 -295q136 0 218.5 55.5t82.5 155.5q0 56 -27 91.5t-108.5 68.5t-234.5 63q-276 51 -402.5 154t-126.5 298q0 184 150.5 298
t396.5 114q289 0 439.5 -132t158.5 -361h-266q-8 136 -88.5 202t-243.5 66q-120 0 -192 -48t-72 -130q0 -44 12 -73.5t48.5 -58t105.5 -51t180 -43.5q162 -30 270 -70.5t170 -97t87.5 -122.5t25.5 -156q0 -198 -146.5 -316.5t-388.5 -130.5l-88 -94h17q103 0 165 -45
t62 -121q0 -85 -75.5 -142.5t-223.5 -57.5z" />
    <glyph glyph-name="scedilla" unicode="&#x15f;" horiz-adv-x="1036" 
d="M449 -483q-88 0 -156 16v113q73 -13 115 -13q143 0 143 84q0 76 -123 76q-43 0 -63 -4v84l79 107q-385 29 -405 370h250q12 -103 72.5 -145.5t173.5 -42.5q94 0 150 33t56 92q0 41 -16.5 64.5t-70.5 44t-162 38.5q-164 28 -259.5 74.5t-132.5 108.5t-37 153
q0 149 120.5 234.5t320.5 85.5q225 0 344.5 -96.5t122.5 -266.5h-240q-7 176 -227 176q-83 0 -136 -32.5t-53 -90.5q0 -59 52.5 -88t210.5 -55q161 -26 254 -71.5t129 -107.5t36 -155q0 -143 -110 -227.5t-295 -98.5l-88 -94h16q103 0 165.5 -45t62.5 -121
q0 -85 -75.5 -142.5t-223.5 -57.5z" />
    <glyph glyph-name="Scaron" unicode="&#x160;" horiz-adv-x="1323" 
d="M682 -25q-284 0 -453.5 134.5t-175.5 386.5h273q10 -295 364 -295q136 0 218.5 55.5t82.5 155.5q0 56 -27 91.5t-108.5 68.5t-234.5 63q-276 51 -402.5 154t-126.5 298q0 184 150.5 298t396.5 114q289 0 439.5 -132t158.5 -361h-266q-8 136 -88.5 202t-243.5 66
q-120 0 -192 -48t-72 -130q0 -44 12 -73.5t48.5 -58t105.5 -51t180 -43.5q162 -30 270 -70.5t170 -97t87.5 -122.5t25.5 -156q0 -211 -163.5 -330t-428.5 -119zM508 1597l-256 299h235l177 -170l176 170h235l-256 -299h-311z" />
    <glyph glyph-name="scaron" unicode="&#x161;" horiz-adv-x="1036" 
d="M526 -25q-465 0 -487 375h250q12 -103 72.5 -145.5t173.5 -42.5q94 0 150 33t56 92q0 41 -16.5 64.5t-70.5 44t-162 38.5q-164 28 -259.5 74.5t-132.5 108.5t-37 153q0 149 120.5 234.5t320.5 85.5q225 0 344.5 -96.5t122.5 -266.5h-240q-7 176 -227 176
q-83 0 -136 -32.5t-53 -90.5q0 -59 52.5 -88t210.5 -55q161 -26 254 -71.5t129 -107.5t36 -155q0 -156 -130 -242t-341 -86zM362 1200l-256 299h236l176 -170l176 170h236l-256 -299h-312z" />
    <glyph glyph-name="uni0162" unicode="&#x162;" horiz-adv-x="1288" 
d="M504 0v1227h-471v248h1222v-248h-473v-1227h-67l-86 -92h16q103 0 165 -45t62 -121q0 -85 -75.5 -143t-223.5 -58q-83 0 -155 17v112q68 -12 114 -12q144 0 144 84q0 76 -123 76q-44 0 -64 -4v84l78 102h-63z" />
    <glyph glyph-name="uni0163" unicode="&#x163;" horiz-adv-x="798" 
d="M219 1393h256v-328h270v-199h-270v-567q0 -53 23.5 -76.5t79.5 -23.5h167v-199h-174l-86 -92h17q103 0 165 -45t62 -121q0 -85 -75.5 -143t-223.5 -58q-84 0 -156 17v112q68 -12 115 -12q143 0 143 84q0 76 -122 76q-44 0 -64 -4v84l82 108q-103 14 -156 76t-53 190v594
h-186v199h186v328z" />
    <glyph glyph-name="Tcaron" unicode="&#x164;" horiz-adv-x="1288" 
d="M504 0v1227h-471v248h1222v-248h-473v-1227h-278zM489 1573l-256 299h236l176 -170l176 170h236l-256 -299h-312z" />
    <glyph glyph-name="tcaron" unicode="&#x165;" horiz-adv-x="798" 
d="M219 1393h256v-328h270v-199h-270v-567q0 -53 23.5 -76.5t79.5 -23.5h167v-199h-231q-146 0 -220.5 60t-74.5 212v594h-186v199h186v328zM541 1126l53 349h268l-143 -349h-178z" />
    <glyph glyph-name="Utilde" unicode="&#x168;" horiz-adv-x="1431" 
d="M717 -25q-282 0 -446.5 151.5t-164.5 432.5v916h275v-916q0 -172 86.5 -257t249.5 -85q161 0 247.5 85t86.5 257v916h276v-916q0 -281 -164 -432.5t-446 -151.5zM342 1573q0 142 57.5 211t163.5 69q51 0 152 -45q8 -3 37.5 -17t52 -22t39.5 -8q34 0 49.5 21t15.5 71h178
q0 -280 -219 -280q-11 0 -22.5 1t-24 4.5t-21.5 5.5t-23 8t-20 8t-22 9t-20 9q-9 4 -37.5 17.5t-50.5 21.5t-39 8q-36 0 -52 -20.5t-16 -71.5h-178z" />
    <glyph glyph-name="utilde" unicode="&#x169;" 
d="M367 424q0 -103 49.5 -163t154.5 -60q37 0 74 11t74.5 36t64.5 73.5t33 114.5v629h258v-1065h-250v145q-128 -170 -336 -170q-181 0 -279.5 113t-98.5 305v672h256v-641zM219 1219q0 142 57.5 211t163.5 69q51 0 152 -45q8 -3 37.5 -17t52 -22t39.5 -8q34 0 49.5 21
t15.5 71h179q0 -280 -220 -280q-11 0 -22.5 1t-24 4.5t-21.5 5.5t-23 8t-20 8t-22 9t-20 9q-9 4 -37.5 17.5t-50.5 21.5t-39 8q-36 0 -52 -20.5t-16 -71.5h-178z" />
    <glyph glyph-name="Ubreve" unicode="&#x16c;" horiz-adv-x="1431" 
d="M717 -25q-282 0 -446.5 151.5t-164.5 432.5v916h275v-916q0 -172 86.5 -257t249.5 -85q161 0 247.5 85t86.5 257v916h276v-916q0 -281 -164 -432.5t-446 -151.5zM715 1561q-146 0 -239.5 82.5t-108.5 228.5h198q12 -141 150 -141q66 0 105.5 35.5t45.5 105.5h199
q-15 -147 -109 -229t-241 -82z" />
    <glyph glyph-name="ubreve" unicode="&#x16d;" 
d="M367 424q0 -103 49.5 -163t154.5 -60q37 0 74 11t74.5 36t64.5 73.5t33 114.5v629h258v-1065h-250v145q-128 -170 -336 -170q-181 0 -279.5 113t-98.5 305v672h256v-641zM592 1188q-146 0 -239.5 82.5t-108.5 228.5h198q12 -141 150 -141q66 0 105.5 35.5t45.5 105.5h199
q-15 -147 -109 -229t-241 -82z" />
    <glyph glyph-name="Uring" unicode="&#x16e;" horiz-adv-x="1431" 
d="M717 -25q-282 0 -446.5 151.5t-164.5 432.5v916h275v-916q0 -172 86.5 -257t249.5 -85q161 0 247.5 85t86.5 257v916h276v-916q0 -281 -164 -432.5t-446 -151.5zM717 1315q-124 0 -209.5 80.5t-85.5 199.5q0 118 86 199.5t209 81.5t209 -81.5t86 -199.5
q0 -119 -85.5 -199.5t-209.5 -80.5zM717 1475q53 0 88 33.5t35 86.5q0 52 -35 86.5t-88 34.5q-54 0 -88.5 -34t-34.5 -87q0 -54 34.5 -87t88.5 -33z" />
    <glyph glyph-name="uring" unicode="&#x16f;" 
d="M367 424q0 -103 49.5 -163t154.5 -60q37 0 74 11t74.5 36t64.5 73.5t33 114.5v629h258v-1065h-250v145q-128 -170 -336 -170q-181 0 -279.5 113t-98.5 305v672h256v-641zM594 1188q-124 0 -209.5 80.5t-85.5 199.5q0 118 86 199.5t209 81.5t209 -81.5t86 -199.5
q0 -119 -85.5 -199.5t-209.5 -80.5zM594 1348q53 0 88 33.5t35 86.5q0 52 -35 86.5t-88 34.5q-54 0 -88.5 -34t-34.5 -87q0 -54 34.5 -87t88.5 -33z" />
    <glyph glyph-name="Uogonek" unicode="&#x172;" horiz-adv-x="1431" 
d="M770 -434q-118 0 -189 48.5t-71 145.5q0 62 43.5 119t116.5 98q-262 12 -413 162.5t-151 419.5v916h275v-916q0 -172 86.5 -257t249.5 -85q161 0 247.5 85t86.5 257v916h276v-916q0 -225 -107 -368t-300 -191q-201 -104 -201 -190q0 -40 29 -60t77 -20q44 0 97 16v-158
q-65 -22 -152 -22z" />
    <glyph glyph-name="uogonek" unicode="&#x173;" 
d="M367 424q0 -103 49.5 -163t154.5 -60q37 0 74 11t74.5 36t64.5 73.5t33 114.5v629h258v-1065q-203 -104 -203 -190q0 -40 29.5 -60t77.5 -20q43 0 96 16v-158q-65 -22 -151 -22q-118 0 -189 48.5t-71 145.5q0 73 57 136.5t149 103.5h-45v145q-128 -170 -336 -170
q-181 0 -279.5 113t-98.5 305v672h256v-641z" />
    <glyph glyph-name="Wcircumflex" unicode="&#x174;" horiz-adv-x="2045" 
d="M1296 0l-274 1126l-274 -1126h-308l-420 1475h291l293 -1135l277 1135h284l277 -1135l293 1135h290l-419 -1475h-310zM1180 1872l256 -299h-236l-176 170l-176 -170h-236l256 299h312z" />
    <glyph glyph-name="wcircumflex" unicode="&#x175;" horiz-adv-x="1734" 
d="M1083 0l-215 750l-217 -750h-266l-373 1065h277l239 -762l215 762h248l215 -762l240 762h276l-372 -1065h-267zM1024 1499l256 -299h-236l-176 170l-176 -170h-235l256 299h311z" />
    <glyph glyph-name="Ycircumflex" unicode="&#x176;" horiz-adv-x="1449" 
d="M592 0v575l-572 900h316l395 -650l393 650h306l-564 -897v-578h-274zM887 1872l256 -299h-236l-176 170l-176 -170h-236l256 299h312z" />
    <glyph glyph-name="ycircumflex" unicode="&#x177;" horiz-adv-x="1099" 
d="M61 -410v211h168q75 0 105.5 26t56.5 101l25 62l-404 1075h277l262 -811l260 811h279l-439 -1186q-25 -69 -51.5 -117t-65.5 -89.5t-95 -62t-130 -20.5h-248zM707 1499l256 -299h-236l-176 170l-176 -170h-236l256 299h312z" />
    <glyph glyph-name="Ydieresis" unicode="&#x178;" horiz-adv-x="1449" 
d="M592 0v575l-572 900h316l395 -650l393 650h306l-564 -897v-578h-274zM397 1573v239h258v-239h-258zM807 1573v239h258v-239h-258z" />
    <glyph glyph-name="Zacute" unicode="&#x179;" horiz-adv-x="1302" 
d="M57 0v227l826 1006l-357 -6h-438v248h1147v-222l-832 -1011l363 6h479v-248h-1188zM555 1573l199 299h299l-287 -299h-211z" />
    <glyph glyph-name="zacute" unicode="&#x17a;" horiz-adv-x="1056" 
d="M78 0v176l563 684h-551v205h868v-176l-565 -684h586v-205h-901zM424 1200l199 299h299l-287 -299h-211z" />
    <glyph glyph-name="Zdotaccent" unicode="&#x17b;" horiz-adv-x="1302" 
d="M57 0v227l826 1006l-357 -6h-438v248h1147v-222l-832 -1011l363 6h479v-248h-1188zM532 1573v239h259v-239h-259z" />
    <glyph glyph-name="zdotaccent" unicode="&#x17c;" horiz-adv-x="1056" 
d="M78 0v176l563 684h-551v205h868v-176l-565 -684h586v-205h-901zM399 1235v240h258v-240h-258z" />
    <glyph glyph-name="Zcaron" unicode="&#x17d;" horiz-adv-x="1302" 
d="M57 0v227l826 1006l-357 -6h-438v248h1147v-222l-832 -1011l363 6h479v-248h-1188zM506 1573l-256 299h235l177 -170l176 170h235l-256 -299h-311z" />
    <glyph glyph-name="zcaron" unicode="&#x17e;" horiz-adv-x="1056" 
d="M78 0v176l563 684h-551v205h868v-176l-565 -684h586v-205h-901zM373 1200l-256 299h235l176 -170l177 170h235l-256 -299h-311z" />
    <glyph glyph-name="uni01CD" unicode="&#x1cd;" horiz-adv-x="1505" 
d="M1192 0l-123 336h-641l-123 -336h-285l570 1475h319l576 -1475h-293zM594 1573l-256 299h235l177 -170l176 170h235l-256 -299h-311zM514 571h469l-233 646z" />
    <glyph glyph-name="uni01CE" unicode="&#x1ce;" horiz-adv-x="1105" 
d="M780 0v123q-123 -148 -338 -148q-177 0 -283 85t-106 237q0 139 99.5 216.5t310.5 113.5l309 55v61q0 148 -194 148q-94 0 -156 -41.5t-66 -124.5h-254q1 92 39 163.5t103.5 114.5t149 65t181.5 22q222 0 335.5 -84t113.5 -234v-772h-244zM500 166q112 0 192 62.5
t80 185.5v94l-262 -53q-101 -21 -147 -52t-46 -98q0 -65 46 -102t137 -37zM408 1200l-256 299h235l176 -170l176 170h236l-256 -299h-311z" />
    <glyph glyph-name="uni01CF" unicode="&#x1cf;" horiz-adv-x="528" 
d="M127 0v1475h274v-1475h-274zM109 1573l-256 299h235l176 -170l176 170h236l-256 -299h-311z" />
    <glyph glyph-name="uni01D0" unicode="&#x1d0;" horiz-adv-x="473" 
d="M109 0v1065h256v-1065h-256zM82 1200l-256 299h235l177 -170l176 170h235l-256 -299h-311z" />
    <glyph glyph-name="uni01D1" unicode="&#x1d1;" horiz-adv-x="1589" 
d="M795 -25q-140 0 -259 39.5t-205 109.5t-146 166t-89.5 209t-29.5 238t29.5 238t89.5 209t146 166t205 109.5t259 39.5t258.5 -39.5t204.5 -109.5t146.5 -166t90 -209t29.5 -238t-29.5 -238t-90 -209t-146.5 -166t-204.5 -109.5t-258.5 -39.5zM795 221q112 0 198.5 41
t139 113t78.5 163.5t26 198.5t-26 198.5t-78.5 163.5t-139 113t-198.5 41t-199 -41t-139 -113t-78.5 -163.5t-26.5 -198.5t26.5 -198.5t78.5 -163.5t139 -113t199 -41zM639 1597l-256 299h235l177 -170l176 170h235l-256 -299h-311z" />
    <glyph glyph-name="uni01D2" unicode="&#x1d2;" horiz-adv-x="1208" 
d="M604 -25q-126 0 -228 42.5t-169.5 117t-104 176.5t-36.5 221q0 160 62 285t185.5 199t290.5 74t290.5 -73.5t186 -199t62.5 -285.5q0 -244 -144.5 -400.5t-394.5 -156.5zM604 190q138 0 207.5 91.5t69.5 250.5t-69.5 250.5t-207.5 91.5t-207 -91t-69 -251t69 -251
t207 -91zM449 1200l-256 299h235l176 -170l176 170h236l-256 -299h-311z" />
    <glyph glyph-name="uni01D3" unicode="&#x1d3;" horiz-adv-x="1431" 
d="M717 -25q-282 0 -446.5 151.5t-164.5 432.5v916h275v-916q0 -172 86.5 -257t249.5 -85q161 0 247.5 85t86.5 257v916h276v-916q0 -281 -164 -432.5t-446 -151.5zM561 1573l-256 299h236l176 -170l176 170h235l-256 -299h-311z" />
    <glyph glyph-name="uni01D4" unicode="&#x1d4;" 
d="M367 424q0 -103 49.5 -163t154.5 -60q37 0 74 11t74.5 36t64.5 73.5t33 114.5v629h258v-1065h-250v145q-128 -170 -336 -170q-181 0 -279.5 113t-98.5 305v672h256v-641zM438 1200l-256 299h236l176 -170l176 170h236l-256 -299h-312z" />
    <glyph glyph-name="Gcaron" unicode="&#x1e6;" horiz-adv-x="1599" 
d="M762 -25q-131 0 -243.5 39.5t-194.5 109.5t-141 165.5t-88 209.5t-29 238q0 125 29.5 238t89.5 209t146 166t205 109.5t259 39.5q188 0 335.5 -69.5t234 -187.5t112.5 -271h-283q-32 128 -136.5 206t-262.5 78q-112 0 -199 -41.5t-139 -113.5t-78.5 -164t-26.5 -199
t26.5 -199t78.5 -164t139 -113.5t199 -41.5q169 0 273 91.5t144 256.5h-479v226h760v-793h-207v258q-151 -283 -524 -283zM639 1597l-256 299h235l177 -170l176 170h235l-256 -299h-311z" />
    <glyph glyph-name="gcaron" unicode="&#x1e7;" horiz-adv-x="1239" 
d="M590 -434q-221 0 -345 98.5t-136 272.5h251q22 -170 238 -170q272 0 272 262v127q-116 -154 -327 -154q-225 0 -351 152t-126 393q0 156 54 277.5t163.5 193.5t259.5 72q220 0 336 -164v139h249v-1036q0 -116 -41.5 -206t-115 -145.5t-170 -83.5t-211.5 -28zM602 213
q136 0 204 89t68 245q0 155 -68.5 244.5t-203.5 89.5q-137 0 -205.5 -89.5t-68.5 -244.5q0 -156 68.5 -245t205.5 -89zM442 1200l-256 299h236l176 -170l176 170h236l-256 -299h-312z" />
    <glyph glyph-name="uni01E8" unicode="&#x1e8;" horiz-adv-x="1462" 
d="M127 0v1475h274v-721l695 721h346l-594 -598l594 -877h-330l-455 684l-256 -258v-426h-274zM594 1573l-256 299h235l177 -170l176 170h235l-256 -299h-311z" />
    <glyph glyph-name="uni01E9" unicode="&#x1e9;" horiz-adv-x="1140" 
d="M111 0v1475h258v-854l428 444h309l-404 -408l433 -657h-301l-310 477l-155 -158v-319h-258zM84 1573l-256 299h235l177 -170l176 170h235l-256 -299h-311z" />
    <glyph glyph-name="uni01EA" unicode="&#x1ea;" horiz-adv-x="1589" 
d="M795 221q112 0 198.5 41t139 113t78.5 163.5t26 198.5t-26 198.5t-78.5 163.5t-139 113t-198.5 41t-199 -41t-139 -113t-78.5 -163.5t-26.5 -198.5t26.5 -198.5t78.5 -163.5t139 -113t199 -41zM850 -434q-118 0 -189 48.5t-71 145.5q0 62 43.5 119t116.5 98
q-165 7 -296.5 70.5t-215.5 167t-128 237t-44 285.5q0 125 29.5 238t89.5 209t146 166t205 109.5t259 39.5t258.5 -39.5t204.5 -109.5t146.5 -166t90 -209t29.5 -238q0 -177 -58.5 -327t-178 -259t-286.5 -151q-202 -103 -202 -190q0 -40 29 -60t77 -20q43 0 96 16v-158
q-65 -22 -151 -22z" />
    <glyph glyph-name="uni01EB" unicode="&#x1eb;" horiz-adv-x="1208" 
d="M604 190q138 0 207.5 91.5t69.5 250.5t-69.5 250.5t-207.5 91.5t-207 -91t-69 -251t69 -251t207 -91zM631 -434q-118 0 -189 48.5t-71 145.5q0 64 44.5 121.5t119.5 98.5q-220 23 -344.5 174.5t-124.5 377.5q0 160 62 285t185.5 199t290.5 74t290.5 -73.5t186 -199
t62.5 -285.5q0 -196 -95 -338t-266 -194q-202 -103 -202 -190q0 -40 29 -60t77 -20q43 0 96 16v-158q-65 -22 -151 -22z" />
    <glyph glyph-name="uni01F4" unicode="&#x1f4;" horiz-adv-x="1599" 
d="M762 -25q-131 0 -243.5 39.5t-194.5 109.5t-141 165.5t-88 209.5t-29 238q0 125 29.5 238t89.5 209t146 166t205 109.5t259 39.5q188 0 335.5 -69.5t234 -187.5t112.5 -271h-283q-32 128 -136.5 206t-262.5 78q-112 0 -199 -41.5t-139 -113.5t-78.5 -164t-26.5 -199
t26.5 -199t78.5 -164t139 -113.5t199 -41.5q169 0 273 91.5t144 256.5h-479v226h760v-793h-207v258q-151 -283 -524 -283zM688 1597l199 299h299l-287 -299h-211z" />
    <glyph glyph-name="uni01F5" unicode="&#x1f5;" horiz-adv-x="1239" 
d="M590 -434q-221 0 -345 98.5t-136 272.5h251q22 -170 238 -170q272 0 272 262v127q-116 -154 -327 -154q-225 0 -351 152t-126 393q0 156 54 277.5t163.5 193.5t259.5 72q220 0 336 -164v139h249v-1036q0 -116 -41.5 -206t-115 -145.5t-170 -83.5t-211.5 -28zM602 213
q136 0 204 89t68 245q0 155 -68.5 244.5t-203.5 89.5q-137 0 -205.5 -89.5t-68.5 -244.5q0 -156 68.5 -245t205.5 -89zM492 1200l198 299h299l-287 -299h-210z" />
    <glyph glyph-name="uni01F8" unicode="&#x1f8;" horiz-adv-x="1501" 
d="M1069 0l-676 1098v-1098h-266v1475h307l674 -1098v1098h268v-1475h-307zM856 1573h-211l-287 299h299z" />
    <glyph glyph-name="uni01F9" unicode="&#x1f9;" 
d="M819 641q0 103 -50 163t-155 60q-37 0 -73.5 -11t-74.5 -36t-64.5 -73.5t-32.5 -114.5v-629h-258v1065h249v-145q128 170 336 170q181 0 280 -113.5t99 -304.5v-672h-256v641zM698 1200h-211l-286 299h299z" />
    <glyph glyph-name="uni0226" unicode="&#x226;" horiz-adv-x="1505" 
d="M1192 0l-123 336h-641l-123 -336h-285l570 1475h319l576 -1475h-293zM621 1573v239h258v-239h-258zM514 571h469l-233 646z" />
    <glyph glyph-name="uni0227" unicode="&#x227;" horiz-adv-x="1105" 
d="M780 0v123q-123 -148 -338 -148q-177 0 -283 85t-106 237q0 139 99.5 216.5t310.5 113.5l309 55v61q0 148 -194 148q-94 0 -156 -41.5t-66 -124.5h-254q1 92 39 163.5t103.5 114.5t149 65t181.5 22q222 0 335.5 -84t113.5 -234v-772h-244zM500 166q112 0 192 62.5
t80 185.5v94l-262 -53q-101 -21 -147 -52t-46 -98q0 -65 46 -102t137 -37zM434 1235v240h258v-240h-258z" />
    <glyph glyph-name="uni0228" unicode="&#x228;" horiz-adv-x="1265" 
d="M127 0v1475h1081v-248h-807v-350h748v-238h-748v-391h803v-248h-465l-86 -92h17q103 0 165 -45t62 -121q0 -85 -75.5 -143t-223.5 -58q-84 0 -156 17v112q68 -12 115 -12q143 0 143 84q0 76 -122 76q-44 0 -64 -4v84l78 102h-465z" />
    <glyph glyph-name="uni0229" unicode="&#x229;" horiz-adv-x="1181" 
d="M522 -483q-87 0 -155 16v113q73 -13 114 -13q144 0 144 84q0 76 -123 76q-44 0 -64 -4v84l80 107q-210 24 -331 176t-121 376q0 159 62 285t182.5 199.5t281.5 73.5q245 0 385.5 -157.5t140.5 -420.5v-61h-796q18 -127 87.5 -200t182.5 -73q183 0 254 148h252
q-46 -143 -158.5 -235.5t-271.5 -110.5l-90 -97h16q103 0 165 -45t62 -121q0 -85 -75.5 -142.5t-223.5 -57.5zM324 635h534q-21 119 -89 185.5t-177 66.5q-108 0 -177 -66.5t-91 -185.5z" />
    <glyph glyph-name="uni022E" unicode="&#x22e;" horiz-adv-x="1589" 
d="M795 -25q-140 0 -259 39.5t-205 109.5t-146 166t-89.5 209t-29.5 238t29.5 238t89.5 209t146 166t205 109.5t259 39.5t258.5 -39.5t204.5 -109.5t146.5 -166t90 -209t29.5 -238t-29.5 -238t-90 -209t-146.5 -166t-204.5 -109.5t-258.5 -39.5zM795 221q112 0 198.5 41
t139 113t78.5 163.5t26 198.5t-26 198.5t-78.5 163.5t-139 113t-198.5 41t-199 -41t-139 -113t-78.5 -163.5t-26.5 -198.5t26.5 -198.5t78.5 -163.5t139 -113t199 -41zM666 1597v240h258v-240h-258z" />
    <glyph glyph-name="uni022F" unicode="&#x22f;" horiz-adv-x="1208" 
d="M604 -25q-126 0 -228 42.5t-169.5 117t-104 176.5t-36.5 221q0 160 62 285t185.5 199t290.5 74t290.5 -73.5t186 -199t62.5 -285.5q0 -244 -144.5 -400.5t-394.5 -156.5zM604 190q138 0 207.5 91.5t69.5 250.5t-69.5 250.5t-207.5 91.5t-207 -91t-69 -251t69 -251
t207 -91zM475 1235v240h258v-240h-258z" />
    <glyph glyph-name="uni0237" unicode="&#x237;" horiz-adv-x="487" 
d="M381 -137q0 -153 -74.5 -213t-220.5 -60h-205v199h139q57 0 80 23t23 77v1176h258v-1202z" />
    <glyph glyph-name="circumflex" unicode="&#x2c6;" horiz-adv-x="823" 
d="M567 1499l256 -299h-235l-176 170l-176 -170h-236l256 299h311z" />
    <glyph glyph-name="caron" unicode="&#x2c7;" horiz-adv-x="823" 
d="M256 1200l-256 299h236l176 -170l176 170h235l-256 -299h-311z" />
    <glyph glyph-name="breve" unicode="&#x2d8;" horiz-adv-x="698" 
d="M348 1188q-146 0 -239.5 82.5t-108.5 228.5h199q12 -141 149 -141q66 0 106 35.5t46 105.5h198q-15 -147 -109 -229t-241 -82z" />
    <glyph glyph-name="dotaccent" unicode="&#x2d9;" horiz-adv-x="258" 
d="M0 1235v240h258v-240h-258z" />
    <glyph glyph-name="ring" unicode="&#x2da;" horiz-adv-x="589" 
d="M295 1188q-124 0 -209.5 80.5t-85.5 199.5q0 118 86 199.5t209 81.5t209 -81.5t86 -199.5q0 -119 -85.5 -199.5t-209.5 -80.5zM295 1348q53 0 88 33.5t35 86.5q0 52 -35 86.5t-88 34.5q-54 0 -88.5 -34t-34.5 -87q0 -54 34.5 -87t88.5 -33z" />
    <glyph glyph-name="ogonek" unicode="&#x2db;" horiz-adv-x="409" 
d="M260 -434q-118 0 -189 48.5t-71 145.5q0 79 67 146.5t171 105.5h155l19 -12q-203 -104 -203 -190q0 -40 29 -60t77 -20q44 0 97 16v-158q-65 -22 -152 -22z" />
    <glyph glyph-name="tilde" unicode="&#x2dc;" horiz-adv-x="745" 
d="M0 1219q0 142 57.5 211t163.5 69q51 0 152 -45q8 -3 37.5 -17t52 -22t39.5 -8q34 0 49.5 21t15.5 71h178q0 -280 -219 -280q-11 0 -22.5 1t-24 4.5t-21.5 5.5t-23 8t-20 8t-22 9t-20 9q-9 4 -37.5 17.5t-50.5 21.5t-39 8q-36 0 -52 -20.5t-16 -71.5h-178z" />
    <glyph glyph-name="gravecomb" unicode="&#x300;" horiz-adv-x="0" 
d="M498 1200h-211l-287 299h299z" />
    <glyph glyph-name="acutecomb" unicode="&#x301;" horiz-adv-x="0" 
d="M0 1200l199 299h299l-287 -299h-211z" />
    <glyph glyph-name="uni0302" unicode="&#x302;" horiz-adv-x="0" 
d="M567 1499l256 -299h-235l-176 170l-176 -170h-236l256 299h311z" />
    <glyph glyph-name="tildecomb" unicode="&#x303;" horiz-adv-x="0" 
d="M0 1219q0 142 57.5 211t163.5 69q51 0 152 -45q8 -3 37.5 -17t52 -22t39.5 -8q34 0 49.5 21t15.5 71h178q0 -280 -219 -280q-11 0 -22.5 1t-24 4.5t-21.5 5.5t-23 8t-20 8t-22 9t-20 9q-9 4 -37.5 17.5t-50.5 21.5t-39 8q-36 0 -52 -20.5t-16 -71.5h-178z" />
    <glyph glyph-name="uni0306" unicode="&#x306;" horiz-adv-x="0" 
d="M348 1188q-146 0 -239.5 82.5t-108.5 228.5h199q12 -141 149 -141q66 0 106 35.5t46 105.5h198q-15 -147 -109 -229t-241 -82z" />
    <glyph glyph-name="uni0307" unicode="&#x307;" horiz-adv-x="0" 
d="M0 1235v240h258v-240h-258z" />
    <glyph glyph-name="uni0308" unicode="&#x308;" horiz-adv-x="0" 
d="M0 1235v240h258v-240h-258zM410 1235v240h258v-240h-258z" />
    <glyph glyph-name="uni030A" unicode="&#x30a;" horiz-adv-x="0" 
d="M295 1188q-124 0 -209.5 80.5t-85.5 199.5q0 118 86 199.5t209 81.5t209 -81.5t86 -199.5q0 -119 -85.5 -199.5t-209.5 -80.5zM295 1348q53 0 88 33.5t35 86.5q0 52 -35 86.5t-88 34.5q-54 0 -88.5 -34t-34.5 -87q0 -54 34.5 -87t88.5 -33z" />
    <glyph glyph-name="uni030C" unicode="&#x30c;" horiz-adv-x="0" 
d="M256 1200l-256 299h236l176 -170l176 170h235l-256 -299h-311z" />
    <glyph glyph-name="dotbelowcomb" unicode="&#x323;" horiz-adv-x="0" 
d="M0 -410v240h258v-240h-258z" />
    <glyph glyph-name="uni0327" unicode="&#x327;" horiz-adv-x="0" 
d="M156 -459q-84 0 -156 17v112q68 -12 115 -12q143 0 143 84q0 76 -123 76q-43 0 -63 -4v84l86 114h151l-98 -104h16q103 0 165.5 -45t62.5 -121q0 -85 -75.5 -143t-223.5 -58z" />
    <glyph glyph-name="uni0328" unicode="&#x328;" horiz-adv-x="0" 
d="M260 -434q-118 0 -189 48.5t-71 145.5q0 79 67 146.5t171 105.5h155l19 -12q-203 -104 -203 -190q0 -40 29 -60t77 -20q44 0 97 16v-158q-65 -22 -152 -22z" />
    <glyph glyph-name="uni1E02" unicode="&#x1e02;" horiz-adv-x="1366" 
d="M127 0v1475h590q263 0 400.5 -106t137.5 -288q0 -206 -178 -305q118 -50 179 -140.5t61 -209.5q0 -202 -137 -314t-402 -112h-651zM532 1573v239h259v-239h-259zM401 231h377q256 0 256 203q0 205 -256 205h-377v-408zM401 862h324q129 0 193.5 50t64.5 141t-64.5 140.5
t-193.5 49.5h-324v-381z" />
    <glyph glyph-name="uni1E03" unicode="&#x1e03;" horiz-adv-x="1239" 
d="M111 0v1475h258v-543q116 158 327 158q150 0 260 -74t164 -199t54 -285t-54 -285t-163.5 -198.5t-260.5 -73.5q-221 0 -338 172v-147h-247zM637 190q137 0 205.5 91.5t68.5 250.5t-68.5 250.5t-205.5 91.5q-135 0 -203.5 -91.5t-68.5 -250.5t68.5 -250.5t203.5 -91.5z
M111 1573v239h258v-239h-258z" />
    <glyph glyph-name="uni1E0A" unicode="&#x1e0a;" horiz-adv-x="1478" 
d="M127 0v1475h545q149 0 271 -37t208.5 -103.5t146 -159t87.5 -202.5t28 -236q0 -158 -45.5 -290.5t-134.5 -233t-232.5 -157t-328.5 -56.5h-545zM569 1573v239h258v-239h-258zM401 240h271q117 0 206 38t142.5 106.5t79.5 157t26 195.5t-26 196t-79.5 157.5t-142.5 106.5
t-206 38h-271v-995z" />
    <glyph glyph-name="uni1E0B" unicode="&#x1e0b;" horiz-adv-x="1239" 
d="M1128 0h-247v147q-117 -172 -338 -172q-150 0 -259.5 73.5t-163.5 198.5t-54 285t54 285t163.5 199t259.5 74q211 0 327 -158v543h258v-1475zM602 190q135 0 203.5 91.5t68.5 250.5t-68.5 250.5t-203.5 91.5q-137 0 -205.5 -91.5t-68.5 -250.5t68.5 -250.5t205.5 -91.5z
M870 1573v239h258v-239h-258z" />
    <glyph glyph-name="uni1E1E" unicode="&#x1e1e;" horiz-adv-x="1204" 
d="M127 0v1475h1040v-248h-766v-350h727v-238h-727v-639h-274zM518 1573v239h258v-239h-258z" />
    <glyph glyph-name="uni1E1F" unicode="&#x1e1f;" horiz-adv-x="798" 
d="M219 1202q0 153 74.5 213t220.5 60h231v-199h-167q-56 0 -79.5 -23.5t-23.5 -76.5v-111h270v-199h-270v-866h-256v866h-186v199h186v137zM354 1645v239h258v-239h-258z" />
    <glyph glyph-name="uni1E22" unicode="&#x1e22;" horiz-adv-x="1488" 
d="M1087 0v631h-686v-631h-274v1475h274v-594h686v594h277v-1475h-277zM616 1573v239h258v-239h-258z" />
    <glyph glyph-name="uni1E23" unicode="&#x1e23;" 
d="M111 0v1475h258v-545q129 160 327 160q181 0 280 -113.5t99 -304.5v-672h-256v641q0 103 -50 163t-155 60q-37 0 -73.5 -11t-74.5 -36t-64.5 -73.5t-32.5 -114.5v-629h-258zM111 1573v239h258v-239h-258z" />
    <glyph glyph-name="uni1E28" unicode="&#x1e28;" horiz-adv-x="1488" 
d="M1087 0v631h-686v-631h-65l-86 -92h16q103 0 165.5 -45t62.5 -121q0 -85 -75.5 -143t-223.5 -58q-84 0 -156 17v112q68 -12 115 -12q143 0 143 84q0 76 -123 76q-43 0 -63 -4v84l77 102h-61v1475h274v-594h686v594h277v-1475h-277z" />
    <glyph glyph-name="uni1E29" unicode="&#x1e29;" 
d="M111 0v1475h258v-545q129 160 327 160q181 0 280 -113.5t99 -304.5v-672h-256v641q0 103 -50 163t-155 60q-37 0 -73.5 -11t-74.5 -36t-64.5 -73.5t-32.5 -114.5v-629h-58l-86 -92h17q103 0 165 -45t62 -121q0 -85 -75.5 -143t-223.5 -58q-84 0 -156 17v112
q67 -12 115 -12q143 0 143 84q0 76 -122 76q-44 0 -64 -4v84l78 102h-53z" />
    <glyph glyph-name="uni1E30" unicode="&#x1e30;" horiz-adv-x="1462" 
d="M127 0v1475h274v-721l695 721h346l-594 -598l594 -877h-330l-455 684l-256 -258v-426h-274zM643 1573l199 299h299l-287 -299h-211z" />
    <glyph glyph-name="uni1E31" unicode="&#x1e31;" horiz-adv-x="1140" 
d="M111 0v1475h258v-854l428 444h309l-404 -408l433 -657h-301l-310 477l-155 -158v-319h-258zM135 1573l199 299h299l-287 -299h-211z" />
    <glyph glyph-name="uni1E3E" unicode="&#x1e3e;" horiz-adv-x="1816" 
d="M791 0l-400 1114v-1114h-264v1475h395l387 -1145l385 1145h398v-1475h-267v1114l-399 -1114h-235zM803 1573l198 299h299l-286 -299h-211z" />
    <glyph glyph-name="uni1E3F" unicode="&#x1e3f;" horiz-adv-x="1810" 
d="M1444 641q0 101 -46 162t-136 61q-39 0 -76 -13t-72.5 -42.5t-57.5 -86.5t-22 -136v-586h-258v641q0 101 -46 162t-136 61q-38 0 -74.5 -13t-72 -42.5t-57 -87t-21.5 -135.5v-586h-258v1065h249v-147q111 172 316 172q111 0 192 -53t123 -148q58 91 147 146t205 55
q166 0 261.5 -114t95.5 -304v-672h-256v641zM801 1200l198 299h299l-286 -299h-211z" />
    <glyph glyph-name="uni1E40" unicode="&#x1e40;" horiz-adv-x="1816" 
d="M791 0l-400 1114v-1114h-264v1475h395l387 -1145l385 1145h398v-1475h-267v1114l-399 -1114h-235zM780 1573v239h258v-239h-258z" />
    <glyph glyph-name="uni1E41" unicode="&#x1e41;" horiz-adv-x="1810" 
d="M1444 641q0 101 -46 162t-136 61q-39 0 -76 -13t-72.5 -42.5t-57.5 -86.5t-22 -136v-586h-258v641q0 101 -46 162t-136 61q-38 0 -74.5 -13t-72 -42.5t-57 -87t-21.5 -135.5v-586h-258v1065h249v-147q111 172 316 172q111 0 192 -53t123 -148q58 91 147 146t205 55
q166 0 261.5 -114t95.5 -304v-672h-256v641zM776 1235v240h258v-240h-258z" />
    <glyph glyph-name="uni1E44" unicode="&#x1e44;" horiz-adv-x="1501" 
d="M1069 0l-676 1098v-1098h-266v1475h307l674 -1098v1098h268v-1475h-307zM623 1573v239h258v-239h-258z" />
    <glyph glyph-name="uni1E45" unicode="&#x1e45;" 
d="M819 641q0 103 -50 163t-155 60q-37 0 -73.5 -11t-74.5 -36t-64.5 -73.5t-32.5 -114.5v-629h-258v1065h249v-145q128 170 336 170q181 0 280 -113.5t99 -304.5v-672h-256v641zM465 1235v240h258v-240h-258z" />
    <glyph glyph-name="uni1E56" unicode="&#x1e56;" horiz-adv-x="1347" 
d="M127 0v1475h621q131 0 234.5 -36.5t169 -101.5t100 -151.5t34.5 -188.5t-34.5 -187.5t-100 -150t-169 -101t-234.5 -36.5h-347v-522h-274zM545 1573v239h258v-239h-258zM401 762h332q137 0 206 61t69 174t-69 175.5t-206 62.5h-332v-473z" />
    <glyph glyph-name="uni1E57" unicode="&#x1e57;" horiz-adv-x="1239" 
d="M111 1065h247v-147q117 172 338 172q150 0 260 -74t164 -199t54 -285t-54 -285t-163.5 -198.5t-260.5 -73.5q-211 0 -327 158v-543h-258v1475zM637 874q-135 0 -203.5 -91.5t-68.5 -250.5t68.5 -250.5t203.5 -91.5q137 0 205.5 91.5t68.5 250.5t-68.5 250.5t-205.5 91.5z
M514 1235v240h258v-240h-258z" />
    <glyph glyph-name="uni1E58" unicode="&#x1e58;" horiz-adv-x="1380" 
d="M127 0v1475h657q260 0 391.5 -117t131.5 -318q0 -109 -60 -200.5t-170 -153.5q87 -38 132 -105t61 -163l61 -418h-282l-50 354q-17 120 -76 175t-173 55h-349v-584h-274zM555 1573v239h258v-239h-258zM401 805h349q272 0 272 219q0 221 -272 221h-349v-440z" />
    <glyph glyph-name="uni1E59" unicode="&#x1e59;" horiz-adv-x="817" 
d="M111 0v1065h249v-191q97 203 322 203h84v-237h-94q-146 0 -224.5 -74t-78.5 -250v-516h-258zM309 1235v240h258v-240h-258z" />
    <glyph glyph-name="uni1E60" unicode="&#x1e60;" horiz-adv-x="1323" 
d="M682 -25q-284 0 -453.5 134.5t-175.5 386.5h273q10 -295 364 -295q136 0 218.5 55.5t82.5 155.5q0 56 -27 91.5t-108.5 68.5t-234.5 63q-276 51 -402.5 154t-126.5 298q0 184 150.5 298t396.5 114q289 0 439.5 -132t158.5 -361h-266q-8 136 -88.5 202t-243.5 66
q-120 0 -192 -48t-72 -130q0 -44 12 -73.5t48.5 -58t105.5 -51t180 -43.5q162 -30 270 -70.5t170 -97t87.5 -122.5t25.5 -156q0 -211 -163.5 -330t-428.5 -119zM535 1597v240h258v-240h-258z" />
    <glyph glyph-name="uni1E61" unicode="&#x1e61;" horiz-adv-x="1036" 
d="M526 -25q-465 0 -487 375h250q12 -103 72.5 -145.5t173.5 -42.5q94 0 150 33t56 92q0 41 -16.5 64.5t-70.5 44t-162 38.5q-164 28 -259.5 74.5t-132.5 108.5t-37 153q0 149 120.5 234.5t320.5 85.5q225 0 344.5 -96.5t122.5 -266.5h-240q-7 176 -227 176
q-83 0 -136 -32.5t-53 -90.5q0 -59 52.5 -88t210.5 -55q161 -26 254 -71.5t129 -107.5t36 -155q0 -156 -130 -242t-341 -86zM389 1235v240h258v-240h-258z" />
    <glyph glyph-name="uni1E6A" unicode="&#x1e6a;" horiz-adv-x="1288" 
d="M504 0v1227h-471v248h1222v-248h-473v-1227h-278zM516 1573v239h258v-239h-258z" />
    <glyph glyph-name="uni1E6B" unicode="&#x1e6b;" horiz-adv-x="798" 
d="M219 1393h256v-328h270v-199h-270v-567q0 -53 23.5 -76.5t79.5 -23.5h167v-199h-231q-146 0 -220.5 60t-74.5 212v594h-186v199h186v328zM219 1563v239h258v-239h-258z" />
    <glyph glyph-name="uni1E7C" unicode="&#x1e7c;" horiz-adv-x="1454" 
d="M569 0l-549 1475h293l418 -1219l410 1219h293l-547 -1475h-318zM354 1573q0 142 57.5 211t163.5 69q51 0 152 -45q8 -3 37.5 -17t52 -22t39.5 -8q34 0 50 21t16 71h178q0 -280 -219 -280q-11 0 -22.5 1t-25 4.5t-21 5.5t-23.5 8.5t-20 7.5t-22.5 9.5t-19.5 8.5
q-9 4 -37.5 17.5t-50.5 21.5t-39 8q-36 0 -52 -20.5t-16 -71.5h-178z" />
    <glyph glyph-name="uni1E7D" unicode="&#x1e7d;" horiz-adv-x="1124" 
d="M418 0l-406 1065h277l276 -823l271 823h278l-405 -1065h-291zM188 1219q0 142 58 211t164 69q50 0 151 -45q8 -3 37.5 -17t52 -22t39.5 -8q34 0 50 21t16 71h178q0 -280 -219 -280q-11 0 -22.5 1t-25 4.5t-21 5.5t-23.5 8.5t-20 7.5t-22.5 9.5t-19.5 8.5q-9 4 -37.5 17.5
t-50.5 21.5t-39 8q-36 0 -51.5 -20.5t-15.5 -71.5h-179z" />
    <glyph glyph-name="Wgrave" unicode="&#x1e80;" horiz-adv-x="2045" 
d="M1296 0l-274 1126l-274 -1126h-308l-420 1475h291l293 -1135l277 1135h284l277 -1135l293 1135h290l-419 -1475h-310zM1128 1573h-210l-287 299h299z" />
    <glyph glyph-name="wgrave" unicode="&#x1e81;" horiz-adv-x="1734" 
d="M1083 0l-215 750l-217 -750h-266l-373 1065h277l239 -762l215 762h248l215 -762l240 762h276l-372 -1065h-267zM973 1200h-211l-287 299h299z" />
    <glyph glyph-name="Wacute" unicode="&#x1e82;" horiz-adv-x="2045" 
d="M1296 0l-274 1126l-274 -1126h-308l-420 1475h291l293 -1135l277 1135h284l277 -1135l293 1135h290l-419 -1475h-310zM918 1573l198 299h299l-287 -299h-210z" />
    <glyph glyph-name="wacute" unicode="&#x1e83;" horiz-adv-x="1734" 
d="M1083 0l-215 750l-217 -750h-266l-373 1065h277l239 -762l215 762h248l215 -762l240 762h276l-372 -1065h-267zM762 1200l199 299h299l-287 -299h-211z" />
    <glyph glyph-name="Wdieresis" unicode="&#x1e84;" horiz-adv-x="2045" 
d="M1296 0l-274 1126l-274 -1126h-308l-420 1475h291l293 -1135l277 1135h284l277 -1135l293 1135h290l-419 -1475h-310zM690 1573v239h258v-239h-258zM1098 1573v239h258v-239h-258z" />
    <glyph glyph-name="wdieresis" unicode="&#x1e85;" horiz-adv-x="1734" 
d="M1083 0l-215 750l-217 -750h-266l-373 1065h277l239 -762l215 762h248l215 -762l240 762h276l-372 -1065h-267zM535 1235v240h258v-240h-258zM944 1235v240h258v-240h-258z" />
    <glyph glyph-name="uni1E86" unicode="&#x1e86;" horiz-adv-x="2045" 
d="M1296 0l-274 1126l-274 -1126h-308l-420 1475h291l293 -1135l277 1135h284l277 -1135l293 1135h290l-419 -1475h-310zM895 1573v239h258v-239h-258z" />
    <glyph glyph-name="uni1E87" unicode="&#x1e87;" horiz-adv-x="1734" 
d="M1083 0l-215 750l-217 -750h-266l-373 1065h277l239 -762l215 762h248l215 -762l240 762h276l-372 -1065h-267zM739 1235v240h258v-240h-258z" />
    <glyph glyph-name="uni1E8A" unicode="&#x1e8a;" horiz-adv-x="1382" 
d="M1042 0l-356 524l-356 -524h-310l512 752l-491 723h319l332 -488l330 488h311l-487 -715l516 -760h-320zM563 1573v239h258v-239h-258z" />
    <glyph glyph-name="uni1E8B" unicode="&#x1e8b;" horiz-adv-x="1087" 
d="M784 0l-241 342l-244 -342h-291l389 545l-370 520h295l223 -311l221 311h291l-367 -516l389 -549h-295zM416 1235v240h258v-240h-258z" />
    <glyph glyph-name="uni1E8E" unicode="&#x1e8e;" horiz-adv-x="1449" 
d="M592 0v575l-572 900h316l395 -650l393 650h306l-564 -897v-578h-274zM602 1573v239h258v-239h-258z" />
    <glyph glyph-name="uni1E8F" unicode="&#x1e8f;" horiz-adv-x="1099" 
d="M61 -410v211h168q75 0 105.5 26t56.5 101l25 62l-404 1075h277l262 -811l260 811h279l-439 -1186q-25 -69 -51.5 -117t-65.5 -89.5t-95 -62t-130 -20.5h-248zM422 1235v240h258v-240h-258z" />
    <glyph glyph-name="uni1EBC" unicode="&#x1ebc;" horiz-adv-x="1265" 
d="M127 0v1475h1081v-248h-807v-350h748v-238h-748v-391h803v-248h-1077zM295 1573q0 142 57.5 211t163.5 69q51 0 152 -45q8 -3 37.5 -17t52 -22t39.5 -8q34 0 49.5 21t15.5 71h178q0 -280 -219 -280q-11 0 -22.5 1t-24 4.5t-21.5 5.5t-23 8t-20 8t-22 9t-20 9
q-9 4 -37.5 17.5t-50.5 21.5t-39 8q-36 0 -52 -20.5t-16 -71.5h-178z" />
    <glyph glyph-name="uni1EBD" unicode="&#x1ebd;" horiz-adv-x="1181" 
d="M592 -25q-161 0 -281.5 73.5t-182.5 199t-62 284.5t62 285t182.5 199.5t281.5 73.5q245 0 385.5 -157.5t140.5 -420.5v-61h-796q18 -127 87.5 -200t182.5 -73q183 0 254 148h252q-54 -162 -186.5 -256.5t-319.5 -94.5zM217 1219q0 142 57.5 211t163.5 69q51 0 152 -45
q8 -3 37.5 -17t52 -22t39.5 -8q34 0 49.5 21t15.5 71h179q0 -280 -220 -280q-11 0 -22.5 1t-24 4.5t-21.5 5.5t-23 8t-20 8t-22 9t-20 9q-9 4 -37.5 17.5t-50.5 21.5t-39 8q-36 0 -52 -20.5t-16 -71.5h-178zM324 635h534q-21 119 -89 185.5t-177 66.5q-108 0 -177 -66.5
t-91 -185.5z" />
    <glyph glyph-name="Ygrave" unicode="&#x1ef2;" horiz-adv-x="1449" 
d="M592 0v575l-572 900h316l395 -650l393 650h306l-564 -897v-578h-274zM836 1573h-211l-287 299h299z" />
    <glyph glyph-name="ygrave" unicode="&#x1ef3;" horiz-adv-x="1099" 
d="M61 -410v211h168q75 0 105.5 26t56.5 101l25 62l-404 1075h277l262 -811l260 811h279l-439 -1186q-25 -69 -51.5 -117t-65.5 -89.5t-95 -62t-130 -20.5h-248zM655 1200h-211l-286 299h299z" />
    <glyph glyph-name="uni1EF8" unicode="&#x1ef8;" horiz-adv-x="1449" 
d="M592 0v575l-572 900h316l395 -650l393 650h306l-564 -897v-578h-274zM358 1573q0 142 58 211t164 69q50 0 151 -45q8 -3 37.5 -17t52 -22t39.5 -8q34 0 50 21t16 71h178q0 -280 -219 -280q-11 0 -22.5 1t-25 4.5t-21 5.5t-23.5 8.5t-20 7.5t-22.5 9.5t-19.5 8.5
q-9 4 -37.5 17.5t-50.5 21.5t-39 8q-36 0 -51.5 -20.5t-15.5 -71.5h-179z" />
    <glyph glyph-name="uni1EF9" unicode="&#x1ef9;" horiz-adv-x="1099" 
d="M61 -410v211h168q75 0 105.5 26t56.5 101l25 62l-404 1075h277l262 -811l260 811h279l-439 -1186q-25 -69 -51.5 -117t-65.5 -89.5t-95 -62t-130 -20.5h-248zM176 1219q0 142 57.5 211t163.5 69q51 0 152 -45q8 -3 37.5 -17t52 -22t39.5 -8q34 0 49.5 21t15.5 71h179
q0 -280 -220 -280q-11 0 -22.5 1t-24 4.5t-21.5 5.5t-23 8t-20 8t-22 9t-20 9q-9 4 -37.5 17.5t-50.5 21.5t-39 8q-36 0 -52 -20.5t-16 -71.5h-178z" />
    <glyph glyph-name="endash" unicode="&#x2013;" horiz-adv-x="1105" 
d="M74 479v223h958v-223h-958z" />
    <glyph glyph-name="emdash" unicode="&#x2014;" horiz-adv-x="2011" 
d="M74 483v222h1863v-222h-1863z" />
    <glyph glyph-name="quoteleft" unicode="&#x2018;" horiz-adv-x="522" 
d="M358 856h-272l205 619h194z" />
    <glyph glyph-name="quoteright" unicode="&#x2019;" horiz-adv-x="522" 
d="M164 1475h272l-205 -619h-194z" />
    <glyph glyph-name="quotesinglbase" unicode="&#x201a;" horiz-adv-x="522" 
d="M164 317h272l-205 -618h-194z" />
    <glyph glyph-name="quotedblleft" unicode="&#x201c;" horiz-adv-x="880" 
d="M717 856h-273l205 619h195zM358 856h-272l205 619h194z" />
    <glyph glyph-name="quotedblright" unicode="&#x201d;" horiz-adv-x="880" 
d="M164 1475h272l-205 -619h-194zM522 1475h273l-205 -619h-195z" />
    <glyph glyph-name="quotedblbase" unicode="&#x201e;" horiz-adv-x="880" 
d="M164 317h272l-205 -618h-194zM522 317h273l-205 -618h-195z" />
    <glyph glyph-name="dagger" unicode="&#x2020;" horiz-adv-x="1228" 
d="M477 -410v1235h-440v240h440v410h275v-410h440v-240h-440v-1235h-275z" />
    <glyph glyph-name="daggerdbl" unicode="&#x2021;" horiz-adv-x="1228" 
d="M477 -410v410h-440v240h440v585h-440v240h440v410h275v-410h440v-240h-440v-585h440v-240h-440v-410h-275z" />
    <glyph glyph-name="ellipsis" unicode="&#x2026;" horiz-adv-x="1501" 
d="M86 0v317h293v-317h-293zM604 0v317h293v-317h-293zM1122 0v317h293v-317h-293z" />
    <glyph glyph-name="perthousand" unicode="&#x2030;" horiz-adv-x="2650" 
d="M406 614q-177 0 -269 122.5t-92 320.5t92 320t269 122q176 0 267 -122t91 -320t-91 -320.5t-267 -122.5zM406 782q153 0 153 275q0 274 -153 274q-156 0 -156 -274q0 -275 156 -275zM438 0l783 1475h190l-782 -1475h-191zM1444 -25q-177 0 -269 122.5t-92 320.5t92 320
t269 122q176 0 267 -122t91 -320t-91 -320.5t-267 -122.5zM1444 143q153 0 153 275q0 274 -153 274q-156 0 -156 -274q0 -275 156 -275zM2245 -25q-177 0 -269 122.5t-92 320.5t92 320t269 122q176 0 267 -122t91 -320t-91 -320.5t-267 -122.5zM2245 143q153 0 153 275
q0 274 -153 274q-156 0 -156 -274q0 -275 156 -275z" />
    <glyph glyph-name="Euro" unicode="&#x20ac;" horiz-adv-x="1492" 
d="M819 -25q-134 0 -245 41.5t-189 117t-129 175t-74 219.5h-182v156h166l-2 53l4 88h-168v156h190q27 114 79 207.5t128.5 163.5t184 108.5t237.5 38.5q133 0 242 -40t183 -111t120.5 -162.5t65.5 -200.5h-277q-30 121 -112 194.5t-222 73.5q-261 0 -338 -272h379v-156
h-405l-4 -88l2 -53h407v-156h-389q33 -143 118 -225t230 -82q149 0 232 84.5t110 222.5h275q-15 -116 -60.5 -214.5t-120 -175t-186.5 -120t-250 -43.5z" />
    <glyph glyph-name="uni20BF" unicode="&#x20bf;" horiz-adv-x="1366" 
d="M406 -233v233h-279v1475h279v233h153v-233h158h2v233h155v-246q187 -29 284 -129t97 -252q0 -206 -178 -305q118 -50 179 -140.5t61 -209.5q0 -183 -112.5 -292.5t-330.5 -129.5v-237h-155v233h-160v-233h-153zM401 231h377q256 0 256 203q0 205 -256 205h-377v-408z
M401 862h324q129 0 193.5 50t64.5 141t-64.5 140.5t-193.5 49.5h-324v-381z" />
    <glyph glyph-name="uni2117" unicode="&#x2117;" horiz-adv-x="1697" 
d="M850 -25q-165 0 -309 57t-247.5 156.5t-163.5 242t-60 306.5t60 306.5t163.5 242t247.5 156.5t309 57t309 -57t247.5 -156.5t163.5 -242t60 -306.5t-60 -306.5t-163.5 -242t-247.5 -156.5t-309 -57zM850 160q258 0 420 158t162 419t-162 419.5t-420 158.5t-420 -158.5
t-162 -419.5t162 -419t420 -158zM918 1139q146 0 225.5 -74.5t79.5 -192.5q0 -119 -79.5 -192.5t-225.5 -73.5h-168v-270h-181v803h349zM907 760q133 0 133 112q0 113 -133 113h-157v-225h157z" />
    <glyph glyph-name="uni2120" unicode="&#x2120;" horiz-adv-x="1318" 
d="M618 885v590h189l133 -424l133 424h189v-590h-123v434l-146 -434h-106l-146 434v-434h-123zM311 874q-118 0 -185.5 55t-68.5 154h125q2 -106 133 -106q51 0 81 19t30 55q0 30 -27.5 47.5t-113.5 31.5q-112 19 -163.5 62.5t-51.5 122.5q0 75 62 122.5t165 47.5
q115 0 177 -52.5t67 -146.5h-123q-3 96 -121 96q-45 0 -70.5 -16.5t-25.5 -46.5q0 -31 26 -49.5t105 -32.5q126 -21 175.5 -63t49.5 -117q0 -87 -68.5 -135t-177.5 -48z" />
    <glyph glyph-name="trademark" unicode="&#x2122;" horiz-adv-x="1314" 
d="M614 885v590h189l133 -422l133 422h188v-590h-122v434l-144 -434h-108l-146 440v-440h-123zM242 885v475h-185v115h496v-115h-184v-475h-127z" />
    <glyph glyph-name="arrowleft" unicode="&#x2190;" horiz-adv-x="1974" 
d="M1749 616h-1087l550 -616h-327l-660 737l660 738h327l-550 -617h1087v-242z" />
    <glyph glyph-name="arrowup" unicode="&#x2191;" horiz-adv-x="1925" 
d="M1083 -25h-241v1088l-617 -551v328l738 659l737 -659v-328l-617 551v-1088z" />
    <glyph glyph-name="arrowright" unicode="&#x2192;" horiz-adv-x="1974" 
d="M225 616v242h1088l-551 617h328l659 -738l-659 -737h-328l551 616h-1088z" />
    <glyph glyph-name="arrowdown" unicode="&#x2193;" horiz-adv-x="1925" 
d="M1083 1499v-1087l617 551v-328l-737 -660l-738 660v328l617 -551v1087h241z" />
    <glyph glyph-name="arrowboth" unicode="&#x2194;" horiz-adv-x="2457" 
d="M811 0l-586 737l586 738h303l-489 -617h1208l-490 617h304l585 -738l-585 -737h-304l490 616h-1208l489 -616h-303z" />
    <glyph glyph-name="arrowupdn" unicode="&#x2195;" horiz-adv-x="1925" 
d="M1700 903l-617 490v-1311l617 489v-303l-737 -585l-738 585v303l617 -489v1311l-617 -490v303l738 586l737 -586v-303z" />
    <glyph glyph-name="uni2196" unicode="&#x2196;" horiz-adv-x="1970" 
d="M1454 96l-905 905v-942l-242 242v1114h1114l242 -241h-944l907 -908z" />
    <glyph glyph-name="uni2197" unicode="&#x2197;" horiz-adv-x="1970" 
d="M516 96l-172 170l907 908h-944l242 241h1114v-1114l-242 -242v942z" />
    <glyph glyph-name="uni2198" unicode="&#x2198;" horiz-adv-x="1970" 
d="M516 1378l905 -905v942l242 -241v-1115h-1114l-242 242h944l-907 907z" />
    <glyph glyph-name="uni2199" unicode="&#x2199;" horiz-adv-x="1970" 
d="M1454 1378l172 -170l-907 -907h944l-242 -242h-1114v1115l242 241v-942z" />
    <glyph glyph-name="minus" unicode="&#x2212;" horiz-adv-x="1105" 
d="M74 625v223h958v-223h-958z" />
    <glyph glyph-name="lessequal" unicode="&#x2264;" horiz-adv-x="1105" 
d="M74 881l958 356v-238l-704 -235l704 -238v-237l-958 356v236zM1032 -4h-958v211h958v-211z" />
    <glyph glyph-name="greaterequal" unicode="&#x2265;" horiz-adv-x="1105" 
d="M1032 645l-958 -356v237l704 238l-704 235v238l958 -356v-236zM74 -4v211h958v-211h-958z" />
    <glyph glyph-name="filledbox" unicode="&#x25a0;" horiz-adv-x="1892" 
d="M0 1659h1892v-1843h-1892v1843z" />
    <glyph glyph-name="uni25A1" unicode="&#x25a1;" horiz-adv-x="1892" 
d="M0 -184v1843h1892v-1843h-1892zM227 18h1438v1438h-1438v-1438z" />
    <glyph glyph-name="triagup" unicode="&#x25b2;" horiz-adv-x="1941" 
d="M0 -209l971 1892l971 -1892h-1942z" />
    <glyph glyph-name="uni25B3" unicode="&#x25b3;" horiz-adv-x="1941" 
d="M0 -209l971 1892l971 -1892h-1942zM334 -6h1274l-637 1249z" />
    <glyph glyph-name="uni25B6" unicode="&#x25b6;" horiz-adv-x="1941" 
d="M25 1708l1892 -971l-1892 -970v1941z" />
    <glyph glyph-name="uni25B7" unicode="&#x25b7;" horiz-adv-x="1941" 
d="M25 1708l1892 -971l-1892 -970v1941zM227 100l1250 637l-1250 637v-1274z" />
    <glyph glyph-name="triagdn" unicode="&#x25bc;" horiz-adv-x="1941" 
d="M0 1683h1942l-971 -1892z" />
    <glyph glyph-name="uni25BD" unicode="&#x25bd;" horiz-adv-x="1941" 
d="M0 1683h1942l-971 -1892zM334 1481l637 -1250l637 1250h-1274z" />
    <glyph glyph-name="uni25C0" unicode="&#x25c0;" horiz-adv-x="1941" 
d="M1917 -233l-1892 970l1892 971v-1941z" />
    <glyph glyph-name="uni25C1" unicode="&#x25c1;" horiz-adv-x="1941" 
d="M1917 -233l-1892 970l1892 971v-1941zM465 737l1249 -637v1274z" />
    <glyph glyph-name="circle" unicode="&#x25cb;" horiz-adv-x="1941" 
d="M971 -209q-198 0 -378 75t-309.5 201.5t-206.5 302t-77 367.5t77 367.5t206.5 302t309.5 201.5t378 75t378 -75t309.5 -201.5t206.5 -302t77 -367.5t-77 -367.5t-206.5 -302t-309.5 -201.5t-378 -75zM971 2q152 0 290 58t237.5 156.5t158.5 234.5t59 286t-59 286
t-158.5 234.5t-237.5 157t-290 58.5t-290 -58.5t-238 -157t-159 -234.5t-59 -286q0 -200 100 -369t271.5 -267.5t374.5 -98.5z" />
    <glyph glyph-name="uni25CF" unicode="&#x25cf;" horiz-adv-x="1941" 
d="M971 -209q-198 0 -378 75t-309.5 201.5t-206.5 302t-77 367.5t77 367.5t206.5 302t309.5 201.5t378 75t378 -75t309.5 -201.5t206.5 -302t77 -367.5t-77 -367.5t-206.5 -302t-309.5 -201.5t-378 -75z" />
    <glyph glyph-name="uni004A0301" horiz-adv-x="1146" 
d="M545 -25q-237 0 -362.5 134t-125.5 364v82h267v-82q0 -127 53 -192.5t168 -65.5t168 65.5t53 192.5v1002h274v-1002q0 -229 -128.5 -363.5t-366.5 -134.5zM797 1573l198 299h299l-286 -299h-211z" />
    <glyph glyph-name="G.ss06" horiz-adv-x="1570" 
d="M795 -25q-140 0 -259 39.5t-205 109.5t-146 166t-89.5 209t-29.5 238t29.5 238t89.5 209t146 166t205 109.5t259 39.5q275 0 450.5 -142.5t235.5 -379.5h-281q-45 127 -148 201.5t-257 74.5q-112 0 -199 -41t-139 -113t-78.5 -163.5t-26.5 -198.5t26.5 -198.5
t78.5 -163.5t139 -113t199 -41q182 0 287.5 99t136.5 266h-486v227h768q4 -25 4 -76q0 -126 -27.5 -238.5t-85.5 -208.5t-141 -166t-199.5 -109.5t-256.5 -39.5z" />
    <glyph glyph-name="uni01F4.ss06" horiz-adv-x="1570" 
d="M795 -25q-140 0 -259 39.5t-205 109.5t-146 166t-89.5 209t-29.5 238t29.5 238t89.5 209t146 166t205 109.5t259 39.5q275 0 450.5 -142.5t235.5 -379.5h-281q-45 127 -148 201.5t-257 74.5q-112 0 -199 -41t-139 -113t-78.5 -163.5t-26.5 -198.5t26.5 -198.5
t78.5 -163.5t139 -113t199 -41q182 0 287.5 99t136.5 266h-486v227h768q4 -25 4 -76q0 -126 -27.5 -238.5t-85.5 -208.5t-141 -166t-199.5 -109.5t-256.5 -39.5zM688 1597l199 299h299l-287 -299h-211z" />
    <glyph glyph-name="Gbreve.ss06" horiz-adv-x="1570" 
d="M795 -25q-140 0 -259 39.5t-205 109.5t-146 166t-89.5 209t-29.5 238t29.5 238t89.5 209t146 166t205 109.5t259 39.5q275 0 450.5 -142.5t235.5 -379.5h-281q-45 127 -148 201.5t-257 74.5q-112 0 -199 -41t-139 -113t-78.5 -163.5t-26.5 -198.5t26.5 -198.5
t78.5 -163.5t139 -113t199 -41q182 0 287.5 99t136.5 266h-486v227h768q4 -25 4 -76q0 -126 -27.5 -238.5t-85.5 -208.5t-141 -166t-199.5 -109.5t-256.5 -39.5zM793 1585q-146 0 -240 82.5t-109 228.5h199q12 -141 150 -141q66 0 105.5 35.5t45.5 105.5h199
q-15 -147 -109 -229t-241 -82z" />
    <glyph glyph-name="Gcaron.ss06" horiz-adv-x="1570" 
d="M795 -25q-140 0 -259 39.5t-205 109.5t-146 166t-89.5 209t-29.5 238t29.5 238t89.5 209t146 166t205 109.5t259 39.5q275 0 450.5 -142.5t235.5 -379.5h-281q-45 127 -148 201.5t-257 74.5q-112 0 -199 -41t-139 -113t-78.5 -163.5t-26.5 -198.5t26.5 -198.5
t78.5 -163.5t139 -113t199 -41q182 0 287.5 99t136.5 266h-486v227h768q4 -25 4 -76q0 -126 -27.5 -238.5t-85.5 -208.5t-141 -166t-199.5 -109.5t-256.5 -39.5zM639 1597l-256 299h235l177 -170l176 170h235l-256 -299h-311z" />
    <glyph glyph-name="Gcircumflex.ss06" horiz-adv-x="1570" 
d="M795 -25q-140 0 -259 39.5t-205 109.5t-146 166t-89.5 209t-29.5 238t29.5 238t89.5 209t146 166t205 109.5t259 39.5q275 0 450.5 -142.5t235.5 -379.5h-281q-45 127 -148 201.5t-257 74.5q-112 0 -199 -41t-139 -113t-78.5 -163.5t-26.5 -198.5t26.5 -198.5
t78.5 -163.5t139 -113t199 -41q182 0 287.5 99t136.5 266h-486v227h768q4 -25 4 -76q0 -126 -27.5 -238.5t-85.5 -208.5t-141 -166t-199.5 -109.5t-256.5 -39.5zM950 1896l256 -299h-235l-176 170l-177 -170h-235l256 299h311z" />
    <glyph glyph-name="Gdotaccent.ss06" horiz-adv-x="1570" 
d="M795 -25q-140 0 -259 39.5t-205 109.5t-146 166t-89.5 209t-29.5 238t29.5 238t89.5 209t146 166t205 109.5t259 39.5q275 0 450.5 -142.5t235.5 -379.5h-281q-45 127 -148 201.5t-257 74.5q-112 0 -199 -41t-139 -113t-78.5 -163.5t-26.5 -198.5t26.5 -198.5
t78.5 -163.5t139 -113t199 -41q182 0 287.5 99t136.5 266h-486v227h768q4 -25 4 -76q0 -126 -27.5 -238.5t-85.5 -208.5t-141 -166t-199.5 -109.5t-256.5 -39.5zM666 1597v240h258v-240h-258z" />
    <glyph glyph-name="J.ss07" horiz-adv-x="827" 
d="M57 0v225h183q117 0 161.5 51.5t44.5 174.5v1024h277v-1059q0 -217 -103 -316.5t-301 -99.5h-262z" />
    <glyph glyph-name="uni004A0301.ss07" horiz-adv-x="827" 
d="M57 0v225h183q117 0 161.5 51.5t44.5 174.5v1024h277v-1059q0 -217 -103 -316.5t-301 -99.5h-262zM479 1573l199 299h299l-287 -299h-211z" />
    <glyph glyph-name="Jcircumflex.ss07" horiz-adv-x="827" 
d="M57 0v225h183q117 0 161.5 51.5t44.5 174.5v1024h277v-1059q0 -217 -103 -316.5t-301 -99.5h-262zM741 1872l256 -299h-235l-176 170l-176 -170h-236l256 299h311z" />
    <glyph glyph-name="R.ss08" horiz-adv-x="1372" 
d="M127 0v1475h641q131 0 234.5 -36.5t169.5 -100t100.5 -148.5t34.5 -184q0 -154 -87 -269t-245 -166l381 -571h-314l-342 539h-299v-539h-274zM401 770h353q137 0 205.5 61.5t68.5 174.5t-68.5 175t-205.5 62h-353v-473z" />
    <glyph glyph-name="Racute.ss08" horiz-adv-x="1372" 
d="M127 0v1475h641q131 0 234.5 -36.5t169.5 -100t100.5 -148.5t34.5 -184q0 -154 -87 -269t-245 -166l381 -571h-314l-342 539h-299v-539h-274zM580 1573l198 299h299l-286 -299h-211zM401 770h353q137 0 205.5 61.5t68.5 174.5t-68.5 175t-205.5 62h-353v-473z" />
    <glyph glyph-name="Rcaron.ss08" horiz-adv-x="1372" 
d="M127 0v1475h641q131 0 234.5 -36.5t169.5 -100t100.5 -148.5t34.5 -184q0 -154 -87 -269t-245 -166l381 -571h-314l-342 539h-299v-539h-274zM528 1573l-256 299h236l176 -170l176 170h236l-256 -299h-312zM401 770h353q137 0 205.5 61.5t68.5 174.5t-68.5 175t-205.5 62
h-353v-473z" />
    <glyph glyph-name="uni1E58.ss08" horiz-adv-x="1372" 
d="M127 0v1475h641q131 0 234.5 -36.5t169.5 -100t100.5 -148.5t34.5 -184q0 -154 -87 -269t-245 -166l381 -571h-314l-342 539h-299v-539h-274zM555 1573v239h258v-239h-258zM401 770h353q137 0 205.5 61.5t68.5 174.5t-68.5 175t-205.5 62h-353v-473z" />
    <glyph glyph-name="uni006A0301" horiz-adv-x="487" 
d="M381 -137q0 -153 -74.5 -213t-220.5 -60h-205v199h139q57 0 80 23t23 77v1176h258v-1202zM145 1200l199 299h299l-287 -299h-211z" />
    <glyph glyph-name="a.ss01" horiz-adv-x="1245" 
d="M1174 0h-248v147q-117 -172 -338 -172q-150 0 -259.5 73.5t-163.5 198.5t-54 285t54 285t163.5 199t259.5 74q215 0 330 -160v135h256v-1065zM647 190q136 0 204.5 91.5t68.5 250.5t-68.5 250.5t-204.5 91.5q-137 0 -205.5 -91.5t-68.5 -250.5t68.5 -250.5t205.5 -91.5z
" />
    <glyph glyph-name="aacute.ss01" horiz-adv-x="1245" 
d="M1174 0h-248v147q-117 -172 -338 -172q-150 0 -259.5 73.5t-163.5 198.5t-54 285t54 285t163.5 199t259.5 74q215 0 330 -160v135h256v-1065zM647 190q136 0 204.5 91.5t68.5 250.5t-68.5 250.5t-204.5 91.5q-137 0 -205.5 -91.5t-68.5 -250.5t68.5 -250.5t205.5 -91.5z
M537 1200l198 299h299l-286 -299h-211z" />
    <glyph glyph-name="abreve.ss01" horiz-adv-x="1245" 
d="M1174 0h-248v147q-117 -172 -338 -172q-150 0 -259.5 73.5t-163.5 198.5t-54 285t54 285t163.5 199t259.5 74q215 0 330 -160v135h256v-1065zM647 190q136 0 204.5 91.5t68.5 250.5t-68.5 250.5t-204.5 91.5q-137 0 -205.5 -91.5t-68.5 -250.5t68.5 -250.5t205.5 -91.5z
M641 1188q-146 0 -239.5 82.5t-108.5 228.5h199q12 -141 149 -141q66 0 106 35.5t46 105.5h198q-15 -147 -109 -229t-241 -82z" />
    <glyph glyph-name="uni01CE.ss01" horiz-adv-x="1245" 
d="M1174 0h-248v147q-117 -172 -338 -172q-150 0 -259.5 73.5t-163.5 198.5t-54 285t54 285t163.5 199t259.5 74q215 0 330 -160v135h256v-1065zM647 190q136 0 204.5 91.5t68.5 250.5t-68.5 250.5t-204.5 91.5q-137 0 -205.5 -91.5t-68.5 -250.5t68.5 -250.5t205.5 -91.5z
M487 1200l-256 299h236l176 -170l176 170h236l-256 -299h-312z" />
    <glyph glyph-name="acircumflex.ss01" horiz-adv-x="1245" 
d="M1174 0h-248v147q-117 -172 -338 -172q-150 0 -259.5 73.5t-163.5 198.5t-54 285t54 285t163.5 199t259.5 74q215 0 330 -160v135h256v-1065zM647 190q136 0 204.5 91.5t68.5 250.5t-68.5 250.5t-204.5 91.5q-137 0 -205.5 -91.5t-68.5 -250.5t68.5 -250.5t205.5 -91.5z
M799 1499l256 -299h-236l-176 170l-176 -170h-236l256 299h312z" />
    <glyph glyph-name="adieresis.ss01" horiz-adv-x="1245" 
d="M1174 0h-248v147q-117 -172 -338 -172q-150 0 -259.5 73.5t-163.5 198.5t-54 285t54 285t163.5 199t259.5 74q215 0 330 -160v135h256v-1065zM647 190q136 0 204.5 91.5t68.5 250.5t-68.5 250.5t-204.5 91.5q-137 0 -205.5 -91.5t-68.5 -250.5t68.5 -250.5t205.5 -91.5z
M309 1235v240h258v-240h-258zM719 1235v240h258v-240h-258z" />
    <glyph glyph-name="uni0227.ss01" horiz-adv-x="1245" 
d="M1174 0h-248v147q-117 -172 -338 -172q-150 0 -259.5 73.5t-163.5 198.5t-54 285t54 285t163.5 199t259.5 74q215 0 330 -160v135h256v-1065zM647 190q136 0 204.5 91.5t68.5 250.5t-68.5 250.5t-204.5 91.5q-137 0 -205.5 -91.5t-68.5 -250.5t68.5 -250.5t205.5 -91.5z
M514 1235v240h258v-240h-258z" />
    <glyph glyph-name="agrave.ss01" horiz-adv-x="1245" 
d="M1174 0h-248v147q-117 -172 -338 -172q-150 0 -259.5 73.5t-163.5 198.5t-54 285t54 285t163.5 199t259.5 74q215 0 330 -160v135h256v-1065zM647 190q136 0 204.5 91.5t68.5 250.5t-68.5 250.5t-204.5 91.5q-137 0 -205.5 -91.5t-68.5 -250.5t68.5 -250.5t205.5 -91.5z
M748 1200h-211l-287 299h299z" />
    <glyph glyph-name="aogonek.ss01" horiz-adv-x="1245" 
d="M1174 0q-203 -104 -203 -190q0 -40 29 -60t77 -20q44 0 97 16v-158q-65 -22 -152 -22q-118 0 -189 48.5t-71 145.5q0 73 57 136.5t150 103.5h-43v147q-117 -172 -338 -172q-150 0 -259.5 73.5t-163.5 198.5t-54 285t54 285t163.5 199t259.5 74q215 0 330 -160v135h256
v-1065zM647 190q136 0 204.5 91.5t68.5 250.5t-68.5 250.5t-204.5 91.5q-137 0 -205.5 -91.5t-68.5 -250.5t68.5 -250.5t205.5 -91.5z" />
    <glyph glyph-name="aring.ss01" horiz-adv-x="1245" 
d="M1174 0h-248v147q-117 -172 -338 -172q-150 0 -259.5 73.5t-163.5 198.5t-54 285t54 285t163.5 199t259.5 74q215 0 330 -160v135h256v-1065zM647 190q136 0 204.5 91.5t68.5 250.5t-68.5 250.5t-204.5 91.5q-137 0 -205.5 -91.5t-68.5 -250.5t68.5 -250.5t205.5 -91.5z
M643 1188q-124 0 -209.5 80.5t-85.5 199.5q0 118 86 199.5t209 81.5t209 -81.5t86 -199.5q0 -119 -85.5 -199.5t-209.5 -80.5zM643 1348q53 0 88 33.5t35 86.5q0 52 -35 86.5t-88 34.5q-54 0 -88.5 -34t-34.5 -87q0 -54 34.5 -87t88.5 -33z" />
    <glyph glyph-name="atilde.ss01" horiz-adv-x="1245" 
d="M1174 0h-248v147q-117 -172 -338 -172q-150 0 -259.5 73.5t-163.5 198.5t-54 285t54 285t163.5 199t259.5 74q215 0 330 -160v135h256v-1065zM647 190q136 0 204.5 91.5t68.5 250.5t-68.5 250.5t-204.5 91.5q-137 0 -205.5 -91.5t-68.5 -250.5t68.5 -250.5t205.5 -91.5z
M270 1219q0 142 58 211t164 69q50 0 151 -45q8 -3 37.5 -17t52 -22t39.5 -8q34 0 50 21t16 71h178q0 -280 -219 -280q-11 0 -22.5 1t-25 4.5t-21 5.5t-23.5 8.5t-20 7.5t-22.5 9.5t-19.5 8.5q-9 4 -37.5 17.5t-50.5 21.5t-39 8q-36 0 -51.5 -20.5t-15.5 -71.5h-179z" />
    <glyph glyph-name="l.ss02" horiz-adv-x="479" 
d="M111 0v1475h258v-1475h-258z" />
    <glyph glyph-name="lacute.ss02" horiz-adv-x="479" 
d="M111 0v1475h258v-1475h-258zM133 1610l199 299h299l-287 -299h-211z" />
    <glyph glyph-name="lcaron.ss02" horiz-adv-x="479" 
d="M111 0v1475h258v-1475h-258zM451 1126l53 349h268l-143 -349h-178z" />
    <glyph glyph-name="lslash.ss02" horiz-adv-x="479" 
d="M111 0v600l-168 -76v189l168 75v687h258v-572l168 76v-188l-168 -76v-715h-258z" />
    <glyph glyph-name="t.ss03" horiz-adv-x="757" 
d="M219 0v866h-186v199h186v328h256v-328h230v-199h-230v-866h-256z" />
    <glyph glyph-name="tcaron.ss03" horiz-adv-x="757" 
d="M219 0v866h-186v199h186v328h256v-328h230v-199h-230v-866h-256zM541 1126l53 349h268l-143 -349h-178z" />
    <glyph glyph-name="uni0163.ss03" horiz-adv-x="757" 
d="M219 0v866h-186v199h186v328h256v-328h230v-199h-230v-866h-55l-86 -92h16q103 0 165.5 -45t62.5 -121q0 -85 -75.5 -143t-223.5 -58q-84 0 -156 17v112q68 -12 115 -12q143 0 143 84q0 76 -123 76q-43 0 -63 -4v84l77 102h-53z" />
    <glyph glyph-name="uni1E6B.ss03" horiz-adv-x="757" 
d="M219 0v866h-186v199h186v328h256v-328h230v-199h-230v-866h-256zM219 1563v239h258v-239h-258z" />
    <glyph glyph-name="u.ss04" 
d="M594 -25q-235 0 -359 119t-124 326v645h256v-633q0 -118 56 -182t171 -64q114 0 169.5 64t55.5 182v633h256v-645q0 -207 -124 -326t-357 -119z" />
    <glyph glyph-name="uacute.ss04" 
d="M594 -25q-235 0 -359 119t-124 326v645h256v-633q0 -118 56 -182t171 -64q114 0 169.5 64t55.5 182v633h256v-645q0 -207 -124 -326t-357 -119zM487 1200l199 299h299l-287 -299h-211z" />
    <glyph glyph-name="ubreve.ss04" 
d="M594 -25q-235 0 -359 119t-124 326v645h256v-633q0 -118 56 -182t171 -64q114 0 169.5 64t55.5 182v633h256v-645q0 -207 -124 -326t-357 -119zM592 1188q-146 0 -239.5 82.5t-108.5 228.5h198q12 -141 150 -141q66 0 105.5 35.5t45.5 105.5h199q-15 -147 -109 -229
t-241 -82z" />
    <glyph glyph-name="uni01D4.ss04" 
d="M594 -25q-235 0 -359 119t-124 326v645h256v-633q0 -118 56 -182t171 -64q114 0 169.5 64t55.5 182v633h256v-645q0 -207 -124 -326t-357 -119zM438 1200l-256 299h236l176 -170l176 170h236l-256 -299h-312z" />
    <glyph glyph-name="ucircumflex.ss04" 
d="M594 -25q-235 0 -359 119t-124 326v645h256v-633q0 -118 56 -182t171 -64q114 0 169.5 64t55.5 182v633h256v-645q0 -207 -124 -326t-357 -119zM750 1499l256 -299h-236l-176 170l-176 -170h-236l256 299h312z" />
    <glyph glyph-name="udieresis.ss04" 
d="M594 -25q-235 0 -359 119t-124 326v645h256v-633q0 -118 56 -182t171 -64q114 0 169.5 64t55.5 182v633h256v-645q0 -207 -124 -326t-357 -119zM260 1235v240h258v-240h-258zM670 1235v240h258v-240h-258z" />
    <glyph glyph-name="ugrave.ss04" 
d="M594 -25q-235 0 -359 119t-124 326v645h256v-633q0 -118 56 -182t171 -64q114 0 169.5 64t55.5 182v633h256v-645q0 -207 -124 -326t-357 -119zM698 1200h-211l-286 299h299z" />
    <glyph glyph-name="uogonek.ss04" 
d="M631 -434q-118 0 -189 48.5t-71 145.5q0 62 44 119t117 98q-205 15 -313 132.5t-108 310.5v645h256v-633q0 -118 56 -182t171 -64q114 0 169.5 64t55.5 182v633h256v-645q0 -160 -74.5 -269t-218.5 -151q-202 -103 -202 -190q0 -40 29 -60t77 -20q43 0 96 16v-158
q-65 -22 -151 -22z" />
    <glyph glyph-name="uring.ss04" 
d="M594 -25q-235 0 -359 119t-124 326v645h256v-633q0 -118 56 -182t171 -64q114 0 169.5 64t55.5 182v633h256v-645q0 -207 -124 -326t-357 -119zM594 1188q-124 0 -209.5 80.5t-85.5 199.5q0 118 86 199.5t209 81.5t209 -81.5t86 -199.5q0 -119 -85.5 -199.5t-209.5 -80.5
zM594 1348q53 0 88 33.5t35 86.5q0 52 -35 86.5t-88 34.5q-54 0 -88.5 -34t-34.5 -87q0 -54 34.5 -87t88.5 -33z" />
    <glyph glyph-name="utilde.ss04" 
d="M594 -25q-235 0 -359 119t-124 326v645h256v-633q0 -118 56 -182t171 -64q114 0 169.5 64t55.5 182v633h256v-645q0 -207 -124 -326t-357 -119zM219 1219q0 142 57.5 211t163.5 69q51 0 152 -45q8 -3 37.5 -17t52 -22t39.5 -8q34 0 49.5 21t15.5 71h179q0 -280 -220 -280
q-11 0 -22.5 1t-24 4.5t-21.5 5.5t-23 8t-20 8t-22 9t-20 9q-9 4 -37.5 17.5t-50.5 21.5t-39 8q-36 0 -52 -20.5t-16 -71.5h-178z" />
    <glyph glyph-name="y.ss05" horiz-adv-x="1132" 
d="M264 -410l178 435l-430 1040h277l278 -750l277 750h278l-608 -1475h-250z" />
    <glyph glyph-name="yacute.ss05" horiz-adv-x="1132" 
d="M264 -410l178 435l-430 1040h277l278 -750l277 750h278l-608 -1475h-250zM461 1200l198 299h299l-286 -299h-211z" />
    <glyph glyph-name="ycircumflex.ss05" horiz-adv-x="1132" 
d="M264 -410l178 435l-430 1040h277l278 -750l277 750h278l-608 -1475h-250zM723 1499l256 -299h-236l-176 170l-176 -170h-235l256 299h311z" />
    <glyph glyph-name="ydieresis.ss05" horiz-adv-x="1132" 
d="M264 -410l178 435l-430 1040h277l278 -750l277 750h278l-608 -1475h-250zM233 1235v240h259v-240h-259zM643 1235v240h258v-240h-258z" />
    <glyph glyph-name="uni1E8F.ss05" horiz-adv-x="1132" 
d="M264 -410l178 435l-430 1040h277l278 -750l277 750h278l-608 -1475h-250zM438 1235v240h258v-240h-258z" />
    <glyph glyph-name="ygrave.ss05" horiz-adv-x="1132" 
d="M264 -410l178 435l-430 1040h277l278 -750l277 750h278l-608 -1475h-250zM672 1200h-211l-287 299h299z" />
    <glyph glyph-name="uni1EF9.ss05" horiz-adv-x="1132" 
d="M264 -410l178 435l-430 1040h277l278 -750l277 750h278l-608 -1475h-250zM193 1219q0 142 57.5 211t163.5 69q50 0 151 -45q8 -3 37.5 -17t52 -22t39.5 -8q34 0 50 21t16 71h178q0 -280 -219 -280q-11 0 -22.5 1t-25 4.5t-21 5.5t-23.5 8.5t-20 7.5t-22.5 9.5t-19.5 8.5
q-9 4 -37.5 17.5t-50.5 21.5t-39 8q-36 0 -51.5 -20.5t-15.5 -71.5h-178z" />
    <glyph glyph-name="three.ss09" horiz-adv-x="1224" 
d="M625 -25q-254 0 -395 125.5t-144 354.5h266q5 -122 75 -188t196 -66q119 0 189.5 69.5t70.5 180.5q0 131 -87.5 196.5t-273.5 65.5h-102v182l373 346h-662v234h983v-218l-379 -356q420 -81 420 -459q0 -199 -143 -333t-387 -134z" />
    <glyph glyph-name="six.ss09" horiz-adv-x="1208" 
d="M608 -25q-237 0 -377.5 139t-140.5 367q0 180 88 307l502 687h289l-357 -486q236 -1 375 -140.5t139 -367.5t-140.5 -367t-377.5 -139zM608 199q120 0 187 77.5t67 204.5q0 129 -67 207t-187 78q-119 0 -185.5 -78t-66.5 -207q0 -127 66.5 -204.5t185.5 -77.5z" />
    <glyph glyph-name="nine.ss09" horiz-adv-x="1208" 
d="M600 1499q237 0 377.5 -139t140.5 -367q0 -180 -88 -307l-502 -686h-288l356 485q-236 1 -375 140.5t-139 367.5t140.5 367t377.5 139zM600 1276q-120 0 -187 -77.5t-67 -205.5q0 -129 66.5 -206.5t187.5 -77.5q119 0 185.5 77.5t66.5 206.5q0 127 -66.5 205t-185.5 78z
" />
    <glyph glyph-name="one.ss10" horiz-adv-x="720" 
d="M319 0v1241h-241v234h516v-1475h-275z" />
    <glyph glyph-name="four.ss10" horiz-adv-x="1296" 
d="M66 309v256l614 910h283l-617 -930h438v356h258v-356h201v-236h-192v-309h-275v309h-710z" />
    <glyph glyph-name="at.ss11" horiz-adv-x="1888" 
d="M952 -238q-259 0 -461 111t-313.5 309t-111.5 449q0 188 65 349.5t181 275.5t281 178.5t359 64.5q260 0 457.5 -101t305.5 -287.5t108 -430.5q0 -234 -112.5 -377t-311.5 -143q-192 0 -248 151q-92 -151 -270 -151q-116 0 -203 61.5t-131.5 166t-44.5 237.5t44.5 237.5
t131.5 166t203 61.5q154 0 245 -115v90h220v-578q0 -77 26 -106t84 -29q83 0 123.5 90.5t40.5 237.5q0 204 -85 348.5t-234.5 215.5t-348.5 71q-197 0 -350.5 -80.5t-242.5 -237t-89 -366.5t88.5 -367.5t242.5 -240t351 -82.5q243 0 437 122v-194q-199 -107 -437 -107z
M930 348q96 0 148 75t52 202t-52 201.5t-148 74.5q-97 0 -148 -74t-51 -202t51 -202.5t148 -74.5z" />
    <glyph glyph-name="copyright.ss13" horiz-adv-x="1220" 
d="M618 682q-128 0 -201 80.5t-73 208.5t73 208.5t201 80.5q114 0 180.5 -57.5t80.5 -155.5h-144q-9 44 -40 69t-77 25q-64 0 -97.5 -46t-33.5 -124t33.5 -124t97.5 -46q48 0 79 26.5t38 75.5h144q-14 -101 -81.5 -161t-179.5 -60zM610 442q-232 0 -386 149.5t-154 379.5
t154 379t386 149t386.5 -149t154.5 -379t-154.5 -379.5t-386.5 -149.5zM610 578q177 0 287.5 107t110.5 286t-110.5 286t-287.5 107t-286 -106.5t-109 -286.5t109 -286.5t286 -106.5z" />
    <glyph glyph-name="registered.ss13" horiz-adv-x="1220" 
d="M385 694v553h260q99 0 149 -45.5t50 -120.5q0 -84 -84 -135q65 -34 74 -108l22 -144h-133l-16 125q-12 82 -86 82h-107v-207h-129zM610 442q-232 0 -386 149.5t-154 379.5t154 379t386 149t386.5 -149t154.5 -379t-154.5 -379.5t-386.5 -149.5zM610 578q177 0 287.5 107
t110.5 286t-110.5 286t-287.5 107t-286 -106.5t-109 -286.5t109 -286.5t286 -106.5zM514 999h109q88 0 88 72t-88 72h-109v-144z" />
    <glyph glyph-name="uni2117.ss13" horiz-adv-x="1220" 
d="M416 694v553h241q102 0 157.5 -51t55.5 -135q0 -82 -56 -133t-157 -51h-110v-183h-131zM610 442q-232 0 -386 149.5t-154 379.5t154 379t386 149t386.5 -149t154.5 -379t-154.5 -379.5t-386.5 -149.5zM610 578q177 0 287.5 107t110.5 286t-110.5 286t-287.5 107
t-286 -106.5t-109 -286.5t109 -286.5t286 -106.5zM547 989h102q90 0 90 72q0 76 -90 76h-102v-148z" />
    <glyph glyph-name="trademark.ss14" horiz-adv-x="1697" 
d="M791 500v475h190l82 -291l80 291h190v-475h-121v336l-98 -336h-104l-99 342v-342h-120zM485 500v364h-141v111h410v-111h-144v-364h-125zM850 -25q-165 0 -309 57t-247.5 156.5t-163.5 242t-60 306.5t60 306.5t163.5 242t247.5 156.5t309 57t309 -57t247.5 -156.5
t163.5 -242t60 -306.5t-60 -306.5t-163.5 -242t-247.5 -156.5t-309 -57zM850 143q264 0 432 163t168 431t-168 431t-432 163q-265 0 -432.5 -162.5t-167.5 -431.5t167.5 -431.5t432.5 -162.5z" />
    <glyph glyph-name="uni2120.ss14" horiz-adv-x="1697" 
d="M795 500v475h190l82 -291l80 291h190v-475h-120v336l-99 -336h-104l-99 336v-336h-120zM547 487q-101 0 -158 46t-57 124h125q0 -42 25.5 -56.5t70.5 -14.5q33 0 53.5 13t20.5 34q0 19 -20.5 31t-82.5 22q-96 13 -139 51.5t-43 104.5q0 65 52 105t145 40q95 0 147.5 -42
t56.5 -124h-122q-3 68 -82 68q-31 0 -48.5 -11t-17.5 -30q0 -21 19 -33t75 -20q106 -18 148.5 -53.5t42.5 -100.5q0 -75 -58.5 -114.5t-152.5 -39.5zM850 -25q-165 0 -309 57t-247.5 156.5t-163.5 242t-60 306.5t60 306.5t163.5 242t247.5 156.5t309 57t309 -57
t247.5 -156.5t163.5 -242t60 -306.5t-60 -306.5t-163.5 -242t-247.5 -156.5t-309 -57zM850 143q264 0 432 163t168 431t-168 431t-432 163q-265 0 -432.5 -162.5t-167.5 -431.5t167.5 -431.5t432.5 -162.5z" />
    <glyph glyph-name="cent.ss12" horiz-adv-x="1134" 
d="M512 -233v213q-206 27 -324 178.5t-118 373.5t118 374t324 179v213h156v-213q180 -20 286.5 -126t130.5 -275h-258q-19 90 -80 140t-155 50q-127 0 -193.5 -92t-66.5 -250t66.5 -250t193.5 -92q97 0 157.5 53t77.5 150h258q-22 -171 -130.5 -281.5t-286.5 -131.5v-213
h-156z" />
    <glyph glyph-name="dollar.ss12" horiz-adv-x="1323" 
d="M555 -233v217q-230 28 -363 159t-139 353h273q10 -295 364 -295q136 0 218.5 55.5t82.5 155.5q0 56 -27 91.5t-108.5 68.5t-234.5 63q-276 51 -402.5 154t-126.5 298q0 167 125.5 277.5t337.5 130.5v213h217v-217q225 -30 342 -157.5t123 -327.5h-266q-8 136 -88.5 202
t-243.5 66q-120 0 -192 -48t-72 -130q0 -44 12 -73.5t48.5 -58t105.5 -51t180 -43.5q162 -30 270 -70.5t170 -97t87.5 -122.5t25.5 -156q0 -192 -136.5 -307.5t-365.5 -136.5v-213h-217z" />
    <glyph glyph-name="Euro.ss12" horiz-adv-x="1292" 
d="M981 -25q-275 0 -448 143.5t-232 381.5h-252v155h227l-2 82l5 86h-230v156h254q58 236 231 378t447 142q144 0 262 -37v-243q-99 36 -237 36q-166 0 -268 -73.5t-146 -202.5h651v-156h-684q-4 -58 -4 -86l4 -82h684v-155h-653q44 -130 147 -205.5t269 -75.5q136 0 237 37
v-244q-118 -37 -262 -37z" />
    <glyph glyph-name="sterling.ss12" horiz-adv-x="1208" 
d="M37 0v233h350q-15 173 -98 365h-219v156h151q-50 109 -74 181.5t-24 141.5q0 183 138.5 302.5t361.5 119.5q248 0 384 -132.5t136 -371.5h-266q1 133 -67.5 202t-186.5 69q-106 0 -169 -54t-63 -147q0 -40 13 -89t31 -92t45 -104q8 -17 12 -26h452v-156h-385
q76 -196 88 -365h512v-233h-1122z" />
    <glyph glyph-name="uni030C.alt" horiz-adv-x="0" 
d="M0 1126l53 349h269l-144 -349h-178z" />
    <glyph glyph-name="uni0308.case" horiz-adv-x="0" 
d="M0 1235v240h258v-240h-258zM410 1235v240h258v-240h-258z" />
    <glyph glyph-name="uni0307.case" horiz-adv-x="0" 
d="M0 1235v240h258v-240h-258z" />
    <glyph glyph-name="gravecomb.case" horiz-adv-x="0" 
d="M498 1200h-211l-287 299h299z" />
    <glyph glyph-name="acutecomb.case" horiz-adv-x="0" 
d="M0 1200l199 299h299l-287 -299h-211z" />
    <glyph glyph-name="uni0302.case" horiz-adv-x="0" 
d="M567 1499l256 -299h-235l-176 170l-176 -170h-236l256 299h311z" />
    <glyph glyph-name="uni030C.case" horiz-adv-x="0" 
d="M256 1200l-256 299h236l176 -170l176 170h235l-256 -299h-311z" />
    <glyph glyph-name="uni0306.case" horiz-adv-x="0" 
d="M348 1188q-146 0 -239.5 82.5t-108.5 228.5h199q12 -141 149 -141q66 0 106 35.5t46 105.5h198q-15 -147 -109 -229t-241 -82z" />
    <glyph glyph-name="uni030A.case" horiz-adv-x="0" 
d="M295 1188q-124 0 -209.5 80.5t-85.5 199.5q0 118 86 199.5t209 81.5t209 -81.5t86 -199.5q0 -119 -85.5 -199.5t-209.5 -80.5zM295 1348q53 0 88 33.5t35 86.5q0 52 -35 86.5t-88 34.5q-54 0 -88.5 -34t-34.5 -87q0 -54 34.5 -87t88.5 -33z" />
    <glyph glyph-name="tildecomb.case" horiz-adv-x="0" 
d="M0 1219q0 142 57.5 211t163.5 69q51 0 152 -45q8 -3 37.5 -17t52 -22t39.5 -8q34 0 49.5 21t15.5 71h178q0 -280 -219 -280q-11 0 -22.5 1t-24 4.5t-21.5 5.5t-23 8t-20 8t-22 9t-20 9q-9 4 -37.5 17.5t-50.5 21.5t-39 8q-36 0 -52 -20.5t-16 -71.5h-178z" />
    <glyph glyph-name="dieresis.case" horiz-adv-x="665" 
d="M0 1235v240h258v-240h-258zM410 1235v240h258v-240h-258z" />
    <glyph glyph-name="dotaccent.case" horiz-adv-x="258" 
d="M0 1235v240h258v-240h-258z" />
    <glyph glyph-name="grave.case" horiz-adv-x="497" 
d="M498 1200h-211l-287 299h299z" />
    <glyph glyph-name="acute.case" horiz-adv-x="497" 
d="M0 1200l199 299h299l-287 -299h-211z" />
    <glyph glyph-name="circumflex.case" horiz-adv-x="823" 
d="M567 1499l256 -299h-235l-176 170l-176 -170h-236l256 299h311z" />
    <glyph glyph-name="caron.case" horiz-adv-x="823" 
d="M256 1200l-256 299h236l176 -170l176 170h235l-256 -299h-311z" />
    <glyph glyph-name="breve.case" horiz-adv-x="698" 
d="M348 1188q-146 0 -239.5 82.5t-108.5 228.5h199q12 -141 149 -141q66 0 106 35.5t46 105.5h198q-15 -147 -109 -229t-241 -82z" />
    <glyph glyph-name="ring.case" horiz-adv-x="589" 
d="M295 1188q-124 0 -209.5 80.5t-85.5 199.5q0 118 86 199.5t209 81.5t209 -81.5t86 -199.5q0 -119 -85.5 -199.5t-209.5 -80.5zM295 1348q53 0 88 33.5t35 86.5q0 52 -35 86.5t-88 34.5q-54 0 -88.5 -34t-34.5 -87q0 -54 34.5 -87t88.5 -33z" />
    <glyph glyph-name="tilde.case" horiz-adv-x="745" 
d="M0 1219q0 142 57.5 211t163.5 69q51 0 152 -45q8 -3 37.5 -17t52 -22t39.5 -8q34 0 49.5 21t15.5 71h178q0 -280 -219 -280q-11 0 -22.5 1t-24 4.5t-21.5 5.5t-23 8t-20 8t-22 9t-20 9q-9 4 -37.5 17.5t-50.5 21.5t-39 8q-36 0 -52 -20.5t-16 -71.5h-178z" />
  </font>
</defs>
</svg>
