<?xml version="1.0" standalone="no"?>
<!DOCTYPE svg PUBLIC "-//W3C//DTD SVG 1.1//EN" "http://www.w3.org/Graphics/SVG/1.1/DTD/svg11.dtd" >
<svg xmlns="http://www.w3.org/2000/svg" xmlns:xlink="http://www.w3.org/1999/xlink" version="1.1">
<metadata>
Created by FontForge 20201107 at Sun Jul 13 20:54:24 2025
 By 
Copyright (c) 2025 Ivo Dolenc
</metadata>
<defs>
<font id="Aspekta-800" horiz-adv-x="1232" >
  <font-face 
    font-family="Aspekta 800"
    font-weight="800"
    font-stretch="normal"
    units-per-em="2048"
    panose-1="0 0 0 0 0 0 0 0 0 0"
    ascent="1638"
    descent="-410"
    x-height="1065"
    cap-height="1475"
    bbox="-182 -483 2660 1909"
    underline-thickness="102"
    underline-position="-317"
    unicode-range="U+0020-25CF"
  />
<missing-glyph horiz-adv-x="1445" 
d="M143 0v1475h1160v-1475h-1160z" />
    <glyph glyph-name=".notdef" horiz-adv-x="1445" 
d="M143 0v1475h1160v-1475h-1160z" />
    <glyph glyph-name=".null" horiz-adv-x="0" 
 />
    <glyph glyph-name="nonmarkingreturn" horiz-adv-x="682" 
 />
    <glyph glyph-name="space" unicode=" " horiz-adv-x="495" 
 />
    <glyph glyph-name="space" unicode="&#xa0;" horiz-adv-x="495" 
 />
    <glyph glyph-name="exclam" unicode="!" horiz-adv-x="520" 
d="M168 508l-92 516v451h370v-451l-92 -516h-186zM70 0v381h383v-381h-383z" />
    <glyph glyph-name="quotedbl" unicode="&#x22;" horiz-adv-x="1073" 
d="M113 1475h366l-55 -709h-256zM592 1475h366l-55 -709h-256z" />
    <glyph glyph-name="numbersign" unicode="#" horiz-adv-x="1656" 
d="M823 0l62 319h-279l-61 -319h-305l61 319h-186l53 279h188l54 279h-187l53 278h189l61 320h305l-61 -320h279l61 320h307l-61 -320h186l-53 -278h-189l-53 -279h187l-54 -279h-188l-62 -319h-307zM662 598h278l53 279h-278z" />
    <glyph glyph-name="dollar" unicode="$" horiz-adv-x="1366" 
d="M604 -233v210q-266 20 -413.5 157.5t-147.5 359.5h358q3 -106 56 -157.5t147 -66.5v320q-281 47 -407.5 160t-126.5 311q0 182 142 302.5t392 133.5v211h158v-213q241 -22 375 -150t143 -350h-352q-6 170 -166 205v-301q160 -26 268.5 -65.5t173.5 -96.5t93 -128t28 -167
q0 -212 -154 -330.5t-409 -134.5v-210h-158zM446 1075q0 -48 34 -82.5t124 -60.5v274q-74 -9 -116 -44t-42 -87zM762 268q84 9 133 49t49 101q0 49 -36.5 81.5t-145.5 59.5v-291z" />
    <glyph glyph-name="percent" unicode="%" horiz-adv-x="1882" 
d="M416 614q-94 0 -166 33t-116.5 93.5t-66.5 140t-22 176.5q0 131 38 228t123 155.5t210 58.5q95 0 167 -33t116 -93t65.5 -139.5t21.5 -176.5t-21.5 -176.5t-65.5 -140t-116 -93.5t-167 -33zM416 813q67 0 96 61t29 183t-29 182.5t-96 60.5t-96 -60.5t-29 -182.5t29 -183
t96 -61zM440 0l785 1475h215l-783 -1475h-217zM1464 -25q-185 0 -277.5 121t-92.5 322q0 97 22 176.5t66 139.5t116 93t166 33q126 0 211 -58.5t122.5 -155.5t37.5 -228q0 -97 -22 -176.5t-66 -140t-116 -93.5t-167 -33zM1464 174q67 0 96 61t29 183t-29 183t-96 61t-96 -61
t-29 -183t29 -183t96 -61z" />
    <glyph glyph-name="ampersand" unicode="&#x26;" horiz-adv-x="1499" 
d="M612 -25q-266 0 -414.5 121t-148.5 322q0 77 23.5 141t67 112t93 83t115.5 67q-75 85 -109 152.5t-34 152.5q0 171 125 272t332 101q209 0 332.5 -100.5t123.5 -272.5q0 -74 -23.5 -135t-69 -106.5t-94 -77t-114.5 -62.5l234 -256q61 110 67 256h295q-6 -271 -164 -473
l250 -272h-399l-74 82q-188 -107 -414 -107zM408 430q0 -77 59.5 -126.5t161.5 -49.5q114 0 202 39l-292 321q-131 -76 -131 -184zM543 1110q0 -40 22 -78.5t70 -89.5q86 36 132 75.5t46 92.5q0 58 -36.5 91.5t-98.5 33.5t-98.5 -33.5t-36.5 -91.5z" />
    <glyph glyph-name="quotesingle" unicode="'" horiz-adv-x="593" 
d="M113 1475h366l-55 -709h-256z" />
    <glyph glyph-name="parenleft" unicode="(" horiz-adv-x="665" 
d="M270 -410q-134 277 -203 521t-69 503t69 503t203 521h316q-126 -276 -184 -517t-58 -507t58 -507t184 -517h-316z" />
    <glyph glyph-name="parenright" unicode=")" horiz-adv-x="675" 
d="M4 -410q126 276 184 517t58 507t-58 507t-184 517h315q135 -278 204 -521.5t69 -502.5t-69 -502.5t-204 -521.5h-315z" />
    <glyph glyph-name="asterisk" unicode="*" horiz-adv-x="931" 
d="M643 641l-176 236l-178 -236l-176 133l168 225l-244 74l63 211l254 -78v269h221v-269l256 78l64 -211l-246 -74l170 -225z" />
    <glyph glyph-name="plus" unicode="+" horiz-adv-x="1105" 
d="M63 592v289h345v346h288v-346h346v-289h-346v-344h-288v344h-345z" />
    <glyph glyph-name="comma" unicode="," horiz-adv-x="614" 
d="M168 381h375l-244 -709h-264z" />
    <glyph glyph-name="hyphen" unicode="-" horiz-adv-x="757" 
d="M63 449v290h633v-290h-633z" />
    <glyph glyph-name="period" unicode="." horiz-adv-x="526" 
d="M72 0v381h383v-381h-383z" />
    <glyph glyph-name="slash" unicode="/" horiz-adv-x="868" 
d="M0 0l537 1475h331l-536 -1475h-332z" />
    <glyph glyph-name="zero" unicode="0" horiz-adv-x="1376" 
d="M688 -25q-130 0 -233.5 37t-174 103.5t-117.5 162.5t-68 210t-21 249t21 249t68 210t117.5 162.5t174 103.5t233.5 37q131 0 234.5 -37t174.5 -103.5t118 -162.5t68.5 -210t21.5 -249t-21.5 -249t-68.5 -210t-118 -162.5t-174.5 -103.5t-234.5 -37zM688 281
q54 0 94.5 20.5t66.5 58t42 95.5t22.5 125.5t6.5 156.5t-6.5 156.5t-22.5 126t-42 95.5t-66.5 58t-94.5 21t-94 -21t-65.5 -58t-41 -95.5t-22 -126t-6.5 -156.5q0 -112 10.5 -191.5t35.5 -141.5t70.5 -92.5t112.5 -30.5z" />
    <glyph glyph-name="one" unicode="1" horiz-adv-x="835" 
d="M352 0v1094l-297 -205v368l320 218h348v-1475h-371z" />
    <glyph glyph-name="two" unicode="2" horiz-adv-x="1253" 
d="M70 0v287l598 504q135 114 135 247q0 73 -49 114.5t-131 41.5q-97 0 -149.5 -54.5t-51.5 -158.5h-352q-2 249 137.5 383.5t415.5 134.5q237 0 388.5 -120.5t151.5 -315.5q0 -76 -21.5 -145t-62.5 -127.5t-82.5 -103t-97.5 -91.5l-342 -291h619v-305h-1106z" />
    <glyph glyph-name="three" unicode="3" horiz-adv-x="1282" 
d="M653 -25q-281 0 -429.5 127.5t-151.5 366.5h354q4 -99 62 -152t157 -53q97 0 154 49.5t57 135.5q0 101 -63.5 138.5t-188.5 37.5h-121v258h95q123 0 183 37t60 127q0 77 -49 120t-133 43q-90 0 -138 -48t-48 -142h-355q2 231 141 355t406 124q127 0 230.5 -34t169.5 -92
t101.5 -133t35.5 -159q0 -103 -50 -185.5t-157 -121.5q120 -45 183 -135.5t63 -208.5q0 -203 -149.5 -329t-418.5 -126z" />
    <glyph glyph-name="four" unicode="4" horiz-adv-x="1398" 
d="M74 283v340l663 852h406v-887h194v-305h-194v-283h-371v283h-698zM381 588h401v528z" />
    <glyph glyph-name="five" unicode="5" horiz-adv-x="1236" 
d="M621 -25q-231 0 -379 119.5t-176 327.5h348q11 -72 64 -117t143 -45q99 0 159 67t60 171q0 102 -60 167.5t-159 65.5q-67 0 -117 -34t-78 -89h-342l129 867h899v-306h-614l-39 -258q88 68 235 68q122 0 218 -40.5t154.5 -109t89 -153t30.5 -178.5q0 -159 -76.5 -279.5
t-204 -182t-284.5 -61.5z" />
    <glyph glyph-name="six" unicode="6" horiz-adv-x="1280" 
d="M662 -25q-201 0 -345 107q-243 175 -243 620q0 388 152.5 592.5t435.5 204.5q209 0 353 -114.5t171 -313.5h-336q-17 79 -66.5 119.5t-119.5 40.5q-117 0 -180.5 -90t-73.5 -297q118 131 313 131q102 0 185 -26.5t139 -72t94.5 -107.5t55.5 -130t17 -143
q0 -242 -151.5 -381.5t-400.5 -139.5zM662 258q104 0 157 63.5t53 165.5q0 100 -53 164t-157 64t-158.5 -64.5t-54.5 -163.5q0 -102 54.5 -165.5t158.5 -63.5z" />
    <glyph glyph-name="seven" unicode="7" horiz-adv-x="1105" 
d="M188 0l519 1169h-678v306h1048v-283l-512 -1192h-377z" />
    <glyph glyph-name="eight" unicode="8" horiz-adv-x="1267" 
d="M635 -25q-266 0 -426 125.5t-160 323.5q0 120 58.5 210t171.5 144q-173 111 -173 312q0 186 146 297.5t383 111.5t382.5 -111.5t145.5 -297.5q0 -100 -44.5 -179t-127.5 -131q114 -54 173 -145t59 -211q0 -198 -160 -323.5t-428 -125.5zM635 258q114 0 171.5 56.5
t57.5 144.5q0 87 -59 142.5t-170 55.5t-169 -55t-58 -143t57 -144.5t170 -56.5zM635 885q97 0 149 50.5t52 125.5q0 77 -53 128.5t-148 51.5t-148 -51.5t-53 -128.5q0 -75 52 -125.5t149 -50.5z" />
    <glyph glyph-name="nine" unicode="9" horiz-adv-x="1280" 
d="M618 1499q203 0 345 -106q243 -175 243 -621q0 -388 -152.5 -592.5t-435.5 -204.5q-209 0 -353 114.5t-171 313.5h336q17 -79 66.5 -119t119.5 -40q117 0 180.5 90t73.5 297q-118 -131 -313 -131q-102 0 -185 26.5t-139 72t-94.5 107.5t-55.5 130t-17 143
q0 241 151.5 380.5t400.5 139.5zM618 1217q-104 0 -157 -64t-53 -166q0 -100 53 -163.5t157 -63.5t158.5 64t54.5 163q0 102 -54.5 166t-158.5 64z" />
    <glyph glyph-name="colon" unicode=":" horiz-adv-x="526" 
d="M72 643v381h383v-381h-383zM72 0v381h383v-381h-383z" />
    <glyph glyph-name="semicolon" unicode=";" horiz-adv-x="618" 
d="M164 643v381h383v-381h-383zM168 381h375l-244 -709h-264z" />
    <glyph glyph-name="less" unicode="&#x3c;" horiz-adv-x="1105" 
d="M63 905l979 379v-336l-647 -211l647 -211v-336l-979 379v336z" />
    <glyph glyph-name="equal" unicode="=" horiz-adv-x="1105" 
d="M63 815v289h979v-289h-979zM63 375v289h979v-289h-979z" />
    <glyph glyph-name="greater" unicode="&#x3e;" horiz-adv-x="1105" 
d="M1042 569l-979 -379v336l648 211l-648 211v336l979 -379v-336z" />
    <glyph glyph-name="question" unicode="?" horiz-adv-x="1165" 
d="M387 508q0 144 43 219.5t168 153.5q93 57 124.5 99.5t31.5 102.5q0 51 -45 91t-134 40q-95 0 -142.5 -54t-47.5 -148h-344q2 230 136.5 358.5t397.5 128.5q256 0 402.5 -107.5t146.5 -289.5q0 -124 -48 -204.5t-171 -152.5q-104 -61 -146 -109.5t-42 -127.5h-330zM360 0
v381h383v-381h-383z" />
    <glyph glyph-name="at" unicode="@" horiz-adv-x="1898" 
d="M958 -238q-202 0 -372 65.5t-286 181t-180.5 276t-64.5 346.5t64.5 346t180.5 275.5t286 181t372 65.5q409 0 647 -222.5t238 -596.5q0 -229 -120 -374.5t-330 -145.5q-204 0 -269 139q-57 -76 -128.5 -107.5t-170.5 -31.5q-137 0 -226 73.5t-89 202.5q0 118 81 181
t267 92l229 36v37q0 45 -25.5 71t-94.5 26q-61 0 -98.5 -30.5t-37.5 -76.5h-286q-1 151 117.5 234.5t300.5 83.5q201 0 305 -73t104 -202v-287q0 -69 23.5 -98t81.5 -29q125 0 125 279q0 155 -46.5 271t-132.5 187.5t-202.5 106.5t-262.5 35q-145 0 -265 -42t-208.5 -122
t-138 -204.5t-49.5 -280.5q0 -208 86 -359t234 -226t341 -75q263 0 449 107v-215q-105 -49 -210 -75t-239 -26zM911 358q77 0 126.5 38.5t49.5 119.5v55l-169 -34q-68 -14 -95.5 -33t-27.5 -60t29.5 -63.5t86.5 -22.5z" />
    <glyph glyph-name="A" unicode="A" horiz-adv-x="1536" 
d="M1141 0l-84 248h-592l-84 -248h-377l535 1475h442l551 -1475h-391zM567 557h387l-194 576z" />
    <glyph glyph-name="B" unicode="B" horiz-adv-x="1417" 
d="M113 0v1475h632q277 0 423.5 -99.5t146.5 -283.5q0 -212 -187 -308q121 -53 184.5 -144.5t63.5 -203.5q0 -217 -144.5 -326.5t-424.5 -109.5h-694zM483 299h318q96 0 143 37.5t47 116.5t-47 116t-143 37h-318v-307zM483 889h269q192 0 192 143q0 144 -192 144h-269v-287z
" />
    <glyph glyph-name="C" unicode="C" horiz-adv-x="1556" 
d="M809 -25q-180 0 -325.5 60t-239 164t-143.5 241.5t-50 296.5t50 296.5t143.5 241.5t239 164t325.5 60q144 0 266 -42.5t209.5 -118.5t144 -179.5t74.5 -226.5h-375q-30 110 -113 176t-206 66q-97 0 -170.5 -34.5t-117 -96t-64.5 -138.5t-21 -168t21 -168t64.5 -138
t117 -95.5t170.5 -34.5q131 0 212 73.5t109 198.5h375q-15 -129 -69 -238t-141.5 -189t-212.5 -125.5t-273 -45.5z" />
    <glyph glyph-name="D" unicode="D" horiz-adv-x="1529" 
d="M113 0v1475h606q192 0 339.5 -55.5t238.5 -156.5t136.5 -233t45.5 -293t-45.5 -293t-136.5 -232.5t-238.5 -156t-339.5 -55.5h-606zM483 315h236q98 0 172 32.5t117.5 90.5t64.5 133t21 166t-21 166t-64.5 133t-117.5 90.5t-172 32.5h-236v-844z" />
    <glyph glyph-name="E" unicode="E" horiz-adv-x="1306" 
d="M113 0v1475h1136v-332h-766v-242h709v-311h-709v-258h764v-332h-1134z" />
    <glyph glyph-name="F" unicode="F" horiz-adv-x="1236" 
d="M113 0v1475h1095v-332h-725v-242h688v-311h-688v-590h-370z" />
    <glyph glyph-name="G" unicode="G" horiz-adv-x="1628" 
d="M743 -25q-156 0 -287 60t-219 163.5t-137 242.5t-49 296q0 159 50 296.5t143.5 241.5t239 164t325.5 60q290 0 479 -148.5t228 -385.5h-377q-35 98 -119.5 156.5t-210.5 58.5q-97 0 -170.5 -35.5t-117 -98t-64.5 -140t-21 -169.5t21 -169.5t64.5 -139.5t117 -97.5
t170.5 -35.5q253 0 340 244h-401v288h788v-827h-260v254q-152 -279 -533 -279z" />
    <glyph glyph-name="H" unicode="H" horiz-adv-x="1527" 
d="M1044 0v588h-561v-588h-370v1475h370v-555h561v555h371v-1475h-371z" />
    <glyph glyph-name="I" unicode="I" horiz-adv-x="595" 
d="M113 0v1475h370v-1475h-370z" />
    <glyph glyph-name="J" unicode="J" horiz-adv-x="1198" 
d="M569 -25q-251 0 -385.5 136t-134.5 372v82h354v-82q0 -96 38.5 -144t127.5 -48t127.5 48t38.5 144v992h371v-992q0 -234 -142 -371t-395 -137z" />
    <glyph glyph-name="K" unicode="K" horiz-adv-x="1533" 
d="M113 0v1475h370v-641l592 641h455l-584 -598l584 -877h-440l-396 618l-211 -215v-403h-370z" />
    <glyph glyph-name="L" unicode="L" horiz-adv-x="1183" 
d="M113 0v1475h370v-1143h672v-332h-1042z" />
    <glyph glyph-name="M" unicode="M" horiz-adv-x="1880" 
d="M788 0l-321 1063v-1063h-354v1475h559l270 -965l268 965h557v-1475h-352v1063l-321 -1063h-306z" />
    <glyph glyph-name="N" unicode="N" horiz-adv-x="1531" 
d="M1022 0l-555 954v-954h-354v1475h397l555 -953v953h354v-1475h-397z" />
    <glyph glyph-name="O" unicode="O" horiz-adv-x="1615" 
d="M809 -25q-180 0 -325.5 60t-239 164t-143.5 241.5t-50 296.5t50 296.5t143.5 241.5t239 164t325.5 60q179 0 324 -60t238.5 -164t143.5 -241.5t50 -296.5t-50 -296.5t-143.5 -241.5t-238.5 -164t-324 -60zM809 301q97 0 170 34.5t116 95.5t64 138t21 168t-21 168
t-64 138.5t-116 96t-170 34.5t-170.5 -34.5t-117 -96t-64.5 -138.5t-21 -168t21 -168t64.5 -138t117 -95.5t170.5 -34.5z" />
    <glyph glyph-name="P" unicode="P" horiz-adv-x="1384" 
d="M113 0v1475h653q271 0 419 -137.5t148 -362.5q0 -226 -148 -363t-419 -137h-283v-475h-370zM483 788h256q226 0 226 187q0 96 -57 140t-169 44h-256v-371z" />
    <glyph glyph-name="Q" unicode="Q" horiz-adv-x="1615" 
d="M1145 -156l-105 160q-113 -29 -231 -29q-180 0 -325.5 60t-239 164t-143.5 241.5t-50 296.5t50 296.5t143.5 241.5t239 164t325.5 60q179 0 324 -60t238.5 -164t143.5 -241.5t50 -296.5q0 -192 -73 -353.5t-210 -264.5l180 -275h-317zM809 301l37 2l-189 287h318
l110 -170q95 115 95 317q0 91 -21 168t-64 138.5t-116 96t-170 34.5t-170.5 -34.5t-117 -96t-64.5 -138.5t-21 -168t21 -168t64.5 -138t117 -95.5t170.5 -34.5z" />
    <glyph glyph-name="R" unicode="R" horiz-adv-x="1425" 
d="M113 0v1475h706q136 0 239.5 -33.5t167.5 -94t96 -140.5t32 -177q0 -114 -59.5 -206.5t-166.5 -157.5q94 -47 140.5 -119.5t60.5 -175.5l55 -371h-378l-45 324q-18 108 -70 160.5t-150 52.5h-258v-537h-370zM483 815h265q113 0 169 43.5t56 138.5t-56.5 139t-168.5 44
h-265v-365z" />
    <glyph glyph-name="S" unicode="S" horiz-adv-x="1366" 
d="M688 -25q-304 0 -474.5 140t-170.5 379h358q1 -55 18 -96.5t44 -66.5t67.5 -40.5t81.5 -21t93 -5.5q108 0 173.5 41.5t65.5 112.5q0 41 -21.5 68t-95 53.5t-209.5 48.5q-288 45 -418 158.5t-130 314.5q0 193 158.5 315.5t433.5 122.5q287 0 447.5 -129.5t170.5 -374.5
h-352q-4 112 -70 163.5t-196 51.5q-98 0 -157 -37t-59 -98q0 -42 22.5 -71t90.5 -56t189 -47q218 -34 345.5 -95t179.5 -148t52 -216q0 -115 -48.5 -205t-134.5 -147t-201 -86t-253 -29z" />
    <glyph glyph-name="T" unicode="T" horiz-adv-x="1310" 
d="M469 0v1143h-444v332h1261v-332h-444v-1143h-373z" />
    <glyph glyph-name="U" unicode="U" horiz-adv-x="1470" 
d="M735 -25q-187 0 -330.5 65.5t-228 201t-84.5 325.5v908h371v-908q0 -134 71.5 -203t200.5 -69q130 0 201.5 69t71.5 203v908h370v-908q0 -190 -84.5 -325.5t-228 -201t-330.5 -65.5z" />
    <glyph glyph-name="V" unicode="V" horiz-adv-x="1517" 
d="M539 0l-535 1475h395l367 -1156l352 1156h395l-534 -1475h-440z" />
    <glyph glyph-name="W" unicode="W" horiz-adv-x="2080" 
d="M1249 0l-209 987l-209 -987h-417l-410 1475h391l246 -1043l213 1043h371l213 -1043l245 1043h394l-412 -1475h-416z" />
    <glyph glyph-name="X" unicode="X" horiz-adv-x="1427" 
d="M995 0l-286 436l-287 -436h-418l496 754l-475 721h428l262 -398l260 398h418l-469 -715l499 -760h-428z" />
    <glyph glyph-name="Y" unicode="Y" horiz-adv-x="1497" 
d="M571 0v565l-567 910h424l330 -568l327 568h408l-551 -900v-575h-371z" />
    <glyph glyph-name="Z" unicode="Z" horiz-adv-x="1351" 
d="M57 0v295l740 854l-379 -6h-336v332h1204v-281l-754 -868l392 6h370v-332h-1237z" />
    <glyph glyph-name="bracketleft" unicode="[" horiz-adv-x="790" 
d="M37 -410v2048h641v-286h-316v-1475h316v-287h-641z" />
    <glyph glyph-name="backslash" unicode="\" horiz-adv-x="868" 
d="M868 0h-331l-537 1475h332z" />
    <glyph glyph-name="bracketright" unicode="]" horiz-adv-x="782" 
d="M29 -410v287h315v1475h-315v286h641v-2048h-641z" />
    <glyph glyph-name="underscore" unicode="_" horiz-adv-x="1097" 
d="M-4 -369v246h1106v-246h-1106z" />
    <glyph glyph-name="grave" unicode="`" horiz-adv-x="569" 
d="M569 1200h-270l-299 299h369z" />
    <glyph glyph-name="a" unicode="a" horiz-adv-x="1165" 
d="M770 0v111q-66 -73 -147 -104.5t-189 -31.5q-174 0 -282.5 87t-108.5 243q0 142 99 216t335 112l285 47v41q0 123 -156 123q-77 0 -120.5 -36.5t-45.5 -92.5h-340q1 121 67 206.5t177.5 127t257.5 41.5q244 0 369 -87t125 -241v-762h-326zM539 205q97 0 160 48.5
t63 149.5v74l-215 -41q-84 -16 -120 -41t-36 -78t38.5 -82.5t109.5 -29.5z" />
    <glyph glyph-name="b" unicode="b" horiz-adv-x="1253" 
d="M94 0v1475h342v-527q110 142 305 142q146 0 252 -74.5t157.5 -199t51.5 -284.5t-51.5 -284.5t-157.5 -198.5t-252 -74q-206 0 -315 154v-129h-332zM645 250q211 0 211 282q0 283 -211 283t-211 -283q0 -282 211 -282z" />
    <glyph glyph-name="c" unicode="c" horiz-adv-x="1165" 
d="M602 -25q-171 0 -297 74t-189 199t-63 284q0 119 37 220.5t105 176.5t173 118t234 43q235 0 370 -115.5t161 -310.5h-338q-15 72 -65.5 111.5t-127.5 39.5q-104 0 -154.5 -74t-50.5 -209t50.5 -208.5t154.5 -73.5q83 0 132 44t61 128h338q-24 -204 -159 -325.5
t-372 -121.5z" />
    <glyph glyph-name="d" unicode="d" horiz-adv-x="1253" 
d="M1159 0h-332v129q-109 -154 -315 -154q-146 0 -252 74t-157.5 198.5t-51.5 284.5t51.5 284.5t157.5 199t252 74.5q195 0 305 -142v527h342v-1475zM608 250q211 0 211 282q0 283 -211 283t-211 -283q0 -282 211 -282z" />
    <glyph glyph-name="e" unicode="e" horiz-adv-x="1212" 
d="M606 -25q-174 0 -301.5 74t-190.5 199t-63 284t63 284t190.5 199.5t301.5 74.5q266 0 410.5 -158t144.5 -440v-62h-778q19 -98 76 -151.5t147 -53.5q82 0 131.5 25.5t81.5 77.5h326q-54 -162 -194.5 -257.5t-344.5 -95.5zM385 645h442q-20 93 -77 144t-144 51t-144 -51
t-77 -144z" />
    <glyph glyph-name="f" unicode="f" horiz-adv-x="847" 
d="M205 1171q0 77 19 133.5t49 88.5t77 51t91.5 25t103.5 6h256v-246h-160q-54 0 -74 -21.5t-20 -68.5v-74h254v-246h-254v-819h-342v819h-178v246h178v106z" />
    <glyph glyph-name="g" unicode="g" horiz-adv-x="1253" 
d="M588 -434q-236 0 -367 104t-137 287h336q6 -69 55.5 -102t128.5 -33q41 0 75.5 9t66.5 30.5t50.5 64t18.5 101.5v133q-109 -131 -303 -131q-146 0 -252 71t-157.5 189t-51.5 270q0 153 51.5 271.5t157.5 189t252 70.5q201 0 311 -142v117h336v-1038q0 -113 -44.5 -202
t-122.5 -145t-180.5 -85t-223.5 -29zM608 291q211 0 211 268t-211 268t-211 -268t211 -268z" />
    <glyph glyph-name="h" unicode="h" 
d="M94 0v1475h342v-541q128 156 326 156q174 0 276.5 -111.5t102.5 -337.5v-641h-342v598q0 199 -168 199q-88 0 -141.5 -59.5t-53.5 -162.5v-575h-342z" />
    <glyph glyph-name="i" unicode="i" horiz-adv-x="528" 
d="M94 0v1065h342v-1065h-342zM94 1204v271h342v-271h-342z" />
    <glyph glyph-name="j" unicode="j" horiz-adv-x="542" 
d="M449 -106q0 -77 -19.5 -133.5t-49.5 -88.5t-77 -51t-91.5 -25t-102.5 -6h-234v246h137q53 0 73.5 21.5t20.5 68.5v1139h343v-1171zM106 1204v271h343v-271h-343z" />
    <glyph glyph-name="k" unicode="k" horiz-adv-x="1224" 
d="M94 0v1475h338v-799l375 389h391l-395 -401l416 -664h-392l-258 428l-137 -139v-289h-338z" />
    <glyph glyph-name="l" unicode="l" horiz-adv-x="714" 
d="M94 1475h342v-1139q0 -47 20.5 -68.5t73.5 -21.5h138v-246h-234q-58 0 -102.5 5.5t-91.5 24.5t-77 51t-49.5 88.5t-19.5 133.5v1172z" />
    <glyph glyph-name="m" unicode="m" horiz-adv-x="1865" 
d="M1430 598q0 90 -35.5 144.5t-114.5 54.5q-84 0 -130 -58.5t-46 -163.5v-575h-342v598q0 90 -35.5 144.5t-114.5 54.5q-84 0 -130 -58.5t-46 -163.5v-575h-342v1065h334v-152q120 177 315 177q105 0 187.5 -49t126.5 -146q64 89 154 142t200 53q162 0 261.5 -112.5
t99.5 -336.5v-641h-342v598z" />
    <glyph glyph-name="n" unicode="n" 
d="M799 598q0 199 -168 199q-88 0 -141.5 -59.5t-53.5 -162.5v-575h-342v1065h334v-141q131 166 334 166q174 0 276.5 -111.5t102.5 -337.5v-641h-342v598z" />
    <glyph glyph-name="o" unicode="o" horiz-adv-x="1226" 
d="M614 -25q-134 0 -242 42.5t-177.5 118t-106.5 176.5t-37 220t37 220.5t106.5 176.5t177.5 118t242 43t241.5 -43t177 -118t106.5 -176.5t37 -220.5t-37 -220t-106.5 -176.5t-177 -118t-241.5 -42.5zM614 250q217 0 217 282q0 283 -217 283q-219 0 -219 -283
q0 -282 219 -282z" />
    <glyph glyph-name="p" unicode="p" horiz-adv-x="1253" 
d="M94 1065h332v-129q109 154 315 154q146 0 252 -74.5t157.5 -199t51.5 -284.5t-51.5 -284.5t-157.5 -198.5t-252 -74q-195 0 -305 142v-527h-342v1475zM645 815q-211 0 -211 -283q0 -282 211 -282t211 282q0 283 -211 283z" />
    <glyph glyph-name="q" unicode="q" horiz-adv-x="1253" 
d="M1159 1065v-1475h-342v527q-110 -142 -305 -142q-146 0 -252 74t-157.5 198.5t-51.5 284.5t51.5 284.5t157.5 199t252 74.5q206 0 315 -154v129h332zM608 815q-211 0 -211 -283q0 -282 211 -282t211 282q0 283 -211 283z" />
    <glyph glyph-name="r" unicode="r" horiz-adv-x="868" 
d="M94 0v1065h334v-197q89 209 305 209h88v-309h-106q-141 0 -210 -70t-69 -237v-461h-342z" />
    <glyph glyph-name="s" unicode="s" horiz-adv-x="1093" 
d="M549 -25q-243 0 -375 88t-145 289h327q10 -87 61.5 -121t147.5 -34q69 0 115.5 24.5t46.5 67.5q0 32 -15.5 50.5t-66 36t-151.5 34.5q-248 43 -348.5 123.5t-100.5 218.5q0 161 131 249.5t359 88.5q247 0 370 -100.5t129 -272.5h-309q-7 151 -190 151q-71 0 -113.5 -25
t-42.5 -69q0 -31 19.5 -50.5t72.5 -35t154 -31.5q125 -19 211 -50t136 -75t71.5 -97t21.5 -122q0 -162 -140.5 -250t-375.5 -88z" />
    <glyph glyph-name="t" unicode="t" horiz-adv-x="847" 
d="M205 1393h342v-328h254v-246h-254v-483q0 -47 20 -68.5t74 -21.5h160v-246h-256q-59 0 -103.5 5.5t-91.5 24.5t-77 51t-49 88.5t-19 133.5v516h-178v246h178v328z" />
    <glyph glyph-name="u" unicode="u" 
d="M436 467q0 -199 168 -199q79 0 131.5 49t61.5 136v612h342v-1065h-334v139q-129 -164 -332 -164q-174 0 -276.5 111.5t-102.5 337.5v641h342v-598z" />
    <glyph glyph-name="v" unicode="v" horiz-adv-x="1187" 
d="M391 0l-385 1065h369l225 -770l213 770h369l-385 -1065h-406z" />
    <glyph glyph-name="w" unicode="w" horiz-adv-x="1812" 
d="M1085 0l-178 647l-180 -647h-360l-361 1065h369l196 -670l177 670h317l176 -670l197 670h368l-360 -1065h-361z" />
    <glyph glyph-name="x" unicode="x" horiz-adv-x="1155" 
d="M764 0l-191 274l-190 -274h-381l381 547l-360 518h387l168 -240l165 240h381l-356 -514l383 -551h-387z" />
    <glyph glyph-name="y" unicode="y" horiz-adv-x="1179" 
d="M63 -410v271h181q78 0 109 22.5t55 91.5l-402 1090h369l221 -766l209 766h369l-406 -1131q-30 -82 -64 -141t-84.5 -107t-121 -72t-162.5 -24h-273z" />
    <glyph glyph-name="z" unicode="z" horiz-adv-x="1097" 
d="M78 0v219l504 590h-500v256h917v-219l-503 -590h524v-256h-942z" />
    <glyph glyph-name="braceleft" unicode="{" horiz-adv-x="903" 
d="M563 -410q-360 0 -360 324v434q0 64 -37.5 95.5t-136.5 31.5v279q99 0 136.5 31.5t37.5 95.5v434q0 323 360 323h281v-278h-211q-53 0 -84 -32t-31 -79v-428q0 -179 -188 -207q188 -28 188 -206v-428q0 -47 31 -79t84 -32h211v-279h-281z" />
    <glyph glyph-name="bar" unicode="|" horiz-adv-x="516" 
d="M117 -451v2110h282v-2110h-282z" />
    <glyph glyph-name="braceright" unicode="}" horiz-adv-x="903" 
d="M29 -410v279h211q53 0 83.5 32t30.5 79v428q0 97 50.5 145t138.5 61q-189 29 -189 207v428q0 47 -30.5 79t-83.5 32h-211v278h280q361 0 361 -323v-434q0 -64 37.5 -95.5t136.5 -31.5v-279q-99 0 -136.5 -31.5t-37.5 -95.5v-434q0 -324 -361 -324h-280z" />
    <glyph glyph-name="exclamdown" unicode="&#xa1;" horiz-adv-x="520" 
d="M168 557h186l92 -516v-451h-370v451zM70 1065h383v-381h-383v381z" />
    <glyph glyph-name="cent" unicode="&#xa2;" horiz-adv-x="1165" 
d="M524 -233v213q-222 24 -346.5 176t-124.5 376t124.5 376.5t346.5 176.5v213h158v-213q198 -20 312.5 -131.5t138.5 -289.5h-338q-22 106 -113 137v-539q95 38 113 160h338q-23 -185 -136.5 -303t-314.5 -139v-213h-158zM397 532q0 -219 127 -270v541q-127 -51 -127 -271z
" />
    <glyph glyph-name="sterling" unicode="&#xa3;" horiz-adv-x="1263" 
d="M70 287q230 118 190 313h-227v164h164q-29 63 -43.5 99.5t-26.5 90.5t-12 109q0 195 150.5 315.5t387.5 120.5q276 0 416.5 -135t138.5 -383h-354q1 104 -51.5 158.5t-149.5 54.5q-81 0 -129.5 -41.5t-48.5 -114.5q0 -17 2.5 -35.5t5 -32t10 -35.5t11 -32.5t15 -36
t14.5 -32.5t17.5 -36t16.5 -34h426v-164h-379q9 -156 -120 -295h729v-305h-1153v287z" />
    <glyph glyph-name="yen" unicode="&#xa5;" horiz-adv-x="1497" 
d="M252 512v164h250l-498 799h424l330 -568l327 568h408l-489 -799h241v-164h-303v-147h303v-164h-303v-201h-371v201h-319v164h319v147h-319z" />
    <glyph glyph-name="dieresis" unicode="&#xa8;" horiz-adv-x="802" 
d="M0 1204v271h342v-271h-342zM461 1204v271h342v-271h-342z" />
    <glyph glyph-name="copyright" unicode="&#xa9;" horiz-adv-x="1691" 
d="M854 340q-183 0 -287 111.5t-104 285.5t104.5 286t286.5 112q166 0 262.5 -84.5t112.5 -223.5h-244q-9 51 -43 80t-88 29q-143 0 -143 -199q0 -198 143 -198q58 0 91.5 31t39.5 89h244q-16 -144 -112 -231.5t-263 -87.5zM846 -25q-221 0 -401.5 96.5t-285 271.5
t-104.5 394t104.5 394t285 271.5t401.5 96.5q165 0 310.5 -57t250.5 -156.5t166 -242t61 -306.5t-61 -306.5t-166 -242t-250.5 -156.5t-310.5 -57zM846 207q240 0 390 143.5t150 386.5t-150 387t-390 144t-390.5 -144t-150.5 -387t150.5 -386.5t390.5 -143.5z" />
    <glyph glyph-name="registered" unicode="&#xae;" horiz-adv-x="1691" 
d="M528 362v750h371q138 0 207.5 -63t69.5 -166q0 -116 -113 -187q89 -48 102 -155l27 -179h-215l-23 158q-15 105 -102 105h-111v-263h-213zM846 -25q-221 0 -401.5 96.5t-285 271.5t-104.5 394t104.5 394t285 271.5t401.5 96.5q165 0 310.5 -57t250.5 -156.5t166 -242
t61 -306.5t-61 -306.5t-166 -242t-250.5 -156.5t-310.5 -57zM846 207q240 0 390 143.5t150 386.5t-150 387t-390 144t-390.5 -144t-150.5 -387t150.5 -386.5t390.5 -143.5zM741 780h115q52 0 77 19t25 65q0 82 -102 82h-115v-166z" />
    <glyph glyph-name="degree" unicode="&#xb0;" horiz-adv-x="745" 
d="M373 864q-141 0 -238.5 90.5t-97.5 227.5t97.5 227t238.5 90q140 0 238 -90.5t98 -226.5t-98 -227t-238 -91zM373 1059q54 0 88.5 34.5t34.5 88.5t-34.5 89.5t-88.5 35.5t-89.5 -35.5t-35.5 -89.5t35.5 -88.5t89.5 -34.5z" />
    <glyph glyph-name="acute" unicode="&#xb4;" horiz-adv-x="569" 
d="M0 1200l201 299h368l-299 -299h-270z" />
    <glyph glyph-name="periodcentered" unicode="&#xb7;" horiz-adv-x="526" 
d="M72 547v381h383v-381h-383z" />
    <glyph glyph-name="cedilla" unicode="&#xb8;" horiz-adv-x="477" 
d="M154 -459q-82 0 -154 17v123q73 -13 117 -13q135 0 135 76q0 74 -119 74q-41 0 -61 -4v82l88 116h155l-98 -102h21q114 0 180.5 -43.5t66.5 -122.5q0 -86 -83.5 -144.5t-247.5 -58.5z" />
    <glyph glyph-name="questiondown" unicode="&#xbf;" horiz-adv-x="1165" 
d="M778 557q0 -144 -43 -219.5t-168 -153.5q-93 -57 -124 -99t-31 -103q0 -51 44.5 -91.5t133.5 -40.5q95 0 142.5 54.5t47.5 148.5h344q-2 -230 -136.5 -358.5t-397.5 -128.5q-256 0 -402.5 107.5t-146.5 289.5q0 124 47.5 204t171.5 152q104 61 146.5 110t42.5 128h329z
M805 1065v-381h-383v381h383z" />
    <glyph glyph-name="Agrave" unicode="&#xc0;" horiz-adv-x="1536" 
d="M1141 0l-84 248h-592l-84 -248h-377l535 1475h442l551 -1475h-391zM895 1573h-270l-299 299h368zM567 557h387l-194 576z" />
    <glyph glyph-name="Aacute" unicode="&#xc1;" horiz-adv-x="1536" 
d="M1141 0l-84 248h-592l-84 -248h-377l535 1475h442l551 -1475h-391zM625 1573l200 299h369l-299 -299h-270zM567 557h387l-194 576z" />
    <glyph glyph-name="Acircumflex" unicode="&#xc2;" horiz-adv-x="1536" 
d="M1141 0l-84 248h-592l-84 -248h-377l535 1475h442l551 -1475h-391zM946 1872l260 -299h-299l-145 141l-148 -141h-299l263 299h368zM567 557h387l-194 576z" />
    <glyph glyph-name="Atilde" unicode="&#xc3;" horiz-adv-x="1536" 
d="M1141 0l-84 248h-592l-84 -248h-377l535 1475h442l551 -1475h-391zM365 1573q0 153 66 226t173 73q56 0 156 -39q5 -2 22 -9t27 -11t25 -9t27.5 -7.5t23.5 -2.5q31 0 46 18t15 60h211q0 -153 -66 -226t-173 -73q-14 0 -29.5 2t-27.5 4.5t-28.5 8t-25 8.5t-25.5 9.5
t-22 8.5q-7 2 -27.5 10.5t-33.5 13t-31 9t-31 4.5q-33 0 -48.5 -18t-15.5 -60h-208zM567 557h387l-194 576z" />
    <glyph glyph-name="Adieresis" unicode="&#xc4;" horiz-adv-x="1536" 
d="M1141 0l-84 248h-592l-84 -248h-377l535 1475h442l551 -1475h-391zM358 1573v270h342v-270h-342zM819 1573v270h342v-270h-342zM567 557h387l-194 576z" />
    <glyph glyph-name="Aring" unicode="&#xc5;" horiz-adv-x="1536" 
d="M1141 0l-84 248h-592l-84 -248h-377l504 1393q-72 82 -72 196q0 132 94.5 218.5t231.5 86.5t230 -86.5t93 -218.5q0 -119 -73 -198l520 -1391h-391zM762 1475q50 0 82.5 31.5t32.5 82.5q0 49 -32.5 81t-82.5 32q-51 0 -84 -32t-33 -81q0 -51 33 -82.5t84 -31.5zM567 557
h387l-194 576z" />
    <glyph glyph-name="AE" unicode="&#xc6;" horiz-adv-x="2201" 
d="M1102 0v287h-590l-131 -287h-377l719 1475h1421v-332h-682v-242h625v-311h-625v-258h680v-332h-1040zM653 594h449v567h-187z" />
    <glyph glyph-name="Ccedilla" unicode="&#xc7;" horiz-adv-x="1556" 
d="M733 -483q-85 0 -153 16v123q68 -12 116 -12q135 0 135 75q0 74 -118 74q-42 0 -62 -4v82l82 106q-215 17 -371.5 124t-233.5 271t-77 365q0 159 50 296.5t143.5 241.5t239 164t325.5 60q144 0 266 -42.5t209.5 -118.5t144 -179.5t74.5 -226.5h-375q-30 110 -113 176
t-206 66q-97 0 -170.5 -34.5t-117 -96t-64.5 -138.5t-21 -168t21 -168t64.5 -138t117 -95.5t170.5 -34.5q131 0 212 73.5t109 198.5h375q-28 -245 -191.5 -407.5t-426.5 -185.5l-90 -95h20q114 0 181 -44t67 -122q0 -85 -84 -143.5t-248 -58.5z" />
    <glyph glyph-name="Egrave" unicode="&#xc8;" horiz-adv-x="1306" 
d="M113 0v1475h1136v-332h-766v-242h709v-311h-709v-258h764v-332h-1134zM815 1573h-270l-299 299h368z" />
    <glyph glyph-name="Eacute" unicode="&#xc9;" horiz-adv-x="1306" 
d="M113 0v1475h1136v-332h-766v-242h709v-311h-709v-258h764v-332h-1134zM547 1573l201 299h368l-299 -299h-270z" />
    <glyph glyph-name="Ecircumflex" unicode="&#xca;" horiz-adv-x="1306" 
d="M113 0v1475h1136v-332h-766v-242h709v-311h-709v-258h764v-332h-1134zM866 1872l260 -299h-299l-145 141l-147 -141h-299l262 299h368z" />
    <glyph glyph-name="Edieresis" unicode="&#xcb;" horiz-adv-x="1306" 
d="M113 0v1475h1136v-332h-766v-242h709v-311h-709v-258h764v-332h-1134zM279 1573v270h342v-270h-342zM741 1573v270h342v-270h-342z" />
    <glyph glyph-name="Igrave" unicode="&#xcc;" horiz-adv-x="595" 
d="M113 0v1475h370v-1475h-370zM432 1573h-270l-299 299h368z" />
    <glyph glyph-name="Iacute" unicode="&#xcd;" horiz-adv-x="595" 
d="M113 0v1475h370v-1475h-370zM164 1573l201 299h368l-299 -299h-270z" />
    <glyph glyph-name="Icircumflex" unicode="&#xce;" horiz-adv-x="595" 
d="M113 0v1475h370v-1475h-370zM483 1872l260 -299h-299l-145 141l-147 -141h-299l262 299h368z" />
    <glyph glyph-name="Idieresis" unicode="&#xcf;" horiz-adv-x="595" 
d="M113 0v1475h370v-1475h-370zM-104 1573v270h342v-270h-342zM358 1573v270h342v-270h-342z" />
    <glyph glyph-name="Ntilde" unicode="&#xd1;" horiz-adv-x="1531" 
d="M1022 0l-555 954v-954h-354v1475h397l555 -953v953h354v-1475h-397zM371 1573q0 153 66 226t173 73q56 0 156 -39q5 -2 22 -9t27 -11t25 -9t27.5 -7.5t23.5 -2.5q31 0 46 18t15 60h211q0 -153 -66 -226t-173 -73q-14 0 -29.5 2t-27.5 4.5t-28.5 8t-25 8.5t-25.5 9.5
t-22 8.5q-7 2 -27.5 10.5t-33.5 13t-31 9t-31 4.5q-33 0 -48 -18t-15 -60h-209z" />
    <glyph glyph-name="Ograve" unicode="&#xd2;" horiz-adv-x="1615" 
d="M809 -25q-180 0 -325.5 60t-239 164t-143.5 241.5t-50 296.5t50 296.5t143.5 241.5t239 164t325.5 60q179 0 324 -60t238.5 -164t143.5 -241.5t50 -296.5t-50 -296.5t-143.5 -241.5t-238.5 -164t-324 -60zM809 301q97 0 170 34.5t116 95.5t64 138t21 168t-21 168
t-64 138.5t-116 96t-170 34.5t-170.5 -34.5t-117 -96t-64.5 -138.5t-21 -168t21 -168t64.5 -138t117 -95.5t170.5 -34.5zM942 1597h-270l-299 299h368z" />
    <glyph glyph-name="Oacute" unicode="&#xd3;" horiz-adv-x="1615" 
d="M809 -25q-180 0 -325.5 60t-239 164t-143.5 241.5t-50 296.5t50 296.5t143.5 241.5t239 164t325.5 60q179 0 324 -60t238.5 -164t143.5 -241.5t50 -296.5t-50 -296.5t-143.5 -241.5t-238.5 -164t-324 -60zM809 301q97 0 170 34.5t116 95.5t64 138t21 168t-21 168
t-64 138.5t-116 96t-170 34.5t-170.5 -34.5t-117 -96t-64.5 -138.5t-21 -168t21 -168t64.5 -138t117 -95.5t170.5 -34.5zM674 1597l200 299h369l-299 -299h-270z" />
    <glyph glyph-name="Ocircumflex" unicode="&#xd4;" horiz-adv-x="1615" 
d="M809 -25q-180 0 -325.5 60t-239 164t-143.5 241.5t-50 296.5t50 296.5t143.5 241.5t239 164t325.5 60q179 0 324 -60t238.5 -164t143.5 -241.5t50 -296.5t-50 -296.5t-143.5 -241.5t-238.5 -164t-324 -60zM809 301q97 0 170 34.5t116 95.5t64 138t21 168t-21 168
t-64 138.5t-116 96t-170 34.5t-170.5 -34.5t-117 -96t-64.5 -138.5t-21 -168t21 -168t64.5 -138t117 -95.5t170.5 -34.5zM993 1896l260 -299h-299l-145 142l-147 -142h-300l263 299h368z" />
    <glyph glyph-name="Otilde" unicode="&#xd5;" horiz-adv-x="1615" 
d="M809 -25q-180 0 -325.5 60t-239 164t-143.5 241.5t-50 296.5t50 296.5t143.5 241.5t239 164t325.5 60q179 0 324 -60t238.5 -164t143.5 -241.5t50 -296.5t-50 -296.5t-143.5 -241.5t-238.5 -164t-324 -60zM809 301q97 0 170 34.5t116 95.5t64 138t21 168t-21 168
t-64 138.5t-116 96t-170 34.5t-170.5 -34.5t-117 -96t-64.5 -138.5t-21 -168t21 -168t64.5 -138t117 -95.5t170.5 -34.5zM412 1597q0 153 66 226t173 73q59 0 156 -38q5 -2 22 -9t27 -11t25 -9t27.5 -7.5t23.5 -2.5q32 0 46.5 17.5t14.5 59.5h211q0 -153 -66 -226t-173 -73
q-14 0 -29.5 2t-27.5 4.5t-28.5 8t-25 8.5t-25.5 9.5t-22 8.5q-7 2 -27.5 10.5t-33.5 13t-31 9t-31 4.5q-33 0 -48 -18t-15 -60h-209z" />
    <glyph glyph-name="Odieresis" unicode="&#xd6;" horiz-adv-x="1615" 
d="M809 -25q-180 0 -325.5 60t-239 164t-143.5 241.5t-50 296.5t50 296.5t143.5 241.5t239 164t325.5 60q179 0 324 -60t238.5 -164t143.5 -241.5t50 -296.5t-50 -296.5t-143.5 -241.5t-238.5 -164t-324 -60zM809 301q97 0 170 34.5t116 95.5t64 138t21 168t-21 168
t-64 138.5t-116 96t-170 34.5t-170.5 -34.5t-117 -96t-64.5 -138.5t-21 -168t21 -168t64.5 -138t117 -95.5t170.5 -34.5zM406 1597v271h342v-271h-342zM868 1597v271h342v-271h-342z" />
    <glyph glyph-name="multiply" unicode="&#xd7;" horiz-adv-x="1056" 
d="M82 983l203 203l243 -244l246 246l203 -205l-244 -244l244 -245l-203 -203l-244 246l-245 -246l-203 205l244 243z" />
    <glyph glyph-name="Oslash" unicode="&#xd8;" horiz-adv-x="1615" 
d="M809 -25q-259 0 -440 121l-191 -213l-153 140l190 210q-164 203 -164 504q0 159 50 296.5t143.5 241.5t239 164t325.5 60q256 0 436 -119l191 211l153 -139l-188 -211q164 -206 164 -504q0 -159 -50 -296.5t-143.5 -241.5t-238.5 -164t-324 -60zM809 301q97 0 170 34.5
t116 95.5t64 138t21 168q0 121 -37 219l-541 -600q86 -55 207 -55zM436 737q0 -119 37 -217l539 600q-82 54 -203 54q-97 0 -170.5 -34.5t-117 -96t-64.5 -138.5t-21 -168z" />
    <glyph glyph-name="Ugrave" unicode="&#xd9;" horiz-adv-x="1470" 
d="M735 -25q-187 0 -330.5 65.5t-228 201t-84.5 325.5v908h371v-908q0 -134 71.5 -203t200.5 -69q130 0 201.5 69t71.5 203v908h370v-908q0 -190 -84.5 -325.5t-228 -201t-330.5 -65.5zM870 1573h-270l-299 299h369z" />
    <glyph glyph-name="Uacute" unicode="&#xda;" horiz-adv-x="1470" 
d="M735 -25q-187 0 -330.5 65.5t-228 201t-84.5 325.5v908h371v-908q0 -134 71.5 -203t200.5 -69q130 0 201.5 69t71.5 203v908h370v-908q0 -190 -84.5 -325.5t-228 -201t-330.5 -65.5zM600 1573l201 299h368l-299 -299h-270z" />
    <glyph glyph-name="Ucircumflex" unicode="&#xdb;" horiz-adv-x="1470" 
d="M735 -25q-187 0 -330.5 65.5t-228 201t-84.5 325.5v908h371v-908q0 -134 71.5 -203t200.5 -69q130 0 201.5 69t71.5 203v908h370v-908q0 -190 -84.5 -325.5t-228 -201t-330.5 -65.5zM922 1872l260 -299h-299l-146 141l-147 -141h-299l262 299h369z" />
    <glyph glyph-name="Udieresis" unicode="&#xdc;" horiz-adv-x="1470" 
d="M735 -25q-187 0 -330.5 65.5t-228 201t-84.5 325.5v908h371v-908q0 -134 71.5 -203t200.5 -69q130 0 201.5 69t71.5 203v908h370v-908q0 -190 -84.5 -325.5t-228 -201t-330.5 -65.5zM334 1573v270h342v-270h-342zM795 1573v270h342v-270h-342z" />
    <glyph glyph-name="Yacute" unicode="&#xdd;" horiz-adv-x="1497" 
d="M571 0v565l-567 910h424l330 -568l327 568h408l-551 -900v-575h-371zM623 1573l200 299h369l-299 -299h-270z" />
    <glyph glyph-name="germandbls" unicode="&#xdf;" horiz-adv-x="1245" 
d="M94 1028q0 228 134.5 349.5t383.5 121.5q215 0 350.5 -112.5t135.5 -290.5q0 -189 -142 -299q236 -102 236 -355q0 -227 -140.5 -347t-404.5 -120q-53 0 -108 9v270q41 -8 92 -8q93 0 152 50t59 146q0 100 -61.5 149.5t-166.5 49.5h-63v225h61q77 0 125.5 45t48.5 125
q0 78 -48.5 124t-125.5 46q-78 0 -127 -47t-49 -131v-1028h-342v1028z" />
    <glyph glyph-name="agrave" unicode="&#xe0;" horiz-adv-x="1165" 
d="M770 0v111q-66 -73 -147 -104.5t-189 -31.5q-174 0 -282.5 87t-108.5 243q0 142 99 216t335 112l285 47v41q0 123 -156 123q-77 0 -120.5 -36.5t-45.5 -92.5h-340q1 121 67 206.5t177.5 127t257.5 41.5q244 0 369 -87t125 -241v-762h-326zM539 205q97 0 160 48.5
t63 149.5v74l-215 -41q-84 -16 -120 -41t-36 -78t38.5 -82.5t109.5 -29.5zM733 1200h-270l-299 299h368z" />
    <glyph glyph-name="aacute" unicode="&#xe1;" horiz-adv-x="1165" 
d="M770 0v111q-66 -73 -147 -104.5t-189 -31.5q-174 0 -282.5 87t-108.5 243q0 142 99 216t335 112l285 47v41q0 123 -156 123q-77 0 -120.5 -36.5t-45.5 -92.5h-340q1 121 67 206.5t177.5 127t257.5 41.5q244 0 369 -87t125 -241v-762h-326zM539 205q97 0 160 48.5
t63 149.5v74l-215 -41q-84 -16 -120 -41t-36 -78t38.5 -82.5t109.5 -29.5zM463 1200l201 299h368l-299 -299h-270z" />
    <glyph glyph-name="acircumflex" unicode="&#xe2;" horiz-adv-x="1165" 
d="M770 0v111q-66 -73 -147 -104.5t-189 -31.5q-174 0 -282.5 87t-108.5 243q0 142 99 216t335 112l285 47v41q0 123 -156 123q-77 0 -120.5 -36.5t-45.5 -92.5h-340q1 121 67 206.5t177.5 127t257.5 41.5q244 0 369 -87t125 -241v-762h-326zM539 205q97 0 160 48.5
t63 149.5v74l-215 -41q-84 -16 -120 -41t-36 -78t38.5 -82.5t109.5 -29.5zM784 1499l260 -299h-299l-145 141l-147 -141h-299l262 299h368z" />
    <glyph glyph-name="atilde" unicode="&#xe3;" horiz-adv-x="1165" 
d="M770 0v111q-66 -73 -147 -104.5t-189 -31.5q-174 0 -282.5 87t-108.5 243q0 142 99 216t335 112l285 47v41q0 123 -156 123q-77 0 -120.5 -36.5t-45.5 -92.5h-340q1 121 67 206.5t177.5 127t257.5 41.5q244 0 369 -87t125 -241v-762h-326zM539 205q97 0 160 48.5
t63 149.5v74l-215 -41q-84 -16 -120 -41t-36 -78t38.5 -82.5t109.5 -29.5zM203 1200q0 153 66 226t173 73q56 0 156 -39q5 -2 22 -9t27 -11t25 -9t27.5 -7.5t23.5 -2.5q31 0 46 18t15 60h211q0 -153 -66 -226t-173 -73q-14 0 -29.5 2t-27.5 4.5t-28.5 8t-25 8.5t-25.5 9.5
t-22 8.5q-7 2 -27.5 10.5t-33.5 13t-31 9t-31 4.5q-33 0 -48 -18t-15 -60h-209z" />
    <glyph glyph-name="adieresis" unicode="&#xe4;" horiz-adv-x="1165" 
d="M770 0v111q-66 -73 -147 -104.5t-189 -31.5q-174 0 -282.5 87t-108.5 243q0 142 99 216t335 112l285 47v41q0 123 -156 123q-77 0 -120.5 -36.5t-45.5 -92.5h-340q1 121 67 206.5t177.5 127t257.5 41.5q244 0 369 -87t125 -241v-762h-326zM539 205q97 0 160 48.5
t63 149.5v74l-215 -41q-84 -16 -120 -41t-36 -78t38.5 -82.5t109.5 -29.5zM197 1204v271h342v-271h-342zM657 1204v271h342v-271h-342z" />
    <glyph glyph-name="aring" unicode="&#xe5;" horiz-adv-x="1165" 
d="M770 0v111q-66 -73 -147 -104.5t-189 -31.5q-174 0 -282.5 87t-108.5 243q0 142 99 216t335 112l285 47v41q0 123 -156 123q-77 0 -120.5 -36.5t-45.5 -92.5h-340q1 121 67 206.5t177.5 127t257.5 41.5q244 0 369 -87t125 -241v-762h-326zM539 205q97 0 160 48.5
t63 149.5v74l-215 -41q-84 -16 -120 -41t-36 -78t38.5 -82.5t109.5 -29.5zM600 1188q-137 0 -231.5 87t-94.5 220q0 132 94.5 218.5t231.5 86.5t230.5 -86.5t93.5 -218.5q0 -133 -93.5 -220t-230.5 -87zM600 1380q50 0 82.5 32t32.5 83q0 49 -32.5 81t-82.5 32
q-51 0 -84 -32t-33 -81q0 -51 33 -83t84 -32z" />
    <glyph glyph-name="ae" unicode="&#xe6;" horiz-adv-x="1878" 
d="M434 -25q-174 0 -282.5 87t-108.5 243q0 142 99 216t335 112l285 49v39q0 123 -156 123q-77 0 -120.5 -36.5t-45.5 -92.5h-340q1 121 67 206.5t177.5 127t257.5 41.5q255 0 361 -103q134 103 331 103q256 0 394.5 -158t138.5 -440v-62h-750q21 -98 76.5 -151.5
t140.5 -53.5q145 0 203 103h313q-52 -162 -186.5 -257.5t-329.5 -95.5q-255 0 -401 166q-138 -166 -459 -166zM539 205q97 0 160 48.5t63 149.5v74l-215 -41q-84 -16 -120 -41t-36 -78t38.5 -82.5t109.5 -29.5zM1079 645h430q-22 94 -76.5 144.5t-138.5 50.5t-138.5 -50.5
t-76.5 -144.5z" />
    <glyph glyph-name="ccedilla" unicode="&#xe7;" horiz-adv-x="1165" 
d="M528 -483q-85 0 -153 16v123q68 -12 117 -12q135 0 135 75q0 74 -119 74q-42 0 -62 -4v82l82 109q-224 23 -349.5 175t-125.5 377q0 119 37 220.5t105 176.5t173 118t234 43q235 0 370 -115.5t161 -310.5h-338q-15 72 -65.5 111.5t-127.5 39.5q-104 0 -154.5 -74
t-50.5 -209t50.5 -208.5t154.5 -73.5q83 0 132 44t61 128h338q-23 -185 -136.5 -303t-314.5 -139l-90 -95h20q114 0 181 -44t67 -122q0 -85 -84 -143.5t-248 -58.5z" />
    <glyph glyph-name="egrave" unicode="&#xe8;" horiz-adv-x="1212" 
d="M606 -25q-174 0 -301.5 74t-190.5 199t-63 284t63 284t190.5 199.5t301.5 74.5q266 0 410.5 -158t144.5 -440v-62h-778q19 -98 76 -151.5t147 -53.5q82 0 131.5 25.5t81.5 77.5h326q-54 -162 -194.5 -257.5t-344.5 -95.5zM741 1200h-270l-299 299h369zM385 645h442
q-20 93 -77 144t-144 51t-144 -51t-77 -144z" />
    <glyph glyph-name="eacute" unicode="&#xe9;" horiz-adv-x="1212" 
d="M606 -25q-174 0 -301.5 74t-190.5 199t-63 284t63 284t190.5 199.5t301.5 74.5q266 0 410.5 -158t144.5 -440v-62h-778q19 -98 76 -151.5t147 -53.5q82 0 131.5 25.5t81.5 77.5h326q-54 -162 -194.5 -257.5t-344.5 -95.5zM471 1200l201 299h368l-299 -299h-270zM385 645
h442q-20 93 -77 144t-144 51t-144 -51t-77 -144z" />
    <glyph glyph-name="ecircumflex" unicode="&#xea;" horiz-adv-x="1212" 
d="M606 -25q-174 0 -301.5 74t-190.5 199t-63 284t63 284t190.5 199.5t301.5 74.5q266 0 410.5 -158t144.5 -440v-62h-778q19 -98 76 -151.5t147 -53.5q82 0 131.5 25.5t81.5 77.5h326q-54 -162 -194.5 -257.5t-344.5 -95.5zM793 1499l260 -299h-299l-146 141l-147 -141
h-299l262 299h369zM385 645h442q-20 93 -77 144t-144 51t-144 -51t-77 -144z" />
    <glyph glyph-name="edieresis" unicode="&#xeb;" horiz-adv-x="1212" 
d="M606 -25q-174 0 -301.5 74t-190.5 199t-63 284t63 284t190.5 199.5t301.5 74.5q266 0 410.5 -158t144.5 -440v-62h-778q19 -98 76 -151.5t147 -53.5q82 0 131.5 25.5t81.5 77.5h326q-54 -162 -194.5 -257.5t-344.5 -95.5zM205 1204v271h342v-271h-342zM666 1204v271h342
v-271h-342zM385 645h442q-20 93 -77 144t-144 51t-144 -51t-77 -144z" />
    <glyph glyph-name="igrave" unicode="&#xec;" horiz-adv-x="528" 
d="M94 0v1065h342v-1065h-342zM399 1200h-270l-299 299h369z" />
    <glyph glyph-name="iacute" unicode="&#xed;" horiz-adv-x="528" 
d="M94 0v1065h342v-1065h-342zM129 1200l201 299h368l-299 -299h-270z" />
    <glyph glyph-name="icircumflex" unicode="&#xee;" horiz-adv-x="528" 
d="M94 0v1065h342v-1065h-342zM451 1499l260 -299h-299l-146 141l-147 -141h-299l262 299h369z" />
    <glyph glyph-name="idieresis" unicode="&#xef;" horiz-adv-x="528" 
d="M94 0v1065h342v-1065h-342zM-137 1204v271h342v-271h-342zM324 1204v271h342v-271h-342z" />
    <glyph glyph-name="ntilde" unicode="&#xf1;" 
d="M799 598q0 199 -168 199q-88 0 -141.5 -59.5t-53.5 -162.5v-575h-342v1065h334v-141q131 166 334 166q174 0 276.5 -111.5t102.5 -337.5v-641h-342v598zM221 1200q0 153 66.5 226t173.5 73q55 0 155 -39q5 -2 22 -9t27 -11t25 -9t27.5 -7.5t23.5 -2.5q32 0 47 18t15 60
h211q0 -153 -66.5 -226t-173.5 -73q-14 0 -29.5 2t-27.5 4.5t-28.5 8t-25 8.5t-25.5 9.5t-22 8.5q-7 3 -27 10.5t-33 12.5t-31 9.5t-31 4.5q-33 0 -48.5 -18t-15.5 -60h-209z" />
    <glyph glyph-name="ograve" unicode="&#xf2;" horiz-adv-x="1226" 
d="M614 -25q-134 0 -242 42.5t-177.5 118t-106.5 176.5t-37 220t37 220.5t106.5 176.5t177.5 118t242 43t241.5 -43t177 -118t106.5 -176.5t37 -220.5t-37 -220t-106.5 -176.5t-177 -118t-241.5 -42.5zM614 250q217 0 217 282q0 283 -217 283q-219 0 -219 -283
q0 -282 219 -282zM748 1200h-271l-299 299h369z" />
    <glyph glyph-name="oacute" unicode="&#xf3;" horiz-adv-x="1226" 
d="M614 -25q-134 0 -242 42.5t-177.5 118t-106.5 176.5t-37 220t37 220.5t106.5 176.5t177.5 118t242 43t241.5 -43t177 -118t106.5 -176.5t37 -220.5t-37 -220t-106.5 -176.5t-177 -118t-241.5 -42.5zM614 250q217 0 217 282q0 283 -217 283q-219 0 -219 -283
q0 -282 219 -282zM479 1200l201 299h369l-299 -299h-271z" />
    <glyph glyph-name="ocircumflex" unicode="&#xf4;" horiz-adv-x="1226" 
d="M614 -25q-134 0 -242 42.5t-177.5 118t-106.5 176.5t-37 220t37 220.5t106.5 176.5t177.5 118t242 43t241.5 -43t177 -118t106.5 -176.5t37 -220.5t-37 -220t-106.5 -176.5t-177 -118t-241.5 -42.5zM614 250q217 0 217 282q0 283 -217 283q-219 0 -219 -283
q0 -282 219 -282zM799 1499l260 -299h-299l-146 141l-147 -141h-299l262 299h369z" />
    <glyph glyph-name="otilde" unicode="&#xf5;" horiz-adv-x="1226" 
d="M614 -25q-134 0 -242 42.5t-177.5 118t-106.5 176.5t-37 220t37 220.5t106.5 176.5t177.5 118t242 43t241.5 -43t177 -118t106.5 -176.5t37 -220.5t-37 -220t-106.5 -176.5t-177 -118t-241.5 -42.5zM614 250q217 0 217 282q0 283 -217 283q-219 0 -219 -283
q0 -282 219 -282zM217 1200q0 153 66.5 226t173.5 73q55 0 155 -39q5 -2 22 -9t27 -11t25 -9t27.5 -7.5t23.5 -2.5q32 0 47 18t15 60h211q0 -153 -66.5 -226t-173.5 -73q-14 0 -29.5 2t-27.5 4.5t-28.5 8t-25 8.5t-25.5 9.5t-22 8.5q-7 2 -27.5 10.5t-33.5 13t-31 9t-31 4.5
q-33 0 -48 -18t-15 -60h-209z" />
    <glyph glyph-name="odieresis" unicode="&#xf6;" horiz-adv-x="1226" 
d="M614 -25q-134 0 -242 42.5t-177.5 118t-106.5 176.5t-37 220t37 220.5t106.5 176.5t177.5 118t242 43t241.5 -43t177 -118t106.5 -176.5t37 -220.5t-37 -220t-106.5 -176.5t-177 -118t-241.5 -42.5zM614 250q217 0 217 282q0 283 -217 283q-219 0 -219 -283
q0 -282 219 -282zM211 1204v271h342v-271h-342zM674 1204v271h342v-271h-342z" />
    <glyph glyph-name="divide" unicode="&#xf7;" horiz-adv-x="1105" 
d="M63 592v289h979v-289h-979zM381 195v270h342v-270h-342zM381 1010v270h342v-270h-342z" />
    <glyph glyph-name="oslash" unicode="&#xf8;" horiz-adv-x="1226" 
d="M614 -25q-172 0 -303 72l-135 -156l-137 121l131 152q-119 146 -119 368q0 119 37 220.5t106.5 176.5t177.5 118t242 43q173 0 301 -70l134 154l139 -121l-131 -152q119 -146 119 -369q0 -119 -37 -220t-106.5 -176.5t-177 -118t-241.5 -42.5zM614 250q217 0 217 282
q0 62 -8 101l-315 -361q46 -22 106 -22zM395 532q0 -59 8 -100l316 361q-46 22 -105 22q-219 0 -219 -283z" />
    <glyph glyph-name="ugrave" unicode="&#xf9;" 
d="M436 467q0 -199 168 -199q79 0 131.5 49t61.5 136v612h342v-1065h-334v139q-129 -164 -332 -164q-174 0 -276.5 111.5t-102.5 337.5v641h342v-598zM752 1200h-271l-299 299h369z" />
    <glyph glyph-name="uacute" unicode="&#xfa;" 
d="M436 467q0 -199 168 -199q79 0 131.5 49t61.5 136v612h342v-1065h-334v139q-129 -164 -332 -164q-174 0 -276.5 111.5t-102.5 337.5v641h342v-598zM481 1200l201 299h369l-299 -299h-271z" />
    <glyph glyph-name="ucircumflex" unicode="&#xfb;" 
d="M436 467q0 -199 168 -199q79 0 131.5 49t61.5 136v612h342v-1065h-334v139q-129 -164 -332 -164q-174 0 -276.5 111.5t-102.5 337.5v641h342v-598zM803 1499l260 -299h-299l-146 141l-147 -141h-299l262 299h369z" />
    <glyph glyph-name="udieresis" unicode="&#xfc;" 
d="M436 467q0 -199 168 -199q79 0 131.5 49t61.5 136v612h342v-1065h-334v139q-129 -164 -332 -164q-174 0 -276.5 111.5t-102.5 337.5v641h342v-598zM215 1204v271h342v-271h-342zM676 1204v271h342v-271h-342z" />
    <glyph glyph-name="yacute" unicode="&#xfd;" horiz-adv-x="1179" 
d="M63 -410v271h181q78 0 109 22.5t55 91.5l-402 1090h369l221 -766l209 766h369l-406 -1131q-30 -82 -64 -141t-84.5 -107t-121 -72t-162.5 -24h-273zM455 1200l200 299h369l-299 -299h-270z" />
    <glyph glyph-name="ydieresis" unicode="&#xff;" horiz-adv-x="1179" 
d="M63 -410v271h181q78 0 109 22.5t55 91.5l-402 1090h369l221 -766l209 766h369l-406 -1131q-30 -82 -64 -141t-84.5 -107t-121 -72t-162.5 -24h-273zM188 1204v271h342v-271h-342zM649 1204v271h342v-271h-342z" />
    <glyph glyph-name="Abreve" unicode="&#x102;" horiz-adv-x="1536" 
d="M1141 0l-84 248h-592l-84 -248h-377l535 1475h442l551 -1475h-391zM760 1561q-155 0 -255.5 81.5t-123.5 229.5h250q12 -111 129 -111t129 111h250q-25 -148 -125.5 -229.5t-253.5 -81.5zM567 557h387l-194 576z" />
    <glyph glyph-name="abreve" unicode="&#x103;" horiz-adv-x="1165" 
d="M770 0v111q-66 -73 -147 -104.5t-189 -31.5q-174 0 -282.5 87t-108.5 243q0 142 99 216t335 112l285 47v41q0 123 -156 123q-77 0 -120.5 -36.5t-45.5 -92.5h-340q1 121 67 206.5t177.5 127t257.5 41.5q244 0 369 -87t125 -241v-762h-326zM539 205q97 0 160 48.5
t63 149.5v74l-215 -41q-84 -16 -120 -41t-36 -78t38.5 -82.5t109.5 -29.5zM598 1188q-155 0 -255.5 81.5t-123.5 229.5h250q12 -110 129 -110t129 110h250q-25 -148 -125.5 -229.5t-253.5 -81.5z" />
    <glyph glyph-name="Aogonek" unicode="&#x104;" horiz-adv-x="1536" 
d="M1141 0l-84 248h-592l-84 -248h-377l535 1475h442l551 -1473l2 -2q-107 -50 -151 -92.5t-44 -83.5q0 -36 29 -54t76 -18q44 0 90 12v-178q-67 -20 -160 -20q-130 0 -208.5 48t-78.5 150q0 65 52 129.5t145 106.5h-143zM567 557h387l-194 576z" />
    <glyph glyph-name="aogonek" unicode="&#x105;" horiz-adv-x="1165" 
d="M770 0v111q-66 -73 -147 -104.5t-189 -31.5q-174 0 -282.5 87t-108.5 243q0 142 99 216t335 112l285 47v41q0 123 -156 123q-77 0 -120.5 -36.5t-45.5 -92.5h-340q1 121 67 206.5t177.5 127t257.5 41.5q244 0 369 -87t125 -241v-760l2 -2q-107 -50 -151 -92.5t-44 -83.5
q0 -36 29 -54t76 -18q44 0 90 12v-178q-67 -20 -160 -20q-130 0 -208.5 48t-78.5 150q0 65 52 129.5t145 106.5h-78zM539 205q97 0 160 48.5t63 149.5v74l-215 -41q-84 -16 -120 -41t-36 -78t38.5 -82.5t109.5 -29.5z" />
    <glyph glyph-name="Cacute" unicode="&#x106;" horiz-adv-x="1556" 
d="M809 -25q-180 0 -325.5 60t-239 164t-143.5 241.5t-50 296.5t50 296.5t143.5 241.5t239 164t325.5 60q144 0 266 -42.5t209.5 -118.5t144 -179.5t74.5 -226.5h-375q-30 110 -113 176t-206 66q-97 0 -170.5 -34.5t-117 -96t-64.5 -138.5t-21 -168t21 -168t64.5 -138
t117 -95.5t170.5 -34.5q131 0 212 73.5t109 198.5h375q-15 -129 -69 -238t-141.5 -189t-212.5 -125.5t-273 -45.5zM674 1597l200 299h369l-299 -299h-270z" />
    <glyph glyph-name="cacute" unicode="&#x107;" horiz-adv-x="1165" 
d="M602 -25q-171 0 -297 74t-189 199t-63 284q0 119 37 220.5t105 176.5t173 118t234 43q235 0 370 -115.5t161 -310.5h-338q-15 72 -65.5 111.5t-127.5 39.5q-104 0 -154.5 -74t-50.5 -209t50.5 -208.5t154.5 -73.5q83 0 132 44t61 128h338q-24 -204 -159 -325.5
t-372 -121.5zM469 1200l201 299h368l-299 -299h-270z" />
    <glyph glyph-name="Ccircumflex" unicode="&#x108;" horiz-adv-x="1556" 
d="M809 -25q-180 0 -325.5 60t-239 164t-143.5 241.5t-50 296.5t50 296.5t143.5 241.5t239 164t325.5 60q144 0 266 -42.5t209.5 -118.5t144 -179.5t74.5 -226.5h-375q-30 110 -113 176t-206 66q-97 0 -170.5 -34.5t-117 -96t-64.5 -138.5t-21 -168t21 -168t64.5 -138
t117 -95.5t170.5 -34.5q131 0 212 73.5t109 198.5h375q-15 -129 -69 -238t-141.5 -189t-212.5 -125.5t-273 -45.5zM993 1896l260 -299h-299l-145 142l-147 -142h-300l263 299h368z" />
    <glyph glyph-name="ccircumflex" unicode="&#x109;" horiz-adv-x="1165" 
d="M602 -25q-171 0 -297 74t-189 199t-63 284q0 119 37 220.5t105 176.5t173 118t234 43q235 0 370 -115.5t161 -310.5h-338q-15 72 -65.5 111.5t-127.5 39.5q-104 0 -154.5 -74t-50.5 -209t50.5 -208.5t154.5 -73.5q83 0 132 44t61 128h338q-24 -204 -159 -325.5
t-372 -121.5zM788 1499l261 -299h-299l-146 141l-147 -141h-299l262 299h368z" />
    <glyph glyph-name="Cdotaccent" unicode="&#x10a;" horiz-adv-x="1556" 
d="M809 -25q-180 0 -325.5 60t-239 164t-143.5 241.5t-50 296.5t50 296.5t143.5 241.5t239 164t325.5 60q144 0 266 -42.5t209.5 -118.5t144 -179.5t74.5 -226.5h-375q-30 110 -113 176t-206 66q-97 0 -170.5 -34.5t-117 -96t-64.5 -138.5t-21 -168t21 -168t64.5 -138
t117 -95.5t170.5 -34.5q131 0 212 73.5t109 198.5h375q-15 -129 -69 -238t-141.5 -189t-212.5 -125.5t-273 -45.5zM637 1597v271h342v-271h-342z" />
    <glyph glyph-name="cdotaccent" unicode="&#x10b;" horiz-adv-x="1165" 
d="M602 -25q-171 0 -297 74t-189 199t-63 284q0 119 37 220.5t105 176.5t173 118t234 43q235 0 370 -115.5t161 -310.5h-338q-15 72 -65.5 111.5t-127.5 39.5q-104 0 -154.5 -74t-50.5 -209t50.5 -208.5t154.5 -73.5q83 0 132 44t61 128h338q-24 -204 -159 -325.5
t-372 -121.5zM432 1204v271h342v-271h-342z" />
    <glyph glyph-name="Ccaron" unicode="&#x10c;" horiz-adv-x="1556" 
d="M809 -25q-180 0 -325.5 60t-239 164t-143.5 241.5t-50 296.5t50 296.5t143.5 241.5t239 164t325.5 60q144 0 266 -42.5t209.5 -118.5t144 -179.5t74.5 -226.5h-375q-30 110 -113 176t-206 66q-97 0 -170.5 -34.5t-117 -96t-64.5 -138.5t-21 -168t21 -168t64.5 -138
t117 -95.5t170.5 -34.5q131 0 212 73.5t109 198.5h375q-15 -129 -69 -238t-141.5 -189t-212.5 -125.5t-273 -45.5zM625 1597l-263 299h300l147 -141l145 141h299l-260 -299h-368z" />
    <glyph glyph-name="ccaron" unicode="&#x10d;" horiz-adv-x="1165" 
d="M602 -25q-171 0 -297 74t-189 199t-63 284q0 119 37 220.5t105 176.5t173 118t234 43q235 0 370 -115.5t161 -310.5h-338q-15 72 -65.5 111.5t-127.5 39.5q-104 0 -154.5 -74t-50.5 -209t50.5 -208.5t154.5 -73.5q83 0 132 44t61 128h338q-24 -204 -159 -325.5
t-372 -121.5zM420 1200l-262 299h299l147 -141l146 141h299l-261 -299h-368z" />
    <glyph glyph-name="Dcaron" unicode="&#x10e;" horiz-adv-x="1529" 
d="M113 0v1475h606q192 0 339.5 -55.5t238.5 -156.5t136.5 -233t45.5 -293t-45.5 -293t-136.5 -232.5t-238.5 -156t-339.5 -55.5h-606zM543 1573l-262 299h299l147 -141l145 141h299l-260 -299h-368zM483 315h236q98 0 172 32.5t117.5 90.5t64.5 133t21 166t-21 166
t-64.5 133t-117.5 90.5t-172 32.5h-236v-844z" />
    <glyph glyph-name="dcaron" unicode="&#x10f;" horiz-adv-x="1253" 
d="M1159 0h-332v129q-109 -154 -315 -154q-146 0 -252 74t-157.5 198.5t-51.5 284.5t51.5 284.5t157.5 199t252 74.5q195 0 305 -142v527h342v-1475zM608 250q211 0 211 282q0 283 -211 283t-211 -283q0 -282 211 -282zM1241 1126l43 349h334l-152 -349h-225z" />
    <glyph glyph-name="Dcroat" unicode="&#x110;" horiz-adv-x="1572" 
d="M0 657v189h156v633h606q192 0 339.5 -55.5t238.5 -156.5t136.5 -233t45.5 -293t-45.5 -293t-136.5 -232.5t-238.5 -156t-339.5 -55.5h-606v653h-156zM526 319h236q98 0 172 32.5t117.5 90.5t64.5 133t21 166t-21 166t-64.5 133t-117.5 90.5t-172 32.5h-236v-317h312v-189
h-312v-338z" />
    <glyph glyph-name="dcroat" unicode="&#x111;" horiz-adv-x="1333" 
d="M616 1180v188h201v107h342v-107h174v-188h-174v-1180h-332v129q-109 -154 -315 -154q-146 0 -252 74t-157.5 198.5t-51.5 284.5t51.5 284.5t157.5 199t252 74.5q195 0 305 -142v232h-201zM608 250q211 0 211 282q0 283 -211 283t-211 -283q0 -282 211 -282z" />
    <glyph glyph-name="Ebreve" unicode="&#x114;" horiz-adv-x="1306" 
d="M113 0v1475h1136v-332h-766v-242h709v-311h-709v-258h764v-332h-1134zM682 1561q-155 0 -255.5 81.5t-123.5 229.5h250q12 -111 129 -111t129 111h250q-25 -148 -125.5 -229.5t-253.5 -81.5z" />
    <glyph glyph-name="ebreve" unicode="&#x115;" horiz-adv-x="1212" 
d="M606 -25q-174 0 -301.5 74t-190.5 199t-63 284t63 284t190.5 199.5t301.5 74.5q266 0 410.5 -158t144.5 -440v-62h-778q19 -98 76 -151.5t147 -53.5q82 0 131.5 25.5t81.5 77.5h326q-54 -162 -194.5 -257.5t-344.5 -95.5zM606 1188q-155 0 -255.5 81.5t-123.5 229.5h250
q12 -110 129 -110t129 110h250q-25 -148 -125.5 -229.5t-253.5 -81.5zM385 645h442q-20 93 -77 144t-144 51t-144 -51t-77 -144z" />
    <glyph glyph-name="Edotaccent" unicode="&#x116;" horiz-adv-x="1306" 
d="M113 0v1475h1136v-332h-766v-242h709v-311h-709v-258h764v-332h-1134zM510 1573v270h342v-270h-342z" />
    <glyph glyph-name="edotaccent" unicode="&#x117;" horiz-adv-x="1212" 
d="M606 -25q-174 0 -301.5 74t-190.5 199t-63 284t63 284t190.5 199.5t301.5 74.5q266 0 410.5 -158t144.5 -440v-62h-778q19 -98 76 -151.5t147 -53.5q82 0 131.5 25.5t81.5 77.5h326q-54 -162 -194.5 -257.5t-344.5 -95.5zM436 1204v271h342v-271h-342zM385 645h442
q-20 93 -77 144t-144 51t-144 -51t-77 -144z" />
    <glyph glyph-name="Eogonek" unicode="&#x118;" horiz-adv-x="1306" 
d="M113 0v1475h1136v-332h-766v-242h709v-311h-709v-258h764v-330l2 -2q-106 -50 -150 -92.5t-44 -83.5q0 -36 28.5 -54t75.5 -18q43 0 90 12v-178q-67 -20 -159 -20q-130 0 -208.5 48t-78.5 150q0 65 52 129.5t144 106.5h-886z" />
    <glyph glyph-name="eogonek" unicode="&#x119;" horiz-adv-x="1212" 
d="M635 -434q-130 0 -208.5 48t-78.5 150q0 59 42 117.5t118 100.5q-216 30 -336.5 180.5t-120.5 369.5q0 159 63 284t190.5 199.5t301.5 74.5q266 0 410.5 -158t144.5 -440v-62h-778q19 -98 76 -151.5t147 -53.5q82 0 131.5 25.5t81.5 77.5h326q-40 -122 -130 -207
t-220 -121q-107 -50 -151 -92.5t-44 -83.5q0 -36 29 -54t76 -18q43 0 90 12v-178q-67 -20 -160 -20zM385 645h442q-20 93 -77 144t-144 51t-144 -51t-77 -144z" />
    <glyph glyph-name="Ecaron" unicode="&#x11a;" horiz-adv-x="1306" 
d="M113 0v1475h1136v-332h-766v-242h709v-311h-709v-258h764v-332h-1134zM498 1573l-262 299h299l147 -141l145 141h299l-260 -299h-368z" />
    <glyph glyph-name="ecaron" unicode="&#x11b;" horiz-adv-x="1212" 
d="M606 -25q-174 0 -301.5 74t-190.5 199t-63 284t63 284t190.5 199.5t301.5 74.5q266 0 410.5 -158t144.5 -440v-62h-778q19 -98 76 -151.5t147 -53.5q82 0 131.5 25.5t81.5 77.5h326q-54 -162 -194.5 -257.5t-344.5 -95.5zM424 1200l-262 299h299l147 -141l146 141h299
l-260 -299h-369zM385 645h442q-20 93 -77 144t-144 51t-144 -51t-77 -144z" />
    <glyph glyph-name="Gcircumflex" unicode="&#x11c;" horiz-adv-x="1628" 
d="M743 -25q-156 0 -287 60t-219 163.5t-137 242.5t-49 296q0 159 50 296.5t143.5 241.5t239 164t325.5 60q290 0 479 -148.5t228 -385.5h-377q-35 98 -119.5 156.5t-210.5 58.5q-97 0 -170.5 -35.5t-117 -98t-64.5 -140t-21 -169.5t21 -169.5t64.5 -139.5t117 -97.5
t170.5 -35.5q253 0 340 244h-401v288h788v-827h-260v254q-152 -279 -533 -279zM993 1896l260 -299h-299l-145 142l-147 -142h-300l263 299h368z" />
    <glyph glyph-name="gcircumflex" unicode="&#x11d;" horiz-adv-x="1253" 
d="M588 -434q-236 0 -367 104t-137 287h336q6 -69 55.5 -102t128.5 -33q41 0 75.5 9t66.5 30.5t50.5 64t18.5 101.5v133q-109 -131 -303 -131q-146 0 -252 71t-157.5 189t-51.5 270q0 153 51.5 271.5t157.5 189t252 70.5q201 0 311 -142v117h336v-1038q0 -113 -44.5 -202
t-122.5 -145t-180.5 -85t-223.5 -29zM608 291q211 0 211 268t-211 268t-211 -268t211 -268zM791 1499l260 -299h-299l-146 141l-147 -141h-299l262 299h369z" />
    <glyph glyph-name="Gbreve" unicode="&#x11e;" horiz-adv-x="1628" 
d="M743 -25q-156 0 -287 60t-219 163.5t-137 242.5t-49 296q0 159 50 296.5t143.5 241.5t239 164t325.5 60q290 0 479 -148.5t228 -385.5h-377q-35 98 -119.5 156.5t-210.5 58.5q-97 0 -170.5 -35.5t-117 -98t-64.5 -140t-21 -169.5t21 -169.5t64.5 -139.5t117 -97.5
t170.5 -35.5q253 0 340 244h-401v288h788v-827h-260v254q-152 -279 -533 -279zM809 1585q-155 0 -255.5 81.5t-123.5 229.5h250q12 -110 129 -110t129 110h250q-25 -148 -125.5 -229.5t-253.5 -81.5z" />
    <glyph glyph-name="gbreve" unicode="&#x11f;" horiz-adv-x="1253" 
d="M588 -434q-236 0 -367 104t-137 287h336q6 -69 55.5 -102t128.5 -33q41 0 75.5 9t66.5 30.5t50.5 64t18.5 101.5v133q-109 -131 -303 -131q-146 0 -252 71t-157.5 189t-51.5 270q0 153 51.5 271.5t157.5 189t252 70.5q201 0 311 -142v117h336v-1038q0 -113 -44.5 -202
t-122.5 -145t-180.5 -85t-223.5 -29zM608 291q211 0 211 268t-211 268t-211 -268t211 -268zM606 1188q-155 0 -255.5 81.5t-123.5 229.5h250q12 -110 129 -110t129 110h250q-25 -148 -125.5 -229.5t-253.5 -81.5z" />
    <glyph glyph-name="Gdotaccent" unicode="&#x120;" horiz-adv-x="1628" 
d="M743 -25q-156 0 -287 60t-219 163.5t-137 242.5t-49 296q0 159 50 296.5t143.5 241.5t239 164t325.5 60q290 0 479 -148.5t228 -385.5h-377q-35 98 -119.5 156.5t-210.5 58.5q-97 0 -170.5 -35.5t-117 -98t-64.5 -140t-21 -169.5t21 -169.5t64.5 -139.5t117 -97.5
t170.5 -35.5q253 0 340 244h-401v288h788v-827h-260v254q-152 -279 -533 -279zM637 1597v271h342v-271h-342z" />
    <glyph glyph-name="gdotaccent" unicode="&#x121;" horiz-adv-x="1253" 
d="M588 -434q-236 0 -367 104t-137 287h336q6 -69 55.5 -102t128.5 -33q41 0 75.5 9t66.5 30.5t50.5 64t18.5 101.5v133q-109 -131 -303 -131q-146 0 -252 71t-157.5 189t-51.5 270q0 153 51.5 271.5t157.5 189t252 70.5q201 0 311 -142v117h336v-1038q0 -113 -44.5 -202
t-122.5 -145t-180.5 -85t-223.5 -29zM608 291q211 0 211 268t-211 268t-211 -268t211 -268zM434 1204v271h342v-271h-342z" />
    <glyph glyph-name="Hcircumflex" unicode="&#x124;" horiz-adv-x="1527" 
d="M1044 0v588h-561v-588h-370v1475h370v-555h561v555h371v-1475h-371zM950 1872l260 -299h-299l-145 141l-148 -141h-299l263 299h368z" />
    <glyph glyph-name="hcircumflex" unicode="&#x125;" 
d="M94 0v1475h342v-541q128 156 326 156q174 0 276.5 -111.5t102.5 -337.5v-641h-342v598q0 199 -168 199q-88 0 -141.5 -59.5t-53.5 -162.5v-575h-342zM451 1872l260 -299h-299l-146 141l-147 -141h-299l262 299h369z" />
    <glyph glyph-name="Itilde" unicode="&#x128;" horiz-adv-x="595" 
d="M113 0v1475h370v-1475h-370zM-98 1573q0 153 66 226t173 73q56 0 156 -39q5 -2 22 -9t27 -11t25 -9t27.5 -7.5t23.5 -2.5q31 0 46 18t15 60h211q0 -153 -66 -226t-173 -73q-14 0 -29.5 2t-27.5 4.5t-28.5 8t-25 8.5t-25.5 9.5t-22 8.5q-7 2 -27.5 10.5t-33.5 13t-31 9
t-31 4.5q-33 0 -48 -18t-15 -60h-209z" />
    <glyph glyph-name="itilde" unicode="&#x129;" horiz-adv-x="528" 
d="M94 0v1065h342v-1065h-342zM-131 1200q0 153 66.5 226t173.5 73q55 0 155 -39q5 -2 22 -9t27 -11t25 -9t27.5 -7.5t23.5 -2.5q32 0 47 18t15 60h211q0 -153 -66.5 -226t-173.5 -73q-14 0 -29.5 2t-27.5 4.5t-28.5 8t-25 8.5t-25.5 9.5t-22 8.5q-7 2 -27.5 10.5t-33.5 13
t-31 9t-31 4.5q-33 0 -48 -18t-15 -60h-209z" />
    <glyph glyph-name="Ibreve" unicode="&#x12c;" horiz-adv-x="595" 
d="M113 0v1475h370v-1475h-370zM299 1561q-155 0 -255.5 81.5t-123.5 229.5h250q12 -111 129 -111t129 111h250q-25 -148 -125.5 -229.5t-253.5 -81.5z" />
    <glyph glyph-name="ibreve" unicode="&#x12d;" horiz-adv-x="528" 
d="M94 0v1065h342v-1065h-342zM264 1188q-155 0 -255.5 81.5t-123.5 229.5h250q12 -110 129 -110t129 110h250q-25 -148 -125.5 -229.5t-253.5 -81.5z" />
    <glyph glyph-name="Iogonek" unicode="&#x12e;" horiz-adv-x="595" 
d="M113 0v1475h370v-1475q-106 -50 -150 -92.5t-44 -83.5q0 -36 28.5 -54t75.5 -18q43 0 90 12v-178q-67 -20 -159 -20q-130 0 -208.5 48t-78.5 150q0 65 52 129.5t144 106.5h-120z" />
    <glyph glyph-name="iogonek" unicode="&#x12f;" horiz-adv-x="528" 
d="M94 0v1065h342v-1065q-106 -50 -150 -92.5t-44 -83.5q0 -36 28.5 -54t75.5 -18q44 0 90 12v-178q-67 -20 -160 -20q-130 0 -208 48t-78 150q0 65 52 129.5t144 106.5h-92zM94 1204v271h342v-271h-342z" />
    <glyph glyph-name="Idotaccent" unicode="&#x130;" horiz-adv-x="595" 
d="M113 0v1475h370v-1475h-370zM127 1573v270h342v-270h-342z" />
    <glyph glyph-name="dotlessi" unicode="&#x131;" horiz-adv-x="528" 
d="M94 0v1065h342v-1065h-342z" />
    <glyph glyph-name="Jcircumflex" unicode="&#x134;" horiz-adv-x="1198" 
d="M569 -25q-251 0 -385.5 136t-134.5 372v82h354v-82q0 -96 38.5 -144t127.5 -48t127.5 48t38.5 144v992h371v-992q0 -234 -142 -371t-395 -137zM1106 1872l260 -299h-299l-145 141l-148 -141h-299l262 299h369z" />
    <glyph glyph-name="jcircumflex" unicode="&#x135;" horiz-adv-x="542" 
d="M449 -106q0 -77 -19.5 -133.5t-49.5 -88.5t-77 -51t-91.5 -25t-102.5 -6h-234v246h137q53 0 73.5 21.5t20.5 68.5v1139h343v-1171zM463 1499l260 -299h-299l-145 141l-148 -141h-299l262 299h369z" />
    <glyph glyph-name="Lacute" unicode="&#x139;" horiz-adv-x="1183" 
d="M113 0v1475h370v-1143h672v-332h-1042zM164 1573l201 299h368l-299 -299h-270z" />
    <glyph glyph-name="lacute" unicode="&#x13a;" horiz-adv-x="714" 
d="M94 1475h342v-1139q0 -47 20.5 -68.5t73.5 -21.5h138v-246h-234q-58 0 -102.5 5.5t-91.5 24.5t-77 51t-49.5 88.5t-19.5 133.5v1172zM131 1573l201 299h368l-299 -299h-270z" />
    <glyph glyph-name="Lcaron" unicode="&#x13d;" horiz-adv-x="1183" 
d="M113 0v1475h370v-1143h672v-332h-1042zM614 1126l43 349h334l-151 -349h-226z" />
    <glyph glyph-name="lcaron" unicode="&#x13e;" horiz-adv-x="714" 
d="M94 1475h342v-1139q0 -47 20.5 -68.5t73.5 -21.5h138v-246h-234q-58 0 -102.5 5.5t-91.5 24.5t-77 51t-49.5 88.5t-19.5 133.5v1172zM518 1126l43 349h334l-152 -349h-225z" />
    <glyph glyph-name="Lslash" unicode="&#x141;" horiz-adv-x="1230" 
d="M160 0v596l-160 -70v213l160 70v666h370v-506l355 153v-213l-355 -153v-424h672v-332h-1042z" />
    <glyph glyph-name="lslash" unicode="&#x142;" horiz-adv-x="714" 
d="M94 1475h342v-549l160 69v-213l-160 -69v-377q0 -47 20.5 -68.5t73.5 -21.5h138v-246h-234q-58 0 -102.5 5.5t-91.5 24.5t-77 51t-49.5 88.5t-19.5 133.5v264l-160 -69v213l160 69v695z" />
    <glyph glyph-name="Nacute" unicode="&#x143;" horiz-adv-x="1531" 
d="M1022 0l-555 954v-954h-354v1475h397l555 -953v953h354v-1475h-397zM631 1573l200 299h369l-299 -299h-270z" />
    <glyph glyph-name="nacute" unicode="&#x144;" 
d="M799 598q0 199 -168 199q-88 0 -141.5 -59.5t-53.5 -162.5v-575h-342v1065h334v-141q131 166 334 166q174 0 276.5 -111.5t102.5 -337.5v-641h-342v598zM481 1200l201 299h369l-299 -299h-271z" />
    <glyph glyph-name="Ncaron" unicode="&#x147;" horiz-adv-x="1531" 
d="M1022 0l-555 954v-954h-354v1475h397l555 -953v953h354v-1475h-397zM584 1573l-262 299h299l147 -141l145 141h299l-260 -299h-368z" />
    <glyph glyph-name="ncaron" unicode="&#x148;" 
d="M799 598q0 199 -168 199q-88 0 -141.5 -59.5t-53.5 -162.5v-575h-342v1065h334v-141q131 166 334 166q174 0 276.5 -111.5t102.5 -337.5v-641h-342v598zM434 1200l-262 299h299l147 -141l146 141h299l-260 -299h-369z" />
    <glyph glyph-name="Obreve" unicode="&#x14e;" horiz-adv-x="1615" 
d="M809 -25q-180 0 -325.5 60t-239 164t-143.5 241.5t-50 296.5t50 296.5t143.5 241.5t239 164t325.5 60q179 0 324 -60t238.5 -164t143.5 -241.5t50 -296.5t-50 -296.5t-143.5 -241.5t-238.5 -164t-324 -60zM809 301q97 0 170 34.5t116 95.5t64 138t21 168t-21 168
t-64 138.5t-116 96t-170 34.5t-170.5 -34.5t-117 -96t-64.5 -138.5t-21 -168t21 -168t64.5 -138t117 -95.5t170.5 -34.5zM809 1585q-155 0 -255.5 81.5t-123.5 229.5h250q12 -110 129 -110t129 110h250q-25 -148 -125.5 -229.5t-253.5 -81.5z" />
    <glyph glyph-name="obreve" unicode="&#x14f;" horiz-adv-x="1226" 
d="M614 -25q-134 0 -242 42.5t-177.5 118t-106.5 176.5t-37 220t37 220.5t106.5 176.5t177.5 118t242 43t241.5 -43t177 -118t106.5 -176.5t37 -220.5t-37 -220t-106.5 -176.5t-177 -118t-241.5 -42.5zM614 250q217 0 217 282q0 283 -217 283q-219 0 -219 -283
q0 -282 219 -282zM614 1188q-155 0 -255 81.5t-123 229.5h249q12 -110 129 -110t129 110h250q-25 -148 -125.5 -229.5t-253.5 -81.5z" />
    <glyph glyph-name="Racute" unicode="&#x154;" horiz-adv-x="1425" 
d="M113 0v1475h706q136 0 239.5 -33.5t167.5 -94t96 -140.5t32 -177q0 -114 -59.5 -206.5t-166.5 -157.5q94 -47 140.5 -119.5t60.5 -175.5l55 -371h-378l-45 324q-18 108 -70 160.5t-150 52.5h-258v-537h-370zM580 1573l200 299h369l-299 -299h-270zM483 815h265
q113 0 169 43.5t56 138.5t-56.5 139t-168.5 44h-265v-365z" />
    <glyph glyph-name="racute" unicode="&#x155;" horiz-adv-x="868" 
d="M94 0v1065h334v-197q89 209 305 209h88v-309h-106q-141 0 -210 -70t-69 -237v-461h-342zM324 1200l200 299h369l-299 -299h-270z" />
    <glyph glyph-name="Rcaron" unicode="&#x158;" horiz-adv-x="1425" 
d="M113 0v1475h706q136 0 239.5 -33.5t167.5 -94t96 -140.5t32 -177q0 -114 -59.5 -206.5t-166.5 -157.5q94 -47 140.5 -119.5t60.5 -175.5l55 -371h-378l-45 324q-18 108 -70 160.5t-150 52.5h-258v-537h-370zM532 1573l-262 299h299l148 -141l145 141h299l-260 -299h-369z
M483 815h265q113 0 169 43.5t56 138.5t-56.5 139t-168.5 44h-265v-365z" />
    <glyph glyph-name="rcaron" unicode="&#x159;" horiz-adv-x="868" 
d="M94 0v1065h334v-197q89 209 305 209h88v-309h-106q-141 0 -210 -70t-69 -237v-461h-342zM274 1200l-262 299h299l148 -141l145 141h299l-260 -299h-369z" />
    <glyph glyph-name="Sacute" unicode="&#x15a;" horiz-adv-x="1366" 
d="M688 -25q-304 0 -474.5 140t-170.5 379h358q1 -55 18 -96.5t44 -66.5t67.5 -40.5t81.5 -21t93 -5.5q108 0 173.5 41.5t65.5 112.5q0 41 -21.5 68t-95 53.5t-209.5 48.5q-288 45 -418 158.5t-130 314.5q0 193 158.5 315.5t433.5 122.5q287 0 447.5 -129.5t170.5 -374.5
h-352q-4 112 -70 163.5t-196 51.5q-98 0 -157 -37t-59 -98q0 -42 22.5 -71t90.5 -56t189 -47q218 -34 345.5 -95t179.5 -148t52 -216q0 -115 -48.5 -205t-134.5 -147t-201 -86t-253 -29zM549 1597l201 299h368l-299 -299h-270z" />
    <glyph glyph-name="sacute" unicode="&#x15b;" horiz-adv-x="1093" 
d="M549 -25q-243 0 -375 88t-145 289h327q10 -87 61.5 -121t147.5 -34q69 0 115.5 24.5t46.5 67.5q0 32 -15.5 50.5t-66 36t-151.5 34.5q-248 43 -348.5 123.5t-100.5 218.5q0 161 131 249.5t359 88.5q247 0 370 -100.5t129 -272.5h-309q-7 151 -190 151q-71 0 -113.5 -25
t-42.5 -69q0 -31 19.5 -50.5t72.5 -35t154 -31.5q125 -19 211 -50t136 -75t71.5 -97t21.5 -122q0 -162 -140.5 -250t-375.5 -88zM412 1200l200 299h369l-299 -299h-270z" />
    <glyph glyph-name="Scircumflex" unicode="&#x15c;" horiz-adv-x="1366" 
d="M688 -25q-304 0 -474.5 140t-170.5 379h358q1 -55 18 -96.5t44 -66.5t67.5 -40.5t81.5 -21t93 -5.5q108 0 173.5 41.5t65.5 112.5q0 41 -21.5 68t-95 53.5t-209.5 48.5q-288 45 -418 158.5t-130 314.5q0 193 158.5 315.5t433.5 122.5q287 0 447.5 -129.5t170.5 -374.5
h-352q-4 112 -70 163.5t-196 51.5q-98 0 -157 -37t-59 -98q0 -42 22.5 -71t90.5 -56t189 -47q218 -34 345.5 -95t179.5 -148t52 -216q0 -115 -48.5 -205t-134.5 -147t-201 -86t-253 -29zM868 1896l260 -299h-299l-145 142l-147 -142h-299l262 299h368z" />
    <glyph glyph-name="scircumflex" unicode="&#x15d;" horiz-adv-x="1093" 
d="M549 -25q-243 0 -375 88t-145 289h327q10 -87 61.5 -121t147.5 -34q69 0 115.5 24.5t46.5 67.5q0 32 -15.5 50.5t-66 36t-151.5 34.5q-248 43 -348.5 123.5t-100.5 218.5q0 161 131 249.5t359 88.5q247 0 370 -100.5t129 -272.5h-309q-7 151 -190 151q-71 0 -113.5 -25
t-42.5 -69q0 -31 19.5 -50.5t72.5 -35t154 -31.5q125 -19 211 -50t136 -75t71.5 -97t21.5 -122q0 -162 -140.5 -250t-375.5 -88zM731 1499l260 -299h-299l-145 141l-148 -141h-299l262 299h369z" />
    <glyph glyph-name="Scedilla" unicode="&#x15e;" horiz-adv-x="1366" 
d="M608 -483q-85 0 -153 16v123q68 -12 116 -12q136 0 136 75q0 74 -119 74q-42 0 -62 -4v82l80 106q-267 20 -415 157.5t-148 359.5h358q1 -55 18 -96.5t44 -66.5t67.5 -40.5t81.5 -21t93 -5.5q108 0 173.5 41.5t65.5 112.5q0 41 -21.5 68t-95 53.5t-209.5 48.5
q-288 45 -418 158.5t-130 314.5q0 193 158.5 315.5t433.5 122.5q287 0 447.5 -129.5t170.5 -374.5h-352q-4 112 -70 163.5t-196 51.5q-98 0 -157 -37t-59 -98q0 -42 22.5 -71t90.5 -56t189 -47q218 -34 345.5 -95t179.5 -148t52 -216q0 -108 -42 -194t-118.5 -142.5
t-178.5 -89t-226 -39.5l-88 -92h20q114 0 181 -44t67 -122q0 -85 -84 -143.5t-248 -58.5z" />
    <glyph glyph-name="scedilla" unicode="&#x15f;" horiz-adv-x="1093" 
d="M473 -483q-86 0 -154 16v123q67 -12 117 -12q135 0 135 75q0 74 -118 74q-42 0 -62 -4v82l80 106q-206 12 -318 101.5t-124 273.5h327q10 -87 61.5 -121t147.5 -34q69 0 115.5 24.5t46.5 67.5q0 32 -15.5 50.5t-66 36t-151.5 34.5q-248 43 -348.5 123.5t-100.5 218.5
q0 161 131 249.5t359 88.5q247 0 370 -100.5t129 -272.5h-309q-7 151 -190 151q-71 0 -113.5 -25t-42.5 -69q0 -31 19.5 -50.5t72.5 -35t154 -31.5q125 -19 211 -50t136 -75t71.5 -97t21.5 -122q0 -149 -118.5 -235.5t-321.5 -100.5l-88 -92h20q114 0 181 -44t67 -122
q0 -85 -84 -143.5t-248 -58.5z" />
    <glyph glyph-name="Scaron" unicode="&#x160;" horiz-adv-x="1366" 
d="M688 -25q-304 0 -474.5 140t-170.5 379h358q1 -55 18 -96.5t44 -66.5t67.5 -40.5t81.5 -21t93 -5.5q108 0 173.5 41.5t65.5 112.5q0 41 -21.5 68t-95 53.5t-209.5 48.5q-288 45 -418 158.5t-130 314.5q0 193 158.5 315.5t433.5 122.5q287 0 447.5 -129.5t170.5 -374.5
h-352q-4 112 -70 163.5t-196 51.5q-98 0 -157 -37t-59 -98q0 -42 22.5 -71t90.5 -56t189 -47q218 -34 345.5 -95t179.5 -148t52 -216q0 -115 -48.5 -205t-134.5 -147t-201 -86t-253 -29zM500 1597l-262 299h299l147 -141l145 141h299l-260 -299h-368z" />
    <glyph glyph-name="scaron" unicode="&#x161;" horiz-adv-x="1093" 
d="M549 -25q-243 0 -375 88t-145 289h327q10 -87 61.5 -121t147.5 -34q69 0 115.5 24.5t46.5 67.5q0 32 -15.5 50.5t-66 36t-151.5 34.5q-248 43 -348.5 123.5t-100.5 218.5q0 161 131 249.5t359 88.5q247 0 370 -100.5t129 -272.5h-309q-7 151 -190 151q-71 0 -113.5 -25
t-42.5 -69q0 -31 19.5 -50.5t72.5 -35t154 -31.5q125 -19 211 -50t136 -75t71.5 -97t21.5 -122q0 -162 -140.5 -250t-375.5 -88zM362 1200l-262 299h299l148 -141l145 141h299l-260 -299h-369z" />
    <glyph glyph-name="uni0162" unicode="&#x162;" horiz-adv-x="1310" 
d="M469 0v1143h-444v332h1261v-332h-444v-1143h-111l-86 -90h21q114 0 180.5 -43.5t66.5 -122.5q0 -86 -83.5 -144.5t-247.5 -58.5q-82 0 -154 17v123q73 -13 117 -13q135 0 135 76q0 74 -119 74q-41 0 -61 -4v82l78 104h-109z" />
    <glyph glyph-name="uni0163" unicode="&#x163;" horiz-adv-x="847" 
d="M205 1393h342v-328h254v-246h-254v-483q0 -47 20 -68.5t74 -21.5h160v-246h-215l-86 -90h20q114 0 181 -44t67 -122q0 -85 -84 -144t-248 -59q-81 0 -153 17v123q73 -13 116 -13q136 0 136 76q0 74 -119 74q-42 0 -62 -4v82l84 110q-110 15 -171.5 82.5t-61.5 214.5v516
h-178v246h178v328z" />
    <glyph glyph-name="Tcaron" unicode="&#x164;" horiz-adv-x="1310" 
d="M469 0v1143h-444v332h1261v-332h-444v-1143h-373zM473 1573l-262 299h299l147 -141l146 141h299l-260 -299h-369z" />
    <glyph glyph-name="tcaron" unicode="&#x165;" horiz-adv-x="847" 
d="M205 1393h342v-328h254v-246h-254v-483q0 -47 20 -68.5t74 -21.5h160v-246h-256q-59 0 -103.5 5.5t-91.5 24.5t-77 51t-49 88.5t-19 133.5v516h-178v246h178v328zM612 1126l43 349h334l-151 -349h-226z" />
    <glyph glyph-name="Utilde" unicode="&#x168;" horiz-adv-x="1470" 
d="M735 -25q-187 0 -330.5 65.5t-228 201t-84.5 325.5v908h371v-908q0 -134 71.5 -203t200.5 -69q130 0 201.5 69t71.5 203v908h370v-908q0 -190 -84.5 -325.5t-228 -201t-330.5 -65.5zM340 1573q0 153 66.5 226t173.5 73q55 0 155 -39q5 -2 22 -9t27 -11t25 -9t27.5 -7.5
t23.5 -2.5q32 0 47 18t15 60h211q0 -153 -66.5 -226t-173.5 -73q-14 0 -29.5 2t-27.5 4.5t-28.5 8t-25 8.5t-25.5 9.5t-22 8.5q-7 2 -27.5 10.5t-33.5 13t-31 9t-31 4.5q-33 0 -48 -18t-15 -60h-209z" />
    <glyph glyph-name="utilde" unicode="&#x169;" 
d="M436 467q0 -199 168 -199q79 0 131.5 49t61.5 136v612h342v-1065h-334v139q-129 -164 -332 -164q-174 0 -276.5 111.5t-102.5 337.5v641h342v-598zM221 1200q0 153 66.5 226t173.5 73q55 0 155 -39q5 -2 22 -9t27 -11t25 -9t27.5 -7.5t23.5 -2.5q32 0 47 18t15 60h211
q0 -153 -66.5 -226t-173.5 -73q-14 0 -29.5 2t-27.5 4.5t-28.5 8t-25 8.5t-25.5 9.5t-22 8.5q-7 3 -27 10.5t-33 12.5t-31 9.5t-31 4.5q-33 0 -48.5 -18t-15.5 -60h-209z" />
    <glyph glyph-name="Ubreve" unicode="&#x16c;" horiz-adv-x="1470" 
d="M735 -25q-187 0 -330.5 65.5t-228 201t-84.5 325.5v908h371v-908q0 -134 71.5 -203t200.5 -69q130 0 201.5 69t71.5 203v908h370v-908q0 -190 -84.5 -325.5t-228 -201t-330.5 -65.5zM735 1561q-155 0 -255.5 81.5t-123.5 229.5h250q12 -111 129 -111t129 111h250
q-25 -148 -125.5 -229.5t-253.5 -81.5z" />
    <glyph glyph-name="ubreve" unicode="&#x16d;" 
d="M436 467q0 -199 168 -199q79 0 131.5 49t61.5 136v612h342v-1065h-334v139q-129 -164 -332 -164q-174 0 -276.5 111.5t-102.5 337.5v641h342v-598zM616 1188q-155 0 -255 81.5t-123 229.5h249q12 -110 129 -110t129 110h250q-25 -148 -125.5 -229.5t-253.5 -81.5z" />
    <glyph glyph-name="Uring" unicode="&#x16e;" horiz-adv-x="1470" 
d="M735 -25q-187 0 -330.5 65.5t-228 201t-84.5 325.5v908h342q-22 55 -22 114q0 132 94 218.5t231 86.5t230.5 -86.5t93.5 -218.5q0 -53 -21 -114h338v-908q0 -190 -84.5 -325.5t-228 -201t-330.5 -65.5zM737 1282q-86 0 -158.5 36t-115.5 101v-852q0 -134 71.5 -203
t200.5 -69q130 0 201.5 69t71.5 203v848q-43 -62 -114.5 -97.5t-156.5 -35.5zM737 1475q50 0 82.5 31.5t32.5 82.5q0 49 -32.5 81t-82.5 32q-51 0 -83.5 -31.5t-32.5 -81.5q0 -51 32.5 -82.5t83.5 -31.5z" />
    <glyph glyph-name="uring" unicode="&#x16f;" 
d="M436 467q0 -199 168 -199q79 0 131.5 49t61.5 136v612h342v-1065h-334v139q-129 -164 -332 -164q-174 0 -276.5 111.5t-102.5 337.5v641h342v-598zM618 1188q-137 0 -231 87t-94 220q0 132 94 218.5t231 86.5t230.5 -86.5t93.5 -218.5q0 -133 -93.5 -220t-230.5 -87z
M618 1380q50 0 82.5 32t32.5 83q0 49 -32.5 81t-82.5 32q-51 0 -83.5 -31.5t-32.5 -81.5q0 -51 32.5 -83t83.5 -32z" />
    <glyph glyph-name="Uogonek" unicode="&#x172;" horiz-adv-x="1470" 
d="M786 -434q-130 0 -208 48t-78 150q0 57 40 115t115 101q-255 21 -409 172.5t-154 414.5v908h371v-908q0 -134 71.5 -203t200.5 -69q130 0 201.5 69t71.5 203v908h370v-908q0 -226 -116 -371t-316 -196q-106 -50 -150 -92.5t-44 -83.5q0 -36 28.5 -54t75.5 -18q44 0 90 12
v-178q-67 -20 -160 -20z" />
    <glyph glyph-name="uogonek" unicode="&#x173;" 
d="M436 467q0 -199 168 -199q79 0 131.5 49t61.5 136v612h342v-1063l2 -2q-107 -50 -151 -92.5t-44 -83.5q0 -36 29 -54t76 -18q43 0 90 12v-178q-67 -20 -160 -20q-130 0 -208.5 48t-78.5 150q0 65 52 129.5t145 106.5h-86v139q-129 -164 -332 -164q-174 0 -276.5 111.5
t-102.5 337.5v641h342v-598z" />
    <glyph glyph-name="Wcircumflex" unicode="&#x174;" horiz-adv-x="2080" 
d="M1249 0l-209 987l-209 -987h-417l-410 1475h391l246 -1043l213 1043h371l213 -1043l245 1043h394l-412 -1475h-416zM1225 1872l260 -299h-299l-146 141l-147 -141h-299l262 299h369z" />
    <glyph glyph-name="wcircumflex" unicode="&#x175;" horiz-adv-x="1812" 
d="M1085 0l-178 647l-180 -647h-360l-361 1065h369l196 -670l177 670h317l176 -670l197 670h368l-360 -1065h-361zM1092 1499l260 -299h-299l-146 141l-147 -141h-299l262 299h369z" />
    <glyph glyph-name="Ycircumflex" unicode="&#x176;" horiz-adv-x="1497" 
d="M571 0v565l-567 910h424l330 -568l327 568h408l-551 -900v-575h-371zM942 1872l260 -299h-299l-145 141l-148 -141h-299l262 299h369z" />
    <glyph glyph-name="ycircumflex" unicode="&#x177;" horiz-adv-x="1179" 
d="M63 -410v271h181q78 0 109 22.5t55 91.5l-402 1090h369l221 -766l209 766h369l-406 -1131q-30 -82 -64 -141t-84.5 -107t-121 -72t-162.5 -24h-273zM776 1499l260 -299h-299l-145 141l-148 -141h-299l263 299h368z" />
    <glyph glyph-name="Ydieresis" unicode="&#x178;" horiz-adv-x="1497" 
d="M571 0v565l-567 910h424l330 -568l327 568h408l-551 -900v-575h-371zM354 1573v270h342v-270h-342zM817 1573v270h342v-270h-342z" />
    <glyph glyph-name="Zacute" unicode="&#x179;" horiz-adv-x="1351" 
d="M57 0v295l740 854l-379 -6h-336v332h1204v-281l-754 -868l392 6h370v-332h-1237zM549 1573l201 299h368l-299 -299h-270z" />
    <glyph glyph-name="zacute" unicode="&#x17a;" horiz-adv-x="1097" 
d="M78 0v219l504 590h-500v256h917v-219l-503 -590h524v-256h-942zM414 1200l200 299h369l-299 -299h-270z" />
    <glyph glyph-name="Zdotaccent" unicode="&#x17b;" horiz-adv-x="1351" 
d="M57 0v295l740 854l-379 -6h-336v332h1204v-281l-754 -868l392 6h370v-332h-1237zM512 1573v270h342v-270h-342z" />
    <glyph glyph-name="zdotaccent" unicode="&#x17c;" horiz-adv-x="1097" 
d="M78 0v219l504 590h-500v256h917v-219l-503 -590h524v-256h-942zM377 1204v271h342v-271h-342z" />
    <glyph glyph-name="Zcaron" unicode="&#x17d;" horiz-adv-x="1351" 
d="M57 0v295l740 854l-379 -6h-336v332h1204v-281l-754 -868l392 6h370v-332h-1237zM500 1573l-262 299h299l147 -141l145 141h299l-260 -299h-368z" />
    <glyph glyph-name="zcaron" unicode="&#x17e;" horiz-adv-x="1097" 
d="M78 0v219l504 590h-500v256h917v-219l-503 -590h524v-256h-942zM365 1200l-263 299h299l148 -141l145 141h299l-260 -299h-368z" />
    <glyph glyph-name="uni01CD" unicode="&#x1cd;" horiz-adv-x="1536" 
d="M1141 0l-84 248h-592l-84 -248h-377l535 1475h442l551 -1475h-391zM578 1573l-263 299h299l148 -141l145 141h299l-260 -299h-368zM567 557h387l-194 576z" />
    <glyph glyph-name="uni01CE" unicode="&#x1ce;" horiz-adv-x="1165" 
d="M770 0v111q-66 -73 -147 -104.5t-189 -31.5q-174 0 -282.5 87t-108.5 243q0 142 99 216t335 112l285 47v41q0 123 -156 123q-77 0 -120.5 -36.5t-45.5 -92.5h-340q1 121 67 206.5t177.5 127t257.5 41.5q244 0 369 -87t125 -241v-762h-326zM539 205q97 0 160 48.5
t63 149.5v74l-215 -41q-84 -16 -120 -41t-36 -78t38.5 -82.5t109.5 -29.5zM416 1200l-262 299h299l147 -141l145 141h299l-260 -299h-368z" />
    <glyph glyph-name="uni01CF" unicode="&#x1cf;" horiz-adv-x="595" 
d="M113 0v1475h370v-1475h-370zM115 1573l-262 299h299l147 -141l145 141h299l-260 -299h-368z" />
    <glyph glyph-name="uni01D0" unicode="&#x1d0;" horiz-adv-x="528" 
d="M94 0v1065h342v-1065h-342zM82 1200l-262 299h299l147 -141l146 141h299l-260 -299h-369z" />
    <glyph glyph-name="uni01D1" unicode="&#x1d1;" horiz-adv-x="1615" 
d="M809 -25q-180 0 -325.5 60t-239 164t-143.5 241.5t-50 296.5t50 296.5t143.5 241.5t239 164t325.5 60q179 0 324 -60t238.5 -164t143.5 -241.5t50 -296.5t-50 -296.5t-143.5 -241.5t-238.5 -164t-324 -60zM809 301q97 0 170 34.5t116 95.5t64 138t21 168t-21 168
t-64 138.5t-116 96t-170 34.5t-170.5 -34.5t-117 -96t-64.5 -138.5t-21 -168t21 -168t64.5 -138t117 -95.5t170.5 -34.5zM625 1597l-263 299h300l147 -141l145 141h299l-260 -299h-368z" />
    <glyph glyph-name="uni01D2" unicode="&#x1d2;" horiz-adv-x="1226" 
d="M614 -25q-134 0 -242 42.5t-177.5 118t-106.5 176.5t-37 220t37 220.5t106.5 176.5t177.5 118t242 43t241.5 -43t177 -118t106.5 -176.5t37 -220.5t-37 -220t-106.5 -176.5t-177 -118t-241.5 -42.5zM614 250q217 0 217 282q0 283 -217 283q-219 0 -219 -283
q0 -282 219 -282zM430 1200l-262 299h299l147 -141l146 141h299l-260 -299h-369z" />
    <glyph glyph-name="uni01D3" unicode="&#x1d3;" horiz-adv-x="1470" 
d="M735 -25q-187 0 -330.5 65.5t-228 201t-84.5 325.5v908h371v-908q0 -134 71.5 -203t200.5 -69q130 0 201.5 69t71.5 203v908h370v-908q0 -190 -84.5 -325.5t-228 -201t-330.5 -65.5zM553 1573l-262 299h299l147 -141l146 141h299l-260 -299h-369z" />
    <glyph glyph-name="uni01D4" unicode="&#x1d4;" 
d="M436 467q0 -199 168 -199q79 0 131.5 49t61.5 136v612h342v-1065h-334v139q-129 -164 -332 -164q-174 0 -276.5 111.5t-102.5 337.5v641h342v-598zM434 1200l-262 299h299l147 -141l146 141h299l-260 -299h-369z" />
    <glyph glyph-name="Gcaron" unicode="&#x1e6;" horiz-adv-x="1628" 
d="M743 -25q-156 0 -287 60t-219 163.5t-137 242.5t-49 296q0 159 50 296.5t143.5 241.5t239 164t325.5 60q290 0 479 -148.5t228 -385.5h-377q-35 98 -119.5 156.5t-210.5 58.5q-97 0 -170.5 -35.5t-117 -98t-64.5 -140t-21 -169.5t21 -169.5t64.5 -139.5t117 -97.5
t170.5 -35.5q253 0 340 244h-401v288h788v-827h-260v254q-152 -279 -533 -279zM625 1597l-263 299h300l147 -141l145 141h299l-260 -299h-368z" />
    <glyph glyph-name="gcaron" unicode="&#x1e7;" horiz-adv-x="1253" 
d="M588 -434q-236 0 -367 104t-137 287h336q6 -69 55.5 -102t128.5 -33q41 0 75.5 9t66.5 30.5t50.5 64t18.5 101.5v133q-109 -131 -303 -131q-146 0 -252 71t-157.5 189t-51.5 270q0 153 51.5 271.5t157.5 189t252 70.5q201 0 311 -142v117h336v-1038q0 -113 -44.5 -202
t-122.5 -145t-180.5 -85t-223.5 -29zM608 291q211 0 211 268t-211 268t-211 -268t211 -268zM422 1200l-262 299h299l147 -141l146 141h299l-260 -299h-369z" />
    <glyph glyph-name="uni01E8" unicode="&#x1e8;" horiz-adv-x="1533" 
d="M113 0v1475h370v-641l592 641h455l-584 -598l584 -877h-440l-396 618l-211 -215v-403h-370zM596 1573l-262 299h299l147 -141l146 141h299l-260 -299h-369z" />
    <glyph glyph-name="uni01E9" unicode="&#x1e9;" horiz-adv-x="1224" 
d="M94 0v1475h338v-799l375 389h391l-395 -401l416 -664h-392l-258 428l-137 -139v-289h-338zM80 1573l-262 299h299l147 -141l146 141h299l-260 -299h-369z" />
    <glyph glyph-name="uni01EA" unicode="&#x1ea;" horiz-adv-x="1615" 
d="M809 301q97 0 170 34.5t116 95.5t64 138t21 168t-21 168t-64 138.5t-116 96t-170 34.5t-170.5 -34.5t-117 -96t-64.5 -138.5t-21 -168t21 -168t64.5 -138t117 -95.5t170.5 -34.5zM862 -434q-130 0 -208.5 48t-78.5 150q0 57 40.5 114t115.5 99q-215 17 -371 124
t-232.5 271t-76.5 365q0 159 50 296.5t143.5 241.5t239 164t325.5 60q179 0 324 -60t238.5 -164t143.5 -241.5t50 -296.5q0 -273 -143 -474.5t-402 -264.5q-193 -89 -193 -174q0 -36 29 -54t76 -18q44 0 90 12v-178q-67 -20 -160 -20z" />
    <glyph glyph-name="uni01EB" unicode="&#x1eb;" horiz-adv-x="1226" 
d="M614 250q217 0 217 282q0 283 -217 283q-219 0 -219 -283q0 -282 219 -282zM643 -434q-130 0 -208.5 48t-78.5 150q0 59 42 117.5t118 100.5q-222 29 -343.5 179t-121.5 371q0 119 37 220.5t106.5 176.5t177.5 118t242 43t241.5 -43t177 -118t106.5 -176.5t37 -220.5
q0 -196 -96.5 -338t-276.5 -194q-107 -50 -151 -92.5t-44 -83.5q0 -36 29 -54t76 -18q43 0 90 12v-178q-67 -20 -160 -20z" />
    <glyph glyph-name="uni01F4" unicode="&#x1f4;" horiz-adv-x="1628" 
d="M743 -25q-156 0 -287 60t-219 163.5t-137 242.5t-49 296q0 159 50 296.5t143.5 241.5t239 164t325.5 60q290 0 479 -148.5t228 -385.5h-377q-35 98 -119.5 156.5t-210.5 58.5q-97 0 -170.5 -35.5t-117 -98t-64.5 -140t-21 -169.5t21 -169.5t64.5 -139.5t117 -97.5
t170.5 -35.5q253 0 340 244h-401v288h788v-827h-260v254q-152 -279 -533 -279zM674 1597l200 299h369l-299 -299h-270z" />
    <glyph glyph-name="uni01F5" unicode="&#x1f5;" horiz-adv-x="1253" 
d="M588 -434q-236 0 -367 104t-137 287h336q6 -69 55.5 -102t128.5 -33q41 0 75.5 9t66.5 30.5t50.5 64t18.5 101.5v133q-109 -131 -303 -131q-146 0 -252 71t-157.5 189t-51.5 270q0 153 51.5 271.5t157.5 189t252 70.5q201 0 311 -142v117h336v-1038q0 -113 -44.5 -202
t-122.5 -145t-180.5 -85t-223.5 -29zM608 291q211 0 211 268t-211 268t-211 -268t211 -268zM471 1200l201 299h368l-299 -299h-270z" />
    <glyph glyph-name="uni01F8" unicode="&#x1f8;" horiz-adv-x="1531" 
d="M1022 0l-555 954v-954h-354v1475h397l555 -953v953h354v-1475h-397zM901 1573h-270l-299 299h368z" />
    <glyph glyph-name="uni01F9" unicode="&#x1f9;" 
d="M799 598q0 199 -168 199q-88 0 -141.5 -59.5t-53.5 -162.5v-575h-342v1065h334v-141q131 166 334 166q174 0 276.5 -111.5t102.5 -337.5v-641h-342v598zM752 1200h-271l-299 299h369z" />
    <glyph glyph-name="uni0226" unicode="&#x226;" horiz-adv-x="1536" 
d="M1141 0l-84 248h-592l-84 -248h-377l535 1475h442l551 -1475h-391zM590 1573v270h342v-270h-342zM567 557h387l-194 576z" />
    <glyph glyph-name="uni0227" unicode="&#x227;" horiz-adv-x="1165" 
d="M770 0v111q-66 -73 -147 -104.5t-189 -31.5q-174 0 -282.5 87t-108.5 243q0 142 99 216t335 112l285 47v41q0 123 -156 123q-77 0 -120.5 -36.5t-45.5 -92.5h-340q1 121 67 206.5t177.5 127t257.5 41.5q244 0 369 -87t125 -241v-762h-326zM539 205q97 0 160 48.5
t63 149.5v74l-215 -41q-84 -16 -120 -41t-36 -78t38.5 -82.5t109.5 -29.5zM428 1204v271h342v-271h-342z" />
    <glyph glyph-name="uni0228" unicode="&#x228;" horiz-adv-x="1306" 
d="M113 0v1475h1136v-332h-766v-242h709v-311h-709v-258h764v-332h-491l-86 -90h20q114 0 181 -44t67 -122q0 -85 -84 -144t-248 -59q-81 0 -153 17v123q73 -13 116 -13q136 0 136 76q0 74 -119 74q-42 0 -62 -4v82l78 104h-489z" />
    <glyph glyph-name="uni0229" unicode="&#x229;" horiz-adv-x="1212" 
d="M532 -483q-85 0 -153 16v123q68 -12 117 -12q135 0 135 75q0 74 -119 74q-41 0 -61 -4v82l81 109q-228 23 -354.5 174.5t-126.5 377.5q0 159 63 284t190.5 199.5t301.5 74.5q266 0 410.5 -158t144.5 -440v-62h-778q19 -98 76 -151.5t147 -53.5q82 0 131.5 25.5t81.5 77.5
h326q-48 -145 -166.5 -237.5t-292.5 -110.5l-90 -95h20q114 0 181 -44t67 -122q0 -85 -84 -143.5t-248 -58.5zM385 645h442q-20 93 -77 144t-144 51t-144 -51t-77 -144z" />
    <glyph glyph-name="uni022E" unicode="&#x22e;" horiz-adv-x="1615" 
d="M809 -25q-180 0 -325.5 60t-239 164t-143.5 241.5t-50 296.5t50 296.5t143.5 241.5t239 164t325.5 60q179 0 324 -60t238.5 -164t143.5 -241.5t50 -296.5t-50 -296.5t-143.5 -241.5t-238.5 -164t-324 -60zM809 301q97 0 170 34.5t116 95.5t64 138t21 168t-21 168
t-64 138.5t-116 96t-170 34.5t-170.5 -34.5t-117 -96t-64.5 -138.5t-21 -168t21 -168t64.5 -138t117 -95.5t170.5 -34.5zM637 1597v271h342v-271h-342z" />
    <glyph glyph-name="uni022F" unicode="&#x22f;" horiz-adv-x="1226" 
d="M614 -25q-134 0 -242 42.5t-177.5 118t-106.5 176.5t-37 220t37 220.5t106.5 176.5t177.5 118t242 43t241.5 -43t177 -118t106.5 -176.5t37 -220.5t-37 -220t-106.5 -176.5t-177 -118t-241.5 -42.5zM614 250q217 0 217 282q0 283 -217 283q-219 0 -219 -283
q0 -282 219 -282zM442 1204v271h342v-271h-342z" />
    <glyph glyph-name="uni0237" unicode="&#x237;" horiz-adv-x="542" 
d="M449 -106q0 -77 -19.5 -133.5t-49.5 -88.5t-77 -51t-91.5 -25t-102.5 -6h-234v246h137q53 0 73.5 21.5t20.5 68.5v1139h343v-1171z" />
    <glyph glyph-name="circumflex" unicode="&#x2c6;" horiz-adv-x="890" 
d="M631 1499l260 -299h-299l-146 141l-147 -141h-299l262 299h369z" />
    <glyph glyph-name="caron" unicode="&#x2c7;" horiz-adv-x="890" 
d="M262 1200l-262 299h299l147 -141l146 141h299l-260 -299h-369z" />
    <glyph glyph-name="breve" unicode="&#x2d8;" horiz-adv-x="757" 
d="M379 1188q-155 0 -255.5 81.5t-123.5 229.5h250q12 -110 129 -110t129 110h250q-25 -148 -125.5 -229.5t-253.5 -81.5z" />
    <glyph glyph-name="dotaccent" unicode="&#x2d9;" horiz-adv-x="342" 
d="M0 1204v271h342v-271h-342z" />
    <glyph glyph-name="ring" unicode="&#x2da;" horiz-adv-x="649" 
d="M326 1188q-137 0 -231.5 87t-94.5 220q0 132 94.5 218.5t231.5 86.5t230 -86.5t93 -218.5q0 -133 -93 -220t-230 -87zM326 1380q50 0 82 32t32 83q0 49 -32 81t-82 32q-51 0 -84 -32t-33 -81q0 -51 33 -83t84 -32z" />
    <glyph glyph-name="ogonek" unicode="&#x2db;" horiz-adv-x="442" 
d="M287 -434q-130 0 -208.5 48t-78.5 150q0 70 60 139t167 109h201l18 -12q-106 -50 -150 -92.5t-44 -83.5q0 -36 28.5 -54t75.5 -18q44 0 90 12v-178q-67 -20 -159 -20z" />
    <glyph glyph-name="tilde" unicode="&#x2dc;" horiz-adv-x="792" 
d="M0 1200q0 153 66.5 226t173.5 73q55 0 155 -39q5 -2 22 -9t27 -11t25 -9t27.5 -7.5t23.5 -2.5q32 0 47 18t15 60h211q0 -153 -66.5 -226t-173.5 -73q-14 0 -29.5 2t-27.5 4.5t-28.5 8t-25 8.5t-25.5 9.5t-22 8.5q-7 2 -27.5 10.5t-33.5 13t-31 9t-31 4.5q-33 0 -48 -18
t-15 -60h-209z" />
    <glyph glyph-name="gravecomb" unicode="&#x300;" horiz-adv-x="0" 
d="M569 1200h-270l-299 299h369z" />
    <glyph glyph-name="acutecomb" unicode="&#x301;" horiz-adv-x="0" 
d="M0 1200l201 299h368l-299 -299h-270z" />
    <glyph glyph-name="uni0302" unicode="&#x302;" horiz-adv-x="0" 
d="M631 1499l260 -299h-299l-146 141l-147 -141h-299l262 299h369z" />
    <glyph glyph-name="tildecomb" unicode="&#x303;" horiz-adv-x="0" 
d="M0 1200q0 153 66.5 226t173.5 73q55 0 155 -39q5 -2 22 -9t27 -11t25 -9t27.5 -7.5t23.5 -2.5q32 0 47 18t15 60h211q0 -153 -66.5 -226t-173.5 -73q-14 0 -29.5 2t-27.5 4.5t-28.5 8t-25 8.5t-25.5 9.5t-22 8.5q-7 2 -27.5 10.5t-33.5 13t-31 9t-31 4.5q-33 0 -48 -18
t-15 -60h-209z" />
    <glyph glyph-name="uni0306" unicode="&#x306;" horiz-adv-x="0" 
d="M379 1188q-155 0 -255.5 81.5t-123.5 229.5h250q12 -110 129 -110t129 110h250q-25 -148 -125.5 -229.5t-253.5 -81.5z" />
    <glyph glyph-name="uni0307" unicode="&#x307;" horiz-adv-x="0" 
d="M0 1204v271h342v-271h-342z" />
    <glyph glyph-name="uni0308" unicode="&#x308;" horiz-adv-x="0" 
d="M0 1204v271h342v-271h-342zM461 1204v271h342v-271h-342z" />
    <glyph glyph-name="uni030A" unicode="&#x30a;" horiz-adv-x="0" 
d="M326 1188q-137 0 -231.5 87t-94.5 220q0 132 94.5 218.5t231.5 86.5t230 -86.5t93 -218.5q0 -133 -93 -220t-230 -87zM326 1380q50 0 82 32t32 83q0 49 -32 81t-82 32q-51 0 -84 -32t-33 -81q0 -51 33 -83t84 -32z" />
    <glyph glyph-name="uni030C" unicode="&#x30c;" horiz-adv-x="0" 
d="M262 1200l-262 299h299l147 -141l146 141h299l-260 -299h-369z" />
    <glyph glyph-name="dotbelowcomb" unicode="&#x323;" horiz-adv-x="0" 
d="M0 -410v271h342v-271h-342z" />
    <glyph glyph-name="uni0327" unicode="&#x327;" horiz-adv-x="0" 
d="M154 -459q-82 0 -154 17v123q73 -13 117 -13q135 0 135 76q0 74 -119 74q-41 0 -61 -4v82l88 116h155l-98 -102h21q114 0 180.5 -43.5t66.5 -122.5q0 -86 -83.5 -144.5t-247.5 -58.5z" />
    <glyph glyph-name="uni0328" unicode="&#x328;" horiz-adv-x="0" 
d="M287 -434q-130 0 -208.5 48t-78.5 150q0 70 60 139t167 109h201l18 -12q-106 -50 -150 -92.5t-44 -83.5q0 -36 28.5 -54t75.5 -18q44 0 90 12v-178q-67 -20 -159 -20z" />
    <glyph glyph-name="uni1E02" unicode="&#x1e02;" horiz-adv-x="1417" 
d="M113 0v1475h632q277 0 423.5 -99.5t146.5 -283.5q0 -212 -187 -308q121 -53 184.5 -144.5t63.5 -203.5q0 -217 -144.5 -326.5t-424.5 -109.5h-694zM526 1573v270h342v-270h-342zM483 299h318q96 0 143 37.5t47 116.5t-47 116t-143 37h-318v-307zM483 889h269
q192 0 192 143q0 144 -192 144h-269v-287z" />
    <glyph glyph-name="uni1E03" unicode="&#x1e03;" horiz-adv-x="1253" 
d="M94 0v1475h342v-527q110 142 305 142q146 0 252 -74.5t157.5 -199t51.5 -284.5t-51.5 -284.5t-157.5 -198.5t-252 -74q-206 0 -315 154v-129h-332zM645 250q211 0 211 282q0 283 -211 283t-211 -283q0 -282 211 -282zM94 1573v270h342v-270h-342z" />
    <glyph glyph-name="uni1E0A" unicode="&#x1e0a;" horiz-adv-x="1529" 
d="M113 0v1475h606q192 0 339.5 -55.5t238.5 -156.5t136.5 -233t45.5 -293t-45.5 -293t-136.5 -232.5t-238.5 -156t-339.5 -55.5h-606zM555 1573v270h342v-270h-342zM483 315h236q98 0 172 32.5t117.5 90.5t64.5 133t21 166t-21 166t-64.5 133t-117.5 90.5t-172 32.5h-236
v-844z" />
    <glyph glyph-name="uni1E0B" unicode="&#x1e0b;" horiz-adv-x="1253" 
d="M1159 0h-332v129q-109 -154 -315 -154q-146 0 -252 74t-157.5 198.5t-51.5 284.5t51.5 284.5t157.5 199t252 74.5q195 0 305 -142v527h342v-1475zM608 250q211 0 211 282q0 283 -211 283t-211 -283q0 -282 211 -282zM815 1573v270h342v-270h-342z" />
    <glyph glyph-name="uni1E1E" unicode="&#x1e1e;" horiz-adv-x="1236" 
d="M113 0v1475h1095v-332h-725v-242h688v-311h-688v-590h-370zM489 1573v270h342v-270h-342z" />
    <glyph glyph-name="uni1E1F" unicode="&#x1e1f;" horiz-adv-x="847" 
d="M205 1171q0 77 19 133.5t49 88.5t77 51t91.5 25t103.5 6h256v-246h-160q-54 0 -74 -21.5t-20 -68.5v-74h254v-246h-254v-819h-342v819h-178v246h178v106zM332 1614v270h342v-270h-342z" />
    <glyph glyph-name="uni1E22" unicode="&#x1e22;" horiz-adv-x="1527" 
d="M1044 0v588h-561v-588h-370v1475h370v-555h561v555h371v-1475h-371zM594 1573v270h342v-270h-342z" />
    <glyph glyph-name="uni1E23" unicode="&#x1e23;" 
d="M94 0v1475h342v-541q128 156 326 156q174 0 276.5 -111.5t102.5 -337.5v-641h-342v598q0 199 -168 199q-88 0 -141.5 -59.5t-53.5 -162.5v-575h-342zM94 1573v270h342v-270h-342z" />
    <glyph glyph-name="uni1E28" unicode="&#x1e28;" horiz-adv-x="1527" 
d="M1044 0v588h-561v-588h-110l-86 -90h20q114 0 181 -44t67 -122q0 -85 -84 -144t-248 -59q-81 0 -153 17v123q73 -13 116 -13q136 0 136 76q0 74 -119 74q-42 0 -62 -4v82l78 104h-106v1475h370v-555h561v555h371v-1475h-371z" />
    <glyph glyph-name="uni1E29" unicode="&#x1e29;" 
d="M94 0v1475h342v-541q128 156 326 156q174 0 276.5 -111.5t102.5 -337.5v-641h-342v598q0 199 -168 199q-88 0 -141.5 -59.5t-53.5 -162.5v-575h-96l-86 -90h20q114 0 181 -44t67 -122q0 -85 -84 -144t-248 -59q-81 0 -153 17v123q73 -13 117 -13q135 0 135 76
q0 74 -119 74q-41 0 -61 -4v82l77 104h-92z" />
    <glyph glyph-name="uni1E30" unicode="&#x1e30;" horiz-adv-x="1533" 
d="M113 0v1475h370v-641l592 641h455l-584 -598l584 -877h-440l-396 618l-211 -215v-403h-370zM645 1573l201 299h368l-299 -299h-270z" />
    <glyph glyph-name="uni1E31" unicode="&#x1e31;" horiz-adv-x="1224" 
d="M94 0v1475h338v-799l375 389h391l-395 -401l416 -664h-392l-258 428l-137 -139v-289h-338zM129 1573l201 299h368l-299 -299h-270z" />
    <glyph glyph-name="uni1E3E" unicode="&#x1e3e;" horiz-adv-x="1880" 
d="M788 0l-321 1063v-1063h-354v1475h559l270 -965l268 965h557v-1475h-352v1063l-321 -1063h-306zM805 1573l201 299h368l-299 -299h-270z" />
    <glyph glyph-name="uni1E3F" unicode="&#x1e3f;" horiz-adv-x="1865" 
d="M1430 598q0 90 -35.5 144.5t-114.5 54.5q-84 0 -130 -58.5t-46 -163.5v-575h-342v598q0 90 -35.5 144.5t-114.5 54.5q-84 0 -130 -58.5t-46 -163.5v-575h-342v1065h334v-152q120 177 315 177q105 0 187.5 -49t126.5 -146q64 89 154 142t200 53q162 0 261.5 -112.5
t99.5 -336.5v-641h-342v598zM799 1200l200 299h369l-299 -299h-270z" />
    <glyph glyph-name="uni1E40" unicode="&#x1e40;" horiz-adv-x="1880" 
d="M788 0l-321 1063v-1063h-354v1475h559l270 -965l268 965h557v-1475h-352v1063l-321 -1063h-306zM770 1573v270h342v-270h-342z" />
    <glyph glyph-name="uni1E41" unicode="&#x1e41;" horiz-adv-x="1865" 
d="M1430 598q0 90 -35.5 144.5t-114.5 54.5q-84 0 -130 -58.5t-46 -163.5v-575h-342v598q0 90 -35.5 144.5t-114.5 54.5q-84 0 -130 -58.5t-46 -163.5v-575h-342v1065h334v-152q120 177 315 177q105 0 187.5 -49t126.5 -146q64 89 154 142t200 53q162 0 261.5 -112.5
t99.5 -336.5v-641h-342v598zM762 1204v271h342v-271h-342z" />
    <glyph glyph-name="uni1E44" unicode="&#x1e44;" horiz-adv-x="1531" 
d="M1022 0l-555 954v-954h-354v1475h397l555 -953v953h354v-1475h-397zM596 1573v270h342v-270h-342z" />
    <glyph glyph-name="uni1E45" unicode="&#x1e45;" 
d="M799 598q0 199 -168 199q-88 0 -141.5 -59.5t-53.5 -162.5v-575h-342v1065h334v-141q131 166 334 166q174 0 276.5 -111.5t102.5 -337.5v-641h-342v598zM446 1204v271h342v-271h-342z" />
    <glyph glyph-name="uni1E56" unicode="&#x1e56;" horiz-adv-x="1384" 
d="M113 0v1475h653q271 0 419 -137.5t148 -362.5q0 -226 -148 -363t-419 -137h-283v-475h-370zM535 1573v270h342v-270h-342zM483 788h256q226 0 226 187q0 96 -57 140t-169 44h-256v-371z" />
    <glyph glyph-name="uni1E57" unicode="&#x1e57;" horiz-adv-x="1253" 
d="M94 1065h332v-129q109 154 315 154q146 0 252 -74.5t157.5 -199t51.5 -284.5t-51.5 -284.5t-157.5 -198.5t-252 -74q-195 0 -305 142v-527h-342v1475zM645 815q-211 0 -211 -283q0 -282 211 -282t211 282q0 283 -211 283zM477 1204v271h342v-271h-342z" />
    <glyph glyph-name="uni1E58" unicode="&#x1e58;" horiz-adv-x="1425" 
d="M113 0v1475h706q136 0 239.5 -33.5t167.5 -94t96 -140.5t32 -177q0 -114 -59.5 -206.5t-166.5 -157.5q94 -47 140.5 -119.5t60.5 -175.5l55 -371h-378l-45 324q-18 108 -70 160.5t-150 52.5h-258v-537h-370zM545 1573v270h342v-270h-342zM483 815h265q113 0 169 43.5
t56 138.5t-56.5 139t-168.5 44h-265v-365z" />
    <glyph glyph-name="uni1E59" unicode="&#x1e59;" horiz-adv-x="868" 
d="M94 0v1065h334v-197q89 209 305 209h88v-309h-106q-141 0 -210 -70t-69 -237v-461h-342zM287 1204v271h342v-271h-342z" />
    <glyph glyph-name="uni1E60" unicode="&#x1e60;" horiz-adv-x="1366" 
d="M688 -25q-304 0 -474.5 140t-170.5 379h358q1 -55 18 -96.5t44 -66.5t67.5 -40.5t81.5 -21t93 -5.5q108 0 173.5 41.5t65.5 112.5q0 41 -21.5 68t-95 53.5t-209.5 48.5q-288 45 -418 158.5t-130 314.5q0 193 158.5 315.5t433.5 122.5q287 0 447.5 -129.5t170.5 -374.5
h-352q-4 112 -70 163.5t-196 51.5q-98 0 -157 -37t-59 -98q0 -42 22.5 -71t90.5 -56t189 -47q218 -34 345.5 -95t179.5 -148t52 -216q0 -115 -48.5 -205t-134.5 -147t-201 -86t-253 -29zM512 1597v271h342v-271h-342z" />
    <glyph glyph-name="uni1E61" unicode="&#x1e61;" horiz-adv-x="1093" 
d="M549 -25q-243 0 -375 88t-145 289h327q10 -87 61.5 -121t147.5 -34q69 0 115.5 24.5t46.5 67.5q0 32 -15.5 50.5t-66 36t-151.5 34.5q-248 43 -348.5 123.5t-100.5 218.5q0 161 131 249.5t359 88.5q247 0 370 -100.5t129 -272.5h-309q-7 151 -190 151q-71 0 -113.5 -25
t-42.5 -69q0 -31 19.5 -50.5t72.5 -35t154 -31.5q125 -19 211 -50t136 -75t71.5 -97t21.5 -122q0 -162 -140.5 -250t-375.5 -88zM375 1204v271h342v-271h-342z" />
    <glyph glyph-name="uni1E6A" unicode="&#x1e6a;" horiz-adv-x="1310" 
d="M469 0v1143h-444v332h1261v-332h-444v-1143h-373zM485 1573v270h342v-270h-342z" />
    <glyph glyph-name="uni1E6B" unicode="&#x1e6b;" horiz-adv-x="847" 
d="M205 1393h342v-328h254v-246h-254v-483q0 -47 20 -68.5t74 -21.5h160v-246h-256q-59 0 -103.5 5.5t-91.5 24.5t-77 51t-49 88.5t-19 133.5v516h-178v246h178v328zM205 1532v270h342v-270h-342z" />
    <glyph glyph-name="uni1E7C" unicode="&#x1e7c;" horiz-adv-x="1517" 
d="M539 0l-535 1475h395l367 -1156l352 1156h395l-534 -1475h-440zM362 1573q0 153 66.5 226t173.5 73q56 0 156 -39q5 -2 22 -9t27 -11t25 -9t27.5 -7.5t23.5 -2.5q31 0 46 18t15 60h211q0 -153 -66.5 -226t-173.5 -73q-17 0 -33.5 2t-36 8t-29 9t-32.5 12t-26 10
q-7 2 -27.5 10.5t-33.5 13t-31 9t-31 4.5q-33 0 -48.5 -18t-15.5 -60h-209z" />
    <glyph glyph-name="uni1E7D" unicode="&#x1e7d;" horiz-adv-x="1187" 
d="M391 0l-385 1065h369l225 -770l213 770h369l-385 -1065h-406zM199 1200q0 153 66 226t173 73q56 0 156 -39q5 -2 22 -9t27 -11t25 -9t27.5 -7.5t23.5 -2.5q31 0 46 18t15 60h211q0 -153 -66 -226t-173 -73q-14 0 -29.5 2t-27.5 4.5t-28.5 8t-25 8.5t-25.5 9.5t-22 8.5
q-7 2 -27.5 10.5t-33.5 13t-31 9t-31 4.5q-33 0 -48 -18t-15 -60h-209z" />
    <glyph glyph-name="Wgrave" unicode="&#x1e80;" horiz-adv-x="2080" 
d="M1249 0l-209 987l-209 -987h-417l-410 1475h391l246 -1043l213 1043h371l213 -1043l245 1043h394l-412 -1475h-416zM1176 1573h-271l-299 299h369z" />
    <glyph glyph-name="wgrave" unicode="&#x1e81;" horiz-adv-x="1812" 
d="M1085 0l-178 647l-180 -647h-360l-361 1065h369l196 -670l177 670h317l176 -670l197 670h368l-360 -1065h-361zM1040 1200h-270l-299 299h369z" />
    <glyph glyph-name="Wacute" unicode="&#x1e82;" horiz-adv-x="2080" 
d="M1249 0l-209 987l-209 -987h-417l-410 1475h391l246 -1043l213 1043h371l213 -1043l245 1043h394l-412 -1475h-416zM905 1573l201 299h369l-299 -299h-271z" />
    <glyph glyph-name="wacute" unicode="&#x1e83;" horiz-adv-x="1812" 
d="M1085 0l-178 647l-180 -647h-360l-361 1065h369l196 -670l177 670h317l176 -670l197 670h368l-360 -1065h-361zM772 1200l201 299h368l-299 -299h-270z" />
    <glyph glyph-name="Wdieresis" unicode="&#x1e84;" horiz-adv-x="2080" 
d="M1249 0l-209 987l-209 -987h-417l-410 1475h391l246 -1043l213 1043h371l213 -1043l245 1043h394l-412 -1475h-416zM639 1573v270h342v-270h-342zM1100 1573v270h342v-270h-342z" />
    <glyph glyph-name="wdieresis" unicode="&#x1e85;" horiz-adv-x="1812" 
d="M1085 0l-178 647l-180 -647h-360l-361 1065h369l196 -670l177 670h317l176 -670l197 670h368l-360 -1065h-361zM504 1204v271h342v-271h-342zM967 1204v271h342v-271h-342z" />
    <glyph glyph-name="uni1E86" unicode="&#x1e86;" horiz-adv-x="2080" 
d="M1249 0l-209 987l-209 -987h-417l-410 1475h391l246 -1043l213 1043h371l213 -1043l245 1043h394l-412 -1475h-416zM868 1573v270h342v-270h-342z" />
    <glyph glyph-name="uni1E87" unicode="&#x1e87;" horiz-adv-x="1812" 
d="M1085 0l-178 647l-180 -647h-360l-361 1065h369l196 -670l177 670h317l176 -670l197 670h368l-360 -1065h-361zM735 1204v271h342v-271h-342z" />
    <glyph glyph-name="uni1E8A" unicode="&#x1e8a;" horiz-adv-x="1427" 
d="M995 0l-286 436l-287 -436h-418l496 754l-475 721h428l262 -398l260 398h418l-469 -715l499 -760h-428zM543 1573v270h342v-270h-342z" />
    <glyph glyph-name="uni1E8B" unicode="&#x1e8b;" horiz-adv-x="1155" 
d="M764 0l-191 274l-190 -274h-381l381 547l-360 518h387l168 -240l165 240h381l-356 -514l383 -551h-387zM406 1204v271h342v-271h-342z" />
    <glyph glyph-name="uni1E8E" unicode="&#x1e8e;" horiz-adv-x="1497" 
d="M571 0v565l-567 910h424l330 -568l327 568h408l-551 -900v-575h-371zM586 1573v270h342v-270h-342z" />
    <glyph glyph-name="uni1E8F" unicode="&#x1e8f;" horiz-adv-x="1179" 
d="M63 -410v271h181q78 0 109 22.5t55 91.5l-402 1090h369l221 -766l209 766h369l-406 -1131q-30 -82 -64 -141t-84.5 -107t-121 -72t-162.5 -24h-273zM420 1204v271h342v-271h-342z" />
    <glyph glyph-name="uni1EBC" unicode="&#x1ebc;" horiz-adv-x="1306" 
d="M113 0v1475h1136v-332h-766v-242h709v-311h-709v-258h764v-332h-1134zM285 1573q0 153 66 226t173 73q56 0 156 -39q5 -2 22 -9t27 -11t25 -9t27.5 -7.5t23.5 -2.5q31 0 46 18t15 60h211q0 -153 -66 -226t-173 -73q-14 0 -29.5 2t-27.5 4.5t-28.5 8t-25 8.5t-25.5 9.5
t-22 8.5q-7 2 -27.5 10.5t-33.5 13t-31 9t-31 4.5q-33 0 -48 -18t-15 -60h-209z" />
    <glyph glyph-name="uni1EBD" unicode="&#x1ebd;" horiz-adv-x="1212" 
d="M606 -25q-174 0 -301.5 74t-190.5 199t-63 284t63 284t190.5 199.5t301.5 74.5q266 0 410.5 -158t144.5 -440v-62h-778q19 -98 76 -151.5t147 -53.5q82 0 131.5 25.5t81.5 77.5h326q-54 -162 -194.5 -257.5t-344.5 -95.5zM211 1200q0 153 66.5 226t173.5 73q55 0 155 -39
q5 -2 22 -9t27 -11t25 -9t27.5 -7.5t23.5 -2.5q32 0 47 18t15 60h211q0 -153 -66.5 -226t-173.5 -73q-14 0 -29.5 2t-27.5 4.5t-28.5 8t-25 8.5t-25.5 9.5t-22 8.5q-7 2 -27.5 10.5t-33.5 13t-31 9t-31 4.5q-33 0 -48 -18t-15 -60h-209zM385 645h442q-20 93 -77 144t-144 51
t-144 -51t-77 -144z" />
    <glyph glyph-name="Ygrave" unicode="&#x1ef2;" horiz-adv-x="1497" 
d="M571 0v565l-567 910h424l330 -568l327 568h408l-551 -900v-575h-371zM891 1573h-270l-299 299h368z" />
    <glyph glyph-name="ygrave" unicode="&#x1ef3;" horiz-adv-x="1179" 
d="M63 -410v271h181q78 0 109 22.5t55 91.5l-402 1090h369l221 -766l209 766h369l-406 -1131q-30 -82 -64 -141t-84.5 -107t-121 -72t-162.5 -24h-273zM725 1200h-270l-299 299h368z" />
    <glyph glyph-name="uni1EF8" unicode="&#x1ef8;" horiz-adv-x="1497" 
d="M571 0v565l-567 910h424l330 -568l327 568h408l-551 -900v-575h-371zM360 1573q0 153 66.5 226t173.5 73q56 0 156 -39q5 -2 22 -9t27 -11t25 -9t27.5 -7.5t23.5 -2.5q31 0 46 18t15 60h211q0 -153 -66.5 -226t-173.5 -73q-17 0 -33.5 2t-36 8t-29 9t-32.5 12t-26 10
q-7 2 -27.5 10.5t-33.5 13t-31 9t-31 4.5q-33 0 -48.5 -18t-15.5 -60h-209z" />
    <glyph glyph-name="uni1EF9" unicode="&#x1ef9;" horiz-adv-x="1179" 
d="M63 -410v271h181q78 0 109 22.5t55 91.5l-402 1090h369l221 -766l209 766h369l-406 -1131q-30 -82 -64 -141t-84.5 -107t-121 -72t-162.5 -24h-273zM195 1200q0 153 66 226t173 73q56 0 156 -39q5 -2 22 -9t27 -11t25 -9t27.5 -7.5t23.5 -2.5q31 0 46 18t15 60h211
q0 -153 -66 -226t-173 -73q-14 0 -29.5 2t-27.5 4.5t-28.5 8t-25 8.5t-25.5 9.5t-22 8.5q-7 2 -27.5 10.5t-33.5 13t-31 9t-31 4.5q-33 0 -48.5 -18t-15.5 -60h-208z" />
    <glyph glyph-name="endash" unicode="&#x2013;" horiz-adv-x="1105" 
d="M63 449v288h979v-288h-979z" />
    <glyph glyph-name="emdash" unicode="&#x2014;" horiz-adv-x="2035" 
d="M63 449v290h1909v-290h-1909z" />
    <glyph glyph-name="quoteleft" unicode="&#x2018;" horiz-adv-x="608" 
d="M438 766h-366l245 709h256z" />
    <glyph glyph-name="quoteright" unicode="&#x2019;" horiz-adv-x="608" 
d="M170 1475h367l-246 -709h-256z" />
    <glyph glyph-name="quotesinglbase" unicode="&#x201a;" horiz-adv-x="608" 
d="M170 381h367l-246 -709h-256z" />
    <glyph glyph-name="quotedblleft" unicode="&#x201c;" horiz-adv-x="1050" 
d="M881 766h-367l246 709h256zM438 766h-366l245 709h256z" />
    <glyph glyph-name="quotedblright" unicode="&#x201d;" horiz-adv-x="1050" 
d="M170 1475h367l-246 -709h-256zM612 1475h367l-246 -709h-256z" />
    <glyph glyph-name="quotedblbase" unicode="&#x201e;" horiz-adv-x="1050" 
d="M170 381h367l-246 -709h-256zM612 381h367l-246 -709h-256z" />
    <glyph glyph-name="dagger" unicode="&#x2020;" horiz-adv-x="1275" 
d="M453 -410v1160h-424v315h424v410h370v-410h424v-315h-424v-1160h-370z" />
    <glyph glyph-name="daggerdbl" unicode="&#x2021;" horiz-adv-x="1275" 
d="M453 -410v410h-424v315h424v435h-424v315h424v410h370v-410h424v-315h-424v-435h424v-315h-424v-410h-370z" />
    <glyph glyph-name="ellipsis" unicode="&#x2026;" horiz-adv-x="1658" 
d="M72 0v381h383v-381h-383zM637 0v381h383v-381h-383zM1204 0v381h383v-381h-383z" />
    <glyph glyph-name="perthousand" unicode="&#x2030;" horiz-adv-x="2705" 
d="M416 614q-94 0 -166 33t-116.5 93.5t-66.5 140t-22 176.5q0 131 38 228t123 155.5t210 58.5q95 0 167 -33t116 -93t65.5 -139.5t21.5 -176.5t-21.5 -176.5t-65.5 -140t-116 -93.5t-167 -33zM416 813q67 0 96 61t29 183t-29 182.5t-96 60.5t-96 -60.5t-29 -182.5t29 -183
t96 -61zM440 0l785 1475h215l-783 -1475h-217zM1464 -25q-185 0 -277.5 121t-92.5 322q0 97 22 176.5t66 139.5t116 93t166 33q126 0 211 -58.5t122.5 -155.5t37.5 -228q0 -97 -22 -176.5t-66 -140t-116 -93.5t-167 -33zM1464 174q67 0 96 61t29 183t-29 183t-96 61t-96 -61
t-29 -183t29 -183t96 -61zM2290 -25q-94 0 -166 33t-116.5 93.5t-66.5 140t-22 176.5q0 131 38 228t123 155.5t210 58.5q95 0 167 -33t116 -93t65.5 -139.5t21.5 -176.5t-21.5 -176.5t-65.5 -140t-116 -93.5t-167 -33zM2290 174q67 0 96 61t29 183t-29 183t-96 61t-96 -61
t-29 -183t29 -183t96 -61z" />
    <glyph glyph-name="Euro" unicode="&#x20ac;" horiz-adv-x="1560" 
d="M854 -25q-139 0 -254 40t-197 113.5t-136.5 171t-80.5 216.5h-186v164h166l-2 57l2 78h-166v164h190q28 115 83.5 208.5t136.5 164t194.5 109t249.5 38.5q144 0 261 -42.5t196.5 -118t129 -174.5t68.5 -218h-368q-33 106 -100 167t-187 61q-204 0 -272 -195h309v-164
h-340l-2 -78l2 -57h340v-164h-316q63 -215 279 -215q127 0 193 67t96 183h368q-12 -97 -44.5 -182.5t-88 -158t-130 -124.5t-175.5 -81.5t-219 -29.5z" />
    <glyph glyph-name="uni20BF" unicode="&#x20bf;" horiz-adv-x="1417" 
d="M424 -233v233h-311v1475h311v233h158v-233h163h13v233h160v-246q194 -28 295.5 -122.5t101.5 -247.5q0 -212 -187 -308q121 -53 184.5 -144.5t63.5 -203.5q0 -194 -116 -302t-342 -130v-237h-160v233h-176v-233h-158zM483 299h318q96 0 143 37.5t47 116.5t-47 116
t-143 37h-318v-307zM483 889h269q192 0 192 143q0 144 -192 144h-269v-287z" />
    <glyph glyph-name="uni2117" unicode="&#x2117;" horiz-adv-x="1691" 
d="M846 -25q-221 0 -401.5 96.5t-285 271.5t-104.5 394t104.5 394t285 271.5t401.5 96.5q165 0 310.5 -57t250.5 -156.5t166 -242t61 -306.5t-61 -306.5t-166 -242t-250.5 -156.5t-310.5 -57zM846 207q240 0 390 143.5t150 386.5t-150 387t-390 144t-390.5 -144t-150.5 -387
t150.5 -386.5t390.5 -143.5zM907 1112q142 0 219.5 -71t77.5 -189t-77.5 -189t-219.5 -71h-127v-230h-213v750h340zM893 770q51 0 75.5 19t24.5 63t-24.5 63t-75.5 19h-113v-164h113z" />
    <glyph glyph-name="uni2120" unicode="&#x2120;" horiz-adv-x="1349" 
d="M631 885v590h233l101 -369l100 369h233v-590h-147v424l-123 -424h-127l-123 424v-424h-147zM311 874q-123 0 -190.5 56t-69.5 151h150q1 -51 31.5 -68.5t84.5 -17.5q43 0 69 15.5t26 42.5q0 24 -25 38t-104 25q-116 19 -169 65.5t-53 125.5q0 77 64.5 127.5t175.5 50.5
q115 0 180.5 -52t69.5 -149h-148q-1 42 -26.5 61t-75.5 19q-37 0 -59.5 -13.5t-22.5 -37.5t24.5 -39.5t94.5 -26.5q127 -20 179 -63.5t52 -120.5q0 -92 -72 -140.5t-186 -48.5z" />
    <glyph glyph-name="trademark" unicode="&#x2122;" horiz-adv-x="1339" 
d="M621 885v590h233l100 -369l101 369h233v-590h-147v424l-123 -424h-127l-123 424v-424h-147zM227 885v452h-176v138h508v-138h-176v-452h-156z" />
    <glyph glyph-name="arrowleft" unicode="&#x2190;" horiz-adv-x="1974" 
d="M1749 578h-946l516 -578h-434l-660 737l660 738h434l-516 -578h946v-319z" />
    <glyph glyph-name="arrowup" unicode="&#x2191;" horiz-adv-x="1925" 
d="M1122 -25h-319v947l-578 -516v434l738 659l737 -659v-434l-578 516v-947z" />
    <glyph glyph-name="arrowright" unicode="&#x2192;" horiz-adv-x="1974" 
d="M225 578v319h946l-516 578h435l659 -738l-659 -737h-435l516 578h-946z" />
    <glyph glyph-name="arrowdown" unicode="&#x2193;" horiz-adv-x="1925" 
d="M1122 1499v-946l578 516v-434l-737 -660l-738 660v434l578 -516v946h319z" />
    <glyph glyph-name="arrowboth" unicode="&#x2194;" horiz-adv-x="2457" 
d="M737 0l-512 737l512 738h385l-401 -578h1016l-402 578h385l512 -738l-512 -737h-385l402 578h-1016l401 -578h-385z" />
    <glyph glyph-name="arrowupdn" unicode="&#x2195;" horiz-adv-x="1925" 
d="M1700 895l-578 401v-1118l578 402v-385l-737 -512l-738 512v385l578 -402v1118l-578 -401v385l738 512l737 -512v-385z" />
    <glyph glyph-name="uni2196" unicode="&#x2196;" horiz-adv-x="1994" 
d="M1407 100l-778 777v-830l-322 322v1058h1059l322 -321h-832l778 -780z" />
    <glyph glyph-name="uni2197" unicode="&#x2197;" horiz-adv-x="1994" 
d="M588 100l-228 226l779 780h-832l322 321h1059v-1058l-322 -322v830z" />
    <glyph glyph-name="uni2198" unicode="&#x2198;" horiz-adv-x="1994" 
d="M588 1374l778 -776v829l322 -321v-1059h-1059l-322 322h832l-779 780z" />
    <glyph glyph-name="uni2199" unicode="&#x2199;" horiz-adv-x="1994" 
d="M1407 1374l227 -225l-778 -780h832l-322 -322h-1059v1059l322 321v-829z" />
    <glyph glyph-name="minus" unicode="&#x2212;" horiz-adv-x="1105" 
d="M63 592v289h979v-289h-979z" />
    <glyph glyph-name="lessequal" unicode="&#x2264;" horiz-adv-x="1105" 
d="M63 930l979 332v-295l-647 -185l647 -186v-295l-979 334v295zM1042 0h-979v254h979v-254z" />
    <glyph glyph-name="greaterequal" unicode="&#x2265;" horiz-adv-x="1105" 
d="M1042 635l-979 -334v295l648 186l-648 185v295l979 -332v-295zM63 0v254h979v-254h-979z" />
    <glyph glyph-name="filledbox" unicode="&#x25a0;" horiz-adv-x="1892" 
d="M0 1659h1892v-1843h-1892v1843z" />
    <glyph glyph-name="uni25A1" unicode="&#x25a1;" horiz-adv-x="1892" 
d="M0 -184v1843h1892v-1843h-1892zM283 66h1327v1343h-1327v-1343z" />
    <glyph glyph-name="triagup" unicode="&#x25b2;" horiz-adv-x="1941" 
d="M0 -209l971 1892l971 -1892h-1942z" />
    <glyph glyph-name="uni25B3" unicode="&#x25b3;" horiz-adv-x="1941" 
d="M0 -209l971 1892l971 -1892h-1942zM410 41h1122l-561 1100z" />
    <glyph glyph-name="uni25B6" unicode="&#x25b6;" horiz-adv-x="1941" 
d="M25 1708l1892 -971l-1892 -970v1941z" />
    <glyph glyph-name="uni25B7" unicode="&#x25b7;" horiz-adv-x="1941" 
d="M25 1708l1892 -971l-1892 -970v1941zM274 176l1100 561l-1100 561v-1122z" />
    <glyph glyph-name="triagdn" unicode="&#x25bc;" horiz-adv-x="1941" 
d="M0 1683h1942l-971 -1892z" />
    <glyph glyph-name="uni25BD" unicode="&#x25bd;" horiz-adv-x="1941" 
d="M0 1683h1942l-971 -1892zM410 1434l561 -1100l561 1100h-1122z" />
    <glyph glyph-name="uni25C0" unicode="&#x25c0;" horiz-adv-x="1941" 
d="M1917 -233l-1892 970l1892 971v-1941z" />
    <glyph glyph-name="uni25C1" unicode="&#x25c1;" horiz-adv-x="1941" 
d="M1917 -233l-1892 970l1892 971v-1941zM567 737l1100 -561v1122z" />
    <glyph glyph-name="circle" unicode="&#x25cb;" horiz-adv-x="1941" 
d="M971 -209q-198 0 -378 75t-309.5 201.5t-206.5 302t-77 367.5t77 367.5t206.5 302t309.5 201.5t378 75t378 -75t309.5 -201.5t206.5 -302t77 -367.5t-77 -367.5t-206.5 -302t-309.5 -201.5t-378 -75zM971 53q140 0 268 54.5t220.5 146t147 218t54.5 265.5t-54.5 265.5
t-147 218t-220.5 146t-268 54.5t-268 -54.5t-220.5 -146t-147 -218t-54.5 -265.5t54.5 -265.5t147 -218t220.5 -146t268 -54.5z" />
    <glyph glyph-name="uni25CF" unicode="&#x25cf;" horiz-adv-x="1941" 
d="M971 -209q-198 0 -378 75t-309.5 201.5t-206.5 302t-77 367.5t77 367.5t206.5 302t309.5 201.5t378 75t378 -75t309.5 -201.5t206.5 -302t77 -367.5t-77 -367.5t-206.5 -302t-309.5 -201.5t-378 -75z" />
    <glyph glyph-name="uni004A0301" horiz-adv-x="1198" 
d="M569 -25q-251 0 -385.5 136t-134.5 372v82h354v-82q0 -96 38.5 -144t127.5 -48t127.5 48t38.5 144v992h371v-992q0 -234 -142 -371t-395 -137zM786 1573l201 299h369l-299 -299h-271z" />
    <glyph glyph-name="G.ss06" horiz-adv-x="1593" 
d="M809 -25q-180 0 -325.5 60t-239 164t-143.5 241.5t-50 296.5t50 296.5t143.5 241.5t239 164t325.5 60q284 0 466 -143.5t243 -382.5h-375q-40 93 -126 147t-208 54q-97 0 -170.5 -34.5t-117 -96t-64.5 -138.5t-21 -168t21 -168t64.5 -138t117 -95.5t170.5 -34.5
q136 0 221 66t121 180h-403v289h788q6 -50 6 -99q0 -127 -29 -240.5t-88.5 -209t-145.5 -165t-206.5 -108.5t-263.5 -39z" />
    <glyph glyph-name="uni01F4.ss06" horiz-adv-x="1593" 
d="M809 -25q-180 0 -325.5 60t-239 164t-143.5 241.5t-50 296.5t50 296.5t143.5 241.5t239 164t325.5 60q284 0 466 -143.5t243 -382.5h-375q-40 93 -126 147t-208 54q-97 0 -170.5 -34.5t-117 -96t-64.5 -138.5t-21 -168t21 -168t64.5 -138t117 -95.5t170.5 -34.5
q136 0 221 66t121 180h-403v289h788q6 -50 6 -99q0 -127 -29 -240.5t-88.5 -209t-145.5 -165t-206.5 -108.5t-263.5 -39zM674 1597l200 299h369l-299 -299h-270z" />
    <glyph glyph-name="Gbreve.ss06" horiz-adv-x="1593" 
d="M809 -25q-180 0 -325.5 60t-239 164t-143.5 241.5t-50 296.5t50 296.5t143.5 241.5t239 164t325.5 60q284 0 466 -143.5t243 -382.5h-375q-40 93 -126 147t-208 54q-97 0 -170.5 -34.5t-117 -96t-64.5 -138.5t-21 -168t21 -168t64.5 -138t117 -95.5t170.5 -34.5
q136 0 221 66t121 180h-403v289h788q6 -50 6 -99q0 -127 -29 -240.5t-88.5 -209t-145.5 -165t-206.5 -108.5t-263.5 -39zM809 1585q-155 0 -255.5 81.5t-123.5 229.5h250q12 -110 129 -110t129 110h250q-25 -148 -125.5 -229.5t-253.5 -81.5z" />
    <glyph glyph-name="Gcaron.ss06" horiz-adv-x="1593" 
d="M809 -25q-180 0 -325.5 60t-239 164t-143.5 241.5t-50 296.5t50 296.5t143.5 241.5t239 164t325.5 60q284 0 466 -143.5t243 -382.5h-375q-40 93 -126 147t-208 54q-97 0 -170.5 -34.5t-117 -96t-64.5 -138.5t-21 -168t21 -168t64.5 -138t117 -95.5t170.5 -34.5
q136 0 221 66t121 180h-403v289h788q6 -50 6 -99q0 -127 -29 -240.5t-88.5 -209t-145.5 -165t-206.5 -108.5t-263.5 -39zM625 1597l-263 299h300l147 -141l145 141h299l-260 -299h-368z" />
    <glyph glyph-name="Gcircumflex.ss06" horiz-adv-x="1593" 
d="M809 -25q-180 0 -325.5 60t-239 164t-143.5 241.5t-50 296.5t50 296.5t143.5 241.5t239 164t325.5 60q284 0 466 -143.5t243 -382.5h-375q-40 93 -126 147t-208 54q-97 0 -170.5 -34.5t-117 -96t-64.5 -138.5t-21 -168t21 -168t64.5 -138t117 -95.5t170.5 -34.5
q136 0 221 66t121 180h-403v289h788q6 -50 6 -99q0 -127 -29 -240.5t-88.5 -209t-145.5 -165t-206.5 -108.5t-263.5 -39zM993 1896l260 -299h-299l-145 142l-147 -142h-300l263 299h368z" />
    <glyph glyph-name="Gdotaccent.ss06" horiz-adv-x="1593" 
d="M809 -25q-180 0 -325.5 60t-239 164t-143.5 241.5t-50 296.5t50 296.5t143.5 241.5t239 164t325.5 60q284 0 466 -143.5t243 -382.5h-375q-40 93 -126 147t-208 54q-97 0 -170.5 -34.5t-117 -96t-64.5 -138.5t-21 -168t21 -168t64.5 -138t117 -95.5t170.5 -34.5
q136 0 221 66t121 180h-403v289h788q6 -50 6 -99q0 -127 -29 -240.5t-88.5 -209t-145.5 -165t-206.5 -108.5t-263.5 -39zM637 1597v271h342v-271h-342z" />
    <glyph glyph-name="J.ss07" horiz-adv-x="894" 
d="M49 0v289h197q101 0 143.5 43t42.5 145v998h371v-1037q0 -438 -428 -438h-326z" />
    <glyph glyph-name="uni004A0301.ss07" horiz-adv-x="894" 
d="M49 0v289h197q101 0 143.5 43t42.5 145v998h371v-1037q0 -438 -428 -438h-326zM481 1573l201 299h369l-299 -299h-271z" />
    <glyph glyph-name="Jcircumflex.ss07" horiz-adv-x="894" 
d="M49 0v289h197q101 0 143.5 43t42.5 145v998h371v-1037q0 -438 -428 -438h-326zM803 1872l260 -299h-299l-146 141l-147 -141h-299l262 299h369z" />
    <glyph glyph-name="R.ss08" horiz-adv-x="1417" 
d="M113 0v1475h673q136 0 245 -37t179 -102.5t107 -153.5t37 -191q0 -146 -79 -256.5t-220 -169.5l356 -565h-412l-294 508h-222v-508h-370zM483 805h277q225 0 225 186q0 96 -56.5 140.5t-168.5 44.5h-277v-371z" />
    <glyph glyph-name="Racute.ss08" horiz-adv-x="1417" 
d="M113 0v1475h673q136 0 245 -37t179 -102.5t107 -153.5t37 -191q0 -146 -79 -256.5t-220 -169.5l356 -565h-412l-294 508h-222v-508h-370zM582 1573l200 299h369l-299 -299h-270zM483 805h277q225 0 225 186q0 96 -56.5 140.5t-168.5 44.5h-277v-371z" />
    <glyph glyph-name="Rcaron.ss08" horiz-adv-x="1417" 
d="M113 0v1475h673q136 0 245 -37t179 -102.5t107 -153.5t37 -191q0 -146 -79 -256.5t-220 -169.5l356 -565h-412l-294 508h-222v-508h-370zM532 1573l-262 299h299l148 -141l145 141h299l-260 -299h-369zM483 805h277q225 0 225 186q0 96 -56.5 140.5t-168.5 44.5h-277
v-371z" />
    <glyph glyph-name="uni1E58.ss08" horiz-adv-x="1417" 
d="M113 0v1475h673q136 0 245 -37t179 -102.5t107 -153.5t37 -191q0 -146 -79 -256.5t-220 -169.5l356 -565h-412l-294 508h-222v-508h-370zM545 1573v270h342v-270h-342zM483 805h277q225 0 225 186q0 96 -56.5 140.5t-168.5 44.5h-277v-371z" />
    <glyph glyph-name="uni006A0301" horiz-adv-x="542" 
d="M449 -106q0 -77 -19.5 -133.5t-49.5 -88.5t-77 -51t-91.5 -25t-102.5 -6h-234v246h137q53 0 73.5 21.5t20.5 68.5v1139h343v-1171zM143 1200l201 299h369l-299 -299h-271z" />
    <glyph glyph-name="a.ss01" horiz-adv-x="1263" 
d="M1200 0h-332v127q-110 -152 -313 -152q-146 0 -252 74t-157.5 198.5t-51.5 284.5t51.5 284.5t157.5 199t252 74.5q194 0 303 -138v113h342v-1065zM651 250q211 0 211 282q0 283 -211 283t-211 -283q0 -282 211 -282z" />
    <glyph glyph-name="aacute.ss01" horiz-adv-x="1263" 
d="M1200 0h-332v127q-110 -152 -313 -152q-146 0 -252 74t-157.5 198.5t-51.5 284.5t51.5 284.5t157.5 199t252 74.5q194 0 303 -138v113h342v-1065zM651 250q211 0 211 282q0 283 -211 283t-211 -283q0 -282 211 -282zM514 1200l201 299h368l-299 -299h-270z" />
    <glyph glyph-name="abreve.ss01" horiz-adv-x="1263" 
d="M1200 0h-332v127q-110 -152 -313 -152q-146 0 -252 74t-157.5 198.5t-51.5 284.5t51.5 284.5t157.5 199t252 74.5q194 0 303 -138v113h342v-1065zM651 250q211 0 211 282q0 283 -211 283t-211 -283q0 -282 211 -282zM649 1188q-155 0 -255.5 81.5t-123.5 229.5h250
q12 -110 129 -110t129 110h250q-25 -148 -125.5 -229.5t-253.5 -81.5z" />
    <glyph glyph-name="uni01CE.ss01" horiz-adv-x="1263" 
d="M1200 0h-332v127q-110 -152 -313 -152q-146 0 -252 74t-157.5 198.5t-51.5 284.5t51.5 284.5t157.5 199t252 74.5q194 0 303 -138v113h342v-1065zM651 250q211 0 211 282q0 283 -211 283t-211 -283q0 -282 211 -282zM465 1200l-262 299h299l147 -141l146 141h299
l-260 -299h-369z" />
    <glyph glyph-name="acircumflex.ss01" horiz-adv-x="1263" 
d="M1200 0h-332v127q-110 -152 -313 -152q-146 0 -252 74t-157.5 198.5t-51.5 284.5t51.5 284.5t157.5 199t252 74.5q194 0 303 -138v113h342v-1065zM651 250q211 0 211 282q0 283 -211 283t-211 -283q0 -282 211 -282zM834 1499l260 -299h-299l-146 141l-147 -141h-299
l262 299h369z" />
    <glyph glyph-name="adieresis.ss01" horiz-adv-x="1263" 
d="M1200 0h-332v127q-110 -152 -313 -152q-146 0 -252 74t-157.5 198.5t-51.5 284.5t51.5 284.5t157.5 199t252 74.5q194 0 303 -138v113h342v-1065zM651 250q211 0 211 282q0 283 -211 283t-211 -283q0 -282 211 -282zM246 1204v271h342v-271h-342zM709 1204v271h342v-271
h-342z" />
    <glyph glyph-name="uni0227.ss01" horiz-adv-x="1263" 
d="M1200 0h-332v127q-110 -152 -313 -152q-146 0 -252 74t-157.5 198.5t-51.5 284.5t51.5 284.5t157.5 199t252 74.5q194 0 303 -138v113h342v-1065zM651 250q211 0 211 282q0 283 -211 283t-211 -283q0 -282 211 -282zM477 1204v271h342v-271h-342z" />
    <glyph glyph-name="agrave.ss01" horiz-adv-x="1263" 
d="M1200 0h-332v127q-110 -152 -313 -152q-146 0 -252 74t-157.5 198.5t-51.5 284.5t51.5 284.5t157.5 199t252 74.5q194 0 303 -138v113h342v-1065zM651 250q211 0 211 282q0 283 -211 283t-211 -283q0 -282 211 -282zM782 1200h-270l-299 299h369z" />
    <glyph glyph-name="aogonek.ss01" horiz-adv-x="1263" 
d="M555 -25q-146 0 -252 74t-157.5 198.5t-51.5 284.5t51.5 284.5t157.5 199t252 74.5q194 0 303 -138v113h342v-1063l2 -2q-106 -50 -150 -92.5t-44 -83.5q0 -36 28.5 -54t75.5 -18q44 0 90 12v-178q-67 -20 -160 -20q-130 0 -208 48t-78 150q0 65 52 129.5t144 106.5h-84
v127q-110 -152 -313 -152zM651 250q211 0 211 282q0 283 -211 283t-211 -283q0 -282 211 -282z" />
    <glyph glyph-name="aring.ss01" horiz-adv-x="1263" 
d="M1200 0h-332v127q-110 -152 -313 -152q-146 0 -252 74t-157.5 198.5t-51.5 284.5t51.5 284.5t157.5 199t252 74.5q194 0 303 -138v113h342v-1065zM651 250q211 0 211 282q0 283 -211 283t-211 -283q0 -282 211 -282zM649 1188q-137 0 -231 87t-94 220q0 132 94 218.5
t231 86.5t230.5 -86.5t93.5 -218.5q0 -133 -93.5 -220t-230.5 -87zM649 1380q50 0 82.5 32t32.5 83q0 49 -32.5 81t-82.5 32q-51 0 -84 -32t-33 -81q0 -51 33 -83t84 -32z" />
    <glyph glyph-name="atilde.ss01" horiz-adv-x="1263" 
d="M1200 0h-332v127q-110 -152 -313 -152q-146 0 -252 74t-157.5 198.5t-51.5 284.5t51.5 284.5t157.5 199t252 74.5q194 0 303 -138v113h342v-1065zM651 250q211 0 211 282q0 283 -211 283t-211 -283q0 -282 211 -282zM252 1200q0 153 66.5 226t173.5 73q55 0 155 -39
q5 -2 22 -9t27 -11t25 -9t27.5 -7.5t23.5 -2.5q32 0 47 18t15 60h210q0 -153 -66 -226t-173 -73q-14 0 -29.5 2t-27.5 4.5t-28.5 8t-25 8.5t-25.5 9.5t-22 8.5q-7 2 -27.5 10.5t-33.5 13t-31 9t-31 4.5q-33 0 -48 -18t-15 -60h-209z" />
    <glyph glyph-name="l.ss02" horiz-adv-x="530" 
d="M94 0v1475h342v-1475h-342z" />
    <glyph glyph-name="lacute.ss02" horiz-adv-x="530" 
d="M94 0v1475h342v-1475h-342zM131 1610l201 299h368l-299 -299h-270z" />
    <glyph glyph-name="lcaron.ss02" horiz-adv-x="530" 
d="M94 0v1475h342v-1475h-342zM518 1126l43 349h334l-152 -349h-225z" />
    <glyph glyph-name="lslash.ss02" horiz-adv-x="530" 
d="M94 0v567l-160 -69v213l160 69v695h342v-549l160 69v-213l-160 -69v-713h-342z" />
    <glyph glyph-name="t.ss03" horiz-adv-x="806" 
d="M205 0v819h-178v246h178v328h342v-328h213v-246h-213v-819h-342z" />
    <glyph glyph-name="tcaron.ss03" horiz-adv-x="806" 
d="M205 0v819h-178v246h178v328h342v-328h213v-246h-213v-819h-342zM612 1126l43 349h334l-151 -349h-226z" />
    <glyph glyph-name="uni0163.ss03" horiz-adv-x="806" 
d="M205 0v819h-178v246h178v328h342v-328h213v-246h-213v-819h-96l-86 -90h20q114 0 181 -44t67 -122q0 -85 -84 -144t-248 -59q-82 0 -154 17v123q73 -13 117 -13q135 0 135 76q0 74 -118 74q-42 0 -62 -4v82l78 104h-92z" />
    <glyph glyph-name="uni1E6B.ss03" horiz-adv-x="806" 
d="M205 0v819h-178v246h178v328h342v-328h213v-246h-213v-819h-342zM205 1532v270h342v-270h-342z" />
    <glyph glyph-name="u.ss04" 
d="M616 -25q-250 0 -386 118.5t-136 361.5v610h340v-602q0 -107 41 -162t141 -55t142.5 55t42.5 162v602h338v-610q0 -243 -136 -361.5t-387 -118.5z" />
    <glyph glyph-name="uacute.ss04" 
d="M616 -25q-250 0 -386 118.5t-136 361.5v610h340v-602q0 -107 41 -162t141 -55t142.5 55t42.5 162v602h338v-610q0 -243 -136 -361.5t-387 -118.5zM481 1200l201 299h369l-299 -299h-271z" />
    <glyph glyph-name="ubreve.ss04" 
d="M616 -25q-250 0 -386 118.5t-136 361.5v610h340v-602q0 -107 41 -162t141 -55t142.5 55t42.5 162v602h338v-610q0 -243 -136 -361.5t-387 -118.5zM616 1188q-155 0 -255 81.5t-123 229.5h249q12 -110 129 -110t129 110h250q-25 -148 -125.5 -229.5t-253.5 -81.5z" />
    <glyph glyph-name="uni01D4.ss04" 
d="M616 -25q-250 0 -386 118.5t-136 361.5v610h340v-602q0 -107 41 -162t141 -55t142.5 55t42.5 162v602h338v-610q0 -243 -136 -361.5t-387 -118.5zM434 1200l-262 299h299l147 -141l146 141h299l-260 -299h-369z" />
    <glyph glyph-name="ucircumflex.ss04" 
d="M616 -25q-250 0 -386 118.5t-136 361.5v610h340v-602q0 -107 41 -162t141 -55t142.5 55t42.5 162v602h338v-610q0 -243 -136 -361.5t-387 -118.5zM803 1499l260 -299h-299l-146 141l-147 -141h-299l262 299h369z" />
    <glyph glyph-name="udieresis.ss04" 
d="M616 -25q-250 0 -386 118.5t-136 361.5v610h340v-602q0 -107 41 -162t141 -55t142.5 55t42.5 162v602h338v-610q0 -243 -136 -361.5t-387 -118.5zM215 1204v271h342v-271h-342zM676 1204v271h342v-271h-342z" />
    <glyph glyph-name="ugrave.ss04" 
d="M616 -25q-250 0 -386 118.5t-136 361.5v610h340v-602q0 -107 41 -162t141 -55t142.5 55t42.5 162v602h338v-610q0 -243 -136 -361.5t-387 -118.5zM752 1200h-271l-299 299h369z" />
    <glyph glyph-name="uogonek.ss04" 
d="M664 -434q-130 0 -208.5 48t-78.5 150q0 58 40.5 116.5t114.5 99.5q-211 19 -324.5 136.5t-113.5 338.5v610h340v-602q0 -107 41 -162t141 -55t142.5 55t42.5 162v602h338v-610q0 -369 -316 -455q-106 -50 -150 -92.5t-44 -83.5q0 -36 28.5 -54t75.5 -18q43 0 90 12v-178
q-67 -20 -159 -20z" />
    <glyph glyph-name="uring.ss04" 
d="M616 -25q-250 0 -386 118.5t-136 361.5v610h340v-602q0 -107 41 -162t141 -55t142.5 55t42.5 162v602h338v-610q0 -243 -136 -361.5t-387 -118.5zM618 1188q-137 0 -231 87t-94 220q0 132 94 218.5t231 86.5t230.5 -86.5t93.5 -218.5q0 -133 -93.5 -220t-230.5 -87z
M618 1380q50 0 82.5 32t32.5 83q0 49 -32.5 81t-82.5 32q-51 0 -83.5 -31.5t-32.5 -81.5q0 -51 32.5 -83t83.5 -32z" />
    <glyph glyph-name="utilde.ss04" 
d="M616 -25q-250 0 -386 118.5t-136 361.5v610h340v-602q0 -107 41 -162t141 -55t142.5 55t42.5 162v602h338v-610q0 -243 -136 -361.5t-387 -118.5zM221 1200q0 153 66.5 226t173.5 73q55 0 155 -39q5 -2 22 -9t27 -11t25 -9t27.5 -7.5t23.5 -2.5q32 0 47 18t15 60h211
q0 -153 -66.5 -226t-173.5 -73q-14 0 -29.5 2t-27.5 4.5t-28.5 8t-25 8.5t-25.5 9.5t-22 8.5q-7 3 -27 10.5t-33 12.5t-31 9.5t-31 4.5q-33 0 -48.5 -18t-15.5 -60h-209z" />
    <glyph glyph-name="y.ss05" horiz-adv-x="1204" 
d="M246 -410l186 439l-426 1036h369l225 -655l229 655h369l-625 -1475h-327z" />
    <glyph glyph-name="yacute.ss05" horiz-adv-x="1204" 
d="M246 -410l186 439l-426 1036h369l225 -655l229 655h369l-625 -1475h-327zM467 1200l201 299h368l-299 -299h-270z" />
    <glyph glyph-name="ycircumflex.ss05" horiz-adv-x="1204" 
d="M246 -410l186 439l-426 1036h369l225 -655l229 655h369l-625 -1475h-327zM788 1499l261 -299h-299l-146 141l-147 -141h-299l262 299h368z" />
    <glyph glyph-name="ydieresis.ss05" horiz-adv-x="1204" 
d="M246 -410l186 439l-426 1036h369l225 -655l229 655h369l-625 -1475h-327zM201 1204v271h342v-271h-342zM662 1204v271h342v-271h-342z" />
    <glyph glyph-name="uni1E8F.ss05" horiz-adv-x="1204" 
d="M246 -410l186 439l-426 1036h369l225 -655l229 655h369l-625 -1475h-327zM432 1204v271h342v-271h-342z" />
    <glyph glyph-name="ygrave.ss05" horiz-adv-x="1204" 
d="M246 -410l186 439l-426 1036h369l225 -655l229 655h369l-625 -1475h-327zM737 1200h-270l-299 299h369z" />
    <glyph glyph-name="uni1EF9.ss05" horiz-adv-x="1204" 
d="M246 -410l186 439l-426 1036h369l225 -655l229 655h369l-625 -1475h-327zM207 1200q0 153 66 226t173 73q56 0 156 -39q5 -2 22 -9t27 -11t25 -9t27.5 -7.5t23.5 -2.5q31 0 46 18t15 60h211q0 -153 -66 -226t-173 -73q-14 0 -29.5 2t-27.5 4.5t-28.5 8t-25 8.5t-25.5 9.5
t-22 8.5q-7 2 -27.5 10.5t-33.5 13t-31 9t-31 4.5q-33 0 -48 -18t-15 -60h-209z" />
    <glyph glyph-name="three.ss09" horiz-adv-x="1280" 
d="M651 -25q-278 0 -427 128t-152 366h354q4 -98 63 -151.5t156 -53.5q90 0 150.5 55t60.5 150q0 205 -285 205h-141v223l313 272h-620v306h1042v-283l-331 -293q182 -45 283.5 -155.5t101.5 -290.5q0 -98 -37.5 -184.5t-107.5 -152t-179 -103.5t-244 -38z" />
    <glyph glyph-name="six.ss09" horiz-adv-x="1247" 
d="M627 -25q-249 0 -401 140t-152 381q0 206 114 342l467 637h361l-340 -461q229 -14 367.5 -152.5t138.5 -365.5q0 -241 -152.5 -381t-402.5 -140zM627 258q106 0 159.5 65t53.5 173q0 107 -53.5 172t-159.5 65q-104 0 -157.5 -65t-53.5 -172q0 -108 53 -173t158 -65z" />
    <glyph glyph-name="nine.ss09" horiz-adv-x="1247" 
d="M621 1499q249 0 401 -139.5t152 -380.5q0 -205 -115 -342l-467 -637h-361l340 461q-229 14 -367 152.5t-138 365.5q0 241 152.5 380.5t402.5 139.5zM621 1217q-106 0 -159.5 -65t-53.5 -173q0 -107 53.5 -172.5t159.5 -65.5q104 0 157 65.5t53 172.5q0 108 -52.5 173
t-157.5 65z" />
    <glyph glyph-name="one.ss10" horiz-adv-x="770" 
d="M287 0v1169h-232v306h602v-1475h-370z" />
    <glyph glyph-name="four.ss10" horiz-adv-x="1384" 
d="M74 283v340l569 852h373l-576 -887h351v313h335v-313h197v-305h-180v-283h-369v283h-700z" />
    <glyph glyph-name="at.ss11" horiz-adv-x="1898" 
d="M958 -238q-202 0 -372 65.5t-286 181t-180.5 276t-64.5 346.5t64.5 346t180.5 275.5t286 181t372 65.5q409 0 647 -222.5t238 -596.5q0 -229 -119 -374.5t-329 -145.5q-208 0 -273 147q-88 -147 -266 -147q-172 0 -270.5 131t-98.5 334t98.5 334t270.5 131
q148 0 236 -105v80h284v-537q0 -70 22.5 -98.5t80.5 -28.5q123 0 123 279q0 155 -46.5 271t-132.5 187.5t-202.5 106.5t-262.5 35q-145 0 -265 -42t-208.5 -122t-138 -204.5t-49.5 -280.5q0 -208 86 -359t234 -226t341 -75q263 0 449 107v-215q-105 -49 -210 -75t-239 -26z
M936 395q160 0 160 230q0 229 -160 229q-158 0 -158 -229q0 -230 158 -230z" />
    <glyph glyph-name="copyright.ss13" horiz-adv-x="1230" 
d="M621 680q-130 0 -202.5 77t-72.5 201t72.5 201.5t202.5 77.5q119 0 186.5 -57t81.5 -156h-172q-16 74 -96 74q-103 0 -103 -140q0 -139 103 -139q84 0 96 86h172q-14 -104 -81 -164.5t-187 -60.5zM614 418q-238 0 -398.5 153t-160.5 387t160.5 387.5t398.5 153.5
q156 0 284.5 -69t203 -193t74.5 -279t-74.5 -279t-203 -192.5t-284.5 -68.5zM614 584q169 0 275 101.5t106 272.5t-106 273t-275 102q-168 0 -273 -102t-105 -273t105 -272.5t273 -101.5z" />
    <glyph glyph-name="registered.ss13" horiz-adv-x="1230" 
d="M387 694v529h264q95 0 145 -45.5t50 -116.5q0 -80 -80 -131q61 -35 74 -111l18 -125h-156l-14 111q-13 74 -74 74h-73v-185h-154zM614 418q-238 0 -398.5 153t-160.5 387t160.5 387.5t398.5 153.5q156 0 284.5 -69t203 -193t74.5 -279t-74.5 -279t-203 -192.5
t-284.5 -68.5zM614 584q169 0 275 101.5t106 272.5t-106 273t-275 102q-168 0 -273 -102t-105 -273t105 -272.5t273 -101.5zM541 989h77q70 0 70 58q0 31 -17.5 44t-52.5 13h-77v-115z" />
    <glyph glyph-name="uni2117.ss13" horiz-adv-x="1230" 
d="M418 694v529h241q100 0 156.5 -51t56.5 -134t-56.5 -133.5t-156.5 -50.5h-88v-160h-153zM614 418q-238 0 -398.5 153t-160.5 387t160.5 387.5t398.5 153.5q156 0 284.5 -69t203 -193t74.5 -279t-74.5 -279t-203 -192.5t-284.5 -68.5zM614 584q169 0 275 101.5t106 272.5
t-106 273t-275 102q-168 0 -273 -102t-105 -273t105 -272.5t273 -101.5zM571 983h76q36 0 54 12t18 43q0 58 -72 58h-76v-113z" />
    <glyph glyph-name="trademark.ss14" horiz-adv-x="1691" 
d="M788 510v455h207l60 -240l57 240h207v-455h-129v311l-82 -311h-109l-81 311v-311h-130zM487 510v334h-133v121h400v-121h-133v-334h-134zM846 -25q-221 0 -401.5 96.5t-285 271.5t-104.5 394t104.5 394t285 271.5t401.5 96.5q165 0 310.5 -57t250.5 -156.5t166 -242
t61 -306.5t-61 -306.5t-166 -242t-250.5 -156.5t-310.5 -57zM846 170q253 0 414 155t161 412t-161 412.5t-414 155.5q-167 0 -297.5 -68.5t-205.5 -198.5t-75 -301q0 -257 162 -412t416 -155z" />
    <glyph glyph-name="uni2120.ss14" horiz-adv-x="1691" 
d="M788 510v455h209l60 -236l55 236h209v-455h-131v303l-80 -303h-111l-79 309v-309h-132zM549 500q-100 0 -153.5 44.5t-53.5 117.5h131q0 -35 21.5 -46.5t60.5 -11.5q26 0 43.5 10t17.5 25q0 14 -18 24t-72 17q-94 13 -136 50.5t-42 100.5t51.5 103.5t143.5 40.5
q189 0 198 -160h-131q-1 30 -17.5 42.5t-49.5 12.5q-56 0 -56 -32q0 -31 84 -41q102 -15 143.5 -50t41.5 -98q0 -74 -57.5 -111.5t-149.5 -37.5zM846 -25q-221 0 -401.5 96.5t-285 271.5t-104.5 394t104.5 394t285 271.5t401.5 96.5q165 0 310.5 -57t250.5 -156.5t166 -242
t61 -306.5t-61 -306.5t-166 -242t-250.5 -156.5t-310.5 -57zM846 170q253 0 414 155t161 412t-161 412.5t-414 155.5q-167 0 -297.5 -68.5t-205.5 -198.5t-75 -301q0 -257 162 -412t416 -155z" />
    <glyph glyph-name="cent.ss12" horiz-adv-x="1165" 
d="M524 -233v213q-222 24 -346.5 176t-124.5 376t124.5 376.5t346.5 176.5v213h158v-213q198 -20 312.5 -131.5t138.5 -289.5h-338q-15 72 -65.5 111.5t-127.5 39.5q-104 0 -154.5 -74t-50.5 -209t50.5 -208.5t154.5 -73.5q83 0 132 44t61 128h338q-23 -185 -136.5 -303
t-314.5 -139v-213h-158z" />
    <glyph glyph-name="dollar.ss12" horiz-adv-x="1366" 
d="M547 -233v217q-240 32 -372 167t-132 343h358q1 -55 18 -96.5t44 -66.5t67.5 -40.5t81.5 -21t93 -5.5q108 0 173.5 41.5t65.5 112.5q0 41 -21.5 68t-95 53.5t-209.5 48.5q-288 45 -418 158.5t-130 314.5q0 170 126.5 288t350.5 144v215h272v-221q215 -32 333.5 -158
t127.5 -334h-352q-4 112 -70 163.5t-196 51.5q-98 0 -157 -37t-59 -98q0 -42 22.5 -71t90.5 -56t189 -47q218 -34 345.5 -95t179.5 -148t52 -216q0 -199 -137 -316t-369 -144v-215h-272z" />
    <glyph glyph-name="Euro.ss12" horiz-adv-x="1294" 
d="M975 -25q-286 0 -464.5 144.5t-236.5 386.5h-233v164h209l-2 67l2 72h-209v164h233q60 240 238 383t463 143q154 0 278 -37v-311q-100 29 -229 29q-276 0 -365 -207h594v-164h-632l-3 -72l3 -67h632v-164h-596q86 -211 367 -211q129 0 229 29v-312q-124 -37 -278 -37z
" />
    <glyph glyph-name="sterling.ss12" horiz-adv-x="1247" 
d="M29 0v305h325q-18 141 -86 295h-215v164h140q-47 96 -71 164.5t-24 134.5q0 195 151 315.5t388 120.5q276 0 416.5 -135t138.5 -383h-354q1 104 -51.5 158.5t-149.5 54.5q-81 0 -129.5 -41.5t-48.5 -114.5q0 -38 15 -88.5t29 -82t48 -103.5h424v-164h-350
q61 -158 73 -295h508v-305h-1177z" />
    <glyph glyph-name="uni030C.alt" horiz-adv-x="0" 
d="M0 1126l43 349h334l-152 -349h-225z" />
    <glyph glyph-name="uni0308.case" horiz-adv-x="0" 
d="M0 1204v271h342v-271h-342zM461 1204v271h342v-271h-342z" />
    <glyph glyph-name="uni0307.case" horiz-adv-x="0" 
d="M0 1204v271h342v-271h-342z" />
    <glyph glyph-name="gravecomb.case" horiz-adv-x="0" 
d="M569 1200h-270l-299 299h369z" />
    <glyph glyph-name="acutecomb.case" horiz-adv-x="0" 
d="M0 1200l201 299h368l-299 -299h-270z" />
    <glyph glyph-name="uni0302.case" horiz-adv-x="0" 
d="M631 1499l260 -299h-299l-146 141l-147 -141h-299l262 299h369z" />
    <glyph glyph-name="uni030C.case" horiz-adv-x="0" 
d="M262 1200l-262 299h299l147 -141l146 141h299l-260 -299h-369z" />
    <glyph glyph-name="uni0306.case" horiz-adv-x="0" 
d="M379 1188q-155 0 -255.5 81.5t-123.5 229.5h250q12 -110 129 -110t129 110h250q-25 -148 -125.5 -229.5t-253.5 -81.5z" />
    <glyph glyph-name="uni030A.case" horiz-adv-x="0" 
d="M326 1188q-137 0 -231.5 87t-94.5 220q0 132 94.5 218.5t231.5 86.5t230 -86.5t93 -218.5q0 -133 -93 -220t-230 -87zM326 1380q50 0 82 32t32 83q0 49 -32 81t-82 32q-51 0 -84 -32t-33 -81q0 -51 33 -83t84 -32z" />
    <glyph glyph-name="tildecomb.case" horiz-adv-x="0" 
d="M0 1200q0 153 66.5 226t173.5 73q55 0 155 -39q5 -2 22 -9t27 -11t25 -9t27.5 -7.5t23.5 -2.5q32 0 47 18t15 60h211q0 -153 -66.5 -226t-173.5 -73q-14 0 -29.5 2t-27.5 4.5t-28.5 8t-25 8.5t-25.5 9.5t-22 8.5q-7 2 -27.5 10.5t-33.5 13t-31 9t-31 4.5q-33 0 -48 -18
t-15 -60h-209z" />
    <glyph glyph-name="dieresis.case" horiz-adv-x="802" 
d="M0 1204v271h342v-271h-342zM461 1204v271h342v-271h-342z" />
    <glyph glyph-name="dotaccent.case" horiz-adv-x="342" 
d="M0 1204v271h342v-271h-342z" />
    <glyph glyph-name="grave.case" horiz-adv-x="569" 
d="M569 1200h-270l-299 299h369z" />
    <glyph glyph-name="acute.case" horiz-adv-x="569" 
d="M0 1200l201 299h368l-299 -299h-270z" />
    <glyph glyph-name="circumflex.case" horiz-adv-x="890" 
d="M631 1499l260 -299h-299l-146 141l-147 -141h-299l262 299h369z" />
    <glyph glyph-name="caron.case" horiz-adv-x="890" 
d="M262 1200l-262 299h299l147 -141l146 141h299l-260 -299h-369z" />
    <glyph glyph-name="breve.case" horiz-adv-x="757" 
d="M379 1188q-155 0 -255.5 81.5t-123.5 229.5h250q12 -110 129 -110t129 110h250q-25 -148 -125.5 -229.5t-253.5 -81.5z" />
    <glyph glyph-name="ring.case" horiz-adv-x="649" 
d="M326 1188q-137 0 -231.5 87t-94.5 220q0 132 94.5 218.5t231.5 86.5t230 -86.5t93 -218.5q0 -133 -93 -220t-230 -87zM326 1380q50 0 82 32t32 83q0 49 -32 81t-82 32q-51 0 -84 -32t-33 -81q0 -51 33 -83t84 -32z" />
    <glyph glyph-name="tilde.case" horiz-adv-x="792" 
d="M0 1200q0 153 66.5 226t173.5 73q55 0 155 -39q5 -2 22 -9t27 -11t25 -9t27.5 -7.5t23.5 -2.5q32 0 47 18t15 60h211q0 -153 -66.5 -226t-173.5 -73q-14 0 -29.5 2t-27.5 4.5t-28.5 8t-25 8.5t-25.5 9.5t-22 8.5q-7 2 -27.5 10.5t-33.5 13t-31 9t-31 4.5q-33 0 -48 -18
t-15 -60h-209z" />
  </font>
</defs>
</svg>
