<?xml version="1.0" standalone="no"?>
<!DOCTYPE svg PUBLIC "-//W3C//DTD SVG 1.1//EN" "http://www.w3.org/Graphics/SVG/1.1/DTD/svg11.dtd" >
<svg xmlns="http://www.w3.org/2000/svg" xmlns:xlink="http://www.w3.org/1999/xlink" version="1.1">
<metadata>
Created by FontForge 20201107 at Sun Jul 13 20:54:24 2025
 By 
Copyright (c) 2025 Ivo Dolenc
</metadata>
<defs>
<font id="Aspekta-200" horiz-adv-x="1095" >
  <font-face 
    font-family="Aspekta 200"
    font-weight="200"
    font-stretch="normal"
    units-per-em="2048"
    panose-1="0 0 0 0 0 0 0 0 0 0"
    ascent="1638"
    descent="-410"
    x-height="1065"
    cap-height="1475"
    bbox="-156 -467 2300 1909"
    underline-thickness="102"
    underline-position="-317"
    unicode-range="U+0020-25CF"
  />
<missing-glyph horiz-adv-x="1290" 
d="M143 0v1475h1004v-1475h-1004z" />
    <glyph glyph-name=".notdef" horiz-adv-x="1290" 
d="M143 0v1475h1004v-1475h-1004z" />
    <glyph glyph-name=".null" horiz-adv-x="0" 
 />
    <glyph glyph-name="nonmarkingreturn" horiz-adv-x="682" 
 />
    <glyph glyph-name="space" unicode=" " horiz-adv-x="460" 
 />
    <glyph glyph-name="space" unicode="&#xa0;" horiz-adv-x="460" 
 />
    <glyph glyph-name="exclam" unicode="!" horiz-adv-x="305" 
d="M117 385l-17 639v451h107v-451l-19 -639h-71zM94 0v215h117v-215h-117z" />
    <glyph glyph-name="quotedbl" unicode="&#x22;" horiz-adv-x="698" 
d="M139 1475h105l-15 -455h-75zM457 1475h104l-14 -455h-76z" />
    <glyph glyph-name="numbersign" unicode="#" horiz-adv-x="1292" 
d="M686 0l90 465h-368l-91 -465h-100l90 465h-241l18 88h242l71 369h-243l18 88h242l90 465h100l-90 -465h369l90 465h102l-90 -465h242l-19 -88h-239l-72 -369h240l-17 -88h-241l-91 -465h-102zM426 553h369l71 369h-368z" />
    <glyph glyph-name="dollar" unicode="$" horiz-adv-x="1255" 
d="M586 -233v210q-113 8 -203 41t-158.5 94t-108 155.5t-44.5 217.5h106q10 -197 118 -296t290 -115v647q-255 52 -360 144.5t-105 260.5q0 160 128 263t337 110v209h92v-211q227 -17 348.5 -143t126.5 -326h-106q-6 169 -101 263.5t-268 109.5v-598q127 -25 218.5 -57
t148.5 -67.5t90 -83t45 -96t12 -112.5q0 -181 -138.5 -294.5t-375.5 -117.5v-208h-92zM227 1126q0 -61 13.5 -102.5t52 -80t109.5 -67.5t184 -55v582q-167 -6 -263 -81.5t-96 -195.5zM678 72q191 4 299 89t108 226q0 61 -15.5 104t-58.5 83t-124.5 70.5t-208.5 57.5v-630z
" />
    <glyph glyph-name="percent" unicode="%" horiz-adv-x="1630" 
d="M362 614q-106 0 -179 60.5t-105.5 158t-32.5 224.5q0 126 32.5 223.5t105.5 158t179 60.5q155 0 235.5 -124t80.5 -318q0 -127 -33 -224.5t-105.5 -158t-177.5 -60.5zM362 694q112 0 167 98.5t55 264.5q0 164 -55 263t-167 99t-167.5 -99t-55.5 -263q0 -165 55.5 -264
t167.5 -99zM375 0l782 1475h96l-782 -1475h-96zM1270 -25q-106 0 -179 60.5t-106 158t-33 224.5q0 126 33 223.5t106 158t179 60.5q105 0 177.5 -60.5t105 -158t32.5 -223.5q0 -196 -80 -319.5t-235 -123.5zM1270 55q112 0 166.5 98.5t54.5 264.5q0 165 -54.5 263.5
t-166.5 98.5t-167.5 -99t-55.5 -263q0 -165 55.5 -264t167.5 -99z" />
    <glyph glyph-name="ampersand" unicode="&#x26;" horiz-adv-x="1323" 
d="M528 -25q-103 0 -188.5 32t-141 86t-86 124.5t-30.5 149.5q0 67 20.5 126.5t50.5 102.5t79.5 86.5t92.5 72t105 64.5q-104 116 -147 192t-43 179q0 136 94 222.5t235 86.5q140 0 234 -86.5t94 -222.5q0 -55 -18 -105t-44.5 -87t-71.5 -75.5t-83.5 -64.5t-95.5 -61
l401 -447q98 176 98 410h95q-3 -286 -125 -486l245 -274h-135l-170 190q-177 -215 -465 -215zM186 367q0 -123 92.5 -209t249.5 -86q121 0 223 50t175 142l-430 481q-58 -34 -95.5 -59t-82.5 -62.5t-71 -73t-43.5 -83t-17.5 -100.5zM344 1190q0 -82 38 -146t136 -174
q52 30 86.5 52.5t74 54.5t62.5 62t38.5 69t15.5 82q0 93 -64 155t-162 62q-99 0 -162 -62t-63 -155z" />
    <glyph glyph-name="quotesingle" unicode="'" horiz-adv-x="382" 
d="M139 1475h105l-15 -455h-75z" />
    <glyph glyph-name="parenleft" unicode="(" horiz-adv-x="555" 
d="M344 -410q-152 266 -227.5 513.5t-75.5 510.5t75.5 510.5t227.5 513.5h94q-152 -274 -221.5 -516t-69.5 -508t69.5 -508t221.5 -516h-94z" />
    <glyph glyph-name="parenright" unicode=")" horiz-adv-x="544" 
d="M31 -410q152 274 221.5 516t69.5 508t-69.5 508t-221.5 516h94q152 -266 227.5 -513.5t75.5 -510.5t-75.5 -510.5t-227.5 -513.5h-94z" />
    <glyph glyph-name="asterisk" unicode="*" horiz-adv-x="985" 
d="M725 684l-231 307l-234 -307l-65 49l229 305l-338 105l25 78l340 -103v357h81v-357l342 103l25 -78l-340 -105l232 -305z" />
    <glyph glyph-name="plus" unicode="+" horiz-adv-x="1081" 
d="M109 692v92h387v385h92v-385h385v-92h-385v-387h-92v387h-387z" />
    <glyph glyph-name="comma" unicode="," horiz-adv-x="346" 
d="M133 215h115l-121 -455h-86z" />
    <glyph glyph-name="hyphen" unicode="-" horiz-adv-x="778" 
d="M109 547v94h561v-94h-561z" />
    <glyph glyph-name="period" unicode="." horiz-adv-x="313" 
d="M98 0v215h117v-215h-117z" />
    <glyph glyph-name="slash" unicode="/" horiz-adv-x="690" 
d="M27 0l536 1475h101l-537 -1475h-100z" />
    <glyph glyph-name="zero" unicode="0" horiz-adv-x="1200" 
d="M600 -25q-107 0 -191.5 38.5t-139.5 106t-91 165t-51.5 208.5t-15.5 244t15.5 244t51.5 208.5t91 165t139.5 106t191.5 38.5t191.5 -38.5t140 -106t91.5 -165t51.5 -208.5t15.5 -244t-15.5 -244t-51.5 -208.5t-91.5 -165t-140 -106t-191.5 -38.5zM600 72q86 0 152.5 33.5
t110 91.5t70.5 143.5t38.5 182t11.5 214.5q0 149 -19 264.5t-61.5 208.5t-119 143t-183.5 50t-183.5 -50t-119 -143t-61.5 -208.5t-19 -264.5q0 -118 11.5 -214.5t38.5 -182t70.5 -143.5t110 -91.5t152.5 -33.5z" />
    <glyph glyph-name="one" unicode="1" horiz-adv-x="677" 
d="M438 0v1352l-342 -260v120l346 263h99v-1475h-103z" />
    <glyph glyph-name="two" unicode="2" horiz-adv-x="1093" 
d="M98 0v94l580 602q100 101 157.5 201.5t57.5 210.5q0 133 -92.5 214t-239.5 81q-153 0 -254 -97t-104 -264h-105q6 208 133 332.5t328 124.5q199 0 316.5 -113.5t117.5 -279.5q0 -226 -248 -481l-516 -529h789v-96h-920z" />
    <glyph glyph-name="three" unicode="3" horiz-adv-x="1126" 
d="M573 -25q-221 0 -345 115.5t-136 329.5h105q11 -166 103.5 -257t272.5 -91q169 0 270 86.5t101 232.5q0 162 -108.5 240t-309.5 78h-98v90h92q189 0 286 89t97 228q0 130 -94 208.5t-238 78.5q-164 0 -253.5 -89.5t-98.5 -258.5h-102q12 208 128 326t326 118
q195 0 316 -112t121 -271q0 -111 -62.5 -208.5t-189.5 -145.5q144 -39 218.5 -135.5t74.5 -235.5q0 -184 -131 -300t-345 -116z" />
    <glyph glyph-name="four" unicode="4" horiz-adv-x="1206" 
d="M57 369v100l768 1006h113v-1010h229v-96h-229v-369h-104v369h-777zM174 465h660v874z" />
    <glyph glyph-name="five" unicode="5" horiz-adv-x="1101" 
d="M563 -25q-199 0 -320 113t-139 291h103q19 -139 112.5 -223t243.5 -84q165 0 262 109t97 282t-97 282t-262 109q-128 0 -209 -55.5t-129 -161.5h-96l123 838h713v-97h-629l-80 -555q118 127 313 127q215 0 337 -136.5t122 -350.5q0 -139 -54 -248.5t-160.5 -174.5
t-250.5 -65z" />
    <glyph glyph-name="six" unicode="6" horiz-adv-x="1177" 
d="M614 -25q-164 0 -290 101q-213 180 -213 649q0 173 29.5 312.5t89.5 244t157.5 161t226.5 56.5q163 0 278.5 -107t145.5 -276h-102q-27 129 -113.5 208t-208.5 79q-94 0 -167 -42.5t-117.5 -112.5t-72 -167.5t-36.5 -199t-6 -215.5q47 130 150 205t249 75
q212 0 336.5 -136.5t124.5 -348.5t-124.5 -349t-336.5 -137zM614 72q160 0 256.5 108.5t96.5 280.5t-96.5 280.5t-256.5 108.5t-256 -108.5t-96 -280.5t96 -280.5t256 -108.5z" />
    <glyph glyph-name="seven" unicode="7" horiz-adv-x="1011" 
d="M252 0l602 1378h-803v97h910v-89l-601 -1386h-108z" />
    <glyph glyph-name="eight" unicode="8" horiz-adv-x="1150" 
d="M575 -25q-226 0 -362.5 119.5t-136.5 311.5q0 140 81.5 240t219.5 142q-111 41 -178.5 125t-67.5 203q0 175 127 279t317 104t317.5 -104t127.5 -279q0 -119 -67.5 -203t-178.5 -125q138 -42 219.5 -142t81.5 -240q0 -192 -137 -311.5t-363 -119.5zM575 72
q181 0 287.5 91.5t106.5 242.5q0 152 -106.5 243.5t-287.5 91.5q-180 0 -286.5 -91.5t-106.5 -243.5t106 -243t287 -91zM575 829q144 0 242 78t98 209q0 132 -97.5 209.5t-242.5 77.5t-242 -77.5t-97 -209.5q0 -131 97.5 -209t241.5 -78z" />
    <glyph glyph-name="nine" unicode="9" horiz-adv-x="1177" 
d="M563 1499q166 0 291 -100q213 -180 213 -649q0 -173 -29.5 -312.5t-90 -244t-158 -161.5t-226.5 -57q-163 0 -278.5 107t-145.5 276h103q27 -129 113 -207.5t208 -78.5q94 0 167 42.5t117.5 112.5t72.5 167.5t37 199t6 215.5q-47 -130 -150.5 -205.5t-249.5 -75.5
q-212 0 -336.5 137t-124.5 349t124.5 348.5t336.5 136.5zM563 1403q-160 0 -256 -108.5t-96 -280.5t96 -280.5t256 -108.5t256 108.5t96 280.5t-96 280.5t-256 108.5z" />
    <glyph glyph-name="colon" unicode=":" horiz-adv-x="313" 
d="M98 809v215h117v-215h-117zM98 0v215h117v-215h-117z" />
    <glyph glyph-name="semicolon" unicode=";" horiz-adv-x="352" 
d="M131 809v215h117v-215h-117zM133 215h115l-121 -455h-86z" />
    <glyph glyph-name="less" unicode="&#x3c;" horiz-adv-x="1081" 
d="M109 791l864 409v-106l-768 -357l768 -356v-107l-864 410v107z" />
    <glyph glyph-name="equal" unicode="=" horiz-adv-x="1081" 
d="M109 864v92h864v-92h-864zM109 520v92h864v-92h-864z" />
    <glyph glyph-name="greater" unicode="&#x3e;" horiz-adv-x="1081" 
d="M973 684l-864 -410v107l768 356l-768 357v106l864 -409v-107z" />
    <glyph glyph-name="question" unicode="?" horiz-adv-x="1017" 
d="M422 385q0 108 23.5 180.5t69 126.5t138.5 133q88 76 114 105q81 91 81 209q0 119 -91.5 191.5t-244.5 72.5q-161 0 -253.5 -87t-92.5 -263h-103q0 223 118.5 334.5t330.5 111.5q203 0 322.5 -100.5t119.5 -257.5q0 -64 -13 -113.5t-45.5 -94.5t-67 -79t-97.5 -86
q-66 -56 -101.5 -92t-64 -80.5t-38 -93t-9.5 -117.5h-96zM412 0v215h116v-215h-116z" />
    <glyph glyph-name="at" unicode="@" horiz-adv-x="1890" 
d="M946 -238q-184 0 -343.5 64.5t-273.5 178t-179.5 276t-65.5 352.5q0 252 111.5 450t308 307t442.5 109q184 0 343 -60t273.5 -167.5t180 -264.5t65.5 -343q0 -218 -107.5 -355t-266.5 -137q-100 0 -161.5 47t-76.5 129q-103 -176 -324 -176q-140 0 -218.5 68.5
t-78.5 183.5q0 108 77.5 172t242.5 98l293 62v71q0 92 -55.5 134.5t-169.5 42.5q-51 0 -94.5 -11t-81.5 -34t-60 -65.5t-22 -100.5h-93q-1 75 28 133.5t79.5 93t112 52.5t131.5 18q156 0 235.5 -66.5t79.5 -187.5v-420q0 -81 44.5 -120.5t123.5 -39.5q112 0 189 112.5
t77 295.5q0 166 -59 306.5t-161 236.5t-243 150t-303 54t-304 -58t-244 -159.5t-161 -247t-59 -313.5q0 -169 59 -315.5t161 -248.5t244 -160.5t304 -58.5q237 0 432 127v-98q-196 -117 -432 -117zM877 258q87 0 155.5 32t112 102.5t43.5 172.5v109l-281 -62
q-128 -30 -181.5 -68t-53.5 -118q0 -76 51.5 -122t153.5 -46z" />
    <glyph glyph-name="A" unicode="A" horiz-adv-x="1392" 
d="M1247 0l-180 444h-741l-181 -444h-114l610 1475h111l610 -1475h-115zM362 539h668l-334 825z" />
    <glyph glyph-name="B" unicode="B" horiz-adv-x="1280" 
d="M139 0v1475h559q230 0 350.5 -106t120.5 -275q0 -113 -55.5 -198t-165.5 -128q137 -39 208 -133t71 -232q0 -184 -125.5 -293.5t-358.5 -109.5h-604zM244 96h501q183 0 280 81.5t97 225.5q0 145 -97 227.5t-280 82.5h-501v-617zM244 809h461q178 0 270 77.5t92 207.5
t-92 207t-270 77h-461v-569z" />
    <glyph glyph-name="C" unicode="C" horiz-adv-x="1441" 
d="M762 -25q-134 0 -246 40.5t-190.5 111.5t-134 167.5t-81.5 208.5t-26 234t26 234t81.5 208.5t134 167.5t190.5 111.5t246 40.5q122 0 226 -40.5t178 -112.5t122 -168t64 -209h-105q-29 192 -158.5 313t-326.5 121q-142 0 -253.5 -54t-180 -147t-103.5 -211t-35 -254
q0 -108 21.5 -205.5t67.5 -181.5t112.5 -146t161.5 -97t209 -35q205 0 337 132t154 335h105q-13 -118 -59.5 -220t-121 -179t-181.5 -121t-234 -44z" />
    <glyph glyph-name="D" unicode="D" horiz-adv-x="1384" 
d="M139 0v1475h439q144 0 264 -38t205 -105.5t143.5 -160.5t86.5 -202.5t28 -231.5t-28 -231.5t-86.5 -202t-143.5 -160t-205 -105.5t-264 -38h-439zM244 96h334q155 0 275.5 50t194 138.5t111 203t37.5 249.5t-37.5 249.5t-111 203t-194 138.5t-275.5 50h-334v-1282z" />
    <glyph glyph-name="E" unicode="E" horiz-adv-x="1191" 
d="M139 0v1475h979v-97h-874v-561h813v-96h-813v-625h882v-96h-987z" />
    <glyph glyph-name="F" unicode="F" horiz-adv-x="1128" 
d="M139 0v1475h938v-97h-833v-561h792v-96h-792v-721h-105z" />
    <glyph glyph-name="G" unicode="G" horiz-adv-x="1531" 
d="M762 -25q-134 0 -246 40.5t-190.5 111.5t-134 167.5t-81.5 208.5t-26 234t26 234t81.5 208.5t134 167.5t190.5 111.5t246 40.5q261 0 427.5 -145t203.5 -375h-107q-32 188 -170 306t-354 118q-142 0 -253.5 -54t-180 -147t-103.5 -211t-35 -254q0 -108 21.5 -205.5
t67.5 -181.5t112.5 -146t161.5 -97t209 -35q104 0 190 29.5t148 81.5t107 125t70 157.5t34 181.5h-611v94h713v-741h-94v346q-68 -174 -206 -272.5t-351 -98.5z" />
    <glyph glyph-name="H" unicode="H" horiz-adv-x="1402" 
d="M1161 0v717h-917v-717h-105v1475h105v-662h917v662h103v-1475h-103z" />
    <glyph glyph-name="I" unicode="I" horiz-adv-x="382" 
d="M139 0v1475h105v-1475h-105z" />
    <glyph glyph-name="J" unicode="J" horiz-adv-x="1093" 
d="M530 -25q-206 0 -324 129.5t-118 360.5v67h102v-67q0 -192 90 -292.5t250 -100.5t250 100.5t90 292.5v1010h105v-1010q0 -230 -119 -360t-326 -130z" />
    <glyph glyph-name="K" unicode="K" horiz-adv-x="1331" 
d="M139 0v1475h105v-887l905 887h139l-637 -619l649 -856h-129l-596 782l-331 -321v-461h-105z" />
    <glyph glyph-name="L" unicode="L" horiz-adv-x="1062" 
d="M139 0v1475h105v-1379h768v-96h-873z" />
    <glyph glyph-name="M" unicode="M" horiz-adv-x="1730" 
d="M815 0l-573 1303v-1303h-103v1475h135l592 -1362l590 1362h135v-1475h-102v1298l-571 -1298h-103z" />
    <glyph glyph-name="N" unicode="N" horiz-adv-x="1415" 
d="M1149 0l-905 1333v-1333h-105v1475h129l906 -1336v1336h102v-1475h-127z" />
    <glyph glyph-name="O" unicode="O" horiz-adv-x="1521" 
d="M762 -25q-134 0 -246 40.5t-190.5 111.5t-134 167.5t-81.5 208.5t-26 234t26 234t81.5 208.5t134 167.5t190.5 111.5t246 40.5q133 0 245 -40.5t191 -111.5t134 -167.5t81.5 -208.5t26.5 -234t-26.5 -234t-81.5 -208.5t-134 -167.5t-191 -111.5t-245 -40.5zM762 72
q114 0 208.5 35t160.5 97t111.5 146t67 181.5t21.5 205.5q0 136 -35 254t-103 211t-179 147t-252 54q-142 0 -253.5 -54t-180 -147t-103.5 -211t-35 -254q0 -108 21.5 -205.5t67.5 -181.5t112.5 -146t161.5 -97t209 -35z" />
    <glyph glyph-name="P" unicode="P" horiz-adv-x="1294" 
d="M139 0v1475h568q231 0 357 -121t126 -312t-126 -311.5t-357 -120.5h-463v-610h-105zM244 707h463q181 0 278.5 92t97.5 243t-97.5 243.5t-278.5 92.5h-463v-671z" />
    <glyph glyph-name="Q" unicode="Q" horiz-adv-x="1521" 
d="M1198 -172l-149 205q-129 -58 -287 -58q-134 0 -246 40.5t-190.5 111.5t-134 167.5t-81.5 208.5t-26 234t26 234t81.5 208.5t134 167.5t190.5 111.5t246 40.5q133 0 245 -40.5t191 -111.5t134 -167.5t81.5 -208.5t26.5 -234q0 -209 -77 -382.5t-224 -272.5l184 -254h-125
zM762 72q128 0 229 43l-203 278h123l168 -229q124 85 188 237t64 336q0 136 -35 254t-103 211t-179 147t-252 54q-142 0 -253.5 -54t-180 -147t-103.5 -211t-35 -254q0 -108 21.5 -205.5t67.5 -181.5t112.5 -146t161.5 -97t209 -35z" />
    <glyph glyph-name="R" unicode="R" horiz-adv-x="1286" 
d="M139 0v1475h584q233 0 358 -109t125 -295q0 -125 -66.5 -218.5t-201.5 -143.5q176 -50 207 -246l78 -463h-107l-63 391q-11 69 -29.5 116t-54.5 85t-94.5 56t-143.5 18h-487v-666h-105zM244 762h479q181 0 278 82.5t97 226.5q0 142 -97 224.5t-278 82.5h-479v-616z" />
    <glyph glyph-name="S" unicode="S" horiz-adv-x="1255" 
d="M659 -25q-263 0 -419 124.5t-168 385.5h106q6 -111 44 -192.5t104 -129t148 -69.5t185 -22q198 0 312 85.5t114 229.5q0 65 -17 109t-66 85.5t-140.5 73t-236.5 58.5q-278 52 -391 145.5t-113 267.5q0 166 136 269.5t357 103.5q257 0 395.5 -129t143.5 -342h-106
q-6 184 -118 279.5t-315 95.5q-179 0 -283 -76t-104 -201q0 -53 10 -90t37 -72.5t76.5 -62t127.5 -50.5t190 -46q130 -25 223 -57t151 -67.5t91.5 -83t46 -96.5t12.5 -114q0 -184 -144 -298t-389 -114z" />
    <glyph glyph-name="T" unicode="T" horiz-adv-x="1263" 
d="M578 0v1378h-529v97h1165v-97h-528v-1378h-108z" />
    <glyph glyph-name="U" unicode="U" horiz-adv-x="1337" 
d="M670 -25q-257 0 -404 143t-147 419v938h104v-938q0 -237 118.5 -351t328.5 -114q209 0 327.5 114t118.5 351v938h103v-938q0 -276 -146.5 -419t-402.5 -143z" />
    <glyph glyph-name="V" unicode="V" horiz-adv-x="1341" 
d="M612 0l-581 1475h112l529 -1358l526 1358h111l-582 -1475h-115z" />
    <glyph glyph-name="W" unicode="W" horiz-adv-x="2029" 
d="M1417 0l-401 1335l-402 -1335h-116l-467 1475h110l416 -1328l399 1328h117l402 -1332l415 1332h109l-467 -1475h-115z" />
    <glyph glyph-name="X" unicode="X" horiz-adv-x="1302" 
d="M1149 0l-500 680l-499 -680h-119l559 760l-524 715h122l463 -631l465 631h117l-522 -711l561 -764h-123z" />
    <glyph glyph-name="Y" unicode="Y" horiz-adv-x="1345" 
d="M621 0v623l-590 852h121l522 -754l520 754h119l-588 -848v-627h-104z" />
    <glyph glyph-name="Z" unicode="Z" horiz-adv-x="1220" 
d="M63 0v92l961 1290l-289 -4h-635v97h1049v-93l-961 -1290l287 4h682v-96h-1094z" />
    <glyph glyph-name="bracketleft" unicode="[" horiz-adv-x="612" 
d="M57 -410v2048h414v-88h-315v-1872h315v-88h-414z" />
    <glyph glyph-name="backslash" unicode="\" horiz-adv-x="690" 
d="M664 0h-101l-536 1475h100z" />
    <glyph glyph-name="bracketright" unicode="]" horiz-adv-x="604" 
d="M51 -410v88h316v1872h-316v88h414v-2048h-414z" />
    <glyph glyph-name="underscore" unicode="_" horiz-adv-x="948" 
d="M-4 -369v88h956v-88h-956z" />
    <glyph glyph-name="grave" unicode="`" horiz-adv-x="354" 
d="M354 1200h-92l-262 299h131z" />
    <glyph glyph-name="a" unicode="a" horiz-adv-x="1001" 
d="M813 0v197q-64 -113 -166.5 -167.5t-230.5 -54.5q-170 0 -263.5 83t-93.5 221q0 131 92.5 207t292.5 118l367 78v92q0 116 -71 169.5t-214 53.5q-65 0 -119.5 -13.5t-101 -42.5t-74 -81t-28.5 -123h-101q1 71 23.5 130t61.5 100t93 69t115.5 41t130.5 13q188 0 285.5 -81
t97.5 -225v-784h-96zM420 68q169 0 280 98.5t111 286.5v145l-352 -80q-159 -36 -227 -85.5t-68 -149.5q0 -98 64.5 -156.5t191.5 -58.5z" />
    <glyph glyph-name="b" unicode="b" horiz-adv-x="1175" 
d="M127 0v1475h100v-623q57 112 154.5 175t230.5 63q152 0 262.5 -75.5t164 -200t53.5 -282.5q0 -118 -31.5 -218.5t-90.5 -176.5t-151 -119t-207 -43q-135 0 -234 65t-155 181v-221h-96zM606 68q183 0 282 130.5t99 333.5q0 132 -41.5 235.5t-129 166.5t-210.5 63
q-183 0 -283 -131t-100 -334t100 -333.5t283 -130.5z" />
    <glyph glyph-name="c" unicode="c" horiz-adv-x="1069" 
d="M567 -25q-149 0 -260 75t-166 200t-55 282q0 117 32.5 218.5t92.5 177t152 119t204 43.5q174 0 288 -102t144 -269h-102q-27 125 -114.5 201.5t-215.5 76.5q-180 0 -278.5 -131t-98.5 -334q0 -132 41 -235t128 -166t208 -63q131 0 220 81.5t114 215.5h103
q-27 -172 -145 -281t-292 -109z" />
    <glyph glyph-name="d" unicode="d" horiz-adv-x="1175" 
d="M1049 0h-97v221q-56 -116 -155 -181t-234 -65q-152 0 -262 75t-163.5 199.5t-53.5 282.5t53.5 282.5t163.5 200t262 75.5q133 0 230.5 -63t154.5 -175v623h101v-1475zM569 68q183 0 283 130.5t100 333.5t-100 334t-283 131q-123 0 -210.5 -63t-129 -166.5t-41.5 -235.5
q0 -203 99 -333.5t282 -130.5z" />
    <glyph glyph-name="e" unicode="e" horiz-adv-x="1120" 
d="M561 -25q-148 0 -258 75t-164.5 200t-54.5 282t54.5 282.5t164.5 200.5t258 75q147 0 257 -75t165 -200.5t55 -282.5v-32h-852q5 -123 48.5 -219.5t128 -154.5t198.5 -58q132 0 225.5 75t131.5 201h102q-46 -169 -165 -269t-294 -100zM188 592h744q-14 179 -111 292
t-260 113q-164 0 -261.5 -113t-111.5 -292z" />
    <glyph glyph-name="f" unicode="f" horiz-adv-x="694" 
d="M233 1227q0 59 9 100t32.5 76.5t69.5 53.5t115 18h184v-89h-174q-79 0 -107 -41t-28 -124v-156h309v-88h-309v-977h-101v977h-202v88h202v162z" />
    <glyph glyph-name="g" unicode="g" horiz-adv-x="1177" 
d="M590 -434q-202 0 -313 86.5t-130 243.5h101q19 -122 102.5 -181t239.5 -59q171 0 264.5 93t93.5 274v190q-57 -112 -154.5 -175t-230.5 -63q-152 0 -262 75t-163.5 199.5t-53.5 282.5t53.5 282.5t163.5 200t262 75.5q135 0 234 -65t155 -181v221h99v-1042
q0 -211 -121.5 -334t-339.5 -123zM569 68q183 0 283 130.5t100 333.5t-100 334t-283 131q-123 0 -210.5 -63t-129 -166.5t-41.5 -235.5q0 -203 99 -333.5t282 -130.5z" />
    <glyph glyph-name="h" unicode="h" 
d="M127 0v1475h100v-603q53 100 143.5 159t217.5 59q185 0 283 -108.5t98 -293.5v-688h-101v678q0 156 -76 237.5t-221 81.5q-67 0 -128.5 -27t-109.5 -76.5t-77 -126.5t-29 -171v-596h-100z" />
    <glyph glyph-name="i" unicode="i" horiz-adv-x="352" 
d="M125 0v1065h102v-1065h-102zM125 1276v199h100v-199h-100z" />
    <glyph glyph-name="j" unicode="j" horiz-adv-x="360" 
d="M236 -162q0 -59 -9 -100t-32.5 -76.5t-69.5 -53.5t-115 -18h-141v88h131q79 0 107 41.5t28 124.5v1221h101v-1227zM133 1276v199h100v-199h-100z" />
    <glyph glyph-name="k" unicode="k" horiz-adv-x="1017" 
d="M127 0v1475h104v-983l594 573h133l-432 -416l465 -649h-121l-413 582l-226 -217v-365h-104z" />
    <glyph glyph-name="l" unicode="l" horiz-adv-x="544" 
d="M127 1475h100v-1221q0 -83 28 -124.5t107 -41.5h132v-88h-142q-69 0 -115 18t-69 53.5t-32 76.5t-9 100v1227z" />
    <glyph glyph-name="m" unicode="m" horiz-adv-x="1751" 
d="M1524 678q0 152 -77 235.5t-200 83.5q-138 0 -229.5 -107t-91.5 -294v-596h-101v678q0 152 -76.5 235.5t-199.5 83.5q-138 0 -230 -107t-92 -294v-596h-100v1065h96v-199q99 224 342 224q125 0 213.5 -66.5t124.5 -183.5q44 114 134.5 182t226.5 68q162 0 261 -111
t99 -291v-688h-100v678z" />
    <glyph glyph-name="n" unicode="n" 
d="M868 678q0 156 -76 237.5t-221 81.5q-67 0 -128.5 -27t-109.5 -76.5t-77 -126.5t-29 -171v-596h-100v1065h96v-201q50 103 143 164.5t222 61.5q185 0 283 -108.5t98 -293.5v-688h-101v678z" />
    <glyph glyph-name="o" unicode="o" horiz-adv-x="1140" 
d="M571 -25q-153 0 -265 75t-167 199.5t-55 282.5t55 282.5t167 200t265 75.5q115 0 208 -43.5t154 -119t93.5 -177t32.5 -218.5q0 -157 -55.5 -282t-168 -200t-264.5 -75zM571 68q183 0 283 130.5t100 333.5t-100 334t-283 131q-124 0 -212.5 -63t-130.5 -166.5t-42 -235.5
t42 -235t130.5 -166t212.5 -63z" />
    <glyph glyph-name="p" unicode="p" horiz-adv-x="1175" 
d="M127 1065h96v-221q56 116 155 181t234 65q152 0 262.5 -75.5t164 -200t53.5 -282.5q0 -118 -31.5 -218.5t-90.5 -176.5t-151 -119t-207 -43q-133 0 -230.5 63t-154.5 175v-623h-100v1475zM606 997q-183 0 -283 -131t-100 -334t100 -333.5t283 -130.5t282 130.5t99 333.5
q0 132 -41.5 235.5t-129 166.5t-210.5 63z" />
    <glyph glyph-name="q" unicode="q" horiz-adv-x="1175" 
d="M1049 1065v-1475h-101v623q-57 -112 -154.5 -175t-230.5 -63q-152 0 -262 75t-163.5 199.5t-53.5 282.5t53.5 282.5t163.5 200t262 75.5q135 0 234 -65t155 -181v221h97zM569 997q-123 0 -210.5 -63t-129 -166.5t-41.5 -235.5q0 -203 99 -333.5t282 -130.5t283 130.5
t100 333.5t-100 334t-283 131z" />
    <glyph glyph-name="r" unicode="r" horiz-adv-x="729" 
d="M127 0v1065h96v-229q105 241 373 241h84v-98h-92q-71 0 -134 -23.5t-114.5 -70t-81.5 -125t-31 -180.5v-580h-100z" />
    <glyph glyph-name="s" unicode="s" horiz-adv-x="978" 
d="M502 -25q-199 0 -315 99t-124 274h101q9 -139 95.5 -212t242.5 -73q141 0 227 54t86 162q0 62 -23 99t-92.5 66.5t-201.5 49.5q-155 24 -243.5 65t-123.5 98.5t-35 145.5q0 132 106.5 209.5t276.5 77.5q198 0 303 -93t111 -260h-100q-15 264 -314 264q-125 0 -203.5 -51
t-78.5 -145q0 -98 67 -143.5t262 -75.5q151 -25 237 -66t119 -96.5t33 -140.5q0 -102 -58.5 -173.5t-149.5 -103t-205 -31.5z" />
    <glyph glyph-name="t" unicode="t" horiz-adv-x="694" 
d="M233 1393h101v-328h309v-88h-309v-723q0 -83 28 -124.5t107 -41.5h174v-88h-184q-69 0 -115 18t-69.5 53.5t-32.5 76.5t-9 100v729h-202v88h202v328z" />
    <glyph glyph-name="u" unicode="u" 
d="M227 387q0 -156 76 -237.5t221 -81.5q67 0 128.5 27t109.5 76.5t77 126.5t29 171v596h101v-1065h-97v201q-50 -103 -142.5 -164.5t-221.5 -61.5q-185 0 -283 108.5t-98 293.5v688h100v-678z" />
    <glyph glyph-name="v" unicode="v" horiz-adv-x="1050" 
d="M473 0l-440 1065h108l385 -959l383 959h109l-443 -1065h-102z" />
    <glyph glyph-name="w" unicode="w" horiz-adv-x="1675" 
d="M1141 0l-303 938l-303 -938h-107l-397 1065h104l344 -942l305 942h107l305 -942l342 942h107l-400 -1065h-104z" />
    <glyph glyph-name="x" unicode="x" horiz-adv-x="995" 
d="M848 0l-350 467l-353 -467h-116l409 545l-391 520h119l332 -440l331 440h119l-391 -520l410 -545h-119z" />
    <glyph glyph-name="y" unicode="y" horiz-adv-x="1009" 
d="M59 -410v88h148q42 0 70.5 9t48.5 32.5t31 46t28 66.5l68 170l-420 1063h108l363 -946l364 946h109l-498 -1260q-14 -37 -23.5 -59t-25 -50.5t-32 -44.5t-39.5 -32t-53 -22.5t-68 -6.5h-179z" />
    <glyph glyph-name="z" unicode="z" horiz-adv-x="991" 
d="M72 0v80l708 897h-688v88h807v-80l-706 -897h727v-88h-848z" />
    <glyph glyph-name="braceleft" unicode="{" horiz-adv-x="757" 
d="M461 -410q-69 0 -116 19t-71.5 55.5t-34.5 79.5t-10 100v553q0 43 -6.5 71.5t-25.5 53t-55.5 36t-92.5 11.5v90q56 0 92.5 11.5t55.5 36t25.5 53t6.5 71.5v553q0 57 10 100t34.5 79.5t71.5 55.5t116 19h182v-88h-172q-79 0 -111 -45.5t-32 -126.5v-555q0 -90 -26 -140
t-99 -69q73 -19 99 -68.5t26 -139.5v-556q0 -81 32 -126.5t111 -45.5h172v-88h-182z" />
    <glyph glyph-name="bar" unicode="|" horiz-adv-x="370" 
d="M139 -451v2110h92v-2110h-92z" />
    <glyph glyph-name="braceright" unicode="}" horiz-adv-x="757" 
d="M51 -410v88h172q79 0 111.5 45.5t32.5 126.5v556q0 90 26 139.5t99 68.5q-73 19 -99 69t-26 140v555q0 81 -32.5 126.5t-111.5 45.5h-172v88h182q69 0 116 -19t71.5 -55.5t34.5 -79.5t10 -100v-553q0 -43 6.5 -71.5t25.5 -53t55.5 -36t92.5 -11.5v-90q-56 0 -92.5 -11.5
t-55.5 -36t-25.5 -53t-6.5 -71.5v-553q0 -57 -10 -100t-34.5 -79.5t-71.5 -55.5t-116 -19h-182z" />
    <glyph glyph-name="exclamdown" unicode="&#xa1;" horiz-adv-x="305" 
d="M117 680h71l19 -639v-451h-107v451zM94 1065h117v-215h-117v215z" />
    <glyph glyph-name="cent" unicode="&#xa2;" horiz-adv-x="1069" 
d="M514 -233v210q-200 20 -314 174.5t-114 380.5t114 380.5t314 174.5v211h92v-211q158 -10 261.5 -110t131.5 -258h-102q-25 115 -101.5 189.5t-189.5 86.5v-925q116 12 193.5 91.5t101.5 203.5h103q-25 -162 -132 -269t-266 -119v-210h-92zM190 532q0 -187 84 -313.5
t240 -146.5v921q-156 -20 -240 -147t-84 -314z" />
    <glyph glyph-name="sterling" unicode="&#xa3;" horiz-adv-x="1175" 
d="M109 94q171 132 221 256t2 279h-244v90h211q-14 34 -40.5 93.5t-40 92.5t-25 88t-11.5 113q0 166 118.5 279.5t317.5 113.5t326.5 -124.5t134.5 -332.5h-104q-3 167 -105 264t-254 97q-147 0 -239 -81.5t-92 -215.5q0 -53 12.5 -107t26.5 -88.5t42 -95.5t42 -96h518v-90
h-488q81 -300 -190 -533h864v-98l-1003 2v94z" />
    <glyph glyph-name="yen" unicode="&#xa5;" horiz-adv-x="1345" 
d="M211 623v90h348l-528 762h121l522 -754l520 754h119l-529 -762h351v-90h-410v-191h410v-90h-410v-342h-104v342h-410v90h410v191h-410z" />
    <glyph glyph-name="dieresis" unicode="&#xa8;" horiz-adv-x="481" 
d="M0 1276v199h100v-199h-100zM381 1276v199h100v-199h-100z" />
    <glyph glyph-name="copyright" unicode="&#xa9;" horiz-adv-x="1710" 
d="M872 287q-121 0 -210 60.5t-133 161.5t-44 228q0 196 103.5 323.5t283.5 127.5q143 0 236 -83.5t115 -219.5h-90q-21 99 -90 160t-171 61q-142 0 -219.5 -104t-77.5 -265t77.5 -264.5t219.5 -103.5q105 0 175 64.5t88 170.5h92q-21 -141 -116.5 -229t-238.5 -88zM856 -25
q-164 0 -306.5 57t-244 156.5t-159.5 241.5t-58 307t58 307t159.5 241.5t244 156.5t306.5 57q219 0 393.5 -97t273.5 -271t99 -394t-99 -394t-273.5 -271t-393.5 -97zM856 59q299 0 487.5 188.5t188.5 489.5t-188.5 489.5t-487.5 188.5q-197 0 -351 -85t-240.5 -239.5
t-86.5 -353.5t86.5 -353.5t240.5 -239.5t351 -85z" />
    <glyph glyph-name="registered" unicode="&#xae;" horiz-adv-x="1710" 
d="M555 309v856h348q141 0 214 -64t73 -175q0 -145 -148 -209q101 -34 117 -146l43 -262h-90l-35 221q-11 78 -50 115t-124 37h-260v-373h-88zM856 -25q-164 0 -306.5 57t-244 156.5t-159.5 241.5t-58 307t58 307t159.5 241.5t244 156.5t306.5 57q219 0 393.5 -97
t273.5 -271t99 -394t-99 -394t-273.5 -271t-393.5 -97zM856 59q299 0 487.5 188.5t188.5 489.5t-188.5 489.5t-487.5 188.5q-197 0 -351 -85t-240.5 -239.5t-86.5 -353.5t86.5 -353.5t240.5 -239.5t351 -85zM643 760h256q98 0 149.5 43t51.5 121q0 76 -51.5 119.5
t-149.5 43.5h-256v-327z" />
    <glyph glyph-name="degree" unicode="&#xb0;" horiz-adv-x="694" 
d="M348 997q-109 0 -185.5 72.5t-76.5 177.5t76.5 178.5t185.5 73.5t184.5 -73t75.5 -179q0 -105 -75.5 -177.5t-184.5 -72.5zM348 1075q75 0 125.5 48.5t50.5 123.5t-50.5 123.5t-125.5 48.5q-77 0 -126.5 -48.5t-49.5 -123.5t49.5 -123.5t126.5 -48.5z" />
    <glyph glyph-name="acute" unicode="&#xb4;" horiz-adv-x="354" 
d="M0 1200l223 299h131l-262 -299h-92z" />
    <glyph glyph-name="periodcentered" unicode="&#xb7;" horiz-adv-x="313" 
d="M98 629v215h117v-215h-117z" />
    <glyph glyph-name="cedilla" unicode="&#xb8;" horiz-adv-x="376" 
d="M141 -442q-86 0 -141 14v66q67 -13 115 -13q174 0 174 103q0 100 -168 100q-23 0 -55 -4v55l88 133l86 -6l-95 -121h13q107 0 167 -39.5t60 -117.5q0 -79 -64 -124.5t-180 -45.5z" />
    <glyph glyph-name="questiondown" unicode="&#xbf;" horiz-adv-x="1017" 
d="M596 680q0 -108 -23.5 -180.5t-69 -126.5t-138.5 -133q-88 -76 -114 -105q-81 -91 -81 -209q0 -119 91.5 -191.5t244.5 -72.5q161 0 253.5 87t92.5 263h102q0 -223 -118 -334.5t-330 -111.5q-203 0 -323 100.5t-120 257.5q0 51 10 94.5t26 76.5t47.5 69t61 63.5
t79.5 69.5q66 56 101.5 92t64 80.5t38 93t9.5 117.5h96zM606 1065v-215h-117v215h117z" />
    <glyph glyph-name="Agrave" unicode="&#xc0;" horiz-adv-x="1392" 
d="M1247 0l-180 444h-741l-181 -444h-114l610 1475h111l610 -1475h-115zM741 1573h-92l-262 299h131zM362 539h668l-334 825z" />
    <glyph glyph-name="Aacute" unicode="&#xc1;" horiz-adv-x="1392" 
d="M1247 0l-180 444h-741l-181 -444h-114l610 1475h111l610 -1475h-115zM651 1573l223 299h132l-263 -299h-92zM362 539h668l-334 825z" />
    <glyph glyph-name="Acircumflex" unicode="&#xc2;" horiz-adv-x="1392" 
d="M1247 0l-180 444h-741l-181 -444h-114l610 1475h111l610 -1475h-115zM770 1872l258 -299h-98l-234 235l-233 -235h-98l258 299h147zM362 539h668l-334 825z" />
    <glyph glyph-name="Atilde" unicode="&#xc3;" horiz-adv-x="1392" 
d="M1247 0l-180 444h-741l-181 -444h-114l610 1475h111l610 -1475h-115zM373 1573q0 119 41 178t133 59q27 0 56.5 -11.5t45.5 -22t47 -33.5q10 -7 35.5 -25.5t39 -27t34 -17t37.5 -8.5q52 0 72 34t20 111h88q0 -118 -42 -177.5t-132 -59.5q-28 0 -57 11t-47.5 23t-47.5 33
q-6 4 -34 24.5t-39.5 28t-33 16.5t-38.5 9q-51 0 -70.5 -34t-19.5 -111h-88zM362 539h668l-334 825z" />
    <glyph glyph-name="Adieresis" unicode="&#xc4;" horiz-adv-x="1392" 
d="M1247 0l-180 444h-741l-181 -444h-114l610 1475h111l610 -1475h-115zM455 1573v199h100v-199h-100zM836 1573v199h100v-199h-100zM362 539h668l-334 825z" />
    <glyph glyph-name="Aring" unicode="&#xc5;" horiz-adv-x="1392" 
d="M1247 0l-180 444h-741l-181 -444h-114l583 1411q-68 24 -110.5 82.5t-42.5 132.5q0 97 68.5 163t166.5 66q99 0 167.5 -66.5t68.5 -162.5q0 -74 -43 -132.5t-111 -82.5l584 -1411h-115zM696 1475q68 0 112 42t44 109t-44 109.5t-112 42.5t-111.5 -42.5t-43.5 -109.5
t43.5 -109t111.5 -42zM362 539h668l-334 825z" />
    <glyph glyph-name="AE" unicode="&#xc6;" horiz-adv-x="2095" 
d="M1104 0v444h-723l-236 -444h-114l794 1475h1196v-97h-815v-561h754v-96h-754v-625h824v-96h-926zM430 539h674v839h-230z" />
    <glyph glyph-name="Ccedilla" unicode="&#xc7;" horiz-adv-x="1441" 
d="M711 -467q-87 0 -142 14v66q61 -12 115 -12q174 0 174 102q0 100 -168 100q-23 0 -55 -4v56l80 122q-124 7 -228 50.5t-177.5 115t-125 166t-76 202.5t-24.5 226q0 122 26 234t81.5 208.5t134 167.5t190.5 111.5t246 40.5q122 0 226 -40.5t178 -112.5t122 -168t64 -209
h-105q-29 192 -158.5 313t-326.5 121q-142 0 -253.5 -54t-180 -147t-103.5 -211t-35 -254q0 -108 21.5 -205.5t67.5 -181.5t112.5 -146t161.5 -97t209 -35q205 0 337 132t154 335h105q-17 -153 -85.5 -275.5t-189.5 -200t-278 -86.5l-90 -116h12q107 0 167 -40t60 -118
q0 -79 -63.5 -124.5t-179.5 -45.5z" />
    <glyph glyph-name="Egrave" unicode="&#xc8;" horiz-adv-x="1191" 
d="M139 0v1475h979v-97h-874v-561h813v-96h-813v-625h882v-96h-987zM674 1573h-92l-263 299h132z" />
    <glyph glyph-name="Eacute" unicode="&#xc9;" horiz-adv-x="1191" 
d="M139 0v1475h979v-97h-874v-561h813v-96h-813v-625h882v-96h-987zM584 1573l223 299h131l-262 -299h-92z" />
    <glyph glyph-name="Ecircumflex" unicode="&#xca;" horiz-adv-x="1191" 
d="M139 0v1475h979v-97h-874v-561h813v-96h-813v-625h882v-96h-987zM702 1872l259 -299h-99l-233 235l-234 -235h-98l258 299h147z" />
    <glyph glyph-name="Edieresis" unicode="&#xcb;" horiz-adv-x="1191" 
d="M139 0v1475h979v-97h-874v-561h813v-96h-813v-625h882v-96h-987zM387 1573v199h100v-199h-100zM768 1573v199h100v-199h-100z" />
    <glyph glyph-name="Igrave" unicode="&#xcc;" horiz-adv-x="382" 
d="M139 0v1475h105v-1475h-105zM238 1573h-93l-262 299h131z" />
    <glyph glyph-name="Iacute" unicode="&#xcd;" horiz-adv-x="382" 
d="M139 0v1475h105v-1475h-105zM145 1573l224 299h131l-262 -299h-93z" />
    <glyph glyph-name="Icircumflex" unicode="&#xce;" horiz-adv-x="382" 
d="M139 0v1475h105v-1475h-105zM264 1872l258 -299h-98l-234 235l-233 -235h-98l258 299h147z" />
    <glyph glyph-name="Idieresis" unicode="&#xcf;" horiz-adv-x="382" 
d="M139 0v1475h105v-1475h-105zM-49 1573v199h100v-199h-100zM332 1573v199h100v-199h-100z" />
    <glyph glyph-name="Ntilde" unicode="&#xd1;" horiz-adv-x="1415" 
d="M1149 0l-905 1333v-1333h-105v1475h129l906 -1336v1336h102v-1475h-127zM381 1573q0 119 41 178t133 59q27 0 56.5 -11.5t46.5 -22.5t47 -33q11 -7 35.5 -25t38 -27t34 -17.5t37.5 -8.5q52 0 72 34t20 111h88q0 -118 -42 -177.5t-132 -59.5q-28 0 -57 11t-46.5 22.5
t-47.5 33.5q-8 6 -27.5 20.5t-31 22t-28 17t-31 14t-28.5 4.5q-51 0 -70.5 -34t-19.5 -111h-88z" />
    <glyph glyph-name="Ograve" unicode="&#xd2;" horiz-adv-x="1521" 
d="M762 -25q-134 0 -246 40.5t-190.5 111.5t-134 167.5t-81.5 208.5t-26 234t26 234t81.5 208.5t134 167.5t190.5 111.5t246 40.5q133 0 245 -40.5t191 -111.5t134 -167.5t81.5 -208.5t26.5 -234t-26.5 -234t-81.5 -208.5t-134 -167.5t-191 -111.5t-245 -40.5zM762 72
q114 0 208.5 35t160.5 97t111.5 146t67 181.5t21.5 205.5q0 136 -35 254t-103 211t-179 147t-252 54q-142 0 -253.5 -54t-180 -147t-103.5 -211t-35 -254q0 -108 21.5 -205.5t67.5 -181.5t112.5 -146t161.5 -97t209 -35zM807 1597h-92l-262 299h131z" />
    <glyph glyph-name="Oacute" unicode="&#xd3;" horiz-adv-x="1521" 
d="M762 -25q-134 0 -246 40.5t-190.5 111.5t-134 167.5t-81.5 208.5t-26 234t26 234t81.5 208.5t134 167.5t190.5 111.5t246 40.5q133 0 245 -40.5t191 -111.5t134 -167.5t81.5 -208.5t26.5 -234t-26.5 -234t-81.5 -208.5t-134 -167.5t-191 -111.5t-245 -40.5zM762 72
q114 0 208.5 35t160.5 97t111.5 146t67 181.5t21.5 205.5q0 136 -35 254t-103 211t-179 147t-252 54q-142 0 -253.5 -54t-180 -147t-103.5 -211t-35 -254q0 -108 21.5 -205.5t67.5 -181.5t112.5 -146t161.5 -97t209 -35zM715 1597l223 299h131l-262 -299h-92z" />
    <glyph glyph-name="Ocircumflex" unicode="&#xd4;" horiz-adv-x="1521" 
d="M762 -25q-134 0 -246 40.5t-190.5 111.5t-134 167.5t-81.5 208.5t-26 234t26 234t81.5 208.5t134 167.5t190.5 111.5t246 40.5q133 0 245 -40.5t191 -111.5t134 -167.5t81.5 -208.5t26.5 -234t-26.5 -234t-81.5 -208.5t-134 -167.5t-191 -111.5t-245 -40.5zM762 72
q114 0 208.5 35t160.5 97t111.5 146t67 181.5t21.5 205.5q0 136 -35 254t-103 211t-179 147t-252 54q-142 0 -253.5 -54t-180 -147t-103.5 -211t-35 -254q0 -108 21.5 -205.5t67.5 -181.5t112.5 -146t161.5 -97t209 -35zM836 1896l258 -299h-99l-233 236l-234 -236h-98
l258 299h148z" />
    <glyph glyph-name="Otilde" unicode="&#xd5;" horiz-adv-x="1521" 
d="M762 -25q-134 0 -246 40.5t-190.5 111.5t-134 167.5t-81.5 208.5t-26 234t26 234t81.5 208.5t134 167.5t190.5 111.5t246 40.5q133 0 245 -40.5t191 -111.5t134 -167.5t81.5 -208.5t26.5 -234t-26.5 -234t-81.5 -208.5t-134 -167.5t-191 -111.5t-245 -40.5zM762 72
q114 0 208.5 35t160.5 97t111.5 146t67 181.5t21.5 205.5q0 136 -35 254t-103 211t-179 147t-252 54q-142 0 -253.5 -54t-180 -147t-103.5 -211t-35 -254q0 -108 21.5 -205.5t67.5 -181.5t112.5 -146t161.5 -97t209 -35zM436 1597q0 119 41.5 178.5t132.5 59.5
q27 0 56.5 -12t45.5 -22.5t48 -33.5q10 -7 35.5 -25t38.5 -26.5t33.5 -17t37.5 -8.5q52 0 72 34t20 111h88q0 -118 -42 -178t-132 -60q-27 0 -57 11.5t-46.5 22.5t-47.5 34q-8 6 -27.5 20.5t-31 22t-28 17t-31 14t-28.5 4.5q-51 0 -70.5 -34.5t-19.5 -111.5h-88z" />
    <glyph glyph-name="Odieresis" unicode="&#xd6;" horiz-adv-x="1521" 
d="M762 -25q-134 0 -246 40.5t-190.5 111.5t-134 167.5t-81.5 208.5t-26 234t26 234t81.5 208.5t134 167.5t190.5 111.5t246 40.5q133 0 245 -40.5t191 -111.5t134 -167.5t81.5 -208.5t26.5 -234t-26.5 -234t-81.5 -208.5t-134 -167.5t-191 -111.5t-245 -40.5zM762 72
q114 0 208.5 35t160.5 97t111.5 146t67 181.5t21.5 205.5q0 136 -35 254t-103 211t-179 147t-252 54q-142 0 -253.5 -54t-180 -147t-103.5 -211t-35 -254q0 -108 21.5 -205.5t67.5 -181.5t112.5 -146t161.5 -97t209 -35zM520 1597v199h101v-199h-101zM901 1597v199h100v-199
h-100z" />
    <glyph glyph-name="multiply" unicode="&#xd7;" horiz-adv-x="987" 
d="M156 1012l65 63l273 -272l272 272l65 -65l-272 -273l272 -272l-65 -66l-272 273l-273 -273l-65 66l272 272z" />
    <glyph glyph-name="Oslash" unicode="&#xd8;" horiz-adv-x="1521" 
d="M762 -25q-284 0 -463 179l-209 -232l-70 62l218 239q-154 210 -154 514q0 122 26 234t81.5 208.5t134 167.5t190.5 111.5t246 40.5q284 0 465 -178l207 229l67 -61l-215 -240q154 -207 154 -512q0 -122 -26.5 -234t-81.5 -208.5t-134 -167.5t-191 -111.5t-245 -40.5z
M762 72q114 0 208.5 35t160.5 97t111.5 146t67 181.5t21.5 205.5q0 260 -117 434l-847 -942q147 -157 395 -157zM190 737q0 -258 117 -436l850 942q-150 160 -395 160q-142 0 -253.5 -54t-180 -147t-103.5 -211t-35 -254z" />
    <glyph glyph-name="Ugrave" unicode="&#xd9;" horiz-adv-x="1337" 
d="M670 -25q-257 0 -404 143t-147 419v938h104v-938q0 -237 118.5 -351t328.5 -114q209 0 327.5 114t118.5 351v938h103v-938q0 -276 -146.5 -419t-402.5 -143zM715 1573h-92l-263 299h132z" />
    <glyph glyph-name="Uacute" unicode="&#xda;" horiz-adv-x="1337" 
d="M670 -25q-257 0 -404 143t-147 419v938h104v-938q0 -237 118.5 -351t328.5 -114q209 0 327.5 114t118.5 351v938h103v-938q0 -276 -146.5 -419t-402.5 -143zM623 1573l223 299h131l-262 -299h-92z" />
    <glyph glyph-name="Ucircumflex" unicode="&#xdb;" horiz-adv-x="1337" 
d="M670 -25q-257 0 -404 143t-147 419v938h104v-938q0 -237 118.5 -351t328.5 -114q209 0 327.5 114t118.5 351v938h103v-938q0 -276 -146.5 -419t-402.5 -143zM743 1872l258 -299h-98l-233 235l-234 -235h-98l258 299h147z" />
    <glyph glyph-name="Udieresis" unicode="&#xdc;" horiz-adv-x="1337" 
d="M670 -25q-257 0 -404 143t-147 419v938h104v-938q0 -237 118.5 -351t328.5 -114q209 0 327.5 114t118.5 351v938h103v-938q0 -276 -146.5 -419t-402.5 -143zM428 1573v199h100v-199h-100zM809 1573v199h100v-199h-100z" />
    <glyph glyph-name="Yacute" unicode="&#xdd;" horiz-adv-x="1345" 
d="M621 0v623l-590 852h121l522 -754l520 754h119l-588 -848v-627h-104zM627 1573l223 299h131l-262 -299h-92z" />
    <glyph glyph-name="germandbls" unicode="&#xdf;" horiz-adv-x="1099" 
d="M127 1065q0 200 106.5 317t294.5 117q184 0 294 -109.5t110 -273.5q0 -114 -56.5 -198t-162.5 -127q148 -39 225.5 -142t77.5 -252q0 -188 -125.5 -305t-353.5 -117q-69 0 -152 17v88q61 -12 152 -12q180 0 277 90t97 239q0 152 -97 242t-277 90h-111v94h63q164 0 252 80
t88 213q0 126 -82.5 208.5t-218.5 82.5q-139 0 -220 -91t-81 -251v-1065h-100v1065z" />
    <glyph glyph-name="agrave" unicode="&#xe0;" horiz-adv-x="1001" 
d="M813 0v197q-64 -113 -166.5 -167.5t-230.5 -54.5q-170 0 -263.5 83t-93.5 221q0 131 92.5 207t292.5 118l367 78v92q0 116 -71 169.5t-214 53.5q-65 0 -119.5 -13.5t-101 -42.5t-74 -81t-28.5 -123h-101q1 71 23.5 130t61.5 100t93 69t115.5 41t130.5 13q188 0 285.5 -81
t97.5 -225v-784h-96zM420 68q169 0 280 98.5t111 286.5v145l-352 -80q-159 -36 -227 -85.5t-68 -149.5q0 -98 64.5 -156.5t191.5 -58.5zM551 1200h-92l-262 299h131z" />
    <glyph glyph-name="aacute" unicode="&#xe1;" horiz-adv-x="1001" 
d="M813 0v197q-64 -113 -166.5 -167.5t-230.5 -54.5q-170 0 -263.5 83t-93.5 221q0 131 92.5 207t292.5 118l367 78v92q0 116 -71 169.5t-214 53.5q-65 0 -119.5 -13.5t-101 -42.5t-74 -81t-28.5 -123h-101q1 71 23.5 130t61.5 100t93 69t115.5 41t130.5 13q188 0 285.5 -81
t97.5 -225v-784h-96zM420 68q169 0 280 98.5t111 286.5v145l-352 -80q-159 -36 -227 -85.5t-68 -149.5q0 -98 64.5 -156.5t191.5 -58.5zM461 1200l223 299h131l-262 -299h-92z" />
    <glyph glyph-name="acircumflex" unicode="&#xe2;" horiz-adv-x="1001" 
d="M813 0v197q-64 -113 -166.5 -167.5t-230.5 -54.5q-170 0 -263.5 83t-93.5 221q0 131 92.5 207t292.5 118l367 78v92q0 116 -71 169.5t-214 53.5q-65 0 -119.5 -13.5t-101 -42.5t-74 -81t-28.5 -123h-101q1 71 23.5 130t61.5 100t93 69t115.5 41t130.5 13q188 0 285.5 -81
t97.5 -225v-784h-96zM420 68q169 0 280 98.5t111 286.5v145l-352 -80q-159 -36 -227 -85.5t-68 -149.5q0 -98 64.5 -156.5t191.5 -58.5zM580 1499l258 -299h-99l-233 236l-234 -236h-98l258 299h148z" />
    <glyph glyph-name="atilde" unicode="&#xe3;" horiz-adv-x="1001" 
d="M813 0v197q-64 -113 -166.5 -167.5t-230.5 -54.5q-170 0 -263.5 83t-93.5 221q0 131 92.5 207t292.5 118l367 78v92q0 116 -71 169.5t-214 53.5q-65 0 -119.5 -13.5t-101 -42.5t-74 -81t-28.5 -123h-101q1 71 23.5 130t61.5 100t93 69t115.5 41t130.5 13q188 0 285.5 -81
t97.5 -225v-784h-96zM420 68q169 0 280 98.5t111 286.5v145l-352 -80q-159 -36 -227 -85.5t-68 -149.5q0 -98 64.5 -156.5t191.5 -58.5zM182 1245q0 119 41.5 178.5t132.5 59.5q27 0 56.5 -12t45.5 -22.5t48 -33.5q11 -7 35.5 -25t38 -27t34 -17.5t37.5 -8.5q52 0 72 34.5
t20 111.5h88q0 -118 -42 -178t-132 -60q-27 0 -57 11.5t-46.5 22.5t-47.5 34q-8 6 -27.5 20.5t-31 22t-28 17t-31 14t-28.5 4.5q-51 0 -70.5 -34.5t-19.5 -111.5h-88z" />
    <glyph glyph-name="adieresis" unicode="&#xe4;" horiz-adv-x="1001" 
d="M813 0v197q-64 -113 -166.5 -167.5t-230.5 -54.5q-170 0 -263.5 83t-93.5 221q0 131 92.5 207t292.5 118l367 78v92q0 116 -71 169.5t-214 53.5q-65 0 -119.5 -13.5t-101 -42.5t-74 -81t-28.5 -123h-101q1 71 23.5 130t61.5 100t93 69t115.5 41t130.5 13q188 0 285.5 -81
t97.5 -225v-784h-96zM420 68q169 0 280 98.5t111 286.5v145l-352 -80q-159 -36 -227 -85.5t-68 -149.5q0 -98 64.5 -156.5t191.5 -58.5zM264 1276v199h101v-199h-101zM645 1276v199h100v-199h-100z" />
    <glyph glyph-name="aring" unicode="&#xe5;" horiz-adv-x="1001" 
d="M813 0v197q-64 -113 -166.5 -167.5t-230.5 -54.5q-170 0 -263.5 83t-93.5 221q0 131 92.5 207t292.5 118l367 78v92q0 116 -71 169.5t-214 53.5q-65 0 -119.5 -13.5t-101 -42.5t-74 -81t-28.5 -123h-101q1 71 23.5 130t61.5 100t93 69t115.5 41t130.5 13q188 0 285.5 -81
t97.5 -225v-784h-96zM420 68q169 0 280 98.5t111 286.5v145l-352 -80q-159 -36 -227 -85.5t-68 -149.5q0 -98 64.5 -156.5t191.5 -58.5zM506 1188q-99 0 -167.5 66.5t-68.5 162.5q0 97 69 163.5t167 66.5t166.5 -66.5t68.5 -163.5t-68.5 -163t-166.5 -66zM506 1266
q68 0 112 42t44 109t-44 109.5t-112 42.5t-112 -42.5t-44 -109.5t44 -109t112 -42z" />
    <glyph glyph-name="ae" unicode="&#xe6;" horiz-adv-x="1810" 
d="M416 -25q-170 0 -263.5 83t-93.5 221q0 131 92.5 207t292.5 118l367 78v92q0 116 -71 169.5t-214 53.5q-65 0 -119.5 -13.5t-101 -42.5t-74 -81t-28.5 -123h-101q1 71 23.5 130t61.5 100t93 69t115.5 41t130.5 13q160 0 250.5 -58t114.5 -164q59 104 155.5 163t223.5 59
q142 0 247.5 -75t158.5 -200.5t53 -282.5v-32h-818q5 -123 46.5 -219.5t122.5 -154.5t190 -58q127 0 216.5 75t125.5 201h98q-44 -169 -158.5 -269t-281.5 -100q-145 0 -249.5 75t-158.5 206q-38 -100 -110 -165t-155 -90.5t-181 -25.5zM420 68q169 0 280 98.5t111 286.5
v145l-352 -80q-159 -36 -227 -85.5t-68 -149.5q0 -98 64.5 -156.5t191.5 -58.5zM913 592h713q-14 180 -106.5 292.5t-249.5 112.5t-250 -113t-107 -292z" />
    <glyph glyph-name="ccedilla" unicode="&#xe7;" horiz-adv-x="1069" 
d="M516 -467q-86 0 -141 14v66q61 -12 114 -12q175 0 175 102q0 100 -168 100q-24 0 -56 -4v56l82 122q-204 17 -320 172t-116 383q0 117 32.5 218.5t92.5 177t152 119t204 43.5q174 0 288 -102t144 -269h-102q-27 125 -114.5 201.5t-215.5 76.5q-180 0 -278.5 -131
t-98.5 -334q0 -132 41 -235t128 -166t208 -63q131 0 220 81.5t114 215.5h103q-25 -161 -131 -268t-263 -120l-90 -116h12q107 0 167.5 -40t60.5 -118q0 -79 -64 -124.5t-180 -45.5z" />
    <glyph glyph-name="egrave" unicode="&#xe8;" horiz-adv-x="1120" 
d="M561 -25q-148 0 -258 75t-164.5 200t-54.5 282t54.5 282.5t164.5 200.5t258 75q147 0 257 -75t165 -200.5t55 -282.5v-32h-852q5 -123 48.5 -219.5t128 -154.5t198.5 -58q132 0 225.5 75t131.5 201h102q-46 -169 -165 -269t-294 -100zM606 1200h-92l-262 299h131z
M188 592h744q-14 179 -111 292t-260 113q-164 0 -261.5 -113t-111.5 -292z" />
    <glyph glyph-name="eacute" unicode="&#xe9;" horiz-adv-x="1120" 
d="M561 -25q-148 0 -258 75t-164.5 200t-54.5 282t54.5 282.5t164.5 200.5t258 75q147 0 257 -75t165 -200.5t55 -282.5v-32h-852q5 -123 48.5 -219.5t128 -154.5t198.5 -58q132 0 225.5 75t131.5 201h102q-46 -169 -165 -269t-294 -100zM514 1200l223 299h131l-262 -299
h-92zM188 592h744q-14 179 -111 292t-260 113q-164 0 -261.5 -113t-111.5 -292z" />
    <glyph glyph-name="ecircumflex" unicode="&#xea;" horiz-adv-x="1120" 
d="M561 -25q-148 0 -258 75t-164.5 200t-54.5 282t54.5 282.5t164.5 200.5t258 75q147 0 257 -75t165 -200.5t55 -282.5v-32h-852q5 -123 48.5 -219.5t128 -154.5t198.5 -58q132 0 225.5 75t131.5 201h102q-46 -169 -165 -269t-294 -100zM635 1499l258 -299h-98l-234 236
l-233 -236h-99l258 299h148zM188 592h744q-14 179 -111 292t-260 113q-164 0 -261.5 -113t-111.5 -292z" />
    <glyph glyph-name="edieresis" unicode="&#xeb;" horiz-adv-x="1120" 
d="M561 -25q-148 0 -258 75t-164.5 200t-54.5 282t54.5 282.5t164.5 200.5t258 75q147 0 257 -75t165 -200.5t55 -282.5v-32h-852q5 -123 48.5 -219.5t128 -154.5t198.5 -58q132 0 225.5 75t131.5 201h102q-46 -169 -165 -269t-294 -100zM319 1276v199h101v-199h-101z
M700 1276v199h101v-199h-101zM188 592h744q-14 179 -111 292t-260 113q-164 0 -261.5 -113t-111.5 -292z" />
    <glyph glyph-name="igrave" unicode="&#xec;" horiz-adv-x="352" 
d="M125 0v1065h102v-1065h-102zM221 1200h-92l-262 299h131z" />
    <glyph glyph-name="iacute" unicode="&#xed;" horiz-adv-x="352" 
d="M125 0v1065h102v-1065h-102zM131 1200l223 299h131l-262 -299h-92z" />
    <glyph glyph-name="icircumflex" unicode="&#xee;" horiz-adv-x="352" 
d="M125 0v1065h102v-1065h-102zM250 1499l258 -299h-98l-234 236l-233 -236h-99l258 299h148z" />
    <glyph glyph-name="idieresis" unicode="&#xef;" horiz-adv-x="352" 
d="M125 0v1065h102v-1065h-102zM-66 1276v199h101v-199h-101zM315 1276v199h101v-199h-101z" />
    <glyph glyph-name="ntilde" unicode="&#xf1;" 
d="M868 678q0 156 -76 237.5t-221 81.5q-67 0 -128.5 -27t-109.5 -76.5t-77 -126.5t-29 -171v-596h-100v1065h96v-201q50 103 143 164.5t222 61.5q185 0 283 -108.5t98 -293.5v-688h-101v678zM223 1245q0 119 41.5 178.5t132.5 59.5q27 0 56.5 -12t45.5 -22.5t48 -33.5
q11 -7 35.5 -25t38 -27t34 -17.5t37.5 -8.5q52 0 72 34.5t20 111.5h88q0 -118 -42 -178t-132 -60q-27 0 -57 11.5t-46.5 22.5t-47.5 34q-8 6 -27.5 20.5t-31 22t-28 17t-31 14t-28.5 4.5q-51 0 -70.5 -34.5t-19.5 -111.5h-88z" />
    <glyph glyph-name="ograve" unicode="&#xf2;" horiz-adv-x="1140" 
d="M571 -25q-153 0 -265 75t-167 199.5t-55 282.5t55 282.5t167 200t265 75.5q115 0 208 -43.5t154 -119t93.5 -177t32.5 -218.5q0 -157 -55.5 -282t-168 -200t-264.5 -75zM571 68q183 0 283 130.5t100 333.5t-100 334t-283 131q-124 0 -212.5 -63t-130.5 -166.5t-42 -235.5
t42 -235t130.5 -166t212.5 -63zM616 1200h-92l-262 299h131z" />
    <glyph glyph-name="oacute" unicode="&#xf3;" horiz-adv-x="1140" 
d="M571 -25q-153 0 -265 75t-167 199.5t-55 282.5t55 282.5t167 200t265 75.5q115 0 208 -43.5t154 -119t93.5 -177t32.5 -218.5q0 -157 -55.5 -282t-168 -200t-264.5 -75zM571 68q183 0 283 130.5t100 333.5t-100 334t-283 131q-124 0 -212.5 -63t-130.5 -166.5t-42 -235.5
t42 -235t130.5 -166t212.5 -63zM524 1200l224 299h131l-263 -299h-92z" />
    <glyph glyph-name="ocircumflex" unicode="&#xf4;" horiz-adv-x="1140" 
d="M571 -25q-153 0 -265 75t-167 199.5t-55 282.5t55 282.5t167 200t265 75.5q115 0 208 -43.5t154 -119t93.5 -177t32.5 -218.5q0 -157 -55.5 -282t-168 -200t-264.5 -75zM571 68q183 0 283 130.5t100 333.5t-100 334t-283 131q-124 0 -212.5 -63t-130.5 -166.5t-42 -235.5
t42 -235t130.5 -166t212.5 -63zM645 1499l258 -299h-98l-234 236l-233 -236h-98l258 299h147z" />
    <glyph glyph-name="otilde" unicode="&#xf5;" horiz-adv-x="1140" 
d="M571 -25q-153 0 -265 75t-167 199.5t-55 282.5t55 282.5t167 200t265 75.5q115 0 208 -43.5t154 -119t93.5 -177t32.5 -218.5q0 -157 -55.5 -282t-168 -200t-264.5 -75zM571 68q183 0 283 130.5t100 333.5t-100 334t-283 131q-124 0 -212.5 -63t-130.5 -166.5t-42 -235.5
t42 -235t130.5 -166t212.5 -63zM246 1245q0 119 41.5 178.5t132.5 59.5q27 0 56.5 -12t44.5 -22t48 -34q10 -7 35.5 -25.5t39 -27t34 -17t37.5 -8.5q52 0 72 34.5t20 111.5h88q0 -118 -42 -178t-132 -60q-27 0 -57 11.5t-47.5 23t-47.5 33.5q-6 4 -34 24.5t-39.5 28
t-33 16.5t-38.5 9q-51 0 -70.5 -34.5t-19.5 -111.5h-88z" />
    <glyph glyph-name="odieresis" unicode="&#xf6;" horiz-adv-x="1140" 
d="M571 -25q-153 0 -265 75t-167 199.5t-55 282.5t55 282.5t167 200t265 75.5q115 0 208 -43.5t154 -119t93.5 -177t32.5 -218.5q0 -157 -55.5 -282t-168 -200t-264.5 -75zM571 68q183 0 283 130.5t100 333.5t-100 334t-283 131q-124 0 -212.5 -63t-130.5 -166.5t-42 -235.5
t42 -235t130.5 -166t212.5 -63zM330 1276v199h100v-199h-100zM711 1276v199h100v-199h-100z" />
    <glyph glyph-name="divide" unicode="&#xf7;" horiz-adv-x="1081" 
d="M109 692v92h864v-92h-864zM489 287v198h101v-198h-101zM489 989v199h101v-199h-101z" />
    <glyph glyph-name="oslash" unicode="&#xf8;" horiz-adv-x="1140" 
d="M571 -25q-192 0 -321 119l-137 -157l-70 61l145 168q-104 143 -104 366q0 158 55 282.5t167 200t265 75.5q194 0 320 -117l135 155l70 -59l-144 -166q107 -150 107 -371q0 -157 -55.5 -282t-168 -200t-264.5 -75zM571 68q183 0 283 130.5t100 333.5q0 172 -71 293
l-570 -657q100 -100 258 -100zM186 532q0 -172 70 -288l569 655q-98 98 -254 98q-124 0 -212.5 -63t-130.5 -166.5t-42 -235.5z" />
    <glyph glyph-name="ugrave" unicode="&#xf9;" 
d="M227 387q0 -156 76 -237.5t221 -81.5q67 0 128.5 27t109.5 76.5t77 126.5t29 171v596h101v-1065h-97v201q-50 -103 -142.5 -164.5t-221.5 -61.5q-185 0 -283 108.5t-98 293.5v688h100v-678zM594 1200h-92l-262 299h131z" />
    <glyph glyph-name="uacute" unicode="&#xfa;" 
d="M227 387q0 -156 76 -237.5t221 -81.5q67 0 128.5 27t109.5 76.5t77 126.5t29 171v596h101v-1065h-97v201q-50 -103 -142.5 -164.5t-221.5 -61.5q-185 0 -283 108.5t-98 293.5v688h100v-678zM502 1200l223 299h131l-262 -299h-92z" />
    <glyph glyph-name="ucircumflex" unicode="&#xfb;" 
d="M227 387q0 -156 76 -237.5t221 -81.5q67 0 128.5 27t109.5 76.5t77 126.5t29 171v596h101v-1065h-97v201q-50 -103 -142.5 -164.5t-221.5 -61.5q-185 0 -283 108.5t-98 293.5v688h100v-678zM621 1499l258 -299h-99l-233 236l-234 -236h-98l258 299h148z" />
    <glyph glyph-name="udieresis" unicode="&#xfc;" 
d="M227 387q0 -156 76 -237.5t221 -81.5q67 0 128.5 27t109.5 76.5t77 126.5t29 171v596h101v-1065h-97v201q-50 -103 -142.5 -164.5t-221.5 -61.5q-185 0 -283 108.5t-98 293.5v688h100v-678zM307 1276v199h101v-199h-101zM688 1276v199h100v-199h-100z" />
    <glyph glyph-name="yacute" unicode="&#xfd;" horiz-adv-x="1009" 
d="M59 -410v88h148q42 0 70.5 9t48.5 32.5t31 46t28 66.5l68 170l-420 1063h108l363 -946l364 946h109l-498 -1260q-14 -37 -23.5 -59t-25 -50.5t-32 -44.5t-39.5 -32t-53 -22.5t-68 -6.5h-179zM459 1200l223 299h131l-262 -299h-92z" />
    <glyph glyph-name="ydieresis" unicode="&#xff;" horiz-adv-x="1009" 
d="M59 -410v88h148q42 0 70.5 9t48.5 32.5t31 46t28 66.5l68 170l-420 1063h108l363 -946l364 946h109l-498 -1260q-14 -37 -23.5 -59t-25 -50.5t-32 -44.5t-39.5 -32t-53 -22.5t-68 -6.5h-179zM264 1276v199h101v-199h-101zM645 1276v199h100v-199h-100z" />
    <glyph glyph-name="Abreve" unicode="&#x102;" horiz-adv-x="1392" 
d="M1247 0l-180 444h-741l-181 -444h-114l610 1475h111l610 -1475h-115zM696 1561q-134 0 -214.5 79t-86.5 215h88q6 -102 62 -156t151 -54q94 0 150.5 54.5t62.5 155.5h86q-6 -136 -86 -215t-213 -79zM362 539h668l-334 825z" />
    <glyph glyph-name="abreve" unicode="&#x103;" horiz-adv-x="1001" 
d="M813 0v197q-64 -113 -166.5 -167.5t-230.5 -54.5q-170 0 -263.5 83t-93.5 221q0 131 92.5 207t292.5 118l367 78v92q0 116 -71 169.5t-214 53.5q-65 0 -119.5 -13.5t-101 -42.5t-74 -81t-28.5 -123h-101q1 71 23.5 130t61.5 100t93 69t115.5 41t130.5 13q188 0 285.5 -81
t97.5 -225v-784h-96zM420 68q169 0 280 98.5t111 286.5v145l-352 -80q-159 -36 -227 -85.5t-68 -149.5q0 -98 64.5 -156.5t191.5 -58.5zM506 1188q-134 0 -214.5 79.5t-86.5 215.5h88q6 -102 62 -156.5t151 -54.5q94 0 150.5 55t62.5 156h86q-6 -136 -86 -215.5t-213 -79.5z
" />
    <glyph glyph-name="Aogonek" unicode="&#x104;" horiz-adv-x="1392" 
d="M1247 0l-180 444h-741l-181 -444h-114l610 1475h111l610 -1475h-2q-115 -64 -178.5 -127.5t-63.5 -118.5q0 -52 35 -77t94 -25t113 22v-84q-57 -24 -135 -24q-92 0 -147.5 43.5t-55.5 120.5q0 81 65 147t177 123h-17zM362 539h668l-334 825z" />
    <glyph glyph-name="aogonek" unicode="&#x105;" horiz-adv-x="1001" 
d="M813 0v197q-64 -113 -166.5 -167.5t-230.5 -54.5q-170 0 -263.5 83t-93.5 221q0 131 92.5 207t292.5 118l367 78v92q0 116 -71 169.5t-214 53.5q-65 0 -119.5 -13.5t-101 -42.5t-74 -81t-28.5 -123h-101q1 71 23.5 130t61.5 100t93 69t115.5 41t130.5 13q188 0 285.5 -81
t97.5 -225v-784q-115 -64 -178 -127.5t-63 -118.5q0 -52 35 -77t94 -25q58 0 112 22v-84q-57 -24 -135 -24q-92 0 -147.5 43.5t-55.5 120.5q0 81 65 147t177 123zM420 68q169 0 280 98.5t111 286.5v145l-352 -80q-159 -36 -227 -85.5t-68 -149.5q0 -98 64.5 -156.5
t191.5 -58.5z" />
    <glyph glyph-name="Cacute" unicode="&#x106;" horiz-adv-x="1441" 
d="M762 -25q-134 0 -246 40.5t-190.5 111.5t-134 167.5t-81.5 208.5t-26 234t26 234t81.5 208.5t134 167.5t190.5 111.5t246 40.5q122 0 226 -40.5t178 -112.5t122 -168t64 -209h-105q-29 192 -158.5 313t-326.5 121q-142 0 -253.5 -54t-180 -147t-103.5 -211t-35 -254
q0 -108 21.5 -205.5t67.5 -181.5t112.5 -146t161.5 -97t209 -35q205 0 337 132t154 335h105q-13 -118 -59.5 -220t-121 -179t-181.5 -121t-234 -44zM715 1597l223 299h131l-262 -299h-92z" />
    <glyph glyph-name="cacute" unicode="&#x107;" horiz-adv-x="1069" 
d="M567 -25q-149 0 -260 75t-166 200t-55 282q0 117 32.5 218.5t92.5 177t152 119t204 43.5q174 0 288 -102t144 -269h-102q-27 125 -114.5 201.5t-215.5 76.5q-180 0 -278.5 -131t-98.5 -334q0 -132 41 -235t128 -166t208 -63q131 0 220 81.5t114 215.5h103
q-27 -172 -145 -281t-292 -109zM520 1200l223 299h131l-262 -299h-92z" />
    <glyph glyph-name="Ccircumflex" unicode="&#x108;" horiz-adv-x="1441" 
d="M762 -25q-134 0 -246 40.5t-190.5 111.5t-134 167.5t-81.5 208.5t-26 234t26 234t81.5 208.5t134 167.5t190.5 111.5t246 40.5q122 0 226 -40.5t178 -112.5t122 -168t64 -209h-105q-29 192 -158.5 313t-326.5 121q-142 0 -253.5 -54t-180 -147t-103.5 -211t-35 -254
q0 -108 21.5 -205.5t67.5 -181.5t112.5 -146t161.5 -97t209 -35q205 0 337 132t154 335h105q-13 -118 -59.5 -220t-121 -179t-181.5 -121t-234 -44zM836 1896l258 -299h-99l-233 236l-234 -236h-98l258 299h148z" />
    <glyph glyph-name="ccircumflex" unicode="&#x109;" horiz-adv-x="1069" 
d="M567 -25q-149 0 -260 75t-166 200t-55 282q0 117 32.5 218.5t92.5 177t152 119t204 43.5q174 0 288 -102t144 -269h-102q-27 125 -114.5 201.5t-215.5 76.5q-180 0 -278.5 -131t-98.5 -334q0 -132 41 -235t128 -166t208 -63q131 0 220 81.5t114 215.5h103
q-27 -172 -145 -281t-292 -109zM641 1499l258 -299h-98l-234 236l-233 -236h-98l258 299h147z" />
    <glyph glyph-name="Cdotaccent" unicode="&#x10a;" horiz-adv-x="1441" 
d="M762 -25q-134 0 -246 40.5t-190.5 111.5t-134 167.5t-81.5 208.5t-26 234t26 234t81.5 208.5t134 167.5t190.5 111.5t246 40.5q122 0 226 -40.5t178 -112.5t122 -168t64 -209h-105q-29 192 -158.5 313t-326.5 121q-142 0 -253.5 -54t-180 -147t-103.5 -211t-35 -254
q0 -108 21.5 -205.5t67.5 -181.5t112.5 -146t161.5 -97t209 -35q205 0 337 132t154 335h105q-13 -118 -59.5 -220t-121 -179t-181.5 -121t-234 -44zM711 1597v199h100v-199h-100z" />
    <glyph glyph-name="cdotaccent" unicode="&#x10b;" horiz-adv-x="1069" 
d="M567 -25q-149 0 -260 75t-166 200t-55 282q0 117 32.5 218.5t92.5 177t152 119t204 43.5q174 0 288 -102t144 -269h-102q-27 125 -114.5 201.5t-215.5 76.5q-180 0 -278.5 -131t-98.5 -334q0 -132 41 -235t128 -166t208 -63q131 0 220 81.5t114 215.5h103
q-27 -172 -145 -281t-292 -109zM516 1276v199h100v-199h-100z" />
    <glyph glyph-name="Ccaron" unicode="&#x10c;" horiz-adv-x="1441" 
d="M762 -25q-134 0 -246 40.5t-190.5 111.5t-134 167.5t-81.5 208.5t-26 234t26 234t81.5 208.5t134 167.5t190.5 111.5t246 40.5q122 0 226 -40.5t178 -112.5t122 -168t64 -209h-105q-29 192 -158.5 313t-326.5 121q-142 0 -253.5 -54t-180 -147t-103.5 -211t-35 -254
q0 -108 21.5 -205.5t67.5 -181.5t112.5 -146t161.5 -97t209 -35q205 0 337 132t154 335h105q-13 -118 -59.5 -220t-121 -179t-181.5 -121t-234 -44zM688 1597l-258 299h98l234 -235l233 235h99l-258 -299h-148z" />
    <glyph glyph-name="ccaron" unicode="&#x10d;" horiz-adv-x="1069" 
d="M567 -25q-149 0 -260 75t-166 200t-55 282q0 117 32.5 218.5t92.5 177t152 119t204 43.5q174 0 288 -102t144 -269h-102q-27 125 -114.5 201.5t-215.5 76.5q-180 0 -278.5 -131t-98.5 -334q0 -132 41 -235t128 -166t208 -63q131 0 220 81.5t114 215.5h103
q-27 -172 -145 -281t-292 -109zM494 1200l-258 299h98l233 -235l234 235h98l-258 -299h-147z" />
    <glyph glyph-name="Dcaron" unicode="&#x10e;" horiz-adv-x="1384" 
d="M139 0v1475h439q144 0 264 -38t205 -105.5t143.5 -160.5t86.5 -202.5t28 -231.5t-28 -231.5t-86.5 -202t-143.5 -160t-205 -105.5t-264 -38h-439zM551 1573l-258 299h98l234 -236l233 236h98l-258 -299h-147zM244 96h334q155 0 275.5 50t194 138.5t111 203t37.5 249.5
t-37.5 249.5t-111 203t-194 138.5t-275.5 50h-334v-1282z" />
    <glyph glyph-name="dcaron" unicode="&#x10f;" horiz-adv-x="1175" 
d="M1049 0h-97v221q-56 -116 -155 -181t-234 -65q-152 0 -262 75t-163.5 199.5t-53.5 282.5t53.5 282.5t163.5 200t262 75.5q133 0 230.5 -63t154.5 -175v623h101v-1475zM569 68q183 0 283 130.5t100 333.5t-100 334t-283 131q-123 0 -210.5 -63t-129 -166.5t-41.5 -235.5
q0 -203 99 -333.5t282 -130.5zM1130 1126l89 349h114l-121 -349h-82z" />
    <glyph glyph-name="Dcroat" unicode="&#x110;" horiz-adv-x="1429" 
d="M0 723v86h184v672h439q144 0 264 -38t205 -105.5t143.5 -160.5t86.5 -202.5t28 -231.5t-28 -231.5t-86.5 -202t-143.5 -160t-205 -105.5t-264 -38h-439v717h-184zM289 102h334q155 0 275.5 50t194 138.5t111 203t37.5 249.5t-37.5 249.5t-111 203t-194 138.5t-275.5 50
h-334v-575h436v-86h-436v-621z" />
    <glyph glyph-name="dcroat" unicode="&#x111;" horiz-adv-x="1236" 
d="M684 1231v86h264v158h101v-158h188v-86h-188v-1231h-97v221q-56 -116 -155 -181t-234 -65q-152 0 -262 75t-163.5 199.5t-53.5 282.5t53.5 282.5t163.5 200t262 75.5q133 0 230.5 -63t154.5 -175v379h-264zM569 68q183 0 283 130.5t100 333.5t-100 334t-283 131
q-123 0 -210.5 -63t-129 -166.5t-41.5 -235.5q0 -203 99 -333.5t282 -130.5z" />
    <glyph glyph-name="Ebreve" unicode="&#x114;" horiz-adv-x="1191" 
d="M139 0v1475h979v-97h-874v-561h813v-96h-813v-625h882v-96h-987zM629 1561q-134 0 -214.5 79t-86.5 215h88q6 -102 62 -156t151 -54q94 0 150.5 54.5t62.5 155.5h86q-6 -136 -86 -215t-213 -79z" />
    <glyph glyph-name="ebreve" unicode="&#x115;" horiz-adv-x="1120" 
d="M561 -25q-148 0 -258 75t-164.5 200t-54.5 282t54.5 282.5t164.5 200.5t258 75q147 0 257 -75t165 -200.5t55 -282.5v-32h-852q5 -123 48.5 -219.5t128 -154.5t198.5 -58q132 0 225.5 75t131.5 201h102q-46 -169 -165 -269t-294 -100zM561 1188q-134 0 -214.5 79.5
t-86.5 215.5h88q6 -102 62 -156.5t151 -54.5q94 0 150.5 55t62.5 156h86q-6 -136 -86 -215.5t-213 -79.5zM188 592h744q-14 179 -111 292t-260 113q-164 0 -261.5 -113t-111.5 -292z" />
    <glyph glyph-name="Edotaccent" unicode="&#x116;" horiz-adv-x="1191" 
d="M139 0v1475h979v-97h-874v-561h813v-96h-813v-625h882v-96h-987zM578 1573v199h100v-199h-100z" />
    <glyph glyph-name="edotaccent" unicode="&#x117;" horiz-adv-x="1120" 
d="M561 -25q-148 0 -258 75t-164.5 200t-54.5 282t54.5 282.5t164.5 200.5t258 75q147 0 257 -75t165 -200.5t55 -282.5v-32h-852q5 -123 48.5 -219.5t128 -154.5t198.5 -58q132 0 225.5 75t131.5 201h102q-46 -169 -165 -269t-294 -100zM510 1276v199h100v-199h-100z
M188 592h744q-14 179 -111 292t-260 113q-164 0 -261.5 -113t-111.5 -292z" />
    <glyph glyph-name="Eogonek" unicode="&#x118;" horiz-adv-x="1191" 
d="M139 0v1475h979v-97h-874v-561h813v-96h-813v-625h882v-96q-115 -64 -178 -127.5t-63 -118.5q0 -52 35 -77t94 -25q58 0 112 22v-84q-57 -24 -135 -24q-92 0 -147.5 43.5t-55.5 120.5q0 81 65 147t177 123h-891z" />
    <glyph glyph-name="eogonek" unicode="&#x119;" horiz-adv-x="1120" 
d="M561 -25q-148 0 -258 75t-164.5 200t-54.5 282t54.5 282.5t164.5 200.5t258 75q147 0 257 -75t165 -200.5t55 -282.5v-32h-852q5 -123 48.5 -219.5t128 -154.5t198.5 -58q132 0 225.5 75t131.5 201h102q-34 -129 -113 -219.5t-194 -126.5q-114 -64 -176 -126.5
t-62 -117.5q0 -52 35 -77t94 -25t113 22v-84q-57 -24 -135 -24q-92 0 -147.5 43.5t-55.5 120.5q0 134 196 245h-14zM188 592h744q-14 179 -111 292t-260 113q-164 0 -261.5 -113t-111.5 -292z" />
    <glyph glyph-name="Ecaron" unicode="&#x11a;" horiz-adv-x="1191" 
d="M139 0v1475h979v-97h-874v-561h813v-96h-813v-625h882v-96h-987zM555 1573l-258 299h98l234 -236l233 236h99l-259 -299h-147z" />
    <glyph glyph-name="ecaron" unicode="&#x11b;" horiz-adv-x="1120" 
d="M561 -25q-148 0 -258 75t-164.5 200t-54.5 282t54.5 282.5t164.5 200.5t258 75q147 0 257 -75t165 -200.5t55 -282.5v-32h-852q5 -123 48.5 -219.5t128 -154.5t198.5 -58q132 0 225.5 75t131.5 201h102q-46 -169 -165 -269t-294 -100zM487 1200l-258 299h99l233 -235
l234 235h98l-258 -299h-148zM188 592h744q-14 179 -111 292t-260 113q-164 0 -261.5 -113t-111.5 -292z" />
    <glyph glyph-name="Gcircumflex" unicode="&#x11c;" horiz-adv-x="1531" 
d="M762 -25q-134 0 -246 40.5t-190.5 111.5t-134 167.5t-81.5 208.5t-26 234t26 234t81.5 208.5t134 167.5t190.5 111.5t246 40.5q261 0 427.5 -145t203.5 -375h-107q-32 188 -170 306t-354 118q-142 0 -253.5 -54t-180 -147t-103.5 -211t-35 -254q0 -108 21.5 -205.5
t67.5 -181.5t112.5 -146t161.5 -97t209 -35q104 0 190 29.5t148 81.5t107 125t70 157.5t34 181.5h-611v94h713v-741h-94v346q-68 -174 -206 -272.5t-351 -98.5zM836 1896l258 -299h-99l-233 236l-234 -236h-98l258 299h148z" />
    <glyph glyph-name="gcircumflex" unicode="&#x11d;" horiz-adv-x="1177" 
d="M590 -434q-202 0 -313 86.5t-130 243.5h101q19 -122 102.5 -181t239.5 -59q171 0 264.5 93t93.5 274v190q-57 -112 -154.5 -175t-230.5 -63q-152 0 -262 75t-163.5 199.5t-53.5 282.5t53.5 282.5t163.5 200t262 75.5q135 0 234 -65t155 -181v221h99v-1042
q0 -211 -121.5 -334t-339.5 -123zM569 68q183 0 283 130.5t100 333.5t-100 334t-283 131q-123 0 -210.5 -63t-129 -166.5t-41.5 -235.5q0 -203 99 -333.5t282 -130.5zM641 1499l258 -299h-98l-234 236l-233 -236h-98l258 299h147z" />
    <glyph glyph-name="Gbreve" unicode="&#x11e;" horiz-adv-x="1531" 
d="M762 -25q-134 0 -246 40.5t-190.5 111.5t-134 167.5t-81.5 208.5t-26 234t26 234t81.5 208.5t134 167.5t190.5 111.5t246 40.5q261 0 427.5 -145t203.5 -375h-107q-32 188 -170 306t-354 118q-142 0 -253.5 -54t-180 -147t-103.5 -211t-35 -254q0 -108 21.5 -205.5
t67.5 -181.5t112.5 -146t161.5 -97t209 -35q104 0 190 29.5t148 81.5t107 125t70 157.5t34 181.5h-611v94h713v-741h-94v346q-68 -174 -206 -272.5t-351 -98.5zM762 1585q-134 0 -214.5 79.5t-86.5 215.5h88q6 -102 62 -156.5t151 -54.5q94 0 150.5 55t62.5 156h86
q-6 -136 -86 -215.5t-213 -79.5z" />
    <glyph glyph-name="gbreve" unicode="&#x11f;" horiz-adv-x="1177" 
d="M590 -434q-202 0 -313 86.5t-130 243.5h101q19 -122 102.5 -181t239.5 -59q171 0 264.5 93t93.5 274v190q-57 -112 -154.5 -175t-230.5 -63q-152 0 -262 75t-163.5 199.5t-53.5 282.5t53.5 282.5t163.5 200t262 75.5q135 0 234 -65t155 -181v221h99v-1042
q0 -211 -121.5 -334t-339.5 -123zM569 68q183 0 283 130.5t100 333.5t-100 334t-283 131q-123 0 -210.5 -63t-129 -166.5t-41.5 -235.5q0 -203 99 -333.5t282 -130.5zM567 1188q-134 0 -214.5 79.5t-86.5 215.5h88q6 -102 62 -156.5t151 -54.5q94 0 150.5 55t62.5 156h86
q-6 -136 -86 -215.5t-213 -79.5z" />
    <glyph glyph-name="Gdotaccent" unicode="&#x120;" horiz-adv-x="1531" 
d="M762 -25q-134 0 -246 40.5t-190.5 111.5t-134 167.5t-81.5 208.5t-26 234t26 234t81.5 208.5t134 167.5t190.5 111.5t246 40.5q261 0 427.5 -145t203.5 -375h-107q-32 188 -170 306t-354 118q-142 0 -253.5 -54t-180 -147t-103.5 -211t-35 -254q0 -108 21.5 -205.5
t67.5 -181.5t112.5 -146t161.5 -97t209 -35q104 0 190 29.5t148 81.5t107 125t70 157.5t34 181.5h-611v94h713v-741h-94v346q-68 -174 -206 -272.5t-351 -98.5zM711 1597v199h100v-199h-100z" />
    <glyph glyph-name="gdotaccent" unicode="&#x121;" horiz-adv-x="1177" 
d="M590 -434q-202 0 -313 86.5t-130 243.5h101q19 -122 102.5 -181t239.5 -59q171 0 264.5 93t93.5 274v190q-57 -112 -154.5 -175t-230.5 -63q-152 0 -262 75t-163.5 199.5t-53.5 282.5t53.5 282.5t163.5 200t262 75.5q135 0 234 -65t155 -181v221h99v-1042
q0 -211 -121.5 -334t-339.5 -123zM569 68q183 0 283 130.5t100 333.5t-100 334t-283 131q-123 0 -210.5 -63t-129 -166.5t-41.5 -235.5q0 -203 99 -333.5t282 -130.5zM516 1276v199h100v-199h-100z" />
    <glyph glyph-name="Hcircumflex" unicode="&#x124;" horiz-adv-x="1402" 
d="M1161 0v717h-917v-717h-105v1475h105v-662h917v662h103v-1475h-103zM776 1872l258 -299h-98l-234 235l-233 -235h-98l258 299h147z" />
    <glyph glyph-name="hcircumflex" unicode="&#x125;" 
d="M127 0v1475h100v-603q53 100 143.5 159t217.5 59q185 0 283 -108.5t98 -293.5v-688h-101v678q0 156 -76 237.5t-221 81.5q-67 0 -128.5 -27t-109.5 -76.5t-77 -126.5t-29 -171v-596h-100zM252 1872l258 -299h-98l-234 235l-233 -235h-99l258 299h148z" />
    <glyph glyph-name="Itilde" unicode="&#x128;" horiz-adv-x="382" 
d="M139 0v1475h105v-1475h-105zM-133 1573q0 119 41 178t133 59q27 0 56.5 -11.5t45.5 -22t47 -33.5q10 -7 35.5 -25.5t39 -27t34 -17t37.5 -8.5q52 0 72 34t20 111h88q0 -118 -42 -177.5t-132 -59.5q-28 0 -57 11t-47.5 23t-47.5 33q-6 4 -34 24.5t-39.5 28t-33 16.5
t-38.5 9q-51 0 -70.5 -34t-19.5 -111h-88z" />
    <glyph glyph-name="itilde" unicode="&#x129;" horiz-adv-x="352" 
d="M125 0v1065h102v-1065h-102zM-147 1245q0 119 41.5 178.5t132.5 59.5q27 0 56.5 -12t44.5 -22t48 -34q10 -7 35.5 -25.5t39 -27t34 -17t37.5 -8.5q52 0 72 34.5t20 111.5h88q0 -118 -42 -178t-132 -60q-27 0 -57 11.5t-47.5 23t-47.5 33.5q-6 4 -34 24.5t-39.5 28
t-33 16.5t-38.5 9q-51 0 -70.5 -34.5t-19.5 -111.5h-88z" />
    <glyph glyph-name="Ibreve" unicode="&#x12c;" horiz-adv-x="382" 
d="M139 0v1475h105v-1475h-105zM193 1561q-134 0 -215 79t-87 215h89q6 -102 62 -156t151 -54q94 0 150.5 54.5t62.5 155.5h86q-6 -136 -86 -215t-213 -79z" />
    <glyph glyph-name="ibreve" unicode="&#x12d;" horiz-adv-x="352" 
d="M125 0v1065h102v-1065h-102zM176 1188q-134 0 -214.5 79.5t-86.5 215.5h88q6 -102 62 -156.5t151 -54.5q94 0 150.5 55t62.5 156h86q-6 -136 -86 -215.5t-213 -79.5z" />
    <glyph glyph-name="Iogonek" unicode="&#x12e;" horiz-adv-x="382" 
d="M139 0v1475h105v-1475h-2q-115 -64 -178.5 -127.5t-63.5 -118.5q0 -52 35 -77t94 -25t113 22v-84q-57 -24 -136 -24q-92 0 -147 43.5t-55 120.5q0 147 241 270h-6z" />
    <glyph glyph-name="iogonek" unicode="&#x12f;" horiz-adv-x="352" 
d="M125 0v1065h102v-1065h-2q-115 -64 -178 -127.5t-63 -118.5q0 -52 35 -77t94 -25q58 0 112 22v-84q-57 -24 -135 -24q-92 0 -147.5 43.5t-55.5 120.5q0 81 65 147t177 123h-4zM125 1276v199h100v-199h-100z" />
    <glyph glyph-name="Idotaccent" unicode="&#x130;" horiz-adv-x="382" 
d="M139 0v1475h105v-1475h-105zM141 1573v199h101v-199h-101z" />
    <glyph glyph-name="dotlessi" unicode="&#x131;" horiz-adv-x="352" 
d="M125 0v1065h102v-1065h-102z" />
    <glyph glyph-name="Jcircumflex" unicode="&#x134;" horiz-adv-x="1093" 
d="M530 -25q-206 0 -324 129.5t-118 360.5v67h102v-67q0 -192 90 -292.5t250 -100.5t250 100.5t90 292.5v1010h105v-1010q0 -230 -119 -360t-326 -130zM997 1872l258 -299h-98l-233 235l-234 -235h-98l258 299h147z" />
    <glyph glyph-name="jcircumflex" unicode="&#x135;" horiz-adv-x="360" 
d="M236 -162q0 -59 -9 -100t-32.5 -76.5t-69.5 -53.5t-115 -18h-141v88h131q79 0 107 41.5t28 124.5v1221h101v-1227zM258 1499l258 -299h-98l-234 236l-233 -236h-98l258 299h147z" />
    <glyph glyph-name="Lacute" unicode="&#x139;" horiz-adv-x="1062" 
d="M139 0v1475h105v-1379h768v-96h-873zM145 1573l224 299h131l-262 -299h-93z" />
    <glyph glyph-name="lacute" unicode="&#x13a;" horiz-adv-x="544" 
d="M127 1475h100v-1221q0 -83 28 -124.5t107 -41.5h132v-88h-142q-69 0 -115 18t-69 53.5t-32 76.5t-9 100v1227zM131 1573l223 299h131l-262 -299h-92z" />
    <glyph glyph-name="Lcaron" unicode="&#x13d;" horiz-adv-x="1062" 
d="M139 0v1475h105v-1379h768v-96h-873zM483 1126l88 349h115l-121 -349h-82z" />
    <glyph glyph-name="lcaron" unicode="&#x13e;" horiz-adv-x="544" 
d="M127 1475h100v-1221q0 -83 28 -124.5t107 -41.5h132v-88h-142q-69 0 -115 18t-69 53.5t-32 76.5t-9 100v1227zM309 1126l88 349h115l-121 -349h-82z" />
    <glyph glyph-name="Lslash" unicode="&#x141;" horiz-adv-x="1107" 
d="M184 0v713l-184 -86v96l184 86v666h105v-617l416 193v-95l-416 -194v-666h768v-96h-873z" />
    <glyph glyph-name="lslash" unicode="&#x142;" horiz-adv-x="544" 
d="M127 1475h100v-639l185 86v-97l-185 -86v-485q0 -83 28 -124.5t107 -41.5h132v-88h-142q-69 0 -115 18t-69 53.5t-32 76.5t-9 100v446l-184 -86v94l184 86v687z" />
    <glyph glyph-name="Nacute" unicode="&#x143;" horiz-adv-x="1415" 
d="M1149 0l-905 1333v-1333h-105v1475h129l906 -1336v1336h102v-1475h-127zM659 1573l224 299h131l-262 -299h-93z" />
    <glyph glyph-name="nacute" unicode="&#x144;" 
d="M868 678q0 156 -76 237.5t-221 81.5q-67 0 -128.5 -27t-109.5 -76.5t-77 -126.5t-29 -171v-596h-100v1065h96v-201q50 103 143 164.5t222 61.5q185 0 283 -108.5t98 -293.5v-688h-101v678zM502 1200l223 299h131l-262 -299h-92z" />
    <glyph glyph-name="Ncaron" unicode="&#x147;" horiz-adv-x="1415" 
d="M1149 0l-905 1333v-1333h-105v1475h129l906 -1336v1336h102v-1475h-127zM631 1573l-258 299h98l234 -236l233 236h98l-258 -299h-147z" />
    <glyph glyph-name="ncaron" unicode="&#x148;" 
d="M868 678q0 156 -76 237.5t-221 81.5q-67 0 -128.5 -27t-109.5 -76.5t-77 -126.5t-29 -171v-596h-100v1065h96v-201q50 103 143 164.5t222 61.5q185 0 283 -108.5t98 -293.5v-688h-101v678zM473 1200l-258 299h98l234 -235l233 235h99l-258 -299h-148z" />
    <glyph glyph-name="Obreve" unicode="&#x14e;" horiz-adv-x="1521" 
d="M762 -25q-134 0 -246 40.5t-190.5 111.5t-134 167.5t-81.5 208.5t-26 234t26 234t81.5 208.5t134 167.5t190.5 111.5t246 40.5q133 0 245 -40.5t191 -111.5t134 -167.5t81.5 -208.5t26.5 -234t-26.5 -234t-81.5 -208.5t-134 -167.5t-191 -111.5t-245 -40.5zM762 72
q114 0 208.5 35t160.5 97t111.5 146t67 181.5t21.5 205.5q0 136 -35 254t-103 211t-179 147t-252 54q-142 0 -253.5 -54t-180 -147t-103.5 -211t-35 -254q0 -108 21.5 -205.5t67.5 -181.5t112.5 -146t161.5 -97t209 -35zM762 1585q-134 0 -214.5 79.5t-86.5 215.5h88
q6 -102 62 -156.5t151 -54.5q94 0 150.5 55t62.5 156h86q-6 -136 -86 -215.5t-213 -79.5z" />
    <glyph glyph-name="obreve" unicode="&#x14f;" horiz-adv-x="1140" 
d="M571 -25q-153 0 -265 75t-167 199.5t-55 282.5t55 282.5t167 200t265 75.5q115 0 208 -43.5t154 -119t93.5 -177t32.5 -218.5q0 -157 -55.5 -282t-168 -200t-264.5 -75zM571 68q183 0 283 130.5t100 333.5t-100 334t-283 131q-124 0 -212.5 -63t-130.5 -166.5t-42 -235.5
t42 -235t130.5 -166t212.5 -63zM571 1188q-134 0 -214.5 79.5t-86.5 215.5h88q6 -102 62 -156.5t151 -54.5q94 0 150.5 55t62.5 156h86q-6 -136 -86 -215.5t-213 -79.5z" />
    <glyph glyph-name="Racute" unicode="&#x154;" horiz-adv-x="1286" 
d="M139 0v1475h584q233 0 358 -109t125 -295q0 -125 -66.5 -218.5t-201.5 -143.5q176 -50 207 -246l78 -463h-107l-63 391q-11 69 -29.5 116t-54.5 85t-94.5 56t-143.5 18h-487v-666h-105zM590 1573l223 299h131l-262 -299h-92zM244 762h479q181 0 278 82.5t97 226.5
q0 142 -97 224.5t-278 82.5h-479v-616z" />
    <glyph glyph-name="racute" unicode="&#x155;" horiz-adv-x="729" 
d="M127 0v1065h96v-229q105 241 373 241h84v-98h-92q-71 0 -134 -23.5t-114.5 -70t-81.5 -125t-31 -180.5v-580h-100zM358 1200l224 299h131l-262 -299h-93z" />
    <glyph glyph-name="Rcaron" unicode="&#x158;" horiz-adv-x="1286" 
d="M139 0v1475h584q233 0 358 -109t125 -295q0 -125 -66.5 -218.5t-201.5 -143.5q176 -50 207 -246l78 -463h-107l-63 391q-11 69 -29.5 116t-54.5 85t-94.5 56t-143.5 18h-487v-666h-105zM561 1573l-258 299h98l234 -236l233 236h99l-258 -299h-148zM244 762h479
q181 0 278 82.5t97 226.5q0 142 -97 224.5t-278 82.5h-479v-616z" />
    <glyph glyph-name="rcaron" unicode="&#x159;" horiz-adv-x="729" 
d="M127 0v1065h96v-229q105 241 373 241h84v-98h-92q-71 0 -134 -23.5t-114.5 -70t-81.5 -125t-31 -180.5v-580h-100zM330 1200l-258 299h98l233 -235l234 235h98l-258 -299h-147z" />
    <glyph glyph-name="Sacute" unicode="&#x15a;" horiz-adv-x="1255" 
d="M659 -25q-263 0 -419 124.5t-168 385.5h106q6 -111 44 -192.5t104 -129t148 -69.5t185 -22q198 0 312 85.5t114 229.5q0 65 -17 109t-66 85.5t-140.5 73t-236.5 58.5q-278 52 -391 145.5t-113 267.5q0 166 136 269.5t357 103.5q257 0 395.5 -129t143.5 -342h-106
q-6 184 -118 279.5t-315 95.5q-179 0 -283 -76t-104 -201q0 -53 10 -90t37 -72.5t76.5 -62t127.5 -50.5t190 -46q130 -25 223 -57t151 -67.5t91.5 -83t46 -96.5t12.5 -114q0 -184 -144 -298t-389 -114zM586 1597l223 299h131l-262 -299h-92z" />
    <glyph glyph-name="sacute" unicode="&#x15b;" horiz-adv-x="978" 
d="M502 -25q-199 0 -315 99t-124 274h101q9 -139 95.5 -212t242.5 -73q141 0 227 54t86 162q0 62 -23 99t-92.5 66.5t-201.5 49.5q-155 24 -243.5 65t-123.5 98.5t-35 145.5q0 132 106.5 209.5t276.5 77.5q198 0 303 -93t111 -260h-100q-15 264 -314 264q-125 0 -203.5 -51
t-78.5 -145q0 -98 67 -143.5t262 -75.5q151 -25 237 -66t119 -96.5t33 -140.5q0 -102 -58.5 -173.5t-149.5 -103t-205 -31.5zM444 1200l224 299h131l-262 -299h-93z" />
    <glyph glyph-name="Scircumflex" unicode="&#x15c;" horiz-adv-x="1255" 
d="M659 -25q-263 0 -419 124.5t-168 385.5h106q6 -111 44 -192.5t104 -129t148 -69.5t185 -22q198 0 312 85.5t114 229.5q0 65 -17 109t-66 85.5t-140.5 73t-236.5 58.5q-278 52 -391 145.5t-113 267.5q0 166 136 269.5t357 103.5q257 0 395.5 -129t143.5 -342h-106
q-6 184 -118 279.5t-315 95.5q-179 0 -283 -76t-104 -201q0 -53 10 -90t37 -72.5t76.5 -62t127.5 -50.5t190 -46q130 -25 223 -57t151 -67.5t91.5 -83t46 -96.5t12.5 -114q0 -184 -144 -298t-389 -114zM705 1896l258 -299h-99l-233 236l-234 -236h-98l258 299h148z" />
    <glyph glyph-name="scircumflex" unicode="&#x15d;" horiz-adv-x="978" 
d="M502 -25q-199 0 -315 99t-124 274h101q9 -139 95.5 -212t242.5 -73q141 0 227 54t86 162q0 62 -23 99t-92.5 66.5t-201.5 49.5q-155 24 -243.5 65t-123.5 98.5t-35 145.5q0 132 106.5 209.5t276.5 77.5q198 0 303 -93t111 -260h-100q-15 264 -314 264q-125 0 -203.5 -51
t-78.5 -145q0 -98 67 -143.5t262 -75.5q151 -25 237 -66t119 -96.5t33 -140.5q0 -102 -58.5 -173.5t-149.5 -103t-205 -31.5zM563 1499l258 -299h-98l-234 236l-233 -236h-98l258 299h147z" />
    <glyph glyph-name="Scedilla" unicode="&#x15e;" horiz-adv-x="1255" 
d="M582 -467q-87 0 -142 14v66q62 -12 115 -12q174 0 174 102q0 100 -168 100q-23 0 -55 -4v56l82 122q-232 16 -369 141t-147 367h106q6 -111 44 -192.5t104 -129t148 -69.5t185 -22q198 0 312 85.5t114 229.5q0 65 -17 109t-66 85.5t-140.5 73t-236.5 58.5
q-278 52 -391 145.5t-113 267.5q0 166 136 269.5t357 103.5q257 0 395.5 -129t143.5 -342h-106q-6 184 -118 279.5t-315 95.5q-179 0 -283 -76t-104 -201q0 -53 10 -90t37 -72.5t76.5 -62t127.5 -50.5t190 -46q130 -25 223 -57t151 -67.5t91.5 -83t46 -96.5t12.5 -114
q0 -180 -139.5 -294t-376.5 -118l-90 -114h12q107 0 167 -40t60 -118q0 -79 -63.5 -124.5t-179.5 -45.5z" />
    <glyph glyph-name="scedilla" unicode="&#x15f;" horiz-adv-x="978" 
d="M440 -467q-86 0 -141 14v66q62 -12 115 -12q174 0 174 102q0 100 -168 100q-23 0 -55 -4v56l81 122q-175 13 -275 110.5t-108 260.5h101q9 -139 95.5 -212t242.5 -73q141 0 227 54t86 162q0 62 -23 99t-92.5 66.5t-201.5 49.5q-155 24 -243.5 65t-123.5 98.5t-35 145.5
q0 132 106.5 209.5t276.5 77.5q198 0 303 -93t111 -260h-100q-15 264 -314 264q-125 0 -203.5 -51t-78.5 -145q0 -98 67 -143.5t262 -75.5q151 -25 237 -66t119 -96.5t33 -140.5q0 -98 -53.5 -167.5t-136.5 -102.5t-190 -38l-91 -114h13q107 0 167 -40t60 -118
q0 -79 -64 -124.5t-180 -45.5z" />
    <glyph glyph-name="Scaron" unicode="&#x160;" horiz-adv-x="1255" 
d="M659 -25q-263 0 -419 124.5t-168 385.5h106q6 -111 44 -192.5t104 -129t148 -69.5t185 -22q198 0 312 85.5t114 229.5q0 65 -17 109t-66 85.5t-140.5 73t-236.5 58.5q-278 52 -391 145.5t-113 267.5q0 166 136 269.5t357 103.5q257 0 395.5 -129t143.5 -342h-106
q-6 184 -118 279.5t-315 95.5q-179 0 -283 -76t-104 -201q0 -53 10 -90t37 -72.5t76.5 -62t127.5 -50.5t190 -46q130 -25 223 -57t151 -67.5t91.5 -83t46 -96.5t12.5 -114q0 -184 -144 -298t-389 -114zM557 1597l-258 299h98l234 -235l233 235h99l-258 -299h-148z" />
    <glyph glyph-name="scaron" unicode="&#x161;" horiz-adv-x="978" 
d="M502 -25q-199 0 -315 99t-124 274h101q9 -139 95.5 -212t242.5 -73q141 0 227 54t86 162q0 62 -23 99t-92.5 66.5t-201.5 49.5q-155 24 -243.5 65t-123.5 98.5t-35 145.5q0 132 106.5 209.5t276.5 77.5q198 0 303 -93t111 -260h-100q-15 264 -314 264q-125 0 -203.5 -51
t-78.5 -145q0 -98 67 -143.5t262 -75.5q151 -25 237 -66t119 -96.5t33 -140.5q0 -102 -58.5 -173.5t-149.5 -103t-205 -31.5zM416 1200l-258 299h98l233 -235l234 235h98l-258 -299h-147z" />
    <glyph glyph-name="uni0162" unicode="&#x162;" horiz-adv-x="1263" 
d="M578 0v1378h-529v97h1165v-97h-528v-1378h-10l-90 -115h12q107 0 167 -39.5t60 -117.5q0 -79 -63.5 -124.5t-179.5 -45.5q-87 0 -142 14v66q67 -13 115 -13q174 0 174 103q0 100 -168 100q-23 0 -55 -4v55l80 121h-8z" />
    <glyph glyph-name="uni0163" unicode="&#x163;" horiz-adv-x="694" 
d="M233 1393h101v-328h309v-88h-309v-723q0 -83 28 -124.5t107 -41.5h174v-88h-149l-91 -115h13q107 0 167 -39.5t60 -117.5q0 -79 -64 -124.5t-180 -45.5q-86 0 -141 14v66q67 -13 115 -13q174 0 174 103q0 100 -168 100q-23 0 -55 -4v55l82 125q-100 13 -136.5 74.5
t-36.5 169.5v729h-202v88h202v328z" />
    <glyph glyph-name="Tcaron" unicode="&#x164;" horiz-adv-x="1263" 
d="M578 0v1378h-529v97h1165v-97h-528v-1378h-108zM557 1573l-258 299h98l234 -236l233 236h99l-258 -299h-148z" />
    <glyph glyph-name="tcaron" unicode="&#x165;" horiz-adv-x="694" 
d="M233 1393h101v-328h309v-88h-309v-723q0 -83 28 -124.5t107 -41.5h174v-88h-184q-69 0 -115 18t-69.5 53.5t-32.5 76.5t-9 100v729h-202v88h202v328zM438 1126l88 349h115l-121 -349h-82z" />
    <glyph glyph-name="Utilde" unicode="&#x168;" horiz-adv-x="1337" 
d="M670 -25q-257 0 -404 143t-147 419v938h104v-938q0 -237 118.5 -351t328.5 -114q209 0 327.5 114t118.5 351v938h103v-938q0 -276 -146.5 -419t-402.5 -143zM344 1573q0 119 41 178t133 59q27 0 56.5 -11.5t46.5 -22.5t47 -33q11 -7 35.5 -25t38 -27t34 -17.5t37.5 -8.5
q52 0 72 34t20 111h88q0 -118 -42 -177.5t-132 -59.5q-28 0 -57 11t-46.5 22.5t-47.5 33.5q-8 6 -27.5 20.5t-31 22t-28 17t-31 14t-28.5 4.5q-51 0 -70.5 -34t-19.5 -111h-88z" />
    <glyph glyph-name="utilde" unicode="&#x169;" 
d="M227 387q0 -156 76 -237.5t221 -81.5q67 0 128.5 27t109.5 76.5t77 126.5t29 171v596h101v-1065h-97v201q-50 -103 -142.5 -164.5t-221.5 -61.5q-185 0 -283 108.5t-98 293.5v688h100v-678zM223 1245q0 119 41.5 178.5t132.5 59.5q27 0 56.5 -12t45.5 -22.5t48 -33.5
q11 -7 35.5 -25t38 -27t34 -17.5t37.5 -8.5q52 0 72 34.5t20 111.5h88q0 -118 -42 -178t-132 -60q-27 0 -57 11.5t-46.5 22.5t-47.5 34q-8 6 -27.5 20.5t-31 22t-28 17t-31 14t-28.5 4.5q-51 0 -70.5 -34.5t-19.5 -111.5h-88z" />
    <glyph glyph-name="Ubreve" unicode="&#x16c;" horiz-adv-x="1337" 
d="M670 -25q-257 0 -404 143t-147 419v938h104v-938q0 -237 118.5 -351t328.5 -114q209 0 327.5 114t118.5 351v938h103v-938q0 -276 -146.5 -419t-402.5 -143zM670 1561q-134 0 -214.5 79t-86.5 215h88q6 -102 62 -156t151 -54q94 0 150.5 54.5t62.5 155.5h86
q-6 -136 -86 -215t-213 -79z" />
    <glyph glyph-name="ubreve" unicode="&#x16d;" 
d="M227 387q0 -156 76 -237.5t221 -81.5q67 0 128.5 27t109.5 76.5t77 126.5t29 171v596h101v-1065h-97v201q-50 -103 -142.5 -164.5t-221.5 -61.5q-185 0 -283 108.5t-98 293.5v688h100v-678zM549 1188q-134 0 -214.5 79.5t-86.5 215.5h88q6 -102 62 -156.5t151 -54.5
q94 0 150.5 55t62.5 156h86q-6 -136 -86 -215.5t-213 -79.5z" />
    <glyph glyph-name="Uring" unicode="&#x16e;" horiz-adv-x="1337" 
d="M670 -25q-257 0 -404 143t-147 419v938h104v-938q0 -237 118.5 -351t328.5 -114q209 0 327.5 114t118.5 351v938h103v-938q0 -276 -146.5 -419t-402.5 -143zM670 1397q-99 0 -167.5 66.5t-68.5 162.5t68.5 162.5t167.5 66.5q98 0 166.5 -66t68.5 -163t-68.5 -163
t-166.5 -66zM670 1475q68 0 111.5 42t43.5 109t-43.5 109.5t-111.5 42.5t-112 -42.5t-44 -109.5t44 -109t112 -42z" />
    <glyph glyph-name="uring" unicode="&#x16f;" 
d="M227 387q0 -156 76 -237.5t221 -81.5q67 0 128.5 27t109.5 76.5t77 126.5t29 171v596h101v-1065h-97v201q-50 -103 -142.5 -164.5t-221.5 -61.5q-185 0 -283 108.5t-98 293.5v688h100v-678zM547 1188q-99 0 -167.5 66.5t-68.5 162.5q0 97 69 163.5t167 66.5t166.5 -66.5
t68.5 -163.5t-68.5 -163t-166.5 -66zM547 1266q68 0 111.5 42t43.5 109t-43.5 109.5t-111.5 42.5t-112 -42.5t-44 -109.5t44 -109t112 -42z" />
    <glyph glyph-name="Uogonek" unicode="&#x172;" horiz-adv-x="1337" 
d="M670 -25q-257 0 -404 143t-147 419v938h104v-938q0 -237 118.5 -351t328.5 -114q209 0 327.5 114t118.5 351v938h103v-938q0 -219 -93.5 -354.5t-263.5 -182.5q-115 -64 -178 -127.5t-63 -118.5q0 -52 35 -77t94 -25q58 0 112 22v-84q-57 -24 -135 -24q-92 0 -147.5 43.5
t-55.5 120.5q0 131 199 247z" />
    <glyph glyph-name="uogonek" unicode="&#x173;" 
d="M227 387q0 -156 76 -237.5t221 -81.5q67 0 128.5 27t109.5 76.5t77 126.5t29 171v596h101v-1065h-2q-115 -64 -178.5 -127.5t-63.5 -118.5q0 -52 35 -77t94 -25t113 22v-84q-57 -24 -136 -24q-92 0 -147 43.5t-55 120.5q0 81 65 146.5t178 125.5v199
q-50 -103 -142.5 -164.5t-221.5 -61.5q-185 0 -283 108.5t-98 293.5v688h100v-678z" />
    <glyph glyph-name="Wcircumflex" unicode="&#x174;" horiz-adv-x="2029" 
d="M1417 0l-401 1335l-402 -1335h-116l-467 1475h110l416 -1328l399 1328h117l402 -1332l415 1332h109l-467 -1475h-115zM1090 1872l258 -299h-99l-233 235l-234 -235h-98l258 299h148z" />
    <glyph glyph-name="wcircumflex" unicode="&#x175;" horiz-adv-x="1675" 
d="M1141 0l-303 938l-303 -938h-107l-397 1065h104l344 -942l305 942h107l305 -942l342 942h107l-400 -1065h-104zM911 1499l258 -299h-98l-233 236l-234 -236h-98l258 299h147z" />
    <glyph glyph-name="Ycircumflex" unicode="&#x176;" horiz-adv-x="1345" 
d="M621 0v623l-590 852h121l522 -754l520 754h119l-588 -848v-627h-104zM748 1872l258 -299h-99l-233 235l-234 -235h-98l258 299h148z" />
    <glyph glyph-name="ycircumflex" unicode="&#x177;" horiz-adv-x="1009" 
d="M59 -410v88h148q42 0 70.5 9t48.5 32.5t31 46t28 66.5l68 170l-420 1063h108l363 -946l364 946h109l-498 -1260q-14 -37 -23.5 -59t-25 -50.5t-32 -44.5t-39.5 -32t-53 -22.5t-68 -6.5h-179zM578 1499l258 -299h-99l-233 236l-234 -236h-98l258 299h148z" />
    <glyph glyph-name="Ydieresis" unicode="&#x178;" horiz-adv-x="1345" 
d="M621 0v623l-590 852h121l522 -754l520 754h119l-588 -848v-627h-104zM432 1573v199h100v-199h-100zM813 1573v199h100v-199h-100z" />
    <glyph glyph-name="Zacute" unicode="&#x179;" horiz-adv-x="1220" 
d="M63 0v92l961 1290l-289 -4h-635v97h1049v-93l-961 -1290l287 4h682v-96h-1094zM578 1573l223 299h131l-262 -299h-92z" />
    <glyph glyph-name="zacute" unicode="&#x17a;" horiz-adv-x="991" 
d="M72 0v80l708 897h-688v88h807v-80l-706 -897h727v-88h-848zM451 1200l223 299h131l-262 -299h-92z" />
    <glyph glyph-name="Zdotaccent" unicode="&#x17b;" horiz-adv-x="1220" 
d="M63 0v92l961 1290l-289 -4h-635v97h1049v-93l-961 -1290l287 4h682v-96h-1094zM573 1573v199h101v-199h-101z" />
    <glyph glyph-name="zdotaccent" unicode="&#x17c;" horiz-adv-x="991" 
d="M72 0v80l708 897h-688v88h807v-80l-706 -897h727v-88h-848zM444 1276v199h101v-199h-101z" />
    <glyph glyph-name="Zcaron" unicode="&#x17d;" horiz-adv-x="1220" 
d="M63 0v92l961 1290l-289 -4h-635v97h1049v-93l-961 -1290l287 4h682v-96h-1094zM551 1573l-258 299h98l234 -236l233 236h98l-258 -299h-147z" />
    <glyph glyph-name="zcaron" unicode="&#x17e;" horiz-adv-x="991" 
d="M72 0v80l708 897h-688v88h807v-80l-706 -897h727v-88h-848zM422 1200l-258 299h98l234 -235l233 235h98l-258 -299h-147z" />
    <glyph glyph-name="uni01CD" unicode="&#x1cd;" horiz-adv-x="1392" 
d="M1247 0l-180 444h-741l-181 -444h-114l610 1475h111l610 -1475h-115zM623 1573l-258 299h98l233 -236l234 236h98l-258 -299h-147zM362 539h668l-334 825z" />
    <glyph glyph-name="uni01CE" unicode="&#x1ce;" horiz-adv-x="1001" 
d="M813 0v197q-64 -113 -166.5 -167.5t-230.5 -54.5q-170 0 -263.5 83t-93.5 221q0 131 92.5 207t292.5 118l367 78v92q0 116 -71 169.5t-214 53.5q-65 0 -119.5 -13.5t-101 -42.5t-74 -81t-28.5 -123h-101q1 71 23.5 130t61.5 100t93 69t115.5 41t130.5 13q188 0 285.5 -81
t97.5 -225v-784h-96zM420 68q169 0 280 98.5t111 286.5v145l-352 -80q-159 -36 -227 -85.5t-68 -149.5q0 -98 64.5 -156.5t191.5 -58.5zM432 1200l-258 299h98l234 -235l233 235h99l-258 -299h-148z" />
    <glyph glyph-name="uni01CF" unicode="&#x1cf;" horiz-adv-x="382" 
d="M139 0v1475h105v-1475h-105zM117 1573l-258 299h98l233 -236l234 236h98l-258 -299h-147z" />
    <glyph glyph-name="uni01D0" unicode="&#x1d0;" horiz-adv-x="352" 
d="M125 0v1065h102v-1065h-102zM102 1200l-258 299h99l233 -235l234 235h98l-258 -299h-148z" />
    <glyph glyph-name="uni01D1" unicode="&#x1d1;" horiz-adv-x="1521" 
d="M762 -25q-134 0 -246 40.5t-190.5 111.5t-134 167.5t-81.5 208.5t-26 234t26 234t81.5 208.5t134 167.5t190.5 111.5t246 40.5q133 0 245 -40.5t191 -111.5t134 -167.5t81.5 -208.5t26.5 -234t-26.5 -234t-81.5 -208.5t-134 -167.5t-191 -111.5t-245 -40.5zM762 72
q114 0 208.5 35t160.5 97t111.5 146t67 181.5t21.5 205.5q0 136 -35 254t-103 211t-179 147t-252 54q-142 0 -253.5 -54t-180 -147t-103.5 -211t-35 -254q0 -108 21.5 -205.5t67.5 -181.5t112.5 -146t161.5 -97t209 -35zM688 1597l-258 299h98l234 -235l233 235h99
l-258 -299h-148z" />
    <glyph glyph-name="uni01D2" unicode="&#x1d2;" horiz-adv-x="1140" 
d="M571 -25q-153 0 -265 75t-167 199.5t-55 282.5t55 282.5t167 200t265 75.5q115 0 208 -43.5t154 -119t93.5 -177t32.5 -218.5q0 -157 -55.5 -282t-168 -200t-264.5 -75zM571 68q183 0 283 130.5t100 333.5t-100 334t-283 131q-124 0 -212.5 -63t-130.5 -166.5t-42 -235.5
t42 -235t130.5 -166t212.5 -63zM498 1200l-258 299h98l233 -235l234 235h98l-258 -299h-147z" />
    <glyph glyph-name="uni01D3" unicode="&#x1d3;" horiz-adv-x="1337" 
d="M670 -25q-257 0 -404 143t-147 419v938h104v-938q0 -237 118.5 -351t328.5 -114q209 0 327.5 114t118.5 351v938h103v-938q0 -276 -146.5 -419t-402.5 -143zM596 1573l-258 299h98l234 -236l233 236h98l-258 -299h-147z" />
    <glyph glyph-name="uni01D4" unicode="&#x1d4;" 
d="M227 387q0 -156 76 -237.5t221 -81.5q67 0 128.5 27t109.5 76.5t77 126.5t29 171v596h101v-1065h-97v201q-50 -103 -142.5 -164.5t-221.5 -61.5q-185 0 -283 108.5t-98 293.5v688h100v-678zM473 1200l-258 299h98l234 -235l233 235h99l-258 -299h-148z" />
    <glyph glyph-name="Gcaron" unicode="&#x1e6;" horiz-adv-x="1531" 
d="M762 -25q-134 0 -246 40.5t-190.5 111.5t-134 167.5t-81.5 208.5t-26 234t26 234t81.5 208.5t134 167.5t190.5 111.5t246 40.5q261 0 427.5 -145t203.5 -375h-107q-32 188 -170 306t-354 118q-142 0 -253.5 -54t-180 -147t-103.5 -211t-35 -254q0 -108 21.5 -205.5
t67.5 -181.5t112.5 -146t161.5 -97t209 -35q104 0 190 29.5t148 81.5t107 125t70 157.5t34 181.5h-611v94h713v-741h-94v346q-68 -174 -206 -272.5t-351 -98.5zM688 1597l-258 299h98l234 -235l233 235h99l-258 -299h-148z" />
    <glyph glyph-name="gcaron" unicode="&#x1e7;" horiz-adv-x="1177" 
d="M590 -434q-202 0 -313 86.5t-130 243.5h101q19 -122 102.5 -181t239.5 -59q171 0 264.5 93t93.5 274v190q-57 -112 -154.5 -175t-230.5 -63q-152 0 -262 75t-163.5 199.5t-53.5 282.5t53.5 282.5t163.5 200t262 75.5q135 0 234 -65t155 -181v221h99v-1042
q0 -211 -121.5 -334t-339.5 -123zM569 68q183 0 283 130.5t100 333.5t-100 334t-283 131q-123 0 -210.5 -63t-129 -166.5t-41.5 -235.5q0 -203 99 -333.5t282 -130.5zM494 1200l-258 299h98l233 -235l234 235h98l-258 -299h-147z" />
    <glyph glyph-name="uni01E8" unicode="&#x1e8;" horiz-adv-x="1331" 
d="M139 0v1475h105v-887l905 887h139l-637 -619l649 -856h-129l-596 782l-331 -321v-461h-105zM614 1573l-258 299h99l233 -236l234 236h98l-258 -299h-148z" />
    <glyph glyph-name="uni01E9" unicode="&#x1e9;" horiz-adv-x="1017" 
d="M127 0v1475h104v-983l594 573h133l-432 -416l465 -649h-121l-413 582l-226 -217v-365h-104zM104 1573l-258 299h99l233 -236l234 236h98l-258 -299h-148z" />
    <glyph glyph-name="uni01EA" unicode="&#x1ea;" horiz-adv-x="1521" 
d="M762 -25q-134 0 -246 40.5t-190.5 111.5t-134 167.5t-81.5 208.5t-26 234t26 234t81.5 208.5t134 167.5t190.5 111.5t246 40.5q133 0 245 -40.5t191 -111.5t134 -167.5t81.5 -208.5t26.5 -234q0 -175 -52.5 -324t-164.5 -260t-271 -153q-114 -64 -176.5 -127.5
t-62.5 -118.5q0 -52 35 -77t94 -25q58 0 112 22v-84q-57 -24 -135 -24q-92 0 -147.5 43.5t-55.5 120.5q0 131 199 247zM762 72q114 0 208.5 35t160.5 97t111.5 146t67 181.5t21.5 205.5q0 136 -35 254t-103 211t-179 147t-252 54q-142 0 -253.5 -54t-180 -147t-103.5 -211
t-35 -254q0 -108 21.5 -205.5t67.5 -181.5t112.5 -146t161.5 -97t209 -35z" />
    <glyph glyph-name="uni01EB" unicode="&#x1eb;" horiz-adv-x="1140" 
d="M571 -25q-153 0 -265 75t-167 199.5t-55 282.5t55 282.5t167 200t265 75.5q115 0 208 -43.5t154 -119t93.5 -177t32.5 -218.5q0 -194 -86.5 -338t-243.5 -194q-114 -64 -177 -127.5t-63 -118.5q0 -52 35 -77t94 -25t113 22v-84q-57 -24 -135 -24q-92 0 -147.5 43.5
t-55.5 120.5q0 133 197 245h-19zM571 68q183 0 283 130.5t100 333.5t-100 334t-283 131q-124 0 -212.5 -63t-130.5 -166.5t-42 -235.5t42 -235t130.5 -166t212.5 -63z" />
    <glyph glyph-name="uni01F4" unicode="&#x1f4;" horiz-adv-x="1531" 
d="M762 -25q-134 0 -246 40.5t-190.5 111.5t-134 167.5t-81.5 208.5t-26 234t26 234t81.5 208.5t134 167.5t190.5 111.5t246 40.5q261 0 427.5 -145t203.5 -375h-107q-32 188 -170 306t-354 118q-142 0 -253.5 -54t-180 -147t-103.5 -211t-35 -254q0 -108 21.5 -205.5
t67.5 -181.5t112.5 -146t161.5 -97t209 -35q104 0 190 29.5t148 81.5t107 125t70 157.5t34 181.5h-611v94h713v-741h-94v346q-68 -174 -206 -272.5t-351 -98.5zM715 1597l223 299h131l-262 -299h-92z" />
    <glyph glyph-name="uni01F5" unicode="&#x1f5;" horiz-adv-x="1177" 
d="M590 -434q-202 0 -313 86.5t-130 243.5h101q19 -122 102.5 -181t239.5 -59q171 0 264.5 93t93.5 274v190q-57 -112 -154.5 -175t-230.5 -63q-152 0 -262 75t-163.5 199.5t-53.5 282.5t53.5 282.5t163.5 200t262 75.5q135 0 234 -65t155 -181v221h99v-1042
q0 -211 -121.5 -334t-339.5 -123zM569 68q183 0 283 130.5t100 333.5t-100 334t-283 131q-123 0 -210.5 -63t-129 -166.5t-41.5 -235.5q0 -203 99 -333.5t282 -130.5zM522 1200l223 299h132l-263 -299h-92z" />
    <glyph glyph-name="uni01F8" unicode="&#x1f8;" horiz-adv-x="1415" 
d="M1149 0l-905 1333v-1333h-105v1475h129l906 -1336v1336h102v-1475h-127zM752 1573h-93l-262 299h131z" />
    <glyph glyph-name="uni01F9" unicode="&#x1f9;" 
d="M868 678q0 156 -76 237.5t-221 81.5q-67 0 -128.5 -27t-109.5 -76.5t-77 -126.5t-29 -171v-596h-100v1065h96v-201q50 103 143 164.5t222 61.5q185 0 283 -108.5t98 -293.5v-688h-101v678zM594 1200h-92l-262 299h131z" />
    <glyph glyph-name="uni0226" unicode="&#x226;" horiz-adv-x="1392" 
d="M1247 0l-180 444h-741l-181 -444h-114l610 1475h111l610 -1475h-115zM645 1573v199h100v-199h-100zM362 539h668l-334 825z" />
    <glyph glyph-name="uni0227" unicode="&#x227;" horiz-adv-x="1001" 
d="M813 0v197q-64 -113 -166.5 -167.5t-230.5 -54.5q-170 0 -263.5 83t-93.5 221q0 131 92.5 207t292.5 118l367 78v92q0 116 -71 169.5t-214 53.5q-65 0 -119.5 -13.5t-101 -42.5t-74 -81t-28.5 -123h-101q1 71 23.5 130t61.5 100t93 69t115.5 41t130.5 13q188 0 285.5 -81
t97.5 -225v-784h-96zM420 68q169 0 280 98.5t111 286.5v145l-352 -80q-159 -36 -227 -85.5t-68 -149.5q0 -98 64.5 -156.5t191.5 -58.5zM455 1276v199h100v-199h-100z" />
    <glyph glyph-name="uni0228" unicode="&#x228;" horiz-adv-x="1191" 
d="M139 0v1475h979v-97h-874v-561h813v-96h-813v-625h882v-96h-452l-90 -115h12q107 0 167 -39.5t60 -117.5q0 -79 -63.5 -124.5t-179.5 -45.5q-87 0 -142 14v66q67 -13 115 -13q174 0 174 103q0 100 -168 100q-23 0 -55 -4v55l80 121h-445z" />
    <glyph glyph-name="uni0229" unicode="&#x229;" horiz-adv-x="1120" 
d="M510 -467q-86 0 -141 14v66q61 -12 114 -12q174 0 174 102q0 100 -168 100q-23 0 -55 -4v56l82 122q-135 11 -234 88t-148.5 197.5t-49.5 269.5q0 157 54.5 282.5t164.5 200.5t258 75q147 0 257 -75t165 -200.5t55 -282.5v-32h-852q5 -123 48.5 -219.5t128 -154.5
t198.5 -58q132 0 225.5 75t131.5 201h102q-42 -158 -150.5 -256.5t-265.5 -110.5l-90 -116h12q107 0 167.5 -40t60.5 -118q0 -79 -64 -124.5t-180 -45.5zM188 592h744q-14 179 -111 292t-260 113q-164 0 -261.5 -113t-111.5 -292z" />
    <glyph glyph-name="uni022E" unicode="&#x22e;" horiz-adv-x="1521" 
d="M762 -25q-134 0 -246 40.5t-190.5 111.5t-134 167.5t-81.5 208.5t-26 234t26 234t81.5 208.5t134 167.5t190.5 111.5t246 40.5q133 0 245 -40.5t191 -111.5t134 -167.5t81.5 -208.5t26.5 -234t-26.5 -234t-81.5 -208.5t-134 -167.5t-191 -111.5t-245 -40.5zM762 72
q114 0 208.5 35t160.5 97t111.5 146t67 181.5t21.5 205.5q0 136 -35 254t-103 211t-179 147t-252 54q-142 0 -253.5 -54t-180 -147t-103.5 -211t-35 -254q0 -108 21.5 -205.5t67.5 -181.5t112.5 -146t161.5 -97t209 -35zM711 1597v199h100v-199h-100z" />
    <glyph glyph-name="uni022F" unicode="&#x22f;" horiz-adv-x="1140" 
d="M571 -25q-153 0 -265 75t-167 199.5t-55 282.5t55 282.5t167 200t265 75.5q115 0 208 -43.5t154 -119t93.5 -177t32.5 -218.5q0 -157 -55.5 -282t-168 -200t-264.5 -75zM571 68q183 0 283 130.5t100 333.5t-100 334t-283 131q-124 0 -212.5 -63t-130.5 -166.5t-42 -235.5
t42 -235t130.5 -166t212.5 -63zM520 1276v199h101v-199h-101z" />
    <glyph glyph-name="uni0237" unicode="&#x237;" horiz-adv-x="360" 
d="M236 -162q0 -59 -9 -100t-32.5 -76.5t-69.5 -53.5t-115 -18h-141v88h131q79 0 107 41.5t28 124.5v1221h101v-1227z" />
    <glyph glyph-name="circumflex" unicode="&#x2c6;" horiz-adv-x="663" 
d="M406 1499l258 -299h-99l-233 236l-234 -236h-98l258 299h148z" />
    <glyph glyph-name="caron" unicode="&#x2c7;" horiz-adv-x="663" 
d="M258 1200l-258 299h98l234 -235l233 235h99l-258 -299h-148z" />
    <glyph glyph-name="breve" unicode="&#x2d8;" horiz-adv-x="600" 
d="M301 1188q-134 0 -214.5 79.5t-86.5 215.5h88q6 -102 62 -156.5t151 -54.5q94 0 150.5 55t62.5 156h86q-6 -136 -86 -215.5t-213 -79.5z" />
    <glyph glyph-name="dotaccent" unicode="&#x2d9;" horiz-adv-x="100" 
d="M0 1276v199h100v-199h-100z" />
    <glyph glyph-name="ring" unicode="&#x2da;" horiz-adv-x="471" 
d="M236 1188q-99 0 -167.5 66.5t-68.5 162.5q0 97 69 163.5t167 66.5t166.5 -66.5t68.5 -163.5t-68.5 -163t-166.5 -66zM236 1266q68 0 111.5 42t43.5 109t-43.5 109.5t-111.5 42.5t-112 -42.5t-44 -109.5t44 -109t112 -42z" />
    <glyph glyph-name="ogonek" unicode="&#x2db;" horiz-adv-x="337" 
d="M203 -434q-92 0 -147.5 43.5t-55.5 120.5q0 152 266 282h53l19 -12q-115 -64 -178.5 -127.5t-63.5 -118.5q0 -52 35 -77t94 -25t113 22v-84q-57 -24 -135 -24z" />
    <glyph glyph-name="tilde" unicode="&#x2dc;" horiz-adv-x="649" 
d="M0 1245q0 119 41.5 178.5t132.5 59.5q27 0 56.5 -12t45.5 -22.5t48 -33.5q11 -7 35.5 -25t38 -27t34 -17.5t37.5 -8.5q52 0 72 34.5t20 111.5h88q0 -118 -42 -178t-132 -60q-27 0 -57 11.5t-46.5 22.5t-47.5 34q-8 6 -27.5 20.5t-31 22t-28 17t-31 14t-28.5 4.5
q-51 0 -70.5 -34.5t-19.5 -111.5h-88z" />
    <glyph glyph-name="gravecomb" unicode="&#x300;" horiz-adv-x="0" 
d="M354 1200h-92l-262 299h131z" />
    <glyph glyph-name="acutecomb" unicode="&#x301;" horiz-adv-x="0" 
d="M0 1200l223 299h131l-262 -299h-92z" />
    <glyph glyph-name="uni0302" unicode="&#x302;" horiz-adv-x="0" 
d="M406 1499l258 -299h-99l-233 236l-234 -236h-98l258 299h148z" />
    <glyph glyph-name="tildecomb" unicode="&#x303;" horiz-adv-x="0" 
d="M0 1245q0 119 41.5 178.5t132.5 59.5q27 0 56.5 -12t45.5 -22.5t48 -33.5q11 -7 35.5 -25t38 -27t34 -17.5t37.5 -8.5q52 0 72 34.5t20 111.5h88q0 -118 -42 -178t-132 -60q-27 0 -57 11.5t-46.5 22.5t-47.5 34q-8 6 -27.5 20.5t-31 22t-28 17t-31 14t-28.5 4.5
q-51 0 -70.5 -34.5t-19.5 -111.5h-88z" />
    <glyph glyph-name="uni0306" unicode="&#x306;" horiz-adv-x="0" 
d="M301 1188q-134 0 -214.5 79.5t-86.5 215.5h88q6 -102 62 -156.5t151 -54.5q94 0 150.5 55t62.5 156h86q-6 -136 -86 -215.5t-213 -79.5z" />
    <glyph glyph-name="uni0307" unicode="&#x307;" horiz-adv-x="0" 
d="M0 1276v199h100v-199h-100z" />
    <glyph glyph-name="uni0308" unicode="&#x308;" horiz-adv-x="0" 
d="M0 1276v199h100v-199h-100zM381 1276v199h100v-199h-100z" />
    <glyph glyph-name="uni030A" unicode="&#x30a;" horiz-adv-x="0" 
d="M236 1188q-99 0 -167.5 66.5t-68.5 162.5q0 97 69 163.5t167 66.5t166.5 -66.5t68.5 -163.5t-68.5 -163t-166.5 -66zM236 1266q68 0 111.5 42t43.5 109t-43.5 109.5t-111.5 42.5t-112 -42.5t-44 -109.5t44 -109t112 -42z" />
    <glyph glyph-name="uni030C" unicode="&#x30c;" horiz-adv-x="0" 
d="M258 1200l-258 299h98l234 -235l233 235h99l-258 -299h-148z" />
    <glyph glyph-name="dotbelowcomb" unicode="&#x323;" horiz-adv-x="0" 
d="M0 -410v199h100v-199h-100z" />
    <glyph glyph-name="uni0327" unicode="&#x327;" horiz-adv-x="0" 
d="M141 -442q-86 0 -141 14v66q67 -13 115 -13q174 0 174 103q0 100 -168 100q-23 0 -55 -4v55l88 133l86 -6l-95 -121h13q107 0 167 -39.5t60 -117.5q0 -79 -64 -124.5t-180 -45.5z" />
    <glyph glyph-name="uni0328" unicode="&#x328;" horiz-adv-x="0" 
d="M203 -434q-92 0 -147.5 43.5t-55.5 120.5q0 152 266 282h53l19 -12q-115 -64 -178.5 -127.5t-63.5 -118.5q0 -52 35 -77t94 -25t113 22v-84q-57 -24 -135 -24z" />
    <glyph glyph-name="uni1E02" unicode="&#x1e02;" horiz-adv-x="1280" 
d="M139 0v1475h559q230 0 350.5 -106t120.5 -275q0 -113 -55.5 -198t-165.5 -128q137 -39 208 -133t71 -232q0 -184 -125.5 -293.5t-358.5 -109.5h-604zM567 1573v199h101v-199h-101zM244 96h501q183 0 280 81.5t97 225.5q0 145 -97 227.5t-280 82.5h-501v-617zM244 809h461
q178 0 270 77.5t92 207.5t-92 207t-270 77h-461v-569z" />
    <glyph glyph-name="uni1E03" unicode="&#x1e03;" horiz-adv-x="1175" 
d="M127 0v1475h100v-623q57 112 154.5 175t230.5 63q152 0 262.5 -75.5t164 -200t53.5 -282.5q0 -118 -31.5 -218.5t-90.5 -176.5t-151 -119t-207 -43q-135 0 -234 65t-155 181v-221h-96zM606 68q183 0 282 130.5t99 333.5q0 132 -41.5 235.5t-129 166.5t-210.5 63
q-183 0 -283 -131t-100 -334t100 -333.5t283 -130.5zM127 1573v199h100v-199h-100z" />
    <glyph glyph-name="uni1E0A" unicode="&#x1e0a;" horiz-adv-x="1384" 
d="M139 0v1475h439q144 0 264 -38t205 -105.5t143.5 -160.5t86.5 -202.5t28 -231.5t-28 -231.5t-86.5 -202t-143.5 -160t-205 -105.5t-264 -38h-439zM573 1573v199h101v-199h-101zM244 96h334q155 0 275.5 50t194 138.5t111 203t37.5 249.5t-37.5 249.5t-111 203t-194 138.5
t-275.5 50h-334v-1282z" />
    <glyph glyph-name="uni1E0B" unicode="&#x1e0b;" horiz-adv-x="1175" 
d="M1049 0h-97v221q-56 -116 -155 -181t-234 -65q-152 0 -262 75t-163.5 199.5t-53.5 282.5t53.5 282.5t163.5 200t262 75.5q133 0 230.5 -63t154.5 -175v623h101v-1475zM569 68q183 0 283 130.5t100 333.5t-100 334t-283 131q-123 0 -210.5 -63t-129 -166.5t-41.5 -235.5
q0 -203 99 -333.5t282 -130.5zM948 1573v199h101v-199h-101z" />
    <glyph glyph-name="uni1E1E" unicode="&#x1e1e;" horiz-adv-x="1128" 
d="M139 0v1475h938v-97h-833v-561h792v-96h-792v-721h-105zM557 1573v199h100v-199h-100z" />
    <glyph glyph-name="uni1E1F" unicode="&#x1e1f;" horiz-adv-x="694" 
d="M233 1227q0 59 9 100t32.5 76.5t69.5 53.5t115 18h184v-89h-174q-79 0 -107 -41t-28 -124v-156h309v-88h-309v-977h-101v977h-202v88h202v162zM387 1686v198h100v-198h-100z" />
    <glyph glyph-name="uni1E22" unicode="&#x1e22;" horiz-adv-x="1402" 
d="M1161 0v717h-917v-717h-105v1475h105v-662h917v662h103v-1475h-103zM651 1573v199h101v-199h-101z" />
    <glyph glyph-name="uni1E23" unicode="&#x1e23;" 
d="M127 0v1475h100v-603q53 100 143.5 159t217.5 59q185 0 283 -108.5t98 -293.5v-688h-101v678q0 156 -76 237.5t-221 81.5q-67 0 -128.5 -27t-109.5 -76.5t-77 -126.5t-29 -171v-596h-100zM127 1573v199h100v-199h-100z" />
    <glyph glyph-name="uni1E28" unicode="&#x1e28;" horiz-adv-x="1402" 
d="M1161 0v717h-917v-717h-8l-91 -115h13q107 0 167 -39.5t60 -117.5q0 -79 -64 -124.5t-180 -45.5q-86 0 -141 14v66q67 -13 115 -13q174 0 174 103q0 100 -168 100q-23 0 -55 -4v55l79 121h-6v1475h105v-662h917v662h103v-1475h-103z" />
    <glyph glyph-name="uni1E29" unicode="&#x1e29;" 
d="M127 0v1475h100v-603q53 100 143.5 159t217.5 59q185 0 283 -108.5t98 -293.5v-688h-101v678q0 156 -76 237.5t-221 81.5q-67 0 -128.5 -27t-109.5 -76.5t-77 -126.5t-29 -171v-596h-6l-90 -115h12q107 0 167.5 -39.5t60.5 -117.5q0 -79 -64 -124.5t-180 -45.5
q-86 0 -141 14v66q67 -13 114 -13q174 0 174 103q0 100 -168 100q-23 0 -55 -4v55l80 121h-4z" />
    <glyph glyph-name="uni1E30" unicode="&#x1e30;" horiz-adv-x="1331" 
d="M139 0v1475h105v-887l905 887h139l-637 -619l649 -856h-129l-596 782l-331 -321v-461h-105zM643 1573l223 299h131l-262 -299h-92z" />
    <glyph glyph-name="uni1E31" unicode="&#x1e31;" horiz-adv-x="1017" 
d="M127 0v1475h104v-983l594 573h133l-432 -416l465 -649h-121l-413 582l-226 -217v-365h-104zM133 1573l223 299h131l-262 -299h-92z" />
    <glyph glyph-name="uni1E3E" unicode="&#x1e3e;" horiz-adv-x="1730" 
d="M815 0l-573 1303v-1303h-103v1475h135l592 -1362l590 1362h135v-1475h-102v1298l-571 -1298h-103zM819 1573l223 299h132l-263 -299h-92z" />
    <glyph glyph-name="uni1E3F" unicode="&#x1e3f;" horiz-adv-x="1751" 
d="M1524 678q0 152 -77 235.5t-200 83.5q-138 0 -229.5 -107t-91.5 -294v-596h-101v678q0 152 -76.5 235.5t-199.5 83.5q-138 0 -230 -107t-92 -294v-596h-100v1065h96v-199q99 224 342 224q125 0 213.5 -66.5t124.5 -183.5q44 114 134.5 182t226.5 68q162 0 261 -111
t99 -291v-688h-100v678zM829 1200l224 299h131l-262 -299h-93z" />
    <glyph glyph-name="uni1E40" unicode="&#x1e40;" horiz-adv-x="1730" 
d="M815 0l-573 1303v-1303h-103v1475h135l592 -1362l590 1362h135v-1475h-102v1298l-571 -1298h-103zM815 1573v199h100v-199h-100z" />
    <glyph glyph-name="uni1E41" unicode="&#x1e41;" horiz-adv-x="1751" 
d="M1524 678q0 152 -77 235.5t-200 83.5q-138 0 -229.5 -107t-91.5 -294v-596h-101v678q0 152 -76.5 235.5t-199.5 83.5q-138 0 -230 -107t-92 -294v-596h-100v1065h96v-199q99 224 342 224q125 0 213.5 -66.5t124.5 -183.5q44 114 134.5 182t226.5 68q162 0 261 -111
t99 -291v-688h-100v678zM825 1276v199h101v-199h-101z" />
    <glyph glyph-name="uni1E44" unicode="&#x1e44;" horiz-adv-x="1415" 
d="M1149 0l-905 1333v-1333h-105v1475h129l906 -1336v1336h102v-1475h-127zM655 1573v199h101v-199h-101z" />
    <glyph glyph-name="uni1E45" unicode="&#x1e45;" 
d="M868 678q0 156 -76 237.5t-221 81.5q-67 0 -128.5 -27t-109.5 -76.5t-77 -126.5t-29 -171v-596h-100v1065h96v-201q50 103 143 164.5t222 61.5q185 0 283 -108.5t98 -293.5v-688h-101v678zM498 1276v199h100v-199h-100z" />
    <glyph glyph-name="uni1E56" unicode="&#x1e56;" horiz-adv-x="1294" 
d="M139 0v1475h568q231 0 357 -121t126 -312t-126 -311.5t-357 -120.5h-463v-610h-105zM578 1573v199h100v-199h-100zM244 707h463q181 0 278.5 92t97.5 243t-97.5 243.5t-278.5 92.5h-463v-671z" />
    <glyph glyph-name="uni1E57" unicode="&#x1e57;" horiz-adv-x="1175" 
d="M127 1065h96v-221q56 116 155 181t234 65q152 0 262.5 -75.5t164 -200t53.5 -282.5q0 -118 -31.5 -218.5t-90.5 -176.5t-151 -119t-207 -43q-133 0 -230.5 63t-154.5 175v-623h-100v1475zM606 997q-183 0 -283 -131t-100 -334t100 -333.5t283 -130.5t282 130.5t99 333.5
q0 132 -41.5 235.5t-129 166.5t-210.5 63zM559 1276v199h100v-199h-100z" />
    <glyph glyph-name="uni1E58" unicode="&#x1e58;" horiz-adv-x="1286" 
d="M139 0v1475h584q233 0 358 -109t125 -295q0 -125 -66.5 -218.5t-201.5 -143.5q176 -50 207 -246l78 -463h-107l-63 391q-11 69 -29.5 116t-54.5 85t-94.5 56t-143.5 18h-487v-666h-105zM584 1573v199h100v-199h-100zM244 762h479q181 0 278 82.5t97 226.5
q0 142 -97 224.5t-278 82.5h-479v-616z" />
    <glyph glyph-name="uni1E59" unicode="&#x1e59;" horiz-adv-x="729" 
d="M127 0v1065h96v-229q105 241 373 241h84v-98h-92q-71 0 -134 -23.5t-114.5 -70t-81.5 -125t-31 -180.5v-580h-100zM352 1276v199h101v-199h-101z" />
    <glyph glyph-name="uni1E60" unicode="&#x1e60;" horiz-adv-x="1255" 
d="M659 -25q-263 0 -419 124.5t-168 385.5h106q6 -111 44 -192.5t104 -129t148 -69.5t185 -22q198 0 312 85.5t114 229.5q0 65 -17 109t-66 85.5t-140.5 73t-236.5 58.5q-278 52 -391 145.5t-113 267.5q0 166 136 269.5t357 103.5q257 0 395.5 -129t143.5 -342h-106
q-6 184 -118 279.5t-315 95.5q-179 0 -283 -76t-104 -201q0 -53 10 -90t37 -72.5t76.5 -62t127.5 -50.5t190 -46q130 -25 223 -57t151 -67.5t91.5 -83t46 -96.5t12.5 -114q0 -184 -144 -298t-389 -114zM582 1597v199h100v-199h-100z" />
    <glyph glyph-name="uni1E61" unicode="&#x1e61;" horiz-adv-x="978" 
d="M502 -25q-199 0 -315 99t-124 274h101q9 -139 95.5 -212t242.5 -73q141 0 227 54t86 162q0 62 -23 99t-92.5 66.5t-201.5 49.5q-155 24 -243.5 65t-123.5 98.5t-35 145.5q0 132 106.5 209.5t276.5 77.5q198 0 303 -93t111 -260h-100q-15 264 -314 264q-125 0 -203.5 -51
t-78.5 -145q0 -98 67 -143.5t262 -75.5q151 -25 237 -66t119 -96.5t33 -140.5q0 -102 -58.5 -173.5t-149.5 -103t-205 -31.5zM438 1276v199h101v-199h-101z" />
    <glyph glyph-name="uni1E6A" unicode="&#x1e6a;" horiz-adv-x="1263" 
d="M578 0v1378h-529v97h1165v-97h-528v-1378h-108zM582 1573v199h100v-199h-100z" />
    <glyph glyph-name="uni1E6B" unicode="&#x1e6b;" horiz-adv-x="694" 
d="M233 1393h101v-328h309v-88h-309v-723q0 -83 28 -124.5t107 -41.5h174v-88h-184q-69 0 -115 18t-69.5 53.5t-32.5 76.5t-9 100v729h-202v88h202v328zM233 1604v198h101v-198h-101z" />
    <glyph glyph-name="uni1E7C" unicode="&#x1e7c;" horiz-adv-x="1341" 
d="M612 0l-581 1475h112l529 -1358l526 1358h111l-582 -1475h-115zM346 1573q0 119 41 178t133 59q27 0 56.5 -11.5t46.5 -22.5t47 -33q11 -7 35.5 -25t38 -27t34 -17.5t37.5 -8.5q52 0 72 34t20 111h88q0 -118 -42 -177.5t-132 -59.5q-28 0 -57 11t-46.5 22.5t-47.5 33.5
q-8 6 -27.5 20.5t-31 22t-28 17t-31 14t-28.5 4.5q-51 0 -70.5 -34t-19.5 -111h-88z" />
    <glyph glyph-name="uni1E7D" unicode="&#x1e7d;" horiz-adv-x="1050" 
d="M473 0l-440 1065h108l385 -959l383 959h109l-443 -1065h-102zM201 1245q0 119 41.5 178.5t132.5 59.5q27 0 56.5 -12t44.5 -22t48 -34q10 -7 35.5 -25.5t39 -27t34 -17t37.5 -8.5q52 0 72 34.5t20 111.5h88q0 -118 -42 -178t-132 -60q-27 0 -57 11.5t-47.5 23t-47.5 33.5
q-6 4 -34 24.5t-39.5 28t-33 16.5t-38.5 9q-51 0 -70.5 -34.5t-19.5 -111.5h-88z" />
    <glyph glyph-name="Wgrave" unicode="&#x1e80;" horiz-adv-x="2029" 
d="M1417 0l-401 1335l-402 -1335h-116l-467 1475h110l416 -1328l399 1328h117l402 -1332l415 1332h109l-467 -1475h-115zM1061 1573h-92l-262 299h131z" />
    <glyph glyph-name="wgrave" unicode="&#x1e81;" horiz-adv-x="1675" 
d="M1141 0l-303 938l-303 -938h-107l-397 1065h104l344 -942l305 942h107l305 -942l342 942h107l-400 -1065h-104zM883 1200h-92l-263 299h131z" />
    <glyph glyph-name="Wacute" unicode="&#x1e82;" horiz-adv-x="2029" 
d="M1417 0l-401 1335l-402 -1335h-116l-467 1475h110l416 -1328l399 1328h117l402 -1332l415 1332h109l-467 -1475h-115zM969 1573l223 299h131l-262 -299h-92z" />
    <glyph glyph-name="wacute" unicode="&#x1e83;" horiz-adv-x="1675" 
d="M1141 0l-303 938l-303 -938h-107l-397 1065h104l344 -942l305 942h107l305 -942l342 942h107l-400 -1065h-104zM793 1200l223 299h131l-262 -299h-92z" />
    <glyph glyph-name="Wdieresis" unicode="&#x1e84;" horiz-adv-x="2029" 
d="M1417 0l-401 1335l-402 -1335h-116l-467 1475h110l416 -1328l399 1328h117l402 -1332l415 1332h109l-467 -1475h-115zM774 1573v199h100v-199h-100zM1155 1573v199h100v-199h-100z" />
    <glyph glyph-name="wdieresis" unicode="&#x1e85;" horiz-adv-x="1675" 
d="M1141 0l-303 938l-303 -938h-107l-397 1065h104l344 -942l305 942h107l305 -942l342 942h107l-400 -1065h-104zM596 1276v199h100v-199h-100zM977 1276v199h100v-199h-100z" />
    <glyph glyph-name="uni1E86" unicode="&#x1e86;" horiz-adv-x="2029" 
d="M1417 0l-401 1335l-402 -1335h-116l-467 1475h110l416 -1328l399 1328h117l402 -1332l415 1332h109l-467 -1475h-115zM965 1573v199h100v-199h-100z" />
    <glyph glyph-name="uni1E87" unicode="&#x1e87;" horiz-adv-x="1675" 
d="M1141 0l-303 938l-303 -938h-107l-397 1065h104l344 -942l305 942h107l305 -942l342 942h107l-400 -1065h-104zM786 1276v199h101v-199h-101z" />
    <glyph glyph-name="uni1E8A" unicode="&#x1e8a;" horiz-adv-x="1302" 
d="M1149 0l-500 680l-499 -680h-119l559 760l-524 715h122l463 -631l465 631h117l-522 -711l561 -764h-123zM602 1573v199h100v-199h-100z" />
    <glyph glyph-name="uni1E8B" unicode="&#x1e8b;" horiz-adv-x="995" 
d="M848 0l-350 467l-353 -467h-116l409 545l-391 520h119l332 -440l331 440h119l-391 -520l410 -545h-119zM446 1276v199h101v-199h-101z" />
    <glyph glyph-name="uni1E8E" unicode="&#x1e8e;" horiz-adv-x="1345" 
d="M621 0v623l-590 852h121l522 -754l520 754h119l-588 -848v-627h-104zM623 1573v199h100v-199h-100z" />
    <glyph glyph-name="uni1E8F" unicode="&#x1e8f;" horiz-adv-x="1009" 
d="M59 -410v88h148q42 0 70.5 9t48.5 32.5t31 46t28 66.5l68 170l-420 1063h108l363 -946l364 946h109l-498 -1260q-14 -37 -23.5 -59t-25 -50.5t-32 -44.5t-39.5 -32t-53 -22.5t-68 -6.5h-179zM455 1276v199h100v-199h-100z" />
    <glyph glyph-name="uni1EBC" unicode="&#x1ebc;" horiz-adv-x="1191" 
d="M139 0v1475h979v-97h-874v-561h813v-96h-813v-625h882v-96h-987zM305 1573q0 119 41 178t133 59q27 0 56.5 -11.5t46.5 -22.5t47 -33q11 -7 35.5 -25t38 -27t34 -17.5t37.5 -8.5q52 0 72 34t20 111h88q0 -118 -42 -177.5t-132 -59.5q-28 0 -57 11t-46.5 22.5t-47.5 33.5
q-8 6 -27.5 20.5t-31 22t-28 17t-31 14t-28.5 4.5q-51 0 -70.5 -34t-19.5 -111h-88z" />
    <glyph glyph-name="uni1EBD" unicode="&#x1ebd;" horiz-adv-x="1120" 
d="M561 -25q-148 0 -258 75t-164.5 200t-54.5 282t54.5 282.5t164.5 200.5t258 75q147 0 257 -75t165 -200.5t55 -282.5v-32h-852q5 -123 48.5 -219.5t128 -154.5t198.5 -58q132 0 225.5 75t131.5 201h102q-46 -169 -165 -269t-294 -100zM236 1245q0 119 41.5 178.5
t132.5 59.5q27 0 56.5 -12t44.5 -22t48 -34q10 -7 35.5 -25.5t39 -27t34 -17t37.5 -8.5q52 0 72 34.5t20 111.5h88q0 -118 -42 -178t-132 -60q-27 0 -57 11.5t-47.5 23t-47.5 33.5q-6 4 -34 24.5t-39.5 28t-33 16.5t-38.5 9q-51 0 -70.5 -34.5t-19.5 -111.5h-88zM188 592
h744q-14 179 -111 292t-260 113q-164 0 -261.5 -113t-111.5 -292z" />
    <glyph glyph-name="Ygrave" unicode="&#x1ef2;" horiz-adv-x="1345" 
d="M621 0v623l-590 852h121l522 -754l520 754h119l-588 -848v-627h-104zM719 1573h-92l-262 299h131z" />
    <glyph glyph-name="ygrave" unicode="&#x1ef3;" horiz-adv-x="1009" 
d="M59 -410v88h148q42 0 70.5 9t48.5 32.5t31 46t28 66.5l68 170l-420 1063h108l363 -946l364 946h109l-498 -1260q-14 -37 -23.5 -59t-25 -50.5t-32 -44.5t-39.5 -32t-53 -22.5t-68 -6.5h-179zM551 1200h-92l-262 299h131z" />
    <glyph glyph-name="uni1EF8" unicode="&#x1ef8;" horiz-adv-x="1345" 
d="M621 0v623l-590 852h121l522 -754l520 754h119l-588 -848v-627h-104zM348 1573q0 119 41 178t133 59q27 0 56.5 -11.5t46.5 -22.5t47 -33q11 -7 35.5 -25t38 -27t34 -17.5t37.5 -8.5q52 0 72 34t20 111h88q0 -118 -42 -177.5t-132 -59.5q-28 0 -57 11t-46.5 22.5
t-47.5 33.5q-8 6 -27.5 20.5t-31 22t-28 17t-31 14t-28.5 4.5q-51 0 -70.5 -34t-19.5 -111h-88z" />
    <glyph glyph-name="uni1EF9" unicode="&#x1ef9;" horiz-adv-x="1009" 
d="M59 -410v88h148q42 0 70.5 9t48.5 32.5t31 46t28 66.5l68 170l-420 1063h108l363 -946l364 946h109l-498 -1260q-14 -37 -23.5 -59t-25 -50.5t-32 -44.5t-39.5 -32t-53 -22.5t-68 -6.5h-179zM180 1245q0 119 41.5 178.5t132.5 59.5q27 0 56.5 -12t45.5 -22.5t48 -33.5
q11 -7 35.5 -25t38 -27t34 -17.5t37.5 -8.5q52 0 72 34.5t20 111.5h88q0 -118 -42 -178t-132 -60q-27 0 -57 11.5t-46.5 22.5t-47.5 34q-8 6 -27.5 20.5t-31 22t-28 17t-31 14t-28.5 4.5q-51 0 -70.5 -34.5t-19.5 -111.5h-88z" />
    <glyph glyph-name="endash" unicode="&#x2013;" horiz-adv-x="1081" 
d="M109 547v92h864v-92h-864z" />
    <glyph glyph-name="emdash" unicode="&#x2014;" horiz-adv-x="1898" 
d="M109 547v94h1683v-94h-1683z" />
    <glyph glyph-name="quoteleft" unicode="&#x2018;" horiz-adv-x="335" 
d="M203 1020h-105l121 455h76z" />
    <glyph glyph-name="quoteright" unicode="&#x2019;" horiz-adv-x="335" 
d="M133 1475h105l-121 -455h-76z" />
    <glyph glyph-name="quotesinglbase" unicode="&#x201a;" horiz-adv-x="335" 
d="M133 215h105l-121 -455h-76z" />
    <glyph glyph-name="quotedblleft" unicode="&#x201c;" horiz-adv-x="546" 
d="M414 1020h-105l121 455h76zM203 1020h-105l121 455h76z" />
    <glyph glyph-name="quotedblright" unicode="&#x201d;" horiz-adv-x="546" 
d="M133 1475h105l-121 -455h-76zM344 1475h105l-121 -455h-76z" />
    <glyph glyph-name="quotedblbase" unicode="&#x201e;" horiz-adv-x="546" 
d="M133 215h105l-121 -455h-76zM344 215h105l-121 -455h-76z" />
    <glyph glyph-name="dagger" unicode="&#x2020;" horiz-adv-x="1118" 
d="M508 -410v1379h-457v96h457v410h104v-410h457v-96h-457v-1379h-104z" />
    <glyph glyph-name="daggerdbl" unicode="&#x2021;" horiz-adv-x="1118" 
d="M508 -410v410h-457v96h457v873h-457v96h457v410h104v-410h457v-96h-457v-873h457v-96h-457v-410h-104z" />
    <glyph glyph-name="ellipsis" unicode="&#x2026;" horiz-adv-x="1271" 
d="M98 0v215h117v-215h-117zM578 0v215h116v-215h-116zM1057 0v215h117v-215h-117z" />
    <glyph glyph-name="perthousand" unicode="&#x2030;" horiz-adv-x="2344" 
d="M362 614q-106 0 -179 60.5t-105.5 158t-32.5 224.5q0 126 32.5 223.5t105.5 158t179 60.5q155 0 235.5 -124t80.5 -318q0 -127 -33 -224.5t-105.5 -158t-177.5 -60.5zM362 694q112 0 167 98.5t55 264.5q0 164 -55 263t-167 99t-167.5 -99t-55.5 -263q0 -165 55.5 -264
t167.5 -99zM375 0l782 1475h96l-782 -1475h-96zM1270 -25q-106 0 -179 60.5t-106 158t-33 224.5q0 126 33 223.5t106 158t179 60.5q105 0 177.5 -60.5t105 -158t32.5 -223.5q0 -196 -80 -319.5t-235 -123.5zM1270 55q112 0 166.5 98.5t54.5 264.5q0 165 -54.5 263.5
t-166.5 98.5t-167.5 -99t-55.5 -263q0 -165 55.5 -264t167.5 -99zM1985 -25q-106 0 -179 60.5t-106 158t-33 224.5q0 126 33 223.5t106 158t179 60.5q105 0 177.5 -60.5t105 -158t32.5 -223.5q0 -196 -80 -319.5t-235 -123.5zM1985 55q112 0 166.5 98.5t54.5 264.5
q0 165 -54.5 263.5t-166.5 98.5t-168 -99t-56 -263q0 -165 56 -264t168 -99z" />
    <glyph glyph-name="Euro" unicode="&#x20ac;" horiz-adv-x="1409" 
d="M774 -25q-131 0 -237 47t-176.5 131t-113.5 191.5t-59 235.5h-188v90h180l-2 67q0 39 4 113h-182v90h195q20 121 65 220t115 176t172 120t227 43q116 0 213.5 -40t165 -110.5t111 -160.5t59.5 -195h-104q-29 178 -145.5 294t-299.5 116q-103 0 -185.5 -35t-139.5 -98.5
t-93.5 -146t-54.5 -183.5h530v-90h-542q-4 -74 -4 -113l2 -67h544v-90h-536q14 -110 49 -200t92.5 -160t143.5 -109t194 -39q97 0 179 35.5t137 95.5t89.5 136.5t45.5 162.5h104q-13 -106 -55.5 -199.5t-110 -167.5t-168.5 -117t-221 -43z" />
    <glyph glyph-name="uni20BF" unicode="&#x20bf;" horiz-adv-x="1280" 
d="M420 -233v233h-281v1475h281v233h92v-233h186h13v233h90v-240q181 -24 274.5 -125t93.5 -249q0 -113 -55.5 -198t-165.5 -128q137 -39 208 -133t71 -232q0 -172 -109.5 -280t-316.5 -121v-235h-90v233h-199v-233h-92zM244 96h501q183 0 280 81.5t97 225.5
q0 145 -97 227.5t-280 82.5h-501v-617zM244 809h461q178 0 270 77.5t92 207.5t-92 207t-270 77h-461v-569z" />
    <glyph glyph-name="uni2117" unicode="&#x2117;" horiz-adv-x="1710" 
d="M856 -25q-164 0 -306.5 57t-244 156.5t-159.5 241.5t-58 307t58 307t159.5 241.5t244 156.5t306.5 57q219 0 393.5 -97t273.5 -271t99 -394t-99 -394t-273.5 -271t-393.5 -97zM856 59q299 0 487.5 188.5t188.5 489.5t-188.5 489.5t-487.5 188.5q-197 0 -351 -85
t-240.5 -239.5t-86.5 -353.5t86.5 -353.5t240.5 -239.5t351 -85zM926 1165q140 0 215.5 -72.5t75.5 -185.5q0 -114 -75 -186t-216 -72h-248v-340h-88v856h336zM924 729q98 0 150 48.5t52 129.5t-52 129.5t-150 48.5h-246v-356h246z" />
    <glyph glyph-name="uni2120" unicode="&#x2120;" horiz-adv-x="1288" 
d="M608 885v590h90l207 -514l207 514h90v-590h-63v489l-201 -489h-64l-200 483v-483h-66zM328 874q-108 0 -173 51t-69 156h66q8 -149 176 -149q69 0 110 30t41 82q0 44 -34 69t-136 46q-109 21 -157 59.5t-48 112.5q0 69 56.5 111.5t146.5 42.5q110 0 167.5 -53t60.5 -140
h-68q-6 135 -160 135q-61 0 -98 -26.5t-37 -69.5q0 -46 32 -70.5t132 -43.5q124 -25 167.5 -63.5t43.5 -106.5q0 -78 -59.5 -125.5t-159.5 -47.5z" />
    <glyph glyph-name="trademark" unicode="&#x2122;" horiz-adv-x="1302" 
d="M623 885v590h90l207 -517l206 517h91v-590h-64v489l-203 -489h-61l-203 489v-489h-63zM289 885v530h-203v60h475v-60h-203v-530h-69z" />
    <glyph glyph-name="arrowleft" unicode="&#x2190;" horiz-adv-x="1974" 
d="M1749 690h-1356l617 -690h-125l-660 737l660 738h125l-617 -691h1356v-94z" />
    <glyph glyph-name="arrowup" unicode="&#x2191;" horiz-adv-x="1925" 
d="M1010 -25h-95v1356l-690 -616v125l738 659l737 -659v-125l-690 616v-1356z" />
    <glyph glyph-name="arrowright" unicode="&#x2192;" horiz-adv-x="1974" 
d="M225 690v94h1356l-616 691h125l659 -738l-659 -737h-125l616 690h-1356z" />
    <glyph glyph-name="arrowdown" unicode="&#x2193;" horiz-adv-x="1925" 
d="M1010 1499v-1356l690 617v-125l-737 -660l-738 660v125l690 -617v1356h95z" />
    <glyph glyph-name="arrowboth" unicode="&#x2194;" horiz-adv-x="2457" 
d="M885 0l-660 737l660 738h125l-617 -691h1671l-616 691h125l659 -738l-659 -737h-125l616 690h-1671l617 -690h-125z" />
    <glyph glyph-name="arrowupdn" unicode="&#x2195;" horiz-adv-x="1925" 
d="M1700 1008l-690 616v-1774l690 617v-125l-737 -659l-738 659v125l690 -617v1774l-690 -616v125l738 659l737 -659v-125z" />
    <glyph glyph-name="uni2196" unicode="&#x2196;" horiz-adv-x="1904" 
d="M1526 98l-1127 1127v-1133l-92 92v1198h1198l92 -92h-1132l1126 -1126z" />
    <glyph glyph-name="uni2197" unicode="&#x2197;" horiz-adv-x="1904" 
d="M379 98l-66 66l1127 1126h-1133l92 92h1198v-1198l-92 -92v1133z" />
    <glyph glyph-name="uni2198" unicode="&#x2198;" horiz-adv-x="1904" 
d="M379 1374l1126 -1126v1132l92 -92v-1198h-1198l-92 92h1133l-1127 1127z" />
    <glyph glyph-name="uni2199" unicode="&#x2199;" horiz-adv-x="1904" 
d="M1526 1374l65 -65l-1126 -1127h1132l-92 -92h-1198v1198l92 92v-1132z" />
    <glyph glyph-name="minus" unicode="&#x2212;" horiz-adv-x="1081" 
d="M109 692v92h864v-92h-864z" />
    <glyph glyph-name="lessequal" unicode="&#x2264;" horiz-adv-x="1081" 
d="M109 784l864 398v-103l-766 -346l766 -346v-102l-864 397v102zM973 0h-864v92h864v-92z" />
    <glyph glyph-name="greaterequal" unicode="&#x2265;" horiz-adv-x="1081" 
d="M973 682l-864 -397v102l765 346l-765 346v103l864 -398v-102zM109 0v92h864v-92h-864z" />
    <glyph glyph-name="filledbox" unicode="&#x25a0;" horiz-adv-x="1892" 
d="M0 1659h1892v-1843h-1892v1843z" />
    <glyph glyph-name="uni25A1" unicode="&#x25a1;" horiz-adv-x="1892" 
d="M0 -184v1843h1892v-1843h-1892zM98 -94h1696v1663h-1696v-1663z" />
    <glyph glyph-name="triagup" unicode="&#x25b2;" horiz-adv-x="1941" 
d="M0 -209l971 1892l971 -1892h-1942z" />
    <glyph glyph-name="uni25B3" unicode="&#x25b3;" horiz-adv-x="1941" 
d="M0 -209l971 1892l971 -1892h-1942zM154 -117h1634l-817 1598z" />
    <glyph glyph-name="uni25B6" unicode="&#x25b6;" horiz-adv-x="1941" 
d="M25 1708l1892 -971l-1892 -970v1941z" />
    <glyph glyph-name="uni25B7" unicode="&#x25b7;" horiz-adv-x="1941" 
d="M25 1708l1892 -971l-1892 -970v1941zM117 -80l1597 817l-1597 817v-1634z" />
    <glyph glyph-name="triagdn" unicode="&#x25bc;" horiz-adv-x="1941" 
d="M0 1683h1942l-971 -1892z" />
    <glyph glyph-name="uni25BD" unicode="&#x25bd;" horiz-adv-x="1941" 
d="M0 1683h1942l-971 -1892zM154 1591l817 -1597l817 1597h-1634z" />
    <glyph glyph-name="uni25C0" unicode="&#x25c0;" horiz-adv-x="1941" 
d="M1917 -233l-1892 970l1892 971v-1941z" />
    <glyph glyph-name="uni25C1" unicode="&#x25c1;" horiz-adv-x="1941" 
d="M1917 -233l-1892 970l1892 971v-1941zM227 737l1598 -817v1634z" />
    <glyph glyph-name="circle" unicode="&#x25cb;" horiz-adv-x="1941" 
d="M971 -209q-198 0 -378 75t-309.5 201.5t-206.5 302t-77 367.5t77 367.5t206.5 302t309.5 201.5t378 75t378 -75t309.5 -201.5t206.5 -302t77 -367.5t-77 -367.5t-206.5 -302t-309.5 -201.5t-378 -75zM971 -117q177 0 338.5 67.5t278.5 181.5t186 272.5t69 332.5
t-69 332.5t-186 272.5t-278.5 181.5t-338.5 67.5t-338.5 -67.5t-278.5 -181.5t-186.5 -272.5t-69.5 -332.5t69.5 -332.5t186.5 -272.5t278.5 -181.5t338.5 -67.5z" />
    <glyph glyph-name="uni25CF" unicode="&#x25cf;" horiz-adv-x="1941" 
d="M971 -209q-198 0 -378 75t-309.5 201.5t-206.5 302t-77 367.5t77 367.5t206.5 302t309.5 201.5t378 75t378 -75t309.5 -201.5t206.5 -302t77 -367.5t-77 -367.5t-206.5 -302t-309.5 -201.5t-378 -75z" />
    <glyph glyph-name="uni004A0301" horiz-adv-x="1093" 
d="M530 -25q-206 0 -324 129.5t-118 360.5v67h102v-67q0 -192 90 -292.5t250 -100.5t250 100.5t90 292.5v1010h105v-1010q0 -230 -119 -360t-326 -130zM877 1573l223 299h131l-262 -299h-92z" />
    <glyph glyph-name="G.ss06" horiz-adv-x="1505" 
d="M762 -25q-134 0 -246 40.5t-190.5 111.5t-134 167.5t-81.5 208.5t-26 234t26 234t81.5 208.5t134 167.5t190.5 111.5t246 40.5q132 0 242 -39.5t188 -110.5t131.5 -164t81.5 -206h-109q-53 193 -187 308.5t-347 115.5q-142 0 -253.5 -54t-180 -147t-103.5 -211t-35 -254
q0 -108 21.5 -205.5t67.5 -181.5t112.5 -146t161.5 -97t209 -35q134 0 239.5 47t171.5 129t102.5 186t41.5 225h-617v97h719q2 -14 2 -45q1 -118 -24 -226t-78.5 -201t-130.5 -162t-186.5 -108t-239.5 -39z" />
    <glyph glyph-name="uni01F4.ss06" horiz-adv-x="1505" 
d="M762 -25q-134 0 -246 40.5t-190.5 111.5t-134 167.5t-81.5 208.5t-26 234t26 234t81.5 208.5t134 167.5t190.5 111.5t246 40.5q132 0 242 -39.5t188 -110.5t131.5 -164t81.5 -206h-109q-53 193 -187 308.5t-347 115.5q-142 0 -253.5 -54t-180 -147t-103.5 -211t-35 -254
q0 -108 21.5 -205.5t67.5 -181.5t112.5 -146t161.5 -97t209 -35q134 0 239.5 47t171.5 129t102.5 186t41.5 225h-617v97h719q2 -14 2 -45q1 -118 -24 -226t-78.5 -201t-130.5 -162t-186.5 -108t-239.5 -39zM715 1597l223 299h131l-262 -299h-92z" />
    <glyph glyph-name="Gbreve.ss06" horiz-adv-x="1505" 
d="M762 -25q-134 0 -246 40.5t-190.5 111.5t-134 167.5t-81.5 208.5t-26 234t26 234t81.5 208.5t134 167.5t190.5 111.5t246 40.5q132 0 242 -39.5t188 -110.5t131.5 -164t81.5 -206h-109q-53 193 -187 308.5t-347 115.5q-142 0 -253.5 -54t-180 -147t-103.5 -211t-35 -254
q0 -108 21.5 -205.5t67.5 -181.5t112.5 -146t161.5 -97t209 -35q134 0 239.5 47t171.5 129t102.5 186t41.5 225h-617v97h719q2 -14 2 -45q1 -118 -24 -226t-78.5 -201t-130.5 -162t-186.5 -108t-239.5 -39zM762 1585q-134 0 -214.5 79.5t-86.5 215.5h88q6 -102 62 -156.5
t151 -54.5q94 0 150.5 55t62.5 156h86q-6 -136 -86 -215.5t-213 -79.5z" />
    <glyph glyph-name="Gcaron.ss06" horiz-adv-x="1505" 
d="M762 -25q-134 0 -246 40.5t-190.5 111.5t-134 167.5t-81.5 208.5t-26 234t26 234t81.5 208.5t134 167.5t190.5 111.5t246 40.5q132 0 242 -39.5t188 -110.5t131.5 -164t81.5 -206h-109q-53 193 -187 308.5t-347 115.5q-142 0 -253.5 -54t-180 -147t-103.5 -211t-35 -254
q0 -108 21.5 -205.5t67.5 -181.5t112.5 -146t161.5 -97t209 -35q134 0 239.5 47t171.5 129t102.5 186t41.5 225h-617v97h719q2 -14 2 -45q1 -118 -24 -226t-78.5 -201t-130.5 -162t-186.5 -108t-239.5 -39zM688 1597l-258 299h98l234 -235l233 235h99l-258 -299h-148z" />
    <glyph glyph-name="Gcircumflex.ss06" horiz-adv-x="1505" 
d="M762 -25q-134 0 -246 40.5t-190.5 111.5t-134 167.5t-81.5 208.5t-26 234t26 234t81.5 208.5t134 167.5t190.5 111.5t246 40.5q132 0 242 -39.5t188 -110.5t131.5 -164t81.5 -206h-109q-53 193 -187 308.5t-347 115.5q-142 0 -253.5 -54t-180 -147t-103.5 -211t-35 -254
q0 -108 21.5 -205.5t67.5 -181.5t112.5 -146t161.5 -97t209 -35q134 0 239.5 47t171.5 129t102.5 186t41.5 225h-617v97h719q2 -14 2 -45q1 -118 -24 -226t-78.5 -201t-130.5 -162t-186.5 -108t-239.5 -39zM836 1896l258 -299h-99l-233 236l-234 -236h-98l258 299h148z" />
    <glyph glyph-name="Gdotaccent.ss06" horiz-adv-x="1505" 
d="M762 -25q-134 0 -246 40.5t-190.5 111.5t-134 167.5t-81.5 208.5t-26 234t26 234t81.5 208.5t134 167.5t190.5 111.5t246 40.5q132 0 242 -39.5t188 -110.5t131.5 -164t81.5 -206h-109q-53 193 -187 308.5t-347 115.5q-142 0 -253.5 -54t-180 -147t-103.5 -211t-35 -254
q0 -108 21.5 -205.5t67.5 -181.5t112.5 -146t161.5 -97t209 -35q134 0 239.5 47t171.5 129t102.5 186t41.5 225h-617v97h719q2 -14 2 -45q1 -118 -24 -226t-78.5 -201t-130.5 -162t-186.5 -108t-239.5 -39zM711 1597v199h100v-199h-100z" />
    <glyph glyph-name="J.ss07" horiz-adv-x="718" 
d="M88 0v96h178q126 0 178 68t52 198v1113h104v-1123q0 -352 -324 -352h-188z" />
    <glyph glyph-name="uni004A0301.ss07" horiz-adv-x="718" 
d="M88 0v96h178q126 0 178 68t52 198v1113h104v-1123q0 -352 -324 -352h-188zM502 1573l223 299h131l-262 -299h-92z" />
    <glyph glyph-name="Jcircumflex.ss07" horiz-adv-x="718" 
d="M88 0v96h178q126 0 178 68t52 198v1113h104v-1123q0 -352 -324 -352h-188zM621 1872l258 -299h-99l-233 235l-234 -235h-98l258 299h148z" />
    <glyph glyph-name="R.ss08" horiz-adv-x="1292" 
d="M139 0v1475h584q230 0 356.5 -121.5t126.5 -311.5q0 -166 -97.5 -280.5t-277.5 -143.5l416 -620h-123l-405 612h-475v-610h-105zM244 707h479q180 0 277.5 92t97.5 243t-97.5 243.5t-277.5 92.5h-479v-671z" />
    <glyph glyph-name="Racute.ss08" horiz-adv-x="1292" 
d="M139 0v1475h584q230 0 356.5 -121.5t126.5 -311.5q0 -166 -97.5 -280.5t-277.5 -143.5l416 -620h-123l-405 612h-475v-610h-105zM590 1573l223 299h131l-262 -299h-92zM244 707h479q180 0 277.5 92t97.5 243t-97.5 243.5t-277.5 92.5h-479v-671z" />
    <glyph glyph-name="Rcaron.ss08" horiz-adv-x="1292" 
d="M139 0v1475h584q230 0 356.5 -121.5t126.5 -311.5q0 -166 -97.5 -280.5t-277.5 -143.5l416 -620h-123l-405 612h-475v-610h-105zM561 1573l-258 299h98l234 -236l233 236h99l-258 -299h-148zM244 707h479q180 0 277.5 92t97.5 243t-97.5 243.5t-277.5 92.5h-479v-671z
" />
    <glyph glyph-name="uni1E58.ss08" horiz-adv-x="1292" 
d="M139 0v1475h584q230 0 356.5 -121.5t126.5 -311.5q0 -166 -97.5 -280.5t-277.5 -143.5l416 -620h-123l-405 612h-475v-610h-105zM584 1573v199h100v-199h-100zM244 707h479q180 0 277.5 92t97.5 243t-97.5 243.5t-277.5 92.5h-479v-671z" />
    <glyph glyph-name="uni006A0301" horiz-adv-x="360" 
d="M236 -162q0 -59 -9 -100t-32.5 -76.5t-69.5 -53.5t-115 -18h-141v88h131q79 0 107 41.5t28 124.5v1221h101v-1227zM139 1200l223 299h132l-263 -299h-92z" />
    <glyph glyph-name="a.ss01" horiz-adv-x="1175" 
d="M1092 0h-97v221q-56 -116 -155 -181t-234 -65q-152 0 -262 75t-163.5 199.5t-53.5 282.5t53.5 282.5t163.5 200t262 75.5q133 0 230.5 -63t154.5 -175v213h101v-1065zM612 68q183 0 283 130.5t100 333.5t-100 334t-283 131q-123 0 -210.5 -63t-129 -166.5t-41.5 -235.5
q0 -203 99 -333.5t282 -130.5z" />
    <glyph glyph-name="aacute.ss01" horiz-adv-x="1175" 
d="M1092 0h-97v221q-56 -116 -155 -181t-234 -65q-152 0 -262 75t-163.5 199.5t-53.5 282.5t53.5 282.5t163.5 200t262 75.5q133 0 230.5 -63t154.5 -175v213h101v-1065zM612 68q183 0 283 130.5t100 333.5t-100 334t-283 131q-123 0 -210.5 -63t-129 -166.5t-41.5 -235.5
q0 -203 99 -333.5t282 -130.5zM565 1200l223 299h132l-263 -299h-92z" />
    <glyph glyph-name="abreve.ss01" horiz-adv-x="1175" 
d="M1092 0h-97v221q-56 -116 -155 -181t-234 -65q-152 0 -262 75t-163.5 199.5t-53.5 282.5t53.5 282.5t163.5 200t262 75.5q133 0 230.5 -63t154.5 -175v213h101v-1065zM612 68q183 0 283 130.5t100 333.5t-100 334t-283 131q-123 0 -210.5 -63t-129 -166.5t-41.5 -235.5
q0 -203 99 -333.5t282 -130.5zM612 1188q-134 0 -214.5 79.5t-86.5 215.5h88q6 -102 62 -156.5t151 -54.5q94 0 150.5 55t62.5 156h86q-6 -136 -86 -215.5t-213 -79.5z" />
    <glyph glyph-name="uni01CE.ss01" horiz-adv-x="1175" 
d="M1092 0h-97v221q-56 -116 -155 -181t-234 -65q-152 0 -262 75t-163.5 199.5t-53.5 282.5t53.5 282.5t163.5 200t262 75.5q133 0 230.5 -63t154.5 -175v213h101v-1065zM612 68q183 0 283 130.5t100 333.5t-100 334t-283 131q-123 0 -210.5 -63t-129 -166.5t-41.5 -235.5
q0 -203 99 -333.5t282 -130.5zM537 1200l-258 299h98l233 -235l234 235h98l-258 -299h-147z" />
    <glyph glyph-name="acircumflex.ss01" horiz-adv-x="1175" 
d="M1092 0h-97v221q-56 -116 -155 -181t-234 -65q-152 0 -262 75t-163.5 199.5t-53.5 282.5t53.5 282.5t163.5 200t262 75.5q133 0 230.5 -63t154.5 -175v213h101v-1065zM612 68q183 0 283 130.5t100 333.5t-100 334t-283 131q-123 0 -210.5 -63t-129 -166.5t-41.5 -235.5
q0 -203 99 -333.5t282 -130.5zM684 1499l258 -299h-98l-234 236l-233 -236h-98l258 299h147z" />
    <glyph glyph-name="adieresis.ss01" horiz-adv-x="1175" 
d="M1092 0h-97v221q-56 -116 -155 -181t-234 -65q-152 0 -262 75t-163.5 199.5t-53.5 282.5t53.5 282.5t163.5 200t262 75.5q133 0 230.5 -63t154.5 -175v213h101v-1065zM612 68q183 0 283 130.5t100 333.5t-100 334t-283 131q-123 0 -210.5 -63t-129 -166.5t-41.5 -235.5
q0 -203 99 -333.5t282 -130.5zM371 1276v199h100v-199h-100zM752 1276v199h100v-199h-100z" />
    <glyph glyph-name="uni0227.ss01" horiz-adv-x="1175" 
d="M1092 0h-97v221q-56 -116 -155 -181t-234 -65q-152 0 -262 75t-163.5 199.5t-53.5 282.5t53.5 282.5t163.5 200t262 75.5q133 0 230.5 -63t154.5 -175v213h101v-1065zM612 68q183 0 283 130.5t100 333.5t-100 334t-283 131q-123 0 -210.5 -63t-129 -166.5t-41.5 -235.5
q0 -203 99 -333.5t282 -130.5zM561 1276v199h101v-199h-101z" />
    <glyph glyph-name="agrave.ss01" horiz-adv-x="1175" 
d="M1092 0h-97v221q-56 -116 -155 -181t-234 -65q-152 0 -262 75t-163.5 199.5t-53.5 282.5t53.5 282.5t163.5 200t262 75.5q133 0 230.5 -63t154.5 -175v213h101v-1065zM612 68q183 0 283 130.5t100 333.5t-100 334t-283 131q-123 0 -210.5 -63t-129 -166.5t-41.5 -235.5
q0 -203 99 -333.5t282 -130.5zM657 1200h-92l-262 299h131z" />
    <glyph glyph-name="aogonek.ss01" horiz-adv-x="1175" 
d="M1092 0q-115 -64 -178.5 -127.5t-63.5 -118.5q0 -52 35 -77t94 -25t113 22v-84q-57 -24 -136 -24q-92 0 -147 43.5t-55 120.5q0 147 241 270v221q-56 -116 -155 -181t-234 -65q-152 0 -262 75t-163.5 199.5t-53.5 282.5t53.5 282.5t163.5 200t262 75.5q133 0 230.5 -63
t154.5 -175v213h101v-1065zM612 68q183 0 283 130.5t100 333.5t-100 334t-283 131q-123 0 -210.5 -63t-129 -166.5t-41.5 -235.5q0 -203 99 -333.5t282 -130.5z" />
    <glyph glyph-name="aring.ss01" horiz-adv-x="1175" 
d="M1092 0h-97v221q-56 -116 -155 -181t-234 -65q-152 0 -262 75t-163.5 199.5t-53.5 282.5t53.5 282.5t163.5 200t262 75.5q133 0 230.5 -63t154.5 -175v213h101v-1065zM612 68q183 0 283 130.5t100 333.5t-100 334t-283 131q-123 0 -210.5 -63t-129 -166.5t-41.5 -235.5
q0 -203 99 -333.5t282 -130.5zM610 1188q-98 0 -166.5 66t-68.5 163t68.5 163.5t166.5 66.5t167 -66.5t69 -163.5q0 -96 -68.5 -162.5t-167.5 -66.5zM610 1266q68 0 112 42t44 109t-44 109.5t-112 42.5t-111.5 -42.5t-43.5 -109.5t43.5 -109t111.5 -42z" />
    <glyph glyph-name="atilde.ss01" horiz-adv-x="1175" 
d="M1092 0h-97v221q-56 -116 -155 -181t-234 -65q-152 0 -262 75t-163.5 199.5t-53.5 282.5t53.5 282.5t163.5 200t262 75.5q133 0 230.5 -63t154.5 -175v213h101v-1065zM612 68q183 0 283 130.5t100 333.5t-100 334t-283 131q-123 0 -210.5 -63t-129 -166.5t-41.5 -235.5
q0 -203 99 -333.5t282 -130.5zM287 1245q0 119 41.5 178.5t132.5 59.5q27 0 56.5 -12t44.5 -22t48 -34q10 -7 35.5 -25.5t39 -27t34 -17t37.5 -8.5q52 0 72 34.5t20 111.5h88q0 -118 -42 -178t-132 -60q-27 0 -57 11.5t-47.5 23t-47.5 33.5q-6 4 -34 24.5t-39.5 28t-33 16.5
t-38.5 9q-51 0 -70.5 -34.5t-19.5 -111.5h-88z" />
    <glyph glyph-name="l.ss02" horiz-adv-x="354" 
d="M127 0v1475h100v-1475h-100z" />
    <glyph glyph-name="lacute.ss02" horiz-adv-x="354" 
d="M127 0v1475h100v-1475h-100zM131 1610l223 299h131l-262 -299h-92z" />
    <glyph glyph-name="lcaron.ss02" horiz-adv-x="354" 
d="M127 0v1475h100v-1475h-100zM309 1126l88 349h115l-121 -349h-82z" />
    <glyph glyph-name="lslash.ss02" horiz-adv-x="354" 
d="M127 0v694l-184 -86v94l184 86v687h100v-639l185 86v-97l-185 -86v-739h-100z" />
    <glyph glyph-name="t.ss03" horiz-adv-x="641" 
d="M233 0v977h-202v88h202v328h101v-328h254v-88h-254v-977h-101z" />
    <glyph glyph-name="tcaron.ss03" horiz-adv-x="641" 
d="M233 0v977h-202v88h202v328h101v-328h254v-88h-254v-977h-101zM412 1126l88 349h114l-120 -349h-82z" />
    <glyph glyph-name="uni0163.ss03" horiz-adv-x="641" 
d="M233 0v977h-202v88h202v328h101v-328h254v-88h-254v-977h-6l-90 -115h12q107 0 167 -39.5t60 -117.5q0 -79 -64 -124.5t-180 -45.5q-86 0 -141 14v66q67 -13 115 -13q174 0 174 103q0 100 -168 100q-23 0 -55 -4v55l80 121h-5z" />
    <glyph glyph-name="uni1E6B.ss03" horiz-adv-x="641" 
d="M233 0v977h-202v88h202v328h101v-328h254v-88h-254v-977h-101zM233 1604v198h101v-198h-101z" />
    <glyph glyph-name="u.ss04" 
d="M547 -25q-202 0 -311 112.5t-109 309.5v668h100v-657q0 -168 85 -256.5t235 -88.5q151 0 235 88t84 257v657h103v-668q0 -197 -110 -309.5t-312 -112.5z" />
    <glyph glyph-name="uacute.ss04" 
d="M547 -25q-202 0 -311 112.5t-109 309.5v668h100v-657q0 -168 85 -256.5t235 -88.5q151 0 235 88t84 257v657h103v-668q0 -197 -110 -309.5t-312 -112.5zM502 1200l223 299h131l-262 -299h-92z" />
    <glyph glyph-name="ubreve.ss04" 
d="M547 -25q-202 0 -311 112.5t-109 309.5v668h100v-657q0 -168 85 -256.5t235 -88.5q151 0 235 88t84 257v657h103v-668q0 -197 -110 -309.5t-312 -112.5zM549 1188q-134 0 -214.5 79.5t-86.5 215.5h88q6 -102 62 -156.5t151 -54.5q94 0 150.5 55t62.5 156h86
q-6 -136 -86 -215.5t-213 -79.5z" />
    <glyph glyph-name="uni01D4.ss04" 
d="M547 -25q-202 0 -311 112.5t-109 309.5v668h100v-657q0 -168 85 -256.5t235 -88.5q151 0 235 88t84 257v657h103v-668q0 -197 -110 -309.5t-312 -112.5zM473 1200l-258 299h98l234 -235l233 235h99l-258 -299h-148z" />
    <glyph glyph-name="ucircumflex.ss04" 
d="M547 -25q-202 0 -311 112.5t-109 309.5v668h100v-657q0 -168 85 -256.5t235 -88.5q151 0 235 88t84 257v657h103v-668q0 -197 -110 -309.5t-312 -112.5zM621 1499l258 -299h-99l-233 236l-234 -236h-98l258 299h148z" />
    <glyph glyph-name="udieresis.ss04" 
d="M547 -25q-202 0 -311 112.5t-109 309.5v668h100v-657q0 -168 85 -256.5t235 -88.5q151 0 235 88t84 257v657h103v-668q0 -197 -110 -309.5t-312 -112.5zM307 1276v199h101v-199h-101zM688 1276v199h100v-199h-100z" />
    <glyph glyph-name="ugrave.ss04" 
d="M547 -25q-202 0 -311 112.5t-109 309.5v668h100v-657q0 -168 85 -256.5t235 -88.5q151 0 235 88t84 257v657h103v-668q0 -197 -110 -309.5t-312 -112.5zM594 1200h-92l-262 299h131z" />
    <glyph glyph-name="uogonek.ss04" 
d="M547 -25q-202 0 -311 112.5t-109 309.5v668h100v-657q0 -168 85 -256.5t235 -88.5q151 0 235 88t84 257v657h103v-668q0 -153 -66 -255t-192 -142q-114 -64 -177 -127.5t-63 -118.5q0 -52 35 -77t94 -25t113 22v-84q-57 -24 -135 -24q-92 0 -147.5 43.5t-55.5 120.5
q0 134 196 245h-24z" />
    <glyph glyph-name="uring.ss04" 
d="M547 -25q-202 0 -311 112.5t-109 309.5v668h100v-657q0 -168 85 -256.5t235 -88.5q151 0 235 88t84 257v657h103v-668q0 -197 -110 -309.5t-312 -112.5zM547 1188q-99 0 -167.5 66.5t-68.5 162.5q0 97 69 163.5t167 66.5t166.5 -66.5t68.5 -163.5t-68.5 -163t-166.5 -66z
M547 1266q68 0 111.5 42t43.5 109t-43.5 109.5t-111.5 42.5t-112 -42.5t-44 -109.5t44 -109t112 -42z" />
    <glyph glyph-name="utilde.ss04" 
d="M547 -25q-202 0 -311 112.5t-109 309.5v668h100v-657q0 -168 85 -256.5t235 -88.5q151 0 235 88t84 257v657h103v-668q0 -197 -110 -309.5t-312 -112.5zM223 1245q0 119 41.5 178.5t132.5 59.5q27 0 56.5 -12t45.5 -22.5t48 -33.5q11 -7 35.5 -25t38 -27t34 -17.5
t37.5 -8.5q52 0 72 34.5t20 111.5h88q0 -118 -42 -178t-132 -60q-27 0 -57 11.5t-46.5 22.5t-47.5 34q-8 6 -27.5 20.5t-31 22t-28 17t-31 14t-28.5 4.5q-51 0 -70.5 -34.5t-19.5 -111.5h-88z" />
    <glyph glyph-name="y.ss05" horiz-adv-x="1050" 
d="M307 -410l168 416l-442 1059h108l385 -938l383 938h109l-610 -1475h-101z" />
    <glyph glyph-name="yacute.ss05" horiz-adv-x="1050" 
d="M307 -410l168 416l-442 1059h108l385 -938l383 938h109l-610 -1475h-101zM479 1200l223 299h132l-263 -299h-92z" />
    <glyph glyph-name="ycircumflex.ss05" horiz-adv-x="1050" 
d="M307 -410l168 416l-442 1059h108l385 -938l383 938h109l-610 -1475h-101zM598 1499l258 -299h-98l-234 236l-233 -236h-98l258 299h147z" />
    <glyph glyph-name="ydieresis.ss05" horiz-adv-x="1050" 
d="M307 -410l168 416l-442 1059h108l385 -938l383 938h109l-610 -1475h-101zM285 1276v199h100v-199h-100zM666 1276v199h100v-199h-100z" />
    <glyph glyph-name="uni1E8F.ss05" horiz-adv-x="1050" 
d="M307 -410l168 416l-442 1059h108l385 -938l383 938h109l-610 -1475h-101zM475 1276v199h100v-199h-100z" />
    <glyph glyph-name="ygrave.ss05" horiz-adv-x="1050" 
d="M307 -410l168 416l-442 1059h108l385 -938l383 938h109l-610 -1475h-101zM571 1200h-92l-262 299h131z" />
    <glyph glyph-name="uni1EF9.ss05" horiz-adv-x="1050" 
d="M307 -410l168 416l-442 1059h108l385 -938l383 938h109l-610 -1475h-101zM201 1245q0 119 41.5 178.5t132.5 59.5q27 0 56.5 -12t44.5 -22t48 -34q10 -7 35.5 -25.5t39 -27t34 -17t37.5 -8.5q52 0 72 34.5t20 111.5h88q0 -118 -42 -178t-132 -60q-27 0 -57 11.5t-47.5 23
t-47.5 33.5q-6 4 -34 24.5t-39.5 28t-33 16.5t-38.5 9q-51 0 -70.5 -34.5t-19.5 -111.5h-88z" />
    <glyph glyph-name="three.ss09" horiz-adv-x="1124" 
d="M573 -25q-215 0 -342 117t-139 328h105q6 -162 103.5 -255t272.5 -93q174 0 271.5 96.5t97.5 255.5q0 184 -122.5 275.5t-377.5 91.5h-36v81l473 506h-746v97h877v-89l-473 -505q139 -10 240 -48.5t158.5 -101t84.5 -138t27 -169.5q0 -194 -131.5 -321.5t-342.5 -127.5z
" />
    <glyph glyph-name="six.ss09" horiz-adv-x="1136" 
d="M571 -25q-141 0 -246 64t-158.5 173.5t-53.5 248.5q0 206 110 334l492 680h127l-396 -543q55 14 125 14q213 0 337 -136t124 -349t-124 -349.5t-337 -136.5zM571 72q161 0 257 108.5t96 280.5t-96 280.5t-257 108.5q-160 0 -256 -108.5t-96 -280.5t96 -280.5t256 -108.5z
" />
    <glyph glyph-name="nine.ss09" horiz-adv-x="1136" 
d="M565 1499q212 0 335.5 -136.5t123.5 -348.5q0 -204 -111 -334l-491 -680h-127l395 543q-58 -15 -125 -15q-213 0 -337 136.5t-124 349.5t124 349t337 136zM565 1403q-161 0 -256.5 -108t-95.5 -281t95.5 -281t256.5 -108q160 0 256.5 108.5t96.5 280.5t-96.5 280.5
t-256.5 108.5z" />
    <glyph glyph-name="one.ss10" horiz-adv-x="595" 
d="M354 0v1378h-258v97h363v-1475h-105z" />
    <glyph glyph-name="four.ss10" horiz-adv-x="1159" 
d="M57 369v100l693 1006h116l-694 -1010h614v436h105v-436h229v-96h-229v-369h-105v369h-729z" />
    <glyph glyph-name="at.ss11" horiz-adv-x="1890" 
d="M946 -238q-184 0 -343.5 64.5t-273.5 178t-179.5 276t-65.5 352.5q0 252 111.5 450t308 307t442.5 109q184 0 343 -60t273.5 -167.5t180 -264.5t65.5 -343q0 -219 -103.5 -355.5t-262.5 -136.5q-100 0 -160 50t-72 138q-45 -88 -121 -138t-174 -50q-172 0 -273 130.5
t-101 328.5q0 197 101 328t273 131q94 0 167.5 -47t121.5 -130v152h90v-649q0 -81 42 -120.5t118 -39.5q111 0 184.5 112t73.5 296q0 166 -59 306.5t-161 236.5t-243 150t-303 54t-304 -58t-244 -159.5t-161 -247t-59 -313.5q0 -169 59 -315.5t161 -248.5t244 -160.5
t304 -58.5q237 0 432 127v-98q-196 -117 -432 -117zM922 258q132 0 209 106t77 267q0 160 -77 266.5t-209 106.5t-209.5 -106.5t-77.5 -266.5q0 -161 77 -267t210 -106z" />
    <glyph glyph-name="copyright.ss13" horiz-adv-x="1214" 
d="M616 684q-121 0 -190.5 84t-69.5 215t69.5 215t190.5 84q99 0 162 -55.5t78 -147.5h-74q-12 61 -56.5 99.5t-109.5 38.5q-89 0 -137.5 -65.5t-48.5 -168.5t48.5 -168t137.5 -65q66 0 111 39.5t57 105.5h74q-14 -94 -79 -152.5t-163 -58.5zM608 467q-225 0 -372.5 145
t-147.5 371t147.5 371t372.5 145t371.5 -145t146.5 -371t-146.5 -371t-371.5 -145zM608 535q199 0 324 124t125 324t-125 324.5t-324 124.5t-323.5 -124.5t-124.5 -324.5t124.5 -324t323.5 -124z" />
    <glyph glyph-name="registered.ss13" horiz-adv-x="1214" 
d="M399 694v578h240q96 0 145.5 -44t49.5 -120q0 -96 -97 -139q68 -25 78 -99l29 -176h-70l-22 150q-8 51 -34 74.5t-81 23.5h-170v-248h-68zM608 467q-225 0 -372.5 145t-147.5 371t147.5 371t372.5 145t371.5 -145t146.5 -371t-146.5 -371t-371.5 -145zM608 535
q199 0 324 124t125 324t-125 324.5t-324 124.5t-323.5 -124.5t-124.5 -324.5t124.5 -324t323.5 -124zM467 999h168q63 0 96 29t33 78q0 50 -33 78t-96 28h-168v-213z" />
    <glyph glyph-name="uni2117.ss13" horiz-adv-x="1214" 
d="M428 694v578h234q95 0 146.5 -49.5t51.5 -126.5t-52 -127.5t-146 -50.5h-164v-224h-70zM608 467q-225 0 -372.5 145t-147.5 371t147.5 371t372.5 145t371.5 -145t146.5 -371t-146.5 -371t-371.5 -145zM608 535q199 0 324 124t125 324t-125 324.5t-324 124.5
t-323.5 -124.5t-124.5 -324.5t124.5 -324t323.5 -124zM498 979h161q64 0 98 32t34 85q0 52 -34 83t-98 31h-161v-231z" />
    <glyph glyph-name="trademark.ss14" horiz-adv-x="1710" 
d="M807 487v500h104l154 -409l156 409h104v-500h-74v392l-151 -392h-68l-153 398v-398h-72zM510 487v433h-166v67h408v-67h-166v-433h-76zM856 -25q-164 0 -306.5 57t-244 156.5t-159.5 241.5t-58 307t58 307t159.5 241.5t244 156.5t306.5 57q219 0 393.5 -97t273.5 -271
t99 -394t-99 -394t-273.5 -271t-393.5 -97zM856 59q299 0 487.5 188.5t188.5 489.5t-188.5 489.5t-487.5 188.5q-197 0 -351 -85t-240.5 -239.5t-86.5 -353.5t86.5 -353.5t240.5 -239.5t351 -85z" />
    <glyph glyph-name="uni2120.ss14" horiz-adv-x="1710" 
d="M815 487v500h103l155 -412l156 412h102v-500h-71v392l-152 -392h-70l-151 392v-392h-72zM563 477q-93 0 -150.5 45t-58.5 133h76q5 -112 135 -112q53 0 84 21.5t31 60.5q0 33 -26.5 51.5t-108.5 34.5q-94 18 -135 51.5t-41 99.5q0 61 50 98t130 37q97 0 147 -45t52 -121
h-76q-3 101 -123 101q-46 0 -74.5 -19t-28.5 -51q0 -35 24 -52.5t103 -31.5q108 -22 147.5 -56.5t39.5 -94.5q0 -68 -54.5 -109t-142.5 -41zM856 -25q-164 0 -306.5 57t-244 156.5t-159.5 241.5t-58 307t58 307t159.5 241.5t244 156.5t306.5 57q219 0 393.5 -97t273.5 -271
t99 -394t-99 -394t-273.5 -271t-393.5 -97zM856 59q299 0 487.5 188.5t188.5 489.5t-188.5 489.5t-487.5 188.5q-197 0 -351 -85t-240.5 -239.5t-86.5 -353.5t86.5 -353.5t240.5 -239.5t351 -85z" />
    <glyph glyph-name="cent.ss12" horiz-adv-x="1069" 
d="M514 -233v210q-200 20 -314 174.5t-114 380.5t114 380.5t314 174.5v211h92v-211q158 -10 261.5 -110t131.5 -258h-102q-27 125 -114.5 201.5t-215.5 76.5q-180 0 -278.5 -131t-98.5 -334q0 -132 41 -235t128 -166t208 -63q131 0 220 81.5t114 215.5h103
q-25 -162 -132 -269t-266 -119v-210h-92z" />
    <glyph glyph-name="dollar.ss12" horiz-adv-x="1255" 
d="M584 -233v210q-112 9 -202 42.5t-158.5 94t-107.5 154.5t-44 217h106q6 -111 44 -192.5t104 -129t148 -69.5t185 -22q198 0 312 85.5t114 229.5q0 65 -17 109t-66 85.5t-140.5 73t-236.5 58.5q-278 52 -391 145.5t-113 267.5q0 160 127 263t336 110v209h96v-211
q226 -17 347 -143.5t126 -325.5h-106q-6 184 -118 279.5t-315 95.5q-179 0 -283 -76t-104 -201q0 -53 10 -90t37 -72.5t76.5 -62t127.5 -50.5t190 -46q130 -25 223 -57t151 -67.5t91.5 -83t46 -96.5t12.5 -114q0 -181 -138.5 -294.5t-373.5 -117.5v-208h-96z" />
    <glyph glyph-name="Euro.ss12" horiz-adv-x="1292" 
d="M977 -25q-138 0 -251 43t-191 120.5t-127.5 177.5t-71.5 221h-264v90h252q-7 65 -7 110q0 50 7 115h-252v90h264q23 120 73 219.5t127.5 176t190 119t250.5 42.5q127 0 246 -39v-102q-115 45 -246 45q-114 0 -207 -35t-157.5 -98t-106.5 -145t-62 -183h779v-90h-793
q-6 -55 -6 -115q0 -55 6 -110h793v-90h-781q20 -102 62 -184.5t106.5 -146.5t158 -99t208.5 -35q137 0 246 47v-103q-115 -41 -246 -41z" />
    <glyph glyph-name="sterling.ss12" horiz-adv-x="1175" 
d="M68 0v96h395q-4 132 -38.5 256t-94.5 277h-221v90h184q-37 88 -56.5 140.5t-37 122t-17.5 124.5q0 166 118.5 279.5t317.5 113.5t326.5 -124.5t134.5 -332.5h-104q-3 167 -105 264t-254 97q-147 0 -239 -81.5t-92 -215.5q0 -53 18 -123t37 -118.5t59 -145.5h525v-90h-488
q56 -144 89.5 -270.5t37.5 -262.5h549v-96h-1044z" />
    <glyph glyph-name="uni030C.alt" horiz-adv-x="0" 
d="M0 1126l88 349h115l-121 -349h-82z" />
    <glyph glyph-name="uni0308.case" horiz-adv-x="0" 
d="M0 1276v199h100v-199h-100zM381 1276v199h100v-199h-100z" />
    <glyph glyph-name="uni0307.case" horiz-adv-x="0" 
d="M0 1276v199h100v-199h-100z" />
    <glyph glyph-name="gravecomb.case" horiz-adv-x="0" 
d="M354 1200h-92l-262 299h131z" />
    <glyph glyph-name="acutecomb.case" horiz-adv-x="0" 
d="M0 1200l223 299h131l-262 -299h-92z" />
    <glyph glyph-name="uni0302.case" horiz-adv-x="0" 
d="M406 1499l258 -299h-99l-233 236l-234 -236h-98l258 299h148z" />
    <glyph glyph-name="uni030C.case" horiz-adv-x="0" 
d="M258 1200l-258 299h98l234 -235l233 235h99l-258 -299h-148z" />
    <glyph glyph-name="uni0306.case" horiz-adv-x="0" 
d="M301 1188q-134 0 -214.5 79.5t-86.5 215.5h88q6 -102 62 -156.5t151 -54.5q94 0 150.5 55t62.5 156h86q-6 -136 -86 -215.5t-213 -79.5z" />
    <glyph glyph-name="uni030A.case" horiz-adv-x="0" 
d="M236 1188q-99 0 -167.5 66.5t-68.5 162.5q0 97 69 163.5t167 66.5t166.5 -66.5t68.5 -163.5t-68.5 -163t-166.5 -66zM236 1266q68 0 111.5 42t43.5 109t-43.5 109.5t-111.5 42.5t-112 -42.5t-44 -109.5t44 -109t112 -42z" />
    <glyph glyph-name="tildecomb.case" horiz-adv-x="0" 
d="M0 1245q0 119 41.5 178.5t132.5 59.5q27 0 56.5 -12t45.5 -22.5t48 -33.5q11 -7 35.5 -25t38 -27t34 -17.5t37.5 -8.5q52 0 72 34.5t20 111.5h88q0 -118 -42 -178t-132 -60q-27 0 -57 11.5t-46.5 22.5t-47.5 34q-8 6 -27.5 20.5t-31 22t-28 17t-31 14t-28.5 4.5
q-51 0 -70.5 -34.5t-19.5 -111.5h-88z" />
    <glyph glyph-name="dieresis.case" horiz-adv-x="481" 
d="M0 1276v199h100v-199h-100zM381 1276v199h100v-199h-100z" />
    <glyph glyph-name="dotaccent.case" horiz-adv-x="100" 
d="M0 1276v199h100v-199h-100z" />
    <glyph glyph-name="grave.case" horiz-adv-x="354" 
d="M354 1200h-92l-262 299h131z" />
    <glyph glyph-name="acute.case" horiz-adv-x="354" 
d="M0 1200l223 299h131l-262 -299h-92z" />
    <glyph glyph-name="circumflex.case" horiz-adv-x="663" 
d="M406 1499l258 -299h-99l-233 236l-234 -236h-98l258 299h148z" />
    <glyph glyph-name="caron.case" horiz-adv-x="663" 
d="M258 1200l-258 299h98l234 -235l233 235h99l-258 -299h-148z" />
    <glyph glyph-name="breve.case" horiz-adv-x="600" 
d="M301 1188q-134 0 -214.5 79.5t-86.5 215.5h88q6 -102 62 -156.5t151 -54.5q94 0 150.5 55t62.5 156h86q-6 -136 -86 -215.5t-213 -79.5z" />
    <glyph glyph-name="ring.case" horiz-adv-x="471" 
d="M236 1188q-99 0 -167.5 66.5t-68.5 162.5q0 97 69 163.5t167 66.5t166.5 -66.5t68.5 -163.5t-68.5 -163t-166.5 -66zM236 1266q68 0 111.5 42t43.5 109t-43.5 109.5t-111.5 42.5t-112 -42.5t-44 -109.5t44 -109t112 -42z" />
    <glyph glyph-name="tilde.case" horiz-adv-x="649" 
d="M0 1245q0 119 41.5 178.5t132.5 59.5q27 0 56.5 -12t45.5 -22.5t48 -33.5q11 -7 35.5 -25t38 -27t34 -17.5t37.5 -8.5q52 0 72 34.5t20 111.5h88q0 -118 -42 -178t-132 -60q-27 0 -57 11.5t-46.5 22.5t-47.5 34q-8 6 -27.5 20.5t-31 22t-28 17t-31 14t-28.5 4.5
q-51 0 -70.5 -34.5t-19.5 -111.5h-88z" />
  </font>
</defs>
</svg>
