<?xml version="1.0" encoding="UTF-8"?><svg id="a" xmlns="http://www.w3.org/2000/svg" width="100" height="100" viewBox="0 0 100 100"><path d="M20.125,18.274c-4.576,0-7.952,1.067-10.128,3.197-2.176,2.131-3.264,5.081-3.264,8.85v23.891c0,3.769,1.088,6.719,3.264,8.85,2.176,2.132,5.553,3.197,10.128,3.197s7.963-1.077,10.162-3.23c2.198-2.154,3.298-5.092,3.298-8.816v-23.891c0-3.723-1.1-6.663-3.298-8.816-2.199-2.153-5.585-3.23-10.162-3.23ZM23.491,53.808c0,1.122-.236,1.963-.707,2.524-.471.561-1.358.841-2.659.841s-2.176-.28-2.624-.841c-.449-.56-.673-1.402-.673-2.524v-23.083c0-1.166.224-2.019.673-2.558.448-.538,1.323-.807,2.624-.807s2.188.281,2.659.841c.471.562.707,1.403.707,2.524v23.083Z" fill="none"/><path d="M48.727,18.611c-3.634,0-6.797.494-9.489,1.481v9.691c2.826-1.211,5.944-1.817,9.354-1.817,1.704,0,2.882.281,3.533.841.65.562.976,1.358.976,2.389v.942c0,1.481-.169,2.614-.505,3.399-.337.785-1,1.56-1.985,2.322l-6.73,5.788c-3.724,2.872-5.586,6.528-5.586,10.97v10.97h24.43v-8.883h-14.133v-.875c0-1.525.19-2.647.572-3.365.381-.717,1.423-1.794,3.129-3.23l6.056-5.114c3.32-2.467,4.98-5.878,4.98-10.23v-3.971c0-7.537-4.868-11.306-14.604-11.306Z" fill="none"/><path d="M20.125,27.36c-1.302,0-2.176.269-2.624.807-.449.539-.673,1.392-.673,2.558v23.083c0,1.122.224,1.963.673,2.524.448.561,1.323.841,2.624.841s2.188-.28,2.659-.841c.471-.56.707-1.402.707-2.524v-23.083c0-1.121-.236-1.962-.707-2.524-.471-.56-1.358-.841-2.659-.841Z"/><path d="M88.707,30.27l-26.725-13.371c-4.123-2.21-9.056-3.03-15.522-2.574-2.517.188-5.102.683-7.158,1.381-1.456.515-2.609,1.445-3.341,2.655-1.559-.78-3.111-1.556-4.621-2.304-6.23-3.121-16.916-3.251-22.917,1.543-3.324,2.686-5.318,6.591-5.768,11.294l-.022.353c-.201,7.532-.141,20.366-.036,27.073l.007.21c.37,6.501,3.857,11.641,9.576,14.132l25.993,13.003c2.323,1.215,4.677,1.957,7.227,2.271,1.316.153,2.591.229,3.823.229,4.79,0,8.901-1.147,11.999-3.346.608.309,1.225.639,1.834.963.765.408,1.521.81,2.256,1.178l1.084.542,4.198.003c12.615.011,20.128.009,21.196-.031l.842-.032.788-.298c1.567-.594,3.433-2.053,3.425-5.63v-3.078c.003-1.708.005-3.528-.007-4.356l-.017-.365c-.117-1.375-.779-3.834-3.87-5.147-.919-.458-1.844-.915-2.769-1.372-.49-.242-.984-.487-1.48-.732,1.102-.926,2.188-1.844,3.163-2.698l.103-.093c3.192-2.954,5.061-6.906,5.402-11.429l.007-.111c.293-5.444.836-15.556-8.67-19.862ZM33.585,54.212c0,3.725-1.1,6.663-3.298,8.816-2.199,2.153-5.585,3.23-10.162,3.23s-7.952-1.065-10.128-3.197c-2.176-2.13-3.264-5.081-3.264-8.85v-23.891c0-3.769,1.088-6.718,3.264-8.85,2.176-2.13,5.553-3.197,10.128-3.197s7.963,1.077,10.162,3.23c2.198,2.154,3.298,5.093,3.298,8.816v23.891ZM63.331,33.887c0,4.352-1.66,7.762-4.98,10.23l-6.056,5.114c-1.706,1.436-2.748,2.513-3.129,3.23-.382.718-.572,1.84-.572,3.365v.875h14.133v8.883h-24.43v-10.97c0-4.442,1.862-8.098,5.586-10.97l6.73-5.788c.986-.762,1.649-1.536,1.985-2.322.336-.785.505-1.918.505-3.399v-.942c0-1.031-.326-1.827-.976-2.389-.652-.56-1.829-.841-3.533-.841-3.41,0-6.528.606-9.354,1.817v-9.691c2.692-.986,5.855-1.481,9.489-1.481,9.736,0,14.604,3.769,14.604,11.306v3.971Z"/></svg>