<?xml version="1.0" encoding="UTF-8"?><svg id="a" xmlns="http://www.w3.org/2000/svg" width="100" height="100" viewBox="0 0 100 100"><path d="M20.385,17.804c-4.646,0-8.073,1.083-10.283,3.246-2.209,2.164-3.314,5.158-3.314,8.984v24.255c0,3.826,1.105,6.821,3.314,8.984,2.209,2.164,5.637,3.245,10.283,3.245s8.084-1.093,10.317-3.279c2.231-2.187,3.348-5.169,3.348-8.95v-24.255c0-3.78-1.117-6.764-3.348-8.95-2.232-2.186-5.67-3.28-10.317-3.28ZM23.802,53.879c0,1.139-.239,1.993-.717,2.562-.478.57-1.379.854-2.699.854s-2.209-.284-2.664-.854c-.456-.569-.683-1.423-.683-2.562v-23.435c0-1.184.227-2.05.683-2.597.455-.546,1.343-.82,2.664-.82s2.221.285,2.699.854c.478.57.717,1.424.717,2.562v23.435Z" fill="none"/><path d="M58.031,41.581c1.411-.364,2.539-1.184,3.382-2.459.842-1.275,1.264-2.892,1.264-4.851v-4.714c0-3.644-1.254-6.467-3.758-8.472-2.506-2.004-6.286-3.006-11.342-3.006-3.645,0-6.423.319-8.336.957v9.633c2.141-.82,4.861-1.23,8.164-1.23s4.954,1.093,4.954,3.28v3.211c0,2.232-1.162,3.348-3.485,3.348h-5.192v9.565h5.329c1.321,0,2.231.195,2.733.581.5.387.752,1.127.752,2.22v3.963c0,2.187-1.698,3.28-5.09,3.28s-6.479-.591-9.258-1.776v9.702c2.277.957,5.728,1.435,10.351,1.435s8.164-1.001,10.625-3.006c2.459-2.004,3.689-4.828,3.689-8.472v-6.559c0-4.099-1.595-6.308-4.783-6.627Z" fill="none"/><path d="M97.448,68.092c-.015-.626,0-1.289.014-1.964.056-2.771.137-6.791-1.787-10.015.135-.247.26-.498.374-.752,1.299-2.839,1.283-5.522,1.269-7.889-.002-.325-.005-.654-.003-.988.551-7.915-3.202-14.258-10.079-17.044l-25.97-12.991c-5.225-2.818-10.748-2.988-15.46-2.783l-.311.023c-.496.051-.967.083-1.416.115-1.99.139-4.245.297-6.463,1.664l-1.309.807-.595,1.247c-1.282-.641-2.566-1.283-3.848-1.921-3.845-1.868-8.728-2.663-13.379-2.187-5.561.569-10.069,2.892-12.694,6.537-3.43,4.759-3.344,9.736-3.27,14.038v17.168l-.006.593c-.06,4.801-.116,9.336,3.245,14.077,1.495,2.119,3.673,3.824,6.658,5.21l26.446,13.228c2.257,1.18,4.592,1.908,7.212,2.234,1.388.152,2.686.222,3.901.222,5.98,0,9.935-1.697,12.516-3.683.106.056.213.112.321.168.744.391,1.513.795,2.326,1.169,4.475,2.073,9.805,2.137,14.498,2.033,5.736-.175,10.65-2.225,13.839-5.771,2.942-3.272,4.314-7.608,3.97-12.546ZM34.05,54.289c0,3.781-1.117,6.764-3.348,8.95-2.232,2.186-5.67,3.279-10.317,3.279s-8.073-1.081-10.283-3.245c-2.209-2.163-3.314-5.158-3.314-8.984v-24.255c0-3.826,1.105-6.82,3.314-8.984,2.209-2.163,5.637-3.246,10.283-3.246s8.084,1.093,10.317,3.28c2.231,2.187,3.348,5.17,3.348,8.95v24.255ZM62.814,54.767c0,3.645-1.23,6.468-3.689,8.472-2.46,2.005-6.002,3.006-10.625,3.006s-8.074-.478-10.351-1.435v-9.702c2.778,1.185,5.864,1.776,9.258,1.776s5.09-1.093,5.09-3.28v-3.963c0-1.093-.251-1.833-.752-2.22-.501-.386-1.412-.581-2.733-.581h-5.329v-9.565h5.192c2.323,0,3.485-1.115,3.485-3.348v-3.211c0-2.187-1.652-3.28-4.954-3.28s-6.024.41-8.164,1.23v-9.633c1.913-.638,4.691-.957,8.336-.957,5.056,0,8.836,1.003,11.342,3.006,2.504,2.005,3.758,4.829,3.758,8.472v4.714c0,1.959-.422,3.577-1.264,4.851-.843,1.276-1.971,2.095-3.382,2.459,3.188.319,4.783,2.528,4.783,6.627v6.559Z" fill="#323232"/><path d="M20.385,27.028c-1.321,0-2.209.273-2.664.82-.456.547-.683,1.413-.683,2.597v23.435c0,1.139.227,1.993.683,2.562.455.57,1.343.854,2.664.854s2.221-.284,2.699-.854c.478-.569.717-1.423.717-2.562v-23.435c0-1.138-.239-1.992-.717-2.562-.478-.569-1.379-.854-2.699-.854Z" fill="#323232"/></svg>