<?xml version="1.0" encoding="UTF-8"?><svg id="a" xmlns="http://www.w3.org/2000/svg" width="100" height="100" viewBox="0 0 100 100"><path d="M38.166,27.728h13.605l-4.696,15.056c-1.519,4.052-2.279,9.094-2.279,15.125v8.08h10.497v-7.182c0-5.341.714-10.106,2.141-14.296l6.008-18.025v-8.357h-25.277v9.6Z" fill="none"/><path d="M21.591,17.438c-4.696,0-8.161,1.095-10.394,3.281-2.233,2.187-3.35,5.214-3.35,9.082v24.517c0,3.867,1.117,6.895,3.35,9.082,2.233,2.188,5.698,3.28,10.394,3.28s8.172-1.105,10.429-3.315c2.256-2.21,3.384-5.225,3.384-9.047v-24.517c0-3.821-1.129-6.837-3.384-9.047-2.257-2.21-5.732-3.315-10.429-3.315ZM25.045,53.903c0,1.152-.242,2.015-.725,2.59-.483.576-1.394.863-2.729.863s-2.233-.287-2.693-.863c-.461-.575-.69-1.438-.69-2.59v-23.688c0-1.197.229-2.072.69-2.625.46-.552,1.357-.829,2.693-.829s2.245.288,2.729.863c.483.577.725,1.44.725,2.59v23.688Z" fill="none"/><path d="M97.491,33.945l-.005-.155c-.106-2.534-1.664-4.657-4.003-5.551-3.405-1.712-6.82-3.414-10.237-5.117-5.48-2.731-11.141-5.552-16.67-8.376-1.551-1.049-2.89-1.176-4.012-1.15-.056,0-.122.004-.207.002h-9.694c-6.186-.002-12.989-.002-14.22,0l-.204.004c-1.608.065-3.342.846-4.382,2.411-.352-.176-.703-.35-1.05-.522-7.052-3.723-18.66-3.957-25.147,2.103-3.713,3.353-5.423,8.719-5.084,15.949v17.537c-.225,4.804-.641,15.711,10.258,20.297l26.331,13.172c3.129,1.594,7.308,2.61,11.567,2.61,4.992,0,10.092-1.398,13.73-4.901.244.12.488.24.733.36,2.005.985,3.899,1.916,5.705,2.919l.331.169c.706.33,1.604.673,2.904.72l.107.004h.106c.644-.003,1.785,0,3.06,0,3.485.007,5.821.008,6.567-.023l.469-.019.457-.102c2.119-.472,4.541-2.295,4.439-5.948l.015-.165-.006-.294c-.131-6.81.032-13.855,2.097-19.24l.077-.214c1.529-4.566,5.219-15.669,5.653-16.987l.137-.493c.191-.852.187-1.465.185-1.871v-2.712c.003-1.658.004-3.542-.007-4.419ZM35.404,54.318c0,3.822-1.129,6.837-3.384,9.047-2.257,2.21-5.732,3.315-10.429,3.315s-8.161-1.093-10.394-3.28c-2.233-2.186-3.35-5.214-3.35-9.082v-24.517c0-3.867,1.117-6.894,3.35-9.082,2.233-2.186,5.698-3.281,10.394-3.281s8.172,1.105,10.429,3.315c2.256,2.21,3.384,5.226,3.384,9.047v24.517ZM63.443,26.485l-6.008,18.025c-1.428,4.19-2.141,8.956-2.141,14.296v7.182h-10.497v-8.08c0-6.031.76-11.073,2.279-15.125l4.696-15.056h-13.605v-9.6h25.277v8.357Z" fill="#323232"/><path d="M21.591,26.762c-1.336,0-2.233.276-2.693.829-.461.553-.69,1.428-.69,2.625v23.688c0,1.152.229,2.015.69,2.59.46.576,1.357.863,2.693.863s2.245-.287,2.729-.863c.483-.575.725-1.438.725-2.59v-23.688c0-1.15-.242-2.013-.725-2.59-.483-.575-1.394-.863-2.729-.863Z" fill="#323232"/></svg>