<?xml version="1.0" encoding="UTF-8"?><svg id="a" xmlns="http://www.w3.org/2000/svg" width="100" height="100" viewBox="0 0 100 100"><path d="M19.892,18.783c-4.504,0-7.828,1.05-9.97,3.147-2.142,2.098-3.213,5.002-3.213,8.711v23.518c0,3.71,1.071,6.614,3.213,8.711,2.142,2.099,5.466,3.147,9.97,3.147s7.839-1.06,10.003-3.179c2.164-2.12,3.246-5.012,3.246-8.679v-23.518c0-3.665-1.083-6.558-3.246-8.679-2.165-2.12-5.498-3.18-10.003-3.18ZM23.205,53.762c0,1.105-.232,1.933-.695,2.484-.464.553-1.337.828-2.617.828s-2.142-.275-2.583-.828c-.442-.552-.662-1.38-.662-2.484v-22.723c0-1.148.22-1.988.662-2.518.441-.53,1.302-.795,2.583-.795s2.154.276,2.617.828c.464.553.695,1.381.695,2.484v22.723Z" fill="none"/><path d="M50.697,18.783c-4.504,0-7.84,1.06-10.003,3.18-2.165,2.12-3.246,5.013-3.246,8.679v9.076c0,3.356.872,5.962,2.617,7.817,1.744,1.855,4.162,2.782,7.254,2.782s5.3-.265,6.625-.795v3.909c0,2.12-1.789,3.18-5.366,3.18s-6.714-.574-9.407-1.722v9.407c2.208.927,5.653,1.391,10.334,1.391s8.248-.971,10.699-2.915c2.451-1.943,3.677-4.68,3.677-8.214v-23.916c0-3.71-1.071-6.613-3.212-8.711-2.143-2.097-5.466-3.147-9.971-3.147ZM53.943,41.175c-1.016.397-2.165.596-3.445.596-2.077,0-3.113-1.082-3.113-3.246v-7.685c0-1.103.232-1.931.695-2.484.464-.552,1.335-.828,2.617-.828s2.142.276,2.584.828c.441.553.662,1.381.662,2.484v10.335Z" fill="none"/><path d="M50.697,27.528c-1.281,0-2.153.276-2.617.828-.464.553-.695,1.381-.695,2.484v7.685c0,2.165,1.037,3.246,3.113,3.246,1.28,0,2.429-.199,3.445-.596v-10.335c0-1.103-.221-1.931-.662-2.484-.442-.552-1.304-.828-2.584-.828Z" fill="#323232"/><path d="M97.468,65.143v-19.475c.196-7.023-3.289-13.142-8.908-15.665l-.063-.032c-5.638-2.825-11.29-5.652-16.937-8.477l-8.875-4.441c-4.128-2.158-9.467-3.086-14.298-2.489-4.595.57-8.393,2.411-11.015,5.284-.537-.279-1.083-.571-1.641-.868-3.075-1.642-6.558-3.503-10.623-4.212l-.246-.037c-10.474-1.3-15.853,2.202-18.531,5.403-3.594,4.107-3.905,9.861-3.759,14.447v16.454c-.215,4.605-.612,15.061,9.831,19.487l25.274,12.645c2.148,1.088,4.032,1.727,6.108,2.072l.108.017c1.653.238,3.242.356,4.757.356,5.327,0,9.747-1.457,12.87-4.255.127.066.253.133.382.2,1.85.975,3.948,2.079,6.293,2.747l.329.082c7.141,1.525,17.508,1.627,23.278-3.088,5.903-4.691,5.782-11.039,5.666-16.156ZM33.142,54.16c0,3.666-1.083,6.558-3.246,8.679-2.165,2.12-5.498,3.179-10.003,3.179s-7.828-1.048-9.97-3.147c-2.142-2.097-3.213-5.002-3.213-8.711v-23.518c0-3.71,1.071-6.613,3.213-8.711,2.142-2.097,5.466-3.147,9.97-3.147s7.839,1.06,10.003,3.18c2.164,2.12,3.246,5.013,3.246,8.679v23.518ZM63.88,54.557c0,3.534-1.226,6.272-3.677,8.214-2.451,1.944-6.018,2.915-10.699,2.915s-8.126-.464-10.334-1.391v-9.407c2.693,1.149,5.83,1.722,9.407,1.722s5.366-1.06,5.366-3.18v-3.909c-1.324.53-3.534.795-6.625.795s-5.51-.927-7.254-2.782c-1.745-1.855-2.617-4.46-2.617-7.817v-9.076c0-3.665,1.082-6.558,3.246-8.679,2.163-2.12,5.498-3.18,10.003-3.18s7.828,1.05,9.971,3.147c2.141,2.098,3.212,5.002,3.212,8.711v23.916Z" fill="#323232"/><path d="M19.892,27.727c-1.281,0-2.142.265-2.583.795-.442.53-.662,1.37-.662,2.518v22.723c0,1.105.22,1.933.662,2.484.441.553,1.302.828,2.583.828s2.154-.275,2.617-.828c.464-.552.695-1.38.695-2.484v-22.723c0-1.103-.232-1.931-.695-2.484-.464-.552-1.337-.828-2.617-.828Z" fill="#323232"/></svg>