<?xml version="1.0" encoding="UTF-8"?><svg id="a" xmlns="http://www.w3.org/2000/svg" width="100" height="100" viewBox="0 0 100 100"><path d="M46.202,15.836c-4.928,0-8.564,1.149-10.908,3.443-2.344,2.295-3.515,5.472-3.515,9.531v25.729c0,4.058,1.172,7.236,3.515,9.531,2.344,2.296,5.98,3.443,10.908,3.443s8.576-1.159,10.944-3.478c2.367-2.319,3.552-5.483,3.552-9.495v-25.729c0-4.01-1.185-7.175-3.552-9.495-2.368-2.319-6.015-3.479-10.944-3.479ZM49.827,54.104c0,1.209-.254,2.115-.761,2.718-.507.605-1.463.906-2.864.906s-2.344-.301-2.826-.906c-.484-.604-.724-1.509-.724-2.718v-24.859c0-1.256.241-2.174.724-2.754.483-.579,1.424-.869,2.826-.869s2.356.302,2.864.906c.507.605.761,1.511.761,2.718v24.859Z" fill="none"/><polygon points="7.065 23.591 7.065 35.55 14.965 29.752 14.965 66.788 25.981 66.788 25.981 16.561 16.559 16.561 7.065 23.591" fill="none"/><path d="M92.197,31.271l-.069-.067c-1.619-1.577-3.65-2.669-5.009-3.339l-27.952-13.986c-5.873-3.132-13.516-3.699-20.464-1.511l-.154.051c-1.712.595-3.247,1.41-4.641,2.467-.135-.073-.269-.147-.404-.221-.774-.424-1.65-.904-2.531-1.283-.157-.071-.301-.154-.443-.231-.992-.537-2.817-1.53-5.36-1.347-.662.022-1.569.006-2.528-.01-1.862-.031-3.975-.068-5.762.148l-1.023.124-.91.484c-1.115.593-2.473,1.615-4.778,3.369-1.194.909-2.429,1.85-3.447,2.563l-.229.17c-.281.219-.507.379-.689.509-3.087,2.196-3.304,4.378-3.268,7.003l.01.465c.044.986.017,2.358-.01,3.685-.05,2.516-.097,4.893.244,6.67l.488,2.541,2.261,1.256c.518.288,1.014.471,1.434.599.26.155.57.315.929.455.016.01.031.02.047.029l.735.449.264.064.324.17c.245.128.478.23.696.311.161.093.325.18.492.262.005,2.712-.004,5.812-.012,8.93-.015,5.765-.03,11.725.035,15.339l.06,3.269,2.891,1.526c5.319,2.808,10.838,5.538,16.176,8.177,4.391,2.172,8.93,4.417,13.299,6.677.956.546,2.144,1.112,4.023,1.197l.171.007.17-.003c.805-.013,2.087-.004,3.46.006,3.093.02,5.215.028,6.456-.058l.463-.032.452-.109c1.57-.38,3.265-1.481,4.1-3.503,1.34.671,2.664,1.332,3.932,1.959,3.201,1.639,6.867,2.445,11.157,2.445.748,0,1.516-.025,2.302-.073,10.837-.399,18.164-8.185,17.857-18.976v-20.554c.152-4.538.392-12.851-5.247-18.073ZM25.981,66.788h-11.017V29.752l-7.9,5.798v-11.959l9.494-7.03h9.422v50.227ZM60.698,54.539c0,4.011-1.185,7.175-3.552,9.495-2.368,2.319-6.015,3.478-10.944,3.478s-8.564-1.147-10.908-3.443c-2.344-2.294-3.515-5.472-3.515-9.531v-25.729c0-4.058,1.172-7.235,3.515-9.531,2.344-2.294,5.98-3.443,10.908-3.443s8.576,1.16,10.944,3.479c2.367,2.319,3.552,5.485,3.552,9.495v25.729Z" fill="#323232"/><path d="M46.202,25.621c-1.402,0-2.344.29-2.826.869-.484.58-.724,1.499-.724,2.754v24.859c0,1.209.241,2.115.724,2.718.483.605,1.424.906,2.826.906s2.356-.301,2.864-.906c.507-.604.761-1.509.761-2.718v-24.859c0-1.207-.254-2.113-.761-2.718-.507-.604-1.463-.906-2.864-.906Z" fill="#323232"/></svg>