<?xml version="1.0" encoding="UTF-8"?><svg id="a" xmlns="http://www.w3.org/2000/svg" width="100" height="100" viewBox="0 0 100 100"><path d="M93.747,60.022c-.001-7.191-.003-14.593,0-20.035v-4.451c.001-1.805.002-3.076-.004-3.62l-.01-.902-.284-.857c-.641-1.936-2.013-3.326-4.138-4.156l-.303-.134c-4.815-2.331-9.707-4.799-14.438-7.187-5.269-2.659-10.717-5.408-16.125-8.002l-.825-.395-.906-.123c-1.923-.26-3.896-.23-5.807-.201-.773.011-1.539.026-2.255.011-3.834-.367-6.287,1.517-7.771,2.656-.192.148-.391.302-.603.456-.175.119-.357.248-.541.385-1.293-.641-2.597-1.302-3.861-1.941l-.208-.106c-2.95-1.675-5.829-1.552-7.946-1.46-.704.03-1.37.058-1.934.018l-.403-.029-.403.027c-.149.009-.428,0-.698-.012-1.374-.057-3.931-.161-6.481,1.704-.449.336-1.196.884-2.08,1.533-2.23,1.636-5.284,3.877-6.916,5.179l-.409.359c-2.146,2.069-2.145,4.525-2.145,5.843l-.002.527c.004.956.002,2.265,0,3.622-.004,2.362-.006,4.868.018,6.013l.004.122c.034.807.416,4.626,4.599,6.086.274.164.605.335.988.485.02.013.041.026.061.038l.536.326.44.151c.356.214.694.372.983.489.226.142.446.261.654.361.001,3.47,0,7.793-.001,11.892-.002,4.647-.003,9.005,0,11.447l-.008.444c-.032,1.574-.116,5.698,4.826,7.597,4.22,1.989,8.512,4.193,12.663,6.326,6.04,3.103,12.286,6.312,18.66,9.048l.979.421,1.065.045c1.813.077,4.882.055,7.344.039.993-.007,1.855-.01,2.439-.011,1.857.052,3.572-.641,4.848-1.902.472-.467.866-.997,1.174-1.575,1.929.979,3.9,1.958,5.889,2.857l.814.368.886.106c1.233.147,2.596.187,3.988.187.781,0,1.572-.012,2.352-.024,1.185-.019,2.307-.037,3.218-.007l.261.008.261-.015c.169-.009.306.003.427.008.961.038,3.915.16,5.937-2.511l1.143-1.511.032-1.894c.022-1.302.02-11.876.015-24.12ZM30.83,66.533h-11.55V27.703l-8.282,6.079v-12.538l9.954-7.371h9.879v52.659ZM55.222,66.533h-11.55V27.703l-8.282,6.079v-12.538l9.954-7.371h9.879v52.659Z"/></svg>