<?xml version="1.0" encoding="UTF-8"?><svg id="a" xmlns="http://www.w3.org/2000/svg" width="100" height="100" viewBox="0 0 100 100"><path d="M50.483,19.014c-4.491,0-7.833,1.009-10.023,3.024-2.191,2.016-3.287,4.843-3.287,8.479v4.601c0,3.331,1.008,5.784,3.024,7.362-2.016,1.622-3.024,4.098-3.024,7.428v4.47c0,3.638,1.096,6.464,3.287,8.479,2.19,2.016,5.532,3.023,10.023,3.023s7.832-1.019,10.024-3.056c2.19-2.038,3.286-4.853,3.286-8.446v-4.47c0-3.33-1.008-5.806-3.023-7.428,2.015-1.578,3.023-4.031,3.023-7.362v-4.601c0-3.592-1.096-6.409-3.286-8.446-2.191-2.038-5.532-3.057-10.024-3.057ZM54.066,54.245c0,2.103-1.195,3.155-3.583,3.155s-3.582-1.052-3.582-3.155v-4.667c0-2.19,1.194-3.286,3.582-3.286s3.583,1.096,3.583,3.286v4.667ZM54.066,35.446c0,2.192-1.195,3.287-3.583,3.287s-3.582-1.095-3.582-3.287v-4.798c0-1.052.263-1.841.789-2.366.526-.526,1.446-.789,2.761-.789,2.409,0,3.615,1.052,3.615,3.155v4.798Z" fill="none"/><path d="M19.427,19.014c-4.469,0-7.767,1.042-9.892,3.122-2.125,2.082-3.188,4.963-3.188,8.643v23.334c0,3.681,1.063,6.562,3.188,8.643,2.125,2.082,5.423,3.122,9.892,3.122s7.777-1.052,9.925-3.155c2.147-2.104,3.221-4.973,3.221-8.611v-23.334c0-3.636-1.074-6.507-3.221-8.611-2.148-2.103-5.455-3.155-9.925-3.155ZM22.714,53.719c0,1.096-.23,1.918-.69,2.465-.46.548-1.327.822-2.597.822s-2.125-.273-2.563-.822c-.439-.547-.657-1.369-.657-2.465v-22.545c0-1.139.218-1.972.657-2.498.438-.526,1.292-.789,2.563-.789s2.137.274,2.597.822c.46.549.69,1.37.69,2.465v22.545Z" fill="none"/><path d="M95.739,56.919c1.048-2.017,1.654-4.467,1.693-7.01l.003-.09c.201-5.798.532-15.479-9.12-19.764-3.597-1.779-7.178-3.583-10.757-5.385-5.49-2.765-11.167-5.625-16.812-8.345l-.582-.237c-6.101-2.048-15.459-2.516-21.744,2.896-.438.374-.826.772-1.177,1.181-.592-.306-1.192-.628-1.804-.956-2.905-1.558-6.197-3.323-9.997-4.092l-.205-.037c-7.221-1.147-16.341.132-20.268,7.12-2.473,4.266-2.44,7.924-2.403,12.16l.004,16.876c-.203,4.146-.619,14.713,9.618,19.038,3.528,1.741,7.041,3.513,10.555,5.284,5.395,2.72,10.975,5.533,16.529,8.194l.463.194c2.577.932,5.468,1.394,8.34,1.394,3.199,0,6.373-.573,9.065-1.708,2.19-.898,3.836-2.278,5.119-3.767.32.16.64.321.959.481,2.018,1.013,4.039,2.026,6.058,3.019l.139.066c5.819,2.643,17.101,3.185,23.245-2.627,5.115-4.553,4.923-11.968,4.786-16.054.046-2.87-.567-5.613-1.705-7.83ZM32.573,54.113c0,3.638-1.074,6.507-3.221,8.611-2.148,2.103-5.455,3.155-9.925,3.155s-7.767-1.04-9.892-3.122c-2.125-2.081-3.188-4.963-3.188-8.643v-23.334c0-3.681,1.063-6.561,3.188-8.643,2.125-2.081,5.423-3.122,9.892-3.122s7.777,1.052,9.925,3.155c2.147,2.104,3.221,4.974,3.221,8.611v23.334ZM63.793,35.117c0,3.331-1.008,5.784-3.023,7.362,2.015,1.622,3.023,4.098,3.023,7.428v4.47c0,3.593-1.096,6.409-3.286,8.446-2.191,2.038-5.532,3.056-10.024,3.056s-7.833-1.007-10.023-3.023c-2.191-2.015-3.287-4.841-3.287-8.479v-4.47c0-3.33,1.008-5.806,3.024-7.428-2.016-1.578-3.024-4.031-3.024-7.362v-4.601c0-3.636,1.096-6.463,3.287-8.479,2.19-2.015,5.532-3.024,10.023-3.024s7.832,1.019,10.024,3.057c2.19,2.038,3.286,4.854,3.286,8.446v4.601Z"/><path d="M19.427,27.887c-1.271,0-2.125.263-2.563.789-.439.526-.657,1.359-.657,2.498v22.545c0,1.096.218,1.918.657,2.465.438.548,1.292.822,2.563.822s2.137-.273,2.597-.822c.46-.547.69-1.369.69-2.465v-22.545c0-1.095-.23-1.916-.69-2.465-.46-.547-1.327-.822-2.597-.822Z"/><path d="M50.483,46.291c-2.388,0-3.582,1.096-3.582,3.286v4.667c0,2.103,1.194,3.155,3.582,3.155s3.583-1.052,3.583-3.155v-4.667c0-2.19-1.195-3.286-3.583-3.286Z" fill="#323232"/><path d="M50.451,27.493c-1.315,0-2.235.263-2.761.789-.526.526-.789,1.315-.789,2.366v4.798c0,2.192,1.194,3.287,3.582,3.287s3.583-1.095,3.583-3.287v-4.798c0-2.103-1.206-3.155-3.615-3.155Z" fill="#323232"/></svg>