<?xml version="1.0" encoding="UTF-8"?><svg id="a" xmlns="http://www.w3.org/2000/svg" width="100" height="100" viewBox="0 0 100 100"><path d="M17.104,18.735c-3.62,0-6.771.492-9.452,1.475v9.654c2.815-1.207,5.921-1.81,9.319-1.81,1.698,0,2.871.28,3.52.838.647.56.972,1.353.972,2.38v.938c0,1.475-.168,2.604-.503,3.386-.336.782-.996,1.554-1.978,2.313l-6.704,5.766c-3.71,2.861-5.565,6.503-5.565,10.928v10.928h24.337v-8.849h-14.079v-.872c0-1.519.189-2.637.57-3.352.379-.714,1.418-1.787,3.117-3.218l6.033-5.095c3.307-2.458,4.961-5.855,4.961-10.191v-3.956c0-7.509-4.849-11.263-14.548-11.263Z" fill="none"/><path d="M49.92,18.4c-4.581,0-7.989,1.029-10.223,3.084-2.235,2.056-3.353,4.939-3.353,8.648v4.693c0,3.397,1.028,5.9,3.084,7.509-2.056,1.654-3.084,4.18-3.084,7.576v4.559c0,3.71,1.118,6.593,3.353,8.648,2.234,2.056,5.642,3.083,10.223,3.083s7.989-1.039,10.224-3.117c2.234-2.078,3.352-4.95,3.352-8.615v-4.559c0-3.396-1.028-5.922-3.083-7.576,2.055-1.609,3.083-4.111,3.083-7.509v-4.693c0-3.664-1.118-6.537-3.352-8.615-2.235-2.078-5.643-3.118-10.224-3.118ZM53.574,54.335c0,2.145-1.218,3.218-3.655,3.218s-3.654-1.073-3.654-3.218v-4.76c0-2.234,1.218-3.352,3.654-3.352s3.655,1.118,3.655,3.352v4.76ZM53.574,35.16c0,2.236-1.218,3.352-3.655,3.352s-3.654-1.117-3.654-3.352v-4.894c0-1.073.268-1.877.805-2.413.536-.536,1.475-.805,2.816-.805,2.457,0,3.687,1.073,3.687,3.218v4.894Z" fill="none"/><path d="M97.486,66.425c.054-2.589-.113-6.161-1.79-9.362,1.842-3.45,1.814-7.205,1.791-10.289l-.005-.924c.283-7.156-3.077-13.236-8.802-15.932l-.124-.065c-5.994-3.024-12.041-6.046-18.062-9.055l-8.704-4.354c-6.18-3.116-14.339-3.315-20.786-.51l-.172.079c-1.919.921-3.565,2.199-4.911,3.814-.456-.231-.915-.462-1.372-.694-1.88-.952-3.823-1.936-5.758-2.822-3.956-1.844-9.594-2.18-13.576-1.877-3.04.246-6.184.658-8.586,1.99l-.334.185-.303.232c-2.525,1.94-2.528,4.857-2.529,5.864.005.662.003,1.526,0,2.426-.006,1.759-.014,3.579.037,4.579.083,1.915.923,4.482,4.446,5.856l.444.233c1.472.724,2.942,1.454,4.396,2.184-4.242,3.49-9.33,7.845-10.037,14.755-.297,2.504-.262,4.933-.228,7.283.018,1.229.035,2.391.005,3.516-.055,1.852-.183,6.135,4.757,8.067,4.565,2.28,9.125,4.563,13.685,6.847l10.868,5.44.104.05c.095.049.188.107.282.163.767.452,2.052,1.209,3.765,1.275.333.015.803.015,1.388.015h21.518c1.578.093,3.043-.396,4.176-1.388.714-.626,1.167-1.333,1.455-2.013,2.873,1.514,6.092,3.079,9.78,3.706l.115.018c1.41.207,2.895.322,4.405.322,6.15,0,12.681-1.918,16.025-7.374,2.717-4.169,2.681-8.816,2.637-12.241ZM31.652,33.954c0,4.336-1.654,7.733-4.961,10.191l-6.033,5.095c-1.7,1.431-2.738,2.504-3.117,3.218-.381.716-.57,1.833-.57,3.352v.872h14.079v8.849H6.712v-10.928c0-4.425,1.855-8.067,5.565-10.928l6.704-5.766c.982-.759,1.642-1.53,1.978-2.313.335-.782.503-1.911.503-3.386v-.938c0-1.028-.325-1.82-.972-2.38-.649-.558-1.822-.838-3.52-.838-3.397,0-6.503.603-9.319,1.81v-9.654c2.682-.983,5.832-1.475,9.452-1.475,9.699,0,14.548,3.754,14.548,11.263v3.956ZM63.496,34.825c0,3.397-1.028,5.9-3.083,7.509,2.055,1.654,3.083,4.18,3.083,7.576v4.559c0,3.665-1.118,6.537-3.352,8.615-2.235,2.078-5.643,3.117-10.224,3.117s-7.989-1.028-10.223-3.083c-2.235-2.056-3.353-4.938-3.353-8.648v-4.559c0-3.396,1.028-5.922,3.084-7.576-2.056-1.609-3.084-4.111-3.084-7.509v-4.693c0-3.709,1.118-6.592,3.353-8.648,2.234-2.055,5.642-3.084,10.223-3.084s7.989,1.039,10.224,3.118c2.234,2.078,3.352,4.951,3.352,8.615v4.693Z" fill="#323232"/><path d="M49.887,27.048c-1.341,0-2.28.268-2.816.805-.536.536-.805,1.341-.805,2.413v4.894c0,2.236,1.218,3.352,3.654,3.352s3.655-1.117,3.655-3.352v-4.894c0-2.145-1.23-3.218-3.687-3.218Z" fill="#323232"/><path d="M49.92,46.223c-2.436,0-3.654,1.118-3.654,3.352v4.76c0,2.145,1.218,3.218,3.654,3.218s3.655-1.073,3.655-3.218v-4.76c0-2.234-1.218-3.352-3.655-3.352Z" fill="#323232"/></svg>