<?xml version="1.0" encoding="UTF-8"?><svg id="a" xmlns="http://www.w3.org/2000/svg" width="100" height="100" viewBox="0 0 100 100"><path d="M96.812,73.038c-.155-2.259-1.14-4.139-2.775-5.295l-.541-.336c-1.66-.896-3.351-1.743-5.012-2.563,1.383-1.113,2.784-2.273,4.038-3.591,4.775-4.733,5.126-11.442,4.939-16.167.183-6.791-3.3-12.778-8.934-15.36l-.105-.054c-5.757-2.898-11.551-5.794-17.329-8.682-3.288-1.644-6.571-3.285-9.759-4.881-6.382-3.335-15.035-3.902-23.14-1.512l-.483.168c-1.792.723-2.866,1.912-3.507,3.196l-3.611-1.806c-4.212-2.332-9.376-3.314-15.85-2.99l-.384.023c-2.379.14-5.339.314-7.604,1.598l-.423.24-.372.313c-2.202,1.853-2.303,4.403-2.337,5.241l-.004.169c-.013,1.718-.016,5.245,0,6.9,0,2.295.932,4.315,2.556,5.541l.435.328.492.233c.768.363,1.555.743,2.356,1.138-.915,1.143-1.179,2.4-1.255,3.01l-.029.311c-.093,1.466-.079,3.571-.067,5.427.006.81.011,1.556.005,2.129-.076,2.172.684,4.076,2.122,5.479-1.622-.371-4.083-.532-5.997,1.508-1.1,1.144-1.696,2.697-1.723,4.502-.018,1.393-.012,4.042-.008,5.92l.002.827c-.15,3.271,1.672,6.051,4.822,7.363,4.953,2.476,9.921,4.962,14.882,7.445l11.223,5.616c2.661,1.384,5.322,1.849,7.097,2.078l.108.013c1.917.208,4.003.374,6.142.374,4.488,0,9.214-.731,13.129-3.338.548.272,1.129.592,1.725.919.867.477,1.764.97,2.727,1.414l.413.191.44.117c1.301.347,2.381.318,3.096.297.186-.005.387-.013.618-.005l.215.004c2.174-.003,5.505-.002,8.932,0,5.805.002,11.803.005,13.128-.014l.368-.018c.869-.074,5.207-.728,5.272-6.446-.002-.461,0-1.122.002-1.861.006-1.742.011-3.716-.023-4.909l-.01-.208ZM30.844,53.835c0,3.691-1.245,6.551-3.736,8.58-2.492,2.03-6.079,3.044-10.76,3.044s-8.177-.484-10.483-1.453v-9.826c2.814,1.2,5.939,1.799,9.376,1.799s5.155-1.107,5.155-3.321v-4.013c0-1.107-.254-1.856-.761-2.249-.508-.391-1.43-.588-2.768-.588h-5.397v-9.687h5.258c2.353,0,3.53-1.129,3.53-3.39v-3.252c0-2.214-1.673-3.321-5.017-3.321s-6.1.415-8.268,1.245v-9.756c1.937-.646,4.751-.969,8.442-.969,5.12,0,8.949,1.015,11.486,3.044,2.536,2.03,3.806,4.89,3.806,8.58v4.774c0,1.984-.427,3.622-1.28,4.913-.854,1.292-1.996,2.122-3.426,2.491,3.228.323,4.844,2.56,4.844,6.712v6.643ZM61.426,32.454c0,4.475-1.707,7.981-5.12,10.518l-6.227,5.258c-1.754,1.477-2.826,2.584-3.217,3.321-.393.739-.588,1.892-.588,3.46v.9h14.531v9.133h-25.118v-11.278c0-4.567,1.915-8.326,5.744-11.279l6.92-5.951c1.014-.784,1.695-1.579,2.041-2.387.345-.807.519-1.972.519-3.494v-.969c0-1.06-.335-1.879-1.003-2.457-.67-.576-1.881-.865-3.633-.865-3.506,0-6.712.623-9.618,1.868v-9.964c2.768-1.014,6.02-1.522,9.756-1.522,10.01,0,15.015,3.875,15.015,11.624v4.082Z"/></svg>