<?xml version="1.0" encoding="UTF-8"?><svg id="a" xmlns="http://www.w3.org/2000/svg" viewBox="0 0 115 112"><path d="M99,78.2c0,0-.2-.2-.3-.2,0-.1-.2-.2-.3-.3,0,0-.2-.2-.3-.2,0-.1-.2-.2-.3-.3,0,0-.2-.2-.3-.2,0,0,0-.1-.1-.2v-14.7c0-4.5-1.7-8.5-4.4-11.7,0,0-.1-.2-.2-.3-.3-.3-.5-.6-.8-.8-.2-.2-.4-.4-.6-.6-.2-.2-.4-.4-.6-.6-.2-.2-.4-.4-.6-.6-.2-.2-.4-.4-.6-.6-.2-.2-.4-.4-.6-.6-.2-.2-.4-.4-.6-.6-.2-.2-.4-.4-.6-.6-.2-.2-.4-.4-.6-.6-.2-.2-.4-.4-.6-.6-.2-.2-.4-.4-.6-.6-.2-.2-.4-.4-.6-.6-.2-.2-.4-.4-.6-.6-.2-.2-.4-.4-.6-.6-.2-.2-.4-.4-.6-.6,0,0,0,0,0,0,0,0,0,0,0,0-.5-.6-1.1-1.1-1.8-1.6,0,0,0,0,0,0-.6-.5-1.3-.9-2-1.4,0,0,0,0,0,0-.3-.2-.7-.4-1-.6,0,0,0,0,0,0-.4-.2-.7-.3-1.1-.5,0,0,0,0,0,0-.3-.1-.7-.3-1.1-.4,0,0,0,0,0,0-.4-.1-.8-.2-1.1-.3,0,0,0,0-.1-.1-.2-.2-.4-.4-.6-.6-.2-.2-.4-.4-.6-.6-.2-.2-.4-.4-.6-.6-.2-.2-.4-.4-.6-.6-.2-.2-.4-.4-.6-.6-.2-.2-.4-.4-.6-.6-.2-.2-.4-.4-.6-.6-.1-.1-.2-.2-.3-.3,0,0,0-.1,0-.2,0-2-.9-3.8-2.3-5.1-.2-.2-.4-.4-.6-.6-.2-.2-.4-.4-.6-.6-.2-.2-.4-.4-.6-.6-.2-.2-.4-.4-.6-.6-.2-.2-.4-.4-.6-.6-.2-.2-.4-.4-.6-.6-.2-.2-.4-.4-.6-.6-.2-.2-.4-.4-.6-.6-.2-.2-.4-.4-.6-.6-.2-.2-.4-.4-.6-.6-.2-.2-.4-.4-.6-.6-.2-.2-.4-.4-.6-.6-.2-.2-.4-.4-.6-.6-.2-.2-.4-.4-.6-.6h0c-.2-.2-.3-.3-.5-.5,0,0,0,0,0,0-.2-.1-.3-.3-.5-.4,0,0,0,0,0,0-.2-.1-.3-.2-.5-.3,0,0,0,0,0,0-.2,0-.3-.2-.5-.3,0,0,0,0-.1,0-.2,0-.3-.1-.5-.2,0,0-.1,0-.2,0-.2,0-.3,0-.5-.1,0,0-.1,0-.2,0-.2,0-.3,0-.5,0,0,0-.1,0-.2,0-.2,0-.5,0-.7,0h-21.8c-3.8,0-6.8,3.1-6.8,6.8s0,.8,0,1.1c.2,1.1.7,2.1,1.3,3h-1.4c-.7,0-1.4.2-1.9.5,0,0,0,0,0,0-.1,0-.3.2-.4.3-.1.1-.3.2-.4.3,0,0,0,0,0,0-.7.7-1.2,1.8-1.2,2.9v4.2c-1.2.2-2.2.8-3.1,1.5-1.4,1.2-2.3,3.1-2.3,5.1v26.1c-.3.1-.7.3-1,.5-.3.2-.6.4-.8.7-.2.2-.3.4-.4.6,0,.1-.1.2-.2.4-.2.5-.4,1-.4,1.6,0,0,0,0,0,0,0,.8.2,1.6.7,2.3.1.2.3.4.5.6h0s0,0,0,0c0,0,.1.1.2.2,0,.1.2.2.3.3,0,0,.2.2.3.3,0,.1.2.2.3.3,0,0,.2.2.3.3,0,.1.2.2.3.3,0,0,.2.2.3.3,0,.1.2.2.3.3,0,0,.2.2.3.3,0,.1.2.2.3.3,0,0,.2.2.3.3,0,.1.2.2.3.3,0,0,.2.2.3.3,0,.1.2.2.3.3,0,0,.2.2.3.3,0,.1.2.2.3.3,0,0,.2.2.3.3,0,.1.2.2.3.3,0,0,.2.2.3.3,0,.1.2.2.3.3,0,0,.2.2.3.3,0,.1.2.2.3.3,0,0,.2.2.3.3,0,.1.2.2.3.3,0,0,.2.2.3.3,0,.1.2.2.3.3,0,0,.2.2.3.3,0,.1.2.2.3.3,0,0,.2.2.3.3,0,.1.2.2.3.3.8.8,1.8,1.2,2.9,1.2h2.9s0,0,0,0c.2.2.4.4.6.6.2.2.4.4.6.6.2.2.4.4.6.6.2.2.4.4.6.6.2.2.4.4.6.6.2.2.4.4.6.6.2.2.4.4.6.6.2.2.4.4.6.6.2.2.4.4.6.6,1.7,1.9,4.2,3.1,7,3.1,4.8,0,8.8-3.6,9.4-8.2h16.6s0,0,0,0c.2.2.4.4.6.6.2.2.4.4.6.6.2.2.4.4.6.6.2.2.4.4.6.6.2.2.4.4.6.6.2.2.4.4.6.6.2.2.4.4.6.6.2.2.4.4.6.6.2.2.4.4.6.6,1.7,1.9,4.2,3.1,7,3.1,4.8,0,8.8-3.6,9.4-8.2h5.6c2.3,0,4.1-1.8,4.1-4.1s-.4-2.1-1.2-2.9ZM88.8,71.8c.3.2.4.6.4.9,0,.7-.6,1.4-1.4,1.4h-5.6c-.1-1-.4-1.9-.8-2.7h6.4c.4,0,.7.1,1,.4ZM49.7,19.7h6.8c2.3,0,4.1,1.8,4.1,4.1s-1.8,4.1-4.1,4.1h-6.8v-8.2ZM44.3,19.7h2.7v8.2h-2.7v-8.2ZM34.7,19.7h6.8v8.2h-6.8c-2.3,0-4.1-1.8-4.1-4.1s1.8-4.1,4.1-4.1ZM21.1,57.8h9.5c2.3,0,4.1-1.8,4.1-4.1v-8.2c0-2.3-1.8-4.1-4.1-4.1h-9.3c.6-1.6,2.1-2.7,3.8-2.7h46.3c3.2,0,6.1,1,8.6,2.7h-14c-2.3,0-4.1,1.8-4.1,4.1v13.6c0,2.3,1.8,4.1,4.1,4.1h20.4v5.4h-7c-1.7-1.7-4.1-2.7-6.7-2.7s-4.9,1-6.7,2.7h-24.8c-1.7-1.7-4.1-2.7-6.7-2.7s-1.2,0-1.8.2h-3.5v1.4s0,0,0,0c-.5.3-1,.7-1.4,1.1h-7v-10.9ZM63.4,74.1h-19.3c-.1-1-.4-1.9-.8-2.7h20.9c-.4.8-.7,1.8-.8,2.7ZM19.8,71.4h6.4c-.4.8-.7,1.8-.8,2.7h-5.6c-.4,0-.7-.1-1-.4-.3-.2-.4-.6-.4-.9,0-.7.6-1.4,1.4-1.4Z"/><rect x="37.5" y="41.5" width="21.8" height="16.3" rx="4.1" ry="4.1"/></svg>