<?xml version="1.0" encoding="UTF-8"?><svg id="a" xmlns="http://www.w3.org/2000/svg" viewBox="0 0 115 112"><rect x="54.2" y="57.2" width="17.3" height="13.9"/><rect x="34.1" y="57.2" width="17.3" height="13.9"/><path d="M94,38.7v-6.9h-.5c0,.1,0-.5,0-.5h-.5c0,.1,0-.5,0-.5h-.5c0,.1,0-.5,0-.5h-.5c0,.1,0-.5,0-.5h-.5c0,.1,0-.5,0-.5h-.5c0,.1,0-.5,0-.5h-.5c0,.1,0-.5,0-.5h-.5c0,.1,0-.5,0-.5h-.5c0,.1,0-.5,0-.5h-.5c0,.1,0-.5,0-.5h-.5c0,.1,0-.5,0-.5h-.5c0,.1,0-.5,0-.5h-.5c0,.1,0-.5,0-.5h-.5c0,.1,0-.5,0-.5h-.5c0,.1,0-.5,0-.5L19.8,42.8v6.9h.5c0-.1,0,.5,0,.5h.5c0-.1,0,.5,0,.5h.5c0-.1,0,.5,0,.5h.5c0-.1,0,.5,0,.5h.5c0-.1,0,.5,0,.5h.5c0-.1,0,.5,0,.5h.5c0-.1,0,.5,0,.5h.5c0-.1,0,.5,0,.5h.5c0-.1,0,.5,0,.5h.5c0-.1,0,.5,0,.5h.5c0-.1,0,.5,0,.5h.5c0-.1,0,.5,0,.5h.5c0-.1,0,.5,0,.5h.5c0-.1,0,.5,0,.5h.5c0-.1,0,.5,0,.5l2.9-.8c0,.4,0,.7,0,1.1v26.8c0,2,.9,3.7,2.2,5,.2.2.3.3.5.5.2.2.3.3.5.5.2.2.3.3.5.5.2.2.3.3.5.5.2.2.3.3.5.5.2.2.3.3.5.5.2.2.3.3.5.5.2.2.3.3.5.5.2.2.3.3.5.5.2.2.3.3.5.5.2.2.3.3.5.5.2.2.3.3.5.5.2.2.3.3.5.5.2.2.3.3.5.5,1.2,1.4,3,2.2,5,2.2h33.5c3.7,0,6.7-3,6.7-6.7v-26.8c0-2-.9-3.7-2.2-5-.2-.2-.3-.3-.5-.5-.2-.2-.3-.3-.5-.5-.2-.2-.3-.3-.5-.5-.2-.2-.3-.3-.5-.5-.2-.2-.3-.3-.5-.5-.2-.2-.3-.3-.5-.5-.2-.2-.3-.3-.5-.5-.2-.2-.3-.3-.5-.5-.2-.2-.3-.3-.5-.5-.2-.2-.3-.3-.5-.5-.2-.2-.3-.3-.5-.5-.2-.2-.3-.3-.5-.5-.2-.2-.3-.3-.5-.5-.2-.2-.3-.3-.5-.5-1.2-1.4-3-2.2-5-2.2h-6.2v-3.6l30.2-8.2ZM69.5,52c2.6,0,4.8,2.1,4.8,4.8v26.8c0,2.6-2.1,4.8-4.8,4.8h-33.5c-2.6,0-4.8-2.1-4.8-4.8v-26.8c0-2.6,2.1-4.8,4.8-4.8h15.3v-13.5l-30.2,8.2v-3l63.2-17.2v3l-30.2,8.2v14.3h15.3Z"/></svg>