<?xml version="1.0" encoding="UTF-8"?><svg id="a" xmlns="http://www.w3.org/2000/svg" viewBox="0 0 400 400"><defs><style>.b{fill:#060606;}</style></defs><path class="b" d="M332.5,176.8h0c-16.3-14.9-32.6-30.3-48.3-45.3-12.7-12-25.8-24.4-38.9-36.6-22.1-20.4-46.7-30.8-73.2-30.8s-27.5,2.7-41.9,7.9c-42.7,15.5-68.2,47.8-73.8,93.5-2.2,17.8-1.9,36.2-1.7,54,.2,9.9.3,20,0,30.2-.5,20.4,6.2,38.5,19.9,53.7,9.4,10.4,19.3,20.5,28.9,30.4l.9.9c3.3,3.4,6.7,6.8,10,10.3,9,9.3,19.3,13.3,33.4,13.1,19.2-.4,38.5-.3,57.2-.2,8,0,15.9,0,23.9,0h24.5c22.7,0,40.1,0,56.5,0,31,0,38.1-7.4,38.1-39,0-10.9,0-21.9,0-32.6v-.7c0-23.2-.2-47.3.3-70.9.3-15.8-4.6-27.4-15.9-37.7ZM257.2,282.9c-4.6,4.6-9.7,7-15.2,7s-10.6-2.2-15.7-6.5c-5.3-4.4-10-9.1-15-14l-.8-.8c-.9-.9-1.8-1.8-2.8-2.7-27.7,10.4-52.8,10.4-76.5-.2-3.7,2.4-6.8,5.7-10.1,9.2-2.5,2.6-5,5.3-8,7.8-5.5,4.5-19.6,13.6-32.5-.2-8.4-9-8.1-21.5.9-31.1,4-4.2,8.6-7.5,13.4-10.9.4-.3.8-.5,1.1-.8-19.2-26.7-25.4-52.3-19.7-80.2,4.7-22.6,16.7-41.5,35.8-56.1,35.9-27.4,88-24.9,121.3,6,35.6,33.1,39.1,80.2,9.7,129.5.5.4,1.1.9,1.6,1.3l.2.2c4.5,3.8,8.7,7.3,12.5,11.6,8.8,10.1,8.7,22-.2,31Z"/><path d="M95,53.9c-.5-2-3-6-7.9-8.6-5.8-3.1-11.3-2.3-16.1,2.2-9.9,9.3-21.5,20.5-32.4,32.4-8,8.7-4.7,15.9-.6,20.4,3,3.3,6.5,4.9,10.1,4.9s7.8-1.8,11.6-5.3c9.1-8.4,17.9-17.5,26.4-26.3l4.7-4.8c2.4-2.5,4.9-5.9,4.2-14.6v-.4Z"/><path d="M301,80c-8-8.9-16.8-17.5-25.3-25.8-2.3-2.3-4.6-4.5-6.9-6.8-2.7-2.6-6.3-4.3-11-5h-.7c0-.1-.7,0-.7,0-6.5,1.6-10.5,4.4-12.6,9-3,6.3-2.1,12.4,2.6,17.3,10.3,10.7,20.9,21.8,32.3,32.3,3.7,3.4,7.5,5.1,11.3,5.1s7.1-1.6,10.3-4.6c6.6-6.3,6.9-14.7.7-21.6Z"/><path d="M207.6,185.8c-.7-7.5-4.7-11.8-12-12.8-3.2-.4-6.5-.5-10.7-.7h-.1c-2.2,0-4.6-.2-7.4-.3h-1.3v-1.4c0-3.4,0-6.6,0-9.8,0-6.8.2-13.3-.2-19.7-.6-10.2-6-16.8-14.3-17.3-3.8-.2-7.2,1-9.9,3.5-3.2,2.9-5.1,7.3-5.3,12.5-.7,14.8-.4,29.5,0,45.9h0c.2,6.8,3.4,14.4,11.8,15.1,6,.5,12.2.8,18.5.8s12.9-.3,19.5-.8c3.9-.3,6.5-2.5,7.9-4.2,2.5-2.9,3.7-7,3.3-11Z"/></svg>