<?xml version="1.0" encoding="UTF-8"?><svg id="a" xmlns="http://www.w3.org/2000/svg" viewBox="0 0 400 400"><path d="M354.4,133.4c-.4-5.9-1-12.7-3.7-18.4-2.2-5.1-5.1-8.3-9.3-12h0c-2.3-2.3-4.7-4.5-7.2-6.9-3.1-2.9-6.4-6-10.3-9.8l-49.5-46.8c-4.3-4.6-12.1-4.7-17.5-2.5-8.7,3.4-17.4,9.2-25.8,14.7-5.3,3.5-10.9,7.1-16.4,10.2-7.5,4.7-16.1,3.9-23.1,3.2-7-.4-13.6.6-19.5,3-6.7,2.5-12.1,7.6-17.9,13-1,.9-1.9,1.8-2.9,2.6-3.9,3.6-7.7,7.2-11.6,10.8-14.3,13.4-27.7,26.3-40.6,38.8-6.1,5.9-12.3,11.9-18.6,17.9-1,1-2.1,2.1-3.2,3.1-4.1,3.9-8.3,7.9-10.8,12.6-3.5,7.3-4.7,16-3.7,27.4,0,.9.2,1.9.3,2.9.6,4.5,1.2,9.1-.2,13.6-1.5,6.2-6.9,14.9-12.7,24-8.5,13.6-19.1,30.6-15.5,38.7,1.9,4.5,5.4,8,9.1,11.7,1.4,1.4,2.8,2.8,4.1,4.2,18.8,19.1,30.8,31.2,45.6,46.2l.3.3c16.2,19.7,26.5,19.6,49,19.4,2.8,0,5.7,0,8.9,0,23.4-.1,47.1-.1,70.1,0,39.9,0,77.6,0,112.6-.6,5.9-4.5,13.3-11,16.5-15.1,2.2-3.3,2.5-6.6,2.8-12-1.3-30.4-.3-62.1.6-92.8,1-33.6,2-68.4.1-101.2ZM238.3,80.2h0c2.2-2.7,4.9-4.3,7.6-5.8.5-.3,1-.6,1.5-.9l.8-.5c3.9-2.2,8.6-5,13.2-4.4,4.5.3,7.7,3.5,10,5.8l20.8,20.6c.4.4.8.7,1.1,1.1,2.9,2.9,6.2,6.1,6.3,11.2,0,3.7-1.4,6.7-2.9,9.8v.2c-.7,1-1.2,2-1.7,3-1.6,3.1-3.3,6.4-5.5,9l-.2.2c-2.1,2.4-5.3,3.5-8.2,3.5s-3.1-.3-4.4-.9c-2.4-1.1-4-2.8-5.6-4.4-.4-.5-.9-.9-1.4-1.4l-19.8-20.1c-3.9-4-7.4-7.5-9.5-9.6-5.2-4.6-6.1-11.3-2.3-16.4ZM135.3,285.7v.3c-.9,2.9-3,4.3-5.1,5.6-.3.2-.6.4-.9.6h0c-3.3,2.1-6.8,4.1-10.2,5.8-4.1,2.1-11.3,5.3-17.3,5.3s-2.2-.1-3.3-.4h-.1c-2.6-.8-4.2-2.6-6.3-5.2-1.7-2.2-3.8-4.7-5.9-7.3-4-5-8.1-10.1-11.2-13.9-.7-.9-1.4-1.7-2.1-2.5-5.6-6.6-10.8-12.9-2.4-23.3,2.8-4.3,10-15.2,19.4-11l.4.2c2.9,1.6,5.8,4.5,8.6,7.4,1.4,1.4,2.7,2.8,4,3.9h0c0,0,26.6,25.9,26.6,25.9.8.9,1.6,1.5,2.2,2.2,2,1.9,3.8,3.5,3.7,6.3v.3ZM199.4,267.2h-.1c-4.3,3.8-8.7,7.6-13.9,10.2-2.9,1.6-5.6,2.2-8.2,2.2-8.5,0-15.7-7.1-21.7-13.2-1.6-1.6-3-3-4.5-4.3-19.2-18.3-29.8-29.1-49.3-50.1h0c-1.2-1.6-2.7-3.1-4.3-4.7-4.8-4.9-10.3-10.4-9.7-17.7v-.2c.8-5.1,5.3-9.8,8.9-13.6l.6-.7c2.9-3,5.8-5.9,8.7-8.9,3.7-3.8,7.5-7.7,11.3-11.6l1.1-1.1c25.1-25.7,30.3-31.1,55.4-53.4,6.9-6.6,16.9-10.9,24-5.7l.4.3c25.5,21.8,52,45.1,70.8,67.6,6.3,7.7,12.2,16.7,3.3,27.6-27,32.5-51.5,58.4-72.9,77.1ZM305,226.2c-.2,7.9-9.6,20.9-19.8,27.4-4.1,2.6-7.9,3.9-11.3,3.9s-3.2-.3-4.6-.9c-3.2-1-5.8-3.7-7-7.1-1.1-3.2-.7-6.6,1.1-9.2,2.8-3.7,5.9-7,9.2-10.4,2-2,4-4.1,6.1-6.5h0c.8-.9,1.6-1.8,2.4-2.6,2.3-2.5,4.4-4.8,6.4-6h.2c3.4-2.2,7.7-2.1,11.4.2,4,2.5,6.3,6.8,6,11.1Z"/></svg>