<?xml version="1.0" encoding="UTF-8"?><svg id="arrow" xmlns="http://www.w3.org/2000/svg" width="366.76" height="314.352" fill="currentColor" viewBox="0 0 366.76 314.352"><path d="M364.907,181.077l-.287-.616c-8.741-17.888-18.177-37.059-27.926-56.021l-.55-1.109c-1.759-3.568-3.752-7.611-6.849-10.238l-.199-.155c-26.646-18.998-79.832-56.892-116.825-83.248l-34.414-24.52c-.08-.057-.156-.119-.228-.185-5.102-4.635-11.912-6.206-17.448-3.998-5.193,2.072-8.383,6.959-8.75,13.409l-.005.158c-.03,7.646-.024,18.914-.019,28.988.004,6.192.007,11.932,0,16.101,0,.011-.001.022-.002.034-.104,1.596-1.385,2.854-2.984,2.856-14.244.021-52.706.015-84.617.009-24.141-.005-44.731-.009-48.872.002-3.967.078-9.347,2.102-12.552,7.548l-.091.164C-.094,74.958.113,79.493.312,83.88c.099,2.164.201,4.4.006,6.729l-.011.227c-.025,3.282-.063,6.996-.104,10.998-.475,47.092-.267,73.595,2.215,78.825,5.603,11.343,11.493,23.145,17.189,34.558,4.132,8.277,8.248,16.524,12.264,24.615.075.151.133.309.179.471,3.609,12.611,27.626,12.417,55.365,12.198,4.672-.037,9.503-.075,14.304-.051,6.583-.067,14.415-.365,21.988-.654,11.669-.443,23.724-.903,31.824-.557.71.03,1.387.301,1.9.793,1.783,1.711,3.578,5.77,4.853,8.651.928,2.099,1.805,4.081,2.716,5.566,1.408,2.457,3.201,6.559,5.277,11.307,7.214,16.497,16.089,36.799,27.754,36.797.7,0,1.411-.073,2.131-.225l.271-.057.256-.105c8.648-3.568,56.356-38.035,113.142-79.322,23.184-16.856,43.206-31.415,47.155-33.839l.172-.113c5.53-3.941,7.326-13.426,3.747-19.614ZM22.122,167.561l-.004-76.154c0-1.655,1.342-2.997,2.997-2.997l144.925.004c1.655,0,2.997-1.342,2.997-2.997v-47.417c0-2.434,2.749-3.853,4.733-2.442l128.235,91.154c1.677,1.192,1.681,3.682.007,4.88l-128.239,91.745c-1.983,1.419-4.74.001-4.74-2.437v-47.345c0-1.655-1.342-2.997-2.997-2.997H25.118c-1.655,0-2.997-1.342-2.997-2.997Z"/></svg>