<?xml version="1.0" encoding="UTF-8"?><svg id="a" xmlns="http://www.w3.org/2000/svg" width="400" height="400" fill="currentColor" viewBox="0 0 400 400"><path d="M177.038,116.113v-48.567c0-7.72,15.701-16.002,22.681-10.064,44.979,26.206,95.023,47.17,139.635,73.552,11.547,6.828,18.146,12.89,19.381,27.293,4.313,50.324-3.306,106.743-.059,157.713-1.661,15.184-13.278,25.813-28.315,27.189-45.655,4.178-97.58-3.271-143.905-.008-6.833-.354-12.808-2.993-18.141-7.088-37.045-34.748-82.174-64.757-118.702-99.532-5.546-5.28-8.093-6.932-8.86-15.108-2.7-28.757,2.111-61.66.05-90.873-.837-5.141,7.594-14.508,11.983-14.508h124.255ZM207.314,248.567l81.904-72.361-81.904-71.446v29.645c0,3.49-8.541,11.984-11.984,11.984h-124.255v60.55h124.255c3.443,0,11.984,8.494,11.984,11.984v29.645Z"/></svg>