<?xml version="1.0" encoding="UTF-8"?><svg id="a" xmlns="http://www.w3.org/2000/svg" viewBox="0 0 400 400"><path d="M75.9,233.2c-2.1,0-4.2,0-6.2,0-17.8.3-20,2.6-20.2,20.3,0,10.9,0,21.8,0,32.7v12.5c0,24.9,15,39.9,40.1,40,63.6.3,132.3.3,216.2,0,21.9,0,30.8-8.8,31-30.2.2-34.7.2-69.9.1-104,0-14.5,0-29,0-43.4s-7.3-32.3-22.4-42.5c-12.5-8.5-24.9-17.1-37.3-25.6-16.7-11.5-34-23.5-51.1-35-5.2-3.5-11.4-5.7-16.6-6.1-9.8-.6-19.9-.5-29.7-.4-5.7,0-11.4.1-17,0-5.2-.1-9.2,1.1-11.6,3.5-2.4,2.4-3.7,6.2-3.7,11.5,0,12.3,0,24.7,0,37v9.9c0,13,0,20.1,2.7,23.6,2.7,3.5,9.6,5.2,22.1,8.2l2.6.6v32s-21.2,0-21.2,0c-13.5,0-26.6,0-39.7,0q-21.7,0-21.9,21.1c0,6.3,0,12.6,0,19.7v14.5s-10.7,0-10.7,0c-1.9,0-3.7,0-5.4,0ZM300.1,256.4v46.1h-59.9v-46.1h59.9ZM258.5,200v31.9h-61.1v-31.9h61.1ZM170.5,120.5v-46.4h32.1v46.4h-32.1ZM216.3,255.8v46.2h-60.1v-46.2h60.1ZM113.6,199.8h61.2v32.2h-61.2v-32.2ZM132.8,256.5v45.3h-60.3v-45.3h60.3Z"/></svg>