<?xml version="1.0" encoding="UTF-8"?><svg id="a" xmlns="http://www.w3.org/2000/svg" viewBox="0 0 400 400"><path d="M323.4,365.1c10.2-3.5,18-12.8,20.4-24.2v-195.3c-1.9-16.5-15.7-24.1-29-31.4-2.4-1.3-4.9-2.7-7.2-4.1-44.4-26.3-85.2-49.6-125-71.2-1.1-.6-2.3-1.5-3.6-2.5-1.2-.9-2.6-2-3.5-2.4-5.8-2.7-12.1-1.8-16.4,2.3-4.4,4.3-4.3,9.9-4,16.4,0,2.3.2,4.7,0,7.1v1c0,0-.7.7-.7.7-.7.7-1.5.9-5.8,1.6-1,.2-2.4.4-2.7.5-25.9,8.8-39.3,32.2-52.2,54.9-1.5,2.6-2.9,5.2-4.4,7.7-18.8,32.2-50.3,86.2-46.9,128.7,3,37.4,24.8,63.5,47.9,91,1.3,1.5,2.6,3.1,3.9,4.6,1.2,1.4,2.2,2.7,3.1,3.8,3.7,4.7,5.3,6.7,12.9,9.8.8.3,1.3.9,1.6,1.3.5,0,1.2.2,1.8.3,1.5.2,3.1.4,4.4.9h200.9c1.5-1.2,2.9-1.3,3.8-1.3.4,0,.7,0,.9-.1ZM268.1,253.3c-3.9,33.7-25.5,63-56.4,76.5-14.4,6.3-26.9,9.3-40.8,9.3s-15.5-.9-24.5-2.6c-25.9-4.9-48.8-20.7-62.9-43.4-14.1-22.6-17.1-43.3-10.1-69.2,9.3-34.2,31.1-71.7,49.1-100.5,1.2-2,2.4-4,3.6-6,6.3-10.7,12.3-20.8,24.7-26.3,5.4-2.4,22.2-5.9,29.6-2.5h0c.7.3,1,.8,1.2,1.2,15.8,3.9,22.6,15.5,29.9,27.8,1.2,2,2.4,4.1,3.7,6.2,8.8,14.2,19,31,27.9,48.5,12.7,25.1,27.4,59.5,24.9,81Z"/><path d="M190,181c36,19.3,35.9,82.7-.3,101.8-26.6,14-53.4-.1-64-26.3-2.5-6.2-4.6-11.9-5.3-19-3.8-37.6,30.5-77.5,69.6-56.5Z"/></svg>