<?xml version="1.0" encoding="UTF-8"?><svg id="a" xmlns="http://www.w3.org/2000/svg" viewBox="0 0 400 400"><path d="M45.2,247.9c1,7.3,7.5,13.9,13.2,19.7l1.1,1.2c8.9,9.1,16.6,18.8,24.1,28.1,17.9,22.3,33.3,41.5,57.3,45.6,11.5,0,34.9.2,62.1.4,38.3.3,81.7.6,109.4.6,5-.2,11.9-1.7,16.3-5.3h0c5.5-4,6.7-13.6,8.1-24.6.4-3.2.8-6.5,1.4-9.9,2.9-17.9,6.2-40.7,9.6-64.9,1.9-13.2,3.8-26.8,5.7-39.4.6-6.1,1.6-11.6,2.4-16.5,2.3-13.1,4-22.6-2.3-33.6h0c-4.3-6.5-12-16.4-20.1-26.9-5.6-7.3-11.5-14.8-16.6-21.7h0c-12.1-17-15.4-21.5-35.9-20.2h-.1c-48.9.5-168.7,1.6-225.6,2.4,0,0-.1,0-.2,0-3.2,0-6,1-7.8,2.9-2.5,2.4-2.6,6.3-2.5,10.8.3,5.1.2,10.7.2,16.2,0,2.1,0,4.1,0,6.1,0,16.2,0,35.8,0,54.7,0,33.7-.1,65.6.3,74.4ZM288.6,179.9c0,1.4,0,2.9,0,4.3h0c0,0,0,.2,0,.2-.2,3.9.3,9.2.9,14.9,1.7,17.8,3.9,42.2-12.4,49.9l-.4.2h-.2c-4.9,1-12.7,1.1-24.6,1.2-7,0-15.6.1-25.6.4-24.8.4-54.5.8-80.7,1.2-27.2.4-48.7.7-54.7.8-.2,0-.4,0-.6,0-2.6,0-5.6-1.1-6.9-1.6-7.1-3-15.4-9.9-15.5-19.4-.3-9.5-.2-25.3,0-38,0-2.8,0-5.4,0-7.8v-.2c.1-1.6,0-3.4,0-5.3-.2-5.8-.4-12.5,5.4-16.8,3.8-2.6,7.5-2.7,10.4-2.7l39.2-.4c47.8-.5,113.3-1.2,150.2-1.5,5-.3,8.7.8,11.3,3.3,4.2,4.1,4.2,10.8,4.1,17.3ZM72,96.9l.2-.2c1.1-.8,2-1.1,3.2-1.2h.1c18.1-.5,55.3-.9,85.2-1.2,7.3,0,14.3-.2,20.4-.2l30.5-.3c31.8-.3,59.2-.6,65.4-.8,1.6,0,2.5.2,4.2,1.2h.1c4.4,3.4,4.6,8.6,4.8,13.2v.8c.2,4.7,0,10-3.6,13.1-3.4,3-8.1,3-11.2,3-16.6,0-36.2.3-57,.5-35.8.4-72.8.7-102.9.6-3.7,0-8.1.2-12.8.4-5.2.3-9.7.4-13.5.4-7,0-11.7-.6-14.1-2.7-3.3-2.4-3.4-6.4-3.4-9.3,0-.4,0-.8,0-1.2,0-.8,0-1.5,0-2.3-.1-4.7-.2-10.5,4.3-14Z"/><path d="M180.4,200.3c0-1.4-.1-2.8-.1-4.4,0-1.5,0-3-.1-4.5,0-2.5-.1-4.9-.2-7.1,0-2.1-.3-4.5-2.2-5.4l-.4-.2h-.5c-6.2-.6-32.8-.2-56.3.1-10.6.2-20.7.3-27.3.3-2,0-3.5.5-4.6,1.6-1.7,1.8-1.9,4.4-1.7,7,0,1.7,0,3.7.1,5.8,0,4.9.2,10.5.5,14.3v.2c.2,1,.6,3.8,3.9,4h.1c2,0,5.7,0,10.4,0,9.8,0,24.3,0,38.4-.2h13.6c5.3-.1,10.1-.1,14.2-.2,2.5,0,4.7,0,6.5,0,2.9,0,4.9-1.5,5.5-3.8v-.4c.5-2.5.4-4.9.2-7.3Z"/></svg>