<?xml version="1.0" encoding="UTF-8"?><svg id="a" xmlns="http://www.w3.org/2000/svg" viewBox="0 0 400 400"><defs><style>.b{fill:#080808;}</style></defs><path class="b" d="M55.3,265.6c17.5,22.6,36.5,43.9,54.8,66,5.5,6.6,11.1,13.8,18.3,18.6,13.9,9.6,31.6,7.9,47.7,7.8,43.1-.4,106.7.9,139.2-.4,8.9-.5,19-3.9,25.1-11.4,5-6,7.2-14.1,7.9-22.2,1.1-49.6,0-99,.3-148.5-1.1-20,3.8-41.9-5.7-60.3-7.9-13.1-18.9-24-28.4-35.9-3.9-4.7-7.9-9.4-12.5-13.4-9.5-8.4-21.9-12.5-34.6-12.6-52.8-.2-105.2-1.3-157.1.2-46-.3-54.5,37-52,77.9,1.4,26.6-5.8,23.9-13.4,44-2.6,10.8-1,22.3-1.3,33.3-.6,19.5-1.1,40.7,11.8,56.8v.2ZM87.5,100.4c2.3-23.2,24.6-18.7,41.6-19.2,45.5.5,94.5-1.7,142.5,1,4,.5,7.8,1.7,10.6,3.9,8.7,7,7.3,19.7,7.7,29.8-.3,11.9,1.2,24.3-1.1,36.1-1,4-3.4,7.1-7.2,8.6-4.6,1.7-10.8,2.2-14.2.2-3.2-2.4-.5-7.4,0-11.1.7-3.3.7-6.9-.4-9.9-2.9-8-12.4-9.1-19.8-9.5-10.3-.4-20.8-.6-31.1.6-5.9.8-12.3,2.9-15.1,8.5-4.5,11.5,5.3,22.3-14.6,22.4-19.8-.1-4-17-14.4-26.2-7.8-6.7-19.5-5.1-29.1-5.4-10.6.6-25.7-1.8-32.6,7.5-2.8,4.3-2.2,9.9-2.9,14.8-.6,7.5-8.4,11-14.5,6.8-6.7-4.7-5.7-14.3-6-21.6,0-12.1-.6-24.7.7-36.9v-.2ZM76.1,191.6c3.4-3.7,8.6-4,13.3-4,53.6.2,169.9-.3,201.8.1,13,.8,14,12.9,13.8,23.6,0,9.7,0,19,0,28.5,0,6.9-.2,14.6-3.7,20.3-3.6,6.1-11.5,9.3-18.2,7-7.1-2.4-12.2-9.4-19.8-10.9-11.1-2-22.8-.6-34.1-1-7.3,0-14.4,0-21.7,0-28.4.1-57.3-.3-85.9,0-3.1.1-6.2.4-9.1,1.2-7.7,1.8-12.8,8.9-20.2,11-15.8,3.6-21-13.2-20.4-25.9,0-8.2,0-16.2,0-24.9.3-8.1-1.3-18.4,4.2-25h.1Z"/></svg>