<?xml version="1.0" encoding="UTF-8"?><svg id="a" xmlns="http://www.w3.org/2000/svg" viewBox="0 0 400 400"><path d="M38.5,154.4c1.7-27.2-1-87.7,1-100.5,1.2-6.9,8.2-11.6,15.3-12.8.2,0,.3,0,.5,0,2.3-.1,185.3-1.3,221.5-1,12.2-.7,21.1,9.7,28.3,18,9.6,10.9,26,28.6,36.2,40.5,3.1,3.9,4.9,9,7.5,14,1.8,3.5,3,6.2,2.7,10.1.2,46.8.2,193.5.3,204.3,0,6.4-2.7,13.9-7.3,18.7-9.4,10.3-19.4,21.9-34.3,22.9-10.9.6-65.9.2-118.9.3-23.8,0-40.4.1-59.8,0-.4,0-.9,0-1.3-.2-5-1.8-11.1-6.2-16.4-8.8-5.7-2.9-11-7.6-15-12.7-15.8-19.1-47.4-56.4-62-74.3-.8-.9.6.6,1.1,1.1.3.4.8.8,1.1,1.1.3.3.5.4.5.3,0-.3-1.4-1.9-2.3-3-6.7-10-11.6-88.6-13.2-96.8-.2-1.1,0-1.3.4-3.1,2-10.4,8.9-10.4,14-17.8h0ZM285.6,152.5c.7-9.1,0-57.4-1-67.8s0-.6-.2-.9c-2.2-6.6-8.4-11.3-15.6-11.5-9.5.2-182.8.3-186.2.5s-8.9,3.4-9.9,8-.8,52.5-.8,70.2c0,2.9,3.3,4.2,5.9,3.9,2.9,0,7.9,0,10.6,0,2.4.3,5.9-1,4.8-4-.5-1.3-2-2.3-2.8-3.3-.6-.8-.7-1.8-.7-2.7,0-4.1.2-13.9.3-17.6-.1-1.4.6-2.7,1.6-3.6s1.5-.9,2.4-.9c10-.2,57.6,0,69.5.6,1.4,0,2.6.8,3.3,2s.8,2.1.7,3.2c.1,3.1.4,9.5.5,13.4.5,3.8-.4,5.2-2.2,7.8-2,3.3,1,5.5,4.1,5.1,4.1,0,14.1,0,17.9,0,3.3.3,5.6-2.2,3.8-5.3-1.1-1.8-1.7-3.4-1.6-5.5,0-3.7-.3-11.8-.3-15.4-.2-1,0-2.2.5-3.2s1.9-2.1,3.3-2.2c12.4-.6,63-.2,71.2-.3,1.8.4,3.4,3.1,3.1,5.2.2,3.5.5,11.2.7,14.8.1,1.9-.1,3.6-1.5,5.1-4.6,5.9.2,7.1,6.6,6.6,3.8-.4,9.8,1.3,12-2.3h0ZM300.1,188c-3.7-.9-23.6,0-53.6-.3-67.5.6-172-1-187.5.4s-2.3.7-2.9,1.8c-1.2,1.9-.2,3.7-.5,7.6s0,.2,0,.3c.2,15.7-.4,47.8.2,65.8s.6,2.4,1.7,3.1,2.2.9,3.4.8c4.8,0,18.1.2,22.3.3,1.7.1,3.5-.5,4.3-2.1,1.9-3.7-.8-11.1,3.4-13.2s1.1-.4,1.7-.3c13.3.2,130.2.8,172.3,1.5,1.3,0,2.5.6,3.2,1.7s.1.2.2.3c1.8,3.1-.6,10.9,4.3,12.1,6.4.4,16.6.1,22.6.3,3.7.3,6.6-.3,6.9-3.9,0-5.5.3-41.3.4-60.7,0-5.9,0-10.3,0-11.8.1-1.4-1.1-2.6-2.2-3.4h0Z"/></svg>