<?xml version="1.0" encoding="UTF-8"?><svg id="a" xmlns="http://www.w3.org/2000/svg" width="400" height="400" viewBox="0 0 400 400"><path d="M285.482,95.912l14.234,10.669-6.402,8.542-39.461-29.577,9.646-12.868c2.333-3.113,4.895-4.986,7.684-5.624,2.789-.636,5.608.112,8.455,2.245l7.288,5.463c4.556,3.415,6.236,7.105,5.043,11.072l19.57,4.974-7.042,9.397-18.203-5.374-.811,1.082ZM267.544,82.467l11.162,8.366,2.518-3.359c.654-.873.919-1.623.796-2.25-.124-.625-.661-1.295-1.608-2.005l-6.436-4.823c-.835-.625-1.547-.862-2.134-.71-.589.153-1.182.626-1.779,1.424l-2.518,3.359Z" stroke="#000" stroke-width=".5"/><path d="M276.132,55.822l6.829-9.111,25.967,21.241-5.122,6.833-27.674-18.963ZM319.643,81.185c-2.377,3.171-5.056,3.638-8.036,1.404-2.98-2.233-3.283-4.934-.906-8.105,2.375-3.169,5.054-3.638,8.034-1.405,2.98,2.234,3.283,4.937.908,8.106Z" stroke="#000" stroke-width=".5"/><path d="M328.524,21.635l-3.67,4.897,4.627,4.624,2.945-3.929,6.72,5.036-3.67,4.897,9.31,9.291-5.634,7.517-9.31-9.291-3.97,5.296,9.31,9.291-5.634,7.516-9.31-9.29-3.03,4.043-6.72-5.036,3.756-5.011-4.627-4.624-3.03,4.043-6.719-5.035,3.756-5.011-9.312-9.293,5.634-7.517,9.312,9.293,3.97-5.296-9.312-9.293,5.634-7.517,9.312,9.293,2.945-3.929,6.719,5.035ZM323.847,38.672l-4.627-4.624-3.97,5.296,4.627,4.624,3.97-5.296Z" stroke="#000" stroke-width=".5"/><path d="M307.54,200.66c-3.421-27.736-22.071-63.793-49.919-96.498-21.456-25.196-45.295-44.924-67.127-55.547-22.592-10.993-41.029-11.214-51.916-.619-6.896,6.708-10.05,17.485-9.127,31.185-4.668,10.528-21.151,48.132-80.312,183.854-7.744-1.912-12.375,1.101-14.53,3.207-2.808,2.731-6.822,9.046-3.07,21.153-4.146,7.1-18.161,33.314-20.676,39.531-2.86,3.388-2.87,6.829-2.351,9.161,1.693,7.597,11.748,15.871,30.738,25.291,13.471,6.683,26.688,11.484,26.82,11.532l1.755.634,1.251-1.46c1.127-1.316,1.801-2.861,2.269-4.35,1.768-.693,3.932-1.484,6.357-2.371,4.044-1.479,9.079-3.318,14.702-5.587,4.048-1.571,8.33-3.217,12.705-4.892.732,1.826,1.572,3.659,2.443,5.562,1.311,2.86,2.665,5.817,3.724,8.938,2.116,7.497,6.608,13.629,12.332,16.831,2.807,1.571,5.756,2.358,8.708,2.358,1.895,0,3.792-.325,5.651-.975l.753-.236.194-.069c13.027-5.195,54.098-21.684,59.355-23.823,5.303-2.192,9.654-7.008,11.698-12.924,3.005-5.004,20.098-37.632,23.594-44.632,4.612-1.813,9.152-3.605,13.409-5.316,10.713,1.379,20.132-.521,28.009-5.659l1.615-1.401.167-.217c2.405-3.12,23.8-44.681,26.199-49.404,7.031-10.877,8.571-25.427,4.578-43.256ZM276.948,225.897c-4.562-.116-10.106-1.399-16.32-3.84-2.1-.826-4.275-1.844-6.134-2.737-3.211-1.812-28.691-16.521-51.113-39.36l-1.084-1.126c-1.118-1.158-2.272-2.354-3.399-3.587-1.266-1.379-2.542-2.806-3.791-4.239-16.509-18.951-28.628-39.146-33.039-46.89l-.759-1.401c-1.222-2.251-2.486-4.58-3.534-6.755-.401-.832-.787-1.654-1.165-2.47-.307-.665-.607-1.326-.902-1.986-.043-.097-.088-.194-.131-.29-4.746-10.674-7.798-20.588-9.04-28.862-.029-.201-.064-.408-.091-.607,0-.01-.002-.019-.004-.029-1.29-9.554.007-16.255,2.919-19.716.19-.222.385-.439.591-.639,2.401-2.326,6.295-3.424,11.249-3.172,17.891.901,50.776,19.225,83.917,58.132,13.301,15.62,23.493,30.819,30.884,44.664,16.26,30.459,18.961,54.361,11.369,61.751-2.283,2.226-5.862,3.276-10.423,3.16ZM71.944,301.539c-.927,2.283-.94,4.89-.038,7.149.361.907.636,1.716.849,2.429-3.355-1.554-8.933-5.27-15.088-12.5-.289-.339-.541-.668-.792-.997-.187-.242-.373-.485-.569-.729-5.383-6.737-7.874-12.255-8.937-15.535.606.27,1.308.621,2.109,1.08,2.01,1.156,4.431,1.384,6.656.612,2.196-.772,4.018-2.503,4.993-4.744l74.716-170.62c8.288,23.143,23.665,48.514,43.876,72.246,20.179,23.697,42.407,42.42,63.285,53.415l-166.143,63.304c-2.19.825-3.981,2.604-4.917,4.888ZM214.804,288.689l-59.082,23.598c-1.332.54-2.893-.165-3.473-1.568l-8.447-20.412,64.659-24.633,7.894,19.065c.311.752.315,1.562.01,2.348-.073.188-.161.364-.264.527-.31.488-.752.855-1.296,1.075Z"/><path d="M314.017,143.257l6.162,10.885-6.529,3.697-17.08-30.171,9.838-5.57c2.38-1.348,4.558-1.833,6.534-1.458,1.976.378,3.58,1.652,4.812,3.829l3.154,5.573c1.973,3.483,2.014,6.335.127,8.552l11.203,8.721-7.184,4.066-10.21-8.593-.829.468ZM306.254,129.544l4.831,8.532,2.569-1.454c.667-.378,1.049-.785,1.146-1.223.098-.438-.059-1.02-.47-1.745l-2.786-4.92c-.36-.637-.753-.991-1.175-1.061-.421-.067-.936.071-1.546.416l-2.569,1.454Z" stroke="#000" stroke-width=".5"/><path d="M360.349,139.391l-4.049,2.292c-7.982,4.518-14.551,4.999-19.706,1.44-1.687-1.151-3.181-2.519-4.479-4.104-1.299-1.583-2.679-3.665-4.143-6.249-1.462-2.582-2.526-5.075-3.196-7.474-.669-2.4-.865-4.809-.586-7.229.579-5.004,4.322-9.46,11.23-13.371,6.995-3.959,12.726-4.904,17.194-2.836,2.188,1.023,4.11,2.437,5.764,4.24,1.653,1.805,3.31,4.172,4.969,7.102,2.514,4.442,3.523,8.018,3.028,10.732-.495,2.715-2.222,4.909-5.183,6.585-2.96,1.675-5.553,1.937-7.778.782-.765,1.085-1.932,2.071-3.499,2.959-3.192,1.808-5.716,1.072-7.573-2.208l-.69-1.219c-.773-1.364-1.118-2.617-1.034-3.756.082-1.139.603-2.286,1.558-3.441l3.273-3.865-1.454-2.569c-.246-.436-.535-.693-.868-.772-.333-.081-1.094.216-2.285.89-1.19.674-2.528,1.795-4.015,3.365l-2.391-4.222c1.376-1.43,3.092-2.729,5.154-3.896,2.06-1.166,3.847-1.631,5.36-1.396,1.515.236,2.772,1.241,3.774,3.011l5.717,10.1c.575,1.017,1.208,1.625,1.898,1.829s1.601-.016,2.733-.657c1.132-.641,1.638-1.607,1.52-2.902-.119-1.292-.778-2.999-1.978-5.118-1.199-2.117-2.055-3.579-2.567-4.381-.512-.803-1.147-1.689-1.906-2.659-.76-.969-1.476-1.673-2.148-2.118-.674-.442-1.492-.842-2.459-1.195s-1.979-.48-3.033-.382c-2.435.305-5.174,1.32-8.222,3.045-2.988,1.693-5.057,3.322-6.201,4.89-.615.809-1.108,1.596-1.48,2.361-.37.765-.564,1.594-.577,2.482-.013.891.032,1.717.139,2.48.106.763.364,1.643.774,2.636.615,1.492,1.411,3.102,2.389,4.83.978,1.726,1.734,3.012,2.271,3.859.537.846,1.187,1.724,1.95,2.632.763.91,1.498,1.596,2.202,2.06.702.464,1.541.862,2.514,1.192.974.332,1.987.447,3.042.347,2.392-.242,5.112-1.228,8.159-2.952l4.006-2.268,2.882,5.094ZM347.816,129.844c.219.049.553-.055,1.003-.309s.928-.679,1.436-1.272l-2.391-4.223-1.291,1.478c-.366.436-.556.813-.568,1.127-.014.315.126.732.422,1.255l.764,1.35c.197.348.405.547.624.595Z" stroke="#000" stroke-width=".5"/><path d="M363.148,86.756l-2.192-3.874,6.095-3.45,2.192,3.874c.576,1.017,1.016,2.032,1.322,3.045.479-.845,1.143-1.738,1.99-2.678l2.968-3.29,5.15,4.731-2.968,3.289c-.863.911-1.714,1.643-2.553,2.192.86.167,1.924.522,3.192,1.068l4.014,1.81-2.9,6.354-4.057-1.784c-1.041-.483-1.973-1.047-2.798-1.692.092.907.081,2.004-.032,3.294l-.514,4.373-6.94-.785.489-4.415c.175-1.249.424-2.329.751-3.243-1.008.455-2.08.795-3.218,1.018l-4.322.895-1.407-6.851,4.366-.919c.96-.198,2.052-.3,3.277-.302-.729-.814-1.365-1.701-1.907-2.659Z" stroke="#000" stroke-width=".5"/></svg>