<?xml version="1.0" encoding="UTF-8"?><svg id="a" xmlns="http://www.w3.org/2000/svg" viewBox="0 0 115 115"><defs><style>.b{fill:#323232;}</style></defs><path class="b" d="M98.1,29.5l-.7-.7-.7-.7-.7-.7-.7-.7-.7-.7-.2-.2-.4-.4-.2-.2-.4-.4-.2-.2-.4-.4-.2-.2-.4-.4-.2-.2-.4-.4-.2-.2-.4-.4-.2-.2-.4-.4-.2-.2-.4-.4-.2-.2-.4-.4-4.1-4.1h-7.3l-4.1,4.1v7.3l.2.2-3.4,3.4v-1.2l-.7-.7-.7-.7-.7-.7-.7-.7-.7-.7-.7-.7-.2-.2-.4-.4-.2-.2-.4-.4-.2-.2-.4-.4-.2-.2-.4-.4-.2-.2-.4-.4-.2-.2-.4-.4-.2-.2-.4-.4-.2-.2-.4-.4-.2-.2-.4-.4-.2-.2-.7-.7-.7-.7-.7-.7-.7-.7-.7-.7-.7-.7h-7.3l-4.1,4.1v7.3l.7.7.7.7.7.7.7.7.7.7.7.7.2.2.4.4.2.2.4.4v9.3h-4.1l-4.5-4.5.2-.2v-7.3l-.7-.7-.7-.7-.7-.7-.7-.7-.7-.7-.7-.7-.2-.2-.4-.4-.2-.2-.4-.4-.2-.2-.4-.4-.2-.2-.4-.4-.2-.2-.4-.4-.2-.2-.4-.4-.2-.2-.4-.4-.2-.2-.4-.4-.2-.2-.4-.4-.2-.2-.7-.7-.7-.7-.7-.7-.7-.7-.7-.7-.7-.7h-7.3l-4.1,4.1v7.3l4.1,4.1h0l.4.4.2.2.4.4.2.2.4.4.2.2.4.4.2.2.4.4.2.2.4.4.2.2.4.4.2.2.4.4.2.2.4.4.2.2.7.7.7.7.7.7.7.7.7.7.7.7h7.3l.2-.2h0c0,0,.8.8.8.8h-2.6l-9.3,9.3v17.7l.7.7.7.7.7.7.7.7.7.7.7.7.7.7.7.7.7.7.7.7.2.2.4.4.6.6v5.2l6.7,6.7h0l.4.4.2.2.4.4.2.2.4.4.2.2.4.4.2.2.4.4.2.2.7.7.7.7.7.7.7.7.7.7.7.7.7.7.7.7.7.7.7.7h22.9l6.7-6.7v-6.3h1.1l6.7-6.7v-17.7l-.7-.7-.7-.7-.7-.7-.7-.7-.7-.7-.7-.7-.7-.7-.7-.7-.7-.7-.7-.7-.7-.7-.7-.7-.7-.7-.7-.7-.7-.7-.8-.8,9.3-9.3.2.2h7.3l4.1-4.1v-7.3l-.7-.7ZM78.6,22.5l1.1-1.1h3.1l1.1,1.1v3.1l-1.1,1.1h-3.1l-1.1-1.1v-3.1ZM50,22.5l1.1-1.1h3.1l1.1,1.1v3.1l-1.1,1.1h-3.1l-1.1-1.1v-3.1ZM21.4,22.5l1.1-1.1h3.1l1.1,1.1v3.1l-1.1,1.1h-3.1l-1.1-1.1v-3.1ZM39.6,80.1v-18.7l3.7-3.7h18.7l3.7,3.7v18.7l-3.7,3.7h-18.7l-3.7-3.7Z"/><rect class="b" x="44.8" y="63" width="5.2" height="5.2"/><rect class="b" x="55.2" y="63" width="5.2" height="5.2"/><polygon class="b" points="56.3 81.2 60.4 77.1 60.4 73.4 55.2 73.4 55.2 74.9 54.1 76 51.1 76 50 74.9 50 73.4 44.8 73.4 44.8 77.1 48.9 81.2 56.3 81.2"/></svg>