<?xml version="1.0" encoding="UTF-8"?><svg id="a" xmlns="http://www.w3.org/2000/svg" width="400" height="400" viewBox="0 0 400 400"><path d="M354.036,138.741c-13.952-18.283-28.288-37.372-43.827-58.357-10.554-14.251-24.229-20.964-41.688-20.513-8.713.279-17.318.215-25.64.155l-1.338-.01c-3.698-.033-7.3-.063-10.771-.063h-2.562l-1.719-1.897c-4.495-4.957-4.784-8.95-4.996-11.865-1.236-17.027-1.564-17.354-17.576-17.503-16.822-.156-32.085-.156-46.659,0-15.535.169-16.539,1.17-17.894,17.845-.099,1.242-.262,2.419-.541,4.393l-1.22,9.032h-5.061c-4.26,0-8.413.033-12.497.07-8.443.07-17.17.144-25.771-.138-14.704-.41-26.916,3.731-35.287,11.946-8.771,8.604-13.489,21.594-13.286,36.577.631,46.467.386,92.947.056,140.442-.106,15.219,4.447,27.992,13.921,39.051,18.064,21.074,34.168,40.368,49.23,58.983,7.475,9.239,16.879,13.543,29.597,13.543h.109c9.948-.018,19.901-.025,29.852-.025,20.048,0,40.093.029,60.14.059l1.996.003c33.01.047,67.145.097,100.713,0,21.665-.06,30.951-9.382,31.052-31.172.127-27.544.112-54.975.098-81.503-.015-27.25-.029-55.429.105-83.145.048-9.979-2.666-18.213-8.536-25.909ZM295.537,256.568c-.233,12.429-7.089,19.927-19.827,21.686-1.863.26-3.88.381-6.341.381-1.316,0-2.624-.033-3.913-.067l-.297-.007c-1.105-.028-2.21-.056-3.311-.056-54.205.008-108.414.011-162.619-.003-1.127,0-2.259.025-3.391.051-3.016.081-6.782.182-10.529-.384-11.442-1.719-18.367-8.68-18.522-18.62-.296-19.115-.247-37.895-.195-57.777v-.158c.021-7.618.04-15.312.04-23.106v-7.588l7.315,2.017c27.751,7.64,56.177,12.204,89.458,14.361l3.253.214,1.502,2.891c.587,1.133,1.145,2.283,1.698,3.428,3.615,7.475,5.484,10.304,10.81,10.359h.173c5.585,0,7.393-2.773,11.134-10.699.47-.997.944-2.002,1.439-3l1.501-3.024,3.369-.181c31.794-1.697,61.276-6.286,90.133-14.028l7.278-1.952v7.535c0,7.505.025,14.907.05,22.232l.002.577c.064,18.96.126,36.783-.21,54.92ZM295.791,132.392l-.002.394c-.024,4.198-.049,8.492-.049,12.916v4.279l-4.094,1.248c-34.562,10.553-63.938,15.621-92.447,15.952l-2.832.034-1.763-2.219c-7.465-9.407-12.217-11.125-14.88-10.933-3.383.213-7.228,3.738-11.147,10.195l-1.697,2.789-3.263-.011c-33.723-.101-66.006-7.986-93.137-15.688l-4.201-1.191-.01-16.101c-.009-7.657-.017-15.056.018-22.455.125-27.232,4.489-31.679,31.126-31.718,32.316-.054,65.174-.045,96.949-.036l54.29.014c2.255,0,4.511-.021,6.768-.044,5.382-.062,10.647-.1,15.879.12,17.325.739,23.93,7.553,24.368,25.138.227,8.981.177,17.887.124,27.315Z" fill="#050505"/></svg>