<?xml version="1.0" encoding="UTF-8"?><svg id="a" xmlns="http://www.w3.org/2000/svg" viewBox="0 0 115 115"><path d="M78.2,87.3h8.6v-2.4h-.6v-.6h-.6v-.6h-.6v-.6h-.6v-.6h-.6v-.6h-.6v-.6h-.6v-.6h-.6v-.6h-.6v-.6h-.6v-.6h-.6v-.6h-.6v-.6h-.6v-2l1.6-1.6,6.7-26.8-.6-.6h0s-.6-.6-.6-.6h0s-.6-.6-.6-.6h0s-.6-.6-.6-.6h0s-.6-.6-.6-.6h0s-.6-.6-.6-.6h0s-.6-.6-.6-.6h0s-.6-.6-.6-.6h0s-.6-.6-.6-.6h0s-.6-.6-.6-.6h0s-.6-.6-.6-.6h0s-.6-.6-.6-.6h0s-.6-.6-.6-.6h0s-.6-.6-.6-.6h0s-.6-.6-.6-.6h0s-3-3-3-3h-36.5l-10.7-10.7h-8.1v2.4h.6v.6h.6v.6h.6v.6h.6v.6h.6v.6h.6v.6h.6v.6h.6v.6h.6v.6h.6v.6h.6v.6h.6v.6h.6v.6h.6v.6h.6v1.6l-.8.8v28l-3.7,5.6h-2l-2.9,2.9v5.3l12.3,12.3h5.3l2.9-2.9v-1.4h26.2l4.3,4.3h5.3l2.9-2.9v-1.4ZM58.1,41.4h6.2v19.1h-6.2v-19.1ZM47.4,41.4h6.2v19.1h-6.2v-19.1ZM36.6,41.4h6.2v19.1h-6.2v-19.1ZM27.8,78.4l-1.4,1.4h-3.3l-1.4-1.4v-3.3l1.4-1.4h3.3l1.4,1.4v3.3ZM66.4,78.4l-1.4,1.4h-3.3l-1.4-1.4v-3.3l1.4-1.4h3.3l1.4,1.4v3.3ZM66.7,71.2h-6.1l-2.9,2.9v1.4h-27.6v-1.4l-3.1-3.1,2.5-3.8h41.1l-4,4Z"/></svg>