<?xml version="1.0" encoding="UTF-8"?><svg id="a" xmlns="http://www.w3.org/2000/svg" viewBox="0 0 115 115"><defs><style>.b{fill:#231f20;}</style></defs><path class="b" d="M99.4,29.6c-.3-.4-.6-.7-1-1-.3-.4-.6-.7-1-1-.3-.4-.6-.7-1-1-.3-.4-.6-.7-1-1-.3-.4-.6-.7-1-1-.3-.4-.6-.7-1-1-.3-.4-.6-.7-1-1-.3-.4-.6-.7-1-1-.3-.4-.6-.7-1-1-.3-.4-.6-.7-1-1-.3-.4-.6-.7-1-1-.3-.4-.6-.7-1-1-.3-.4-.6-.7-1-1-.3-.4-.6-.7-1-1-.1-.1-.2-.3-.3-.4,0,0-.2-.2-.3-.3-.1,0-.2-.2-.3-.3-.1,0-.2-.2-.3-.2-.2,0-.3-.2-.5-.3,0,0-.1,0-.2,0-.2,0-.5-.2-.7-.2,0,0-.1,0-.2,0-.3,0-.5,0-.8,0H16.4c-.3,0-.6,0-.9,0-.5.1-1,.3-1.4.6-1.3.8-2.2,2.2-2.2,3.9h0v60.1h0c0,.3,0,.5.1.8,0,0,0,.1,0,.2,0,.2.1.4.2.6,0,0,0,.2.1.2,0,.1.1.3.2.4.1.2.2.3.3.4,0,0,0,0,.1.1.2.2.4.4.7.6.3.4.6.7,1,1,.3.4.6.7,1,1,.3.4.6.7,1,1,.3.4.6.7,1,1,.3.4.6.7,1,1,.3.4.6.7,1,1,.3.4.6.7,1,1,.3.4.6.7,1,1,.3.4.6.7,1,1,.3.4.6.7,1,1,.3.4.6.7,1,1,.3.4.6.7,1,1,.3.4.6.7,1,1,.3.4.6.7,1,1,.8,1.1,2.1,1.9,3.7,1.9h65.4c2.4,0,4.3-1.9,4.5-4.2h0v-60.1c0-1.5-.7-2.8-1.9-3.6ZM21.8,23.7h54.5v48.9H21.8V23.7Z"/><rect class="b" x="26.8" y="28.7" width="44.6" height="23.1"/><rect class="b" x="27.9" y="56.8" width="11.1" height="10.9"/><rect class="b" x="60" y="56.8" width="11.1" height="10.9"/><rect class="b" x="43.9" y="56.8" width="11.1" height="10.9"/></svg>