<?xml version="1.0" encoding="UTF-8"?><svg id="a" xmlns="http://www.w3.org/2000/svg" width="400" height="400" viewBox="0 0 400 400"><path d="M79.931,253.668c-11.183-2.809-22.786-3.578-34.129-5.54-1.524-.264-6.864-.249-5.857-2.661l61.663-59.266c1.27-2.772-5-22.7-5.495-28.671-6.972-84.109,83.342-140.464,156.152-97.551,27.312,16.097,63.925,42.461,89.604,61.781,10.062,7.571,15.58,12.44,16.751,25.979,4.948,57.245-3.798,121.529-.036,179.516-1.976,14.296-12.955,24.968-27.425,26.292-42.248,3.867-90.297-3.033-133.167-.008-10.736-.929-17.617-5.457-24.271-13.575l-52.599-78.011-31.742,31.696-9.449-39.981ZM335.378,236.279l-65.355-65.96c-1.078-2.428,2.813-14.702,3.07-18.889,3.772-61.283-68.92-98.735-118.295-62.146-61.514,45.584-21.05,142.193,57.56,130.81,3.518-.509,7.227-3.094,10.665-1.527l62.92,65.334,7.945-41.485,41.49-6.137Z"/></svg>