<?xml version="1.0" encoding="UTF-8"?><svg id="a" xmlns="http://www.w3.org/2000/svg" viewBox="0 0 115 115"><defs><style>.b{fill:#141414;}.c{fill:#060606;}.d{fill:#0f0f0f;}</style></defs><path class="c" d="M63.1,97c-8.3,0-16.6,0-24.9,0-3.9,0-7-1.2-9.7-4.1-14.7-16.3-12.7-10.7-12.9-31.8,0-9.5,0-18.9,0-28.4,0-9.9,4.8-14.7,14.7-14.7,15.3,0,30.6,0,45.9,0,5.2,0,9,2.2,12.8,5.6,7.7,6.9,11.1,14.8,10.3,25.4-.9,12.1-.2,24.2-.2,36.4,0,9.2-2.7,11.7-12,11.8-8,0-16,0-23.9,0ZM24.2,52.2c0,7,0,14,0,21,0,1.7,0,3.4,1.9,4.2,2,.9,3.5-.1,4.9-1.5,1.2-1.2,2.5-2.2,3.5-3.6,2.8-3.6,6.3-4.7,10.9-4.6,9.6.3,19.3.1,28.9,0,7.4,0,8.1-.6,8.1-7.8,0-9.1-.1-18.3,0-27.4,0-4.4-1.4-6.4-6-6.4-15.5.1-30.9.1-46.4,0-4.4,0-5.9,1.8-5.8,6,.2,6.7,0,13.3,0,20Z"/><path class="b" d="M69.6,51.3c-2.4-.5-4-1.9-3.9-4.3.1-2.6,1.8-4.2,4.6-3.9,2.5.3,3.9,2,3.6,4.4-.2,2.4-1.9,3.7-4.3,3.9Z"/><path class="d" d="M40.6,46.8c0,2.7-1.5,4.2-3.9,4.3-2.4,0-4.1-1.4-4.2-3.9-.1-2.6,1.4-4.1,3.9-4.2,2.5-.1,4,1.3,4.2,3.8Z"/><path class="d" d="M57.4,47.3c-.6,2.6-2.1,4.1-4.6,3.8-2.4-.3-3.8-1.9-3.6-4.5.2-2.7,2-3.8,4.4-3.6,2.5.2,3.7,1.9,3.8,4.3Z"/></svg>