<?xml version="1.0" encoding="UTF-8"?><svg id="a" xmlns="http://www.w3.org/2000/svg" viewBox="0 0 115 115"><defs><style>.b{fill:none;}</style></defs><path class="b" d="M72.4,70.3h-36.3v-37.3h25.6l2.7-2.8h-27.6s0,0,0,0c-1.9,0-3.4,1.5-3.4,3.4h0v36.9h0c0,1.9,1.5,3.4,3.3,3.4h0s0,0,0,0h35.9c1.8,0,3.3-1.6,3.3-3.4h0v-21.8l-3.5,3.6v17.9Z"/><path d="M91.7,27l-9-8.3c-.3-.3-.7-.4-1.2-.4-.4,0-.8.2-1.1.5l-13.6,14.7h-7.3s-32,0-32,0c-1.2,0-2.3.5-3.2,1.3-.4.4-.8.8-1.2,1.2-.8.9-1.3,2-1.3,3.2l.6,39.1c0,.4,0,.8.2,1.2.2.5.4,1.3.4,1.4,0,.1,11.1,10.9,12.3,10.9h0s0,0,0,0h6.6c0,0,36.1,0,36.1,0h0c2.1,0,3.8-1.7,3.8-3.8l-.2-16.5v-14.5c0-1.2.5-2.3,1.3-3.2l6.6-6.6s0,0,0,0c1-.4,1.7-1.4,1.7-2.6v-14.3c0-.2,0-.5,0-.7l.4-.4c.6-.7.6-1.7,0-2.3ZM69,75.4c0,1.4-1.2,2.6-2.6,2.6H29.6c-1.4,0-2.6-1.2-2.6-2.6v-34.9c0-1.4,1.2-2.6,2.6-2.6h33.1l-12.2,13.2-6.3-5.8c-.7-.6-1.7-.6-2.3,0l-8.3,9c-.3.3-.4.7-.4,1.2,0,.4.2.8.5,1.1l16.4,15.1c.3.3.7.4,1.2.4,0,0,0,0,0,0,0,0,0,0,0,0,.4,0,.8-.2,1.1-.5l16.4-17.8v21.5Z"/></svg>