<?xml version="1.0" encoding="UTF-8"?><svg id="a" xmlns="http://www.w3.org/2000/svg" viewBox="0 0 400 400"><path d="M79.5,269.3c21.2,23.5,52.2,55.5,73.8,73.8,7.1,6,11.4,8.7,19.7,9.4,23.6,2,49.1,1.1,73.8.2,22.6-.8,45.9-1.7,67.9-.3,13.3-1.6,23.1-11.8,24.4-25.7,2.3-25.1,1.2-52.8.2-79.5-.9-21.6-1.7-44-.8-64.8l-5.8-11.4c-13.9-12.7-27-26.6-39.7-40.1-11.5-12.2-23.4-24.8-35.8-36.4-25.7-24.1-55.5-36.7-86.4-36.7s-4.4,0-6.5.2c-29.7,1.7-58.5,14.8-81.1,37-22.6,22.2-36.3,50.7-38.5,80.4-2.5,33.3,9.5,65.8,34.8,93.9ZM169.8,83.6c55,0,99.7,44.7,99.7,99.7s-44.7,99.7-99.7,99.7-99.7-44.7-99.7-99.7,44.7-99.7,99.7-99.7Z"/><path d="M221,206.6c-.3-7.2-4.7-15.8-13.8-17.4-5.2-.9-11.6-.5-17.8-.1-4.5.3-9.2.6-13.2.3v-53.1c0-2.1-4.2-8.9-5.5-10-4.7-4.1-11.3-5.4-17.4-3.5-5.6,1.7-9.6,5.8-11,11.3-2.7,10.2-2.1,60-1,72.3,1,10.4,6.4,16.7,15.3,17.8,3.7.4,13.6.7,23.9.7s24.8-.4,28.7-1.4c7.5-1.9,12.1-8.5,11.7-16.8Z"/></svg>