<?xml version="1.0" encoding="UTF-8"?><svg id="a" xmlns="http://www.w3.org/2000/svg" viewBox="0 0 400 400"><defs><style>.b{fill:#060606;}</style></defs><path class="b" d="M333.9,177.1c-16.3-14.9-32.6-30.3-48.3-45.3-12.7-12-25.8-24.5-38.9-36.6-22.6-21-47.7-31.5-74.9-31.5s-28,2.7-42.7,8c-43.6,15.8-69.7,48.9-75.5,95.5-2.2,18-1.9,36.5-1.7,54.4.1,9.8.3,20,0,30-.5,21.1,6.4,39.7,20.5,55.4,9.4,10.4,19.4,20.6,29,30.5,3.6,3.7,7.3,7.5,10.9,11.2,9.4,9.8,20.5,14.1,35.3,13.8,19.1-.4,38.4-.3,57.2-.2,8,0,15.9,0,23.9,0h24.5c18.8,0,37.7,0,56.5,0,32.2,0,40.6-8.6,40.6-41.5,0-11.1,0-22.1,0-33.2,0-23.3-.2-47.4.3-71,.4-16.5-4.8-28.8-16.7-39.6ZM255.2,283.3c-4.1,4.2-8.7,6.3-13.4,6.3s-9.4-2-14.1-5.9c-5.2-4.3-9.9-9-14.8-13.9-1.6-1.5-3.1-3.1-4.7-4.7-28.1,10.9-53.4,10.9-77.3-.1-4.6,2.6-8.1,6.4-11.8,10.3-2.4,2.6-4.9,5.2-7.7,7.6-14.2,11.8-24.3,5.1-29.1,0-7.5-8-7.1-19.1.9-27.6,3.8-4.1,8.3-7.2,13-10.6,1.1-.7,2.1-1.5,3.2-2.3-19.9-26.8-26.5-52.4-20.7-80.3,4.5-22,16.3-40.4,34.9-54.6,34.9-26.7,85.7-24.2,118.1,5.8,35.2,32.7,38.1,79.3,8.1,128.2,1.1,1,2.3,1.9,3.4,2.9,4.4,3.7,8.6,7.2,12.2,11.3,8,9.2,8,19.5,0,27.6Z"/><path class="b" d="M84.2,74.1l4.7-4.8c2.1-2.2,4.1-5,3.5-12.6-.3-1.2-2.2-4.6-6.6-7-2-1-3.9-1.6-5.7-1.6-2.6,0-5.1,1.1-7.5,3.4-9.9,9.3-21.4,20.4-32.3,32.3-5.5,6-5.7,11.5-.6,17,5.1,5.6,11.8,5.4,18.2-.6,9.1-8.3,17.8-17.4,26.3-26.1Z"/><path class="b" d="M298.9,83.8c-8-8.9-16.7-17.4-25.2-25.7-2.3-2.3-4.6-4.5-6.9-6.8-2.3-2.3-5.5-3.7-9.7-4.3h-.2s-.2,0-.2,0c-5.8,1.4-9.2,3.8-11,7.6-2.6,5.4-1.8,10.4,2.2,14.5,10.3,10.7,20.9,21.8,32.2,32.2,3.3,3,6.5,4.5,9.6,4.5s5.8-1.3,8.6-4c5.6-5.3,5.9-12.3.6-18.1Z"/><path class="b" d="M148.7,187.9c0,2.8.9,11.9,9.6,12.7,11.9,1.1,24.5,1.1,37.6,0,3.1-.3,5.1-2,6.2-3.3,2-2.4,3.1-5.8,2.8-9.1-.6-6.4-3.7-9.7-9.8-10.5-3.1-.4-6.4-.5-10.5-.7-2.2,0-4.7-.2-7.5-.3l-3.7-.2v-3.7c0-3.4,0-6.6,0-9.8,0-6.8.2-13.2-.2-19.5-.5-9-4.9-14.5-11.9-14.9-.2,0-.4,0-.6,0-2.9,0-5.4,1-7.5,2.9-2.7,2.4-4.3,6.3-4.5,10.8-.7,14.7-.4,29.4,0,45.7Z"/></svg>