<?xml version="1.0" encoding="UTF-8"?><svg id="a" xmlns="http://www.w3.org/2000/svg" viewBox="0 0 398.3 411.8"><path d="M343.3,176.9c-.8-9.4-16.1-35-23.7-46-15.5-22.4-40.5-32.5-65.3-26.5-24.4,5.9-41.7,25.9-45.1,52.2l-.3,2.2h-65.8c0-.1-26.2-78.8-26.2-78.8-.4-.4-.8-.8-1.2-1.2-.9-1-1.8-2-2.8-2.6-3.6-2.2-43.3-15.3-47.2-15.5-6.9-.4-10.6,4.3-11.7,8.4-1.1,4.3-.1,10.3,6.3,13.4,2.7,1.3,9,3.2,15.1,5,12.6,3.8,20.5,6.2,22.7,8.8l.3.4.2.5,20.4,61.7h-33.2c-5.2,0-11.7,14-14.9,27.5-9.9,41.4,2.1,77,37.6,111.9,1.5,1.5,3,3,4.7,4.6,13.4,13.2,31.7,31.3,44.8,41.2,5.4,4.1,9.4,5.5,16.6,6.1,24.4,1.8,50.6,1,75.8.2,23.2-.7,47.2-1.5,69.9-.2,12.2-1.8,21.7-11.7,22.8-23.8-1.5-23.3-.6-48,.2-72,.9-25.9,1.9-52.7-.2-77.4ZM248.5,262.1c-16.5,23.4-43.1,37-71.6,37s-2.4,0-3.6,0c-27.7-1.1-53.5-16.2-68.9-40.3-14.8-23.2-17.5-50.7-7.3-75.2l.6-1.5h159.6l.6,1.6c10.5,26.5,7.1,55.1-9.5,78.5ZM306,165.4c-.7,12.4-7.2,23.3-17.4,29.3l-3.5,2.1-.2-4.1c-.5-9.5-8.4-33.8-15.6-33.8h-37.4l.5-2.9c2.1-12.6,10.1-22.5,22-27.3,12.5-5,26.4-3.2,37.2,4.9,9.8,7.3,15.2,19.2,14.5,31.9Z"/></svg>