<?xml version="1.0" encoding="UTF-8"?><svg id="a" xmlns="http://www.w3.org/2000/svg" viewBox="0 0 400 400"><defs><style>.b{fill:none;}</style></defs><polygon class="b" points="180.8 143.8 158.6 143.8 158.6 183.9 180.8 183.9 180.8 143.8"/><rect class="b" x="111.4" y="155.2" width="22.3" height="28.6"/><rect class="b" x="205.7" y="128.5" width="22.3" height="55.4"/><polygon class="b" points="142.8 246.4 129.3 271.3 210 271.3 196.4 246.4 142.8 246.4"/><path class="b" d="M64.4,238.3h210.6c4.2,0,7.7-3.4,7.7-7.7V88.6c0-4.2-3.4-7.6-7.7-7.7H64.4c-4.2,0-7.6,3.4-7.7,7.7v142c0,4.2,3.4,7.7,7.7,7.7ZM88.3,228.5c-.4.4-.8.7-1.3.9-1,.4-2.1.4-3.1,0-.5-.2-.9-.5-1.3-.9-.4-.4-.7-.8-.9-1.3-.4-1-.4-2.1,0-3.1.2-.5.5-.9.9-1.3,1.6-1.6,4.1-1.6,5.7,0,0,0,0,0,0,0,1.6,1.6,1.6,4.1,0,5.7ZM105.1,227.2c-.2.5-.5.9-.9,1.3-.4.4-.8.7-1.3.9-.5.2-1,.3-1.6.3-1.1,0-2.1-.4-2.8-1.2-.8-.8-1.2-1.8-1.2-2.9,0-1.1.4-2.1,1.2-2.9.4-.4.8-.7,1.3-.8.7-.3,1.6-.4,2.3-.2.3,0,.5.1.8.2.2,0,.5.2.7.4l.6.5c.4.4.7.8.9,1.3.4,1,.4,2.1,0,3.1ZM121,227.2c-.2.5-.5.9-.8,1.3-.4.4-.8.7-1.3.9-.5.2-1,.3-1.6.3-2.2,0-4-1.8-4-4.1,0-1.1.4-2.1,1.2-2.9,1.2-1.1,2.9-1.5,4.4-.8.5.2.9.5,1.3.8.7.8,1.2,1.8,1.2,2.9,0,.5-.1,1-.3,1.5ZM67.8,95.1c0-2.2,1.8-4,4-4h195.8c2.2,0,4,1.8,4,4v115c0,2.2-1.8,4-4,4H71.8c-2.2,0-4-1.8-4-4v-115Z"/><path d="M349.1,139.2c-.2-.2-.5-.5-.7-.7-.2-.2-.5-.5-.7-.7-.2-.2-.5-.5-.7-.7-.2-.2-.5-.5-.7-.7-.2-.2-.5-.5-.7-.7-.2-.2-.5-.5-.7-.7-.2-.2-.5-.5-.7-.7-.2-.2-.5-.5-.7-.7-.2-.2-.5-.5-.7-.7-.2-.2-.5-.5-.7-.7-.2-.2-.5-.5-.7-.7-.2-.2-.5-.5-.7-.7-.2-.2-.5-.5-.7-.7-.2-.2-.5-.5-.7-.7-.2-.2-.5-.5-.7-.7-.2-.2-.5-.5-.7-.7-.2-.2-.5-.5-.7-.7-.2-.2-.5-.5-.7-.7-.2-.2-.5-.5-.7-.7-.2-.2-.5-.5-.7-.7-.2-.2-.5-.5-.7-.7-.2-.2-.5-.5-.7-.7-.2-.2-.5-.5-.7-.7-.2-.2-.5-.5-.7-.7-.2-.2-.5-.5-.7-.7-.2-.2-.5-.5-.7-.7-.2-.2-.5-.5-.7-.7-.2-.2-.5-.5-.7-.7-.2-.2-.5-.5-.7-.7-.2-.2-.5-.5-.7-.7-.2-.2-.5-.5-.7-.7-.2-.2-.5-.5-.7-.7-.2-.2-.5-.5-.7-.7-.2-.2-.5-.5-.7-.7-.2-.2-.5-.5-.7-.7-.2-.2-.5-.5-.7-.7-.2-.2-.5-.5-.7-.7-.2-.2-.5-.5-.7-.7-.2-.2-.5-.5-.7-.7-.2-.2-.5-.5-.7-.7-.2-.2-.5-.5-.7-.7-.2-.2-.5-.5-.7-.7-.2-.2-.5-.5-.7-.7-.2-.2-.5-.5-.7-.7-.2-.2-.5-.5-.7-.7-.2-.2-.5-.5-.7-.7-.2-.2-.5-.5-.7-.7-.2-.2-.5-.5-.7-.7-.2-.2-.5-.5-.7-.7-.2-.2-.5-.5-.7-.7-.2-.2-.5-.5-.7-.7-.2-.2-.5-.5-.7-.7-.2-.2-.5-.5-.7-.7-.2-.2-.5-.5-.7-.7-.2-.2-.5-.5-.7-.7-.2-.2-.5-.5-.7-.7-.2-.2-.5-.5-.7-.7-.2-.2-.5-.5-.7-.7-.2-.2-.5-.5-.7-.7-.2-.2-.5-.5-.7-.7-.2-.2-.5-.5-.7-.7-.2-.2-.5-.5-.7-.7-.2-.2-.5-.5-.7-.7-.2-.2-.5-.5-.7-.7-.2-.2-.5-.5-.7-.7-.2-.2-.5-.5-.7-.7-.2-.2-.5-.5-.7-.7-.2-.2-.5-.5-.7-.7-.2-.2-.5-.5-.7-.7-.2-.2-.5-.5-.7-.7-.2-.2-.5-.5-.7-.7-.2-.2-.5-.5-.7-.7-.2-.2-.5-.5-.7-.7-.2-.2-.5-.5-.7-.7-.2-.2-.5-.5-.7-.7-.2-.2-.5-.5-.7-.7-.2-.2-.5-.5-.7-.7-.2-.2-.5-.5-.7-.7-.2-.2-.5-.5-.7-.7-.2-.2-.5-.5-.7-.7-.2-.2-.5-.5-.7-.7-.2-.2-.5-.5-.7-.7-.2-.2-.5-.5-.7-.7-.2-.2-.5-.5-.7-.7-.2-.2-.5-.5-.7-.7-.2-.2-.5-.5-.7-.7-.2-.2-.5-.5-.7-.7-.2-.2-.5-.5-.7-.7-.2-.2-.5-.5-.7-.7-2.9-3.1-6.9-5-11.5-5H64.3c-8.7,0-15.7,7.1-15.7,15.7v142c0,.6,0,1.1,0,1.7.4,3.8,2.2,7.2,4.9,9.8.2.2.5.5.7.7.2.2.5.5.7.7.2.2.5.5.7.7.2.2.5.5.7.7.2.2.5.5.7.7.2.2.4.5.7.7,0,0,0,0,0,0,.2.2.5.5.7.7.2.2.5.5.7.7.2.2.5.5.7.7.2.2.5.5.7.7.2.2.5.5.7.7.2.2.5.5.7.7.2.2.5.5.7.7.2.2.5.5.7.7.2.2.5.5.7.7.2.2.5.5.7.7.2.2.5.5.7.7.2.2.5.5.7.7.2.2.5.5.7.7.2.2.5.5.7.7.2.2.5.5.7.7.2.2.5.5.7.7.2.2.5.5.7.7.2.2.5.5.7.7.2.2.5.5.7.7.2.2.5.5.7.7.2.2.5.5.7.7.2.2.5.5.7.7.2.2.5.5.7.7.2.2.5.5.7.7.2.2.5.5.7.7.2.2.5.5.7.7.2.2.5.5.7.7.2.2.5.5.7.7.2.2.5.5.7.7.2.2.5.5.7.7.2.2.5.5.7.7.2.2.5.5.7.7.2.2.5.5.7.7.2.2.5.5.7.7.2.2.5.5.7.7.2.2.5.5.7.7.2.2.5.5.7.7.2.2.5.5.7.7.2.2.5.5.7.7.2.2.5.5.7.7.2.2.5.5.7.7.2.2.5.5.7.7.2.2.5.5.7.7.2.2.5.5.7.7.2.2.5.5.7.7.2.2.5.5.7.7.2.2.5.5.7.7.2.2.5.5.7.7.2.2.5.5.7.7.2.2.5.5.7.7.2.2.5.5.7.7.2.2.5.5.7.7.2.2.5.5.7.7.2.2.5.5.7.7.2.2.5.5.7.7.2.2.5.5.7.7.2.2.5.5.7.7.2.2.5.5.7.7.2.2.5.5.7.7.2.2.5.5.7.7.2.2.5.5.7.7.2.2.5.5.7.7.2.2.5.5.7.7.2.2.5.5.7.7.2.2.5.5.7.7.2.2.5.5.7.7.2.2.5.5.7.7.2.2.5.5.7.7.2.2.5.5.7.7.2.2.5.5.7.7.2.2.5.5.7.7.2.2.5.5.7.7.2.2.5.5.7.7.2.2.5.5.7.7.2.2.5.5.7.7.2.2.5.5.7.7.2.2.5.5.7.7.2.2.5.5.7.7.2.2.5.5.7.7.2.2.5.5.7.7.2.2.5.5.7.7.2.2.5.5.7.7.2.2.5.5.7.7,2.9,3.1,6.9,5,11.5,5h23.6c.1.2.3.3.5.4.2.3.4.5.7.7.2.3.4.5.7.7.2.3.4.5.7.7.2.3.4.5.7.7.2.3.4.5.7.7.2.3.4.5.7.7.2.3.4.5.7.7.2.3.4.5.7.7.2.3.4.5.7.7.2.3.4.5.7.7.2.3.4.5.7.7.2.3.4.5.7.7.2.3.4.5.7.7.2.3.4.5.7.7.2.3.4.5.7.7.2.3.4.5.7.7.2.3.4.5.7.7.2.3.4.5.7.7.2.3.4.5.7.7.2.3.4.5.7.7.2.3.4.5.7.7.2.3.4.5.7.7.2.3.4.5.7.7.2.3.4.5.7.7.2.3.4.5.7.7.2.3.4.5.7.7.2.3.4.5.7.7.2.3.4.5.7.7.2.3.4.5.7.7.2.3.4.5.7.7.2.3.4.5.7.7.2.3.4.5.7.7.2.3.4.5.7.7.2.3.4.5.7.7.2.3.4.5.7.7.2.3.4.5.7.7.2.3.4.5.7.7.2.3.4.5.7.7.2.3.4.5.7.7.2.3.4.5.7.7.2.3.4.5.7.7.2.3.4.5.7.7.2.3.4.5.7.7.2.3.4.5.7.7.8,1,1.9,1.6,3.2,1.6h94c1.4,0,2.7-.8,3.5-2,.7-1.2.7-2.8,0-4l-14.6-27h69.5c8.7,0,15.7-7.1,15.7-15.7v-142c0-4.5-1.9-8.6-5-11.5ZM56.7,230.6V88.6c0-4.2,3.4-7.6,7.7-7.7h210.6c4.2,0,7.6,3.4,7.7,7.7v142c0,4.2-3.4,7.7-7.7,7.7H64.4c-4.2,0-7.7-3.4-7.7-7.7ZM129.3,271.3l13.4-24.9h53.7l13.6,24.9h-80.7Z"/><path d="M71.8,214.1h195.8c2.2,0,4-1.8,4-4v-115c0-2.2-1.8-4-4-4H71.8c-2.2,0-4,1.8-4,4v115c0,2.2,1.8,4,4,4ZM205.7,128.5h22.3v55.4h-22.3v-55.4ZM158.6,143.8h22.3v40.1h-22.3v-40.1ZM111.4,155.2h22.3v28.6h-22.3v-28.6Z"/><path d="M88.3,222.8c-1.6-1.6-4.1-1.6-5.7,0-.4.4-.7.8-.9,1.3-.4,1-.4,2.1,0,3.1.2.5.5.9.9,1.3.4.4.8.7,1.3.9,1,.4,2.1.4,3.1,0,.5-.2.9-.5,1.3-.9,1.6-1.6,1.6-4.1,0-5.7,0,0,0,0,0,0Z"/><path d="M104.2,222.8l-.6-.5c-.2-.2-.4-.3-.7-.4-.2-.1-.5-.2-.8-.2-.8-.2-1.6,0-2.3.2-.5.2-.9.5-1.3.8-.8.8-1.2,1.8-1.2,2.9,0,1.1.4,2.1,1.2,2.9.8.7,1.8,1.2,2.8,1.2.5,0,1.1,0,1.6-.3.5-.2.9-.5,1.3-.9.4-.4.7-.8.9-1.3.4-1,.4-2.1,0-3.1-.2-.5-.5-.9-.9-1.3Z"/><path d="M118.8,221.9c-1.5-.6-3.2-.3-4.4.8-.7.8-1.2,1.8-1.2,2.9,0,2.2,1.8,4,4,4.1.5,0,1.1-.1,1.6-.3.5-.2.9-.5,1.3-.9.4-.4.6-.8.8-1.3.2-.5.3-1,.3-1.5,0-1.1-.4-2.1-1.2-2.9-.4-.4-.8-.6-1.3-.8Z"/></svg>