<?xml version="1.0" encoding="UTF-8"?><svg id="a" xmlns="http://www.w3.org/2000/svg" viewBox="0 0 115 115"><defs><style>.b{fill:#141414;}.c{fill:#060606;}.d{fill:#0c0c0c;}</style></defs><path class="c" d="M32,35.2c.5-3.5,2.3-5.1,5.7-5.2.5,0,.9,0,1.4,0,.9,0,1.7,0,2.5-.2,1.3-.3,2.8-1.2,2.8-3.5,0-1.9-.8-3-2.7-3.5-3.6-1.1-7.8-.5-11.1,1.7-3,1.9-4.9,4.8-5.4,8.1-.5,3.9-2.6,5.8-6.6,6.2-2.3.2-4.4.9-6.5,2v3.4c.3.2.5.4.8.6.7.5,1.4,1,2.1,1.2,3.4,1,7.3.3,10.7-1.9,3.4-2.2,5.7-5.4,6.2-9Z"/><path class="c" d="M96.8,39.6c-4.2-2.5-8.6-5-12.8-7.5-9.4-5.4-19.1-11-28.3-17.2-.8-.5-1.5-.8-2.2-.8s-1.5.3-2.3.9c-1.2,1-2,2.8-.9,4.2,1.9,2.3,1,4.1.2,6l-.2.4-4.5,10.2c-5.3,11.9-10.8,24.2-16.1,36.3-1.1,2.6-2.1,4.7-2.9,6.3q-3.1,6.6,1.2,11.7c1.3,1.5,2.9,3.4,4.9,6,2.6,3.4,5.8,4.9,10.4,4.8,5.7-.1,11.6,0,17.2,0,2.4,0,4.8,0,7.3,0h7.5c5.7,0,11.3,0,17,0,7.7,0,10.5-2.7,10.5-10.3,0-5.4,0-10.8,0-16.2,0-8,0-16.2,0-24.3,0-4.8-1.8-7.9-6.1-10.5ZM90.5,38.3c2.5-.2,4.4,1.3,4.8,3.8h0c0,4.3-2.3,5.3-4.3,5.3-.1,0-.2,0-.3,0-2.7,0-4.4-1.6-4.5-4.3-.2-2.8,1.5-4.7,4.3-4.8ZM35.5,77.3l21.8-48.9,27.1,27.1-48.9,21.8ZM95.6,66.5v.9c-.3,8-4.6,12.6-12.3,13.4-3.8.4-4.6,2.2-4.6,5.4,0,.4,0,.7,0,1.1,0,.6,0,1.3,0,2-.4,2.4-1.8,3.8-4,4-.2,0-.4,0-.6,0-2.1,0-3.6-1.1-4.5-3.4-1.3-3.6-.8-7.6,1.2-11.2,2.1-3.7,5.6-6.1,9.5-6.8q5.8-1,5.8-6.3c0-3,.5-5.9,4.3-6.4,1.2-.2,2.2.1,3,.8,1.3,1,2,2.9,2.1,5.4,0,.3,0,.7,0,1.1Z"/><path class="b" d="M96.3,28.8c.6.7,1.6,1.1,2.8,1.1,2,0,3.2-1.2,3.7-3.7-.4-2.3-1.6-3.5-3.6-3.5,0,0-.2,0-.2,0-2.1,0-3.4,1.2-3.6,3.3,0,1.2.2,2.2.9,2.8Z"/><path class="d" d="M75.5,20.4c.6.6,1.5,1,2.6,1,2.1,0,3.4-1,3.9-3.4-.2-1.7-1-3.6-3.5-3.7,0,0-.2,0-.3,0-1,0-1.8.3-2.4.8-.6.6-1,1.5-1.1,2.6,0,1.1.2,2.1.8,2.7Z"/></svg>