<?xml version="1.0" encoding="UTF-8"?><svg id="a" xmlns="http://www.w3.org/2000/svg" viewBox="0 0 400 400"><path d="M88.3,330.5c13.8,13.3,20.7,16.4,22.5,16.2h.2s.2,0,.2,0l217.9.2c12.1-.9,22.2-10.6,24.2-23.2l-.3-154.4-2.4-6.9c-9.1-9.1-18.5-19.1-27.5-28.9-15.4-16.6-31.4-33.8-47.6-47.8l-1.3-1.1c-4.4-3.8-7-6.1-12.6-6.6-26.1-2.2-54.3-1.2-81.7-.2-25.3.9-51.5,1.8-76.1.2-4,0-7.1,1.7-10.5,6l-52,89.4v5.7c1.8,3.5,6.7,8.5,8.4,8.5h20.5v121.5c.7,2.3,7.8,11.3,18.2,21.3ZM254.8,100.9l.9,1.3c8.2,12.3,15.8,25.5,23,38.2,3.7,6.5,7.5,13.2,11.4,19.7l2.7,4.5h-59.4l-39.2-63.8h60.6ZM181.2,130c.5-.2,2.2-.7,3.8.2,1.4.8,1.7,2.1,1.9,2.7,5.3,7.1,9.8,15.7,14.3,24.1,4.6,8.7,9.4,17.7,14.7,24.5,2,2.6,6,6,7.3,6.2h49.3s0,107.2,0,107.2h-107.2v-63.5c-.5-1.3-2.8-5.2-3.5-6-5-4.3-26.1-4.2-30.6.3-.6.8-2.7,4.5-3.2,5.8v63.4h-34.9v-106.9l2.6-.3c6.8-.9,15-.4,22.8.1,8.3.5,16.9,1,23.4-.1.4-.1,1.4-.7,2.1-1.1.6-.4,1.3-.7,1.9-1,3.8-2.5,14.8-22.3,21.5-34.2,10.3-18.4,11.9-20.8,14-21.5ZM107,105.4l3.9-4.5h60.3l-39.2,63.8h-59.3l34.3-59.4Z"/><rect x="208.6" y="216.6" width="34.9" height="49.4"/></svg>