<?xml version="1.0" encoding="UTF-8"?><svg id="a" xmlns="http://www.w3.org/2000/svg" viewBox="0 0 115 112"><path d="M88.9,84.3c-.2-.3-.5-.6-.8-.8-.2-.3-.5-.6-.8-.8-.2-.3-.5-.6-.8-.8-.2-.3-.5-.6-.8-.8,0-.1-.2-.3-.3-.4l-7.1-6.1c0-1.3-1.1-2.4-2.4-2.4H27.7c-.5,0-.9.1-1.3.4-.6.4-1,1.1-1,2v3c0,.2,0,.4,0,.6,0,0,0,0,0,.1,0,.1,0,.3.2.4,0,0,0,0,0,.1.2.3.5.6.8.8,0,0,0,0,0,0,.2.3.5.6.8.8.2.3.5.6.8.8.2.3.5.6.8.8.2.3.5.6.8.8.2.3.5.6.8.8.2.3.5.6.8.8.2.3.5.6.8.8.2.3.5.6.8.8.2.3.5.6.8.8.2.3.5.6.8.8.2.3.5.6.8.8.2.3.5.6.8.8.2.3.5.6.8.8.2.3.5.6.8.8.4.7,1.2,1.1,2,1.1h48.2c1.3,0,2.4-1.1,2.4-2.4v-3c0-.9-.5-1.6-1.1-2Z"/><path d="M33.7,40.1l-.8-.8s0,0,0,0l-.8-.8s0,0,0,0l-.8-.8c0,0-.2-.2-.3-.3h0s0,0,0,0c-.2-.2-.5-.4-.8-.5-.3-.1-.6-.2-1-.2h0c-.4,0-.7,0-1.1.2-.6.3-1.2.8-1.5,1.4-.1.3-.2.7-.2,1h0v24.3h0s0,0,0,0c0,.2,0,.4.1.6,0,0,0,.1,0,.2,0,.1.1.2.2.4,0,0,0,0,0,.1,0,0,0,0,0,0,0,0,0,0,0,0,0,0,0,0,0,0,0,0,0,0,0,0,0,.1.2.2.3.3,0,0,0,0,0,0,0,0,0,0,0,0,0,0,0,0,0,0,.1.1.3.3.4.4,0,0,0,0,0,0,.2.3.5.6.8.8.2.3.5.6.8.8.2.3.5.6.8.8,0,.1.2.2.3.4h46.9c1.4,0,2.6,1.1,2.6,2.5l7.7,6.5c1.2-.2,2-1.2,2.2-2.3h0v-.3h0v-23.5c0-.2,0-.4,0-.6,0-1-.5-1.8-1.3-2.3-.2-.3-.5-.6-.8-.8-.2-.3-.5-.6-.8-.8-.2-.3-.5-.6-.8-.8-.2-.3-.5-.6-.8-.8-.2-.3-.5-.6-.8-.8-.2-.3-.5-.6-.8-.8-.2-.3-.5-.6-.8-.8-.2-.3-.5-.6-.8-.8-.2-.3-.5-.6-.8-.8-.2-.3-.5-.6-.8-.8-.2-.3-.5-.6-.8-.8-.2-.3-.5-.6-.8-.8-.2-.3-.5-.6-.8-.8,0,0,0,0,0,0,0,0,0-.1-.1-.2,0,0,0-.1-.1-.2,0,0,0,0,0,0,0,0,0,0,0,0,0,0,0,0,0,0,0,0-.2-.2-.3-.2,0,0,0,0,0,0,0,0,0,0,0,0,0,0,0,0,0,0,0,0,0,0,0,0,0,0-.2-.1-.3-.2,0,0,0,0-.1,0-.1,0-.3,0-.4-.1,0,0,0,0-.1,0-.2,0-.3,0-.5,0-.5,0-.9.1-1.3.4-.1,0-.3.2-.4.3h0s0,0,0,0c0,0-.2.2-.3.3l-4.3,4.3-1.4,1.4-.7-.7-.8-.8-.8-.8-.8-.8-.8-.8-.8-.8-.6-.5s0,0,0,0l-7.8-7.8h0c0,0-.2-.1-.3-.2-.1,0-.2-.2-.3-.2,0,0,0,0,0,0-.1,0-.2-.1-.3-.2,0,0-.1,0-.2,0,0,0-.2,0-.3,0-.2,0-.3,0-.5,0-.8,0-1.5.3-2,.9h0s-6,5.9-6,5.9l-7.2,7.1-.2.2-.6-.6s0,0,0,0l-.8-.8s0,0,0,0l-.8-.8s0,0,0,0l-.8-.8s0,0,0,0Z"/><path d="M29.1,33.1c2.8,0,5.1-2.2,5.1-5s-.4-2.2-1.1-3.1c-.3-.4-.8-.8-1.2-1.1,0,0,0,0,0,0-.1,0-.3-.2-.4-.2,0,0,0,0-.1,0-.1,0-.2-.1-.4-.2,0,0-.1,0-.2,0-.1,0-.2,0-.4-.1,0,0-.1,0-.2,0-.1,0-.3,0-.4,0,0,0-.1,0-.2,0-.2,0-.4,0-.6,0-2.8,0-5.1,2.2-5.1,5s0,.4,0,.6c0,0,0,.1,0,.2,0,.1,0,.3,0,.4,0,0,0,.1,0,.2,0,.1,0,.2.1.3,0,0,0,.1,0,.2,0,.1,0,.2.2.4,0,0,0,0,0,.1,0,.1.1.3.2.4,0,0,0,0,0,0,.3.5.7.9,1.1,1.2.9.7,2,1.1,3.1,1.1Z"/><path d="M70.2,28.8c0,.1,0,.3,0,.4,0,0,0,.1,0,.2,0,.1,0,.2.1.3,0,0,0,.1,0,.2,0,.1,0,.2.2.4,0,0,0,0,0,.1,0,.1.1.3.2.4,0,0,0,0,0,0,.3.5.7.9,1.1,1.2.9.7,2,1.1,3.1,1.1,2.8,0,5.1-2.2,5.1-5s-.4-2.2-1.1-3.1c-.3-.4-.8-.8-1.2-1.1,0,0,0,0,0,0-.1,0-.3-.2-.4-.2,0,0,0,0-.1,0-.1,0-.2-.1-.4-.2,0,0-.1,0-.2,0-.1,0-.2,0-.4-.1,0,0-.1,0-.2,0-.1,0-.3,0-.4,0,0,0-.1,0-.2,0-.2,0-.4,0-.6,0-2.8,0-5.1,2.2-5.1,5s0,.4,0,.6c0,0,0,.1,0,.2Z"/><path d="M47.5,22.1c0,.1,0,.3,0,.4,0,0,0,.1,0,.2,0,.1,0,.2.1.3,0,0,0,.1,0,.2,0,.1,0,.2.2.4,0,0,0,0,0,.1,0,.1.1.3.2.4,0,0,0,0,0,0,.3.5.7.9,1.1,1.2.9.7,2,1.1,3.1,1.1,2.8,0,5.1-2.2,5.1-5s-.4-2.2-1.1-3.1c-.3-.4-.8-.8-1.2-1.1,0,0,0,0,0,0-.1,0-.3-.2-.4-.2,0,0,0,0-.1,0-.1,0-.2-.1-.4-.2,0,0-.1,0-.2,0-.1,0-.2,0-.4-.1,0,0-.1,0-.2,0-.1,0-.3,0-.4,0,0,0-.1,0-.2,0-.2,0-.4,0-.6,0-2.8,0-5.1,2.2-5.1,5s0,.4,0,.6c0,0,0,.1,0,.2Z"/></svg>