<?xml version="1.0" encoding="UTF-8"?><svg id="a" xmlns="http://www.w3.org/2000/svg" width="400" height="400" viewBox="0 0 400 400"><path d="M175.887,36.477l37.786,34.445c9.359-5.098,15.988-20.476,28.051-19.599,9.396.683,33.15,28.68,41.446,36.356,20.761,19.207,46.839,38.49,66.057,58.511,5.557,5.79,8.548,12.324,9.238,20.362,4.657,54.25-3.487,115.191-.149,170.141-3.093,14.673-13.781,24.274-28.826,25.441-57.154,4.433-119.95-3.464-177.702-.005-7.554-.021-14.185-7.398-19.719-12.348-31.431-28.117-60.274-62.364-90.917-91.614-1.2-2.752-1.294-5.927-.86-8.852,1.063-7.164,22.848-26.944,28.926-33.985,39.656-45.943,76.346-101.093,94.657-159.413,2.162-6.886,1.72-14.12,7.077-19.44h4.933ZM241.267,236.279l73.9-74.448-74.528-74.765-72.15,72.733c10.634-3.663,19.793-5.361,30.8-1.805,12.616,4.076,41.669,33.216,45.318,45.949,3.358,11.716,1.164,21.462-3.339,32.335ZM227.687,249.858c-16.617,7.484-32.336,7.411-46.881-4.314-15.031-12.117-36.793-33.386-33.328-54.328l3.131-14.131-74.601,74.612,75.659,74.528,76.02-76.366Z"/><path d="M134.369,269.163c-12.295-11.745,2.977-33.457,18.707-23.024,17.644,11.701-3.473,37.578-18.707,23.024Z"/><path d="M247.119,139.117c20.235-2.927,22.855,27.206,4.484,29.241-19.953,2.21-22.622-26.617-4.484-29.241Z"/></svg>