<?xml version="1.0" encoding="UTF-8"?><svg id="a" xmlns="http://www.w3.org/2000/svg" viewBox="0 0 115 115"><path d="M96.5,36.2c-4.9-5.6-10.1-11-15-16-2.1-2.1-4.8-3.2-8.2-3.2-3.6,0-7.3,0-10.9,0-10.7,0-21.7-.1-32.6.1-7.8.2-12.6,5-12.8,12.7-.3,10.9-.2,21.9-.2,32.6,0,4.6,0,9.2,0,13.9,0,3.6,1.4,6.4,4.1,8.1,5,3.1,9.9,6.4,14.8,9.9,5.2,3.8,6.1,3.9,13.6,3.9h10.2c3.4,0,6.8,0,10.2,0,6.4,0,12.8,0,19.2,0h0c2.7,0,4.7-.7,6.3-2.1,1.9-1.6,2.8-3.8,2.8-6.9,0-5.5,0-11.1,0-16.6v-13.3c0-5.8,0-11.7,0-17.6,0-1.7-.3-4-1.6-5.5ZM44.8,24h13.5v13.7h-2.6c-1.3,0-2.6.1-3.9.1-.8,0-1.5,0-2.3,0s-1.2,0-1.8,0h-2.9v-13.8ZM37.7,79.3h-1c-.8,0-1.6,0-2.3,0-.8,0-1.6,0-2.3,0s-2,0-3.1,0c-3,0-5-2.2-5-5.2,0-1.9,0-3.8,0-5.8,0-.9,0-1.7,0-2.6v-1h13.8v14.7ZM37.7,58.4h-13.7v-2.6c0-1.3-.1-2.6-.1-4,0-1.4,0-2.7,0-4.1v-2.9h13.8v13.6ZM37.7,37.6h-13.6v-2.2c-.1-1-.2-2.2-.2-3.3v-1c0-1.3,0-2.7,0-4.1.2-2,1.5-3.3,3.5-3.2,2.1,0,4.1,0,6.3,0h4s0,13.7,0,13.7ZM58.4,79.3h-13.5v-14.7h2.6c1.3,0,2.6-.1,3.9-.1,1.3,0,2.7,0,4.1,0h2.9v14.8ZM58.5,58.4h-13.7v-2.6c0-1.3-.1-2.6-.1-4,0-1.4,0-2.7,0-4.1v-2.9h13.8v13.6ZM64.6,23.9h1c.9,0,1.8,0,2.6,0,2,0,3.9,0,5.8,0,3.3,0,5.2,2.1,5.3,5.5,0,1.6,0,3.2,0,4.8v3.3h-14.7v-13.6ZM79.2,44.7v13.8h-14.5v-13.8h2.6c1.4,0,2.9,0,4.4,0,1.5,0,2.9,0,4.4,0h3.1ZM79.3,73.4c0,3.4-2.5,5.8-5.7,6-1,0-2,0-3.1,0s-1.6,0-2.4,0c-.9,0-1.7,0-2.6,0h-1v-4c0-2.3,0-4.6,0-6.8,0-2.7,1.2-3.9,3.7-4,2.3,0,4.5,0,6.9,0,1,0,2.1,0,3.2,0h1v1c0,.9,0,1.8,0,2.7,0,1.8,0,3.5,0,5.2Z"/></svg>