<?xml version="1.0" encoding="UTF-8"?><svg id="a" xmlns="http://www.w3.org/2000/svg" width="400" height="400" viewBox="0 0 400 400"><path d="M338.786,131.381c-18.363-20.938-37.747-41.186-55.96-59.951-7.684-7.917-17.999-11.947-30.658-11.98-13.604-.04-27.209-.128-40.813-.215-39.966-.263-81.296-.533-121.878.551-29.215.781-47.086,18.594-47.803,47.654-1.002,40.638-.79,82.01-.588,122.024.088,17.262.175,34.528.172,51.79-.004,13.619,5.163,23.752,15.355,30.122,18.594,11.615,37.187,24.059,55.257,36.981,19.605,14.021,22.754,14.422,50.709,14.422l38.196-.004c12.723-.004,25.451-.004,38.172-.004,23.885,0,47.763.007,71.647.033h.069c9.976,0,17.463-2.442,23.559-7.68,7.001-6.023,10.297-14.174,10.372-25.654.135-20.708.11-41.419.084-62.131l-.04-49.614c-.026-21.587-.051-43.909.106-65.868.044-6.191-.955-14.769-5.957-20.474ZM145.452,85.527h50.61v51.089l-9.558.201c-4.747.11-9.752.223-14.756.27-2.842.026-5.683.037-8.562.037-2.227,0-4.475-.007-6.762-.011l-10.973-.011v-51.574ZM118.65,292.535h-3.738c-2.924,0-5.848.015-8.77.029-2.887.015-5.818.033-8.766.033-3.8,0-7.627-.026-11.423-.11-11.053-.241-18.614-8.104-18.815-19.565-.126-7.187-.097-14.378-.068-21.766.013-3.245.026-6.53.026-9.867v-3.738h51.554v54.983ZM118.661,214.216h-51.047l-.214-9.578c-.115-4.789-.235-9.826-.288-14.86-.051-5.052-.04-10.1-.027-15.346l.011-10.896h51.565v50.68ZM118.677,136.444h-50.819l-.321-8.191c-.166-3.884-.341-8.049-.416-12.214l-.082-3.632c-.124-4.95-.252-10.067.199-15.156.675-7.603,5.537-12.199,12.978-12.057,7.689.058,15.38.044,23.626.033l14.835-.011v51.227ZM196.057,292.218h-50.601v-54.79l9.684-.201c4.7-.106,9.653-.215,14.606-.263,5.043-.047,10.084-.037,15.335-.026l10.976.011v55.268ZM196.383,214.208h-51.056l-.214-9.615c-.113-4.771-.232-9.786-.285-14.805-.051-5.048-.04-10.097-.027-15.342l.011-10.903h51.571v50.665ZM219.376,85.216h3.738c3.333,0,6.616-.015,9.865-.026,7.337-.033,14.504-.058,21.666.066,12.363.215,19.562,7.695,19.748,20.522.084,5.891.064,11.783.044,17.963l-.02,12.436h-55.04v-50.961ZM273.807,162.934v51.571h-54.367v-51.465l9.814-.04c5.322-.026,10.903-.051,16.486-.062,5.442-.011,10.881-.007,16.515-.007l11.551.004ZM274.36,270.185c-.361,12.612-9.169,21.766-21.418,22.263-3.822.157-7.629.204-11.502.204-2.96,0-5.957-.029-9.031-.058-3.192-.029-6.461-.058-9.841-.058h-3.738l-.024-15.086c-.027-8.68-.053-17.141.069-25.599.142-9.925,4.59-14.641,13.997-14.835,8.514-.168,16.977-.131,25.929-.099,3.866.015,7.813.033,11.876.033h3.738v3.738c0,3.512.022,6.83.042,10.02.042,6.771.082,13.166-.099,19.478Z"/></svg>