<?xml version="1.0" encoding="UTF-8"?><svg id="a" xmlns="http://www.w3.org/2000/svg" width="400" height="400" viewBox="0 0 400 400"><path d="M172.924,62.942c22.601-6.893,50.89-7.827,69.903,8.243,15.875-13.331,35.883-16.204,54.619-7.083,9.184,4.471,52.89,39.916,57.456,48.122,2.264,4.068,3.843,9.2,4.18,13.88l-.05,202.888c-2.45,16.663-14.226,28.363-31.207,29.917l-178.649-.672c-4.959-1.694-9.662-3.773-13.845-6.993-30.331-23.346-57.647-63.695-87.252-89.174-1.498-3.317-3.996-6.934-4.839-10.442-2.815-11.699-2.463-67.495-.952-81.016.473-4.231,4.037-10.083,3.853-12.265-.213-2.53-3.343-6.785-3.853-11.344-1.949-17.432-1.671-57.34-.056-75.078,1.337-14.685,12.296-27.724,27.267-29.69,12.51-1.643,72.773-1.742,83.304,1.199,8.978,2.507,18.176,10.071,20.124,19.508ZM142.309,75.457h-66.681v66.681h66.681v-66.681ZM189.165,92.446c-17.977,3.66-17.414,30.059,1.161,32.933,16.415,2.54,40.647.512,34.674-22.183-3.467-13.172-25.059-12.944-35.834-10.75ZM272.548,92.43c-20.429,3.367-15.967,35.493,5.071,33.004,21.618-2.557,17.437-36.715-5.071-33.004ZM142.309,175.479h-66.681v66.681h66.681v-66.681ZM189.165,192.467c-17.977,3.66-17.414,30.059,1.161,32.933,16.415,2.54,40.647.512,34.674-22.183-3.467-13.172-25.059-12.944-35.834-10.75ZM272.548,192.451c-20.429,3.367-15.967,35.493,5.071,33.004,21.618-2.557,17.437-36.715-5.071-33.004Z"/></svg>