<?xml version="1.0" encoding="UTF-8"?><svg id="a" xmlns="http://www.w3.org/2000/svg" viewBox="0 0 400 400"><path d="M222,208.1c-11.6-.1-21.4,10.3-20.5,21.9,1.4,21.6,30.8,26.7,39.5,7,6-13.3-4.2-29-18.8-28.9h-.2Z"/><path d="M172.1,158.3c-11.6-.1-21.4,10.3-20.5,21.9,1.4,21.6,30.8,26.7,39.5,7,6-13.3-4.2-29-18.8-28.9h-.2Z"/><path d="M122.2,108.6c-11.6-.1-21.4,10.3-20.5,21.9,1.4,21.6,30.8,26.7,39.5,7,6-13.3-4.2-29-18.8-28.9h-.2Z"/><path d="M122.2,207.2c-11.6-.1-21.4,10.3-20.5,21.9,1.4,21.6,30.8,26.7,39.5,7,6-13.3-4.2-29-18.8-28.9h-.2Z"/><path d="M222,108.6c-11.6-.1-21.4,10.3-20.5,21.9,1.4,21.6,30.8,26.7,39.5,7,6-13.3-4.2-29-18.8-28.9h-.2Z"/><path d="M134.2,342.5h0s178,0,178,0h0c13.2-.3,23.9-11,24.2-24.2,0-35.8,0-172.8,0-178.1-.7-7.1-3.8-13.8-9.2-18.6-16.2-16.1-32.3-32.4-48.5-48.4-3.5-3.3-7.8-5.6-12.6-6.5-4.9-.9-5-.5-11.9-.6-17.5,0-34.6,0-55.6,0-51.4.2-108-.4-116.4.2-10.7,1.2-19.8,9.5-21.7,20.3-1.3,14.6-.2,133-.5,175.8-.2,7.6.2,11.3,3.4,17.6,1.6,2.9,3.8,5.2,6.2,7.6,15.4,15.3,30.6,30.8,46.1,46,4.4,5.4,11.1,8.8,18.5,9ZM271.8,258.3c-.8,9.2-7.4,17.6-16.6,19.6-1.7.4-3.6.7-5.1.8-1.9,0-11,0-24.1,0-33.1,0-125,0-132,0-8.9-.3-17.9-6.6-20.3-15.2-.6-2-1-4.2-1.2-6.2,0-7,0-104.6,0-137.8.5-16.1-1.8-20.7,3.7-30.1,3.4-5.3,9.2-8.8,15.4-9.7,5.5-.6,8.6-.1,21.7-.3,34.6.2,130.5-.4,139.1.2,11.2,1.4,18.9,10.6,19.6,21.7-.3,13.5.3,125.3,0,157h0Z"/></svg>