<?xml version="1.0" encoding="UTF-8"?><svg id="a" xmlns="http://www.w3.org/2000/svg" viewBox="0 0 400 400"><path d="M338.7,157c-.2-7.5-3.6-14.1-9-18.5-1-1.2-2.1-2.3-3.3-3.3-1-1.2-2.1-2.3-3.3-3.3-1-1.2-2.1-2.3-3.3-3.3-1-1.2-2.1-2.3-3.3-3.3-1-1.2-2.1-2.3-3.3-3.3-1-1.2-2.1-2.3-3.3-3.3-1-1.2-2.1-2.3-3.3-3.3-1-1.2-2.1-2.3-3.3-3.3-1-1.2-2.1-2.3-3.3-3.3-1-1.2-2.1-2.3-3.3-3.3-1-1.2-2.1-2.3-3.3-3.3-1-1.2-2.1-2.3-3.3-3.3-1-1.2-2.1-2.3-3.3-3.3-1-1.2-2.1-2.3-3.3-3.3,3.4,4.1,5.5,9.4,5.7,15.2h.2v178h0c-.3,13.2-11,23.9-24.2,24.2h0s-.5,0-.5,0c12.8-.8,23-11.2,23.3-24.1h0V107.1h-.2c-.1-5.8-2.2-11-5.7-15.2-.5-.6-1.1-1.2-1.7-1.8-.2-.2-.4-.4-.6-.5-.4-.4-.8-.7-1.2-1.1-.2-.2-.5-.4-.8-.6-.4-.3-.8-.6-1.2-.9-.3-.2-.6-.4-.9-.5-.4-.3-.8-.5-1.3-.7-.3-.2-.6-.3-.9-.5-.4-.2-.9-.4-1.4-.6-.3-.1-.6-.3-1-.4-.5-.2-1-.3-1.5-.5-.3,0-.6-.2-1-.3-.6-.1-1.1-.2-1.7-.3-.3,0-.6-.1-.8-.1-16.3-.7-165.8,0-180.6-.2-8.3.2-15.5,4.4-19.9,10.8-1.7,2.6-3,5.5-3.7,8.6-.3,1.6-.5,3.2-.6,4.8h0v178h0c0,.9,0,1.8.2,2.6,0,.3,0,.6.1.8,0,.6.2,1.1.3,1.7,0,.3.2.6.3.9.1.5.3,1,.5,1.5.1.3.2.6.4.9.2.5.4.9.6,1.4.1.3.3.6.4.9.2.5.5.9.7,1.3.2.3.3.6.5.8.3.4.6.9.9,1.3.2.2.3.5.5.7,2.1,2.6,4.7,4.8,7.8,6.3.2.1.3.3.5.5,1,1.2,2.1,2.3,3.3,3.3,1,1.2,2.1,2.3,3.3,3.3,1,1.2,2.1,2.3,3.3,3.3,1,1.2,2.1,2.3,3.3,3.3,1,1.2,2.1,2.3,3.3,3.3,1,1.2,2.1,2.3,3.3,3.3,1,1.2,2.1,2.3,3.3,3.3,1,1.2,2.1,2.3,3.3,3.3,1,1.2,2.1,2.3,3.3,3.3,1,1.2,2.1,2.3,3.3,3.3,1,1.2,2.1,2.3,3.3,3.3,1,1.2,2.1,2.3,3.3,3.3,1,1.2,2.1,2.3,3.3,3.3,4.4,5.4,11.1,8.8,18.5,9h0s178,0,178,0h0c13.2-.3,23.9-11,24.2-24.2h0v-178h-.2ZM266.8,102.3c.2.2.4.3.5.5.5.5,1,1,1.5,1.6,3,3.7,4.9,8.3,5,13.4h.2v156.7h0c-.3,11.7-9.7,21-21.3,21.3-31.1.1-138.9,0-155.5,0-9.1,0-18.7-6.4-21.2-15.1-.8-2.4-1.4-5.3-1.4-7.4,0-10.1,0-101,0-134.3,0-10,0-17.2,0-19.8,0-1.9.3-3.5.8-5.6,1.9-8.4,9.1-15,17.6-16.6,14.1-1.3,87.3-.1,132.9-.5,12.8,0,22.2,0,25.3,0,4.8,0,10.1,2.1,14.5,4.9.4.3.7.6,1.1,1Z"/><polygon points="283 91.8 283 91.8 283 91.8 283 91.8"/><path d="M174.3,221.5c14.4.2,26.5-12.8,25.2-27.2-2.1-26.3-37.8-32.4-48.6-8.4-7.4,16.5,5,35.7,23.2,35.6h.2Z"/></svg>