<?xml version="1.0" encoding="UTF-8"?><svg id="a" xmlns="http://www.w3.org/2000/svg" viewBox="0 0 400 400"><path d="M65.6,91.8s.2-1.4.1-.7c-.1,1-.3,1.9-.3,2.9,0,.3,0,.4,0,.2,0-.7,0-1.6.2-2.2v-.2Z"/><path d="M65.6,274.9c0-.7-.2-1.9-.2-2.6,0,.6.1,1.9.2,2.6h0Z"/><path d="M67.2,85.4c-.6,1.5-1.2,3.7-1.5,5.4.2-1.5.9-3.9,1.5-5.4h0Z"/><path d="M72.6,289.1c.5.5,1.3,1.3,1.9,1.7-.4-.3-1.4-1.2-1.9-1.7h0Z"/><path d="M341.7,144.2c-.2-7.5-3.6-14.1-9-18.5-1-1.2-2.1-2.3-3.3-3.3-15.2-15.3-30.4-30.7-45.8-45.8-3.4-3-7.5-5.1-12-6-15.3-1.5-137.5-.2-182.2-.5-12.5.6-23,10.9-23.8,23.2-.1,12.7-.3,135.9,0,180.3.7,8.9,5.9,14.8,12.2,20.7,8.9,8.8,17.7,17.8,26.7,26.6,1,1.2,2.1,2.3,3.3,3.3,1,1.2,2.1,2.3,3.3,3.3,1,1.2,2.1,2.3,3.3,3.3,1,1.2,2.1,2.3,3.3,3.3,1,1.2,2.1,2.3,3.3,3.3,4.4,5.4,11.1,8.8,18.5,9h0s178,0,178,0h0c13.2-.3,23.9-11,24.2-24.2h0v-178h-.2ZM280.6,265.9c-.8,9.3-7.6,17.7-16.9,19.8-1.7.4-3.6.7-5.1.8-2,0-11.2,0-24.3,0-33.2,0-126,0-133.1,0-6.3-.1-13.6-3.4-17.3-8.5-2.9-3.5-4.4-8.2-4.9-12.6-.2-8.5,0-105.9,0-140.3.2-12.1-.3-15.9.2-20.3.7-5.6,3.2-10.8,7.7-14.6,3.8-3.4,8.9-5.1,13.9-5.4,2.1-.1,8.6,0,19.3,0,35.3.2,131.5-.4,140.9.2,11.3,1.5,19,10.7,19.8,22-.3,14,.3,126.7,0,158.8h0Z"/><path d="M129.3,214.2c-11.7-.1-21.5,10.2-20.7,21.9,1.2,21.9,31,27.3,39.9,7.4,6.2-13.5-4.1-29.5-19-29.4h-.2Z"/><path d="M129.3,114.4c-11.7-.1-21.5,10.2-20.7,21.9,1.2,21.9,31,27.3,39.9,7.4,6.2-13.5-4.1-29.5-19-29.4h-.2Z"/><path d="M230.2,215.1c-11.7-.1-21.6,10.4-20.7,22.1,1.4,21.8,31.2,27,40,7.1,6-13.5-4.3-29.3-19.1-29.2h-.2Z"/><path d="M230.2,114.4c-11.7-.1-21.6,10.4-20.7,22.1,1.4,21.8,31.2,27,40,7.1,6-13.5-4.3-29.3-19.1-29.2h-.2Z"/><path d="M66,89.7c-.1.6-.3,1.7-.4,2.2,0-.6.2-1.7.4-2.2h0Z"/></svg>