<?xml version="1.0" encoding="UTF-8"?><svg id="a" xmlns="http://www.w3.org/2000/svg" viewBox="0 0 400 400"><path d="M351.2,155.9c-.9-9.9-6.2-15.6-12.9-22-13.2-12.4-28.1-24.3-42.6-35.8-12.9-10.3-26.3-20.9-38.4-31.9-9.6-5.3-21.6-5.9-37.7-2.1l-1.5.4-1-1.2c-13.1-16.2-27-22.8-43.7-20.9-12.2,1.4-22.8,8.2-32.4,20.9l-1.1,1.4-1.7-.5c-16.1-5.1-32.2-2.8-44.2,6.3-11.6,8.8-17.6,22.5-17,38.6v1.9c0,0-1.8.6-1.8.6-15.6,4.9-27.6,16.5-32,31.1-4.3,14.2-1.1,29.3,8.8,41.6l1.2,1.5-1.2,1.6c-10,13.1-13.1,28.9-8.6,43.2,4.5,14.3,16.1,25.4,31.8,30.4l1.7.6v1.8c0,15,4.4,26.9,13,35.4,1.8,1.8,4.1,3.3,6.4,4.7,2.2,1.4,4.6,2.9,6.5,4.7,3.6,3.3,7.5,7.5,11.7,12,12,12.9,27,28.9,40.7,30.3,10.4-.7,21-1,31.8-1,16.6,0,33.6.6,50.2,1.3,29.6,1.1,60.2,2.3,88.2-.3,13.4-1.2,23.7-11,25.6-24.4-1.8-26.3-.7-54.4.3-81.6,1.1-29.7,2.3-60.4-.3-88.5ZM283.1,199.6c4.6,6.1,9.8,13,7.8,22.1-2.3,10.3-11.4,13.3-19.5,15.9-6.1,2-11.8,3.8-14.4,8.4-2.1,3.7-1.9,8.4-1.7,13.4.2,6.1.4,12.9-3.5,18.9-7.2,10.9-18,7.7-27.6,4.9-6.1-1.8-11.9-3.5-16.6-2-3.2,1-5.9,5-8.7,9.4-4.4,6.6-9.4,14.1-18.6,15-.6,0-1.1,0-1.7,0-9.3,0-14.7-7.6-19.4-14.3-3.3-4.7-6.3-9-10.1-10-5.4-1.4-10.5.2-15.8,1.9-5.6,1.8-11.4,3.6-18,2.3-12.6-2.6-12.9-15.3-13.2-25.6-.1-5.6-.3-11-2-14.4-1.8-3.5-7.4-5.4-13.3-7.4-6.8-2.3-13.7-4.6-17.3-10.1-7.5-11.7-.9-20.6,4.4-27.7,3.1-4.1,6-8.1,6.3-12.1.6-6.5-2.8-11.1-6.4-15.9-3.9-5.3-8.4-11.3-7.3-20.2,1.5-11.5,11.7-14.7,19.9-17.2,5.1-1.6,9.8-3,12.2-6,3.2-4,3.4-10.7,3.5-17.2.1-6.9.3-13.9,4-18.7,7.5-9.5,17.6-6.4,26.5-3.7,7.9,2.4,15.3,4.7,21.1-.8,1.8-1.7,3.6-4.3,5.4-7.2,3.5-5.3,7.5-11.4,13.6-13.3,13.4-4.2,19.9,5.2,25.1,12.8,3.3,4.9,6.5,9.5,10.9,10.6,4.7,1.2,10.1-.4,15.8-2.2,9.3-2.9,19.8-6.1,27.2,5.1,3.9,5.9,3.7,12.2,3.5,18.2-.2,5.5-.3,10.8,2.8,15.1,2.7,3.8,8,5.6,13.6,7.4,8.7,2.8,18.5,6,19.7,18.3.7,7.3-3.8,13.4-8.1,19.3-3.6,5-7,9.6-6.8,14.2.2,4.4,3.3,8.5,6.6,12.9Z"/><path d="M212.4,131.7c-5-3.2-12.6-3.9-18.4,1.8l-62.8,94.3c-3.3,8.7.9,15.6,6.5,18.5,5.6,3,13.7,2.5,19-5.1l61.2-91.6c3.2-8.5-1-15-5.5-17.9Z"/><path d="M138.2,114.5c-1.6,0-3.2.1-4.9.4-20.5,3.3-19.3,28.7-17.8,39.4,1.8,13,12.2,18.8,21.8,18.8h0c9.6,0,20-5.8,21.8-18.8,3.1-22.6-4.9-32.3-7.4-34.8-3.5-3.4-8-5.1-13.4-5.1Z"/><path d="M227.8,189.1c-1.6,0-3.2.1-4.9.4-20.5,3.3-19.3,28.7-17.8,39.4,1.8,13,12.2,18.8,21.8,18.8h0c9.6,0,20-5.8,21.8-18.8,3.1-22.6-4.9-32.3-7.4-34.8-3.5-3.4-8-5.1-13.4-5.1Z"/></svg>