<?xml version="1.0" encoding="UTF-8"?><svg id="a" xmlns="http://www.w3.org/2000/svg" viewBox="0 0 115 112"><path d="M97,47.3c0-1-.5-2-1.3-2.5-.2-.3-.5-.6-.8-.8-.2-.3-.5-.6-.8-.8-.2-.3-.5-.6-.8-.8-.2-.3-.5-.6-.8-.8-.2-.3-.5-.6-.8-.8-.2-.3-.5-.6-.8-.8-.2-.3-.5-.6-.8-.8-.2-.3-.5-.6-.8-.8-.2-.3-.5-.6-.8-.8-.2-.3-.5-.6-.8-.8-.2-.3-.5-.6-.8-.8-.2-.3-.5-.6-.8-.8-.2-.3-.5-.6-.8-.8-.2-.3-.5-.6-.8-.8,0,0,0,0,0,0,0-.1-.2-.3-.3-.4,0,0,0,0-.1-.1-.1-.1-.2-.2-.4-.3,0,0,0,0,0,0-.1,0-.3-.1-.4-.2,0,0,0,0,0,0-.2,0-.3-.1-.5-.2,0,0,0,0-.1,0-.2,0-.4,0-.5,0H19.2c-.2,0-.3,0-.5,0-.2,0-.3,0-.4.1-.3,0-.6.2-.8.4-.8.5-1.3,1.5-1.3,2.5v31.4h0c0,.2,0,.4,0,.6,0,0,0,0,0,.1,0,.2,0,.3.2.5,0,0,0,0,0,0,0,.1.1.3.2.4,0,0,0,0,0,0,0,.1.2.3.3.4,0,0,0,0,.1.1.1.1.2.2.4.3,0,0,0,0,0,0,.2.3.5.6.8.8.2.3.5.6.8.8.2.3.5.6.8.8.2.3.5.6.8.8.2.3.5.6.8.8.2.3.5.6.8.8.2.3.5.6.8.8.2.3.5.6.8.8.2.3.5.6.8.8.2.3.5.6.8.8.2.3.5.6.8.8.2.3.5.6.8.8.2.3.5.6.8.8.2.3.5.6.8.8.6.8,1.5,1.3,2.5,1.3h62.9c1.7,0,3.1-1.4,3.1-3.1h0s0,0,0,0v-31.4h0ZM73.3,36.9c0-.3.3-.6.6-.6s0,0,0,0h0s6.5,0,6.5,0h0s0,0,0,0c.3,0,.6.3.6.6v6.6c0,.3-.3.6-.6.6s0,0,0,0h0s-2.7,0-2.7,0c-.3,0-.6-.3-.6-.6v-3.3h-3.2s0,0,0,0c-.3,0-.6-.3-.6-.6v-2.7ZM73.3,65.3v-2.7h0c0-.3.3-.6.6-.6h3.3v-3.2h0s0,0,0,0c0-.3.3-.6.6-.6h2.7c.3,0,.6.3.6.6s0,0,0,0h0v6.5h0s0,0,0,0c0,.3-.3.6-.6.6h-6.6c-.3,0-.6-.3-.6-.6s0,0,0,0h0ZM27.3,62h0s0,0,0,0c.3,0,.6.3.6.6v2.7c0,.3-.3.6-.6.6s0,0,0,0h0s-6.5,0-6.5,0h0s0,0,0,0c-.3,0-.6-.3-.6-.6v-6.6c0-.3.3-.6.6-.6s0,0,0,0h0s2.7,0,2.7,0h0c.3,0,.6.3.6.6v3.3h3.2ZM50.6,40.2c6,0,10.9,4.9,10.9,10.9,0,2.3-.7,4.4-1.9,6.2h0c0-.6-.3-1-.6-1.2l-4.3-2.1-1.8-.9c.8-.5,1.4-1.3,1.9-2.2.3-.7.5-1.6.5-2.5s0-1-.2-1.4c-.5-2.2-2.3-3.9-4.4-3.9s-3.8,1.6-4.4,3.8c-.1.5-.2,1-.2,1.6,0,1,.2,1.8.6,2.6.4.9,1.1,1.6,1.9,2.1l-1.7.8-4.5,2.1c-.4.2-.6.6-.6,1.1h0c-1.2-1.7-1.9-3.8-1.9-6.1,0-6,4.9-10.9,10.9-10.9ZM20.1,43.5v-6.5h0s0,0,0,0c0-.3.3-.6.6-.6h6.6c.3,0,.6.3.6.6s0,0,0,0h0v2.7h0c0,.3-.3.6-.6.6h-3.3v3.2h0s0,0,0,0c0,.3-.3.6-.6.6h-2.7c-.3,0-.6-.3-.6-.6s0,0,0,0h0Z"/></svg>