<?xml version="1.0" encoding="UTF-8"?><svg id="a" xmlns="http://www.w3.org/2000/svg" viewBox="0 0 115 112"><defs><style>.b{fill:none;}</style></defs><polygon class="b" points="39.2 42.9 39.2 42 38.5 42 39.2 42.9"/><path class="b" d="M52.7,71h4.8c.8,0,1.5.3,1.9.9.1,0,.2.2.3.3.1,0,.2.2.3.3.1,0,.2.2.3.3.1,0,.2.2.3.3.1,0,.2.2.3.3.1,0,.2.2.3.3.1,0,.2.2.3.3.1,0,.2.2.3.3.1,0,.2.2.3.3.1,0,.2.2.3.3.1,0,.2.2.3.3.1,0,.2.2.3.3.1,0,.2.2.3.3.1,0,.2.2.3.3.5.5.9,1.1.9,1.9,0,1.3-1,2.4-2.2,2.5h4.4v-15.4l-9.1-10.3-4.8,5.4v10.9Z"/><path d="M62.2,80.4c1.3-.1,2.2-1.2,2.2-2.5s-.3-1.5-.9-1.9c0-.1-.2-.2-.3-.3,0-.1-.2-.2-.3-.3,0-.1-.2-.2-.3-.3,0-.1-.2-.2-.3-.3,0-.1-.2-.2-.3-.3,0-.1-.2-.2-.3-.3,0-.1-.2-.2-.3-.3,0-.1-.2-.2-.3-.3,0-.1-.2-.2-.3-.3,0-.1-.2-.2-.3-.3,0-.1-.2-.2-.3-.3,0-.1-.2-.2-.3-.3,0-.1-.2-.2-.3-.3,0-.1-.2-.2-.3-.3-.5-.5-1.1-.9-1.9-.9h-4.8v-10.9l4.8-5.4-5.2-5.9-6.1,6.9v15.3h9.2c1.4,0,2.5,1.1,2.5,2.5s-1.1,2.5-2.5,2.5h-22.3c0,.1.2.2.3.3,0,.1.2.2.3.3,0,.1.2.2.3.3,0,.1.2.2.3.3,0,.1.2.2.3.3,0,.1.2.2.3.3,0,.1.2.2.3.3,0,.1.2.2.3.3,0,.1.2.2.3.3,0,.1.2.2.3.3,0,.1.2.2.3.3,0,.1.2.2.3.3.5.5,1.1.9,1.9.9h18.6c0,0,.2,0,.3,0h4.9Z"/><path d="M83.3,82.9c0,1.4-1.1,2.5-2.5,2.5h-22.3c0,.1.2.2.3.3,0,.1.2.2.3.3,0,.1.2.2.3.3,0,.1.2.2.3.3,0,.1.2.2.3.3,0,.1.2.2.3.3,0,.1.2.2.3.3,0,.1.2.2.3.3,0,.1.2.2.3.3,0,.1.2.2.3.3,0,.1.2.2.3.3,0,.1.2.2.3.3.5.5,1.1.9,1.9.9h23.5c1.4,0,2.5-1.1,2.5-2.5s-.3-1.5-.9-1.9c0-.1-.2-.2-.3-.3,0-.1-.2-.2-.3-.3,0-.1-.2-.2-.3-.3,0-.1-.2-.2-.3-.3,0-.1-.2-.2-.3-.3,0-.1-.2-.2-.3-.3,0-.1-.2-.2-.3-.3,0-.1-.2-.2-.3-.3,0-.1-.2-.2-.3-.3,0-.1-.2-.2-.3-.3,0-.1-.2-.2-.3-.3,0-.1-.2-.2-.3-.3,0-.1-.2-.2-.3-.3,0-.1-.2-.2-.3-.3-.5-.5-1.1-.9-1.9-.9h-2.2c1.4,0,2.5,1.1,2.5,2.5Z"/><path d="M25,24h0s0,0,0,0c0,0,0,0-.1-.1,0-.1-.2-.2-.3-.3,0-.1-.2-.2-.3-.3,0-.1-.2-.2-.3-.3,0-.1-.2-.2-.3-.3,0-.1-.2-.2-.3-.3,0-.1-.2-.2-.3-.3,0-.1-.2-.2-.3-.3,0-.1-.2-.2-.3-.3,0-.1-.2-.2-.3-.3,0-.1-.2-.2-.3-.3,0-.1-.2-.2-.3-.3,0-.1-.2-.2-.3-.3,0-.1-.2-.2-.3-.3,0-.1-.2-.2-.3-.3-.7-.8-1.9-1.1-3-.7-1.3.6-1.8,2.1-1.2,3.3,0,0,0,0,0,.1l.9,1.8c.4-.2.8-.4,1.3-.4h6.3Z"/><path d="M43.8,24h24.6c.6,0,1.2.2,1.7.6,1,.9,1.1,2.5.2,3.5l-4.6,5.2h4.6c.6-2.6,2.4-4.8,4.7-6,0,0-.1-.1-.2-.2,0,0,0,0,0,0,0,0-.2-.2-.3-.3,0,0,0,0,0,0,0,0-.2-.2-.3-.3,0,0,0,0,0,0,0,0-.2-.2-.3-.3,0,0,0,0,0,0,0,0-.2-.2-.3-.3,0,0,0,0,0,0,0,0-.2-.2-.3-.3,0,0,0,0,0,0,0,0-.2-.2-.3-.3,0,0,0,0,0,0,0,0-.2-.2-.3-.3,0,0,0,0,0,0,0,0-.2-.2-.3-.3,0,0,0,0,0,0,0,0-.2-.2-.3-.3-.5-.4-1-.6-1.7-.6h-21.3c-.5-.9-1.1-1.7-1.8-2.4,0,0-.2-.2-.3-.3,0,0-.2-.2-.3-.3,0,0-.2-.2-.3-.3,0,0-.2-.2-.3-.3,0,0-.2-.2-.3-.3,0,0-.2-.2-.3-.3,0,0-.2-.2-.3-.3,0,0-.2-.2-.3-.3,0,0-.2-.2-.3-.3,0,0-.2-.2-.3-.3,0,0-.2-.2-.3-.3,0,0-.2-.2-.3-.3,0,0-.2-.2-.3-.3,0,0-.2-.2-.3-.3-1.7-1.8-4.1-2.9-6.8-2.9s-.7,0-1.1,0c4.7.5,8.3,4.5,8.3,9.3Z"/><path d="M39.2,42.9l-.7-.8h.7v.8Z"/><path d="M102.4,41.9c.9-1,.8-2.6-.2-3.5,0,0,0,0,0,0,0,0-.2-.2-.3-.3,0,0,0,0,0,0,0,0-.2-.2-.3-.3,0,0,0,0,0,0,0,0-.2-.2-.3-.3,0,0,0,0,0,0,0,0-.2-.2-.3-.3,0,0,0,0,0,0,0,0-.2-.2-.3-.3,0,0,0,0,0,0,0,0-.2-.2-.3-.3,0,0,0,0,0,0,0,0-.2-.2-.3-.3,0,0,0,0,0,0,0,0-.2-.2-.3-.3,0,0,0,0,0,0,0,0-.2-.2-.3-.3,0,0,0,0,0,0,0,0-.2-.2-.3-.3,0,0,0,0,0,0,0,0-.2-.2-.3-.3,0,0,0,0,0,0,0,0-.2-.2-.3-.3,0,0,0,0,0,0,0,0-.2-.2-.3-.3,0,0,0,0,0,0,0,0-.2-.2-.3-.3,0,0,0,0,0,0,0,0-.2-.2-.3-.3-.5-.4-1-.6-1.7-.6h-4.6s0,0,0,0c0-.1-.2-.2-.3-.3,0-.1-.2-.2-.3-.3,0-.1-.2-.2-.3-.3,0-.1-.2-.2-.3-.3,0-.1-.2-.2-.3-.3,0-.1-.2-.2-.3-.3,0-.1-.2-.2-.3-.3,0-.1-.2-.2-.3-.3,0-.1-.2-.2-.3-.3,0-.1-.2-.2-.3-.3,0-.1-.2-.2-.3-.3,0-.1-.2-.2-.3-.3,0-.1-.2-.2-.3-.3,0-.1-.2-.2-.3-.3-1.9-2-4.6-3-7.4-2.7,3.6.5,6.6,3.1,7.4,6.8h6.5c.6,0,1.2.2,1.7.6,1,.9,1.1,2.5.2,3.5l-24.2,27.5v15.3h6.6v-10.9l24.2-27.5Z"/><path d="M43.2,55.6l-4-4.5h0c0,0-20.2-23-20.2-23-.5-.6-.7-1.4-.6-2.2,0,0,0,0,0,0-.3-.2-.5-.5-.6-.8l-.3-.7c-.4.3-.8.6-1,1.1-.4.9-.2,1.9.4,2.7l24.2,27.5v15.3h2.2v-15.3Z"/><polygon points="75.3 55.7 76.7 54.1 75.3 54.1 75.3 55.7"/><path d="M35.5,14.7c-.4,0-.7,0-1.1,0-5.2,0-9.4,4.2-9.4,9.4h2.2c0-4.8,3.6-8.8,8.3-9.3Z"/><path d="M75.2,27.5c0,0,.2.2.3.3,0,0,0,0,0,0,0,0,.2.2.3.3,0,0,0,0,0,0,0,0,0,0,.1.1,1-.7,2.1-1.2,3.3-1.5.3,0,.6-.1.8-.1-1-.1-2,0-3,.1-.7.1-1.3.4-1.9.7,0,0,0,0,0,0,0,0,0,0,0,0Z"/><polygon points="66.6 80.4 68.8 80.4 68.8 65 58.5 53.4 57.4 54.6 66.6 65 66.6 80.4"/><path d="M71.6,65l24.2-27.5c.9-1,.8-2.6-.2-3.5-.5-.4-1-.6-1.7-.6h-6.5c-.8-3.7-3.9-6.3-7.4-6.8-.3,0-.6,0-.8.1-1.2.3-2.3.8-3.3,1.5,0,0,0,0-.1-.1,0,0,0,0,0,0,0,0-.2-.2-.3-.3,0,0,0,0,0,0,0,0-.2-.2-.3-.3,0,0,0,0,0,0,0,0,0,0,0,0-2.4,1.1-4.1,3.3-4.7,6h-4.6l4.6-5.2c.9-1,.8-2.6-.2-3.5-.5-.4-1-.6-1.7-.6h-24.6c0-4.8-3.6-8.8-8.3-9.3-4.7.5-8.3,4.5-8.3,9.3h-2.2s-6.3,0-6.3,0c-.5,0-.9.1-1.3.4l.3.7c.2.3.4.6.6.8,0,0,0,0,0,0-.2.8,0,1.6.6,2.2l20.2,22.9h0c0,0,0,0,0,0l4,4.5v15.3h-9.2c-1.4,0-2.5,1.1-2.5,2.5s.3,1.5.9,1.9c0,.1.2.2.3.3,0,.1.2.2.3.3,0,0,0,0,0,0h22.3c1.4,0,2.5-1.1,2.5-2.5s-1.1-2.5-2.5-2.5h-9.2v-15.3l6.1-6.9,5.2,5.9,1.1-1.2,10.2,11.6v15.4h-11.5c0,0-.2,0-.3,0h2.2c-1.3.1-2.2,1.2-2.2,2.5s.3,1.5.9,1.9c0,.1.2.2.3.3,0,.1.2.2.3.3,0,0,0,0,0,0h22.3c1.4,0,2.5-1.1,2.5-2.5s-1.1-2.5-2.5-2.5h-9.2v-15.3ZM75.3,55.7v-1.7h1.5l-1.5,1.7ZM78.9,31.5c2.1,0,3.8,1.7,3.8,3.8s-1.7,3.8-3.8,3.8-3.8-1.7-3.8-3.8,1.7-3.8,3.8-3.8ZM34.4,20.2c2.2,0,4,1.6,4.3,3.8h-8.6c.3-2.2,2.1-3.8,4.3-3.8ZM43.5,50.9l-19.3-21.9h38.6l-3.9,4.4h-14.7c-1.4,0-2.5,1.1-2.5,2.5,0,.6.2,1.2.6,1.7l6.4,7.4-5.2,6ZM49.8,38.4h20.9c1.7,4.5,6.8,6.8,11.3,5,2.3-.9,4.1-2.7,5-5h1.3l-19.2,21.9-19.3-21.9Z"/></svg>