<?xml version="1.0" encoding="UTF-8"?><svg id="a" xmlns="http://www.w3.org/2000/svg" viewBox="0 0 115 115"><path d="M105.3,65.9c0-.9-8.8-9.9-9-10l3.9-6.8h0c.6-1.2-13.3-15.7-13.4-15.8l-2.3-5.5h-3.3c-.1,0-6.9-7-7.3-7.3,0,0-.1-.1-.2-.2,0-.8-.4-3.3-.4-3.3-.7-1.5-2.2-2.4-3.8-2.4,0,0-.2,0-.2,0l-9.6,5c-.1-.2-.3-.3-.4-.4l-5.3-8.3c-1.4-1-3.4-1-4.8,0l-5.7,9.1c-.9-.5-9.4-4.9-9.4-4.9-.7,0-1.4,0-2,.4-.3,0-1.2.8-1.2.8,0,0-1.3,11.9-1.3,11.9-1,0-10.6.4-10.6.4-1.6.7-2.5,2.4-2.4,4.1l4.9,9.2c-.8.5-9.2,5.8-9.2,5.8,0,.1-.2.2-.2.4-.1.2-.3.6-.3.8-.4,1.2-.2,2.6.6,3.6l3.6,2.6c0,0,.2.2.2.2,0,0,3.7,3.8,4,4l.3.2c0,0,0,.1.1.2-.5.9-4.2,8-4.2,8,0,.8.1,1.7.5,2.3v.2c.1,0,.2,0,.2,0,.4.6,1,1.1,1.7,1.5l1.3.4c0,0,.1,0,.2.1,1.8,2.2,7.5,7.4,9.3,9.4,0,0,1.1,2.3,1.6,2.7.5.5,1.9.8,2,.8,0,0,0,0,.1,0,.2.3,1.1,1.1,1.2,1.1.2.4,6.6,6.8,7,7,.2.4,7.2,6.7,8.4,6.1h0s7-4,7-4c.2.2,3.7,3.7,3.7,3.7.2.3,4,4,4,4h0c1,1.4,3.4,1.4,4.3,0h0s5.3-9.2,5.3-9.2l9.2,5.3h0c1.5.7,3.6-.5,3.7-2.2h0v-10.7h10.6c1.7-.1,2.9-2.2,2.1-3.7h0s-5.2-9.1-5.2-9.1l9.4-5.4h0c.7-.5,1.1-1.3,1.1-2.2ZM88.3,50.8l-10.5,6.1,5.8,10.1c.4.7,0,1.7-.9,1.8h-11.9v11.9c0,.8-.9,1.5-1.7,1.1l-10.3-6-5.9,10.3c-.4.7-1.5.8-2,.1h0c0,0-5.9-10.2-5.9-10.2l-10.5,6.1c-.4.2-.8.2-1.2,0h-.2c-.2-.3-.3-.6-.3-.9v-12.1h-11.9c-.4,0-.8-.2-1-.5v-.2c-.1,0-.1,0-.1,0-.1-.3-.1-.6,0-.9l6-10.5-10.3-6c-.5-.3-.8-.9-.5-1.5,0,0,0,0,0-.1h0c0-.1.1-.2.2-.3,0,0,0,0,.2-.1l10.5-6.1-5.8-10.1c-.4-.7,0-1.7.9-1.8h11.9v-11.9c0-.3.2-.6.4-.8,0,0,.1-.1.2-.2.3-.2.7-.2,1.1,0l10.3,6,5.9-10.3c.4-.7,1.5-.8,2-.1l5.9,10.2,10.5-6.1c.2,0,.4-.2.6-.2.6,0,1.1.5,1.2,1v12.1h12c.2,0,.5,0,.6.2,0,0,.3.2.3.3.3.3.4.8.2,1.2l-6,10.5,10.3,6c.7.4.8,1.5.1,2Z"/><polygon points="64.5 33.3 67.3 42.8 60.3 35.7 58.4 36.9 61 46.5 54.2 39.3 51.4 40.9 61.4 50.5 64 49 61.4 39.9 68 46.7 70.6 45.2 67.3 31.7 64.5 33.3"/><polygon points="50.3 54 48.8 51.4 54.4 48.2 53.1 46 47.6 49.2 46.2 46.8 51.9 43.5 50.6 41.3 42.5 46 49.1 57.6 57.3 52.9 56 50.7 50.3 54"/><polygon points="37.7 48.8 41.9 56 32.4 51.9 29.8 53.3 36.5 64.9 39 63.4 34.6 55.9 44.5 60.3 46.8 58.9 40.2 47.4 37.7 48.8"/></svg>