<?xml version="1.0" encoding="UTF-8"?><svg id="a" xmlns="http://www.w3.org/2000/svg" viewBox="0 0 115 115"><defs><style>.b{fill:#070707;}</style></defs><path class="b" d="M92.2,26.3c-2.9-4.5-6.4-6.5-11.3-6.5-6,0-39.6,0-50.4,0-8.7,0-12.8,4.1-12.9,12.8-.2,10.4,0,22.3,0,32.4q0,10.5,7.1,19.4c1.4,1.7,3,3.7,4.9,6.1,2.7,3.4,5.7,4.8,10.3,4.7,15.9-.2,31.6,0,47.4,0,7.9,0,9.9-2,9.9-10.1,0-13.5-.3-26.9.1-40.6.2-6.5-1.4-12.3-5.1-18.2ZM87.7,71.7c0,3.6-2.4,5.7-6.4,5.7-8.2,0-16.3,0-24.5,0s-18.2,0-27.3,0c-3.9,0-6.2-2-6.3-5.3-.1-9.6,0-19.5,0-29.3,9.5,3.9,19.3,7.7,28.5,11.8,2.7,1.2,4.9,1.2,7.7,0,9.2-4,18.9-7.8,28.4-11.7,0,9.2,0,19.9,0,28.8ZM83.4,39c-6.8,2.4-13.6,5.3-20.2,8.1-3.6,1.5-7.3,3.8-11.1,1.9,0,0-1.2-.5-1.2-.5-7.7-3.3-15.7-6.7-23.7-9.6-5.2-2-4.2-5.5-4-8.6.1-3.5,2.4-5.4,6.7-5.3,6.1,0,44.7,0,50.8,0,1.8,0,6.6,0,6.9,5,.2,3.1,1.3,6.9-4.1,9Z"/></svg>