<?xml version="1.0" encoding="UTF-8"?><svg id="a" xmlns="http://www.w3.org/2000/svg" viewBox="0 0 115 115"><path d="M61.5,54.2h-2.1c0,0-.2,0-.2,0l-5.9,2.9c-.2,0-.3.3-.3.5l.5,3.4c0,.2.1.3.2.4.1,0,.3,0,.4,0l2.7-1v13.6c0,.3.2.5.5.5h4.1c.3,0,.5-.2.5-.5h0v-19.3c0-.3-.2-.5-.5-.5Z"/><path d="M95.3,47.3v-12.9c0-.6-.5-1.1-1-1.2,0-.5-.5-.9-1-1,0-.5-.5-.9-1-1,0-.5-.5-.9-1-1,0-.5-.5-.9-1-1,0-.5-.5-.9-1-1,0-.5-.5-.9-1-1,0-.5-.5-.9-1-1,0-.5-.5-.9-1-1,0-.5-.5-.9-1-1,0-.5-.5-.9-1-1,0-.5-.5-.9-1-1,0-.1,0-.3-.1-.4,0,0,0,0,0,0,0-.1-.2-.2-.3-.3,0,0,0,0-.1,0,0,0-.2-.1-.2-.1-.1,0-.3,0-.5,0h-6.5v3.1c0,2.7-1.3,5.5-4.7,6.4,0,0,0,0,0,0-.1,0-.2-.1-.3-.2v.3c-.6.1-1.2.2-2,.2-5.2,0-7-3.5-7-6.7v-3.1h-19.9v3.1c0,2.7-1.3,5.5-4.7,6.4,0,0,0,0,0,0-.1,0-.2-.1-.3-.2v.3c-.6.1-1.2.2-2,.2-5.2,0-7-3.5-7-6.7v-3.1h-6.6c-.6,0-1.2.5-1.2,1.1,0,0,0,0,0,.1h0v12.9c0,.2,0,.3,0,.5,0,0,0,.2.1.2,0,0,0,0,0,.1,0,0,.2.2.3.3,0,0,0,0,0,0,.1,0,.3.1.4.1,0,0,.1,0,.2,0h61.2v4.4s-61.2,0-61.2,0c-.7,0-1.2.5-1.3,1.2,0,0,0,0,0,0h0v43.9h0c0,.2,0,.3,0,.5,0,0,0,.2.1.2,0,0,0,0,0,.1,0,0,.2.2.3.3,0,0,0,0,0,0,.1,0,.3.1.4.1,0,0,0,0,0,0,0,.5.5.9,1,1,0,.5.5.9,1,1,0,.5.5.9,1,1,0,.5.5.9,1,1,0,.5.5.9,1,1,0,.5.5.9,1,1,0,.5.5.9,1,1,0,.5.5.9,1,1,0,.5.5.9,1,1,0,.5.5.9,1,1,0,.5.5.9,1,1,.1.6.6,1,1.2,1h61.2c.7,0,1.3-.6,1.3-1.3v-43.9c0-.6-.5-1.1-1-1.2,0-.5-.5-.9-1-1,0-.5-.5-.9-1-1,0-.5-.5-.9-1-1,0-.5-.5-.9-1-1,0-.2,0-.3-.2-.4h3.9c.7,0,1.3-.6,1.3-1.3ZM74.4,81.1c0,.6-.4,1-1,1H25.2c-.6,0-1-.4-1-1v-34.6c0-.6.4-1,1-1h48.2c.6,0,1,.4,1,1v34.6Z"/><path d="M45.7,63.3c2.2-1,3.3-2.6,3.3-4.7s-2.7-4.7-6.8-4.7-4.2.4-5.7,1.1c-.2,0-.3.3-.3.5l.5,3.4c0,.2.1.3.3.4.1,0,.3,0,.5,0,1.3-.6,2.6-1,3.8-1,2.2,0,2.2.8,2.2,1.3,0,.7-.4,1.8-3.7,2-.3,0-.5.2-.5.5v3.4c0,.3.2.5.5.5,3.8.2,4.5,1,4.5,2.5s-1.2,2-2.9,2-3-.2-4.5-.8c-.1,0-.3,0-.4,0-.1,0-.2.2-.2.4l-.5,3.4c0,.2,0,.4.3.5,1.4.6,3.3.9,4.9.9,5.3,0,8.6-2.6,8.6-6.6s-2-4.2-3.9-4.9Z"/><path d="M31.8,25.4s0,0,0,0c.1.3.3.6.5.8,0,0,0,0,.2.1l.4.2c.4.2,1,.3,1.7.3,2.1,0,2.9-.8,2.9-2.6v-6.1c0-.5,0-1-.2-1.3,0-.2-.2-.4-.3-.5,0,0,0,0,0,0,0,0-.1-.1-.2-.2,0,0,0,0-.1,0,0,0-.1,0-.2-.1-.1,0-.2-.1-.4-.1,0,0-.1,0-.2,0-.1,0-.2,0-.4,0,0,0-.1,0-.2,0-.2,0-.4,0-.6,0h0c-.6,0-1.1,0-1.5.2-.3,0-.5.2-.7.4-.4.3-.6.8-.6,1.4,0,.2,0,.4,0,.6v6.1c0,.2,0,.4,0,.6,0,.2,0,.4.1.5Z"/><path d="M65.8,26s0,0,0,0c.1.3.3.6.5.8,0,0,0,0,.2.1l.4.2c.4.2,1,.3,1.7.3,2.1,0,2.9-.8,2.9-2.6v-6.1c0-.5,0-1-.2-1.3,0-.2-.2-.4-.3-.5,0,0,0,0,0,0,0,0-.1-.1-.2-.2,0,0,0,0-.1,0,0,0-.1,0-.2-.1-.1,0-.2-.1-.4-.1,0,0-.1,0-.2,0-.1,0-.2,0-.4,0,0,0-.1,0-.2,0-.2,0-.4,0-.6,0h0c-.6,0-1.1,0-1.5.2-.3,0-.5.2-.7.4-.4.3-.6.8-.6,1.4,0,.2,0,.4,0,.6v6.1c0,.2,0,.4,0,.6,0,.2,0,.4.1.5Z"/></svg>