<?xml version="1.0" encoding="UTF-8"?><svg id="a" xmlns="http://www.w3.org/2000/svg" viewBox="0 0 400 400"><path d="M358.3,177.8c-.1-.2-.3-.3-.4-.4-.1-.2-.3-.3-.4-.4-.1-.2-.3-.3-.4-.4-.1-.2-.3-.3-.4-.4-.1-.2-.3-.3-.4-.4-.1-.2-.3-.3-.4-.4-.1-.2-.3-.3-.4-.4-.1-.2-.3-.3-.4-.4-.1-.2-.3-.3-.4-.4-.1-.2-.3-.3-.4-.4-.1-.2-.3-.3-.4-.4-.1-.2-.3-.3-.4-.4-.1-.2-.3-.3-.4-.4-.1-.2-.3-.3-.4-.4-.1-.2-.3-.3-.4-.4-.1-.2-.3-.3-.4-.4-.1-.2-.3-.3-.4-.4-.1-.2-.3-.3-.4-.4-.1-.2-.3-.3-.4-.4-.1-.2-.3-.3-.4-.4-.1-.2-.3-.3-.4-.4-.1-.2-.3-.3-.4-.4-.1-.2-.3-.3-.4-.4-.1-.2-.3-.3-.4-.4-.1-.2-.3-.3-.4-.4-.1-.2-.3-.3-.4-.4-.1-.2-.3-.3-.4-.4-.1-.2-.3-.3-.4-.4-.1-.2-.3-.3-.4-.4-.1-.2-.3-.3-.4-.4-.1-.2-.3-.3-.4-.4-.1-.2-.3-.3-.4-.4-.1-.2-.3-.3-.4-.4-.1-.2-.3-.3-.4-.4-.1-.2-.3-.3-.4-.4-.1-.2-.3-.3-.4-.4-.1-.2-.3-.3-.4-.4-.1-.2-.3-.3-.4-.4-.1-.2-.3-.3-.4-.4-.1-.2-.3-.3-.4-.4-.1-.2-.3-.3-.4-.4-.1-.2-.3-.3-.4-.4-.1-.2-.3-.3-.4-.4-.1-.2-.3-.3-.4-.4-.1-.2-.3-.3-.4-.4-.1-.2-.3-.3-.4-.4-.1-.2-.3-.3-.4-.4-.1-.2-.3-.3-.4-.4-.1-.2-.3-.3-.4-.4-.1-.2-.3-.3-.4-.4-.1-.2-.3-.3-.4-.4-.1-.2-.3-.3-.4-.4-.1-.2-.3-.3-.4-.4-.1-.2-.3-.3-.4-.4-.1-.2-.3-.3-.4-.4-.1-.2-.3-.3-.4-.4-.1-.2-.3-.3-.4-.4-.1-.2-.3-.3-.4-.4-.1-.2-.3-.3-.4-.4-.1-.2-.3-.3-.4-.4-.1-.2-.3-.3-.4-.4-.1-.2-.3-.3-.4-.4-.1-.2-.3-.3-.4-.4-.1-.2-.3-.3-.4-.4-.1-.2-.3-.3-.4-.4-.1-.2-.3-.3-.4-.4-.1-.2-.3-.3-.4-.4-.1-.2-.3-.3-.4-.4-.1-.2-.3-.3-.4-.4-.1-.2-.3-.3-.4-.4-.1-.2-.3-.3-.4-.4-.1-.2-.3-.3-.4-.4-.1-.2-.3-.3-.4-.4-.1-.2-.3-.3-.4-.4-.1-.2-.3-.3-.4-.4-.1-.2-.3-.3-.4-.4-.1-.2-.3-.3-.4-.4-.1-.2-.3-.3-.4-.4-.1-.2-.3-.3-.4-.4-.1-.2-.3-.3-.4-.4-.1-.2-.3-.3-.4-.4-.1-.2-.3-.3-.4-.4-.1-.2-.3-.3-.4-.4,0,0-.1-.1-.2-.2-.3-.8-.7-1.5-1.3-2.1l-.9-.9c-1.1-1.1-2.5-1.7-4-1.7h-18.5c-.3-.9-.9-1.7-1.6-2.3-.1-.2-.3-.3-.4-.4-.1-.2-.3-.3-.4-.4-.1-.2-.3-.3-.4-.4-.1-.2-.3-.3-.4-.4-.1-.2-.3-.3-.4-.4,0,0,0,0-.1-.1,2.1-3.3,3.7-7.2,3.7-11.6,0-7.3-4.5-13.5-8.7-17.5-.1-.1-.3-.3-.4-.4-.1-.1-.3-.3-.4-.4-.1-.1-.3-.3-.4-.4-.1-.1-.3-.3-.4-.4-.1-.1-.3-.3-.4-.4-.1-.1-.3-.3-.4-.4-.1-.1-.3-.3-.4-.4-.1-.1-.3-.3-.4-.4-.1-.1-.3-.3-.4-.4-.1-.1-.3-.3-.4-.4-.1-.1-.3-.3-.4-.4-.1-.1-.3-.3-.4-.4-.1-.1-.3-.3-.4-.4-.1-.1-.3-.3-.4-.4-.1-.1-.3-.3-.4-.4-.1-.1-.3-.3-.4-.4-.1-.1-.3-.3-.4-.4-.1-.1-.3-.3-.4-.4-.1-.1-.3-.3-.4-.4-.1-.1-.3-.3-.4-.4-.1-.1-.3-.3-.4-.4-.1-.1-.3-.3-.4-.4-.1-.1-.3-.3-.4-.4-.1-.1-.3-.3-.4-.4-.1-.1-.3-.3-.4-.4-.1-.1-.3-.3-.4-.4-.1-.1-.3-.3-.4-.4-.1-.1-.3-.3-.4-.4-.1-.1-.3-.3-.4-.4-.1-.1-.3-.3-.4-.4-.1-.1-.3-.3-.4-.4-.1-.1-.3-.3-.4-.4-.1-.1-.3-.3-.4-.4-.1-.1-.3-.3-.4-.4-.1-.1-.3-.3-.4-.4-.1-.1-.3-.3-.4-.4-.1-.1-.3-.3-.4-.4-.1-.1-.3-.3-.4-.4-.1-.1-.3-.3-.4-.4-.1-.1-.3-.3-.4-.4-.1-.1-.3-.3-.4-.4-.1-.1-.3-.3-.4-.4-.1-.1-.3-.3-.4-.4-.1-.1-.3-.3-.4-.4-.1-.1-.3-.3-.4-.4-.1-.1-.3-.3-.4-.4-.1-.1-.3-.3-.4-.4-.1-.1-.3-.3-.4-.4-.1-.1-.3-.3-.4-.4-.1-.1-.3-.3-.4-.4-.1-.1-.3-.3-.4-.4-.1-.1-.3-.3-.4-.4-.1-.1-.3-.3-.4-.4-.1-.1-.3-.3-.4-.4-.1-.1-.3-.3-.4-.4-.1-.1-.3-.3-.4-.4-.1-.1-.3-.3-.4-.4-.1-.1-.3-.3-.4-.4-.1-.1-.3-.3-.4-.4-.1-.1-.3-.3-.4-.4-.1-.1-.3-.3-.4-.4-.1-.1-.3-.3-.4-.4-.1-.1-.3-.3-.4-.4-.1-.1-.3-.3-.4-.4-.1-.1-.3-.3-.4-.4-.1-.1-.3-.3-.4-.4-.1-.1-.3-.3-.4-.4-.1-.1-.3-.3-.4-.4-.1-.1-.3-.3-.4-.4-.1-.1-.3-.3-.4-.4-.1-.1-.3-.3-.4-.4-.1-.1-.3-.3-.4-.4-.1-.1-.3-.3-.4-.4-.1-.1-.3-.3-.4-.4-.1-.1-.3-.3-.4-.4-.1-.1-.3-.3-.4-.4-1.2-1.8-2.6-3.6-4.2-5.3-3.6-3.7-7.1-6-7.5-6.3-.9-.6-2-.9-3.1-.9h-.9c-1.1,0-2.2.3-3.1.9-.4.3-3.9,2.6-7.5,6.3-5.3,5.5-8.1,11.5-8.1,17.3s1.3,8,3.9,12c-.3.1-.5.2-.7.4,0,0,0,0,0,0-.1-.1-.3-.3-.4-.4-.1-.1-.3-.3-.4-.4-.1-.1-.3-.3-.4-.4-.1-.1-.3-.3-.4-.4-.1-.1-.3-.3-.4-.4-.1-.1-.3-.3-.4-.4-.1-.1-.3-.3-.4-.4-.1-.1-.3-.3-.4-.4-.1-.1-.3-.3-.4-.4-.1-.1-.3-.3-.4-.4-.1-.1-.3-.3-.4-.4-.1-.1-.3-.3-.4-.4-.1-.1-.3-.3-.4-.4-.1-.1-.3-.3-.4-.4-.1-.1-.3-.3-.4-.4-.1-.1-.3-.3-.4-.4-.1-.1-.3-.3-.4-.4-.1-.1-.3-.3-.4-.4-.1-.1-.3-.3-.4-.4-.1-.1-.3-.3-.4-.4-.1-.1-.3-.3-.4-.4-.1-.1-.3-.3-.4-.4-.1-.1-.3-.3-.4-.4-.1-.1-.3-.3-.4-.4-.1-.1-.3-.3-.4-.4-.1-.1-.3-.3-.4-.4-.1-.1-.3-.3-.4-.4-.1-.1-.3-.3-.4-.4-.1-.1-.3-.3-.4-.4-.1-.1-.3-.3-.4-.4-.1-.1-.3-.3-.4-.4-.1-.1-.3-.3-.4-.4-.1-.1-.3-.3-.4-.4-.1-.1-.3-.3-.4-.4-.1-.1-.3-.3-.4-.4-.1-.1-.3-.3-.4-.4-.1-.1-.3-.3-.4-.4-.1-.1-.3-.3-.4-.4-.1-.1-.3-.3-.4-.4-.1-.1-.3-.3-.4-.4-.1-.1-.3-.3-.4-.4-.1-.1-.3-.3-.4-.4-.1-.1-.3-.3-.4-.4-.1-.1-.3-.3-.4-.4-.1-.1-.3-.3-.4-.4-.1-.1-.3-.3-.4-.4-.1-.1-.3-.3-.4-.4-.1-.1-.3-.3-.4-.4-.1-.1-.3-.3-.4-.4-.1-.1-.3-.3-.4-.4-.1-.1-.3-.3-.4-.4-.1-.1-.3-.3-.4-.4-.1-.1-.3-.3-.4-.4-.1-.1-.3-.3-.4-.4-.1-.1-.3-.3-.4-.4-.1-.1-.3-.3-.4-.4-.1-.1-.3-.3-.4-.4-1.2-1.8-2.6-3.6-4.2-5.3-3.6-3.7-7.1-6-7.5-6.3-.9-.6-2-.9-3.1-.9h-.9c-1.1,0-2.2.3-3.1.9-.4.3-3.9,2.6-7.5,6.3-5.3,5.5-8.1,11.5-8.1,17.3s1.3,8,3.9,12c-.3.1-.5.2-.7.4,0,0,0,0,0,0-.1-.1-.3-.3-.4-.4-.1-.1-.3-.3-.4-.4-.1-.1-.3-.3-.4-.4-.1-.1-.3-.3-.4-.4-.1-.1-.3-.3-.4-.4-.1-.1-.3-.3-.4-.4-.1-.1-.3-.3-.4-.4-.1-.1-.3-.3-.4-.4-.1-.1-.3-.3-.4-.4-.1-.1-.3-.3-.4-.4-.1-.1-.3-.3-.4-.4-.1-.1-.3-.3-.4-.4-.1-.1-.3-.3-.4-.4-.1-.1-.3-.3-.4-.4-.1-.1-.3-.3-.4-.4-.1-.1-.3-.3-.4-.4-.1-.1-.3-.3-.4-.4-.1-.1-.3-.3-.4-.4-.1-.1-.3-.3-.4-.4-.1-.1-.3-.3-.4-.4-.1-.1-.3-.3-.4-.4-.1-.1-.3-.3-.4-.4-.1-.1-.3-.3-.4-.4-.1-.1-.3-.3-.4-.4-.1-.1-.3-.3-.4-.4-.1-.1-.3-.3-.4-.4-.1-.1-.3-.3-.4-.4-.1-.1-.3-.3-.4-.4-.1-.1-.3-.3-.4-.4-.1-.1-.3-.3-.4-.4-.1-.1-.3-.3-.4-.4-.1-.1-.3-.3-.4-.4-.1-.1-.3-.3-.4-.4-.1-.1-.3-.3-.4-.4-.1-.1-.3-.3-.4-.4-.1-.1-.3-.3-.4-.4-.1-.1-.3-.3-.4-.4-.1-.1-.3-.3-.4-.4-.1-.1-.3-.3-.4-.4-.1-.1-.3-.3-.4-.4-.1-.1-.3-.3-.4-.4-.1-.1-.3-.3-.4-.4-.1-.1-.3-.3-.4-.4-.1-.1-.3-.3-.4-.4-.1-.1-.3-.3-.4-.4-.1-.1-.3-.3-.4-.4-.1-.1-.3-.3-.4-.4-.1-.1-.3-.3-.4-.4-.1-.1-.3-.3-.4-.4-.1-.1-.3-.3-.4-.4-.1-.1-.3-.3-.4-.4-.1-.1-.3-.3-.4-.4-.1-.1-.3-.3-.4-.4-.1-.1-.3-.3-.4-.4-.1-.1-.3-.3-.4-.4-.1-.1-.3-.3-.4-.4-.1-.1-.3-.3-.4-.4-1.2-1.8-2.6-3.6-4.2-5.3-3.6-3.7-7.1-6-7.5-6.3-.9-.6-2-.9-3.1-.9h-.9c-1.1,0-2.2.3-3.1.9-.4.3-3.9,2.6-7.5,6.3-5.3,5.5-8.1,11.5-8.1,17.3s1.3,8,3.9,12c-.7.3-1.3.7-1.8,1.2l-.3.3-.2.2-.4.4c-1.1,1.1-1.7,2.5-1.7,4v36.1h-55.4c-1.5,0-3,.6-4,1.7l-.2.2-.3.3-.3.3c-1.1,1.1-1.7,2.5-1.7,4v21.4s0,0,0,0v110.6s0,0,0,0v14.8h-3.1c-3.1,0-5.7,2.6-5.7,5.7v1.7c0,3.1,2.6,5.7,5.7,5.7h8.3c0,0,.1.1.2.2.1.2.3.3.4.4.1.2.3.3.4.4.1.2.3.3.4.4.1.2.3.3.4.4.1.2.3.3.4.4.1.2.3.3.4.4.1.2.3.3.4.4.1.2.3.3.4.4.1.2.3.3.4.4.1.2.3.3.4.4.1.2.3.3.4.4.1.2.3.3.4.4.1.2.3.3.4.4.1.2.3.3.4.4.1.2.3.3.4.4.1.2.3.3.4.4.1.2.3.3.4.4.1.2.3.3.4.4.1.2.3.3.4.4.1.2.3.3.4.4.1.2.3.3.4.4.1.2.3.3.4.4.1.2.3.3.4.4.1.2.3.3.4.4.1.2.3.3.4.4.1.2.3.3.4.4.1.2.3.3.4.4.1.2.3.3.4.4.1.2.3.3.4.4.1.2.3.3.4.4.1.2.3.3.4.4.1.2.3.3.4.4.1.2.3.3.4.4.1.2.3.3.4.4.1.2.3.3.4.4.1.2.3.3.4.4.1.2.3.3.4.4.1.2.3.3.4.4.1.2.3.3.4.4.1.2.3.3.4.4.1.2.3.3.4.4.1.2.3.3.4.4.1.2.3.3.4.4.1.2.3.3.4.4.1.2.3.3.4.4.1.2.3.3.4.4.1.2.3.3.4.4.1.2.3.3.4.4.1.2.3.3.4.4.1.2.3.3.4.4.1.2.3.3.4.4.1.2.3.3.4.4.1.2.3.3.4.4.1.2.3.3.4.4.1.2.3.3.4.4.1.2.3.3.4.4.1.2.3.3.4.4.1.2.3.3.4.4.1.2.3.3.4.4.1.2.3.3.4.4.1.2.3.3.4.4.1.2.3.3.4.4.1.2.3.3.4.4.1.2.3.3.4.4.1.2.3.3.4.4.1.2.3.3.4.4.1.2.3.3.4.4.1.2.3.3.4.4.1.2.3.3.4.4.1.2.3.3.4.4.1.2.3.3.4.4.1.2.3.3.4.4.1.2.3.3.4.4.1.2.3.3.4.4.1.2.3.3.4.4.1.2.3.3.4.4.1.2.3.3.4.4.1.2.3.3.4.4.1.2.3.3.4.4.1.2.3.3.4.4.1.2.3.3.4.4.1.2.3.3.4.4.8.9,1.9,1.5,3.1,1.8.4,0,.8.1,1.1.1h261.2s0,0,.1,0c0,0,.2,0,.2,0,0,0,.2,0,.3,0,0,0,.2,0,.3,0,0,0,.2,0,.3,0,0,0,.2,0,.3,0,0,0,.2,0,.3,0,0,0,.2,0,.3,0,0,0,.2,0,.3,0,0,0,.2,0,.3-.1,0,0,.2,0,.2-.1,0,0,.2,0,.2-.1,0,0,.2,0,.2-.1,0,0,.1-.1.2-.2,0,0,.1-.1.2-.2,0,0,.1-.1.2-.2,0,0,.1-.1.2-.2,0,0,.1-.1.2-.2,0,0,.1-.1.2-.2,0,0,.1-.2.2-.2,0,0,.1-.1.2-.2,0,0,.1-.2.2-.2,0,0,0-.1.1-.2,0,0,0-.2.1-.3,0,0,0-.1.1-.2,0,0,0-.2.1-.3,0,0,0-.2,0-.2,0-.1,0-.2,0-.3,0,0,0-.1,0-.2,0-.1,0-.2,0-.4,0,0,0-.1,0-.2,0-.2,0-.4,0-.6v-153.4c0-1.7-.7-3.2-1.9-4.2ZM60.9,191.1c4.6,3.5,10.1,5.5,16.1,5.5,8.6,0,16.5-4.3,21.8-11.3,5.3,7,13.2,11.3,21.8,11.3s16.5-4.3,21.8-11.3c5.3,7,13.2,11.3,21.8,11.3s16.5-4.3,21.8-11.3c5.3,7,13.2,11.3,21.8,11.3s16.5-4.3,21.8-11.3c5.3,7,13.2,11.3,21.8,11.3s16.5-4.3,21.8-11.3c5.3,7,13.2,11.3,21.8,11.3s11.5-2,16.1-5.5v59.2c-4.6-3.5-10.1-5.5-16.1-5.5-8.6,0-16.5,4.3-21.8,11.3-5.3-7-13.2-11.3-21.8-11.3s-16.5,4.3-21.8,11.3c-5.3-7-13.2-11.3-21.8-11.3s-16.5,4.3-21.8,11.3c-5.3-7-13.2-11.3-21.8-11.3s-16.5,4.3-21.8,11.3c-5.3-7-13.2-11.3-21.8-11.3s-16.5,4.3-21.8,11.3c-5.3-7-13.2-11.3-21.8-11.3s-11.5,2-16.1,5.5v-59.2ZM60.9,276c0-10.5,7.2-19,16.1-19s16.1,8.5,16.1,19,2.6,5.7,5.7,5.7,5.7-2.6,5.7-5.7c0-10.5,7.2-19,16.1-19s16.1,8.5,16.1,19,2.6,5.7,5.7,5.7,5.7-2.6,5.7-5.7c0-10.5,7.2-19,16.1-19s16.1,8.5,16.1,19,2.6,5.7,5.7,5.7,5.7-2.6,5.7-5.7c0-10.5,7.2-19,16.1-19s16.1,8.5,16.1,19,2.6,5.7,5.7,5.7,5.7-2.6,5.7-5.7c0-10.5,7.2-19,16.1-19s16.1,8.5,16.1,19,2.6,5.7,5.7,5.7,5.7-2.6,5.7-5.7c0-10.5,7.2-19,16.1-19s16.1,8.5,16.1,19v14.8H60.9v-14.8ZM248.3,83.3c0,4-3.8,8.2-6.9,10.9-3.1-2.7-6.9-6.9-6.9-10.9s3.8-8.2,6.9-10.9c3.2,2.8,6.9,7.1,6.9,10.9ZM234.1,107.1h14.6v30.4h-14.6v-30.4ZM192.6,83.3c0,4-3.8,8.2-6.9,10.9-3.1-2.7-6.9-6.9-6.9-10.9s3.8-8.2,6.9-10.9c3.2,2.8,6.9,7.1,6.9,10.9ZM178.5,107.1h14.6v30.4h-14.6v-30.4ZM137,83.3c0,4-3.8,8.2-6.9,10.9-3.1-2.7-6.9-6.9-6.9-10.9s3.8-8.2,6.9-10.9c3.2,2.8,6.9,7.1,6.9,10.9ZM122.8,107.1h14.6v30.4h-14.6v-30.4ZM310.7,149.8v15.7c0,10.5-7.2,19-16.1,19s-16.1-8.5-16.1-19-2.6-5.7-5.7-5.7-5.7,2.6-5.7,5.7c0,10.5-7.2,19-16.1,19s-16.1-8.5-16.1-19-2.6-5.7-5.7-5.7-5.7,2.6-5.7,5.7c0,10.5-7.2,19-16.1,19s-16.1-8.5-16.1-19-2.6-5.7-5.7-5.7-5.7,2.6-5.7,5.7c0,10.5-7.2,19-16.1,19s-16.1-8.5-16.1-19-2.6-5.7-5.7-5.7-5.7,2.6-5.7,5.7c0,10.5-7.2,19-16.1,19s-16.1-8.5-16.1-19-2.6-5.7-5.7-5.7-5.7,2.6-5.7,5.7c0,10.5-7.2,19-16.1,19s-16.1-8.5-16.1-19v-15.7h249.8Z"/></svg>