<?xml version="1.0" encoding="UTF-8"?><svg id="a" xmlns="http://www.w3.org/2000/svg" width="400" height="400" viewBox="0 0 400 400"><path d="M368.246,108.456c-1.75-16.202-33.68-50.08-48.844-55.769-25.488-9.561-68.974-.072-96.894-3.534-10.166-7.933-20.079-15.36-33.521-16.694-35.373-3.509-76.628,2.293-112.608.347-22.55,4.074-39.105,21.092-42.753,43.727,3.876,57.076-5.703,122.244-.137,178.376.897,9.051,5.61,19.354,11.179,26.482,27.014,23.056,52.202,54.783,79.456,76.766,7.602,6.132,13.13,8.378,22.971,9.11,61.224,4.556,128.002-3.58,189.817-.001,16.548-1.189,30.186-14.783,31.384-31.384l-.05-227.426ZM135.957,277.898c-1.404,5.51,1.086,11.397-2.75,15.355-8.445-6.416-20.397-24.78-30.776-26.384-12.708-1.964-30.088,4.969-34.881-12.55V78.382c2.092-7.782,7.5-11.561,15.441-12.462,31.562-3.582,69.562,2.676,101.828,0,3.618.373,8.844,2.114,11.385,4.655,1.667,1.667,2.658,4.609,3.711,6.753l.342,176.993c-7.512,26.642-58.006-1.114-64.299,23.576ZM318.077,249.397c-1.944,20.683-15.938,15.549-29.914,17.51-11.433,1.605-26.844,22.69-37.077,29.163.893-14.338-1.833-30.049-19.541-29.3-.832-.692,2.789-9.069,2.789-10.452V82.661h70.439c6.017,1.073,13.486,9.545,13.25,16.042-3.404,48.413,4.536,103.023.055,150.695Z"/><path d="M130.766,93.191c-11.439,0-21.132,1.327-29.082,3.975v29.71c8.088-3.485,18.131-5.231,30.129-5.231,5.299,0,8.892.768,10.775,2.301,1.883,1.536,2.824,4.116,2.824,7.741v13.6c0,4.466-1.327,7.464-3.975,8.997-2.651,1.536-7.323,2.301-14.018,2.301h-12.344l1.464,37.242h25.735l1.464-14.228c11.576,0,19.805-2.753,24.689-8.264,4.881-5.509,7.323-13.982,7.323-25.421v-17.575c0-23.433-14.996-35.15-44.983-35.15Z"/><path d="M129.825,209.521c-11.648,0-17.471,5.476-17.471,16.424s5.822,16.424,17.471,16.424,17.47-5.472,17.47-16.424-5.826-16.424-17.47-16.424Z"/><polygon points="284.858 198.056 287.957 125.081 263.167 125.081 266.266 198.056 284.858 198.056"/><path d="M275.795,209.676c-8.626,0-12.937,4.055-12.937,12.162s4.311,12.162,12.937,12.162,12.937-4.052,12.937-12.162-4.314-12.162-12.937-12.162Z"/></svg>