<?xml version="1.0" encoding="UTF-8"?><svg id="a" xmlns="http://www.w3.org/2000/svg" viewBox="0 0 115 115"><defs><style>.b{fill:#090909;}</style></defs><path class="b" d="M93.7,39.7c-6.9-5.9-14.2-12.4-23-20.5-3.3-3-6.9-4.3-11.4-4.2-6.2.1-12.5,0-18.6,0-2.5,0-4.9,0-7.4,0s-1.5,0-2.2,0c-9.6,0-13.8,4.3-13.9,13.9,0,6.1,0,12.2,0,18.3v8c0,2.8,0,5.6,0,8.5,0,6.3,0,12.9,0,19.3.1,8.7,8.5,17,17.1,17,15.5,0,32,0,53.5,0,7.6,0,10.1-2.4,10.1-10,0-5,0-10.1,0-15.1,0-8.4,0-17,0-25.6,0-4.1-1.3-7-4.3-9.6ZM66.6,55.1c0,1.8,0,3.6,0,5.6,0,.9,0,1.7,0,2.7v1H23.9v-18h12.2l.3.3c2.4,2.7,5.8,4.2,9.3,4.1,3.1-.1,5.8-1.5,7.7-4l.3-.4h12.1l.3.6c.8,2,.7,3.9.6,5.8,0,.8,0,1.5,0,2.3ZM23.6,26.6c0-3.1,1.8-4.9,4.9-5.1,1.7,0,3.5,0,5.2,0,.7,0,1.4,0,2.1,0h.5l.3.4c2,2.6,5,4,8.3,4.1,0,0,0,0,.1,0,3.3,0,6.5-1.5,8.6-4.1l.3-.4h.5c.6,0,1.3,0,1.9,0,1.5,0,3,0,4.5,0,4.3.2,5.6,1.5,5.8,5.7,0,2.5,0,5,0,7.7,0,1.2,0,2.4,0,3.6v1H23.6v-4.6c0-2.8,0-5.5,0-8.3ZM66.6,82.1c0,.8,0,1.6,0,2.5,0,3-2,4.8-5.2,4.9-6.1,0-11.6,0-16.6,0s-10.9,0-16,0c-3.3,0-5.2-2-5.2-5.4,0-2.6,0-5.2,0-8v-4.8h12.8l.3.4c2,2.5,5.1,4,8.3,4,3.3,0,6.4-1.4,8.5-4l.3-.4h.5c3.6,0,7.2,0,11,0h.8v.8c.7,3.4.6,6.8.5,10Z"/></svg>