<?xml version="1.0" encoding="UTF-8"?><svg id="a" xmlns="http://www.w3.org/2000/svg" viewBox="0 0 115 115"><defs><style>.b{fill:#070707;}.c{fill:#060606;}.d{fill:#0c0c0c;}</style></defs><path class="b" d="M98.7,71.3c0,5.6,0,11.2,0,16.8,0,7.6-3,10.6-10.4,10.6-11.2,0-22.4,0-33.6,0-3.7,0-6.6-1.1-9.2-3.8-6.3-6.5-12.9-12.8-19.2-19.2-13.4-13.7-13.4-35.3,0-48.9,13.5-13.8,35.4-14.1,49.3-.7,6.6,6.4,13,13.1,19.6,19.5,2.5,2.5,3.7,5.3,3.6,8.8,0,5.6,0,11.2,0,16.8ZM24.6,48.9c0,19.4,15.5,31.9,32,28.5,8.8-1.8,15-7,19-15,.4-.8.5-2.2,1.9-1.7,1,.3.6,1.4.7,2.1.5,6.9,4,11.6,10.1,14.6,2.4,1.2,4.3.6,5.5-1.4,1.3-2.1.9-4.5-1.4-5.5-5.1-2.4-6.5-6.6-6.3-11.7,0-1.3-.3-2.6-.5-3.9-2.1-12-9.8-19.7-19.6-25.9-8.8-5.5-18-6.1-27.2-1.2-9.4,5-14,13-14.2,21.2Z"/><path class="d" d="M67.7,45.2c3.4,0,6.3,2.8,6.3,6.2,0,3.1-2.8,5.9-5.9,6.1-3.3.2-6.4-2.6-6.5-6-.1-3.3,2.7-6.2,6.1-6.3Z"/><path class="d" d="M57.4,67.9c0,3.3-3.2,6.2-6.4,6.1-3.2-.2-5.8-2.9-5.8-6.1,0-3.4,2.8-6.3,6.2-6.3,3.3,0,6.2,3,6.1,6.4Z"/><path class="c" d="M57.4,34.5c.1,3.3-2.3,6-5.7,6.3-3.6.3-6.4-2.2-6.6-5.8-.1-3.3,2.3-6.1,5.6-6.3,3.5-.2,6.5,2.4,6.6,5.8Z"/><path class="c" d="M40.8,51.2c0,3.5-2.8,6.3-6.3,6.2-3.3-.1-5.8-2.8-5.9-6.1,0-3.5,2.7-6.2,6.3-6.1,3.4,0,5.8,2.6,5.8,6Z"/></svg>