<?xml version="1.0" encoding="UTF-8"?><svg id="a" xmlns="http://www.w3.org/2000/svg" viewBox="0 0 400 400"><path d="M334.5,148.8c-.8-9.1-3.9-14.9-11.5-21.4-17.8-15.2-73.3-54.7-94.5-60.4-25.7-6.9-47-2.7-63.4,12.6,0,0-.2.3-.4,1.6l-.3,2.1h-6s-.7-1.2-.7-1.2c-6.3-10.7-23.5-17.4-36.5-18.4-21.5-1.5-42.7,5.8-59.7,20.7-17.6,15.3-28.5,37-29.9,59.4-1.4,21.9-.8,45-.1,67.4.6,20.5,1.2,41.6.2,61.9,2.1,22.8,18.6,46.8,49.1,71.4,5.3,4.3,10,6.5,15.2,7.2l213.4.2c12.5-1,23.2-11.2,25-23.9-1.8-27.8-.7-57.3.3-86,1.1-31.3,2.3-63.6-.3-93.3ZM124.1,306.3c-6,4.6-13.3,7-21.3,7-3.3,0-6.7-.4-10.2-1.2-13.9-3.3-26.5-13.1-32.1-25-6.4-13.4-5.9-59.4-4.6-72.8,1.3-13.1,21.5-40.6,30.1-49.1.1-.1,12.8-11.9,15.9-12.1,2.5-.2,6.2,1.4,15,14.7,4.9,7.6,9.3,15.7,10.5,18.4,6.5,15.4,5.3,26.4,4.1,38.1-.7,6.7-1.4,13.6-.9,22,.3,4.6,1.3,9.5,2.3,14.7,3.1,15.7,6.6,33.6-8.7,45.4ZM147.5,143.8c-.5,4.2-.9,8.1-1.1,11.7v1.8c0,0-1.9.4-1.9.4-1.1.3-4.3,1.1-5.4-2.4,0,0,0,0,0-.1-1-1.3-2.1-2.8-3.4-4.5-8.9-12-23.8-32-36.8-27.3-11.2,4-27,19.3-38,32.3l-3.4,4-1-5.1c-3.5-17.8,5.3-38.5,22.3-52.7,16.1-13.4,35.1-17.6,50.9-11.4,22.6,8.9,19.9,33.5,17.7,53.3ZM183,155.2s0,0,0,.1c-1.1,3.4-4.3,2.6-5.4,2.4l-1.7-.4-.2-1.7c-.2-1.7-.4-3.6-.6-5.5-2.1-17.2-4.7-38.6,5.5-51.6,4.6-5.8,11.3-9.3,20-10.3,16.6-2,33.7,4.3,46.8,17.2,13.5,13.3,20.5,31.6,18.8,48.9l-.6,5.7-3.8-4.3c-11.9-13.5-33.1-33.4-43.5-33.4s-.2,0-.3,0c-10.4.3-24.6,19.1-32.2,29.2-1,1.4-2,2.6-2.8,3.7ZM261.6,287c-5.6,11.8-17.6,21.3-31.3,24.8-3.7,1-7.4,1.4-10.9,1.4-7.6,0-14.7-2.2-20.6-6.4-16.3-11.6-12.7-29.8-9.5-45.9,1-5.3,2-10.2,2.3-14.8.5-7.7-.2-14.7-.9-21.4-1.2-11.7-2.3-22.7,2.9-36.1,4.8-12.6,13.8-25.6,24-35l.5-.5h.7c3.7-.9,13.7,8.4,14.9,9.5,5.3,4.9,13.1,14.6,19.5,24.1,5.6,8.3,12.4,19.8,13.1,27.5,1.3,13.5,1.8,59.4-4.6,72.8Z"/></svg>