<?xml version="1.0" encoding="UTF-8"?><svg id="a" xmlns="http://www.w3.org/2000/svg" viewBox="0 0 115 115"><path d="M22.5,68.8c-.6,0-1.2,0-1.8,0-5.3,0-6,.8-6,6.1,0,3.3,0,6.5,0,9.8v3.7c0,7.4,4.5,11.9,11.9,11.9,19,0,39.4,0,64.4,0,6.5,0,9.2-2.6,9.2-9,0-10.3,0-20.8,0-31,0-4.3,0-8.6,0-12.9s-2.2-9.6-6.7-12.7c-3.7-2.5-7.4-5.1-11.1-7.6-5-3.4-10.1-7-15.2-10.4-1.5-1-3.4-1.7-5-1.8-2.9-.2-5.9-.1-8.9-.1-1.7,0-3.4,0-5.1,0-1.6,0-2.7.3-3.5,1-.7.7-1.1,1.9-1.1,3.4,0,3.7,0,7.4,0,11v2.9c0,3.9,0,6,.8,7,.8,1,2.9,1.5,6.6,2.5l.8.2v9.5s-6.3,0-6.3,0c-4,0-7.9,0-11.8,0q-6.5,0-6.5,6.3c0,1.9,0,3.8,0,5.9v4.3s-3.2,0-3.2,0c-.6,0-1.1,0-1.6,0ZM89.3,75.7v13.7h-17.9v-13.7h17.9ZM76.9,58.9v9.5h-18.2v-9.5h18.2ZM50.7,35.2v-13.8h9.6v13.8h-9.6ZM64.4,75.6v13.8h-17.9v-13.8h17.9ZM33.7,58.9h18.2v9.6h-18.2v-9.6ZM39.5,75.8v13.5h-18v-13.5h18Z"/></svg>