<?xml version="1.0" encoding="UTF-8"?><svg id="a" xmlns="http://www.w3.org/2000/svg" width="400" height="400" viewBox="0 0 400 400"><path d="M183.61,78.021l95.491.241c8.869,1.043,17.622,4.026,24.671,9.541,8.217,6.43,37.147,37.335,42.751,45.892,3.074,4.694,4.825,10.623,5.301,16.213,4.749,55.749-3.862,118.342-.265,174.814-2.397,14.824-13.346,25.869-28.484,27.235-58.683,5.298-125.452-4.334-184.99-.25-8.436-.694-16.76-4.189-22.062-10.879-17.379-29.287-46.734-58.826-62.192-88.474-3.225-6.186-5.538-12.088-6.139-19.172,2.9-48.684-3.482-101.323.186-149.534,1.356-17.816,14.287-33.698,32.535-35.854,16.074-1.9,58.355-1.834,74.436.097,15.786,1.896,25.722,15.429,28.76,30.128ZM279.016,108.701l-200.722-.262-.163,124.739c-.007,5.3,8.924,12.548,14.546,12.051l182.41.285c8.249.09,15.236-6.431,15.799-14.593-2.359-34.212,3.3-72.737.189-106.424-.625-6.769-4.91-14.512-12.059-15.797Z"/></svg>