<?xml version="1.0" encoding="UTF-8"?><svg id="a" xmlns="http://www.w3.org/2000/svg" viewBox="0 0 115 112"><path d="M59.3,54.1c-.5,0-1,0-1.4.2.5-.1,1-.2,1.4-.2h0Z"/><path d="M58.3,54c.2.2.4.4.6.5t0,0c-.2-.2-.4-.3-.6-.5Z"/><path d="M58.9,52.9c-.3.8-.5,1.7-.5,2.6h0c0-.9.2-1.8.5-2.6Z"/><path d="M58.6,53.8c0,.3,0,.5,0,.8,0-.3,0-.5,0-.8h0Z"/><path d="M100,35c0-2.2-1.1-4.2-2.7-5.6-.3-.4-.6-.7-1-1-.3-.4-.6-.7-1-1-.3-.4-.6-.7-1-1-.3-.4-.6-.7-1-1-.3-.4-.6-.7-1-1-.3-.4-.6-.7-1-1-.3-.4-.6-.7-1-1-.3-.4-.6-.7-1-1-.3-.4-.6-.7-1-1-.3-.4-.6-.7-1-1-.3-.4-.6-.7-1-1-.3-.4-.6-.7-1-1-.3-.4-.6-.7-1-1-.3-.4-.6-.7-1-1h0s0,0,0,0c-.2-.2-.3-.4-.5-.5,0,0-.1-.1-.2-.2-.1-.1-.2-.2-.4-.3,0,0-.2-.1-.2-.2-.1,0-.2-.2-.4-.3,0,0-.2-.1-.3-.2-.1,0-.3-.1-.4-.2,0,0-.2,0-.3-.1-.1,0-.3-.1-.4-.2,0,0-.2,0-.3-.1-.1,0-.3,0-.4-.1,0,0-.2,0-.3,0-.2,0-.3,0-.5,0,0,0-.2,0-.3,0-.3,0-.5,0-.8,0h0s-53.4,0-53.4,0h0c-.5,0-1,0-1.4.2-.5.1-.9.3-1.3.4-1.1.5-2,1.2-2.8,2.1-.3.4-.6.7-.8,1.1-.1.3-.3.5-.4.8-.3.8-.5,1.7-.5,2.6h0v53.4h0c0,.3,0,.5,0,.8,0,0,0,.2,0,.2,0,.2,0,.3,0,.5,0,0,0,.2,0,.3,0,.2,0,.3.1.5,0,0,0,.2.1.3,0,.1.1.3.2.4,0,0,0,.2.1.3,0,.1.1.3.2.4,0,0,0,.2.2.2,0,.1.2.3.3.4,0,0,.1.1.2.2.1.1.2.3.4.4,0,0,0,0,.1.1.2.2.4.4.6.5t0,0c.3.4.6.7,1,1,.3.4.6.7,1,1,.3.4.6.7,1,1,.3.4.6.7,1,1,.3.4.6.7,1,1,.3.4.6.7,1,1,.3.4.6.7,1,1,.3.4.6.7,1,1,.3.4.6.7,1,1,.3.4.6.7,1,1,.3.4.6.7,1,1,.3.4.6.7,1,1,.3.4.6.7,1,1,.3.4.6.7,1,1,1.3,1.6,3.3,2.6,5.6,2.7h0s53.4,0,53.4,0h0c4-.1,7.2-3.3,7.3-7.3h0v-53.4h0ZM68.1,22.7c3.9,0,7,3.1,7,7s-3.2,7-7,7-7-3.1-7-7,3.1-7,7-7ZM68.1,56.6c3.9,0,7,3.1,7,7s-3.2,7-7,7-7-3.1-7-7,3.1-7,7-7ZM34.1,22.7c3.9,0,7,3.2,7,7s-3.2,7-7,7-7-3.1-7-7,3.1-7,7-7ZM34.1,56.3c3.9,0,7,3.2,7,7s-3.2,7-7,7-7-3.1-7-7,3.1-7,7-7Z"/></svg>