<?xml version="1.0" encoding="UTF-8"?><svg id="a" xmlns="http://www.w3.org/2000/svg" viewBox="0 0 400 400"><defs><style>.b{fill:none;}</style></defs><path class="b" d="M104,190.6c-.8-2.5-8.3-2.4-9.3-.3-.3.6-.6,3.7-.7,4.6-.4,4.8-.7,17.6.1,22,.7,4,7.4,4.2,9.4,2.2,1.5-1.6.2-24.5.5-28.3Z"/><polygon class="b" points="135.5 125.5 131.9 143.8 139.6 143.8 135.5 125.5"/><path class="b" d="M230,188.9c-2-.4-4.8.3-7,0v13.9c3.3-.3,8.1,1.5,8.6-3.1.3-2.1.7-10.4-1.7-10.8Z"/><path class="b" d="M270.9,97.5c-2.3-4.2-6.6-6.8-11.4-6.8H70.6c-7.1,0-12.9,5.8-12.9,12.9v132.2c0,2.1.5,4.3,1.6,6.2.3.5.6,1,.9,1.5.7.9,1.5,1.8,2.4,2.5,1.4,1.1,2.9,1.9,4.6,2.4,1.1.3,2.3.5,3.5.5h188.9c7.1,0,12.9-5.8,12.9-12.9V103.6c0-1.4-.2-2.7-.6-4-.2-.7-.6-1.5-.9-2.2ZM163.6,114.5h13.4l10.3,25,10.3-25h13.4v49.9h-12l.5-29.3-7.4,16.3h-9.9c0,.1-6.9-16.4-6.9-16.4l.2,29.3h-12v-49.9ZM126.6,114.5h17.5c0,0,12.2,49.9,12.2,49.9h-12.5l-2.4-11.5h-10.8c0,0-.8.5-.8.5l-2.3,10.9h-12.5l11.5-49.9ZM74.8,153.6c-.7-6.6-.7-21.2,0-27.8,1.1-11,15.1-12.3,23.7-11.8,2.5.1,6.3.5,8.4,1.7v9.8c-5-.8-12.6-2.9-17.3-.3-1.7,1-1.7,2-1.9,3.9-.6,7.3.2,15.8.3,23.2.9,3.3,6.5,3.1,8.8,1.8v-16.6h12.5v24.5c-9.5,3.9-33.1,5.8-34.5-8.4ZM116.7,220.9c-3.1,12.7-33.1,12.3-35.2-.7-.7-4.3-.7-28.4.2-32.4,1.1-5.3,7.7-8.4,12.6-9,7.9-.9,21.3.2,22.6,10.2.6,4.7.7,27.7-.3,31.8ZM152.7,229.2h-17.9c0,0-11.1-49.9-11.1-49.9h13l7.4,38.9,6.5-38.9h13.4l-11.3,49.9ZM201.5,188.9h-17.3v10.6h14.9v8.9l-.7.7h-14.2v10.3l.7.7h16.6v9.1h-30.2v-49.9h30.2v9.6ZM232.2,229.2l-7.3-17.7h-1.9c0,0,0,17.7,0,17.7h-13v-49.9c7,.5,14.9-.7,21.8,0,8,.8,12.2,4.1,12.7,12.2.5,7.1.9,16.5-7.2,19.2l9.1,18.5h-14.4ZM251.9,124.1h-17.3v10.1h14.9v9.6h-14.4l-.5,11h17.3v9.6h-29.8v-49.9h29.8v9.6Z"/><path d="M347.7,162.6c-.3-.3-.5-.6-.8-.8-.3-.3-.5-.5-.8-.8-.3-.3-.5-.5-.8-.8-.3-.3-.5-.6-.8-.8-.3-.3-.5-.5-.8-.8-.3-.3-.5-.5-.8-.8-.3-.3-.5-.6-.8-.8-.3-.3-.5-.6-.8-.8-.3-.3-.5-.5-.8-.8-.3-.3-.5-.5-.8-.8-.3-.3-.5-.6-.8-.8-.3-.3-.5-.5-.8-.8-.3-.3-.5-.6-.8-.8-.3-.3-.5-.6-.8-.8-.3-.3-.5-.5-.8-.8-.3-.3-.5-.5-.8-.8-.3-.3-.5-.6-.8-.8-.3-.3-.5-.5-.8-.8-.3-.3-.5-.6-.8-.8-.3-.3-.5-.5-.8-.8-.3-.3-.5-.5-.8-.8-.3-.3-.5-.6-.8-.8-.3-.3-.5-.5-.8-.8-.3-.3-.5-.6-.8-.8-.3-.3-.5-.6-.8-.8-.3-.3-.5-.5-.8-.8-.3-.3-.5-.5-.8-.8-.3-.3-.5-.6-.8-.8-.3-.3-.5-.6-.8-.8-.3-.3-.5-.5-.8-.8-.3-.3-.5-.5-.8-.8-.3-.3-.5-.6-.8-.8-.3-.3-.5-.5-.8-.8-.3-.3-.5-.6-.8-.8-.3-.3-.5-.6-.8-.8-.3-.3-.5-.5-.8-.8-.3-.3-.5-.5-.8-.8-.3-.3-.5-.6-.8-.8-.3-.3-.5-.5-.8-.8-.3-.3-.5-.5-.8-.8-.3-.3-.5-.5-.8-.8-.3-.3-.5-.6-.8-.8-.3-.3-.5-.5-.8-.8-.3-.3-.5-.5-.8-.8-.3-.3-.5-.6-.8-.8-.3-.3-.5-.5-.8-.8-.3-.3-.5-.6-.8-.8-.3-.3-.5-.6-.8-.8-.3-.3-.5-.6-.8-.8-.3-.3-.5-.5-.8-.8-.3-.3-.5-.5-.8-.8-.3-.3-.5-.6-.8-.8-.3-.3-.5-.5-.8-.8-.3-.3-.5-.5-.8-.8-.3-.3-.5-.6-.8-.8-.3-.3-.5-.5-.8-.8-.3-.3-.5-.6-.8-.8-.3-.3-.5-.6-.8-.8-.3-.3-.5-.5-.8-.8-.3-.3-.5-.5-.8-.8-.3-.3-.5-.6-.8-.8-.3-.3-.5-.6-.8-.8-.3-.3-.5-.5-.8-.8-.3-.3-.5-.5-.8-.8-.3-.3-.5-.6-.8-.8-.3-.3-.5-.5-.8-.8-.3-.3-.5-.6-.8-.8-.3-.3-.5-.6-.8-.8-.3-.3-.5-.5-.8-.8-.3-.3-.5-.5-.8-.8-.3-.3-.5-.6-.8-.8-.3-.3-.5-.6-.8-.8-.3-.3-.5-.5-.8-.8-.3-.3-.5-.5-.8-.8-.3-.3-.5-.6-.8-.8-.3-.3-.5-.5-.8-.8-.3-.3-.5-.5-.8-.8-.3-.3-.5-.6-.8-.8-.3-.3-.5-.5-.8-.8-.3-.3-.5-.6-.8-.8-.3-.3-.5-.6-.8-.8-.3-.3-.5-.5-.8-.8-.2-.2-.4-.4-.6-.6-3.4-8.3-11.7-13.8-20.7-13.8H70.6c-9.9,0-18.8,6.7-21.5,16.2-1,2.6-1.5,5.2-1.5,8v132.2c0,6.1,2.5,12,7,16.2.3.3.5.5.8.8.3.3.5.6.8.8.3.3.5.5.8.8.3.3.5.6.8.8.3.3.5.6.8.8.3.3.5.5.8.8.3.3.5.5.8.8.3.3.5.6.8.8.3.3.5.6.8.8.3.3.5.5.8.8.3.3.5.6.8.8.3.3.5.5.8.8.3.3.5.5.8.8.3.3.5.6.8.8.3.3.5.6.8.8.3.3.5.5.8.8.3.3.5.6.8.8.3.3.5.6.8.8.3.3.5.5.8.8.3.3.5.5.8.8.3.3.5.6.8.8.3.3.5.5.8.8.3.3.5.5.8.8.3.3.5.6.8.8.3.3.5.6.8.8.3.3.5.6.8.8.3.3.5.6.8.8.3.3.5.6.8.8.3.3.5.5.8.8.3.3.5.5.8.8.3.3.5.6.8.8.3.3.5.6.8.8.3.3.5.5.8.8.3.3.5.6.8.8.3.3.5.6.8.8.3.3.5.5.8.8.3.3.5.6.8.8.3.3.5.6.8.8.3.3.5.5.8.8.3.3.5.5.8.8.3.3.5.6.8.8.3.3.5.6.8.8.3.3.5.5.8.8.3.3.5.6.8.8.3.3.5.6.8.8.3.3.5.5.8.8.3.3.5.6.8.8.3.3.5.6.8.8.3.3.5.6.8.8.3.3.5.6.8.8.3.3.5.6.8.8.3.3.5.5.8.8.3.3.5.6.8.8.3.3.5.6.8.8.3.3.5.6.8.8.3.3.5.5.8.8.3.3.5.6.8.8.3.3.5.6.8.8.3.3.5.5.8.8.3.3.5.6.8.8.3.3.5.6.8.8.3.3.5.5.8.8.3.3.5.6.8.8.3.3.5.6.8.8.3.3.5.6.8.8.3.3.5.5.8.8.3.3.5.6.8.8.3.3.5.6.8.8.3.3.5.5.8.8.3.3.5.6.8.8.3.3.5.6.8.8.3.3.5.5.8.8.3.3.5.6.8.8.3.3.5.6.8.8.3.3.5.5.8.8.3.3.5.5.8.8.3.3.5.6.8.8.3.3.5.6.8.8.3.3.5.5.8.8.3.3.5.6.8.8.3.3.5.6.8.8.3.3.5.5.8.8.3.3.5.6.8.8.3.3.5.6.8.8.3.3.5.5.8.8.3.3.5.6.8.8.3.3.5.6.8.8.3.3.5.5.8.8.3.3.5.5.8.8,4.2,4.4,10.1,7,16.2,7h188.9c12.3,0,22.4-10,22.4-22.4v-132.2c0-6.1-2.5-12-7-16.2ZM272.5,235.9c0,7.1-5.8,12.9-12.9,12.9H70.6c-1.2,0-2.4-.2-3.5-.5-1.7-.5-3.2-1.3-4.6-2.4-.9-.7-1.7-1.5-2.4-2.5-.3-.5-.6-.9-.9-1.5-1-1.9-1.6-4-1.6-6.2V103.6c0-7.1,5.8-12.9,12.9-12.9h188.9c4.7,0,9.1,2.6,11.4,6.8.4.7.7,1.4.9,2.2.4,1.3.6,2.6.6,4v132.2Z"/><polygon points="175.3 135.1 182.2 151.6 192.2 151.5 199.6 135.1 199.1 164.4 211.1 164.4 211.1 114.5 197.6 114.5 187.3 139.5 177 114.5 163.6 114.5 163.6 164.4 175.6 164.4 175.3 135.1"/><path d="M244.7,191.5c-.5-8.1-4.7-11.4-12.7-12.2-6.9-.7-14.8.5-21.8,0v49.9h13v-17.8h1.9c0,0,7.3,17.8,7.3,17.8h14.4l-9.1-18.5c8.1-2.7,7.7-12.1,7.2-19.2ZM231.7,199.7c-.5,4.6-5.3,2.8-8.6,3.1v-13.9c2.1.3,5-.4,7,0,2.4.4,1.9,8.7,1.7,10.8Z"/><path d="M94.4,178.9c-4.9.6-11.5,3.6-12.6,9-.8,4-.9,28.1-.2,32.4,2,12.9,32.1,13.4,35.2.7,1-4.1.9-27.1.3-31.8-1.4-10-14.7-11.2-22.6-10.2ZM103.5,219c-1.9,2-8.6,1.9-9.4-2.2-.8-4.4-.5-17.2-.1-22,0-.9.5-4,.7-4.6,1-2.1,8.5-2.2,9.3.3-.4,3.8,1,26.7-.5,28.3Z"/><path d="M129.8,153.5l.8-.6h10.8c0,0,2.4,11.5,2.4,11.5h12.5l-12.2-49.9h-17.5c0,0-11.5,49.9-11.5,49.9h12.5l2.3-10.9ZM135.5,125.5l4.1,18.2h-7.7l3.6-18.2Z"/><polygon points="144.1 218.1 136.7 179.3 123.7 179.3 134.8 229.1 152.7 229.2 164 179.3 150.6 179.3 144.1 218.1"/><path d="M109.3,162v-24.5h-12.5v16.6c-2.3,1.3-7.9,1.5-8.8-1.8-.1-7.4-1-15.9-.3-23.2.2-1.8.2-2.9,1.9-3.9,4.7-2.6,12.3-.5,17.3.3v-9.8c-2.1-1.1-5.9-1.5-8.4-1.7-8.7-.5-22.6.8-23.7,11.8-.7,6.6-.7,21.2,0,27.8,1.4,14.3,25,12.3,34.5,8.4Z"/><polygon points="171.2 229.2 201.5 229.2 201.5 220.1 184.9 220.1 184.2 219.3 184.2 209 198.4 209 199.1 208.3 199.1 199.4 184.2 199.4 184.2 188.9 201.5 188.9 201.5 179.3 171.2 179.3 171.2 229.2"/><polygon points="222.1 164.4 251.9 164.4 251.9 154.8 234.6 154.8 235.1 143.8 249.5 143.8 249.5 134.2 234.6 134.2 234.6 124.1 251.9 124.1 251.9 114.5 222.1 114.5 222.1 164.4"/></svg>