<?xml version="1.0" encoding="UTF-8"?><svg id="a" xmlns="http://www.w3.org/2000/svg" viewBox="0 0 400 400"><defs><style>.b{fill:none;}.c{fill:#070707;}</style></defs><path class="b" d="M288.3,185.7c3.5-2,7.4-4.2,9.2-9.2l.5-1.3-.4-1.3c-.4-1.5-.8-2.9-1.1-4.4-1.6-6.5-3.4-13.2-7.5-19.3l-.8-1.2-1.4-.4c-3.8-1.2-7.4-1-10.6-.7-2.6.2-4.9.4-6.9-.2l-11.9-16.6,6.2-17-1.8-1.9c-7.4-7.7-14.5-12.8-22.3-16.1l-1.7-.7-1.7.7c-3.3,1.4-5.8,3.6-8.1,5.6-2.1,1.9-3.9,3.5-6.1,4.2l-19.6-6.7c-.5-1.3-.9-2.8-1.2-4.5-.8-3.7-1.9-8.4-6-12.3l-1-.9-1.3-.2c-8.3-1.2-17.2-2.1-26.5,1.2l-2.1.7-4.7,16.2-20.2,6.3c-1.8-1-3.2-2.4-4.8-3.8-2.7-2.5-5.8-5.2-10.5-6.1l-1.6-.3-1.4.9c-1.1.7-2.2,1.3-3.3,2h-.2c-6.5,4-13.3,7.9-17.5,15.3l-.7,1.3.2,1.4c.4,3.1,1.6,5.8,2.6,8.2,1.1,2.5,2,4.7,2.1,7.1l-11.7,15.9c-2,.5-4,.3-6.4.1-3.8-.3-8.5-.7-12.9,2.4l-1,.7-1.1,2.5c-3.3,7.2-6.7,14.6-6.2,24.1v2.1c0,0,13.6,9.6,13.6,9.6v21.3c-1.3,1.2-2.8,2.1-4.5,3.1-3.2,1.9-6.8,4.2-9.2,8.6l-.8,1.4.8,4c1.6,7.6,3.2,15.6,9,22.3l.7.8,1.1.4c3.8,1.4,7.2.9,10.3.4,2.5-.4,4.6-.7,6.5,0l12,16.8c-.2,1.8-1,3.6-1.9,5.6-1.5,3.3-3.1,7-2.6,11.6l.2,1.3.9,1c6.4,7.4,14.3,12,20.5,15.1l1.3.7,1.4-.3c4.4-.8,7.5-3.4,10.1-5.7,2-1.7,3.7-3.2,5.8-3.8l17.5,5.7c2.4,2.2,3,4.7,3.8,7.8.8,3.5,1.8,7.4,5.6,10.4l1.1.9h1.4c1.4,0,2.9.1,4.3.2h.5c2.7.1,5.4.3,8.1.3,4.5,0,8.2-.4,11.5-1.1l1.3-.3.9-1c3.1-3.4,3.9-7.3,4.7-10.7.5-2.5,1-4.7,2.3-6.3l19.6-6,14,10.7,2.3-1c9.4-4.1,16.8-9.5,21.9-15.9l.8-1v-1.3c.6-4.7-1.2-8.5-2.6-11.6-1-2.2-1.8-4-1.8-5.7l12.7-16.9c1.7-.3,3.4,0,5.5.2,3.5.5,8,1,12.7-1.4l1.4-.7.6-1.4c2.7-6.3,6.4-15,7.5-24.1l.2-1.7-1-1.4c-2.5-3.3-5.9-5.3-8.6-6.8-2.2-1.3-4-2.3-5-3.6v-20.9c1.3-1.5,3.1-2.5,5.1-3.6ZM165.9,261.9l-2.9-.5c-15.4-2.5-28.7-11.3-37.3-24.9-10.5-16.5-12.9-38-6.6-58.8l1-3.3,32.1,22v1.3c.1,10.1,4.2,18.3,12.9,25.8l.9.7v37.5ZM191.3,173.2c-8.1-2.2-16.1-1.2-23.6.1l-1,.2-30.3-21.4,1.9-2.1c9.1-10,24.5-16.1,41-16.5,16.9-.4,33,5.4,43,15.5l2.1,2.1-32,22.3-1.1-.3ZM239.2,231.5c-8.8,16.4-24.3,27.8-42.3,31.3l-3,.6v-38.5l.9-.8c9.2-7.5,13.7-16.6,13.5-26.9v-1.3s32.3-22.6,32.3-22.6l1.2,2.9c7.5,18.1,6.5,38.3-2.7,55.3Z"/><path class="c" d="M330.9,201.3v-4.7c0-12.5,0-25,0-37.5,0-10.1-3.1-17.6-9.4-23l-12-10.3c-15.4-13.2-31.2-26.9-47.2-40-10.9-8.9-22.9-16.1-37.2-8.3l-2.9,1.6-2.2-2.5c-10.5-11.6-24.2-18-38.7-18.1h-.3c-14.4,0-28.1,6.2-38.6,17.6l-1.7,1.8-2.4-.6c-13.1-3.2-26.6-.8-37.9,6.8-12.6,8.4-21.3,22.4-23.8,38.6l-.4,2.4-2.2.9c-12,4.8-21.2,14.6-26,27.8-5.3,14.8-4,31.1,3.6,44.9l1.2,2.2-1.4,2.1c-7.2,11.1-8.9,25.3-4.6,39,4.6,14.7,15.2,26.5,29.1,32.2l3,1.2-.4,3.2c-1.3,10,1.8,18.5,9.8,26.5,11.5,11.6,23.2,24,35.7,37.9,7,7.8,15.4,11.6,25.7,11.6,5.3,0,10.5,0,15.8,0,10.2,0,20.4,0,30.6,0h6.1c35.5,0,67.6,0,99.7-.2,19.6-.2,28.7-9.5,28.9-29.2.3-41.3.2-83.3.2-123.9ZM288.2,213.8c2.7,1.6,6.1,3.5,8.6,6.8l1,1.4-.2,1.7c-1,9.1-4.8,17.8-7.5,24.1l-.6,1.4-1.4.7c-4.8,2.4-9.2,1.8-12.7,1.4-2-.3-3.8-.5-5.5-.2l-12.7,16.9c0,1.7.8,3.5,1.8,5.7,1.4,3.1,3.2,6.9,2.7,11.6v1.3c-.1,0-.9,1-.9,1-5.1,6.4-12.5,11.8-21.9,15.9l-2.3,1-14-10.7-19.6,6c-1.3,1.6-1.8,3.8-2.3,6.3-.7,3.4-1.6,7.3-4.7,10.7l-.9,1-1.3.3c-3.3.8-7,1.1-11.5,1.1s-5.5-.1-8.1-.2h-.5c-1.4,0-2.9-.2-4.3-.2h-1.4s-1.1-.9-1.1-.9c-3.8-3-4.7-7-5.6-10.4-.8-3.1-1.4-5.6-3.8-7.8l-17.5-5.7c-2.1.6-3.9,2.1-5.8,3.8-2.7,2.3-5.7,4.9-10.1,5.7l-1.4.3-1.3-.7c-6.2-3.2-14.1-7.8-20.5-15.1l-.9-1-.2-1.3c-.5-4.5,1.1-8.3,2.6-11.6.9-2,1.7-3.9,1.9-5.6l-12-16.8c-2-.7-4-.4-6.5,0-3.1.4-6.5.9-10.3-.4l-1.1-.4-.7-.8c-5.7-6.7-7.4-14.7-9-22.3l-.8-4,.8-1.4c2.4-4.4,6-6.6,9.2-8.6,1.7-1,3.2-2,4.5-3.1v-21.3l-13.5-9.6v-2.1c-.6-9.5,2.8-17,6.1-24.1l1.1-2.5,1-.7c4.5-3.1,9.2-2.7,12.9-2.4,2.4.2,4.5.3,6.4-.1l11.7-15.9c0-2.4-1-4.6-2.1-7.1-1-2.4-2.2-5.1-2.6-8.2l-.2-1.4.7-1.3c4.3-7.4,11-11.4,17.5-15.2h.2c1.1-.8,2.2-1.4,3.3-2.1l1.4-.9,1.6.3c4.6.8,7.7,3.6,10.5,6.1,1.6,1.4,3,2.7,4.8,3.8l20.2-6.3,4.7-16.2,2.1-.7c9.4-3.3,18.3-2.4,26.5-1.2l1.3.2,1,.9c4.1,4,5.2,8.6,6,12.3.4,1.7.7,3.1,1.2,4.5l19.6,6.7c2.2-.7,4-2.3,6.1-4.2,2.2-2,4.8-4.2,8.1-5.6l1.7-.7,1.7.7c7.8,3.3,14.8,8.4,22.3,16.1l1.8,1.9-6.2,17,11.9,16.6c2,.6,4.3.4,6.9.2,3.2-.2,6.9-.5,10.6.7l1.4.4.8,1.2c4.1,6,5.8,12.8,7.5,19.3.4,1.5.7,2.9,1.1,4.4l.4,1.3-.5,1.3c-1.8,5-5.7,7.3-9.2,9.2-2,1.2-3.8,2.2-5.1,3.6v20.9c1,1.4,2.8,2.4,5,3.6Z"/><path d="M240.7,173.3l-32.4,22.6v1.3c.2,10.3-4.4,19.4-13.5,26.9l-.9.8v38.5l3-.6c18.1-3.5,33.5-14.9,42.3-31.3,9.2-17,10.2-37.2,2.7-55.3l-1.2-2.9Z"/><path d="M152.2,197.8v-1.3s-32.2-22-32.2-22l-1,3.3c-6.3,20.9-3.8,42.3,6.6,58.8,8.6,13.6,21.9,22.4,37.3,24.9l2.9.5v-37.5l-.9-.7c-8.7-7.6-12.8-15.8-12.9-25.8Z"/><path d="M222.4,149.1c-10-10.1-26.1-15.9-43-15.5-16.5.3-31.9,6.5-41,16.5l-1.9,2.1,30.3,21.4,1-.2c7.5-1.4,15.5-2.3,23.6-.1l1.1.3,32-22.3-2.1-2.1Z"/></svg>