<?xml version="1.0" encoding="UTF-8"?><svg id="a" xmlns="http://www.w3.org/2000/svg" viewBox="0 0 400 400"><path d="M361.7,154c-.5-5.3-2.1-10.4-4.9-15-11.5-11.7-22.6-24.2-33.4-36.2-10.7-11.9-21.7-24.2-33-35.8-1.2-1.2-2.4-2.5-3.5-3.7-5.1-5.5-9.4-10.3-16.7-11-13.1-1.2-27.6-.6-41.6,0-12.4.5-25.3,1-37.3.3-3.9.3-9.8,5.6-10.7,9.5v109.4l-21.5-5.5v-2.3c-.1-2.1,0-4.5,0-6.9.4-15.3-.2-26.2-12.1-26.6-4-.1-6.9.8-9,2.8-4.8,4.8-4.5,15.7-4.2,25.2.2,5.2.3,10.2-.3,14.1v.5c-.1,0-18.3,50.7-18.3,50.7l-17.8-17.1-.9-31.9c-2.1-2.6-10.8-11.5-12.1-12.5-.1,0-.3-.2-.4-.3-1.5.9-4,3.9-6.1,6.3-2.2,2.6-4.3,5-6.3,6.7v33.3h-15.9c0,.1-15.2,89.2-15.2,89.2-.7,5.3,1.6,8.2,6.7,12.5,12.7,10.6,59.5,43.2,71.4,46.3,3.6.9,7.5,1.6,10.5,1.9,34.4,2.7,71.3,1.5,107,.3,32.9-1.1,67-2.2,99.2-.3,13.8-1.2,25-12.4,26.2-26.2-1.8-27.6-.8-57.1.3-85.6,1.1-30.8,2.3-62.7-.3-92.1ZM289.8,286h-52.7v-51.5l-25.6,50.1-21.2,1.7v-39.2l-27.2,38.9h-44.1l34.2-94.4.7-.5c1.9-1.4,3.8-.9,17.5,4.2,7.7,2.8,19.3,7.1,22.5,7,4.4-.1,12.1-6.1,12.1-9.4v-115.3h52.7v68.5c.7,3.1,12.6,14.4,19,20.4,5.2,4.9,9.7,9.2,11.5,11.6l.6.8v107.2Z"/><path d="M165.2,80.3c-.9-12-14-25.5-25-29.6-17.3-6.4-28.9-.6-40.7,7.7-8.5-6.4-16.2-11-27.3-10.4-11.1.6-24.9,8.2-32.1,17.8-4.7,6.3-6.4,13-4.9,19.4,1.8,7.8,10.3,14.2,18.6,14,8.1-.3,12.4-5.8,15.5-9.8,1.6-2,3.2-4.1,4.4-4.2,2.4-.2,6,2.7,9.4,5.6,4.6,3.9,9.9,8.2,16,8.4,7.3.2,12.6-4.4,17.4-8.5,3.2-2.8,6.3-5.4,9-5.6,1.2,0,3.3,2.5,5.1,4.6,3.5,4.1,8.3,9.7,15.7,9.7,2.8,0,5.9-.8,9.4-2.8,8.5-4.8,9.9-11.5,9.5-16.3Z"/></svg>