<?xml version="1.0" encoding="UTF-8"?><svg id="a" xmlns="http://www.w3.org/2000/svg" width="400" height="400" viewBox="0 0 400 400"><path d="M361.718,154.038c-.461-5.328-2.095-10.381-4.857-15.024-11.476-11.742-22.616-24.19-33.393-36.232-10.662-11.914-21.688-24.234-32.98-35.8-1.219-1.248-2.38-2.516-3.504-3.741-5.064-5.527-9.438-10.299-16.667-10.977-13.09-1.226-27.562-.648-41.562-.089-12.43.497-25.28,1.01-37.281.276-3.91.291-9.849,5.561-10.742,9.505v109.359l-21.464-5.46-.056-2.273c-.052-2.132.011-4.462.076-6.929.41-15.298-.221-26.158-12.148-26.551-4.008-.132-6.946.79-8.978,2.82-4.832,4.828-4.483,15.655-4.177,25.208.168,5.221.327,10.153-.335,14.065l-.133.509-18.14,50.744-17.823-17.051-.949-31.873c-2.058-2.552-10.806-11.525-12.08-12.481-.145-.099-.281-.199-.409-.297-1.492.942-4.047,3.919-6.12,6.337-2.206,2.571-4.312,5.026-6.308,6.703v33.291l-15.907.143-15.169,89.059c-.678,5.256,1.641,8.227,6.749,12.51,12.65,10.609,59.522,43.153,71.39,46.269,3.573.938,7.495,1.64,10.49,1.877,34.382,2.715,71.304,1.481,107.01.289,32.947-1.101,67.013-2.239,99.221-.298,13.786-1.227,25.011-12.448,26.236-26.229-1.821-27.648-.754-57.104.278-85.59,1.117-30.826,2.272-62.702-.269-92.067ZM289.773,285.988h-52.732v-51.535l-25.579,50.114-21.153,1.667v-39.163l-27.242,38.917h-44.135l34.231-94.442.719-.537c1.912-1.426,3.77-.872,17.475,4.153,7.695,2.822,19.329,7.084,22.467,6.996,4.397-.123,12.063-6.09,12.063-9.39v-115.288h52.732v68.464c.724,3.118,12.627,14.382,19.036,20.447,5.218,4.938,9.725,9.203,11.519,11.597l.6.8v107.2Z"/><path d="M165.212,80.302c-.928-11.992-13.965-25.531-25.002-29.625-17.308-6.417-28.859-.554-40.715,7.702-8.478-6.367-16.172-10.998-27.288-10.435-11.104.569-24.906,8.233-32.106,17.827-4.732,6.306-6.439,13.006-4.935,19.377,1.848,7.825,10.345,14.198,18.642,13.961,8.079-.252,12.357-5.759,15.481-9.779,1.571-2.022,3.196-4.114,4.434-4.242,2.385-.228,5.97,2.729,9.431,5.606,4.634,3.853,9.886,8.22,15.993,8.413,7.298.222,12.64-4.382,17.359-8.451,3.231-2.787,6.284-5.419,9.027-5.56,1.191-.073,3.343,2.503,5.11,4.562,3.521,4.104,8.348,9.731,15.681,9.73,2.757,0,5.869-.796,9.397-2.768,8.52-4.76,9.863-11.503,9.49-16.321Z"/></svg>