<?xml version="1.0" encoding="UTF-8"?><svg id="a" xmlns="http://www.w3.org/2000/svg" viewBox="0 0 400 400"><path d="M344.1,77.5H95.9c-4.3,0-8.5,1.8-11.5,4.9,0,0-.1,0-.1.1l-28.1,28.9h0c-3.8,3-6.1,7.6-6.1,12.4v192.6c0,3.6,1.3,7.1,3.6,10,0,0,0,.1.1.2,0,0,0,0,.1,0,3,3.6,7.4,5.7,12.1,5.7h248.2c4,0,7.8-1.5,10.7-4.2,0,0,0,0,0,0h0l.2-.2,29.4-30.1h.1c3.3-3.1,5.2-7.4,5.2-11.8V93.4c0-8.8-7.1-15.9-15.9-15.9ZM349.7,286.1c0,3.1-2.5,5.6-5.5,5.6,0,0,0,0,0,0H95.9c-3.1,0-5.6-2.5-5.6-5.5,0,0,0,0,0,0V93.4c0-3.1,2.5-5.5,5.6-5.5,0,0,0,0,0,0h248.2c3.1,0,5.6,2.4,5.6,5.5,0,0,0,0,0,0v192.7Z"/><path d="M160.2,203.6h-30.9c-2.9,0-5.2,2.3-5.2,5.2v34c0,2.9,2.3,5.2,5.2,5.2h30.9c2.9,0,5.2-2.3,5.2-5.2v-34c0-2.9-2.3-5.2-5.2-5.2ZM155,237.6h-20.6v-23.7h20.6v23.7Z"/><path d="M210.4,169.6h-30.9c-2.9,0-5.2,2.3-5.2,5.2v68c0,2.9,2.3,5.2,5.2,5.2h30.9c2.9,0,5.2-2.3,5.2-5.2v-68c0-2.9-2.3-5.2-5.2-5.2ZM205.2,237.6h-20.6v-57.7h20.6v57.7Z"/><path d="M260.6,131.5h-30.9c-2.9,0-5.2,2.3-5.2,5.2v106.1c0,2.9,2.3,5.2,5.2,5.2h30.9c2.9,0,5.2-2.3,5.2-5.2v-106.1c0-2.9-2.3-5.2-5.2-5.2ZM255.4,237.6h-20.6v-95.7h20.6v95.7Z"/><path d="M310.7,169.6h-30.9c-2.9,0-5.2,2.3-5.2,5.2v68c0,2.9,2.3,5.2,5.2,5.2h30.9c2.9,0,5.2-2.3,5.2-5.2v-68c0-2.9-2.3-5.2-5.2-5.2ZM305.6,237.6h-20.6v-57.7h20.6v57.7Z"/><path d="M116.7,120.7h39.6c2.9,0,5.2-2.3,5.2-5.2s-2.3-5.2-5.2-5.2h-39.6c-2.9,0-5.2,2.3-5.2,5.2s2.3,5.2,5.2,5.2Z"/><path d="M195.3,138.9c0-2.9-2.3-5.2-5.2-5.2h-73.5c-2.9,0-5.2,2.3-5.2,5.2s2.3,5.2,5.2,5.2h73.5c2.9,0,5.2-2.3,5.2-5.2Z"/></svg>