<?xml version="1.0" encoding="UTF-8"?><svg id="a" xmlns="http://www.w3.org/2000/svg" viewBox="0 0 115 115"><path d="M17,34.5c-1.9,10.6,1,20.7,9,31.7,3.6,4.9,7.4,9.7,11.1,14.4,2.9,3.7,5.9,7.5,8.8,11.3,2.4,3.2,5.4,4.7,9.3,4.7,3.9,0,30.4,0,33.9,0,6.7-.1,9.4-2.9,9.5-9.5,0-10.9,0-21.5,0-32.4,0-4.7-1-8.5-3-11.6-4.1-6.3-7.7-11.7-11.4-16.9-3.2-4.5-8-6.9-14.1-7.1-5.7-.2-10.9,1.9-15.4,6.1-.8.7-1.6,1.4-2.6,1.3-.7,0-1.4-.5-2-1.3-.4-.5-1-1-1.5-1.4l-.2-.2c-5.5-4.6-12.6-6-19.1-3.7-6.4,2.3-11,7.9-12.2,14.8ZM37.8,25.6c3.7.4,6.9,2.3,9.5,5.8.8,1,1.4,2.3,2.3,3.2,1.6,1.9,3.9,1.8,5.5,0,1-1.1,1.7-2.5,2.6-3.6,3.8-4.8,9.6-6.6,14.9-4.8,5.4,1.8,8.3,6.1,8.5,12.5.6,19.3-12.8,28-25.9,38.9-1.6,1.5-3.4,1.8-5.1.3-15.7-11.1-23-17.7-27-37.4.5-9.3,5.7-15.7,14.9-14.7Z"/></svg>