<?xml version="1.0" encoding="UTF-8"?>
<svg id="heart" xmlns="http://www.w3.org/2000/svg" fill="currentColor" viewBox="0 0 400 400">
<path d="M47.2,125.4c-9.1,39.8,11.3,82.1,37.3,114.6,18.5,24,36.5,47.6,55.6,71,6.3,7.2,13.8,12.6,22.9,14.7,10.8,2.5,21.6,1.2,33.6,1.5,22.5,0,49.7,0,70.7,0,7.1,0,14.1,0,21-1.5,21.8-4,23.3-23.6,23.4-42.3.1-29.9.3-59.7-.2-89.6.2-31.7-15-48.6-31.4-73.6-9.1-13.1-17.5-27.7-31.4-36.3-17.3-10.5-40-10.9-58.3-2.9-8.5,3.3-16.9,11.3-25.1,13.2-13.1,2.8-22.8-11.5-34.7-15.2-35.9-15.3-76.5,8-83.3,46.1v.2ZM113.4,96.2c9.3.9,17.9,5.2,24.8,11.7,10.5,9.9,19.8,27.7,34.8,12.7,5-5,9.4-10.9,15-15.3,7.2-5.8,15.7-9.1,24.4-9.6,25.3-.7,41.5,17.3,42.7,42.1,4.3,57.7-39.2,94.6-81.2,126.8-12.4,8.8-23.3,2-33.9-6.2-40.8-29.6-67.1-61.9-73.1-113.5-.3-6.1.3-12.1,1.8-17.6,5.6-21.3,23.8-33.7,44.5-31.2h.2Z"/>
</svg>