<?xml version="1.0" encoding="UTF-8"?><svg id="a" xmlns="http://www.w3.org/2000/svg" viewBox="0 0 115 115"><defs><style>.b{fill:#060606;}.c{fill:#121212;}.d{fill:#080808;}</style></defs><path class="b" d="M98.7,71.3c0,5.8,0,11.5,0,17.3,0,6.9-3.1,10.1-9.9,10.1-11.5,0-23.1,0-34.6,0-3.3,0-6-1-8.4-3.4-6.6-6.7-13.4-13.2-19.9-20-13.3-13.9-12.9-35.4.6-48.9,13.5-13.4,35.1-13.6,48.9-.3,6.6,6.4,13,13.1,19.6,19.5,2.5,2.5,3.7,5.3,3.6,8.8,0,5.6,0,11.2,0,16.8ZM24.6,51.1c0,14.9,11.5,26.8,26.3,27,14.8.2,27.2-12,27.1-26.9,0-14.8-11.9-26.6-26.7-26.6-14.9,0-26.7,11.6-26.8,26.5Z"/><path class="d" d="M63.5,43.5c0,4.8-6.2,13.9-10.7,15.6-1.9.7-3.6.4-4.8-1.3-1.2-1.6-1.1-3.5.1-5,1.7-2,3.6-3.8,5.5-5.7,1.7-1.7,2.4-3.5,1.3-5.8-.8-1.7-2.2-2.6-3.9-2.4-2.5.2-3.5,2-3.9,4.3-.4,2.6-2,4.3-4.8,3.7-2.9-.6-3.7-2.9-3.3-5.7,1-6.5,6.8-11.1,13.3-10.6,6.4.5,11.2,6,11.2,12.8Z"/><path class="c" d="M51.3,71.9c-2.3-.3-3.9-1.4-4-4,0-2.5,1.4-4.1,3.7-4.3,2.6-.1,4.4,1.4,4.4,4.1,0,2.5-1.7,3.7-4.1,4.1Z"/></svg>