<?xml version="1.0" encoding="UTF-8"?><svg id="a" xmlns="http://www.w3.org/2000/svg" viewBox="0 0 115 115"><defs><style>.b{fill:#070707;}.c{fill:#050505;}.d{fill:#0f0f0f;}</style></defs><path class="b" d="M29.6,16.7c-8.9.2-13.7,5-13.6,13.9,0,6.1,0,12.4.2,18.4,0,5.2.1,10.4.2,15.5,0,4.7,1.7,8.5,5,11.6,6.6,6.1,13.5,12.5,20.4,19.2,2.7,2.6,5.7,3.7,9.5,3.7,7.6-.1,15.3-.2,22.7-.3,4.9,0,9.8,0,14.7-.2,7.9-.1,10.4-2.8,10.4-10.9,0-5.5-.1-11-.2-16.5v-7.4c-.1-1.7-.1-3.4-.1-5.2,0-3.7,0-7.5-.1-11.3,0-2.6,0-4.7,0-6.4q0-8.3-6-14.5c-1.2-1.3-2.7-2.9-4.5-4.8-3.3-3.6-7-5.2-11.7-5.2s-.2,0-.3,0c-6.8,0-13.6.2-20.4.2-8.5,0-17.4.2-26,.3ZM75.6,23.7c6,0,7,.9,7.1,6.7.2,12.3.3,23.2.4,33.4,0,5.1-1.3,6.5-6.3,6.6-14.9.2-30.5.4-46.4.5,0,0-.1,0-.2,0-5,0-6.2-1.3-6.3-6.3-.2-10.9-.3-22.3-.4-33.9,0-5.4,1-6.4,6.7-6.5,5.3,0,10.6-.1,15.9-.2h13.8c5.2-.2,10.4-.3,15.7-.3Z"/><path class="c" d="M60.3,51.3c-1,1.2-1.9,1.8-2.8,1.7-1.1,0-1.8-1.2-2.6-2.5-1.9-3.2-3.9-6.5-5.9-9.7-1.2-1.9-2.3-3.8-3.5-5.7-.6-.9-.8-1-.9-1,0,0-.2,0-.8,1-5.1,9.2-9.6,17.3-13.8,24.8-.6,1.1-.5,1.4-.5,1.4,0,0,.3.3,1.6.2,5.3,0,10.7-.1,15.9-.2h12.3c5.3-.2,10.5-.3,15.8-.3,1.5,0,1.6-.2,1.7-.3,0,0,.1-.3-.7-1.3-1-1.3-2.1-2.6-3-3.9-.9-1.2-1.8-2.4-2.8-3.6-.5-.7-1-1.5-1.5-2.2-1-1.6-1.9-3.2-3.2-3.4-1.5-.1-2.8,1.7-4.1,3.4-.4.5-.8,1.1-1.2,1.6Z"/><path class="d" d="M66.1,36.9c.4,2.3,1.7,3.4,3.8,3.3,2,0,3.1-1.2,3.5-3.6-.5-2.3-1.7-3.5-3.7-3.6,0,0,0,0-.1,0-1,0-2,.5-2.7,1.3-.7.8-1,1.7-.9,2.6Z"/></svg>