<?xml version="1.0" encoding="UTF-8"?><svg id="a" xmlns="http://www.w3.org/2000/svg" viewBox="0 0 115 115"><defs><style>.b{fill:#060606;}</style></defs><path class="b" d="M94.1,46c-4.1-4.1-8.3-8.4-12.3-12.5-2-2.1-4-4.1-6-6.2-6.7-6.8-15.5-10.2-24.3-10.2s-17.3,3.3-24,9.8c-13.3,13-13.6,34.5-.7,47.8,3.3,3.5,6.8,6.9,10.2,10.2,3.1,3,6.3,6.2,9.3,9.3,2.3,2.4,5,3.5,8.5,3.4,5.9,0,11.9,0,17.8,0,5.3,0,10.5,0,15.8,0,6.7,0,9.2-2.5,9.3-9.2,0-4,0-8,0-11.9,0-1.8,0-3.6,0-5.4,0-1.6,0-3.3,0-4.9,0-3.7,0-7.6,0-11.4,0-3.6-1-6.4-3.6-9ZM51.3,79.1h0c-15.2,0-27.6-12.4-27.6-27.6,0-15.5,12-27.7,27.4-27.8,7.5,0,14.6,2.8,20,8.1,5.3,5.2,8.2,12.2,8.1,19.6,0,15.3-12.5,27.7-27.8,27.7Z"/><path class="b" d="M52.4,68.6c6.1-.4,10.4-4.3,11.6-10.2-1.9,0-3.8,0-5.7,0-6,0-12.1,0-18.2,0,0,0,0,0-.1,0-1.1,0-1.3.2-1.3.2,0,0-.2.2.2,1.3,1.6,5.3,7.6,9.1,13.6,8.7Z"/><path class="b" d="M33.8,40.7c0,2.4,4.7,7,7.2,7.2,2.6-1.2,5.4-2.7,6.7-5.8.9-1.9.3-2.8-.3-3.4-1-.9-2.5-1.4-3.5-.3-2.4,2.6-4.2,1.3-5.8.1-.6-.4-1.2-.7-1.9-.7s-.8,0-1.1.3c-.9.4-1.4,1.4-1.3,2.5Z"/><path class="b" d="M67.3,38.1c-.8-.4-1.7-.3-2.6.4-2.5,1.8-4.1,1.4-6.3,0-.6-.4-1.1-.6-1.7-.6s-.7,0-1,.2c-.8.4-1.3,1.3-1.3,2.4,0,1.1,1,2.9,2.6,4.6,1.6,1.6,3.4,2.7,4.5,2.7h0c1.1,0,2.9-1.1,4.4-2.6,1.6-1.6,2.7-3.5,2.7-4.7,0-1.1-.5-2-1.4-2.5Z"/></svg>