<?xml version="1.0" encoding="UTF-8"?><svg id="a" xmlns="http://www.w3.org/2000/svg" viewBox="0 0 115 115"><defs><style>.b{fill:#050505;}</style></defs><path class="b" d="M93.3,34.5c-3.9-3.4-8.4-7.3-12.2-11.6-4.4-5.1-9.4-7-15.7-6.2-.2,0-.4,0-.7,0-.1,0-.2,0-.4,0-6.1.3-10,3.2-12.1,8.9,0,0,0,.1,0,.2,0,.1,0,.2,0,.3-.7,1.9-1.7,3.1-3,3.5-1.2.3-2.6,0-4-1.3-4.6-3.7-9.5-4.1-15-1.2-.8.4-1.7.9-2.5,1.3-1.8.9-3.6,1.8-5.3,2.9-4,2.5-5.8,6.3-5.4,11.3,0,1.1.7,2.2,1.3,3.2.6,1.2,1.3,2.4,1.2,3.6,0,1.3-.7,2.6-1.3,3.9-.5,1.1-1.1,2.3-1.3,3.5-.1.7-.1,1.4,0,2.2,0,.2,0,.5,0,.7,0,.8,0,1.5,0,2.3,0,1.5,0,3.1,0,4.6-.4,5.6,1.5,10.2,5.8,14,4.5,3.9,9.2,8.4,14.7,14,2.7,2.8,5.8,4,9.8,4,6.9,0,14.5-.1,22.3-.1s12.4,0,18.7.1c3.5,0,6.2-.8,8-2.6,1.8-1.8,2.6-4.5,2.5-8.1-.2-4.8-.1-9.7,0-14.4,0-2.1,0-4.2,0-6.3s0-4.1,0-6.2c0-4.8,0-9.7.1-14.5.2-4.8-1.4-8.4-5.1-11.7ZM33.2,70c-.2,2.6-2.1,4.6-4.5,4.6s0,0,0,0c-2.5,0-4.3-2-4.4-4.7-.1-4.4-.1-8.4,0-12.3.1-2.8,1.8-4.5,4.5-4.5,2.5,0,4.2,1.7,4.5,4.5,0,.3,0,.5,0,.8v.2s0,5.4,0,5.4h0c0,.5,0,1,0,1.5,0,1.5,0,3,0,4.5ZM53.8,70.3c-.2,2.5-2.4,4.1-4.4,4.3,0,0-.1,0-.2,0-2.1,0-4.4-2.1-4.7-4.4-.1-1-.1-2.1,0-3.1,0-.5,0-.9,0-1.4v-.5h0c0-.3,0-.6,0-.9,0-1,0-2.1,0-3.1.4-2.7,2.4-4.3,5-4.1,2.4.2,4.1,1.9,4.3,4.3.2,3.1.2,6.1,0,8.9ZM74.6,62.5c0,2,0,4.1,0,6.1,0,2.1-.7,3.8-1.8,4.9-.8.7-1.8,1.1-2.9,1.1s-.1,0-.2,0c-2.6,0-4.5-2.5-4.6-5.7,0-6.8,0-12.9,0-18.8,0-3.2,2-5.4,4.8-5.5,2.4,0,4.5,2.5,4.6,5.7,0,2.2,0,4.4,0,6.5,0,.9,0,1.9,0,2.8,0,.9,0,1.8,0,2.8ZM74.5,34.9c-.2,1.9-1,3.3-2.3,4-1.2.7-2.8.7-4.4,0-1.9-.9-2.9-.3-4.3.7-3.8,2.7-8.2,5.8-12.6,8.8-1.7,1.1-2.7,1.7-3.7,1.7s-2.1-.6-3.9-1.9c-2-1.5-3.6-2.8-5-4-1.4-1.2-2.7-1.3-4.4-.4-1.3.7-2.5,1.3-3.6,1.7-2.2.8-4.7,0-5.6-2-1-1.9-.6-4.7,1.5-5.9,3-1.7,6.1-3.2,9.2-4.7,1.2-.6,2.6-.4,3.8.4l.5.4c.6.4,1.3.9,1.9,1.4.6.5,1.2,1.1,1.8,1.6,1.4,1.3,2.7,2.6,4.2,2.6,1.3,0,2.8-1.1,4.1-2.2.6-.5,1.2-.9,1.9-1.3,1.3-.9,2.7-1.7,4-2.6l1.3-.9c.6-.4.9-.7.8-1.5-.2-2.5-.1-4.1.7-5,.8-.9,2.2-1.1,4.5-1.2.5,0,.9,0,1.4,0h1.1c.1,0,.3,0,.4,0,.7,0,1.4,0,2.1,0,2.7.3,4.1,1.6,4.4,4,.3,2.3.3,4.5,0,6.5Z"/></svg>