<?xml version="1.0" encoding="UTF-8"?><svg id="a" xmlns="http://www.w3.org/2000/svg" viewBox="0 0 400 400"><path d="M253.6,55s-3.6-3.6-3.8-3.8c-.7-.9-1.8-1.4-3-1.4H117.9c-3.1,0-5.6,2.5-5.6,5.6,0,15.2.6,287.1,1.4,287.8.1.2,17.6,17.6,17.7,17.7.7.9,1.8,1.4,3,1.4h134.5v-190.5c0-1.2-.6-2.3-1.4-3-.1-.2-17-17-17.3-17.3-.1-.2-.3-.3-.5-.4-.7-.9-1.8-1.4-3-1.4h-65.3c-2.8,0-5.6-.4-8.2-1.2-.6-.2-1-.6-1.2-1.2-5.6-18,8.7-37.4,27.7-37,3.2,0,6.2.5,9.1,1.5.5,1.6.9,3.2,1.2,4.9.1.9.6,1.7,1.3,2.3.3.3.5.6.8.8.1.1,16.8,16.8,17,17,.7.9,1.8,1.5,3,1.5h36.8v-66.4c0-1.2-15.2-16.8-15.4-16.9ZM247.6,110.8c0,2.5-2.1,4.6-4.6,4.6h-20.8c-2.2,0-4.1-1.4-4.7-3.5-4.4-14.3-17.8-24.5-33.2-24.5-19.1,0-34.7,15.6-34.7,34.7,0,19.1,15.6,34.7,34.7,34.7h58.7c2.5,0,4.6,2.1,4.6,4.6v173.4c0,2.5-2.1,4.6-4.6,4.6h-117.4c-2.5,0-4.6-2.1-4.6-4.6V61.5c0-2.5,2.1-4.6,4.6-4.6h117.4c2.5,0,4.6,2.1,4.6,4.6v49.3Z"/><path d="M193.7,321.6h12v-7.2h-8.4v-25.3h-7.2v28.9c0,2,1.6,3.6,3.6,3.6Z"/><path d="M220.9,308.1c.8.6,1.8.9,2.8.7s1.9-.7,2.5-1.5l1.8-2.7v17h7.2v-28.9c0-1.2-.6-2.3-1.6-3-1.7-1.1-3.9-.7-5,1l-5.4,8.1-5.4-8.2c-.7-1-1.8-1.6-3-1.6-2,0-3.6,1.6-3.6,3.6v28.9h7.2v-17l1.8,2.7c.2.3.5.5.7.7Z"/><path d="M205.7,254.2v-7.2h-16.2c-2,0-3.6,1.6-3.6,3.6v25.3c0,2,1.6,3.6,3.6,3.6h16.2v-7.2h-12.6v-5.4h8.4v-7.2h-8.4v-5.4h12.6Z"/><path d="M160.6,275.9c0,2,1.6,3.6,3.6,3.6h16.2v-7.2h-12.6v-5.4h8.4v-7.2h-8.4v-5.4h12.6v-7.2h-16.2c-2,0-3.6,1.6-3.6,3.6v25.3Z"/><path d="M155.1,279.5v-7.8c0-1.2-.6-2.3-1.6-3l-8.1-5.4,8.2-5.4c1-.7,1.6-1.8,1.6-3v-7.8h-7.2v5.9l-5.4,3.6v-9.5h-7.2v32.5h7.2v-9.5l5.4,3.6v5.9h7.2Z"/><path d="M155.1,296.3v-7.2h-16.2c-2,0-3.6,1.6-3.6,3.6v25.3c0,2,1.6,3.6,3.6,3.6h16.2v-7.2h-12.6v-18.1h12.6Z"/><path d="M184,303.4l-8.4-12.6c-.2-.3-.5-.5-.7-.7-.8-.6-1.8-.9-2.8-.7-1,.1-1.9.7-2.5,1.5l-8.4,12.6c-.4.6-.6,1.3-.6,2v16.2h7.2v-8.4h9.7v8.4h7.2v-16.2c0-.7-.2-1.4-.6-2ZM168.1,306l4.5-6.8,4.5,6.8h-9Z"/><path d="M223.2,247h-8.4c-2,0-3.6,1.6-3.6,3.6v28.9h7.2v-8.4h4.8c6.6,0,12-5.4,12-12s-5.4-12-12-12ZM223.2,263.9h-4.8v-9.7h4.8c2.7,0,4.8,2.2,4.8,4.8s-2.2,4.8-4.8,4.8Z"/></svg>