<?xml version="1.0" encoding="UTF-8"?><svg id="a" xmlns="http://www.w3.org/2000/svg" viewBox="0 0 400 400"><path d="M288.3,240.2l-79.4-46.1c-3.7-2.2-8.7-2.9-13.4-2.4,3.1-3.9,5.2-9,5.2-13.5l-.3-95.7c0-3.6-1.3-6.4-3.7-7.8,0,0,0,0,0,0l-13-7.5c-2.4-1.4-5.6-1.1-8.7.7l-118.1,68.2c-5.9,3.4-10.7,11.7-10.7,18.4l.2,95.7c0,3.6,1.3,6.3,3.7,7.8l13,7.5h0c.6.4,1.4.6,2.2.7-.5.9-.8,1.9-.8,2.9,0,.1,0,.3,0,.4v15.3c0,2.8,1.8,5.2,4.9,7.1l79.4,46.1c3,1.7,6.8,2.6,10.6,2.6s7.7-.9,10.7-2.6l118.1-68.2c3.2-1.8,5-4.4,5-7.2v-15.3c0-2.7-1.7-5.2-4.8-7.1ZM207.2,196.9l79.4,46.1c2,1.2,3.1,2.6,3.2,4,0,0,0,0,0,.1,0,1.6-1.2,3.1-3.3,4.3l-118.1,68.2c-4.9,2.8-13.1,2.8-18,0l-79.2-46s0,0-.2-.1c-2.1-1.2-3.2-2.7-3.2-4.2s1.2-3,3.3-4.3l.7-.4s0,0,0,0l117.4-67.7c4.9-2.8,13.1-2.8,18,0ZM188.3,193.6c0,0-.1,0-.2.1-.2,0-.4.2-.6.3l-117.4,67.8c-2.1,1.2-4,1.4-5.3.7-.7-.4-1.2-1.2-1.6-2.1-.3-.8-.4-1.7-.4-2.8l-.3-95.7c0-5.6,4.1-12.7,9-15.5l118.1-68.2c.8-.5,1.6-.7,2.3-.9s.4-.1.6-.1h.2c.4,0,.7,0,1.1,0,0,0,.2,0,.3,0,.3,0,.6.1.8.3h0c1.3.8,2,2.5,2,4.8l.2,95.7c0,5.6-4,12.7-9,15.5Z"/><path d="M236.1,267.7l-23.3-13.5c-1.2-.7-2.8-.7-4,0l-38.4,22.2c-.7.4-1.1,1.2-1.1,1.9s.4,1.5,1.1,1.9l23.3,13.5c.6.4,1.3.6,2,.6s1.4-.2,2-.6l38.4-22.2c.7-.4,1.1-1.2,1.1-1.9s-.4-1.5-1.1-1.9Z"/><path d="M167.8,216.4l-14.5,8.4-14.5,8.4-14.5,8.4-14.5,8.4-14.5,8.4-14.5,8.4c-.5.3-.8.9-.8,1.5s.3,1.2.8,1.5l14.4,8.4,14.4,8.4,14.4,8.4c.3.1.6.2.8.2s.6,0,.8-.2l14.5-8.4,14.5-8.4,43.7-25.2,14.5-8.4,14.5-8.4,14.5-8.4c.5-.3.8-.9.8-1.5s-.3-1.2-.8-1.5l-14.4-8.4-14.4-8.4-14.4-8.4c-.5-.3-1.2-.3-1.7,0l-14.5,8.4-14.5,8.3ZM183.2,211.4l11.1,6.4-11.2,6.5-11.1-6.4,11.2-6.5ZM212.2,211.4l11.1,6.4-11.2,6.5-11.1-6.5,11.2-6.4ZM153.8,274.7l-11.1-6.4,40.3-23.3,11.1,6.4-40.3,23.3ZM124.8,274.7l-11.1-6.4,11.2-6.5,11.1,6.4-11.2,6.5ZM139.4,253.4l11.1,6.5-11.2,6.5-11.1-6.5,11.2-6.5ZM154,245l11.1,6.5-11.2,6.5-11.1-6.5,11.2-6.5ZM168.5,236.6l11.1,6.5-11.2,6.5-11.1-6.5,11.2-6.5ZM183.1,228.2l11.1,6.5-11.2,6.5-11.1-6.5,11.2-6.5ZM197.5,249.5l-11.1-6.4,11.2-6.5,11.1,6.5-11.2,6.4ZM212,241.1l-11.1-6.5,11.2-6.5,11.1,6.4-11.2,6.5ZM208.8,226.3l-11.2,6.5-11.1-6.4,11.2-6.5,11.1,6.4ZM168.6,219.8l11.1,6.4-11.2,6.5-11.1-6.4,11.2-6.5ZM154.1,228.2l11.1,6.4-11.2,6.5-11.1-6.5,11.2-6.4ZM139.5,236.6l11.1,6.5-11.2,6.5-11.1-6.4,11.2-6.5ZM125,245l11.1,6.4-11.2,6.5-11.1-6.4,11.2-6.5ZM110.4,253.4l11.1,6.4-11.2,6.5-11.1-6.4,11.2-6.5ZM95.9,261.8l11.1,6.4-11.2,6.4-11.1-6.4,11.2-6.4ZM110.4,270.2l11.1,6.4-11.2,6.4-11.1-6.4,11.2-6.4ZM124.8,291.5l-11.1-6.4,11.2-6.4,11.1,6.4-11.2,6.4ZM139.3,283.1l-11.1-6.4,11.2-6.5,11.1,6.4-11.2,6.5ZM226.6,232.7l-11.1-6.4,11.2-6.5,11.1,6.4-11.2,6.5ZM197.7,203l11.1,6.4-11.2,6.5-11.1-6.4,11.2-6.5Z"/><path d="M84.4,153.5c.3,0,.6,0,.8-.2l24.8-14.4c.8-.5,1.1-1.5.6-2.3-.5-.8-1.5-1.1-2.3-.6l-24.8,14.4c-.8.5-1.1,1.5-.6,2.3.3.5.9.8,1.5.8Z"/><path d="M73.6,159.7c.3,0,.6,0,.8-.2l4.6-2.6c.8-.5,1.1-1.5.6-2.3-.5-.8-1.5-1.1-2.3-.6l-4.6,2.6c-.8.5-1.1,1.5-.6,2.3.3.6.9.8,1.5.8Z"/><path d="M94,157.9c-.5-.8-1.5-1.1-2.3-.6l-18.9,10.9c-.8.5-1.1,1.5-.6,2.3.3.6.9.8,1.5.8s.6,0,.8-.2l18.9-10.9c.8-.5,1.1-1.5.6-2.3Z"/><path d="M181.3,113.5c-1.7-1-3.9-.8-6.2.5-4,2.3-7.2,7.8-7.1,12.4,0,2.3.8,4,2.2,5.1l-19,42c-1.3-.2-2.8.1-4.3,1-2.4,1.4-4.4,3.8-5.7,6.6l-18.6-4c.2-1,.4-1.9.4-2.9,0-2.6-1-4.5-2.7-5.5s-4-.8-6.2.5c-4,2.3-7.2,7.8-7.1,12.4,0,1.2.2,2.3.6,3.2l-17.5,31.6c-1.5-.3-3.1,0-4.8,1-4,2.3-7.2,7.8-7.1,12.4,0,2.6,1,4.5,2.7,5.5.7.4,1.6.6,2.5.6s2.4-.4,3.7-1.1c4-2.3,7.2-7.8,7.1-12.4,0-1.7-.5-3.1-1.3-4.2l17.2-31c.6.3,1.3.5,2.1.5,1.2,0,2.4-.4,3.7-1.1,2.3-1.3,4.3-3.7,5.6-6.3l18.6,4c-.2.9-.3,1.8-.3,2.6,0,2.6,1,4.5,2.7,5.5.7.4,1.6.6,2.5.6s2.4-.4,3.7-1.1c4-2.3,7.2-7.8,7.1-12.4,0-1.9-.6-3.5-1.5-4.6l19.1-42.5c1.1,0,2.3-.4,3.5-1.1,4-2.3,7.2-7.8,7.1-12.4,0-2.5-1-4.5-2.7-5.5Z"/><path d="M336,209.9v-12.8h0c0-2.1-1.4-4-3.7-5.3l-11.9-6.4-.2-31.7c0-2.5-1.6-4.7-4.3-6.3-5.2-3-13.4-3-18.7,0-2.8,1.6-4.4,3.9-4.4,6.4v16.7c0,0-1.4-.8-1.4-.8l-.2-56.8c0-2.5-1.6-4.7-4.3-6.3-5.2-3-13.4-3-18.7,0-2.8,1.6-4.4,3.9-4.4,6.4v41.8c.1,0-1.4-.8-1.4-.8l-.3-71.4c0-2.5-1.6-4.7-4.3-6.3-5.2-3-13.4-3-18.7,0-2.8,1.6-4.4,3.9-4.4,6.4l.2,68.1-17.8,11c-2.1,1.2-3.2,2.9-3.2,4.8,0,0,0,.1,0,.2h0v12.8c0,1,.4,2,1,2.9.6.9,1.6,1.7,2.8,2.3l40.3,22,39.3,21.4c0,0,.2,0,.3.1.4.2.7.4,1.2.5.2,0,.3,0,.5.2.2,0,.5.2.7.2,0,0,.1,0,.2,0l1.2.3c.3,0,.6,0,.8.1s.6,0,.9,0c.4,0,.7,0,1.1,0,1.2,0,2.4-.1,3.6-.4,0,0,0,0,.2,0,.2,0,.5-.1.7-.2.4,0,.8-.2,1.1-.4.6-.2,1.2-.5,1.7-.8l14.8-9.1,6.3-3.9.6-.4c1.8-1.2,2.8-2.8,2.8-4.6ZM317.1,197.1c0,1.2-1,2.5-2.7,3.5-4.2,2.4-11.2,2.4-15.3,0-1.7-1-2.7-2.3-2.7-3.5l-.2-37.7c.3.2.6.4.9.6,2.6,1.5,6,2.3,9.3,2.3s6.7-.7,9.3-2.3c.4-.2.7-.5,1.1-.7v26.9c.1,0,.1,0,.1,0v10.8ZM267.2,118.6c.3.2.6.4,1,.6,2.6,1.5,6,2.3,9.3,2.3s6.7-.7,9.3-2.3c.4-.2.7-.5,1.1-.7l.2,62.7c0,1.2-1,2.5-2.7,3.5-4.2,2.4-11.2,2.4-15.3,0-1.7-1-2.7-2.3-2.7-3.5l-.2-62.7ZM238.2,88.2c.3.2.6.4,1,.6,2.6,1.5,6,2.3,9.3,2.3s6.7-.7,9.3-2.3c.4-.2.7-.4,1.1-.7l.2,77.3c0,1.2-1,2.5-2.7,3.5-4.2,2.4-11.2,2.4-15.3,0-1.7-1-2.7-2.3-2.7-3.5l-.2-77.3ZM219,164.4l16.1-9.9v11c0,2.5,1.6,4.7,4.4,6.3,2.6,1.5,6,2.3,9.3,2.3s6.7-.7,9.3-2.3c2.8-1.7,4.4-3.9,4.4-6.4v-7.8s1.5.8,1.5.8v22.9c0,2.5,1.6,4.7,4.4,6.3,2.6,1.5,6,2.3,9.3,2.3s6.7-.7,9.3-2.3c2.8-1.6,4.4-3.9,4.4-6.4v-7.8s1.4.8,1.4.8v22.9c.1,2.5,1.7,4.7,4.5,6.3,2.6,1.5,6,2.3,9.3,2.3s6.7-.7,9.3-2.3c2.8-1.6,4.4-3.9,4.4-6.4v-7.8s10.2,5.6,10.2,5.6c1.2.7,2,1.5,2,2.3s0,.2,0,.3c-.1.6-.7,1.3-1.6,1.9l-10.6,6.5-10.4,6.4c-.1,0-.3.1-.5.2-.2,0-.5.2-.7.3,0,0-.2,0-.3,0-.3,0-.7.2-1.1.3-.1,0-.2,0-.4,0-.4,0-.8.1-1.2.2h-.3c-.4,0-.9,0-1.3,0h-.4c-.4,0-.7,0-1.1,0-.2,0-.4,0-.5,0-.3,0-.6,0-.9-.2-.2,0-.5-.1-.7-.2-.1,0-.3,0-.4-.1-.4-.1-.8-.3-1.1-.5l-79.7-43.4c-.8-.5-1.4-1-1.7-1.5,0,0,0-.1-.1-.2,0,0,0,0,0,0,0-.2,0-.3,0-.5,0-.8.7-1.7,1.7-2.3h0Z"/></svg>