<?xml version="1.0" encoding="UTF-8"?><svg id="a" xmlns="http://www.w3.org/2000/svg" viewBox="0 0 400 400"><path d="M217.7,179.4h-6.8c-.3,0-.5,0-.7.2l-19.6,9.7c-.6.3-1,1-.9,1.7l1.5,11.2c0,.5.4.9.8,1.2.4.3,1,.3,1.4.1l9-3.4v45c0,.9.7,1.7,1.7,1.7h13.7c.9,0,1.7-.7,1.7-1.7h0v-64c0-.9-.7-1.7-1.7-1.7Z"/><path d="M330,149.4v-35.4c0-2.1-1.5-3.7-3.5-4-.3-1.7-1.6-3-3.3-3.3-.3-1.7-1.6-3-3.3-3.3-.3-1.7-1.6-3-3.3-3.3-.3-1.7-1.6-3-3.3-3.3-.3-1.7-1.6-3-3.3-3.3-.3-1.7-1.6-3-3.3-3.3-.3-1.7-1.6-3-3.3-3.3-.3-1.7-1.6-3-3.3-3.3-.3-1.7-1.6-3-3.3-3.3-.3-1.7-1.6-3-3.3-3.3-.3-1.7-1.6-3-3.3-3.3,0-.5-.2-.9-.5-1.4,0,0,0,0,0,0-.2-.4-.5-.7-.8-1-.1-.1-.3-.2-.4-.3-.3-.2-.5-.4-.8-.5-.5-.2-1-.3-1.5-.3h-14.4c-4,0-7.3,3.3-7.3,7.3v2.8c0,8.9-4.3,18.3-15.6,21.3,0,0,0-.2-.1-.3-.4-.2-.7-.4-1-.6v1.1c-2,.4-4.1.7-6.5.7-17.2,0-23.3-11.5-23.3-22.2v-10.1h-58.8c-4,0-7.3,3.3-7.3,7.3v2.8c0,8.9-4.3,18.4-15.6,21.3,0-.1-.1-.2-.1-.3-.4-.2-.7-.4-1-.6v1.1c-2,.4-4.1.7-6.5.7-17.2,0-23.3-11.5-23.3-22.2v-10.1h-21.9c-2.2,0-3.9,1.6-4.1,3.7,0,.2,0,.3,0,.5h0v42.7c0,.5.1,1,.3,1.5.1.3.3.5.5.8,0,.1.2.3.3.4.3.3.6.6,1,.8,0,0,0,0,0,0,.4.2.9.4,1.4.5.2,0,.5.1.7.1h195.6c4,0,7.3,3.3,7.3,7.3h0c0,4-3.3,7.3-7.3,7.3H83.1c-2.2,0-4,1.8-4.2,4,0,0,0,.2,0,.2h0v145.7h0c0,.5.1,1,.3,1.5.1.3.3.5.5.8,0,.1.2.3.3.4.3.3.6.6,1,.8,0,0,0,0,0,0,.4.2.9.4,1.4.5h0c.3,1.7,1.6,3,3.3,3.3.3,1.7,1.6,3,3.3,3.3.3,1.7,1.6,3,3.3,3.3.3,1.7,1.6,3,3.3,3.3.3,1.7,1.6,3,3.3,3.3.3,1.7,1.6,3,3.3,3.3.3,1.7,1.6,3,3.3,3.3.3,1.7,1.6,3,3.3,3.3.3,1.7,1.6,3,3.3,3.3.3,1.7,1.6,3,3.3,3.3.3,1.7,1.6,3,3.3,3.3.4,2,2,3.5,4.1,3.5h195.6c6.3,0,11.5-5.1,11.5-11.5v-138.4c0-2.1-1.5-3.7-3.5-4-.3-1.7-1.6-3-3.3-3.3-.3-1.7-1.6-3-3.3-3.3-.3-1.7-1.6-3-3.3-3.3-.3-1.7-1.6-3-3.3-3.3,0-.5-.3-1-.5-1.4h5.8c6.3,0,11.5-5.1,11.5-11.5ZM260.5,261.4c0,5.8-4.7,10.6-10.6,10.6H104.6c-5.8,0-10.6-4.7-10.6-10.6v-100.2c0-5.8,4.7-10.6,10.6-10.6h145.3c5.8,0,10.6,4.7,10.6,10.6v100.2Z"/><path d="M165.4,209.5c7.4-3.5,11-8.6,11-15.6s-9-15.5-22.4-15.5-13.9,1.2-19,3.5c-.7.3-1,1-.9,1.7l1.5,11.2c0,.5.4,1,.9,1.2.5.2,1,.3,1.5,0,4.3-2.1,8.6-3.2,12.5-3.2,7.4,0,7.4,2.8,7.4,4.5,0,2.5-1.3,5.8-12.2,6.6-.9,0-1.5.8-1.5,1.7v11.2c0,.9.7,1.6,1.6,1.6,12.7.7,15.1,3.3,15.1,8.1s-4,6.6-9.8,6.6-9.8-.8-15-2.8c-.5-.2-1-.1-1.4.1-.4.3-.7.7-.8,1.2l-1.5,11.2c-.1.8.3,1.5,1,1.8,4.7,1.9,10.8,3,16.3,3,17.4,0,28.7-8.7,28.7-22s-6.5-13.8-12.8-16.3Z"/><path d="M119.1,84s0,0,0,0c.3,1.1.9,1.9,1.6,2.6.2.1.3.3.5.4l1.4.8c1.5.6,3.3,1,5.7,1,6.9,0,9.8-2.5,9.8-8.6v-20.2c0-1.8-.3-3.2-.8-4.4-.3-.7-.7-1.3-1.1-1.8,0,0,0,0-.1-.1-.2-.2-.4-.4-.7-.6-.1,0-.3-.2-.4-.3-.2-.1-.5-.3-.7-.4-.4-.2-.8-.3-1.3-.5-.2,0-.4-.1-.7-.2-.4,0-.8-.2-1.2-.2-.2,0-.4,0-.7,0-.7,0-1.4-.1-2.1-.1h0c-2.1,0-3.7.3-5.1.7-.9.3-1.8.7-2.4,1.3-1.2,1-1.9,2.5-2.1,4.5,0,.7-.1,1.4-.1,2.1v20.2c0,.7,0,1.4.1,2.1,0,.6.2,1.2.4,1.7Z"/><path d="M232,85.9s0,0,0,0c.3,1.1.9,1.9,1.6,2.6.2.1.3.3.5.4l1.4.8c1.5.6,3.3,1,5.7,1,6.9,0,9.8-2.5,9.8-8.6v-20.2c0-1.8-.3-3.2-.8-4.4-.3-.7-.7-1.3-1.1-1.8,0,0,0,0-.1-.1-.2-.2-.4-.4-.7-.6-.1,0-.3-.2-.4-.3-.2-.1-.5-.3-.7-.4-.4-.2-.8-.3-1.3-.5-.2,0-.4-.1-.7-.2-.4,0-.8-.2-1.2-.2-.2,0-.4,0-.7,0-.7,0-1.4-.1-2.1-.1h0c-2.1,0-3.7.3-5.1.7-.9.3-1.8.7-2.4,1.3-1.2,1-1.9,2.5-2.1,4.5,0,.7-.1,1.4-.1,2.1v20.2c0,.7,0,1.4.1,2.1,0,.6.2,1.2.4,1.7Z"/></svg>