<?xml version="1.0" encoding="UTF-8"?><svg id="a" xmlns="http://www.w3.org/2000/svg" viewBox="0 0 400 400"><path d="M336.3,184.2h0c-2.1-4.8-36.7-88.8-38.5-93.7-.5-2-1.4-3.9-2.8-5.4l-.2-.2c-14.9-15-30.7-30.8-49.7-49.7-2.2-2.3-5.9-3.4-8.6-3.4h-.2s-.2,0-.2,0c-1.6.1-17,0-30.5,0-14.6,0-31.2-.1-39,0-4,0-7.8,2-10.1,5.1l-.3.4c-1.1,2-11.4,19.5-24.3,41.7-23.7,40.5-56.2,96-68.3,117.1l-.2.3c-2.3,5-.9,11.3,3.5,15,6.6,6.4,13.2,13.1,19.6,19.6,9.8,10,20,20.3,30.5,29.9l.4.4.5.3c2,1.1,4.4,1.6,7.1,1.5h8.1c1.8,0,3.6,0,5.2,0-1.6,6.6-4,16.1-6.1,24.2-2.1,8.5-3.8,15.2-4,16.1-1.2,4.6.4,9.5,4.1,12.8,6.5,6.5,13.1,13.1,19.4,19.4,9.6,9.6,19.6,19.6,29.4,29.3l.3.3c2.2,1.8,5.1,2.8,7.9,2.8,1.4,0,2.9-.2,4.2-.8,1.9-.6,3.7-1.9,5.1-3.5.5-.5,1-1.1,1.6-1.8.9-1,2.1-2.5,3.8-4.5,3-3.6,7.3-8.9,13.2-16.1,10.9-13.4,25.6-31.5,41.1-50.7,29.2-36.1,62.4-77,76-93.3h0c3-3.8,3.7-9,1.6-13.3ZM167.5,143.1h93.7l-107.2,131.4,20.9-83.8h-88.6L170.2,47h54.1s-56.8,96.1-56.8,96.1Z"/></svg>