<?xml version="1.0" encoding="UTF-8"?><svg id="a" xmlns="http://www.w3.org/2000/svg" viewBox="0 0 115 115"><path d="M89,37.7h0s0,0,0-.1c0-1.3-.6-2.4-1.6-3.1-.2-.3-.5-.5-.7-.7-.2-.3-.5-.5-.7-.7-.2-.3-.5-.5-.7-.7-.2-.3-.5-.5-.7-.7-.2-.3-.5-.5-.7-.7-.2-.3-.5-.5-.7-.7-.2-.3-.5-.5-.7-.7-.2-.3-.5-.5-.7-.7-.2-.3-.5-.5-.7-.7-.2-.3-.5-.5-.7-.7-.2-.3-.5-.5-.7-.7-.2-.3-.5-.5-.7-.7-.2-.3-.5-.5-.7-.7-.2-.3-.5-.5-.7-.7,0,0,0,0,0,0-.2-.2-.3-.4-.5-.6,0,0-.1,0-.2-.1-.1,0-.3-.2-.4-.3-.1,0-.2-.1-.4-.2,0,0-.1,0-.2,0-.2,0-.4-.1-.6-.2,0,0,0,0-.1,0-.2,0-.5,0-.7,0s0,0,0,0h-8c-.1-.3-.4-.6-.7-.7-.1-.4-.4-.6-.7-.7-.1-.4-.4-.6-.7-.7-.1-.4-.4-.6-.7-.7h0c0-.2-.2-.4-.4-.6,0,0,0,0,0,0,0,0-.2-.1-.3-.2,0,0,0,0,0,0-.1,0-.2,0-.3,0,0,0,0,0,0,0h0s-13.8,0-13.8,0h0s0,0,0,0c-.2,0-.5,0-.7.2-.3.2-.5.6-.5,1s0,0,0,0v2.5h-11s0,0,0,0c-.8,0-1.6.2-2.2.7-1,.7-1.7,1.9-1.7,3.3h0s0,0,0,.1h0v52.9h0s0,0,0,0c0,0,0,0,0,0h0c0,.2,0,.5,0,.7,0,0,0,0,0,.1,0,.2.1.4.2.6,0,0,0,.1,0,.2,0,.1.1.2.2.4,0,.1.2.3.3.4,0,0,0,.1.1.2.2.2.4.4.6.5,0,0,0,0,0,0,.2.3.5.5.7.7.2.3.5.5.7.7.2.3.5.5.7.7.2.3.5.5.7.7.2.3.5.5.7.7.2.3.5.5.7.7.2.3.5.5.7.7.2.3.5.5.7.7.2.3.5.5.7.7.2.3.5.5.7.7.2.3.5.5.7.7.2.3.5.5.7.7.2.3.5.5.7.7.2.3.5.5.7.7.7.9,1.8,1.6,3.1,1.6s.1,0,.2,0h0s37.8,0,37.8,0c0,0,.1,0,.2,0,2.2,0,3.9-1.8,3.9-3.9s0,0,0,0h0v-52.9ZM70.3,75.8h-31.2V29.8h3.7v2.3s0,0,0,0c0,.7.6,1.4,1.4,1.4s0,0,0,0h0s21,0,21,0c.8,0,1.4-.6,1.4-1.4s0,0,0,0v-2.3h3.7v46Z"/><path d="M46.6,44.3c0-.5-.4-.9-.9-.9s0,0,0,0h0s-1.9,0-1.9,0c-.5,0-.9.4-.9.9v1.9h0c0,.5.4.9.9.9h1.9s0,0,0,0c.5,0,.9-.4.9-.9h0v-1.9h0Z"/><path d="M66.6,44.3c0-.5-.4-.9-.9-.9h-14.5c-.5,0-.9.4-.9.9v1.9h0c0,.5.4.9.9.9h14.5c.5,0,.9-.4.9-.9h0v-1.9h0Z"/><path d="M46.6,51.8c0-.5-.4-.9-.9-.9s0,0,0,0h0s-1.9,0-1.9,0c-.5,0-.9.4-.9.9v1.9h0c0,.5.4.9.9.9h1.9s0,0,0,0c.5,0,.9-.4.9-.9h0v-1.9h0Z"/><path d="M66.6,51.8c0-.5-.4-.9-.9-.9h-14.5c-.5,0-.9.4-.9.9v1.9h0c0,.5.4.9.9.9h14.5c.5,0,.9-.4.9-.9h0v-1.9h0Z"/><path d="M46.6,59.2c0-.5-.4-.9-.9-.9s0,0,0,0h0s-1.9,0-1.9,0c-.5,0-.9.4-.9.9v1.9h0c0,.5.4.9.9.9h1.9s0,0,0,0c.5,0,.9-.4.9-.9h0v-1.9h0Z"/><path d="M66.6,59.2c0-.5-.4-.9-.9-.9h-14.5c-.5,0-.9.4-.9.9v1.9h0c0,.5.4.9.9.9h14.5c.5,0,.9-.4.9-.9h0v-1.9h0Z"/></svg>