<?xml version="1.0" encoding="UTF-8"?><svg id="a" xmlns="http://www.w3.org/2000/svg" width="400" height="400" viewBox="0 0 400 400"><path d="M201.299,87.477c-13.744.676-28.192,12.037-26.713,26.718,14.924.586,27.324-11.809,26.713-26.718Z"/><path d="M213.938,127.552c-6.455-7.434-14.333-11.75-24.465-10.42-5.074.666-8.809,4.234-14.184,4.234-10.773,0-16.112-10.07-30.141-.75-20.986,13.942-13.37,45.912,1.964,61.132,13.731,13.629,16.561,3.073,28.225,2.699,7.716-.247,12.184,6.315,20.42,3.657,6.667-2.152,16.352-17.846,18.207-24.67-17.679-5.107-16.867-29.381-.027-35.881Z"/><path d="M367.107,126.546c-.057-3.289-1.736-7.103-4.376-9.233l-.173-.173c-22.143-22-43.971-44.366-66.317-66.125-1.992-1.515-4.694-2.328-7.271-2.358h-19.062c-56.516.015-217.319-.019-219.27.007-6.291.131-11.633,5.063-12.105,11.38-.14,38.024-.014,100.431-.055,136.512,0,13,0,21.621,0,22.068.038,2.884,1.123,6.116,3.146,8.259,21.643,21.699,43.332,43.334,64.996,65.016,2.377,2.691,5.584,4.712,9.29,4.846,1.838.164,4.705-.162,6.499.13.978,2.76,2.391,5.396,4.747,7.345,21.091,21.093,42.172,42.174,63.265,63.266,3.431,4.057,7.787,5.258,13.076,4.876,13.949,0,70.618,0,72.291,0,6.457.109,101.46-90.939,101.46-90.939,0,0-10.155-151.995-10.143-154.877ZM296.416,221.901c0,.948-.771,1.719-1.719,1.719h-85.293c-12.727,0-23.081,10.355-23.081,23.081v14.636c0,12.727,10.354,23.08,23.081,23.08h6.42c.948,0,1.719.772,1.719,1.72v11.35c0,.948-.771,1.719-1.719,1.719h-75.434c-.948,0-1.719-.77-1.719-1.719v-11.35c0-.948.771-1.72,1.719-1.72h4.777c12.727,0,23.081-10.353,23.081-23.08v-14.636c0-12.727-10.354-23.081-23.081-23.081H56.589c-.948,0-1.719-.77-1.719-1.719V64.309c0-.948.771-1.72,1.719-1.72h238.108c.948,0,1.719.772,1.719,1.72v157.592Z"/></svg>