<?xml version="1.0" encoding="UTF-8"?><svg id="a" xmlns="http://www.w3.org/2000/svg" viewBox="0 0 115 115"><defs><style>.b{fill:#060606;}</style></defs><path class="b" d="M23.2,84.6c2.3,3.2,4.5,6.7,6.4,10.2,2.1,3.8,5.2,5.5,10,5.5s.1,0,.2,0c10.4,0,20.9,0,31.1,0,5.8,0,11.6,0,17.4,0,7.3,0,10-2.6,10-9.8,0-5.7,0-11.4,0-17v-14.8c0-6.2,0-12.4,0-18.6,0-3.4-.7-5.5-2.4-7-4.9-4.4-10-8.7-14.9-12.9l-.2-.2c-1.5-1.3-3-1.4-4.8-.4-1.6.9-3.2,1.7-4.8,2.5-.9.5-1.9.9-2.8,1.4-3.3,1.7-4.1,1.8-5.7-.8-.2-.3-.3-.5-.6-.9-3.6-5.4-8.8-7.8-14.8-7-6.6.9-11.1,4.8-13,11.3-.7,2.3-1.6,4.1-3.8,5.3-1.9,1-3.7,2.7-5,4.8-1.2,1.8-2.7,3.7-6,3.6,0,0,0,0,0,0-1.8,0-2.5,2.1-2.6,2.7-.3,1.1.2,2.3,1.1,2.6,3.1,1.1,3,3.5,3,5.4v.4c0,3.1,0,6.3,0,9.4,0,5.4,0,11,0,16.6,0,3.1.7,5.5,2.3,7.8ZM42.6,25.5c1.9-2.9,4-4.4,6.3-4.5,2.4,0,4.8,1.4,7,4.4l1.2,1.6h-15.6l1-1.5ZM27.6,47.3c.4-7.4,7.1-13.5,15.2-13.7,5.4-.2,10.2-.2,14.6,0,3.5.1,6.6-.6,9.4-2.2,1.3-.8,2.8-1.5,4.4-2.2.8-.4,1.7-.8,2.7-1.3l1.8-.9-.3,1.9c-.8,4.6.2,7.3,3.4,9.5,1.6,1.1,2.4,2.8,3.1,4.4l.3.7c.6,1.2,1,2,1.8,2.1,3.7.5,3.6,3.3,3.6,5.2v.2c0,.3,0,.7,0,1,0,1.8.1,4.6-3.8,5-.6,0-1.1,1.2-1.5,2.1-.1.3-.2.5-.3.7-1.7,3.5-3.8,5.7-6.6,6.9-3.5,1.5-4.9,3.6-4.5,7,0,.8.1,1.9-.6,2.7-.5.5-1.2.8-2.1.9-2.2.1-3.3-.9-3.5-3.1q-.6-5.4-6.1-5.4c-2,0-4,0-6,0-2.3,0-4.7,0-7,0-2.6,0-5.1,0-7.7-.7-1.4-.3-2.4-.3-3.1.3-.8.5-1.2,1.6-1.3,3,0,.9,0,1.9,0,2.9,0,.7,0,1.7-.7,2.4-.5.5-1.2.8-2.2.8h0c-2.1,0-3.1-1-3.1-3,0-2.8,0-5.7,0-8.5,0-6.1,0-12.3.2-18.5Z"/><path class="b" d="M70.8,46c.7.7,1.6,1.2,2.3,1.1,1.4,0,3.1-1.8,3.2-3.2,0-1.4-1.7-3.2-3.1-3.2,0,0,0,0,0,0-1.4,0-3.1,1.6-3.2,3,0,.7.3,1.6,1,2.3Z"/></svg>