<?xml version="1.0" encoding="UTF-8"?><svg id="a" xmlns="http://www.w3.org/2000/svg" width="400" height="400" viewBox="0 0 400 400"><path d="M335.613,139.161c-.8-9.295-4.282-14.43-10.429-20.653-23.488-23.783-56.521-53.021-78.839-71.445-4.815-3.976-6.979-5.762-12.79-6.261-18.132-1.559-37.939-.823-57.101-.109-16.132.599-32.81,1.22-48.448.47-5.303,1.12-9.794,6.755-9.8,12.299l13.99,54.997-2.074.797c-29.681,11.403-55.688,35.248-71.351,65.42-16.231,31.268-19.705,65.256-9.781,95.704,4.584,14.063,33.945,58.182,44.611,68.573,4.269,4.158,9.609,6.974,14.681,7.745l201.963.374c12.656-.897,23.254-11.043,25.311-24.2-1.818-28.439-.725-58.749.333-88.062,1.155-32.018,2.35-65.124-.276-95.648ZM217.665,65.492l-7.279,34.572-55.106.138-8.05-34.71h70.436ZM292.383,249.115c-2.93,30.296-30.218,55.987-62.125,58.488-13.02,1.021-30.767,1.531-48.648,1.531s-35.826-.508-49.373-1.525c-33.937-2.551-60.582-28.206-63.357-61.001-2.514-29.709,6.517-58.671,25.428-81.553,18.975-22.959,45.732-37.135,75.345-39.914,33.937-3.182,66.905,8.538,90.464,32.162,23.837,23.904,35.599,57.369,32.268,91.812Z"/><path d="M213.181,223.356c-4.337-7.679-14.667-13.092-23.781-17.868-2.983-1.563-5.801-3.04-8.128-4.457l-.863-.521c-3.581-2.153-5.179-3.248-5.53-6.619-.336-3.224-.479-6.763,1.018-8.559.886-1.063,2.453-1.669,4.793-1.852,8.08-.622,17.222.795,25.754,4.008l3.381,1.272v-29.278l-1.341-.701c-4.375-2.288-9.543-3.028-14.069-3.474v-8.813h-29.3v10.589c-11.154,2.906-18.702,10.485-20.846,21.045-1.339,6.599-1.308,19.126.064,25.292,3.158,14.191,15.692,20.531,26.752,26.124,3.604,1.823,7.009,3.545,10.109,5.49,4.193,2.63,4.893,3.952,4.68,8.845-.13,2.981-1.285,5.814-8.796,6.354-9.027.645-19.228-.984-28.727-4.597l-3.389-1.288v29.947l1.613.611c5.893,2.236,12.15,3.105,17.353,3.54v8.773h27.39l1.911-1.907v-8.64c13.801-3.259,22.496-12.858,23.402-26.012.875-12.715-.254-21.646-3.45-27.305Z"/></svg>