<?xml version="1.0" encoding="UTF-8"?><svg id="a" xmlns="http://www.w3.org/2000/svg" viewBox="0 0 400 400"><defs><style>.b{fill:#060606;}</style></defs><path class="b" d="M341.5,156.6c-22.9-26.3-47.8-51.5-71.8-75.9-6.3-6.4-12.6-12.8-18.9-19.3-5.9-6-10.8-8.8-15.5-8.8h0c-4.6,0-9.4,2.7-15,8.4-3.8,3.8-7.4,8-11,12.1-9.6,11-19.4,22.3-32.9,28.4-23,10.5-38.8,27.4-52.4,44.1-38.8,47.7-63.1,87.7-78.8,129.6-5.9,15.8-3,24.8,10.4,32.4,13.6,7.7,26.3,17.4,37.2,25.8,14.6,11.4,31.2,16.7,50.7,16.3,19.4-.5,39.1-.3,58.2-.2,8.3,0,16.6,0,24.8,0h27.4c20.9,0,41.9,0,62.8,0,27.7-.1,37.5-9.9,37.6-37.4,0-16.5,0-33.1,0-49.6,0-23.3,0-47.5.2-71.2.1-13.5-3.9-24.2-13-34.7ZM141.7,166.2c13.8-17.3,26.9-33.6,48.8-41.6,11.5-4.2,19.6-14,27.5-23.5,1.2-1.5,2.5-3,3.7-4.4,4.9-5.8,9.2-8.5,13.5-8.5h0c4.4,0,8.6,2.8,14,9.2,4,4.8,8.8,9.3,13.4,13.6,13.5,12.8,27.6,26,26.7,49.8v2.3c0,0-2.3-.6-2.3-.6q-27.6-7-43.5,16.8c-6.7,10.1-10.1,15.2-14.9,16.1-.4,0-.9.1-1.3.1-4.5,0-9.6-3.8-18.3-10.3-7.4-5.6-14.3-12.1-19.8-18.8-8.4-10.4-16.2-11.3-26.7-3.1-1.1.9-2.2,1.8-3.3,2.8-4.5,4.1-10.1,9.2-19.3,6.4l-2.6-.8,4.4-5.5ZM310.2,274.6c-2,2.4-5.5,3.5-11.2,3.5h-.3c-55.7-.3-110.3-.3-168.1-.2h-56.6s.7-2.3.7-2.3c6.3-20.2,16-36.2,25.4-51.6l2.3-3.8c1.9-3.1,4.3-6.5,9.4-7.2,19.8-2.9,37.9-10.1,53.9-21.4,7.2-5,11.1-.5,13.9,2.8.5.6,1,1.1,1.5,1.7,10.7,11.2,23.9,20.4,40.5,28.3,14,6.7,22.8,4.3,29.2-8,2.6-4.9,5.9-9.9,10.2-15.2,1-1.2,1.8-2.8,2.7-4.4,2.7-5,6.3-11.8,16.3-7.6,1.7.7,3.5,1.3,5.2,1.8,7.3,2.3,15.6,5,16.5,18.1,1,13.3,3.8,26.8,6.6,39.8,1.1,5,2.1,9.9,3.1,14.9,1,5.2.6,8.6-1.4,10.9Z"/><path class="b" d="M99.8,67.1h0c-3.8,0-12.6,6.2-19.6,13.8-5.1,5.5-8.2,10.7-8.1,13.2,1,14.6,9.3,14.4,19.8,14.1,1.2,0,2.4,0,3.6,0s3.2,0,4.7.2c2.7-.3,5.6-.2,8.3-.2,9.8.3,17.5.4,19.2-12.7.4-2.8-2.7-8.4-7.8-14.2-7.1-8-15.9-14.3-20.1-14.3Z"/></svg>