<?xml version="1.0" encoding="UTF-8"?><svg id="a" xmlns="http://www.w3.org/2000/svg" viewBox="0 0 400 400"><path d="M366.8,230.6c0-3.2-32-36.1-32.9-36.8l14.4-25h0c1.2-2.8,1.2-6.1-.5-8.9-.9-1.5-104.1-104.4-104.7-105,0,0-1.3-1.2-2.1-1.7-2.1-1.2-4.5-1.5-6.7-1.1-.7.1-1.5.4-2.2.7h0c0,0-25.8,14.8-25.8,14.8-.6-.6-28.2-28.2-28.2-28.2h0c-1.3-1.8-3.3-3.1-5.5-3.7-.8-.2-1.5-.3-2.3-.3s-1.6.1-2.3.3c-.6.1-1.1.3-1.6.6-1.6.7-2.9,1.8-3.9,3.2h0c0,0-19.6,33.8-19.6,33.8l-33.7-19.4h0c-2.1-.8-4.4-1-6.7-.4-.7.2-1.5.5-2.2.9-2.3,1.3-3.8,3.5-4.5,5.9-.1.5-.3,1-.4,1.5h0v39.1h-38.9c-3,.4-5.8,2.1-7.4,4.9-.8,1.4-1.2,2.9-1.3,4.4s.2,3,.8,4.4h0s0,0,0,0l19.2,33.3-34.4,19.9h0c-.6.5-1.2,1-1.6,1.6-1.5,1.7-2.4,3.9-2.4,6.3s.4,3.1,1.1,4.5c.7,1.3,31.1,31.7,31.8,32.3l-14.4,25h0c-.6,1.4-.9,2.9-.8,4.4,0,1.5.5,3,1.3,4.4,0,0,0,0,0,0,.4.8,3.6,3.5,3.6,3.5,0,0,101.6,102.2,103.1,103.1,2.8,1.6,6.1,1.7,8.8.5h0c0,0,25.8-14.8,25.8-14.8.6.6,1.2,1,1.9,1.4,0,0,31.5,30.7,34.2,30.7s8-4,8-4l19.6-33.9,33.7,19.4h0c2.8,1.1,6,1.1,8.8-.5,2.8-1.6,4.5-4.4,4.8-7.4h0v-39.1h38.9c3-.4,5.8-2.1,7.4-4.9,1.6-2.8,1.7-6.1.5-8.8h0s-19.2-33.3-19.2-33.3l34.4-19.9h0c2.4-1.9,4-4.7,4-7.9ZM303.5,183.5l-38.7,21.5,20.6,37.1.2.5c.5,1.3.4,2.7-.3,3.8-.7,1.2-1.9,1.9-3.3,2l-43.4-.7-.8,43.1v.6c-.3,1.4-1,2.5-2.2,3.2-1.2.7-2.6.7-3.8.1l-37.2-22.3-22.2,36.9-.3.5c-1.7,2.2-5.2,2.2-6.9-.1l-.2-.3-20.7-37.3-38.6,21.4-.5.2c-1.3.5-2.7.4-4-.4l-.7-.6c-.7-.7-1.1-1.6-1.2-2.6l.7-43.9-43.4-.8h-.6c-.5-.1-1.1-.3-1.7-.7-.3-.2-.6-.4-.8-.7l-.2-.2c-.2-.2-.3-.4-.3-.4l-.3-.6c-.2-.5-.3-1-.4-1.6,0-.7.1-1.3.4-2l22.5-37.6-37.2-22.3-.5-.4c-.5-.4-1-.9-1.3-1.5-.3-.6-.4-1.2-.4-1.9,0-1.3.7-2.6,1.8-3.4l38.7-21.5-20.6-37.1-.2-.5c-.3-.6-.4-1.3-.3-2,0-.7.2-1.3.6-1.9.7-1.2,1.9-1.9,3.3-2l43.4.7.8-43.2v-.4c.1-.2.2-.4.3-.7.2-.8.8-1.9,1.9-2.5,1.2-.7,2.6-.7,3.9-.1l37.2,22.3,22.2-36.9.4-.5c.6-.8,1.5-1.4,2.5-1.6.6-.1,1.4-.1,2,0,.9.3,1.8.9,2.4,1.7l20.9,37.6,38.5-21.4.5-.2c1.3-.5,2.7-.5,3.8.2.2.1.4.3.7.5l.2.2c.3.3.5.6.6.9.3.6.5,1.1.6,1.7l-.7,43.9,43.4.8h.6c.6.1,1.2.3,1.7.7l.6.5c.2.2.4.3.4.4.2.2.3.4.3.3l.3.7h0c.4,1.1.4,2.3,0,3.4l-22.5,37.6,37.2,22.3.5.4c1.1.8,1.7,2.1,1.7,3.5,0,1.3-.7,2.6-1.8,3.4Z"/><path d="M158.5,222.2l-26.3-43.9,12.9-12.5,42.8,28.1-8.6,8.3-10-6.4-7.9,8,6.1,9.8-9,8.7ZM156.3,195.7l5-4.8-.3-1.1-15.1-10.1,10.4,16Z"/><polygon points="206.1 107 212.4 113.6 200.3 125.2 207.7 132.8 218 122.9 224.7 129.8 214.3 139.8 222 147.7 234.1 136 240.7 142.9 219.3 163.6 184.7 127.7 206.1 107"/><path d="M118.7,192.6l7.3,7.6c-3.4,1.5-13.5,7.9-12.5,11.8s3.1,4.1,5.6,3.8c6.9-.8,16.5-8.7,23.5-3.2,8.7,6.9,9.5,13.3,2.9,22.1-3.8,5.1-10,10.4-15.8,12.9l-7.2-7.4c2.2-1.1,4.7-2.4,6.7-3.9,3.4-2.5,12.4-10.1,5-13.1-3.6-1.5-15.7,7-22.8,4.6-3.1-1-9.1-7.2-10.3-10.3-3.7-9,10.5-21.3,17.6-25Z"/><polygon points="168.1 143.7 195.9 172.5 196.9 172.5 207.8 162 214.1 168.6 193.4 188.6 158.8 152.7 168.1 143.7"/></svg>