<?xml version="1.0" encoding="UTF-8"?><svg id="a" xmlns="http://www.w3.org/2000/svg" viewBox="0 0 400 400"><path d="M328.6,201.6l-2.8-2.8s0,0,0,0l-2.8-2.8s0,0,0,0l-2.8-2.8s0,0,0,0l-2.8-2.8s0,0,0,0l-2.8-2.8s0,0,0,0l-2.8-2.8s0,0,0,0l-2.8-2.8s0,0,0,0l-2.8-2.8s0,0,0,0l-2.8-2.8s0,0,0,0l-2.8-2.8s0,0,0,0l-2.8-2.8s0,0,0,0l-2.8-2.8s0,0,0,0l-2.8-2.8s0,0,0,0l-2.8-2.8s0,0,0,0l-2.2-2.2v-31.1h0c.3-4.9-2.2-9.4-5.9-12.2-.8-1.1-1.8-2-2.8-2.8-.8-1.1-1.8-2-2.8-2.8-.8-1.1-1.8-2-2.8-2.8-.8-1.1-1.8-2-2.8-2.8-.8-1.1-1.8-2-2.8-2.8-.8-1.1-1.8-2-2.8-2.8-.8-1.1-1.8-2-2.8-2.8-.8-1.1-1.8-2-2.8-2.8-.8-1.1-1.8-2-2.8-2.8-.8-1.1-1.8-2-2.8-2.8-.8-1.1-1.8-2-2.8-2.8-.8-1.1-1.8-2-2.8-2.8-.8-1.1-1.8-2-2.8-2.8-.8-1.1-1.8-2-2.8-2.8,0,0,0,0,0,0-2.8-3.7-7.4-6-12.1-5.8h-30.2c-.5-1.2-1.5-2.2-2.7-2.6-.4-1.3-1.5-2.4-2.8-2.8-.4-1.3-1.5-2.4-2.8-2.8-.4-1.3-1.5-2.4-2.8-2.8h0c-.3-.9-.9-1.6-1.6-2.2,0,0,0,0,0,0-.8-.5-1.7-.8-2.6-.9h0s0,0,0,0h0c-13,0-39.3,0-52.2,0h0s0,0-.1,0c-2.6,0-4.7,2.4-4.5,4.6,0,.3,0,9.6,0,9.6,0,0-41.5,0-41.5,0-8,0-14.9,6.6-14.8,14.8,0,.1,0,.3,0,.4h0v199.6h0c0,4.6,2.2,9,5.9,11.8,0,0,0,0,0,0,.8,1.1,1.8,2,2.8,2.8.8,1.1,1.8,2,2.8,2.8.8,1.1,1.8,2,2.8,2.8.8,1.1,1.8,2,2.8,2.8.8,1.1,1.8,2,2.8,2.8.8,1.1,1.8,2,2.8,2.8.8,1.1,1.8,2,2.8,2.8.8,1.1,1.8,2,2.8,2.8.8,1.1,1.8,2,2.8,2.8.8,1.1,1.8,2,2.8,2.8.8,1.1,1.8,2,2.8,2.8.8,1.1,1.8,2,2.8,2.8.8,1.1,1.8,2,2.8,2.8.8,1.1,1.8,2,2.8,2.8,2.8,3.7,7.4,6.2,12.4,5.8h0c0,0,142.8,0,142.8,0,8.5.7,15.8-6.4,15.6-14.9h0v-37.8c0-1.7-1.3-3.1-2.9-3.4-.2-1.5-1.4-2.6-2.8-2.8-.2-1.5-1.4-2.6-2.8-2.8-.2-1.5-1.4-2.6-2.8-2.8-.2-1.5-1.4-2.6-2.8-2.8-.2-1.5-1.4-2.6-2.8-2.8-.2-1.5-1.4-2.6-2.8-2.8,0-.5-.3-1-.5-1.4l62.2-62.2c1.4-1.3,1.4-3.6,0-4.9ZM195.9,226l5.2-19.4,14.2,14.2-19.4,5.2ZM98.5,99.1h14.1v8.7c0,0,0,.2,0,.3,0,2.8,2.3,5.1,5.1,5.1s0,0,0,0h0s79.3,0,79.3,0c2.8,0,5.1-2.3,5.1-5.1s0,0,0-.1v-8.9h14.1v24.7h0c0,2,1.5,3.5,3.5,3.5h21.2l-1.8,27.3,18.8-18.8-63.9,63.9h.1c0,.1-.2,0-.2,0l-8.7,32.6h0,0s0,0,0,0c-.2.6-.2,1.2-.1,1.9.1.6.4,1.2.9,1.7.5.5,1.2.9,1.9,1,.1.7.4,1.3.9,1.9.5.5,1.2.9,1.9,1,.1.7.4,1.3.9,1.9.5.5,1.2.9,1.9,1,.1.7.4,1.3.9,1.9.5.5,1.2.9,1.9,1,.1.7.4,1.3.9,1.9.5.5,1.2.9,1.9,1,.1.7.4,1.3.9,1.9.5.5,1.2.9,1.9,1,.1.7.4,1.3.9,1.9.5.5,1.2.9,1.9,1,.1.7.4,1.3.9,1.9.5.5,1.2.9,1.9,1,.1.7.4,1.3.9,1.9.5.5,1.2.9,1.9,1,.1.7.4,1.3.9,1.9.5.5,1.2.9,1.9,1,.1.7.4,1.3.9,1.9.5.5,1.2.9,1.9,1,0,0,0,.2,0,.2v7.3h-117.8V99.1Z"/></svg>