<?xml version="1.0" encoding="UTF-8"?><svg id="a" xmlns="http://www.w3.org/2000/svg" viewBox="0 0 115 115"><path d="M99.7,58.5l-.8-.8s0,0,0,0l-.8-.8s0,0,0,0l-.8-.8s0,0,0,0l-.8-.8s0,0,0,0l-.8-.8s0,0,0,0l-.8-.8s0,0,0,0l-.8-.8s0,0,0,0l-.8-.8s0,0,0,0l-.8-.8s0,0,0,0l-.8-.8s0,0,0,0l-.8-.8s0,0,0,0l-.8-.8s0,0,0,0l-.8-.8s0,0,0,0l-.8-.8s0,0,0,0l-.6-.6v-8.4h0c0-1.3-.6-2.5-1.6-3.3-.2-.3-.5-.5-.8-.8-.2-.3-.5-.5-.8-.8-.2-.3-.5-.5-.8-.8-.2-.3-.5-.5-.8-.8-.2-.3-.5-.5-.8-.8-.2-.3-.5-.5-.8-.8-.2-.3-.5-.5-.8-.8-.2-.3-.5-.5-.8-.8-.2-.3-.5-.5-.8-.8-.2-.3-.5-.5-.8-.8-.2-.3-.5-.5-.8-.8-.2-.3-.5-.5-.8-.8-.2-.3-.5-.5-.8-.8-.2-.3-.5-.5-.8-.8,0,0,0,0,0,0-.8-1-2-1.6-3.3-1.6h-8.2c-.1-.3-.4-.6-.7-.7-.1-.4-.4-.6-.8-.8-.1-.4-.4-.6-.8-.8-.1-.4-.4-.6-.8-.8h0c0-.2-.2-.4-.4-.6,0,0,0,0,0,0-.2-.1-.5-.2-.7-.2h0s0,0,0,0h0c-3.5,0-10.6,0-14.1,0h0s0,0,0,0c-.7,0-1.3.6-1.2,1.2,0,0,0,2.6,0,2.6,0,0-11.2,0-11.2,0-2.2,0-4,1.8-4,4,0,0,0,0,0,.1h0v54h0c0,1.2.6,2.4,1.6,3.2,0,0,0,0,0,0,.2.3.5.5.8.8.2.3.5.5.8.8.2.3.5.5.8.8.2.3.5.5.8.8.2.3.5.5.8.8.2.3.5.5.8.8.2.3.5.5.8.8.2.3.5.5.8.8.2.3.5.5.8.8.2.3.5.5.8.8.2.3.5.5.8.8.2.3.5.5.8.8.2.3.5.5.8.8.2.3.5.5.8.8.8,1,2,1.7,3.4,1.6h0s38.6,0,38.6,0c2.3.2,4.3-1.7,4.2-4h0v-10.2c0-.5-.3-.8-.8-.9,0-.4-.4-.7-.8-.8,0-.4-.4-.7-.8-.8,0-.4-.4-.7-.8-.8,0-.4-.4-.7-.8-.8,0-.4-.4-.7-.8-.8,0-.4-.4-.7-.8-.8,0-.1,0-.3-.1-.4l16.8-16.8c.4-.4.4-1,0-1.3ZM63.8,65.1l1.4-5.2,3.8,3.8-5.2,1.4ZM37.5,30.7h3.8v2.3s0,0,0,0c0,.8.6,1.4,1.4,1.4s0,0,0,0h0s21.4,0,21.4,0c.8,0,1.4-.6,1.4-1.4s0,0,0,0v-2.4h3.8v6.7h0c0,.5.4.9.9.9h5.7l-.5,7.4,5.1-5.1-17.3,17.3h0s0,0,0,0l-2.4,8.8h0,0s0,0,0,0c0,.2,0,.3,0,.5,0,.2.1.3.2.5.1.1.3.2.5.3,0,.2.1.4.3.5.1.1.3.2.5.3,0,.2.1.4.3.5.1.1.3.2.5.3,0,.2.1.4.3.5.1.1.3.2.5.3,0,.2.1.4.3.5.1.1.3.2.5.3,0,.2.1.4.3.5.1.1.3.2.5.3,0,.2.1.4.3.5.1.1.3.2.5.3,0,.2.1.4.3.5.1.1.3.2.5.3,0,.2.1.4.3.5.1.1.3.2.5.3,0,.2.1.4.3.5.1.1.3.2.5.3,0,.2.1.4.3.5.1.1.3.2.5.3,0,0,0,0,0,0v2h-31.9V30.7Z"/></svg>