<?xml version="1.0" encoding="UTF-8"?><svg id="a" xmlns="http://www.w3.org/2000/svg" viewBox="0 0 400 400"><path d="M306.7,129.6h0c0-.1,0-.3,0-.4,0-4.7-2.3-8.9-5.8-11.6-.8-1.1-1.7-2-2.8-2.8-.8-1.1-1.7-2-2.8-2.8-.8-1-1.7-2-2.8-2.8-1.1-1.4-2.4-2.6-3.9-3.6-.2-.3-.5-.6-.8-.8-1.2-2-2.8-3.5-4.8-4.8-.2-.3-.5-.6-.8-.8-1.2-2-2.8-3.5-4.8-4.8-.2-.3-.5-.6-.8-.8-1.2-2-2.8-3.5-4.8-4.8-.2-.3-.5-.6-.8-.8-1.2-2-2.8-3.6-4.8-4.8-.2-.3-.5-.6-.8-.8-1-1.6-2.2-2.9-3.6-4-.6-.8-1.3-1.5-2-2.2-.2-.2-.4-.3-.6-.5-.5-.4-1-.7-1.5-1-.4-.3-.9-.5-1.3-.7-.3-.1-.5-.3-.8-.4-.7-.3-1.4-.5-2.2-.7-.2,0-.4,0-.5,0-.9-.2-1.7-.3-2.6-.3s-.2,0-.3,0h-29.3c-.3,0-.6-.2-.7-.5-.5-1-1.4-1.7-2.5-2.1-.4-1.1-1.1-2-2.1-2.5-.9-1.6-2.1-2.9-3.8-3.8-.5-1-1.4-1.7-2.5-2.1-.3-.9-.8-1.6-1.6-2.2,0,0,0,0,0,0-.3-.2-.7-.4-1.1-.6,0,0-.2,0-.2,0-.4-.1-.8-.2-1.3-.2,0,0,0,0,0,0h0s0,0,0,0h-51.4s0,0-.1,0h0c-2.5,0-4.4,2-4.4,4.4s0,0,0,0v9.4h-40.9s0,0,0,0h0c-2,0-3.9.4-5.7,1.2-5.2,2.2-8.9,7.4-8.9,13.5h0c0,.1,0,.3,0,.4h0v196.7h0s0,0,0,0c0,0,0,0,0,0,0,.9.1,1.8.3,2.6,0,.2,0,.4,0,.5.2.8.4,1.5.7,2.2.1.3.2.6.4.8.2.5.5.9.7,1.3.3.5.7,1,1,1.5.2.2.3.4.5.6.7.7,1.4,1.4,2.2,2,0,0,0,0,0,0,1.1,1.4,2.4,2.6,4,3.6.2.3.5.6.8.8,1.2,2,2.8,3.6,4.8,4.8.2.3.5.6.8.8,1.2,2,2.8,3.6,4.8,4.8.2.3.5.6.8.8,1.2,2,2.8,3.6,4.8,4.8.2.3.5.6.8.8,1,1.5,2.2,2.9,3.6,4,.8,1.1,1.7,2,2.8,2.8.8,1.1,1.7,2,2.8,2.8.8,1,1.7,2,2.8,2.8.8,1.1,1.7,2,2.8,2.8.8,1.1,1.7,2,2.8,2.8,2.7,3.5,6.9,5.8,11.6,5.8s.4,0,.6,0h0c0,0,140.8,0,140.8,0,.3,0,.5,0,.8,0,8.1,0,14.6-6.5,14.6-14.6s0-.1,0-.2h0v-196.7ZM121,100.5h13.9s0,8.6,0,8.6c0,0,0,.2,0,.3,0,2.8,2.3,5.1,5.1,5.1s0,0,0,0h0s78.1,0,78.1,0c2.8,0,5.1-2.3,5.1-5.1s0,0,0-.1v-8.7s13.9,0,13.9,0c0,0,0,171.1,0,171.1h-116.1V100.5Z"/></svg>