<?xml version="1.0" encoding="UTF-8"?><svg id="a" xmlns="http://www.w3.org/2000/svg" viewBox="0 0 115 115"><defs><style>.b{fill:#060606;}</style></defs><path class="b" d="M91.1,32c-3.1-2.3-6.1-4.8-9.1-7.3l-2.2-1.8c-2.7-2.2-5.7-3.2-9.1-3.2-5.3,0-10.7,0-16,0-2.9,0-5.8,0-8.7,0-4.8,0-9.7,0-14.4,0-7.7,0-11.8,4.2-11.9,11.8-.1,9.8-.1,19.7,0,29.3,0,4.6,0,9.2,0,13.8,0,3.4,1.4,5.8,4.4,7.7,5.6,3.5,11,7.2,16.1,10.8,2.2,1.5,4.6,2.2,7.4,2.2h0c6.6,0,13.2,0,19.9,0,6.3,0,12.5,0,18.8,0,6.6,0,8.9-2.3,8.9-9.2,0-5.2,0-10.3,0-15.5,0-2.3,0-4.5,0-6.8s0-4.5,0-6.8c0-5.3,0-10.7,0-16.1,0-4-1.2-6.7-4.3-9ZM77.6,70.9c0,4.5-2.1,6.6-6.6,6.7-6.8,0-13.4,0-19.8,0s-13.3,0-19.8,0c-4.4,0-6.3-2-6.3-6.8,0-4.5,0-9.1,0-13.6,0-1.9,0-3.8,0-5.7,0-1.9,0-3.8,0-5.6,0-4.5,0-9.1,0-13.7,0-5.4,1.7-7.1,7-7.1,12.9,0,25.9,0,38.6,0,5,0,6.9,1.9,6.9,6.8,0,13.2,0,26.3,0,39.1Z"/><path class="b" d="M62.4,36.2c-7.9-.1-14.8-.1-22.2,0-2.7,0-3.9,1.3-4,4.3-.2,3.2-.2,6.3,0,9.2.2,2.8,1.4,4,4.2,4.1,7.2.1,14.4,0,21.6,0,3.3-.1,4-1.4,4.1-3.6.2-3.1.2-6.6,0-10.7-.2-2.8-2.1-3.4-3.8-3.4Z"/><path class="b" d="M59.5,64.9c-2.6.6-6.1-1.1-6.6,2.9.7,4.6,8.2,2.4,11.6,2.4,1.6-.3,1.9-1.7,1.9-2.4.3-3-4.7-2.8-6.8-2.8Z"/><path class="b" d="M38.9,65.1c-1.2,0-2.6,1.5-2.6,2.7,0,1.2,1.5,2.6,2.7,2.6,1.2,0,2.6-1.5,2.6-2.7,0-1.2-1.4-2.7-2.6-2.6Z"/></svg>