<?xml version="1.0" encoding="UTF-8"?><svg id="a" xmlns="http://www.w3.org/2000/svg" viewBox="0 0 115 112"><path d="M98.9,36.8c0-2.2-1.1-4.2-2.7-5.6-.3-.4-.6-.7-1-1-.3-.4-.6-.7-1-1-.3-.4-.6-.7-1-1-.3-.4-.6-.7-1-1-.3-.4-.6-.7-1-1-.3-.4-.6-.7-1-1-.3-.4-.6-.7-1-1-.3-.4-.6-.7-1-1-.3-.4-.6-.7-1-1-.3-.4-.6-.7-1-1-.3-.4-.6-.7-1-1-.3-.4-.6-.7-1-1-.3-.4-.6-.7-1-1-.3-.4-.6-.7-1-1,0,0,0,0,0,0-.2-.2-.3-.4-.5-.5,0,0-.1-.1-.2-.2-.1-.1-.2-.2-.4-.3,0,0-.2-.1-.2-.2-.1,0-.2-.2-.4-.3,0,0-.2-.1-.3-.2-.1,0-.3-.1-.4-.2,0,0-.2,0-.3-.1-.1,0-.3-.1-.4-.2,0,0-.2,0-.3-.1-.1,0-.3,0-.4-.1,0,0-.2,0-.3,0-.2,0-.3,0-.5,0,0,0-.2,0-.3,0-.3,0-.5,0-.8,0h0s-53.4,0-53.4,0h0c-2.5,0-4.7,1.3-6,3.3-.5.8-.9,1.6-1.1,2.6-.1.5-.2,1-.2,1.4h0v53.4h0c0,.3,0,.5,0,.8,0,0,0,.2,0,.2,0,.2,0,.3,0,.5,0,0,0,.2,0,.3,0,.2,0,.3.1.5,0,0,0,.2.1.3,0,.1.1.3.2.4,0,0,0,.2.1.3,0,.1.1.3.2.4,0,0,0,.2.2.2,0,.1.2.3.3.4,0,0,.1.1.2.2.1.1.2.3.4.4,0,0,0,0,.1.1.2.2.4.3.6.5,0,0,0,0,0,0,.3.4.6.7,1,1,.3.4.6.7,1,1,.3.4.6.7,1,1,.3.4.6.7,1,1,.3.4.6.7,1,1,.3.4.6.7,1,1,.3.4.6.7,1,1,.3.4.6.7,1,1,.3.4.6.7,1,1,.3.4.6.7,1,1,.3.4.6.7,1,1,.3.4.6.7,1,1,.3.4.6.7,1,1,.3.4.6.7,1,1,1.3,1.6,3.3,2.6,5.6,2.7h0s53.4,0,53.4,0h0c4-.1,7.2-3.3,7.3-7.3h0v-53.4h0ZM50,40.9c4.2,0,7.6,3.4,7.6,7.6s-3.4,7.6-7.6,7.6-7.6-3.4-7.6-7.6,3.4-7.6,7.6-7.6Z"/></svg>