<?xml version="1.0" encoding="UTF-8"?><svg id="a" xmlns="http://www.w3.org/2000/svg" viewBox="0 0 115 115"><defs><style>.b{fill:#080808;}</style></defs><path class="b" d="M28.3,86.3c1.4,1,3.1,2.3,5,3.8,2.6,2,5.3,3,8.5,2.9,5.4,0,10.8,0,16.1,0,2.2,0,4.4,0,6.7,0,2.5,0,4.9,0,7.4,0,5.5,0,11.3,0,16.9,0,6.1,0,8.8-2.8,8.9-8.7,0-10.7,0-21.5,0-32,0-5.2,0-10.4,0-15.6,0-2.9-1-5.3-3-7.2-5.6-5.3-10.3-9.8-15.1-14.4-2.1-2-4.5-3-7.7-3h-.1c-8.7,0-18.8.1-28.8,0,0,0,0,0-.1,0-2.4,0-4.2.8-6.1,2.7-3.5,3.7-8.1,8.4-13,13-2,1.9-2.8,3.9-2.8,6.7,0,6.1,0,12.2,0,18.2,0,4.4,0,8.7,0,13.1,0,2,0,3.8,0,5.3q0,9.9,7.1,15.3ZM27.7,35.2c0-3.2,2.2-5,4.3-6.7,1.2-1,2.5-2.1,3.4-3.5l1.3-1.9.5,2.3c0,.5.2.9.3,1.3.4,1.9.6,3,1.6,3.7.9.6,2,.8,2.9.4,1-.4,1.7-1.4,1.9-2.6.3-1.6.2-3.3.2-5,0-.4,0-.9,0-1.3,0-.8,0-3.2,2.8-3.3,1.1,0,2,.3,2.6.8.6.6.8,1.4.8,2.5,0,1.1,0,2.3,0,3.4,0,.5,0,1,0,1.5,0,1.6.3,2.7.9,3.2.5.5,1.2.7,2.2.7,1.5,0,3.1-.6,3-4.1v-.7c0-1.1,0-2.2,0-3.4,0-.2,0-.5,0-.7,0-.8-.1-1.7.6-2.5.5-.5,1.2-.8,2.3-.9,1.2,0,2,.2,2.5.8.8.8.7,1.9.7,2.7,0,.3,0,.5,0,.8,0,.8,0,1.6,0,2.4,0,.5,0,1.1,0,1.6,0,3.5,1.7,3.9,3.3,3.9h0c1.4,0,2.9-.4,3-3.7,0-1.7,0-3.4,0-5.4,0-1.1.2-1.8.7-2.4.5-.5,1.2-.8,2.2-.8.7,0,1.8.1,2.5.9.5.5.7,1.2.7,2.1,0,0,0,.2,0,.2v.2s0,11.7,0,11.7c0,13.8,0,27.5,0,41.3,0,.7,0,1.7-.8,2.5-.7.7-1.8.8-2.5.8-16.6,0-29.3,0-41.1,0h0c-1,0-1.7-.2-2.2-.7-.8-.8-.8-1.9-.8-2.8,0-4.1,0-8.2,0-12.3,0-9,0-18.2.1-27.3Z"/></svg>