<?xml version="1.0" encoding="UTF-8"?><svg id="a" xmlns="http://www.w3.org/2000/svg" viewBox="0 0 400 400"><defs><style>.b{stroke:#000;stroke-miterlimit:10;stroke-width:9px;}</style></defs><path class="b" d="M361.4,309.2c-9.3-9.4-18.7-18.7-28.1-28.1-5.4-5.4-10.7-10.7-16.1-16.1-1.1-1.3-2.6-2.3-4.2-2.9-8.4-2.5-17-4-25.7-4.7-.2,0-.6,0-.7-.1,0,0,0-.3.1-.5.1-.4.3-.9.5-1.3,7-19.5,8.5-40.8,4.2-61.2,6.5,2.8,27.1,11.8,27.6,12,1.1.4,2.3.7,3.5.8,9.3.4,19.3-8.8,16.9-18.5-.9-2.7-2.1-5.6-2.9-7.8-1.8-5.2-3.2-9.7-5.7-14.7-3.5-6.7-7.8-12.6-13.4-19.6-5.3-6.2-11.6-11.9-17.4-17.8-5.4-5.4-10.8-10.8-16.2-16.2-3.7-3.7-7.4-7.4-11.1-11.1-7.5-8-16-15.1-26.3-19-6.8-2.8-14.2-4.4-21.7-4.7-.5-.1-.7-.5-1-.8,0,0,0,0-.2-.2-7.5-7.5-15.1-15.1-22.6-22.6-7.4-7.2-14.7-15.4-23.2-21.3-4.9-3.5-6.6-3.9-11.8-3.4-8.4,1.2-16.5,12.2-14,20.3.3,1,.9,2.6,1.3,3.7,0,.2.2.4,0,.3-3.9-1.9-8.1-3.4-12.3-4.4-20.2-5.5-50.1,3.4-62.2,12.9-2.5,1.8-8.8,6.3-11.8,8.4-5.6,3.3-7.8,10.3-6,16.4,1,4.3,4,7.5,7.1,10.4,2.4,2.4,4.5,4.5,6.8,6.8,4,4,8,8.1,12.1,12,.4.4.8.8,1.1,1.1.2.2.5.5.6.7-2.5,3.5-5,7.2-7.2,11-6.6,11.5-11.1,23.9-13.4,37-.3,1.5.2,3,.5,4.6,1.6,6.2,7.1,10.1,11.3,14.6,8.6,8.6,17.3,17.3,25.9,25.9,4,4,7.9,7.9,12,12,3.6,4,9,6.4,14.4,6.1.2,0,.4,0,.5,0-.4,3.6-1,7.3-1.4,10.9-1.3,10.5-2.1,21.5-2.1,31.8.1.2-.3.3-.6.3-.7.1-1.5.3-2.2.4-22.5,3.9-49,9.4-69.1,16.5-18.5,6.7-29.9,13.1-36.5,22.1-2,3.3-2,7.5.1,10.8,1.4,2,3.2,3.5,4.9,5.3,8.5,8.5,17,16.9,25.4,25.5,3.2,3.2,6.4,6.4,9.7,9.7,1.5,1.6,3.1,3.1,4.7,4.7,2.3,2.6,5.5,5,9.1,4.7,3.3,0,6.4-1.8,8.3-4.4,2-2.1,3.7-3.4,6.5-5.2,17.1-10,41.3-15.5,63.6-20.3,5.7-1.2,12-2.4,18-3.4,2-.3,4.1-.8,6.1-1,.6.4,1,.9,1.5,1.4,5.1,6.2,13,8.4,20.6,8.4,16.5-1.1,32.4-5.7,46.8-13.8,1.9-1.3,3.1-3.4,3.7-5.6,0,0,.2-.2.2-.2,19-2,39.3-3.9,58.9-5.3,14.8-1.2,29.4.5,43.7,4.4,9.8,1.6,15.9-11,8.3-17.6h0ZM312.9,272.2c-.7,2.6-3.6,4.4-6.3,3.6-16.4-4.7-33.6-5.6-50.5-3.8-18.9,1.5-38.5,3.3-56.3,5.3-.3,0,0,.5,0,.8.4,2-.2,4.2-1.9,5.4-15.2,7.8-33.1,14.3-50.4,11.9-5.4-1-9.5-4.6-11.6-9.5-2.1.2-4.4.7-6.6,1-29.1,5.7-76.2,12.9-94.5,31.6-3.9,5.1-12.3-.8-8.1-6.3,19.4-21.3,67.2-28.7,96.8-34.7,13.8-3.2,10.6,2,11.1-11.5.6-23.4,4.7-47.5,9.7-70.4,5.2-23.3,10.7-42.8,17.5-64.2-6,2.5-26.7,12.2-29.6,13.4-3.3,1.6-6.1-.9-7.9-3.6-1.3,2.3-2,7.6-3.5,10.2-1,1.9-1,1.4-2.7,3-4,3.5-8.1,7-12.9,11.2-7.1,6.1-14.2,12.3-14.4,12.4-2.2,1.7-5.1,1.6-7.7.7-5-1.5-8.9-6.1-9.5-11.4,4.3-25.8,18.1-49,38.5-65.3.4-.4-3.2-.6-7.8-1.7-11.4-2.2-30.9-5.9-31.2-6,0,0-.6-.2-.9-.3-5.6-2.5-8.9-12-3.7-17,1.8-1.4,3.5-2.5,5.8-4.2,20-17.5,62.9-29.2,88.1-5.8.1.1,0,0,0,0-.2-.6-.4-1.1-.7-1.9-1.6-4.8-5.3-15.3-5.4-15.8-1.2-6.3,5.4-14.2,12.3-13.7,1.7.2,2.9.6,4.3,1.7,13.9,9.4,27.6,25.1,32.7,42.5.6,1.8.9,3.7,1.5,5.5,5.4-1.2,11.2-1.9,16.8-1.5,33.9,1.3,54.9,30.7,63.8,60.9,2.1,7-6.2,13.6-12.5,12.6-3.8-1.3-6.5-2.8-11-4.6-6.7-3-21.4-9.2-26.5-11.5,0,.3.3.8.3,1.2,3.6,12,5,24.6,4.2,37.1-.8,12.9-3.9,25.6-9.4,37.6-2.5,3.2-6.5,4.9-10.6,4.7-4,.3-8-1.9-9.6-5.6-.5-1.8-.8-3.1-1.5-5.5-2.4-9.7-6.5-22.8-8.4-32.4.4-3,2.9-9.8,3.2-11.3-1.5.4-3.2,1.1-4.8,1-3,0-4.1-2.5-5.5-4.8-2.5-3.9-7.3-12.3-6.9-11.2,1.2,47.8-1.5,76.4,7.8,115.5,9.1,0,18.5-1.7,27.7-2.6,27.9-3.1,57.8-6.4,84.9,1.5,2.6.7,4.2,3.6,3.5,6.2h0Z"/></svg>