<?xml version="1.0" encoding="UTF-8"?><svg id="a" xmlns="http://www.w3.org/2000/svg" viewBox="0 0 400 400"><path d="M281,59.8c9.1,0,16.4-7.3,16.4-16.4s-7.3-16.4-16.4-16.4-16.4,7.3-16.4,16.4,7.3,16.4,16.4,16.4Z"/><path d="M363.5,92.8c9.1,0,16.4-7.3,16.4-16.4s-7.3-16.4-16.4-16.4-16.4,7.3-16.4,16.4,7.3,16.4,16.4,16.4Z"/><path d="M380.1,159.5c-1.3-15.2-7.7-20.9-19.4-28.7-49.4-33-105.9-60.3-156.5-92.3-8.8-5.6-12.9-14.1-25.3-11.3-5.3,1.2-11.4,8.9-11.9,14.3-1,10.6,9,13.5,7.6,19.7l-108.1,245.5,1.7,7.9c16.3,15.5,35.3,55,58.5,58.4l222.4.4c15.9-1.3,28.7-14,30.9-29.6-3.8-59.6,5.1-125.5,0-184.3ZM330.5,126c9.1,0,16.4,7.3,16.4,16.4s-7.3,16.4-16.4,16.4-16.4-7.3-16.4-16.4,7.3-16.4,16.4-16.4ZM116.1,274.3l83.9-189.7,105.8,105.8-189.7,83.9ZM346.9,248.8c-3.1,18.7-15.6,34.9-34.2,40-12.7,3.5-26.6-2-31.3,14.1-3.6,12.2,5.4,32.6-12.6,36.9-23.2,5.5-23-26-20.4-41,3.2-18.1,16-33.9,34-38.9,12.6-3.5,27,1.8,31.3-14.1,3.3-12-5.3-34.1,13.7-37.2,22-3.6,21.9,25.4,19.4,40.1Z"/><path d="M98.3,122.5c4.8-15.1-1.1-27,20-29.5,10.8-1.3,26.6,3.9,30.2-11,5.2-21.7-16.9-23.4-32.7-21.7-25.1,2.7-42.1,15.5-47.5,40.5-1.6,7.4,1.9,11.6-5.9,17.4-13.6,10.1-44,.4-44,23.5,0,21.1,27.3,16.8,41.1,13.4,17.6-4.4,33.2-14.8,38.9-32.6Z"/></svg>