<?xml version="1.0" encoding="UTF-8"?><svg id="a" xmlns="http://www.w3.org/2000/svg" viewBox="0 0 400 400"><path d="M318.5,175.5c-16.1-16.1-32.2-32.2-48.3-48.3-16.2-15.6-30.3-32.5-49.5-45.3-21.8-14.4-47.6-20.5-73.6-21.5-65.6,0-119,43.7-119,97.3s.9,13.7,2.7,20.4c2,5.3,4,10.7,6.6,15.8,3.3,6.9,8.3,13.2,10.2,19.5,2.4,6.7-.3,13.5-4,19.2-6.3,9.4-6.4,16.8,1.6,25.1,7.8,8.2,16.1,16.1,24.1,24.1.3.6.8,1,1.3,1.3.3.6.8,1,1.3,1.3.3.6.8,1,1.3,1.3.3.6.8,1,1.3,1.3.3.6.8,1,1.3,1.3.3.6.8,1,1.3,1.3.3.6.8,1,1.3,1.3.3.6.8,1,1.3,1.3.3.6.8,1,1.3,1.3.3.6.8,1,1.3,1.3.3.6.8,1,1.3,1.3.3.6.8,1,1.3,1.3.3.6.8,1,1.3,1.3.3.6.8,1,1.3,1.3.3.6.8,1,1.3,1.3.3.6.8,1,1.3,1.3.3.6.8,1,1.3,1.3.3.6.8,1,1.3,1.3.3.6.8,1,1.3,1.3.3.6.8,1,1.3,1.3.3.6.8,1,1.3,1.3.3.6.8,1,1.3,1.3.3.6.8,1,1.3,1.3.3.6.8,1,1.3,1.3.3.6.8,1,1.3,1.3.3.6.8,1,1.3,1.3.3.6.8,1,1.3,1.3.3.6.8,1,1.3,1.3.3.6.8,1,1.3,1.3.3.6.8,1,1.3,1.3.3.6.8,1,1.3,1.3.3.6.8,1,1.3,1.3.3.6.8,1,1.3,1.3.3.6.8,1,1.3,1.3.7,1.2,2,1.9,3.4,1.9s21.7-.2,40.6-11.9c20.1,11.6,43.8,17.8,68.6,17.8,65.6,0,119-43.7,119-97.3s-10.3-45.2-27.4-62ZM36.1,157.8c-.3-47.3,45-81.9,90.9-88,26.1-4.1,55.8.3,77.7,11.4,19.1,9.5,38.6,25.1,45.3,46.3,14.1,55.3-37.6,103.2-92,111.7-19.7,3.3-40.1,3-59.3-2.3-6.5-1.9-12.9-3.6-19.6-3.7-1.7,0-3.4,0-5.1.2-5.7.5-11.7,2.5-15.4,3.1-1.5.2-3.5.4-4.3-1.1-1.2-2.3,2-8.4,2.3-15,0-1.7,0-3.4-.4-5.1-1.3-6.9-5.5-12.7-9-18.7-7.3-12.1-11.1-25.6-11.2-38.7v-.2Z"/><path d="M126.4,160.5c14.8.5,17.9-20.5,12.6-31-5-11.1-18.6-11-23.4.4-4.7,10.1-2.3,28.9,10.6,30.6h.2ZM122.9,133.3c3.9-8.6,10-2.4,10.6,6.4.2,3.6-.6,7.6-2.6,10.5-2.8,4.3-6.3,2.1-8.1-2.1-2-4.1-2-10.6,0-14.6v-.2Z"/><path d="M165.7,154.9c-12.9,1.7-15.4,20.5-10.6,30.6,4.8,11.3,18.4,11.5,23.4.4,5.3-10.5,2.2-31.5-12.6-31h-.2ZM171.4,167.2c2,4,2,10.5,0,14.6-1.8,4.1-5.2,6.4-8.1,2.1-2-2.9-2.8-6.9-2.6-10.5.6-8.8,6.6-15,10.6-6.4v.2Z"/><path d="M121.1,195.3c2.9,2,9.7-5.8,12.7-10.5,8.2-11.8,21.3-30.7,29.9-43.2,3.7-5.3,6.9-9.8,8.6-13.4,4.5-9.3-.6-11.1-7-3.9-11.9,15.3-27,38.8-38.3,54.6-2.4,3.8-9.1,12.8-5.9,16.4h0Z"/></svg>