<?xml version="1.0" encoding="UTF-8"?><svg id="a" xmlns="http://www.w3.org/2000/svg" viewBox="0 0 400 400"><defs><style>.b{fill:#fff;}</style></defs><path d="M320.2,173.7c-11.1-11.1-22.1-22.2-33.2-33.2l-15.1-15.1c-4.4-4.2-8.7-8.6-12.8-12.8-11.2-11.4-22.8-23.3-37-32.7-20.4-13.4-45.5-20.8-74.9-21.9-67,0-121.5,44.8-121.5,99.8s.9,14.2,2.7,21v.2c2.2,5.7,4.2,10.9,6.7,16,1.4,2.8,3,5.6,4.5,8.2,2.3,3.8,4.5,7.5,5.5,11h0c1.7,5,.5,10.7-3.8,17.1-7.2,10.9-6.7,19.3,1.8,28.2,5.4,5.6,11.1,11.2,16.5,16.6,2.5,2.4,5,4.9,7.4,7.4.4.6.9,1.1,1.5,1.5.4.5.8.9,1.3,1.3.4.5.8,1,1.3,1.3.4.5.8,1,1.3,1.3.4.5.8.9,1.3,1.3.4.5.8,1,1.3,1.3.4.5.8.9,1.3,1.3.4.5.8,1,1.3,1.3.4.5.8,1,1.3,1.3.4.5.8.9,1.3,1.3.4.5.8,1,1.3,1.3.4.5.8,1,1.3,1.3.4.5.8.9,1.3,1.3.4.5.8,1,1.3,1.3.4.5.8,1,1.3,1.3.4.5.8,1,1.3,1.3.4.5.8,1,1.3,1.3.4.5.8.9,1.3,1.3.4.5.8,1,1.3,1.3.4.5.8,1,1.3,1.3.4.5.8.9,1.3,1.3.4.5.8,1,1.3,1.3.4.5.8,1,1.3,1.3.4.5.8,1,1.3,1.3.4.5.8,1,1.3,1.3.4.5.8.9,1.3,1.3.4.5.8,1,1.3,1.3.4.5.8,1,1.3,1.3.4.5.8.9,1.3,1.3.4.5.8,1,1.3,1.3.4.5.8,1,1.3,1.3.4.5.8,1,1.3,1.3.4.5.8.9,1.3,1.3.4.5.8.9,1.3,1.3,1.2,1.6,3.1,2.6,5.2,2.6s21.4-.1,40.7-11.5c20.2,11.4,43.9,17.4,68.5,17.4,67,0,121.5-44.8,121.5-99.8s-10-45.9-28.1-63.8ZM57.6,229.7c.7-2.6,1.5-5.8,1.6-9.2,0-1.9,0-3.8-.4-5.7-1.2-6.2-4.4-11.5-7.5-16.6-.6-1-1.2-1.9-1.8-2.9-7-11.6-10.8-24.5-10.8-37.4v-.2c-.3-46.2,44.9-79.7,88.8-85.5,25.4-4,54.6.3,76.2,11.1,13.3,6.6,36.6,21.2,44,44.7,5.2,20.4,1.4,41-10.9,59.7-16.6,25.1-46.9,43.9-79.1,48.9-20.3,3.4-40.4,2.6-58.2-2.3-6.1-1.8-13.1-3.7-20.2-3.8-.2,0-.4,0-.6,0-1.6,0-3.2,0-4.8.2-3.7.3-7.4,1.2-10.7,2-1.9.5-3.6.9-4.9,1.1-.8.1-1.4.1-1.7.1,0-.8.5-2.9.9-4.4Z"/><path class="b" d="M118,113c-12.8,1.3-15.2,14.6-13.8,25.2s5.9,14.9,15.2,15.5c15.5,1,20.1-11.2,18.6-24.6-1.3-11.9-8-17.4-20-16.1ZM167.5,113.6h-12l-37.9,82.1h11.6l38.3-82.1ZM161.2,155.7c-12.8,1.3-15.4,14-14.1,24.8s7.6,16.8,18.8,16c13.3-1,16.3-13.5,15-24.8-1.3-11.5-8-17.1-19.7-15.9Z"/><path d="M118,113c12-1.2,18.7,4.3,20,16.1,1.5,13.4-3.1,25.6-18.6,24.6-9.3-.6-14.1-6.6-15.2-15.5s1-23.9,13.8-25.2ZM119.7,124.2c-.7.1-1.7.9-2.1,1.5-2.2,2.9-2.3,12.8.4,15.5s4.2,1.6,5.9,0c2.5-2.4,2.4-10.7,1.3-13.8s-2.6-3.9-5.5-3.3Z"/><polygon points="167.5 113.6 129.2 195.7 117.6 195.7 155.5 113.6 167.5 113.6"/><path d="M161.2,155.7c11.7-1.2,18.4,4.4,19.7,15.9,1.3,11.4-1.7,23.9-15,24.8-11.3.8-17.5-5-18.8-16s1.3-23.5,14.1-24.8ZM162.7,166.9c-2.4.5-3.4,4.2-3.5,6.3-.2,3.1-.4,10.9,3.6,11.8,6.5,1.5,6.4-8,6-12s-1.9-6.9-6.1-6.1Z"/></svg>