<?xml version="1.0" encoding="UTF-8"?><svg id="a" xmlns="http://www.w3.org/2000/svg" viewBox="0 0 400 400"><defs><style>.b{fill:#070707;}.c{fill:#050505;}.d{fill:#0f0f0f;}</style></defs><path class="b" d="M107,66.9c-31.4.5-48,17.4-48,48.8,0,21.6.3,43.5.6,64.7.2,18.2.5,36.5.5,54.7,0,16.4,5.9,29.7,17.7,40.7,23.1,21.3,47.6,44,71.7,67.4,9.4,9.1,19.9,13.1,33.5,12.9,26.6-.5,53.7-.8,79.9-1,17.3-.2,34.5-.3,51.8-.6,27.8-.4,36.7-9.7,36.5-38.2-.1-19.4-.4-38.8-.6-58.2l-.3-26.1c0-6.1-.1-12.1-.2-18.2-.1-13-.2-26.5-.5-39.7-.2-9.1-.2-16.5-.2-22.6q0-29.2-21-51.2c-4.4-4.6-9.6-10.1-16-17-11.5-12.5-24.6-18.4-41.1-18.4s-.7,0-1,0c-23.9.3-47.8.6-71.8.8-30,.3-61.1.6-91.6,1.1ZM268.7,91.6c21.1-.2,24.6,3.2,24.9,23.5.6,43.2,1,81.7,1.3,117.6.1,17.9-4.6,22.9-22,23.2-52.4.9-107.4,1.5-163.3,1.8-.2,0-.4,0-.6,0-17.5,0-21.9-4.5-22.2-22.2-.6-38.2-1.1-78.4-1.3-119.3-.1-19.1,3.4-22.5,23.5-22.8,18.7-.3,37.4-.5,56.1-.7l48.5-.5c18.4-.2,36.8-.4,55.1-.5Z"/><path class="c" d="M215,188.6c-3.7,4.3-6.7,6.2-9.7,5.9-3.9-.3-6.5-4.3-9.2-9-6.7-11.4-13.7-22.9-20.6-34-4.1-6.6-8.2-13.2-12.2-19.9-2-3.3-2.8-3.6-3.1-3.6,0,0-.8-.2-2.8,3.4-17.8,32.3-33.7,60.9-48.7,87.2-2.2,3.8-1.8,4.9-1.7,5,.2.4,1.2.9,5.7.8,18.6-.3,37.5-.5,55.8-.7l43.1-.5c18.6-.2,37.1-.4,55.6-.5,5.2,0,5.8-.8,5.8-.9,0,0,.4-1-2.6-4.7-3.7-4.5-7.2-9.2-10.7-13.8-3.2-4.2-6.4-8.4-9.7-12.6-1.9-2.3-3.6-5.2-5.2-7.9-3.4-5.6-6.8-11.4-11.3-11.8-5.3-.5-9.9,5.8-14.4,11.9-1.4,1.9-2.8,3.8-4.2,5.5Z"/><path class="d" d="M235.3,137.9c1.3,8,5.8,11.9,13.5,11.6,7.2-.3,11-4.3,12.4-12.7-1.7-8.3-5.8-12.2-13-12.5-.1,0-.3,0-.4,0-3.4,0-6.9,1.7-9.5,4.6-2.4,2.7-3.5,6-3,9.1Z"/></svg>