<?xml version="1.0" encoding="UTF-8"?><svg id="a" xmlns="http://www.w3.org/2000/svg" viewBox="0 0 115 115"><defs><style>.b{stroke:#000;stroke-miterlimit:10;stroke-width:2px;}</style></defs><path class="b" d="M88.1,34.9c-.3-.3-.7-.7-1-1-.3-.3-.7-.7-1-1-.3-.3-.7-.7-1-1-.3-.3-.7-.7-1-1-.3-.3-.7-.7-1-1-.3-.3-.7-.7-1-1-.3-.3-.7-.7-1-1-.3-.3-.7-.7-1-1-.3-.3-.7-.7-1-1-.3-.3-.7-.7-1-1-.3-.3-.7-.7-1-1-.3-.3-.6-.5-.9-.8-.4-.4-.8-.8-1.2-1.2-.4-.4-.8-.7-1.2-1.1,0,0,0,0,0,0-.4-.4-.8-.7-1.2-1,0,0,0,0,0,0-.4-.3-.8-.7-1.3-1,0,0,0,0,0,0-.4-.3-.8-.6-1.3-.9,0,0,0,0,0,0-.4-.3-.8-.5-1.3-.8,0,0,0,0-.1,0-.4-.2-.8-.5-1.3-.7,0,0-.1,0-.2,0-.4-.2-.8-.4-1.3-.6,0,0-.1,0-.2-.1-.4-.2-.8-.4-1.2-.5,0,0-.2,0-.3-.1-.4-.2-.8-.3-1.2-.5-.1,0-.2,0-.3-.1-.4-.1-.8-.3-1.2-.4-.1,0-.3,0-.4-.1-.4-.1-.8-.2-1.1-.3-.2,0-.3,0-.5-.1-.4,0-.7-.2-1.1-.2-.2,0-.3,0-.5-.1-.4,0-.7-.1-1.1-.2-.2,0-.4,0-.6,0-.4,0-.7,0-1.1-.1-.2,0-.4,0-.6,0-.4,0-.8,0-1.2,0-.2,0-.4,0-.5,0-.6,0-1.1,0-1.7,0-.7,0-1.3.6-1.3,1.4,0,0,0,.1,0,.2h0s.3,12.1.3,12.1l.6,19.3c0,.7.6,1.3,1.4,1.3l31.4-.9h0s0,0,0,0l14.7,13.6c.7,0,1.3-.6,1.3-1.4-.4-9.3-4.6-17.6-11.1-23.3ZM52.6,42.1l-.6-26.1c13.3,1,24.5,11.2,26.7,24.4l-26,1.6Z"/><path class="b" d="M91.8,64c-.1-.5-.5-.9-1-1-.1-.5-.5-.9-1-1,0,0,0,0,0,0-.1-.5-.5-.9-1-1-.1-.5-.5-.9-1-1-.1-.5-.5-.9-1-1,0,0,0,0,0,0l-8.3-8c-.2-.5-.7-.9-1.3-.9l-30,1.2c-.8,0-1.4-.6-1.4-1.3l-1.2-30.4h0c0,0,0-.1,0-.2,0-.1,0-.2,0-.3,0-.2-.2-.4-.2-.4,0-.1-1-.6-1.2-.6,0,0,0,0,0,0h0c-.1,0-.2,0-.4,0-19.1.7-33.9,17.1-33.2,36.5,0,.6,0,1.2.1,1.8,0,.2,0,.3,0,.5,0,.4,0,.9.1,1.3,0,.2,0,.4,0,.6,0,.4.1.8.2,1.2,0,.2,0,.4.1.5,0,.4.2.8.3,1.2,0,.2,0,.3.1.5.1.4.2.8.3,1.2,0,.1,0,.3.1.4.1.4.3.8.4,1.2,0,.1,0,.2.1.4.2.4.3.9.5,1.3,0,.1,0,.2.1.3.2.4.4.9.6,1.3,0,0,0,.2.1.2.2.4.4.9.7,1.3,0,0,0,.1.1.2.2.5.5.9.8,1.3,0,0,0,0,0,.1.3.5.6.9.9,1.3,0,0,0,0,0,0,.3.5.6.9,1,1.3,0,0,0,0,0,0,.3.5.7.9,1,1.3,0,0,0,0,0,0,1.1,1.3,2.3,2.6,3.6,3.7,0,0,0,0,0,0,3.5,3.2,7.6,5.6,12.2,7.1,0,0,0,0,.1.1.3.3.7.7,1,1,.3.3.7.7,1,1,6.1,6.3,14.6,10.3,24,10.3,18.4,0,33.3-14.9,33.3-33.3s0-.2,0-.3c0,0,0,0,0,0,0-.6-.5-1.1-1.1-1.3ZM44.5,20.9h0c-.1,0-.2,0-.4,0,.1,0,.2,0,.4,0ZM45.7,81.5c-16.1.7-29.9-11.9-30.6-28-.7-14.9,10-27.8,24.4-30.2h.9s.5,1.2.5,1.2l1.1,24.8c.1,2.9,2.6,5.2,5.6,5.1l26.1-1.1c-.5,15.1-12.6,27.6-28,28.2Z"/><path class="b" d="M45.5,19.9c-.1,0-.2,0-.4,0,.1,0,.2,0,.4,0h0Z"/></svg>