<?xml version="1.0" encoding="UTF-8"?><svg id="a" xmlns="http://www.w3.org/2000/svg" viewBox="0 0 400 400"><defs><style>.b{fill:none;}</style></defs><path d="M305,69.1c.1.1.3.3.4.4-.2-.3-.5-.6-.9-.9,0,0,0,0,0,0,.2.1.3.3.4.4Z"/><path class="b" d="M176.1,211.2c-6.7,0-12,6.9-12,15.8s5.3,15.8,12,15.8,11.9-6.9,11.9-15.8-5.2-15.8-11.9-15.8ZM176.1,234.3c-1.2,0-3.5-2.8-3.5-7.4s2.3-7.4,3.5-7.4,3.5,2.8,3.5,7.4-2.2,7.4-3.5,7.4Z"/><path class="b" d="M222.6,211.2c-6.7,0-11.9,6.9-11.9,15.8s5.2,15.8,11.9,15.8,12-6.9,12-15.8-5.2-15.8-12-15.8ZM222.6,234.3c-1.2,0-3.5-2.8-3.5-7.4s2.2-7.4,3.5-7.4,3.5,2.8,3.5,7.4-2.3,7.4-3.5,7.4Z"/><path class="b" d="M96.2,67.8c-1.4.2-2.5,1-3.2,2.2.7-1.1,1.9-1.8,3.2-2,26.6-3.3,48.1,2,63.7,15.9.8.7,1.6,1.5,2.3,2.2.1.1.3.3.4.4.1.1.3.3.4.4.1.1.3.3.4.4.1.1.3.3.4.4.1.1.2.2.4.4,1.7,1.9,3.4,3.9,4.9,5.9,20-4,40.3-4,60.4,0,19.5-26.7,50.5-28.9,73-26.1.8,0,1.5.4,2.1.9h0c.1.2.3.4.4.5.1,0,.2.2.4.4,0,.1.2.2.2.3-.1-.2-.2-.4-.4-.6-.1-.1-.3-.3-.4-.4-.1-.2-.3-.3-.4-.4,0,0,0,0,0,0-.6-.4-1.3-.7-2-.8-40.3-5-61.8,10.9-72.9,26.1-20-4-40.6-4-60.5,0-1.5-2-3.1-4-5-6-.1-.1-.2-.2-.4-.4-.1-.1-.3-.3-.4-.4-.1-.1-.3-.3-.4-.4-.1-.1-.3-.3-.4-.4-.1-.1-.3-.3-.4-.4-.7-.7-1.5-1.5-2.3-2.2-12.6-11.1-32.4-19.7-63.6-15.8Z"/><path class="b" d="M278.7,253.9c22.5-17.1,34.9-39.9,34.9-64.4-.5-22.2-10.4-43.3-27.1-57.9-1.7-1.6-1.9-4.1-.5-6,10.9-13.9,15.4-31.9,12.4-49.3-36.1-3.6-54.2,11.6-63.1,25-1,1.5-2.9,2.3-4.7,1.9-20.4-4.5-42-4.5-62.4,0-1.8.4-3.7-.3-4.7-1.9-8.9-13.4-27.1-28.6-63.1-25-3,17.4,1.5,35.3,12.4,49.3,1.4,1.8,1.2,4.4-.5,6-16.7,14.6-26.6,35.7-27.1,57.9,0,24.4,12.4,47.3,34.9,64.4,1.9,1.4,2.4,4.2.9,6.2l-18.1,24.7c-2.6,3.6-1.8,8.6,1.8,11.2l20,14.6c1.7,1.3,3.9,1.8,6,1.5,2.1-.3,4-1.5,5.3-3.2l23.7-32.4c1.1-1.5,2.9-2.1,4.7-1.7,22.9,5.7,47.1,5.7,70,0,.4,0,.7-.1,1.1-.1,1.4,0,2.8.7,3.6,1.8l23.7,32.5c1.3,1.7,3.1,2.8,5.3,3.1,2.1.3,4.2-.2,5.9-1.5l20-14.6c3.6-2.6,4.4-7.7,1.8-11.2l-18.1-24.7c-1.4-2-1-4.7.9-6.2ZM135.8,159.8v-15.8c0-9.7,7.8-17.5,17.5-17.5,9.7,0,17.5,7.8,17.5,17.5v15.8c0,9.7-7.9,17.5-17.5,17.5-9.7,0-17.5-7.9-17.5-17.5ZM199.3,264.7c-32,0-57.2-16.6-57.2-37.8s25.1-37.8,57.2-37.8,57.2,16.6,57.2,37.8-25.1,37.8-57.2,37.8ZM262.9,159.8c0,9.7-7.8,17.5-17.5,17.5-9.7,0-17.5-7.9-17.5-17.5v-15.8c0-9.7,7.8-17.5,17.5-17.5s17.5,7.8,17.5,17.5v15.8Z"/><path d="M229.6,93.9c11.1-15.3,32.6-31.2,72.9-26.1.7,0,1.4.4,2,.8-.7-.7-1.6-1.2-2.6-1.4-40.3-5-61.8,10.9-72.9,26.1-19.7-4-39.9-4-59.6-.2,0,0,0,0,0,0-.1-.1-.3-.3-.4-.4-.1-.1-.3-.3-.4-.4-.1-.1-.3-.3-.4-.4-.1-.1-.3-.3-.4-.4-.1-.1-.3-.3-.4-.4-.1-.1-.3-.3-.4-.4-.1-.1-.3-.3-.4-.4-.1-.1-.3-.3-.4-.4-.1-.1-.3-.3-.4-.4-.1-.1-.3-.3-.4-.4-.1-.1-.3-.3-.4-.4-.1-.1-.3-.3-.4-.4,0,0,0,0,0,0,1.8,2,3.5,4,5,6,20-4,40.6-4,60.5,0Z"/><path d="M312.3,283.1c22.7-18.5,35.1-42.7,35.1-68.7-.4-22.7-9.7-44.3-25.8-60.3-.1-.1-.3-.3-.4-.4-.1-.1-.3-.3-.4-.4-.1-.1-.3-.3-.4-.4,0,0,0,0,0,0,11.6-16.5,15.6-37.1,11-56.7-.2-.8-.7-1.5-1.3-2-.1-.2-.3-.3-.4-.4-.1-.2-.3-.3-.4-.4-.1-.2-.3-.3-.4-.4-.1-.2-.3-.3-.4-.4-.1-.2-.3-.3-.4-.4-.1-.2-.3-.3-.4-.4-.1-.2-.3-.3-.4-.4-.1-.2-.3-.3-.4-.4-.1-.2-.3-.3-.4-.4-.1-.2-.3-.3-.4-.4-.1-.2-.3-.3-.4-.4-.1-.2-.3-.3-.4-.4-.1-.2-.3-.3-.4-.4-.1-.2-.3-.3-.4-.4-.1-.2-.3-.3-.4-.4-.1-.2-.3-.3-.4-.4-.1-.2-.3-.3-.4-.4-.1-.2-.3-.3-.4-.4-.1-.2-.3-.3-.4-.4-.1-.2-.3-.3-.4-.4-.1-.2-.3-.3-.4-.4-.1-.2-.3-.3-.4-.4-.1-.2-.3-.3-.4-.4-.1-.2-.3-.3-.4-.4-.1-.2-.3-.3-.4-.4-.1-.2-.3-.3-.4-.4-.1-.2-.3-.3-.4-.4-.1-.2-.3-.3-.4-.4-.1-.2-.3-.3-.4-.4-.1-.2-.3-.3-.4-.4-.1-.2-.3-.3-.4-.4-.1-.2-.3-.3-.4-.4-.1-.2-.3-.3-.4-.4-.1-.2-.3-.3-.4-.4-.1-.2-.3-.3-.4-.4-.1-.2-.3-.3-.4-.4-.1-.2-.3-.3-.4-.4-.1-.2-.3-.3-.4-.4-.1-.2-.3-.3-.4-.4-.1-.2-.3-.3-.4-.4-.1-.2-.3-.3-.4-.4-.1-.2-.3-.3-.4-.4-.1-.2-.3-.3-.4-.4-.1-.2-.3-.3-.4-.4-.1-.2-.3-.3-.4-.4-.1-.2-.3-.3-.4-.4-.1-.2-.3-.3-.4-.4-.1-.2-.3-.3-.4-.4-.1-.2-.3-.3-.4-.4-.1-.2-.3-.3-.4-.4-.1-.2-.3-.3-.4-.4-.1-.2-.3-.3-.4-.4-.1-.2-.3-.3-.4-.4-.1-.2-.3-.3-.4-.4-.1-.2-.3-.3-.4-.4-.1-.2-.3-.3-.4-.4-.1-.2-.3-.3-.4-.4,0,0,0,0,0,0,.1.2.3.4.4.6,0-.1-.1-.2-.2-.3-.1-.2-.3-.3-.4-.4-.1-.2-.3-.3-.4-.4h0c-.6-.6-1.4-.9-2.1-1-22.5-2.8-53.5-.6-73,26.1-20-4-40.3-4-60.4,0-1.5-2.1-3.2-4.1-4.9-5.9-.1-.1-.2-.2-.4-.4-.1-.1-.3-.3-.4-.4-.1-.1-.3-.3-.4-.4-.1-.1-.3-.3-.4-.4-.1-.1-.3-.3-.4-.4-.7-.7-1.5-1.5-2.3-2.2-15.6-13.9-37.1-19.2-63.7-15.9-1.3.2-2.5.9-3.2,2,.6-1.2,1.8-2,3.2-2.2,31.1-3.9,51,4.7,63.6,15.8-12.5-11.4-32.5-20.3-64.2-16.4-1.7.2-3.1,1.4-3.6,3-3.4,14.3-2.1,29.1,3.3,42.5,1.9,5,4.5,9.9,7.5,14.4-16.9,16-26.6,38.2-27,61.5,0,10.9,2.2,21.4,6.4,31.4,5.7,14,15.3,26.9,28.3,37.7,0,0,0,0,0,0l-15.3,20.9c-3.6,5-4.1,11.3-1.8,16.6,1.1,3.1,3.1,5.9,5.9,8l1.5,1.1c0,0,.1.1.2.2.1.1.3.3.4.4.1.1.3.3.4.4.1.1.3.3.4.4.1.1.3.3.4.4.1.1.3.3.4.4.1.1.3.3.4.4.1.1.3.3.4.4.1.1.3.3.4.4.1.1.3.3.4.4.1.1.3.3.4.4.1.1.3.3.4.4.1.1.3.3.4.4.1.1.3.3.4.4.1.1.3.3.4.4.1.1.3.3.4.4.1.1.3.3.4.4.1.1.3.3.4.4.1.1.3.3.4.4.1.1.3.3.4.4.1.1.3.3.4.4.1.1.3.3.4.4.1.1.3.3.4.4.1.1.3.3.4.4.1.1.3.3.4.4.1.1.3.3.4.4.1.1.3.3.4.4.1.1.3.3.4.4.1.1.3.3.4.4.1.1.3.3.4.4.1.1.3.3.4.4.1.1.3.3.4.4.1.1.3.3.4.4.1.1.3.3.4.4.1.1.3.3.4.4.1.1.3.3.4.4.1.1.3.3.4.4.1.1.3.3.4.4.1.1.3.3.4.4.1.1.3.3.4.4.1.1.3.3.4.4.1.1.3.3.4.4.1.1.3.3.4.4.1.1.3.3.4.4.1.1.3.3.4.4.1.1.3.3.4.4.1.1.3.3.4.4.1.1.3.3.4.4.1.1.3.3.4.4.1.1.3.3.4.4.1.1.3.3.4.4.7.7,1.4,1.3,2.2,1.9l20,14.6c3.6,2.6,8.1,3.7,12.4,3,4.4-.7,8.3-3.1,10.9-6.6l22-30.1c20.5,4.7,41.7,5.1,62.3,1.3l3,4.2c1.3,1.8,3,3.3,4.9,4.5.1.1.3.3.4.4.1.1.3.3.4.4.1.1.3.3.4.4.1.1.3.3.4.4.1.1.3.3.4.4.1.1.3.3.4.4.1.1.3.3.4.4.1.1.3.3.4.4.1.1.3.3.4.4.1.1.3.3.4.4.1.1.3.3.4.4.1.1.3.3.4.4.1.1.3.3.4.4.1.1.3.3.4.4.1.1.3.3.4.4.1.1.3.3.4.4.1.1.3.3.4.4.1.1.3.3.4.4.1.1.3.3.4.4.1.1.3.3.4.4.1.1.3.3.4.4.1.1.3.3.4.4.1.1.3.3.4.4.1.1.3.3.4.4.1.1.3.3.4.4.1.1.3.3.4.4.1.1.3.3.4.4.1.1.3.3.4.4.1.1.3.3.4.4.1.1.3.3.4.4.1.1.3.3.4.4.1.1.3.3.4.4.1.1.3.3.4.4.1.1.3.3.4.4.1.1.3.3.4.4.1.1.3.3.4.4.1.1.3.3.4.4.1.1.3.3.4.4.1.1.3.3.4.4.1.1.3.3.4.4.1.1.3.3.4.4.1.1.3.3.4.4.1.1.3.3.4.4.1.1.3.3.4.4.1.1.3.3.4.4.1.1.3.3.4.4.1.1.3.3.4.4.1.1.3.3.4.4.1.1.3.3.4.4.1.1.3.3.4.4.1.1.3.3.4.4,2.5,2.6,5.9,4.4,9.5,4.9.9.1,1.7.2,2.6.2,3.5,0,7-1.1,9.8-3.2l20-14.6c7.4-5.5,9.1-15.9,3.6-23.4l-15.6-21.4ZM277.7,260.1l18.1,24.7c2.6,3.6,1.8,8.6-1.8,11.2l-20,14.6c-1.7,1.3-3.8,1.8-5.9,1.5-2.1-.3-4-1.4-5.3-3.1l-23.7-32.5c-.8-1.1-2.2-1.8-3.6-1.8-.4,0-.7,0-1.1.1-22.9,5.7-47.1,5.7-70,0-1.8-.4-3.6.2-4.7,1.7l-23.7,32.4c-1.2,1.7-3.2,2.9-5.3,3.2-2.1.3-4.3-.2-6-1.5l-20-14.6c-3.6-2.6-4.4-7.7-1.8-11.2l18.1-24.7c1.4-2,1-4.7-.9-6.2-22.5-17.1-34.9-39.9-34.9-64.4.5-22.2,10.4-43.3,27.1-57.9,1.7-1.6,1.9-4.1.5-6-10.9-13.9-15.4-31.9-12.4-49.3,36.1-3.6,54.2,11.6,63.1,25,1,1.5,2.9,2.3,4.7,1.9,20.4-4.5,42-4.5,62.4,0,1.8.4,3.7-.3,4.7-1.9,8.9-13.4,27.1-28.6,63.1-25,3,17.4-1.5,35.3-12.4,49.3-1.4,1.8-1.2,4.4.5,6,16.7,14.6,26.6,35.7,27.1,57.9,0,24.4-12.4,47.3-34.9,64.4-1.9,1.4-2.4,4.2-.9,6.2Z"/><path d="M162.5,86.2c.1.1.3.3.4.4.1.1.3.3.4.4.1.1.3.3.4.4.1.1.2.2.4.4-1.3-1.5-2.8-2.9-4.4-4.3.8.7,1.6,1.5,2.3,2.2.1.1.3.3.4.4Z"/><path d="M170.9,159.8v-15.8c0-9.7-7.9-17.5-17.5-17.5-9.7,0-17.5,7.8-17.5,17.5v15.8c0,9.7,7.8,17.5,17.5,17.5,9.7,0,17.5-7.9,17.5-17.5Z"/><path d="M245.4,126.5c-9.7,0-17.5,7.8-17.5,17.5v15.8c0,9.7,7.9,17.5,17.5,17.5,9.7,0,17.5-7.9,17.5-17.5v-15.8c0-9.7-7.8-17.5-17.5-17.5Z"/><path d="M199.3,189.2c-32,0-57.2,16.6-57.2,37.8s25.1,37.8,57.2,37.8,57.2-16.6,57.2-37.8-25.1-37.8-57.2-37.8ZM176.1,242.8c-6.7,0-12-6.9-12-15.8s5.2-15.8,12-15.8,11.9,6.9,11.9,15.8-5.2,15.8-11.9,15.8ZM222.6,242.8c-6.7,0-11.9-6.9-11.9-15.8s5.2-15.8,11.9-15.8,12,6.9,12,15.8-5.2,15.8-12,15.8Z"/><path d="M176.1,219.6c-1.2,0-3.5,2.8-3.5,7.4s2.3,7.4,3.5,7.4,3.5-2.8,3.5-7.4-2.2-7.4-3.5-7.4Z"/><path d="M222.6,219.6c-1.2,0-3.5,2.8-3.5,7.4s2.2,7.4,3.5,7.4,3.5-2.8,3.5-7.4-2.3-7.4-3.5-7.4Z"/></svg>