<?xml version="1.0" encoding="UTF-8"?><svg id="a" xmlns="http://www.w3.org/2000/svg" viewBox="0 0 400 400"><defs><style>.b{fill:#231f20;}</style></defs><path class="b" d="M368.4,315h0s-24.2-41.7-24.2-41.7h9.5c2,0,3.6-1.6,3.6-3.6s-.2-1.2-.5-1.7h0s-22.4-38.5-22.4-38.5h5.4c1.4,0,2.6-1.2,2.6-2.6s-.1-.8-.3-1.2h0s-32.5-56.1-32.5-56.1h0c-.5-1.1-1.5-1.9-2.7-2.3l-.6-1h0c-.5-1.1-1.5-1.9-2.7-2.3l-.6-1h0c-.5-1.1-1.5-1.9-2.7-2.3l-.6-1h0c-.5-1.1-1.5-1.9-2.7-2.3l-.6-1h0c-.5-1.1-1.5-1.9-2.7-2.3l-.6-1h0c-.5-1.1-1.5-1.9-2.7-2.3l-.6-1h0c-.5-1.1-1.5-1.9-2.7-2.3l-.6-1h0c-.5-1.1-1.5-1.9-2.7-2.3l-.6-1h0c-.5-1.1-1.5-1.9-2.7-2.3l-.6-1h0c-.5-1.1-1.5-1.9-2.7-2.3l-.6-1h0c-.5-1.1-1.5-1.9-2.7-2.3l-.6-1h0c-.5-1.1-1.5-1.9-2.7-2.3l-.6-1h0c-.5-1.1-1.5-1.9-2.7-2.3l-.6-1h0c-.5-1.1-1.5-1.9-2.7-2.3l-.6-1h0c-.5-1.1-1.5-1.9-2.7-2.3l-.6-1h0c-.7-1.4-2.2-2.5-3.9-2.5s-3.2,1-3.9,2.5h0s-25.6,44.1-25.6,44.1l-42.5-73.2h0c-.6-1.3-1.7-2.3-3.1-2.9l-.2-.4h0c-.6-1.3-1.7-2.3-3.1-2.9l-.2-.4h0c-.6-1.3-1.7-2.3-3.1-2.9l-.2-.4h0c-.6-1.3-1.7-2.3-3.1-2.9l-.2-.4h0c-.6-1.3-1.7-2.3-3.1-2.9l-.2-.4h0c-.6-1.3-1.7-2.3-3.1-2.9l-.2-.4h0c-.6-1.3-1.7-2.3-3.1-2.9l-.2-.4h0c-.6-1.3-1.7-2.3-3.1-2.9l-.2-.4h0c-.6-1.3-1.7-2.3-3.1-2.9l-.2-.4h0c-.6-1.3-1.7-2.3-3.1-2.9l-.2-.4h0c-.6-1.3-1.7-2.3-3.1-2.9l-.2-.4h0c-.6-1.3-1.7-2.3-3.1-2.9l-.2-.4h0c-.6-1.3-1.7-2.3-3.1-2.9l-.2-.4h0c-.6-1.3-1.7-2.3-3.1-2.9l-.2-.4h0c-.6-1.3-1.7-2.3-3.1-2.9l-.2-.4h0c-1-2.1-3.1-3.5-5.6-3.5s-4.7,1.5-5.7,3.6l-45.8,78.9h0c-.3.5-.5,1.1-.5,1.7,0,1.9,1.5,3.4,3.4,3.6.1,1.8,1.5,3.2,3.3,3.3,0,1,.6,1.9,1.4,2.5l-27.8,47.9c-.6.8-1,1.9-1,3,0,2.3,1.5,4.2,3.6,4.8.5,1.6,1.7,2.8,3.3,3.3.5,1.6,1.7,2.8,3.3,3.3.5,1.4,1.5,2.6,2.9,3.2l-28.2,48.5c-.8,1-1.3,2.3-1.3,3.7,0,2.6,1.6,4.8,3.8,5.7.6,1.5,1.8,2.7,3.3,3.3.6,1.5,1.8,2.7,3.3,3.3.6,1.5,1.8,2.7,3.3,3.3.6,1.5,1.8,2.7,3.3,3.3.6,1.5,1.8,2.7,3.3,3.3.6,1.5,1.8,2.7,3.3,3.3.6,1.5,1.8,2.7,3.3,3.3.6,1.5,1.8,2.7,3.3,3.3.6,1.5,1.8,2.7,3.3,3.3.6,1.5,1.8,2.7,3.3,3.3.6,1.5,1.8,2.7,3.3,3.3.6,1.5,1.8,2.7,3.3,3.3.6,1.5,1.8,2.7,3.3,3.3.6,1.5,1.8,2.7,3.3,3.3.9,2.2,3.1,3.8,5.7,3.8h0c0,0,36.2,0,36.2,0,.6,1.3,1.7,2.4,3.2,2.8.5,1.6,1.7,2.8,3.3,3.3.5,1.6,1.7,2.8,3.3,3.3.5,1.6,1.7,2.8,3.3,3.3.5,1.6,1.7,2.8,3.3,3.3.5,1.6,1.7,2.8,3.3,3.3.5,1.6,1.7,2.8,3.3,3.3.5,1.6,1.7,2.8,3.3,3.3.5,1.6,1.7,2.8,3.3,3.3.6,2,2.5,3.5,4.7,3.5h24.5c2.7,0,4.9-2.2,4.9-4.9v-27.8h34.3c.5,1.4,1.7,2.5,3.2,2.8.4,1.7,1.6,2.9,3.3,3.3.4,1.7,1.6,2.9,3.3,3.3.4,1.7,1.6,2.9,3.3,3.3.4,2,2.1,3.5,4.2,3.5h0s33.3,0,33.3,0c.1,1.8,1.5,3.2,3.3,3.2,0,1.8,1.5,3.2,3.3,3.3,0,1.8,1.5,3.2,3.3,3.3,0,1.8,1.5,3.2,3.3,3.3,0,1.8,1.6,3.3,3.4,3.3h17.4c1.9,0,3.5-1.5,3.5-3.5v-13h46.6c2.4,0,4.4-2,4.4-4.4,0-.7-.2-1.4-.6-2ZM196.3,244.4h-44.7v22.5c0,2.2-1.8,4-4.1,4h-20.5c-2.3,0-4.1-1.8-4.1-4v-22.5h-54.9c-2.9,0-5.2-2.3-5.2-5.1s.4-2.2,1.1-3l28.1-47h-11.3c-2.3,0-4.2-1.9-4.2-4.1s.3-1.8.9-2.5l26.1-43.5h-6.5c-1.7,0-3-1.3-3-3s.2-1,.4-1.4h0s38.3-64,38.3-64c.8-1.7,2.6-2.9,4.7-2.9s3.8,1.2,4.7,2.8h0s38.4,64.1,38.4,64.1h0c.2.4.4.9.4,1.4,0,1.6-1.4,2.9-3,2.9h0s-6.4,0-6.4,0l26.4,44h0c.3.6.5,1.2.5,1.9,0,2.3-1.9,4.1-4.2,4.1h0s-11.2,0-11.2,0l23.3,38.9-9.7,16.1ZM302.3,258.6h0s-36.6,0-36.6,0v9.7c0,1.4-1.2,2.6-2.7,2.6h-13.6c-1.5,0-2.7-1.1-2.7-2.6v-9.7h-36.5c-1.9,0-3.4-1.5-3.4-3.3s.2-1.1.5-1.5h0s4.4-7.2,4.4-7.2l9.1-14.8,5.5-8.9h-7.5c-1.6,0-2.8-1.2-2.8-2.7s.2-.9.4-1.3h0s17.5-28.7,17.5-28.7h-4.3c-1.1,0-2-.9-2-1.9s.1-.6.3-.9h0s25.5-41.7,25.5-41.7h0c.6-1.1,1.7-1.8,3.1-1.8s2.5.8,3.1,1.9h0s25.5,41.7,25.5,41.7h0c.2.3.3.6.3.9,0,1-.9,1.9-2,1.9h0s-4.3,0-4.3,0l17.5,28.7h0c.2.4.4.8.4,1.3,0,1.5-1.3,2.7-2.8,2.7h0s-7.5,0-7.5,0l19,31h0c.3.5.4,1,.5,1.5,0,1.8-1.5,3.3-3.5,3.3Z"/></svg>