<?xml version="1.0" encoding="UTF-8"?><svg id="a" xmlns="http://www.w3.org/2000/svg" viewBox="0 0 115 112"><defs><style>.b{fill:#231f20;}</style></defs><path class="b" d="M105.2,90.7h0s-6.8-11.7-6.8-11.7h2.7c.6,0,1-.5,1-1s0-.3-.1-.5h0s-6.3-10.8-6.3-10.8h1.5c.4,0,.7-.3.7-.7s0-.2,0-.3h0s-9.1-15.7-9.1-15.7h0c-.2-.3-.4-.5-.8-.6l-.2-.3h0c-.2-.3-.4-.5-.8-.6l-.2-.3h0c-.2-.3-.4-.5-.8-.6l-.2-.3h0c-.2-.3-.4-.5-.8-.6l-.2-.3h0c-.2-.3-.4-.5-.8-.6l-.2-.3h0c-.2-.3-.4-.5-.8-.6l-.2-.3h0c-.2-.3-.4-.5-.8-.6l-.2-.3h0c-.2-.3-.4-.5-.8-.6l-.2-.3h0c-.2-.3-.4-.5-.8-.6l-.2-.3h0c-.2-.3-.4-.5-.8-.6l-.2-.3h0c-.2-.3-.4-.5-.8-.6l-.2-.3h0c-.2-.3-.4-.5-.8-.6l-.2-.3h0c-.2-.3-.4-.5-.8-.6l-.2-.3h0c-.2-.3-.4-.5-.8-.6l-.2-.3h0c-.2-.3-.4-.5-.8-.6l-.2-.3h0c-.2-.4-.6-.7-1.1-.7s-.9.3-1.1.7h0s-7.2,12.4-7.2,12.4l-11.9-20.5h0c-.2-.4-.5-.6-.9-.8h0c0-.1,0-.1,0-.1-.2-.4-.5-.6-.9-.8h0c0-.1,0-.1,0-.1-.2-.4-.5-.6-.9-.8h0c0-.1,0-.1,0-.1-.2-.4-.5-.6-.9-.8h0c0-.1,0-.1,0-.1-.2-.4-.5-.6-.9-.8h0c0-.1,0-.1,0-.1-.2-.4-.5-.6-.9-.8h0c0-.1,0-.1,0-.1-.2-.4-.5-.6-.9-.8h0c0-.1,0-.1,0-.1-.2-.4-.5-.6-.9-.8h0c0-.1,0-.1,0-.1-.2-.4-.5-.6-.9-.8h0c0-.1,0-.1,0-.1-.2-.4-.5-.6-.9-.8h0c0-.1,0-.1,0-.1-.2-.4-.5-.6-.9-.8h0c0-.1,0-.1,0-.1-.2-.4-.5-.6-.9-.8h0c0-.1,0-.1,0-.1-.2-.4-.5-.6-.9-.8h0c0-.1,0-.1,0-.1-.2-.4-.5-.6-.9-.8h0c0-.1,0-.1,0-.1-.2-.4-.5-.6-.9-.8h0c0-.1,0-.1,0-.1-.3-.6-.9-1-1.6-1s-1.3.4-1.6,1l-12.9,22.1h0c0,.1-.1.3-.1.5,0,.5.4,1,.9,1,0,.5.4.9.9.9,0,.3.2.5.4.7l-7.8,13.5c-.2.2-.3.5-.3.9,0,.6.4,1.2,1,1.3.1.4.5.8.9.9.1.4.5.8.9.9.1.4.4.7.8.9l-7.9,13.6c-.2.3-.4.6-.4,1,0,.7.4,1.3,1.1,1.6.2.4.5.8.9.9.2.4.5.8.9.9.2.4.5.8.9.9.2.4.5.8.9.9.2.4.5.8.9.9.2.4.5.8.9.9.2.4.5.8.9.9.2.4.5.8.9.9.2.4.5.8.9.9.2.4.5.8.9.9.2.4.5.8.9.9.2.4.5.8.9.9.2.4.5.8.9.9.2.4.5.8.9.9.3.6.9,1.1,1.6,1.1h0s10.1,0,10.1,0c.2.4.5.7.9.8.1.4.5.8.9.9.1.4.5.8.9.9.1.4.5.8.9.9.1.4.5.8.9.9.1.4.5.8.9.9.1.4.5.8.9.9.1.4.5.8.9.9.1.4.5.8.9.9.2.6.7,1,1.3,1h6.9c.8,0,1.4-.6,1.4-1.4v-7.8h9.6c.1.4.5.7.9.8.1.5.5.8.9.9.1.5.5.8.9.9.1.5.5.8.9.9.1.6.6,1,1.2,1h0s9.3,0,9.3,0c0,.5.4.9.9.9,0,.5.4.9.9.9,0,.5.4.9.9.9,0,.5.4.9.9.9,0,.5.4.9,1,.9h4.9c.5,0,1-.4,1-1v-3.6h13.1c.7,0,1.2-.6,1.2-1.2,0-.2,0-.4-.2-.6ZM57,70.9h-12.6v6.3c0,.6-.5,1.1-1.1,1.1h-5.7c-.6,0-1.1-.5-1.1-1.1v-6.3h-15.4c-.8,0-1.5-.6-1.5-1.4s.1-.6.3-.8l7.9-13.2h-3.2c-.7,0-1.2-.5-1.2-1.2s0-.5.2-.7l7.3-12.2h-1.8c-.5,0-.8-.4-.8-.8s0-.3.1-.4h0s10.7-17.9,10.7-17.9c.2-.5.7-.8,1.3-.8s1.1.3,1.3.8h0s10.8,18,10.8,18h0c0,.1.1.2.1.4,0,.5-.4.8-.8.8h0s-1.8,0-1.8,0l7.4,12.4h0c0,.2.1.3.1.5,0,.6-.5,1.1-1.2,1.1h0s-3.2,0-3.2,0l6.5,10.9-2.7,4.5ZM86.7,74.9h0s-10.3,0-10.3,0v2.7c0,.4-.3.7-.8.7h-3.8c-.4,0-.8-.3-.8-.7v-2.7h-10.2c-.5,0-1-.4-1-.9s0-.3.1-.4h0s1.2-2,1.2-2l2.5-4.2,1.5-2.5h-2.1c-.4,0-.8-.3-.8-.8s0-.2.1-.4h0s4.9-8,4.9-8h-1.2c-.3,0-.6-.2-.6-.5s0-.2,0-.3h0s7.2-11.7,7.2-11.7h0c.2-.3.5-.5.9-.5s.7.2.9.5h0s7.2,11.7,7.2,11.7h0c0,0,0,.2,0,.3,0,.3-.3.5-.6.5h0s-1.2,0-1.2,0l4.9,8h0c0,.1.1.2.1.4,0,.4-.4.7-.8.7h0s-2.1,0-2.1,0l5.3,8.7h0c0,.1.1.3.1.4,0,.5-.4.9-1,.9Z"/></svg>