<?xml version="1.0" encoding="UTF-8"?><svg id="a" xmlns="http://www.w3.org/2000/svg" viewBox="0 0 115 115"><defs><style>.b{fill:none;}</style></defs><path class="b" d="M76.4,62.6l3.4-3.4V24.1l-3.4-3.4H24.9l-3.4,3.4v35l3.4,3.4h51.5ZM42.5,34.4l3.2-3.2h3.3l13.5,8.1v6.3l-13.5,8.1h-3.3l-3.2-3.2v-16.1Z"/><polygon class="b" points="60.5 77.1 43.4 77.1 40.8 74.5 21.1 74.5 21.1 81.5 22.3 82.7 81.5 82.7 82.7 81.5 82.7 74.5 63 74.5 60.5 77.1"/><path d="M98.4,31.6l-15-15H20.5l-3.9,3.9v42.5l7,7h-7v13.4l15,15h62.9l3.9-3.9v-13.4h-.7v-.7h-.7v-.7h-.7v-.7h-.7v-.7h-1l4-4V31.6ZM21.5,59.1V24.1l3.4-3.4h51.5l3.4,3.4v35l-3.4,3.4H24.9l-3.4-3.4ZM82.7,81.5l-1.2,1.2H22.3l-1.2-1.2v-7h19.7l2.5,2.5h17.1l2.5-2.5h19.7v7Z"/><polygon points="48.9 53.7 62.4 45.7 62.4 39.3 48.9 31.3 45.7 31.3 42.5 34.4 42.5 50.6 45.7 53.7 48.9 53.7"/></svg>