<?xml version="1.0" encoding="UTF-8"?><svg id="a" xmlns="http://www.w3.org/2000/svg" viewBox="0 0 115 115"><defs><style>.b{fill:#070707;}</style></defs><path class="b" d="M98.2,20.2c-3.2-5.2-7.2-7.5-12.9-7.4-6.8,0-13.8,0-20.5,0-3,0-5.9,0-8.9,0-3,0-6,0-9,0-2.8,0-5.7,0-8.6,0s-7.5,0-11.3,0c-9.5,0-14.2,4.8-14.3,14.4-.1,10.3,0,20.6,0,32.8,0,2.8,0,5.2,0,7.2q0,12.4,7.6,20.6c1.7,1.8,3.7,4,6.2,6.7,2.8,3.2,6.2,4.6,10.6,4.6,12.2,0,24.7,0,36.7,0,6.2,0,12.5,0,18.7,0,9.1,0,11.3-2.3,11.3-11.6,0-4.7,0-9.5,0-14.2,0-10.6-.1-21.5.2-32.2.2-7.4-1.6-14.1-5.8-20.8ZM93,60.7c0,3-.6,5.2-2.1,6.7-1.5,1.5-3.6,2.2-6.7,2.2-4.9,0-9.8,0-14.6,0-8,0-16.3,0-24.4-.2-5.7-.2-9.2,1.2-11.9,4.8-1.5,1.9-3.2,3.7-5.2,5.1-1.3.9-2.7,1.4-4,1.4-.8,0-1.6-.2-2.3-.5-1.8-.9-2.9-2.8-2.9-5.1-.2-17.1-.1-34.1,0-49.8,0-4.3,2.7-6.4,7.9-6.4h0c7,0,14.1,0,21.1,0h8.3c2.8,0,5.5,0,8.3,0,6.4,0,12.9,0,19.4-.1,3.2,0,5.3.6,6.8,2.1,1.5,1.5,2.2,3.8,2.1,7.1-.2,10.8-.2,21.8,0,32.7Z"/><path class="b" d="M53.7,27.6s0,0-.1,0c-1,0-1.8.3-2.4.8-.7.7-1,1.7-1,3.1v1.8c0,7,0,13.9,0,20.9,0,1,.2,2.3,1,3.1.6.6,1.5.8,2.6.8,1.6,0,3.4-.6,3.4-4.2,0-2.4,0-4.9,0-7.3v-3.4s0-3.2,0-3.2c0-2.7,0-5.4,0-8.1,0-4.1-2.6-4.1-3.4-4.2Z"/><path class="b" d="M60.8,54.3c.3,3.3,2.1,3.7,3.4,3.8,2.4,0,3.7-1.2,3.8-3.9.2-4,.2-8.3,0-13.5,0-2.3-1.4-3.7-3.4-3.8-3.1,0-3.7,2.4-3.8,3.9,0,1.5,0,3.1,0,4.6,0,.7,0,1.4,0,2.1,0,.7,0,1.4,0,2.1,0,1.6,0,3.1,0,4.5Z"/><path class="b" d="M46.6,49c0-.9,0-1.6,0-2.4,0-4.1-1.8-4.7-3.5-4.7,0,0,0,0-.1,0-1.1,0-1.9.3-2.5.8-.8.8-1.2,2.1-1.2,4.2v.9c0,.8,0,1.6,0,2.4,0,.6,0,1.2,0,1.8,0,2,0,4.1,1,5.1.6.6,1.5.8,2.8.8,3.4,0,3.6-2,3.5-5.4,0-.7,0-1.5,0-2.1v-1.5Z"/></svg>