<?xml version="1.0" encoding="UTF-8"?><svg id="a" xmlns="http://www.w3.org/2000/svg" viewBox="0 0 400 400"><path d="M277.8,214.4h3.9l24.9-24.9v-65.7c-25.6-25.6-51.2-51.2-76.8-76.8h-123.5l-34.6,34.6v65.7c9.6,9.6,19.3,19.3,28.9,28.9v19.3c9.5,9.5,19.3,19.3,28.9,28.9v11.4l-4.9,4.9-38.5,9.6-14.4,14.4v52.1h2.8v2.8h2.8v2.8h2.8v2.8h2.8v2.8h2.8v2.8h2.8v2.8h2.8v2.8h2.8v2.8h2.8v2.8h2.8v2.8h2.8v2.8h2.8v2.8h2.8v2.8h2.8v2.8h2.8v2.8h192.6v-52.1c-16.3-16.3-32.8-32.8-49-49l20.1-20.1v-23.2ZM120.1,118.4l13.6-13.6h69.2l13.6,13.6v69.2l-13.6,13.6h-69.2l-13.6-13.6v-69.2ZM190.5,246.7l-22.2,11.1-22.2-11.1,3-3.1v-23.2h38.5v23.2l3,3.1Z"/><rect x="139.3" y="124.1" width="19.3" height="19.3"/><rect x="177.8" y="124.1" width="19.3" height="19.3"/><polygon points="181.8 191.5 197.1 176.2 197.1 162.6 177.8 162.6 177.8 168.2 173.9 172.2 162.6 172.2 158.6 168.2 158.6 162.6 139.3 162.6 139.3 176.2 154.6 191.5 181.8 191.5"/></svg>