<?xml version="1.0" encoding="UTF-8"?><svg id="a" xmlns="http://www.w3.org/2000/svg" viewBox="0 0 400 400"><defs><style>.b{fill:none;}.c{fill:#323232;}</style></defs><path class="b" d="M322.1,72.1H66.1c-2.4,0-4.4,2-4.4,4.4v26.5c0,2.4,2,4.4,4.4,4.4h4.4v176.4h-4.4c-2.4,0-4.4,2-4.4,4.4s2,4.4,4.4,4.4h123.6v9.4c-7.6,2-13.2,8.8-13.2,17s.4,1.9,1,3.3l4.9,8c1.8,1.5,5,4.7,5,4.7l-1.2-.3c2.4,1.2,5.2,1.9,8,1.9,9.7,0,17.7-7.9,17.7-17.6s-5.7-15-13.2-17v-9.4h123.6c2.4,0,4.4-2,4.4-4.4s-2-4.4-4.4-4.4h-4.4V107.3h4.4c2.4,0,4.4-2,4.4-4.4v-26.5c0-2.4-2-4.4-4.4-4.4Z"/><path d="M345.6,128.7c4.8-3.5,5.8-10.6,5.6-17,0-5.6,0-11-1-15.5-1-4.5-3.6-7.4-6.6-10.5-5.4-5.1-10.3-11-16.4-15.4-3.5-2.3-4.9-2.5-8-2.4-23.5,0-42.1,0-73.8,0-69.8,0-163.9,0-178.4,0-2.3,0-3.9.6-5.9,2.8-4.2,5.6-3.3,12.4-3.5,19.8,0,4.2.2,8.7,1.5,12.7,1.2,3.5,3.4,5.9,4.9,7.7,1.7,2,2.4,3.2,2.4,5.5.1,20.1,0,120.1,0,161.4.2,2.8-2.6,3.8-4.1,5.8-4.2,4.6-2.2,10.5,2,14.5,3.7,3.7,7.3,7.3,11,11,3.2,3.1,6.8,6.3,11.3,7.2,4.9.8,14,.3,20.2.4,14.4,0,30.4,0,44.6,0,6.5,0,12.1,0,15.8,0,2.8,0,4.4.6,5.5,2.4,1.8,3.1,2.7,7.6,4.7,10.8,5.3,9.3,17.2,10.5,27.1,11.7,5.9.8,12.1,1.8,18,2.6,5,.6,9.2.7,10.5-1.3,2.6-4.4-7.9-18.2-8.9-23.1-1.2-3.3,1.8-3.2,4.1-3.2,27.2-.1,96.3.2,113.6,0,5.3-.1,8.5-5.4,6.6-10.9-1.4-4.2-6.3-6.7-6-11.2,0-40.1,0-140.1,0-161.3,0-2.3,1.3-2.9,3.2-4.6h0ZM325,102.4c-1.5,2.9-3.6,3.9-5.1,4.9-1,.6-1.6,1.2-1.8,2-.4,18.6,0,111.6-.2,154.4,0,8.3,0,14.4,0,17.5,0,1.9,1.7,2.6,3.1,3.7,4.8,3.7,1,7.4-4.3,8-17.8.6-45.5,0-78.9.2-15.7,0-29.2,0-34.9,0-2.6,0-4.2,1.9-3.1,5.1,1.5,5.1,8.5,10.9,10.1,16.8,3,9.3-3.9,19.8-13.6,20.9-9.7,1.6-19.4-7.1-18.7-16.8-.1-8,8.9-14.1,11.1-20.8,1.1-3.1-.3-5-2.7-5.1-17.5-.1-89.2,0-106.3,0-3.7,0-7.6.4-11.2-1.1-5.7-2.8-2.7-6,1.3-8.8.9-.8.9-2,.9-3.8,0-6.2,0-19,0-34.9-.3-48,.6-119.8-.4-135.8-.4-.8-1.5-1.4-2.7-2.3-1.6-1-3.5-2.5-4.6-5.7-1.2-3.4-1.1-7.3-1.1-10.9,0-4.6,0-8.8,1-12.5.6-3,2.7-6.1,6-5.8,19.1,0,166.8,0,220.8,0,15.4,0,26.5,0,30.5,0,3.8-.1,5.4,4.2,5.9,7.5.6,3.2.7,7.7.6,11.9,0,3.6-.2,8.6-1.7,11.2h0Z"/><polygon class="c" points="122.1 125.9 119.2 123.2 114.4 127.7 109.7 123.2 106.8 125.9 111.6 130.4 106.8 135 109.7 137.7 114.5 133.2 119.2 137.7 122.1 135 117.4 130.4 122.1 125.9"/><path d="M157.6,157.2h27.6v19.8h-27.6v-19.8Z"/><path d="M194.3,114h27.7v63.1h-27.7v-63.1Z"/><path d="M230.9,141.9h27.7v35.2h-27.7v-35.2Z"/><path d="M267.6,128.4h27.6v48.7h-27.6v-48.7Z"/><path d="M167.8,198.7h-21.2c-2.5,0-4.5,2-4.5,4.5v21.2c0,2.5,2,4.5,4.5,4.5h21.2c2.5,0,4.5-2,4.5-4.5v-21.2c0-2.5-2-4.5-4.5-4.5Z"/><path d="M264.5,201.8h-78.8c-2.5,0-4.5,2-4.5,4.5s2,4.5,4.5,4.5h78.8c2.5,0,4.5-2,4.5-4.5s-2-4.5-4.5-4.5Z"/><path d="M185.7,223.8h42.3c2.5,0,4.5-2,4.5-4.5s-2-4.5-4.5-4.5h-42.3c-2.5,0-4.5,2-4.5,4.5s2,4.5,4.5,4.5Z"/><path d="M167.8,236.8h-21.2c-2.5,0-4.5,2-4.5,4.5v21.2c0,2.5,2,4.5,4.5,4.5h21.2c2.5,0,4.5-2,4.5-4.5v-21.2c0-2.5-2-4.5-4.5-4.5Z"/><path d="M264.5,239.8h-78.8c-2.5,0-4.5,2-4.5,4.5s2,4.5,4.5,4.5h78.8c2.5,0,4.5-2,4.5-4.5s-2-4.5-4.5-4.5Z"/><path d="M227.9,252.9h-42.3c-2.5,0-4.5,2-4.5,4.5s2,4.5,4.5,4.5h42.3c2.5,0,4.5-2,4.5-4.5s-2-4.5-4.5-4.5Z"/><polygon points="299.1 96.1 81.8 96.1 77.7 96.1 77.7 80 303.1 80 303.1 96.1 299.1 96.1"/><path d="M131,209.3v-5.5c0-.4-.3-.8-.6-1l-7.8-4.5v-2.3c-.2-4-.9-7.9-2.1-11.7,0,0,0,0,0,0,0,0,0,0,0,0-1.4-4.5-3.6-8.6-6.3-12.2-.4-.5-1.1-.5-1.5,0,0,0,0,0,0,.1-4.9,6.9-7.6,15.4-7.6,24.2v2.3s-7.7,4.7-7.7,4.7c-.3.2-.5.6-.5,1v5.5c0,.6.6,1.1,1.1,1.1l32.1-.5c.6,0,1-.5,1-1.1ZM129,208.3l-30.1.5v-3.7c0,0,7.6-4.7,7.6-4.7.3-.2.5-.6.5-1v-3c0-3.4.4-6.7,1.2-10,1.7.6,3.5.9,5.3.8,1.8,0,3.6-.4,5.3-1,.9,3.2,1.5,6.6,1.6,9.9v3c.1.4.3.8.6.9l7.8,4.5v3.7Z"/><path d="M106.4,221.7c0,4.3,6.4,14.8,7.2,16,.3.5,1,.6,1.4.3.1,0,.2-.2.3-.3.7-1.2,6.7-11.9,6.7-16.2,0-4.7-3.6-8.5-7.9-8.4s-7.7,3.9-7.6,8.7Z"/></svg>