<?xml version="1.0" encoding="UTF-8"?><svg id="a" xmlns="http://www.w3.org/2000/svg" viewBox="0 0 400 400"><defs><style>.b{fill:#050505;stroke:#fff;stroke-miterlimit:10;}</style></defs><path class="b" d="M75.8,312.3c11.5,9.3,22.1,21.4,35.7,27.2,6.5,2.6,14.6,3.1,21.8,3.1,35.8-.2,71.8-.2,107.1-.1,20.8,0,41.6,0,62.4,0,11,0,25.7.1,33.9-7.6,3.5-3.2,5.7-7.5,7.1-13.1,4.2-61,.5-122.5,1.6-186.1.9-15.6-5.4-30.2-17.1-40.9-10.8-10.4-24.1-14.7-38.6-13.8-73.6-.2-145.6-.1-213,0-5.5,0-14.2-.3-18.7,2.9-8.1,5.4-3.5,47.2-4.6,58.7.1,16.4-.1,32.7,0,49,.9,9.9-3.3,27.9,10.3,30,7.5,1.3,15.2.8,22.7.9,7.7-1,10.5,6.1,8.5,12.6-6.1,16.7-14.2,32.9-20.8,49.6-4.3,10-9.1,19.4,1.7,27.6h.2ZM196.9,104.3c22.9-.6,74.8,0,90.9-.2,1.7.2,4-.5,4.3.9.6,1.9.3,4.3.4,6.7,0,8-.3,16.1-.4,24.2-.4,13.3.6,26.6,1.1,40,.8,31.1-8.2,55.6-22.5,82.7-4,7.9-5.1,17.4-10.6,24.4-6.5,8.4-17.6,7.3-27,6.7-3.5,0-7,0-10.5,0-3.1,0-6.4.1-4.7-3.9,8.2-19.8,17.3-40.8,25.4-60.4,2.1-5.8,6-14.3,2.7-20-5.2-7.1-23.2-5-31.4-5.4-4.8,0-11.5.1-15.6,0-1.3,0-2-.3-2.2-.7-.3-11.4-.4-86.7,0-94.9h0ZM91.7,200c-4.4-.1-9,.4-13.3-.3-1.4-.4-1.1-1.5-1.1-3.4,0-11,0-19.7,0-32.5,0-18.8,0-38.1,0-56.6,0-2.9-.3-2.6,2.5-2.7.8,0,1.7,0,2.6,0,11.4,0,22.8,0,34.5,0,12.6,0,27.8,0,39.5,0,7.7,0,13.4,0,15.6,0,1.5,0,1.3.7,1.4,3.8,0,29.5,0,59.8,0,89.5.4,8.1-2.1,15.8-5.4,23.1-9,21.3-18.4,43.2-27.6,64.4-1.3,3.1-2.1,3.7-4.9,3.6-7.4,0-30,0-35.9,0-1.8,0-2-.6-1.1-3,8.4-20.1,17.2-41.4,25.9-61.4,13.3-28.9-13.2-24.4-32.5-24.7h-.2Z"/></svg>