<?xml version="1.0" encoding="UTF-8"?><svg id="a" xmlns="http://www.w3.org/2000/svg" width="400" height="400" viewBox="0 0 400 400"><path d="M192.257,51.571h0c2.275,0,4.537.06,6.784.175-2.247-.115-4.509-.175-6.784-.175Z"/><path d="M309.267,118.062c-.638-.651-1.282-1.295-1.933-1.933-.638-.651-1.282-1.295-1.933-1.933-.638-.651-1.282-1.295-1.933-1.933-.638-.652-1.282-1.295-1.933-1.933-.638-.651-1.282-1.296-1.933-1.933-.638-.651-1.282-1.295-1.933-1.933-.638-.651-1.282-1.295-1.933-1.933-.638-.651-1.282-1.295-1.933-1.933-.638-.652-1.282-1.295-1.933-1.933-.638-.651-1.282-1.296-1.933-1.933-.638-.651-1.282-1.295-1.933-1.933-.638-.651-1.282-1.295-1.933-1.933-.638-.651-1.282-1.295-1.933-1.933-.637-.651-1.28-1.293-1.93-1.931-7.436-7.592-15.777-14.287-24.86-19.903-.008-.005-.016-.012-.025-.016-1.771-1.096-3.571-2.147-5.397-3.159-.054-.03-.107-.063-.161-.093-1.77-.978-3.569-1.911-5.388-2.808-.114-.057-.225-.118-.339-.174-1.752-.858-3.53-1.669-5.324-2.449-.189-.082-.373-.174-.562-.255-1.724-.741-3.474-1.433-5.235-2.1-.267-.101-.528-.215-.797-.314-1.685-.627-3.395-1.203-5.112-1.76-.354-.115-.701-.247-1.057-.359-1.638-.517-3.299-.98-4.964-1.433-.446-.122-.884-.263-1.332-.379-1.591-.415-3.203-.775-4.816-1.131-.534-.118-1.059-.258-1.595-.369-1.554-.322-3.127-.587-4.7-.854-.608-.102-1.207-.23-1.817-.325-1.534-.237-3.087-.417-4.638-.6-.661-.077-1.314-.184-1.978-.252-1.596-.163-3.209-.267-4.821-.373-.63-.041-1.252-.111-1.883-.143-2.247-.115-4.509-.175-6.784-.175-2.258,0-4.504.058-6.735.171-14.266.726-27.92,3.777-40.636,8.725-2.291.891-4.549,1.845-6.775,2.86-2.808,1.28-5.581,2.621-8.279,4.089-1.857,1.01-3.687,2.064-5.489,3.16-2.321,1.411-4.577,2.918-6.801,4.468-1.988,1.385-3.932,2.828-5.838,4.317-2.582,2.018-5.109,4.102-7.531,6.303-6.598,5.999-12.585,12.66-17.852,19.878-2.634,3.608-5.088,7.355-7.349,11.229s-4.33,7.872-6.192,11.984c-.931,2.057-1.81,4.14-2.637,6.251-5.784,14.773-8.96,30.842-8.96,47.64h0c0,.009,0,.016,0,.025,0,2.266.059,4.52.174,6.759.032.632.102,1.255.144,1.885.106,1.612.209,3.226.373,4.822.068.662.173,1.313.251,1.973.184,1.552.363,3.105.6,4.64.096.624.227,1.235.332,1.857.265,1.56.528,3.12.847,4.66.114.548.257,1.085.377,1.631.354,1.6.711,3.201,1.123,4.779.12.462.266.914.391,1.374.45,1.65.909,3.297,1.422,4.921.117.37.253.731.373,1.099.554,1.703,1.124,3.398,1.745,5.069.105.282.224.556.331.837.664,1.748,1.349,3.485,2.085,5.196.085.197.18.39.266.587.778,1.785,1.584,3.555,2.438,5.298.062.125.129.248.191.373.892,1.806,1.818,3.594,2.79,5.353.038.067.078.133.116.202,1.005,1.811,2.048,3.599,3.135,5.356.012.02.026.039.038.059,5.611,9.069,12.298,17.399,19.879,24.825.001,0,.002.003.003.003.638.652,1.282,1.297,1.933,1.934.638.651,1.282,1.295,1.933,1.933.638.652,1.282,1.296,1.933,1.933.638.651,1.282,1.296,1.933,1.933.638.651,1.282,1.296,1.933,1.933.638.652,1.282,1.297,1.933,1.934.638.651,1.282,1.295,1.933,1.933.638.652,1.282,1.296,1.933,1.933.638.651,1.282,1.296,1.933,1.933.638.651,1.282,1.296,1.933,1.933.638.652,1.282,1.297,1.933,1.934.638.651,1.282,1.295,1.933,1.933.638.652,1.282,1.296,1.933,1.933.638.651,1.282,1.296,1.933,1.933,23.807,24.304,56.956,39.425,93.582,39.425,72.271,0,131.074-58.804,131.074-131.075,0-36.626-15.12-69.775-39.425-93.582ZM188.204,302.213c-66.569,0-120.733-54.163-120.733-120.732s54.164-120.733,120.733-120.733,120.733,54.163,120.733,120.733-54.164,120.732-120.733,120.732Z"/><path d="M201.05,132.958c.544,0,1.023.217,1.424.528.916-.394,1.562-1.306,1.562-2.361,0-1.414-1.157-2.57-2.57-2.57-38.911,0-70.575,31.664-70.575,70.575,0,1.414,1.156,2.57,2.57,2.57s2.57-1.157,2.57-2.57c0-.364.022-.724.028-1.086,0-.028-.016-.052-.016-.078,0-35.842,29.165-65.007,65.007-65.007Z"/><path d="M184.479,84.532c1.544,0,2.806-1.235,2.806-2.806,0-1.544-1.263-2.806-2.806-2.806-57.049,0-103.49,46.441-103.49,103.49,0,1.544,1.263,2.806,2.806,2.806,1.571,0,2.806-1.263,2.806-2.806,0-53.962,43.916-97.877,97.878-97.877Z"/><path d="M192.486,250.012c-1.414,0-2.57,1.157-2.57,2.571s1.157,2.569,2.57,2.569c38.911,0,70.575-31.663,70.575-70.574,0-1.414-1.157-2.57-2.57-2.57s-2.57,1.157-2.57,2.57c0,36.084-29.35,65.434-65.434,65.434Z"/><path d="M249.572,177.843c0-1.303-1.066-2.368-2.367-2.368s-2.367,1.065-2.367,2.368c0,33.236-27.034,60.271-60.271,60.271-1.302,0-2.367,1.066-2.367,2.368s1.065,2.368,2.367,2.368c35.841,0,65.006-29.166,65.006-65.006Z"/><path d="M190.782,100.734c1.414,0,2.57-1.131,2.57-2.569,0-1.415-1.157-2.571-2.57-2.571-52.25,0-94.785,42.534-94.785,94.785,0,1.414,1.157,2.57,2.57,2.57,1.439,0,2.57-1.156,2.57-2.569,0-49.424,40.222-89.645,89.645-89.645Z"/><path d="M199.574,115.85c1.302,0,2.367-1.042,2.367-2.367,0-1.303-1.066-2.368-2.367-2.368-48.128,0-87.306,39.179-87.306,87.307,0,1.302,1.066,2.367,2.367,2.367,1.326,0,2.367-1.066,2.367-2.367,0-45.524,37.049-82.572,82.572-82.572Z"/><path d="M221.402,186.283c0-16.063-13.082-29.144-29.145-29.144s-29.145,13.081-29.145,29.144,13.082,29.144,29.145,29.144,29.145-13.082,29.145-29.144Z"/><path d="M272.48,183.185c0,45.524-37.049,82.572-82.572,82.572-1.302,0-2.367,1.042-2.367,2.367,0,1.303,1.065,2.368,2.367,2.368,48.128,0,87.306-39.179,87.307-87.307,0-1.302-1.066-2.368-2.367-2.368-1.326,0-2.368,1.066-2.368,2.368Z"/><path d="M195.895,279.565c-1.414,0-2.57,1.131-2.57,2.57,0,1.414,1.156,2.57,2.57,2.57,52.25,0,94.785-42.535,94.785-94.786,0-1.414-1.157-2.57-2.57-2.57-1.44,0-2.57,1.157-2.57,2.57,0,49.423-40.222,89.645-89.645,89.645Z"/></svg>