<?xml version="1.0" encoding="UTF-8"?><svg id="a" xmlns="http://www.w3.org/2000/svg" viewBox="0 0 400 400"><path d="M192.3,51.6h0c2.3,0,4.5,0,6.8.2-2.2-.1-4.5-.2-6.8-.2Z"/><path d="M309.3,118.1c-.6-.7-1.3-1.3-1.9-1.9-.6-.7-1.3-1.3-1.9-1.9-.6-.7-1.3-1.3-1.9-1.9-.6-.7-1.3-1.3-1.9-1.9-.6-.7-1.3-1.3-1.9-1.9-.6-.7-1.3-1.3-1.9-1.9-.6-.7-1.3-1.3-1.9-1.9-.6-.7-1.3-1.3-1.9-1.9-.6-.7-1.3-1.3-1.9-1.9-.6-.7-1.3-1.3-1.9-1.9-.6-.7-1.3-1.3-1.9-1.9-.6-.7-1.3-1.3-1.9-1.9-.6-.7-1.3-1.3-1.9-1.9-.6-.7-1.3-1.3-1.9-1.9-7.4-7.6-15.8-14.3-24.9-19.9,0,0,0,0,0,0-1.8-1.1-3.6-2.1-5.4-3.2,0,0-.1,0-.2,0-1.8-1-3.6-1.9-5.4-2.8-.1,0-.2-.1-.3-.2-1.8-.9-3.5-1.7-5.3-2.4-.2,0-.4-.2-.6-.3-1.7-.7-3.5-1.4-5.2-2.1-.3-.1-.5-.2-.8-.3-1.7-.6-3.4-1.2-5.1-1.8-.4-.1-.7-.2-1.1-.4-1.6-.5-3.3-1-5-1.4-.4-.1-.9-.3-1.3-.4-1.6-.4-3.2-.8-4.8-1.1-.5-.1-1.1-.3-1.6-.4-1.6-.3-3.1-.6-4.7-.9-.6-.1-1.2-.2-1.8-.3-1.5-.2-3.1-.4-4.6-.6-.7,0-1.3-.2-2-.3-1.6-.2-3.2-.3-4.8-.4-.6,0-1.3-.1-1.9-.1-2.2-.1-4.5-.2-6.8-.2s-4.5,0-6.7.2c-14.3.7-27.9,3.8-40.6,8.7-2.3.9-4.5,1.8-6.8,2.9-2.8,1.3-5.6,2.6-8.3,4.1-1.9,1-3.7,2.1-5.5,3.2-2.3,1.4-4.6,2.9-6.8,4.5-2,1.4-3.9,2.8-5.8,4.3-2.6,2-5.1,4.1-7.5,6.3-6.6,6-12.6,12.7-17.9,19.9-2.6,3.6-5.1,7.4-7.3,11.2s-4.3,7.9-6.2,12c-.9,2.1-1.8,4.1-2.6,6.3-5.8,14.8-9,30.8-9,47.6h0s0,0,0,0c0,2.3,0,4.5.2,6.8,0,.6.1,1.3.1,1.9.1,1.6.2,3.2.4,4.8,0,.7.2,1.3.3,2,.2,1.6.4,3.1.6,4.6,0,.6.2,1.2.3,1.9.3,1.6.5,3.1.8,4.7.1.5.3,1.1.4,1.6.4,1.6.7,3.2,1.1,4.8.1.5.3.9.4,1.4.5,1.7.9,3.3,1.4,4.9.1.4.3.7.4,1.1.6,1.7,1.1,3.4,1.7,5.1.1.3.2.6.3.8.7,1.7,1.3,3.5,2.1,5.2,0,.2.2.4.3.6.8,1.8,1.6,3.6,2.4,5.3,0,.1.1.2.2.4.9,1.8,1.8,3.6,2.8,5.4,0,0,0,.1.1.2,1,1.8,2,3.6,3.1,5.4,0,0,0,0,0,0,5.6,9.1,12.3,17.4,19.9,24.8,0,0,0,0,0,0,.6.7,1.3,1.3,1.9,1.9.6.7,1.3,1.3,1.9,1.9.6.7,1.3,1.3,1.9,1.9.6.7,1.3,1.3,1.9,1.9.6.7,1.3,1.3,1.9,1.9.6.7,1.3,1.3,1.9,1.9.6.7,1.3,1.3,1.9,1.9.6.7,1.3,1.3,1.9,1.9.6.7,1.3,1.3,1.9,1.9.6.7,1.3,1.3,1.9,1.9.6.7,1.3,1.3,1.9,1.9.6.7,1.3,1.3,1.9,1.9.6.7,1.3,1.3,1.9,1.9.6.7,1.3,1.3,1.9,1.9,23.8,24.3,57,39.4,93.6,39.4,72.3,0,131.1-58.8,131.1-131.1s-15.1-69.8-39.4-93.6ZM188.2,302.2c-66.6,0-120.7-54.2-120.7-120.7s54.2-120.7,120.7-120.7,120.7,54.2,120.7,120.7-54.2,120.7-120.7,120.7Z"/><path d="M201,133c.5,0,1,.2,1.4.5.9-.4,1.6-1.3,1.6-2.4s-1.2-2.6-2.6-2.6c-38.9,0-70.6,31.7-70.6,70.6s1.2,2.6,2.6,2.6,2.6-1.2,2.6-2.6,0-.7,0-1.1c0,0,0,0,0,0,0-35.8,29.2-65,65-65Z"/><path d="M184.5,84.5c1.5,0,2.8-1.2,2.8-2.8s-1.3-2.8-2.8-2.8c-57,0-103.5,46.4-103.5,103.5s1.3,2.8,2.8,2.8,2.8-1.3,2.8-2.8c0-54,43.9-97.9,97.9-97.9Z"/><path d="M192.5,250c-1.4,0-2.6,1.2-2.6,2.6s1.2,2.6,2.6,2.6c38.9,0,70.6-31.7,70.6-70.6s-1.2-2.6-2.6-2.6-2.6,1.2-2.6,2.6c0,36.1-29.4,65.4-65.4,65.4Z"/><path d="M249.6,177.8c0-1.3-1.1-2.4-2.4-2.4s-2.4,1.1-2.4,2.4c0,33.2-27,60.3-60.3,60.3s-2.4,1.1-2.4,2.4,1.1,2.4,2.4,2.4c35.8,0,65-29.2,65-65Z"/><path d="M190.8,100.7c1.4,0,2.6-1.1,2.6-2.6s-1.2-2.6-2.6-2.6c-52.2,0-94.8,42.5-94.8,94.8s1.2,2.6,2.6,2.6,2.6-1.2,2.6-2.6c0-49.4,40.2-89.6,89.6-89.6Z"/><path d="M199.6,115.9c1.3,0,2.4-1,2.4-2.4s-1.1-2.4-2.4-2.4c-48.1,0-87.3,39.2-87.3,87.3s1.1,2.4,2.4,2.4,2.4-1.1,2.4-2.4c0-45.5,37-82.6,82.6-82.6Z"/><path d="M221.4,186.3c0-16.1-13.1-29.1-29.1-29.1s-29.1,13.1-29.1,29.1,13.1,29.1,29.1,29.1,29.1-13.1,29.1-29.1Z"/><path d="M272.5,183.2c0,45.5-37,82.6-82.6,82.6s-2.4,1-2.4,2.4,1.1,2.4,2.4,2.4c48.1,0,87.3-39.2,87.3-87.3,0-1.3-1.1-2.4-2.4-2.4s-2.4,1.1-2.4,2.4Z"/><path d="M195.9,279.6c-1.4,0-2.6,1.1-2.6,2.6s1.2,2.6,2.6,2.6c52.2,0,94.8-42.5,94.8-94.8,0-1.4-1.2-2.6-2.6-2.6s-2.6,1.2-2.6,2.6c0,49.4-40.2,89.6-89.6,89.6Z"/></svg>