<?xml version="1.0" encoding="UTF-8"?><svg id="a" xmlns="http://www.w3.org/2000/svg" viewBox="0 0 400 400"><defs><style>.b{fill:none;}</style></defs><path class="b" d="M226.9,150.3c-.4.4-1,.7-1.6.9-.2,0-.4,0-.5,0-.3,0-.6.2-.9.2s-.4,0-.5,0c-1.3-.2-2.5-.9-3.2-2l-2.9-4.4c-1.2-1.8-3.5-2.2-5.3-1.1l-1.8,1.2c-1,.7-2.3.9-3.5.5-1.3-.3-2.2-1.1-2.9-2.2h0c-1.4-2.7-5.3-2.8-6.8-.1l-1,1.8c-.7,1.2-2,2-3.4,2.2-1.4.2-2.8-.3-3.8-1.3l-4.8-5c-1.9-2-5.3-1.4-6.3,1.2l-18.7,44.6c-.4,1-.4,2,0,3l19.7,46.8,1.8,4.3c.6,1.4,2,2.4,3.6,2.4h86.8c2.8,0,4.6-2.8,3.6-5.4l-37.7-89.6c-1-2.5-4.2-3.2-6.1-1.4l-3.7,3.3Z"/><path class="b" d="M118.1,145.9c-1,1-2.4,1.5-3.8,1.3-1.4-.2-2.6-1-3.4-2.2l-1-1.8c-1.5-2.7-5.4-2.6-6.8.1h0c-.6,1.1-1.6,1.9-2.9,2.2-1.2.4-2.5.1-3.5-.5l-1.8-1.2c-1.8-1.1-4.1-.7-5.3,1.1l-2.9,4.4c-.7,1.1-1.9,1.8-3.2,2-.2,0-.4,0-.5,0-.3,0-.6-.1-.9-.2-.2,0-.4,0-.5,0-.6-.2-1.1-.5-1.6-.9l-3.7-3.3c-2-1.8-5.1-1.1-6.1,1.4l-37.7,89.6c-1.1,2.5.8,5.4,3.6,5.4h129.8c2.8,0,4.6-2.8,3.6-5.4l-40.2-95.8c-1.1-2.6-4.4-3.2-6.3-1.2l-4.8,5Z"/><path class="b" d="M185.5,129.5l2.1,2.2c1.8,1.9,4.8,1.5,6.1-.8l3-5.3c.8-1.4,2.4-2.2,4-2.2s3.1.9,3.9,2.4l2.8,5.4c1.1,2,3.6,2.7,5.5,1.5l1-.6c.4-.3.9-.5,1.5-.6.1,0,.3,0,.4,0,.2,0,.4,0,.5,0,.3,0,.5,0,.8,0h.2c.5.1,1,.3,1.4.6,0,0,.2.1.3.2.4.3.8.7,1.1,1.1l2.1,3.2c1.3,2,4,2.3,5.8.7l.9-.8c1.2-1.1,1.6-2.8,1-4.4l-20.4-48.8c-1.3-3.2-5.8-3.2-7.1,0l-17.6,42.1c-.6,1.4-.3,3.1.8,4.2Z"/><path class="b" d="M78,136.4l.9.8c1.7,1.6,4.5,1.2,5.8-.7l2.1-3.2c1.3-2,4.1-2.6,6.1-1.3l1,.6c1.9,1.2,4.5.6,5.5-1.5l2.8-5.4c.8-1.4,2.3-2.4,3.9-2.4s3.2.8,4,2.2l3,5.3c1.3,2.2,4.3,2.6,6.1.8l2.1-2.2c1.1-1.1,1.4-2.7.8-4.2l-17.6-42.1c-1.3-3.2-5.8-3.2-7.1,0l-20.4,48.8c-.6,1.5-.2,3.3,1,4.4Z"/><path d="M370.9,331.3c.3-1.4,0-2.2-.5-3.3-18-42.6-51.8-123.9-74.5-178-1.6-3.9-2.2-5.5-4.7-8.2-25.5-26.1-51.6-51.7-77.3-77.7-2.6-2.5-6.3-6-9.9-4.2-2.8,1.4-3.8,5.5-6.6,6.3-1.1.2-1.9-.3-2.9-1-1.8-1.5-3.5-3.4-5.3-5-12-10.3-11,9.7-18,5.5-4.2-3.4-7.7-7.8-11.8-11.4-2.6-2.6-8.1-4.7-9.8,0-.6,1.5-.8,3.3-.8,4.9-.3,6.7,0,12.8,4.8,17.4,8.1,8.4,16.5,16.4,24.6,24.8.6.7,2.7,2.9,1.9,3.2-.8.2-3.3-1.3-4.4-1.8-3.9-2.2-7.6-4.4-10.8-7.4-11.3-11.1-22.4-22.4-33.6-33.6-2.1-2.1-5.2-4.9-8.3-4.4-4.4,1-2.9,6.5-1.5,9.7,2.4,5.7,4.5,10.1,8.6,14.2,4,4.5,9.4,8.6,12.8,13.6,1.7,4-5.4-1.6-6.1-2.6-9.4-9.4-18.8-18.9-28.3-28.3-3-3.4-9.8-7.4-12.6-2.2-21.7,51.3-57.9,138.5-76.3,182.2-1.9,3.6.7,7.2,3.3,10.2,25.3,25.7,50.9,51.1,76.4,76.7,1.8,2,5.9,5,7.4,5.3,19.6,0,196.1.1,259.3,0,2.4,0,4-2.6,4.8-4.8h0ZM32.4,239.7c-.4-1.3,0-2.4.5-3.5,1.4-3.4,4.8-11.4,8.9-21.4,9.8-23.4,23.9-57.2,27.2-65,.6-1.5,1.6-2.9,3.3-3.1,3.9-.5,7.6,3.1,11.3,2.4,2.7-.5,5.2-3.7,7.9-4.6,1.8-.7,3.7-.6,5.6-.7,3.6.1,6.9-2,10.4-1.4,1.9.4,4,1.7,5.9,2.3,5.3,1.7,9.5-6.2,14.8-4,2.1,1.2,2.4,4,3.6,6.2,2.9,6.9,6.3,15.2,10.9,26.2,5.4,12.8,11.4,27.3,16.8,40.2,4.6,10.9,8.2,19.6,9.6,23.1,1.4,2.4-.2,5.8-2.5,7-7.2,1.1-19.4,0-39.7.4-21.9,0-47.7,0-69,0-10.3,0-17.9,0-20.9,0-2.4.2-4.1-1.8-4.9-4.1h0ZM182.7,243c-4.3-3.8-4.7-7.3-7.3-13.1-.9-2.1-1.8-4.2-2.7-6.4-4.4-10.4-10.2-24.4-12.6-30.2-2.1-4.3-1.5-7.3.5-11.7,3.2-7.6,7.8-18.7,11.2-26.9,2-4.1,3.7-10.3,6.1-13.2,4.5-3.8,9.1,3.4,13.6,3.5,2.5.1,4.6-1.7,6.9-2.4,2.9-1.1,5.9.6,9.1,1.1,3.4.4,7-.4,9.9,1.9,2,1.4,3.9,3.5,6.5,3.7,2.3.2,4.9-1.5,7.3-2.2,2.9-1.1,5.7-.5,6.7,2.5.8,1.9,2.1,5.1,4,9.4,4.5,10.8,10.7,25.5,15.6,37.4,5.2,13.1,15.1,34.7,17.3,42.2,0,2.8-2.7,5.6-5.7,5.2-4,0-13.9,0-25.7,0-12.6,0-28,0-39.9,0-7.9,0-14.2,0-17.2,0-1.2,0-2.3,0-3.4-.9h0ZM228.6,136.8c-3.9,3.4-7.4-2.4-11-3.4-2.6-.8-5.7.2-8-1.1-2.5-1.3-3.8-4.1-5.9-5.8-3.8-3.4-7.2.6-9.7,3.5-2.9,3.5-7,2.8-8.9-1.2-1-2-.4-4.2.4-6.2.9-2.2,2.3-5.6,4-9.7,2.1-5.1,4.6-11.1,6.8-16.4,1.2-2.9,2.3-5.6,3.5-8.5,1.8-4.4,2.7-8.3,7.6-7.4,2.1.5,3,2.6,3.8,4.5,2.2,5.3,7.3,17.7,11.7,28.4,2.1,5.1,3.7,8.9,5.5,13.3,1.6,4.1,3.6,6.7.6,9.8h-.1ZM121.2,130c-1.2,1.8-3.6,2.9-5.7,1.9-3.6-1.6-6.4-8.9-11.2-6.1-4.7,3.2-4.8,7.7-11.8,7.3-1.9,0-3.7.4-5.3,1.4-1.9,1.1-3.5,2.9-5.7,3.2-2.4.3-4.3-1.8-4.6-3.6-.3-1.7.4-3.2,1-4.7,3.7-8.9,13-31.6,18.2-44.4.7-1.6,1.3-3.2,2.8-4,1.8-.9,4.4-.6,5.7,1.1,3.3,5.8,4.8,11.3,7.9,18.5,2.4,5.7,4.9,11.8,6.8,16.5,1.4,4.2,5.1,8.9,2.1,12.8h0Z"/></svg>