<?xml version="1.0" encoding="UTF-8"?><svg id="a" xmlns="http://www.w3.org/2000/svg" viewBox="0 0 115 115"><rect x="71.6" y="28.2" width="4.7" height="25.7"/><rect x="57.4" y="36.7" width="4.7" height="17.1"/><rect x="50.3" y="41" width="4.7" height="12.8"/><polygon points="38.5 30.3 38.5 28.2 33.8 28.2 33.8 30.3 32.8 30.3 29 33.7 29 39.7 32.8 43.1 37.5 43.1 38.5 44 38.5 46.5 37.5 47.4 34.7 47.4 33.8 46.5 33.8 45.3 29 45.3 29 48.3 32.8 51.7 33.8 51.7 33.8 53.8 38.5 53.8 38.5 51.7 39.5 51.7 43.2 48.3 43.2 42.3 39.5 38.9 34.7 38.9 33.8 38 33.8 35.4 34.7 34.6 37.5 34.6 38.5 35.4 38.5 36.7 43.2 36.7 43.2 33.7 39.5 30.3 38.5 30.3"/><rect x="64.5" y="32.4" width="4.7" height="21.4"/><path d="M85.1,14.3H17.8l-3.5,3.5v45.2l15.6,15.6h6.7l-7.7,7.7h-.7v3.2l11.2,11.2h2.6l10-10,9.5,10h3.2v-13.8h6.7l13.8,13.8h1.4l-.5-3.2-3.7-3.7-8.8-8-7.3-7.3h30.9l3.5-3.5V29.9l-15.6-15.6ZM85.7,59l-3.8,3.4H23.3l-3.8-3.4V23l3.8-3.4h58.6l3.8,3.4v36Z"/></svg>