<?xml version="1.0" encoding="UTF-8"?><svg id="a" xmlns="http://www.w3.org/2000/svg" viewBox="0 0 1216.1 548"><defs><style>.b{fill:#163666;}</style></defs><path class="b" d="M226.4,257.2l-52.5-99.5c-.6-1.3-.1-2.1,1.2-2.6,15.7-5.8,28-14.9,37-27.3,8.9-12.4,13.4-27,13.4-43.6s-3.9-31.2-11.8-43.9c-7.8-12.7-18.9-22.6-33-29.6-14.2-7-30.6-10.6-49.4-10.6H6.2c-1.9,0-3.4.5-4.5,1.5C.5,2.5,0,3.9,0,5.7v252.6c0,1.8.5,3.1,1.7,4.1,1.1,1,2.6,1.5,4.5,1.5h65.3c1.9,0,3.4-.5,4.5-1.5,1.1-1,1.7-2.4,1.7-4.1v-93.9c0-1.3.7-1.9,2.1-1.9h17.4c1.1,0,1.9.5,2.5,1.5l45.4,95.8c1.1,2.8,3.4,4.1,7,4.1h69.4c1.7,0,3-.4,4.1-1.1,1.1-.8,1.7-1.8,1.7-3s-.3-1.1-.8-2.6ZM140,102c-5.5,4.4-12.7,6.6-21.5,6.6h-38.8c-1.4,0-2.1-.6-2.1-1.9v-44.1c0-1.3.7-1.9,2.1-1.9h38.8c8.8,0,16,2.2,21.5,6.6,5.5,4.4,8.3,10.2,8.3,17.5s-2.8,12.8-8.3,17.2Z"/><path class="b" d="M439.9,0h-197c-1.9,0-3.4.5-4.5,1.5-1.1,1-1.7,2.4-1.7,4.1v252.6c0,1.8.5,3.1,1.7,4.1,1.1,1,2.6,1.5,4.5,1.5h197c1.9,0,3.4-.5,4.5-1.5,1.1-1,1.7-2.4,1.7-4.1v-49.4c0-1.8-.6-3.1-1.7-4.1-1.1-1-2.6-1.5-4.5-1.5h-123.5c-1.4,0-2.1-.6-2.1-1.9v-39.2c0-1.3.7-1.9,2.1-1.9h76.4c1.9,0,3.4-.5,4.5-1.5,1.1-1,1.7-2.4,1.7-4.1v-49c0-1.8-.6-3.1-1.7-4.1-1.1-1-2.6-1.5-4.5-1.5h-76.4c-1.4,0-2.1-.6-2.1-1.9v-35.4c0-1.3.7-1.9,2.1-1.9h123.5c1.9,0,3.4-.5,4.5-1.5,1.1-1,1.7-2.4,1.7-4.1V5.7c0-1.8-.6-3.1-1.7-4.1C443.3.5,441.8,0,439.9,0Z"/><path class="b" d="M694.2,0h-69c-3.6,0-5.8,1.6-6.6,4.9l-40.1,159.1c-.3,1-.7,1.5-1.2,1.5s-1-.5-1.2-1.5L534.7,4.9C533.9,1.6,531.7,0,528.1,0h-70.6c-3.9,0-5.8,1.5-5.8,4.5s.1,1.4.4,1.9l81.4,252.6c.3,1.5,1.1,2.7,2.5,3.6,1.4.9,2.9,1.3,4.5,1.3h69.8c1.7,0,3.2-.4,4.5-1.3,1.4-.9,2.2-2.1,2.5-3.6L699.6,6.4c.5-2,.3-3.6-.6-4.7C698,.6,696.4,0,694.2,0Z"/><path class="b" d="M226.8,538.2l-52.5-99.5c-.6-1.3-.1-2.1,1.2-2.6,15.7-5.8,28-14.9,37-27.3,8.9-12.4,13.4-27,13.4-43.6s-3.9-31.2-11.8-43.9c-7.8-12.7-18.9-22.6-33-29.6-14.2-7-30.6-10.6-49.4-10.6H6.6c-1.9,0-3.4.5-4.5,1.5-1.1,1-1.7,2.4-1.7,4.1v252.6c0,1.8.5,3.1,1.7,4.1,1.1,1,2.6,1.5,4.5,1.5h65.3c1.9,0,3.4-.5,4.5-1.5,1.1-1,1.7-2.4,1.7-4.1v-93.9c0-1.3.7-1.9,2.1-1.9h17.4c1.1,0,1.9.5,2.5,1.5l45.4,95.8c1.1,2.8,3.4,4.1,7,4.1h69.4c1.7,0,3-.4,4.1-1.1,1.1-.8,1.7-1.8,1.7-3s-.3-1.1-.8-2.6ZM140.5,383c-5.5,4.4-12.7,6.6-21.5,6.6h-38.8c-1.4,0-2.1-.6-2.1-1.9v-44.1c0-1.3.7-1.9,2.1-1.9h38.8c8.8,0,16,2.2,21.5,6.6,5.5,4.4,8.3,10.2,8.3,17.5s-2.8,12.8-8.3,17.2Z"/><path class="b" d="M440.3,281h-197c-1.9,0-3.4.5-4.5,1.5-1.1,1-1.7,2.4-1.7,4.1v252.6c0,1.8.5,3.1,1.7,4.1,1.1,1,2.6,1.5,4.5,1.5h197c1.9,0,3.4-.5,4.5-1.5,1.1-1,1.7-2.4,1.7-4.1v-49.4c0-1.8-.6-3.1-1.7-4.1-1.1-1-2.6-1.5-4.5-1.5h-123.5c-1.4,0-2.1-.6-2.1-1.9v-39.2c0-1.3.7-1.9,2.1-1.9h76.4c1.9,0,3.4-.5,4.5-1.5,1.1-1,1.7-2.4,1.7-4.1v-49c0-1.8-.6-3.1-1.7-4.1-1.1-1-2.6-1.5-4.5-1.5h-76.4c-1.4,0-2.1-.6-2.1-1.9v-35.4c0-1.3.7-1.9,2.1-1.9h123.5c1.9,0,3.4-.5,4.5-1.5,1.1-1,1.7-2.4,1.7-4.1v-49.4c0-1.8-.6-3.1-1.7-4.1-1.1-1-2.6-1.5-4.5-1.5Z"/><path class="b" d="M673.1,434.1c-5.8-9.8-14.9-17.8-27.3-24.1-1.1-.8-1.1-1.5,0-2.3,20.9-10.8,31.4-28.2,31.4-52s-8.9-46.1-26.6-57.5c-17.8-11.4-44.3-17.2-79.5-17.2h-107.4c-1.9,0-3.4.5-4.5,1.5-1.1,1-1.7,2.4-1.7,4.1v252.6c0,1.8.5,3.1,1.7,4.1,1.1,1,2.6,1.5,4.5,1.5h111.1c31.7,0,57.4-6.1,77.2-18.3,19.8-12.2,29.7-31.2,29.7-57.1s-2.9-25.6-8.7-35.4ZM535.1,343.6c0-1.3.7-1.9,2.1-1.9h33.9c20.1,0,30.2,6.9,30.2,20.7s-10.1,20.7-30.2,20.7h-33.9c-1.4,0-2.1-.6-2.1-1.9v-37.7ZM574.8,484.2h-37.6c-1.4,0-2.1-.6-2.1-1.9v-39.6c0-1.3.7-1.9,2.1-1.9h38c19.3,0,28.9,7,28.9,21.1s-9.8,22.2-29.3,22.2Z"/><path class="b" d="M896.9,281h-197c-1.9,0-3.4.5-4.5,1.5-1.1,1-1.7,2.4-1.7,4.1v252.6c0,1.8.5,3.1,1.7,4.1,1.1,1,2.6,1.5,4.5,1.5h197c1.9,0,3.4-.5,4.5-1.5,1.1-1,1.7-2.4,1.7-4.1v-49.4c0-1.8-.6-3.1-1.7-4.1-1.1-1-2.6-1.5-4.5-1.5h-123.5c-1.4,0-2.1-.6-2.1-1.9v-39.2c0-1.3.7-1.9,2.1-1.9h76.4c1.9,0,3.4-.5,4.5-1.5,1.1-1,1.7-2.4,1.7-4.1v-49c0-1.8-.6-3.1-1.7-4.1-1.1-1-2.6-1.5-4.5-1.5h-76.4c-1.4,0-2.1-.6-2.1-1.9v-35.4c0-1.3.7-1.9,2.1-1.9h123.5c1.9,0,3.4-.5,4.5-1.5,1.1-1,1.7-2.4,1.7-4.1v-49.4c0-1.8-.6-3.1-1.7-4.1-1.1-1-2.6-1.5-4.5-1.5Z"/><path class="b" d="M1121.5,484.2h-127.6c-1.4,0-2.1-.6-2.1-1.9v-195.7c0-1.8-.6-3.1-1.7-4.1-1.1-1-2.6-1.5-4.5-1.5h-65.3c-1.9,0-3.4.5-4.5,1.5-1.1,1-1.7,2.4-1.7,4.1v252.6c0,1.8.5,3.1,1.7,4.1,1.1,1,2.6,1.5,4.5,1.5h201.2c1.9,0,3.4-.5,4.5-1.5,1.1-1,1.7-2.4,1.7-4.1v-49.4c0-1.8-.6-3.1-1.7-4.1-1.1-1-2.6-1.5-4.5-1.5Z"/><path class="b" d="M1205.1,486.9c-7.3-6.5-16.6-9.8-27.9-9.8s-20.6,3.3-27.9,9.8c-7.3,6.5-10.9,15.1-10.9,25.6s3.6,18.8,10.9,25.5c7.3,6.7,16.6,10,27.9,10s20.2-3.4,27.7-10.2c7.4-6.8,11.2-15.2,11.2-25.3s-3.7-19.1-10.9-25.6Z"/></svg>