<?xml version="1.0" encoding="UTF-8"?><svg id="a" xmlns="http://www.w3.org/2000/svg" viewBox="0 0 1227.4 170.3"><defs><style>.b{fill:#163666;}</style></defs><path class="b" d="M110.9,100.5c-.4-.8,0-1.4.8-1.7,10-3.7,17.9-9.5,23.6-17.4,5.7-7.9,8.6-17.2,8.6-27.8s-2.5-19.9-7.5-28c-5-8.1-12-14.4-21.1-18.9-9.1-4.5-19.5-6.7-31.5-6.7H4C2.7,0,1.8.3,1.1,1,.4,1.6,0,2.5,0,3.6v161.2c0,1.1.4,2,1.1,2.6.7.6,1.7,1,2.9,1h41.6c1.2,0,2.2-.3,2.9-1,.7-.6,1.1-1.5,1.1-2.6v-59.9c0-.8.4-1.2,1.3-1.2h11.1c.7,0,1.2.3,1.6,1l29,61.1c.7,1.8,2.2,2.6,4.5,2.6h44.3c1.1,0,1.9-.2,2.6-.7.7-.5,1.1-1.1,1.1-1.9s-.2-.7-.5-1.7l-33.5-63.5ZM89.3,65.1c-3.5,2.8-8.1,4.2-13.7,4.2h-24.8c-.9,0-1.3-.4-1.3-1.2v-28.1c0-.8.4-1.2,1.3-1.2h24.8c5.6,0,10.2,1.4,13.7,4.2,3.5,2.8,5.3,6.5,5.3,11.2s-1.8,8.1-5.3,10.9Z"/><path class="b" d="M280.6,0h-125.7c-1.2,0-2.2.3-2.9,1-.7.6-1.1,1.5-1.1,2.6v161.2c0,1.1.4,2,1.1,2.6.7.6,1.7,1,2.9,1h125.7c1.2,0,2.2-.3,2.9-1,.7-.6,1.1-1.5,1.1-2.6v-31.5c0-1.1-.4-2-1.1-2.6-.7-.6-1.7-1-2.9-1h-78.8c-.9,0-1.3-.4-1.3-1.2v-25c0-.8.4-1.2,1.3-1.2h48.8c1.2,0,2.2-.3,2.9-1,.7-.6,1.1-1.5,1.1-2.6v-31.3c0-1.1-.4-2-1.1-2.6-.7-.6-1.7-1-2.9-1h-48.8c-.9,0-1.3-.4-1.3-1.2v-22.6c0-.8.4-1.2,1.3-1.2h78.8c1.2,0,2.2-.3,2.9-1,.7-.6,1.1-1.5,1.1-2.6V3.6c0-1.1-.4-2-1.1-2.6-.7-.6-1.7-1-2.9-1Z"/><path class="b" d="M442.8,0h-44c-2.3,0-3.7,1-4.2,3.1l-25.6,101.5c-.2.6-.4,1-.8,1s-.6-.3-.8-1L341.1,3.1c-.5-2.1-1.9-3.1-4.2-3.1h-45.1c-2.5,0-3.7,1-3.7,2.9s0,.9.3,1.2l51.9,161.2c.2,1,.7,1.7,1.6,2.3.9.6,1.8.8,2.9.8h44.5c1.1,0,2-.3,2.9-.8.9-.6,1.4-1.3,1.6-2.3L446.3,4.1c.3-1.3.2-2.3-.4-3-.6-.7-1.6-1.1-3-1.1Z"/><path class="b" d="M562.9,100.5c-.4-.8,0-1.4.8-1.7,10-3.7,17.9-9.5,23.6-17.4,5.7-7.9,8.6-17.2,8.6-27.8s-2.5-19.9-7.5-28c-5-8.1-12-14.4-21.1-18.9-9.1-4.5-19.5-6.7-31.5-6.7h-79.8c-1.2,0-2.2.3-2.9,1-.7.6-1.1,1.5-1.1,2.6v161.2c0,1.1.4,2,1.1,2.6.7.6,1.7,1,2.9,1h41.6c1.2,0,2.2-.3,2.9-1,.7-.6,1.1-1.5,1.1-2.6v-59.9c0-.8.4-1.2,1.3-1.2h11.1c.7,0,1.2.3,1.6,1l29,61.1c.7,1.8,2.2,2.6,4.5,2.6h44.3c1.1,0,1.9-.2,2.6-.7.7-.5,1.1-1.1,1.1-1.9s-.2-.7-.5-1.7l-33.5-63.5ZM541.3,65.1c-3.5,2.8-8.1,4.2-13.7,4.2h-24.8c-.9,0-1.3-.4-1.3-1.2v-28.1c0-.8.4-1.2,1.3-1.2h24.8c5.6,0,10.2,1.4,13.7,4.2,3.5,2.8,5.3,6.5,5.3,11.2s-1.8,8.1-5.3,10.9Z"/><path class="b" d="M732.5,0h-125.7c-1.2,0-2.2.3-2.9,1-.7.6-1.1,1.5-1.1,2.6v161.2c0,1.1.4,2,1.1,2.6.7.6,1.7,1,2.9,1h125.7c1.2,0,2.2-.3,2.9-1,.7-.6,1.1-1.5,1.1-2.6v-31.5c0-1.1-.4-2-1.1-2.6-.7-.6-1.7-1-2.9-1h-78.8c-.9,0-1.3-.4-1.3-1.2v-25c0-.8.4-1.2,1.3-1.2h48.8c1.2,0,2.2-.3,2.9-1,.7-.6,1.1-1.5,1.1-2.6v-31.3c0-1.1-.4-2-1.1-2.6-.7-.6-1.7-1-2.9-1h-48.8c-.9,0-1.3-.4-1.3-1.2v-22.6c0-.8.4-1.2,1.3-1.2h78.8c1.2,0,2.2-.3,2.9-1,.7-.6,1.1-1.5,1.1-2.6V3.6c0-1.1-.4-2-1.1-2.6-.7-.6-1.7-1-2.9-1Z"/><path class="b" d="M863.6,82.3c-.7-.5-.7-1,0-1.4,13.3-6.9,20-18,20-33.2s-5.7-29.4-17-36.7c-11.3-7.3-28.2-10.9-50.7-10.9h-68.5c-1.2,0-2.2.3-2.9,1-.7.6-1.1,1.5-1.1,2.6v161.2c0,1.1.4,2,1.1,2.6.7.6,1.7,1,2.9,1h70.9c20.2,0,36.6-3.9,49.3-11.7,12.6-7.8,19-19.9,19-36.4s-1.8-16.4-5.5-22.6-9.5-11.4-17.4-15.4ZM793,39.9c0-.8.4-1.2,1.3-1.2h21.6c12.8,0,19.2,4.4,19.2,13.2s-6.4,13.2-19.2,13.2h-21.6c-.9,0-1.3-.4-1.3-1.2v-24.1ZM818.3,129.7h-24c-.9,0-1.3-.4-1.3-1.2v-25.3c0-.8.4-1.2,1.3-1.2h24.2c12.3,0,18.4,4.5,18.4,13.5s-6.2,14.2-18.7,14.2Z"/><path class="b" d="M1023.8,0h-125.7c-1.2,0-2.2.3-2.9,1-.7.6-1.1,1.5-1.1,2.6v161.2c0,1.1.4,2,1.1,2.6.7.6,1.7,1,2.9,1h125.7c1.2,0,2.2-.3,2.9-1,.7-.6,1.1-1.5,1.1-2.6v-31.5c0-1.1-.4-2-1.1-2.6-.7-.6-1.7-1-2.9-1h-78.8c-.9,0-1.3-.4-1.3-1.2v-25c0-.8.4-1.2,1.3-1.2h48.8c1.2,0,2.2-.3,2.9-1,.7-.6,1.1-1.5,1.1-2.6v-31.3c0-1.1-.4-2-1.1-2.6-.7-.6-1.7-1-2.9-1h-48.8c-.9,0-1.3-.4-1.3-1.2v-22.6c0-.8.4-1.2,1.3-1.2h78.8c1.2,0,2.2-.3,2.9-1,.7-.6,1.1-1.5,1.1-2.6V3.6c0-1.1-.4-2-1.1-2.6-.7-.6-1.7-1-2.9-1Z"/><path class="b" d="M1167,129.7h-81.4c-.9,0-1.3-.4-1.3-1.2V3.6c0-1.1-.4-2-1.1-2.6-.7-.6-1.7-1-2.9-1h-41.6c-1.2,0-2.2.3-2.9,1-.7.6-1.1,1.5-1.1,2.6v161.2c0,1.1.3,2,1.1,2.6.7.6,1.7,1,2.9,1h128.3c1.2,0,2.2-.3,2.9-1,.7-.6,1.1-1.5,1.1-2.6v-31.5c0-1.1-.4-2-1.1-2.6-.7-.6-1.7-1-2.9-1Z"/><path class="b" d="M1220.4,131.3c-4.7-4.2-10.6-6.3-17.8-6.3s-13.1,2.1-17.8,6.3c-4.7,4.2-7,9.6-7,16.4s2.3,12,7,16.2c4.7,4.3,10.6,6.4,17.8,6.4s12.9-2.2,17.7-6.5c4.7-4.3,7.1-9.7,7.1-16.1s-2.3-12.2-7-16.4Z"/></svg>