<?xml version="1.0" encoding="UTF-8"?><svg id="a" xmlns="http://www.w3.org/2000/svg" viewBox="0 0 911.8 668.6"><defs><style>.b{fill:#f37d59;}.c{fill:#faca78;}.d{fill:#72cac5;}.e{fill:#163666;}</style></defs><rect class="c" width="911.8" height="668.6"/><path class="d" d="M856,379.4c-1.9.2-3.6-1.3-3.2-3,1.9-8.7-12.1-19.1-21.7-19.7-1.4-.1-2.8.8-3.1,2.1-4.6,20.6-8.2,41.4-12.7,62-.7,3.4-6.2,2.5-5.7-.9,4-26.3,9.6-52.3,13.2-78.6,2-8.8-1.3-19.8-11.9-21.3-.2,0-.4-.1-.6-.2-3-1.2-6.1-1.7-9.2-1.5-1.4.1-2.5,1.1-2.6,2.4-7.9,75.1-23.7,149.5-32.4,224.4,0,1.2.6,2.4,1.9,2.8,23.9,8.3,25.7-21,27.8-38.7.2-2.1,2.8-3.1,4.6-1.8,18.3,12.4,43.5-1.6,51.8-19.7,12.3-25.1,22-52,25.1-79.6,1.3-11.9-7.8-30.1-21.2-28.8h0Z"/><path class="d" d="M881.1,235.3c-3.9-27.6-15.8-53.4-32.3-75.9,0-.1-.1-.1-.1-.2-49.5-82.5-148.3-134.1-246.2-126-73.7,4.8-144.8,40.7-190.5,97.4-25.7,32.5-50.3,68.6-53.2,110.7,0,.3,0,.6.1.9,1.6,6.7,9.3,11.4,7.2,19.3,0,.2-.1.3-.1.5-1.8,35.2,2.9,70.2,13.3,103.8.6,2,3.3,2.7,4.8,1.2,5.8-5.2,10.1-14.2,15.9-20.1.6-.6.9-1.5.8-2.5-4.4-26.7-9.2-54-7-81.3.1-.7.4-1.4.9-1.9,15.9-14.5,14.6-37.7,19.5-56.9,0-.2.1-.3.2-.4,40.4-95.6,157.6-151.3,260-123.9,60.5,13,113.6,53,143.4,105.7,0,.1.1.1.1.2,12.9,17.9,9.7,40.9,17.4,60.6,1.1,7,12.4,7.5,10.7,15.3.4,24.9-1.4,50-6.5,74.5-4.5,13.1,8.4,21.1,16.8,29.9,1.6,1.6,4.4.9,4.9-1.3,8.2-34.8,13.5-70.4,11.5-106.2,0-.2,0-.3-.1-.5-2.1-9.5,11.3-13.6,8.4-22.8h0Z"/><path class="d" d="M436.9,318.4c-3.1-.3-6.3.2-9.2,1.5-.2.1-.4.1-.6.2-10.6,1.5-13.9,12.3-11.9,21.3,3.6,26.3,9.2,52.4,13.2,78.6.5,3.4-4.9,4.3-5.7.9-4.5-20.6-8.1-41.5-12.7-62-.3-1.3-1.6-2.2-3.1-2.1-9.6.6-23.7,10.9-21.7,19.7.4,1.8-1.3,3.2-3.2,3-13.3-1.3-22.4,16.9-21.1,28.8,3.1,27.6,12.9,54.5,25.1,79.6,8.3,18.1,33.5,32,51.8,19.7,1.8-1.2,4.3-.2,4.6,1.8,2,17.7,3.8,47.1,27.8,38.7,1.2-.4,2-1.6,1.9-2.8-8.8-74.9-24.6-149.3-32.4-224.4-.3-1.2-1.4-2.2-2.7-2.4h0Z"/><path class="d" d="M525.3,560.2c1.1-.6,2.5-1,3.8-.7,9.6,1.3,19.4,5.8,29,2,13.2-6.4,22-22.9,18.7-39.3-9.5-74-16.6-148.5-27.9-222,0-.6-.3-1.4-.5-2-7.5-19-27.8-20.4-42.9-12.5-2.1,1.1-4.6,1.1-6.6-.2-10.2-6.2-21.8-9.9-33-4.2-11,3.7-19.1,16.9-15.6,30.1,10.4,71.6,20.3,143.3,29.3,215.2,2,12.1,2.7,26.6,11.8,35.1,10.3,8.5,23.3,4.5,33.8-1.3h0ZM526.4,328.2c2.6,6.8,2.5,16.9,3.6,24.1,6,51.9,13.1,103.7,18.3,155.6.6,6.2-4.8,11.3-9.8,8.8-2.7-1.4-4.5-4.4-4.6-9.6,0-.4,0-.7,0-1.2-7.7-57.8-17.2-115.7-21.6-173.9-.6-9.3,10.9-12.6,14.1-3.9h0Z"/><path class="d" d="M701.1,564.9c12.1-7.6,23.3,6.7,35.8,4,12.6-1.5,19.6-16.1,20.6-29.3,9.5-75,21.1-149.8,30.2-224.9,5.6-28.8-29-43-45.9-25.5-1.1,1.2-2.7,2-4.2,2.1-9.5.4-19.4-12.2-30.3-6.1-9,3.2-17,11.7-19.4,22.3,0,.3-.2.7-.2,1.1-8.8,73.4-17.1,146.9-26.7,220.3-4.1,24.6,20.1,46.2,40.1,35.9h0ZM690.1,512.6c.2-.6.4-1.2.4-1.8,6.3-59.7,12.5-119.5,21.7-178.7.6-4.1,4-7.3,7.7-6.9,10.5,1.1,5.6,20.3,4.7,31.4-7.7,53.6-12.1,107.9-20.3,161.6-1.8,9.7-16.9,3.2-14.2-5.6Z"/><path class="e" d="M284,315.4l-98.7,57c-1.2.6-2.1.2-2.6-1.4-5.7-17.1-14.7-30.6-27-40.3-12.3-9.8-26.7-14.7-43.1-14.7-16.4,0-30.9,4.2-43.5,12.7-12.6,8.5-22.4,20.5-29.4,36-7,15.4-10.5,33.4-10.6,53.8l-.3,136.4c0,2.1.5,3.8,1.5,5,1,1.2,2.4,1.8,4.1,1.8l250.2.5c1.7,0,3.1-.6,4.1-1.8,1-1.2,1.5-2.8,1.5-4.9v-71.1c.1-2.1-.3-3.8-1.3-5-1-1.2-2.4-1.8-4.1-1.8l-93-.2c-1.2,0-1.9-.7-1.9-2.3v-18.9c0-1.2.5-2.1,1.5-2.7l95-49.3c2.7-1.2,4.1-3.7,4.1-7.6v-75.6c.2-1.8-.2-3.3-1-4.5-.7-1.2-1.7-1.8-3-1.8s-1.1.3-2.6.9ZM130.1,409.2c4.3,6,6.5,13.8,6.5,23.4v42.3c0,1.5-.7,2.2-2,2.2h-43.7c-1.2,0-1.9-.8-1.9-2.3v-42.3c.1-9.6,2.3-17.4,6.7-23.4,4.4-6,10.2-9,17.4-9,7,0,12.6,3,17,9Z"/><path class="e" d="M284.6,40.3l-98.7,57c-1.2.6-2.1.2-2.6-1.4-5.7-17.1-14.7-30.6-27-40.3-12.3-9.8-26.7-14.7-43.1-14.7-16.4,0-30.9,4.2-43.5,12.7-12.6,8.5-22.4,20.5-29.4,36-7,15.4-10.5,33.4-10.6,53.8l-.3,136.4c0,2.1.5,3.8,1.5,5,1,1.2,2.4,1.8,4.1,1.8l250.2.5c1.7,0,3.1-.6,4.1-1.8,1-1.2,1.5-2.8,1.5-4.9v-71.1c.1-2.1-.3-3.8-1.3-5-1-1.2-2.4-1.8-4.1-1.8l-93-.2c-1.2,0-1.9-.7-1.9-2.3v-18.9c0-1.2.5-2.1,1.5-2.7l95-49.3c2.7-1.2,4.1-3.7,4.1-7.6V45.7c.2-1.8-.2-3.3-1-4.5-.7-1.2-1.7-1.8-3-1.8s-1.1.3-2.6.9ZM130.7,134.1c4.3,6,6.5,13.8,6.5,23.4v42.3c0,1.5-.7,2.2-2,2.2h-43.7c-1.2,0-1.9-.8-1.9-2.3v-42.3c.1-9.6,2.3-17.4,6.7-23.4,4.4-6,10.2-9,17.4-9s12.6,3,17,9Z"/><rect class="b" x="30.9" y="595.5" width="852.2" height="40.8"/></svg>