<?xml version="1.0" encoding="UTF-8"?><svg id="a" xmlns="http://www.w3.org/2000/svg" viewBox="0 0 950 950"><defs><style>.b{fill:#72cac5;}.c{fill:#b2d3de;}.d{fill:#163666;}</style></defs><circle class="d" cx="475" cy="475" r="429.3"/><circle class="b" cx="475" cy="475" r="382.2"/><path class="c" d="M723.4,486.5c-1.1.1-2.1-.7-1.8-1.7,1.1-5-6.9-10.9-12.5-11.3-.8,0-1.6.5-1.8,1.2-2.6,11.8-4.7,23.7-7.3,35.6-.4,2-3.5,1.4-3.2-.5,2.3-15.1,5.5-30,7.6-45.1,1.1-5.1-.7-11.4-6.8-12.2-.1,0-.2,0-.3-.1-1.7-.7-3.5-1-5.3-.9-.8,0-1.4.6-1.5,1.4-4.6,43.1-13.6,85.8-18.6,128.8,0,.7.3,1.4,1.1,1.6,13.7,4.8,14.7-12,15.9-22.2.1-1.2,1.6-1.8,2.6-1,10.5,7.1,24.9-.9,29.7-11.3,7.1-14.4,12.6-29.9,14.4-45.7.7-6.9-4.5-17.3-12.2-16.5h0Z"/><path class="c" d="M737.8,403.7c-2.2-15.8-9.1-30.6-18.5-43.5,0,0,0,0,0-.1-28.4-47.3-85.1-77-141.3-72.4-42.3,2.8-83.1,23.4-109.3,55.9-14.8,18.7-28.9,39.4-30.5,63.5,0,.2,0,.4,0,.5.9,3.9,5.3,6.5,4.2,11.1,0,.1,0,.2,0,.3-1.1,20.2,1.6,40.3,7.6,59.6.4,1.2,1.9,1.5,2.8.7,3.3-3,5.8-8.1,9.1-11.6.4-.4.5-.9.5-1.4-2.5-15.4-5.3-31-4-46.7,0-.4.2-.8.5-1.1,9.1-8.3,8.4-21.7,11.2-32.7,0-.1,0-.2.1-.2,23.2-54.9,90.5-86.8,149.2-71.1,34.7,7.5,65.2,30.4,82.3,60.7,0,0,0,0,0,.1,7.4,10.3,5.6,23.5,10,34.8.6,4,7.1,4.3,6.2,8.8.2,14.3-.8,28.7-3.7,42.7-2.6,7.5,4.8,12.1,9.7,17.2.9.9,2.5.5,2.8-.7,4.7-20,7.7-40.4,6.6-61,0-.1,0-.2,0-.3-1.2-5.4,6.5-7.8,4.8-13.1h0Z"/><path class="c" d="M482.8,451.4c-1.8-.2-3.6.1-5.3.9-.1,0-.2,0-.3.1-6.1.9-8,7.1-6.8,12.2,2.1,15.1,5.3,30.1,7.6,45.1.3,2-2.8,2.5-3.2.5-2.6-11.8-4.7-23.8-7.3-35.6-.2-.7-.9-1.3-1.8-1.2-5.5.3-13.6,6.3-12.5,11.3.2,1-.7,1.8-1.8,1.7-7.6-.7-12.9,9.7-12.1,16.5,1.8,15.8,7.4,31.3,14.4,45.7,4.8,10.4,19.2,18.4,29.7,11.3,1-.7,2.4-.1,2.6,1,1.1,10.1,2.2,27,15.9,22.2.7-.2,1.1-.9,1.1-1.6-5.1-43-14.1-85.7-18.6-128.8-.2-.7-.8-1.3-1.5-1.4h0Z"/><path class="c" d="M533.5,590.2c.7-.4,1.4-.5,2.2-.4,5.5.7,11.1,3.4,16.6,1.2,7.6-3.7,12.6-13.2,10.8-22.6-5.4-42.5-9.5-85.2-16-127.4,0-.4-.2-.8-.3-1.2-4.3-10.9-16-11.7-24.6-7.2-1.2.6-2.6.6-3.8-.1-5.8-3.5-12.5-5.7-18.9-2.4-6.3,2.1-11,9.7-8.9,17.3,6,41.1,11.7,82.3,16.8,123.5,1.2,7,1.6,15.2,6.7,20.1,5.9,4.9,13.4,2.6,19.4-.7h0ZM534.2,457.1c1.5,3.9,1.4,9.7,2.1,13.8,3.4,29.8,7.5,59.5,10.5,89.3.4,3.5-2.7,6.5-5.6,5.1-1.6-.8-2.6-2.5-2.6-5.5,0-.2,0-.4,0-.7-4.4-33.2-9.9-66.4-12.4-99.8-.4-5.4,6.2-7.3,8.1-2.3h0Z"/><path class="c" d="M634.4,592.9c6.9-4.4,13.4,3.8,20.5,2.3,7.3-.9,11.3-9.3,11.8-16.8,5.5-43,12.1-86,17.3-129.1,3.2-16.5-16.6-24.7-26.4-14.6-.7.7-1.5,1.2-2.4,1.2-5.5.2-11.2-7-17.4-3.5-5.2,1.8-9.7,6.7-11.1,12.8,0,.2-.1.4-.1.6-5.1,42.1-9.8,84.3-15.3,126.5-2.3,14.1,11.5,26.5,23,20.6h0ZM628.1,562.9c.1-.4.2-.7.3-1,3.6-34.3,7.2-68.6,12.5-102.6.4-2.4,2.3-4.2,4.4-4,6,.6,3.2,11.6,2.7,18-4.4,30.8-6.9,61.9-11.7,92.7-1,5.5-9.7,1.8-8.2-3.2Z"/><path class="d" d="M287.3,519.8l-25.8-49c-.3-.6,0-1,.6-1.3,7.7-2.8,13.8-7.3,18.2-13.4,4.4-6.1,6.6-13.3,6.6-21.4s-1.9-15.4-5.8-21.6c-3.9-6.2-9.3-11.1-16.3-14.6-7-3.5-15.1-5.2-24.3-5.2h-61.6c-.9,0-1.7.2-2.2.7-.5.5-.8,1.2-.8,2v124.2c0,.9.3,1.5.8,2,.5.5,1.3.7,2.2.7h32.1c.9,0,1.7-.2,2.2-.7.5-.5.8-1.2.8-2v-46.2c0-.6.3-.9,1-.9h8.5c.5,0,.9.2,1.2.7l22.3,47.1c.5,1.4,1.7,2,3.5,2h34.1c.8,0,1.5-.2,2-.6.5-.4.8-.9.8-1.5s-.1-.6-.4-1.3ZM244.9,443.5c-2.7,2.2-6.2,3.2-10.6,3.2h-19.1c-.7,0-1-.3-1-.9v-21.7c0-.6.3-.9,1-.9h19.1c4.3,0,7.9,1.1,10.6,3.2,2.7,2.2,4.1,5,4.1,8.6s-1.4,6.3-4.1,8.4Z"/><path class="d" d="M392.3,393.3h-96.9c-.9,0-1.7.2-2.2.7-.5.5-.8,1.2-.8,2v124.2c0,.9.3,1.5.8,2,.5.5,1.3.7,2.2.7h96.9c.9,0,1.7-.2,2.2-.7.5-.5.8-1.2.8-2v-24.3c0-.9-.3-1.5-.8-2-.5-.5-1.3-.7-2.2-.7h-60.7c-.7,0-1-.3-1-.9v-19.3c0-.6.3-.9,1-.9h37.6c.9,0,1.7-.2,2.2-.7.5-.5.8-1.2.8-2v-24.1c0-.9-.3-1.5-.8-2-.5-.5-1.3-.7-2.2-.7h-37.6c-.7,0-1-.3-1-.9v-17.4c0-.6.3-.9,1-.9h60.7c.9,0,1.7-.2,2.2-.7.5-.5.8-1.2.8-2v-24.3c0-.9-.3-1.5-.8-2-.5-.5-1.3-.7-2.2-.7Z"/><path class="d" d="M517.4,393.3h-33.9c-1.8,0-2.8.8-3.3,2.4l-19.7,78.2c-.1.5-.3.7-.6.7s-.5-.2-.6-.7l-20.3-78.2c-.4-1.6-1.5-2.4-3.3-2.4h-34.7c-1.9,0-2.8.7-2.8,2.2s0,.7.2.9l40,124.2c.1.7.5,1.3,1.2,1.8.7.4,1.4.6,2.2.6h34.3c.8,0,1.6-.2,2.2-.6.7-.4,1.1-1,1.2-1.8l40.4-124.2c.3-1,.2-1.8-.3-2.3-.5-.6-1.3-.8-2.3-.8Z"/><path class="d" d="M287.5,657.9l-25.8-49c-.3-.6,0-1,.6-1.3,7.7-2.8,13.8-7.3,18.2-13.4,4.4-6.1,6.6-13.3,6.6-21.4s-1.9-15.4-5.8-21.6c-3.9-6.2-9.3-11.1-16.3-14.6-7-3.5-15.1-5.2-24.3-5.2h-61.6c-.9,0-1.7.2-2.2.7-.5.5-.8,1.2-.8,2v124.2c0,.9.3,1.5.8,2,.5.5,1.3.7,2.2.7h32.1c.9,0,1.7-.2,2.2-.7.5-.5.8-1.2.8-2v-46.2c0-.6.3-.9,1-.9h8.5c.5,0,.9.2,1.2.7l22.3,47.1c.5,1.4,1.7,2,3.5,2h34.1c.8,0,1.5-.2,2-.6.5-.4.8-.9.8-1.5s-.1-.6-.4-1.3ZM245.1,581.6c-2.7,2.2-6.2,3.2-10.6,3.2h-19.1c-.7,0-1-.3-1-.9v-21.7c0-.6.3-.9,1-.9h19.1c4.3,0,7.9,1.1,10.6,3.2,2.7,2.2,4.1,5,4.1,8.6s-1.4,6.3-4.1,8.4Z"/><path class="d" d="M392.5,531.5h-96.9c-.9,0-1.7.2-2.2.7-.5.5-.8,1.2-.8,2v124.2c0,.9.3,1.5.8,2,.5.5,1.3.7,2.2.7h96.9c.9,0,1.7-.2,2.2-.7.5-.5.8-1.2.8-2v-24.3c0-.9-.3-1.5-.8-2-.5-.5-1.3-.7-2.2-.7h-60.7c-.7,0-1-.3-1-.9v-19.3c0-.6.3-.9,1-.9h37.6c.9,0,1.7-.2,2.2-.7.5-.5.8-1.2.8-2v-24.1c0-.9-.3-1.5-.8-2-.5-.5-1.3-.7-2.2-.7h-37.6c-.7,0-1-.3-1-.9v-17.4c0-.6.3-.9,1-.9h60.7c.9,0,1.7-.2,2.2-.7.5-.5.8-1.2.8-2v-24.3c0-.9-.3-1.5-.8-2-.5-.5-1.3-.7-2.2-.7Z"/><path class="d" d="M507,606.8c-2.8-4.8-7.3-8.8-13.4-11.9-.5-.4-.5-.7,0-1.1,10.3-5.3,15.4-13.8,15.4-25.6s-4.4-22.7-13.1-28.3c-8.7-5.6-21.8-8.4-39.1-8.4h-52.8c-.9,0-1.7.2-2.2.7-.5.5-.8,1.2-.8,2v124.2c0,.9.3,1.5.8,2,.5.5,1.3.7,2.2.7h54.6c15.6,0,28.2-3,38-9,9.8-6,14.6-15.4,14.6-28.1s-1.4-12.6-4.3-17.4ZM439.1,562.3c0-.6.3-.9,1-.9h16.7c9.9,0,14.8,3.4,14.8,10.2s-4.9,10.2-14.8,10.2h-16.7c-.7,0-1-.3-1-.9v-18.5ZM458.6,631.4h-18.5c-.7,0-1-.3-1-.9v-19.5c0-.6.3-.9,1-.9h18.7c9.5,0,14.2,3.5,14.2,10.4s-4.8,10.9-14.4,10.9Z"/><path class="d" d="M617.1,531.5h-96.9c-.9,0-1.7.2-2.2.7-.5.5-.8,1.2-.8,2v124.2c0,.9.3,1.5.8,2,.5.5,1.3.7,2.2.7h96.9c.9,0,1.7-.2,2.2-.7.5-.5.8-1.2.8-2v-24.3c0-.9-.3-1.5-.8-2-.5-.5-1.3-.7-2.2-.7h-60.7c-.7,0-1-.3-1-.9v-19.3c0-.6.3-.9,1-.9h37.6c.9,0,1.7-.2,2.2-.7.5-.5.8-1.2.8-2v-24.1c0-.9-.3-1.5-.8-2-.5-.5-1.3-.7-2.2-.7h-37.6c-.7,0-1-.3-1-.9v-17.4c0-.6.3-.9,1-.9h60.7c.9,0,1.7-.2,2.2-.7.5-.5.8-1.2.8-2v-24.3c0-.9-.3-1.5-.8-2-.5-.5-1.3-.7-2.2-.7Z"/><path class="d" d="M727.5,631.4h-62.8c-.7,0-1-.3-1-.9v-96.2c0-.9-.3-1.5-.8-2-.5-.5-1.3-.7-2.2-.7h-32.1c-.9,0-1.7.2-2.2.7-.5.5-.8,1.2-.8,2v124.2c0,.9.3,1.5.8,2,.5.5,1.3.7,2.2.7h98.9c.9,0,1.7-.2,2.2-.7.5-.5.8-1.2.8-2v-24.3c0-.9-.3-1.5-.8-2-.5-.5-1.3-.7-2.2-.7Z"/><path class="d" d="M768.6,632.7c-3.6-3.2-8.2-4.8-13.7-4.8s-10.1,1.6-13.7,4.8c-3.6,3.2-5.4,7.4-5.4,12.6s1.8,9.2,5.4,12.5c3.6,3.3,8.2,4.9,13.7,4.9s10-1.7,13.6-5c3.7-3.3,5.5-7.5,5.5-12.4s-1.8-9.4-5.4-12.6Z"/></svg>