<?xml version="1.0" encoding="UTF-8"?><svg id="a" xmlns="http://www.w3.org/2000/svg" viewBox="0 0 400 400"><path d="M175.2,235.9c-.2-.2-.3-.3-.5-.5-.2-.2-.3-.3-.5-.5-.2-.2-.3-.3-.5-.5-.2-.2-.3-.3-.5-.5-.2-.2-.3-.3-.5-.5-.2-.2-.3-.3-.5-.5-.2-.2-.3-.3-.5-.5-.2-.2-.3-.3-.5-.5-.2-.2-.3-.3-.5-.5-.2-.2-.3-.3-.5-.5-.2-.2-.3-.3-.5-.5-.2-.2-.3-.3-.5-.5-.2-.2-.3-.3-.5-.5-.2-.2-.3-.3-.5-.5-.2-.2-.3-.3-.5-.5-.2-.2-.3-.3-.5-.5-.2-.2-.3-.3-.5-.5-.2-.2-.3-.3-.5-.5-.2-.2-.3-.3-.5-.5-.2-.2-.3-.3-.5-.5-.2-.2-.3-.3-.5-.5-.2-.2-.3-.3-.5-.5-.2-.2-.3-.3-.5-.5-.2-.2-.3-.3-.5-.5-.2-.2-.3-.3-.5-.5-.2-.2-.3-.3-.5-.5-.2-.2-.3-.3-.5-.5-.2-.2-.3-.3-.5-.5-.2-.2-.3-.3-.5-.5-.2-.2-.3-.3-.5-.5-.2-.2-.3-.3-.5-.5-.2-.2-.3-.3-.5-.5-.2-.2-.3-.3-.5-.5-.2-.2-.3-.3-.5-.5-.2-.2-.3-.3-.5-.5-.2-.2-.3-.3-.5-.5-.2-.2-.3-.3-.5-.5-.2-.2-.3-.3-.5-.5-.2-.2-.3-.3-.5-.5-.2-.2-.3-.3-.5-.5-.2-.2-.3-.3-.5-.5-.2-.2-.3-.3-.5-.5-.2-.2-.3-.3-.5-.5-.2-.2-.3-.3-.5-.5-.2-.2-.3-.3-.5-.5-.2-.2-.3-.3-.5-.5-.2-.2-.3-.3-.5-.5-.2-.2-.3-.3-.5-.5-.2-.2-.3-.3-.5-.5-.2-.2-.3-.3-.5-.5-.2-.2-.3-.3-.5-.5-.2-.2-.3-.3-.5-.5-.2-.2-.3-.3-.5-.5-.2-.2-.3-.3-.5-.5-.2-.2-.3-.3-.5-.5-.2-.2-.3-.3-.5-.5-.2-.2-.3-.3-.5-.5-.2-.2-.3-.3-.5-.5-.1-.1-.3-.3-.4-.4,2.2,2.5,4.2,5.3,5.9,8.3,11.1,20.5,3.4,46.2-17.1,57.3-18.8,10.1-81.1,5.3-88.1,4.8-.7,0-1.4-.3-2.1-.6-.2-.1-.5-.3-.7-.4.3.4.6.8,1,1.1.2.2.3.4.5.5.2.2.3.4.5.5.2.2.3.4.5.5.2.2.3.4.5.5.2.2.3.4.5.5.2.2.3.4.5.5.2.2.3.4.5.5.2.2.3.4.5.5.2.2.3.4.5.5.2.2.3.4.5.5.2.2.3.4.5.5.2.2.3.4.5.5.2.2.3.4.5.5.2.2.3.4.5.5.2.2.3.4.5.5.2.2.3.4.5.5.2.2.3.4.5.5.2.2.3.4.5.5.2.2.3.4.5.5.2.2.3.4.5.5.2.2.3.4.5.5.2.2.3.4.5.5.2.2.3.4.5.5.2.2.3.4.5.5.2.2.3.4.5.5.2.2.3.4.5.5.2.2.3.4.5.5.2.2.3.4.5.5.2.2.3.4.5.5.2.2.3.4.5.5.2.2.3.4.5.5.2.2.3.4.5.5.2.2.3.4.5.5.2.2.3.4.5.5.2.2.3.4.5.5.2.2.3.4.5.5.2.2.3.4.5.5.2.2.3.4.5.5.2.2.3.4.5.5.2.2.3.4.5.5.2.2.3.4.5.5.2.2.3.4.5.5.2.2.3.4.5.5.2.2.3.4.5.5.2.2.3.4.5.5.2.2.3.4.5.5.2.2.3.4.5.5.2.2.3.4.5.5.2.2.3.4.5.5.2.2.3.4.5.5.2.2.3.4.5.5.2.2.3.4.5.5.2.2.3.4.5.5.2.2.3.4.5.5.2.2.3.4.5.5.2.2.3.4.5.5.2.2.3.4.5.5.2.2.3.4.5.5.2.2.3.4.5.5.4.5.9.9,1.6,1.2.6.3,1.4.6,2.1.6,7.1.6,69.4,5.4,88.1-4.8,17.3-9.3,25.4-28.9,21-47.1l-10.2-19c-.5-.5-.9-1-1.4-1.5Z"/><path d="M362.3,147.2c-.2-.2-.3-.4-.5-.5-.2-.2-.3-.4-.5-.5-.2-.2-.3-.4-.5-.5-.2-.2-.3-.4-.5-.5-.2-.2-.3-.4-.5-.5-.2-.2-.3-.4-.5-.5-.2-.2-.3-.4-.5-.5-.2-.2-.3-.4-.5-.5-.2-.2-.3-.4-.5-.5-.2-.2-.3-.4-.5-.5-.2-.2-.3-.4-.5-.5-.2-.2-.3-.4-.5-.5-.2-.2-.3-.4-.5-.5-.2-.2-.3-.4-.5-.5-.2-.2-.3-.4-.5-.5-.2-.2-.3-.4-.5-.5-.2-.2-.3-.4-.5-.5-.2-.2-.3-.4-.5-.5-.2-.2-.3-.4-.5-.5-.2-.2-.3-.4-.5-.5-.2-.2-.3-.4-.5-.5-.2-.2-.3-.4-.5-.5-.2-.2-.3-.4-.5-.5-.2-.2-.3-.4-.5-.5-.2-.2-.3-.4-.5-.5-.2-.2-.3-.4-.5-.5-.2-.2-.3-.4-.5-.5-.2-.2-.3-.4-.5-.5-.2-.2-.3-.4-.5-.5-.2-.2-.3-.4-.5-.5-.2-.2-.3-.4-.5-.5-.2-.2-.3-.4-.5-.5-.2-.2-.3-.4-.5-.5-.2-.2-.3-.4-.5-.5-.2-.2-.3-.4-.5-.5-.2-.2-.3-.4-.5-.5-.2-.2-.3-.4-.5-.5-.2-.2-.3-.4-.5-.5-.2-.2-.3-.4-.5-.5-.2-.2-.3-.4-.5-.5-.2-.2-.3-.4-.5-.5-.2-.2-.3-.4-.5-.5-.2-.2-.3-.4-.5-.5-.2-.2-.3-.4-.5-.5-.2-.2-.3-.4-.5-.5-.2-.2-.3-.4-.5-.5-.2-.2-.3-.4-.5-.5-.2-.2-.3-.4-.5-.5-.2-.2-.3-.4-.5-.5-.2-.2-.3-.4-.5-.5-.2-.2-.3-.4-.5-.5-.2-.2-.3-.4-.5-.5-.2-.2-.3-.4-.5-.5-.2-.2-.3-.4-.5-.5-.2-.2-.3-.4-.5-.5-.2-.2-.3-.4-.5-.5-.2-.2-.3-.4-.5-.5-.2-.2-.3-.4-.5-.5-.2-.2-.3-.4-.5-.5-.3-.3-.6-.6-.9-.8,1,1.5,1.3,3.4.6,5.2-9.1,21.5-21.9,41.3-37.9,58.3,0,0,0,.1,0,.2,0,0-.2.1-.2.2-13.5,14.4-29.2,26.6-46.4,36.2l-10.1,5.7v48c-.1,2-1.2,3.9-3,4.8l-24,12.9c-1.9,1-4.2.8-5.9-.4.3.4.6.8,1,1.1.2.2.3.4.5.5.2.2.3.4.5.5.2.2.3.4.5.5.2.2.3.4.5.5.2.2.3.4.5.5.2.2.3.4.5.5.2.2.3.4.5.5.2.2.3.4.5.5.2.2.3.4.5.5.2.2.3.4.5.5.2.2.3.4.5.5.2.2.3.4.5.5.2.2.3.4.5.5.2.2.3.4.5.5.2.2.3.4.5.5.2.2.3.4.5.5.2.2.3.4.5.5.2.2.3.4.5.5.2.2.3.4.5.5.2.2.3.4.5.5.2.2.3.4.5.5.2.2.3.4.5.5.2.2.3.4.5.5.2.2.3.4.5.5.2.2.3.4.5.5.2.2.3.4.5.5.2.2.3.4.5.5.2.2.3.4.5.5.2.2.3.4.5.5.2.2.3.4.5.5.2.2.3.4.5.5.2.2.3.4.5.5.2.2.3.4.5.5.2.2.3.4.5.5.2.2.3.4.5.5.2.2.3.4.5.5.2.2.3.4.5.5.2.2.3.4.5.5.2.2.3.4.5.5.2.2.3.4.5.5.2.2.3.4.5.5.2.2.3.4.5.5.2.2.3.4.5.5.2.2.3.4.5.5.2.2.3.4.5.5.2.2.3.4.5.5.2.2.3.4.5.5.2.2.3.4.5.5.2.2.3.4.5.5.2.2.3.4.5.5.2.2.3.4.5.5.2.2.3.4.5.5.2.2.3.4.5.5.2.2.3.4.5.5.2.2.3.4.5.5.2.2.3.4.5.5.2.2.3.4.5.5.2.2.3.4.5.5.2.2.3.4.5.5,1.7,1.9,4.4,2.5,6.8,1.2l24-12.9c1.8-.9,2.9-2.8,2.9-4.8v-48c.1,0,10.2-5.7,10.2-5.7,17.2-9.6,32.9-21.9,46.4-36.2,0,0,.1-.1.2-.2,0,0,0-.1,0-.2,16-17,28.8-36.7,37.9-58.3.8-2.3.1-4.7-1.6-6.2Z"/><path d="M186.3,254.3c.2.7.4,1.4.6,2.1l15.6,29c.4.7.9,1.3,1.6,1.8,0-.1-.2-.3-.2-.4l-17.5-32.5Z"/><path d="M120.9,133c-1.4-2.7-.4-6,2.2-7.4l24-12.9c1.8-1,3.9-.9,5.6.2l40.2,26.2,10.3-5.4c38.7-20.1,83-26.6,125.8-18.6.2,0,.5.1.7.2.5.2,1,.5,1.4.8-.6-1-1.6-1.8-2.8-2.2-.2,0-.5-.2-.7-.2-42.8-8.1-87.1-1.5-125.8,18.6l-10.3,5.4-40.2-26.2c-1.7-1.1-3.8-1.2-5.6-.2l-24,12.9c-2.7,1.4-3.7,4.8-2.2,7.4l57.1,105.8c.5.5,1,1.1,1.4,1.6l-57.2-106Z"/><path d="M210,287.6l24-12.9c1.8-.9,2.9-2.8,2.9-4.8v-48c.1,0,10.2-5.7,10.2-5.7,17.2-9.6,32.9-21.9,46.4-36.2,0,0,.1-.1.2-.2,0,0,0-.1,0-.2,16-17,28.8-36.7,37.9-58.3.7-1.8.4-3.7-.6-5.2-.4-.3-.9-.6-1.4-.8-.2,0-.5-.2-.7-.2-42.8-8.1-87.1-1.5-125.8,18.6l-10.3,5.4-40.2-26.2c-1.7-1.1-3.8-1.2-5.6-.2l-24,12.9c-2.7,1.4-3.7,4.8-2.2,7.4l57.2,106c-.5-.6-1-1.1-1.4-1.6l10.2,19c-.2-.7-.4-1.4-.6-2.1l17.5,32.5c0,.1.2.3.2.4,1.7,1.2,3.9,1.5,5.9.4ZM131.8,131.2l16.3-8.8,40.2,26.2c1.7,1.1,3.8,1.2,5.5.3l13.1-6.8c14.9-7.7,30.7-13.3,47.1-16.7,1.8,9.7,5.1,19,9.8,27.7,4.7,8.6,10.6,16.5,17.6,23.3-11.8,11.8-25.2,22-39.8,30.2l-12.9,7.3c-1.7.9-2.8,2.8-2.8,4.8l-.2,48-16.3,8.8-77.8-144.1Z"/><path d="M42.5,269.3c3.4-6.2,33.6-60.9,52.4-71.1,16.9-9.1,37.1-5.6,50,7.3,0,0,0,0,0,0-12.8-14.1-33.9-18.2-51.4-8.8-18.8,10.1-49,64.8-52.4,71.1-1.3,2.5-.6,5.4,1.6,7.1-1.1-1.6-1.3-3.8-.3-5.7Z"/><path d="M45.5,276.1c7.1.6,69.4,5.4,88.1-4.8,20.5-11.1,28.2-36.7,17.1-57.3-1.7-3.1-3.6-5.8-5.9-8.3,0,0,0,0,0,0-12.9-12.9-33.1-16.4-50-7.3-18.8,10.1-49,64.8-52.4,71.1-1,1.9-.8,4,.3,5.7.2.2.4.3.7.4.6.3,1.4.6,2.1.6Z"/></svg>