<?xml version="1.0" encoding="UTF-8"?><svg id="a" xmlns="http://www.w3.org/2000/svg" viewBox="0 0 400 400"><path d="M224.4,59c10.9,6.2,20.9,14.2,30,22.7,1.4,1.3,2.9,2.6,4.4,3.9,2.1,1.8,3.9,3.8,5.7,5.9,1.5,1.7,3,3.3,4.5,4.9,11.4,12.5,19.9,26.8,28,41.5,2.2,4,4.4,7.9,6.6,11.8l1,1.7,2.1,3.6c1.9,3.4,3.9,6.8,5.8,10.2l1.4,2.5c2.5,4.4,5.1,8.9,7.5,13.3,3.7,6.7,7.2,13.1,11.9,19,4.2,5.6,6.6,12.6,7.7,19.5.6,5.4.6,10.8.5,16.2v3.1c0,2.1,0,4.3,0,6.4,0,2.9,0,5.9,0,8.8,0,10.9,0,21.7-.1,32.6,0,5.4,0,10.8,0,16.2,0,4.8,0,9.6,0,14.4,0,2.5,0,5,0,7.5q0,23.6-5.2,32.8c-3.4,5.1-7.1,8.7-12.4,11.9-9.6,4.4-18.9,4.2-29.2,4.2h-3.8c-3.5,0-6.9,0-10.4,0h-6.5c-7.6,0-15.1,0-22.7,0-7,0-14.1,0-21.1,0-6.1,0-12.1,0-18.2,0-3.6,0-7.2,0-10.8,0-3.4,0-6.8,0-10.2,0-1.2,0-2.5,0-3.7,0q-21.6,0-30.8-4.9c-7.3-4.6-13.3-11.2-19.3-17.3-1.1-1.1-2.1-2.1-3.2-3.2-2.2-2.2-4.5-4.5-6.7-6.7-2.9-2.9-5.7-5.7-8.6-8.6-2.2-2.2-4.4-4.4-6.6-6.6l-3.2-3.2c-1.5-1.5-3-3-4.4-4.4l-1.3-1.3c-2.5-2.6-5-5.2-7.3-8-1.1-1.3-2.3-2.5-3.5-3.7-2.1-2.1-4-4.2-5.9-6.4-1.4-1.6-2.8-3.1-4.2-4.7-9.4-10.4-17.6-21.8-21.8-35.4v-1.4l-1.9-.2c-7.5-.8-14.5-2.3-20.7-6.9-4-3.4-6.5-6.7-8.4-11.6-2.4-6.8-3.2-13.5-2.2-20.7,1.2-6,3.2-10.9,7.2-15.6,4-4.4,8.2-7.6,13.7-9.7q7.3-2.1,11-2.1l-.5-1.1c-5.3-11.1-9.5-21.5-8.6-34,2.2-21.9,16.7-44.1,29.2-61.6,4.1-5.6,8.4-10.9,13.2-15.8,1.1-1.2,2.3-2.4,3.4-3.5,13.2-13.6,29.4-24.2,47.7-29.5,4.4-1.2,8.8-1.9,13.3-2.5l2.2-.3c23.2-2.4,45.7,4.8,65.8,15.8M133.6,69.4c-2.8,2.2-5.2,4.8-6.8,8-.7,2.1-.8,3.8-.8,6v2.5s0,2.7,0,2.7v2.8c0,1.9,0,3.9,0,5.8,0,2.5,0,4.9,0,7.4,0,1.9,0,3.8,0,5.7,0,1.3,0,2.7,0,4q0,5.2,1.6,10.2c2.1,3.2,4.2,5.4,7.5,7.3,2.7,1.3,5.4,2,8.4,1.9,4.1-.8,7.8-2.1,11-4.8,2.9-3.4,3.9-7.4,4.8-11.7v-1.4l1.1.5c3.7,1.4,6.5,1.7,10.4,1.3,1.6-.4,2.9-.9,4.3-1.7l.2,1.5q.8,5.4,3.2,10.2c2.3,2.4,4.5,4.3,7.4,5.8,3.9.7,7.6.9,11.5,0,3.6-1.4,5.9-3.4,8.3-6.3,1.6-2.4,2.3-4.8,2.5-7.7v-2.2s0-2.5,0-2.5v-2.7s0-2.8,0-2.8c0-1.9,0-3.9,0-5.8,0-2.5,0-4.9,0-7.4,0-1.9,0-3.8,0-5.7,0-1.3,0-2.7,0-4q0-4.5-1.2-8.7c-1.4-2.3-3-4.3-5.1-6.1l-1.2-1c-2.2-1.5-3.6-2.2-6.3-2.5h-2.6s-2.6-.1-2.6-.1c-3.5.2-6.1,1.9-9,3.8-2.6,1.8-5.1,3.7-7.5,5.6l-1.5,1.1-1.3,1q-1.4.6-3,.5c-2.2-.7-3.8-1.8-5.7-3.1l-2.2-1.5-2.3-1.6c-1.5-1-3-2-4.5-3.1l-2-1.4c-2-1.2-3.4-1.7-5.7-1.9q-5.9-.1-11.3,2M117.9,173.1c-8.2,5.3-17.7,11.8-22.7,20.4-1,2.2-1.8,4.4-2.5,6.7l-.6,1.9c-5,16-4.9,32.5-1.4,48.8,1.8,7.6,4.8,14.3,8.6,21.1l1.1,2c3.3,5.6,7.7,10.1,12.2,14.7,1,1,2,2.1,3,3.2,10,10.5,23.7,17.1,37.5,21.2,14.9,4.2,32.2,3.7,47.1,0,12.2-3.3,22.7-8.6,31.9-17.4,11.5-11.9,23.3-28,28.2-44,3.7-16.1,3.1-33.6-1.5-49.4-2.2-7.1-4.7-12.2-10.2-17.3-6.6-5.8-13.6-10.5-21.2-14.8l-2-1.1c-17.5-9.4-37.5-11.8-57-11.3-17.9.7-35.3,6.1-50.4,15.5M274.8,192.1l.3,1.1c1.3,4.6,2.4,9.2,3.5,13.8l.5,1.9c2.8,11.7,3.2,24.6-.2,36.2-1,3-2.1,5.9-3.3,8.9q-.9,2-.8,3.5c5.2.4,9.7-.8,14.5-2.8,5.3-3,10.1-7.1,13.5-12.1,3.3-5.8,4.6-11.7,4.6-18.3-.1-6.4-1.2-11.3-4.6-16.8-4.4-6.4-9.4-10.6-16.4-14-3.8-1.5-7.7-1.5-11.7-1.4"/><path d="M106.9,236.2c6.1.6,11.8,2.2,17.7,3.8,1.3.3,2.6.7,3.9,1q10.5,2.6,13.3,5.2c1.9,2.4,3.1,5.1,4.4,7.9,3.3,4.4,7.5,7.1,12.5,9.3,7,2.9,14.8,3.7,22.2,2.8,7.7-1.3,14.5-3.9,20.7-8.8,2.6-2.5,4.4-5.4,6.2-8.5,1-1.5,1.8-2.6,3.1-3.8q1.3-.6,2.7-1l1.6-.5,1.7-.5,1.8-.5c1.3-.4,2.5-.7,3.8-1.1,1.9-.6,3.8-1.1,5.7-1.7l3.7-1.1,1.7-.5c3.4-1,6.7-1.6,10.3-2-.8,11.7-5.2,23.6-11,33.7-3.6,5.3-7.7,9.5-13.3,12.6-3.1,1.4-5.9,2-9.3,2.3-2.2.2-4.2.4-6.3,1-1.6,1.9-2.1,3.8-2.8,6.2-1.8,2.7-3.5,4.3-6.3,5.8-3,1.2-5.8,1.5-9.1,1.4-2.8-.4-5-1.4-7.3-3l-1.1-1.1-1-.9q-1.4,0-2.8.7c-1.1.9-2.3,1.8-3.4,2.8-2.2,1.3-4.2,1.5-6.7,1.6-3.1,0-5.6-.7-8.4-2-2.6-1.7-4.6-3.9-6.3-6.5-.5-1.4-1-2.7-1.4-4.1h-2.3c-6-.3-11.6-.5-17-3.4-5.7-3.6-9.8-8.4-13.1-14.3-1.7-3.3-3-6.6-4.2-10.1l-.5-1.6c-2.2-6.7-4-13.6-3.6-20.7M141.3,200.4c2.7.9,4.5,2.5,6.7,4.3,2.2,2.6,3.9,4.9,4.8,8.2.5,3.4.2,6.1-.8,9.3-1.2,3-2.5,5-5.1,7-2.1,1.5-3.8,2.6-6.2,3.4-4,.4-7.8.4-11.6-1.1-3.1-1.6-5.1-3.6-7-6.5-1.7-2.9-2.2-5.3-2.3-8.6.1-3.3.6-5.7,2.3-8.6,1.8-2.6,3.8-4.8,6.5-6.5,4-1.8,8.4-1.6,12.7-1.1M217.7,200.4c3.3,1.1,5.5,3.3,7.8,5.8,1.5,1.8,2.4,3.6,3.2,5.8.5,4,.4,7.8-1,11.6-1.7,3.3-4.2,5.6-7.2,7.7-3.1,1.6-6.3,1.7-9.8,1.6-3.1-.3-5.5-1.2-8.1-3-2.3-2.1-4.2-4.3-5.6-7.1-1.2-3.7-1-7.6-.6-11.5,1.2-3.3,3.3-5.5,5.9-7.8,4.7-3.9,9.6-3.8,15.4-3.2"/></svg>