<?xml version="1.0" encoding="UTF-8"?><svg id="a" xmlns="http://www.w3.org/2000/svg" viewBox="0 0 115 112"><defs><style>.b{fill:none;}</style></defs><path class="b" d="M26,27.8c-.5-.6-1.2-1-2-1-1.4,0-2.5,1.1-2.5,2.5s1.1,2.5,2.5,2.5,1.7-.5,2.1-1.2c.2-.4.4-.8.4-1.3s-.2-1.1-.5-1.5Z"/><path class="b" d="M45.4,35.6c-.1-.1-.2-.2-.3-.3-.2-.1-.3-.3-.5-.5-.1-.1-.2-.2-.3-.3v1.9c0,2.4-1.5,4.5-3.6,5.3v.8h4.7v-7Z"/><path class="b" d="M59.9,37.9c-.5,1.7-1.7,3.2-3.4,3.8v.8h4l-.6-4.6Z"/><path class="b" d="M74.3,58.8c-.1,0-.2,0-.3-.1v-.2c0,0-.2,0-.2-.1v4.4c-2.1.9-3.6,2.9-3.6,5.3v9h4.7v-15.8c0-.8-.1-1.5-.4-2.1,0,0,0,0,0,0h0c0-.1,0-.2-.1-.3Z"/><path class="b" d="M79.3,42.1v1.6h-12l1.4-11.5h-7.9l1.4,11.5h-14.2v-10.3l1-.4c1.6-.6,2.6-2.2,2.6-3.8v-2.7h-8.3v2.7c0,1.7,1,3.2,2.6,3.8l1,.4v10.3h-14.7v-10.3l1-.4c1.6-.6,2.6-2.2,2.6-3.8v-2.7h-8.3v2.7c0,.9.3,1.7.8,2.4.4.6,1.1,1.1,1.8,1.4l1,.4v10.3h-5.2c-2.3,0-4.2,1.9-4.2,4.2v28.7c0,2.3,1.9,4.2,4.2,4.2h51.7c2.3,0,4.2-1.9,4.2-4.2v-34.5c0-3.5,2.5-6.4,5.7-7.2v-2.6c-4.7.8-8.3,4.9-8.3,9.8ZM56.3,68.7c0,3.2-1.1,6.3-3.1,8.9l-.5.6h-21.9l-.5-.6c-2-2.6-3.1-5.7-3.1-8.9v-5.9h29v5.9ZM56.3,52.1c0,3.2-1.1,6.3-3.1,8.9l-.5.6h-21.9l-.5-.6c-2-2.6-3.1-5.7-3.1-8.9v-5.9h29v5.9ZM76.4,78.1h-14.7v-17.4c0-2.6,1.4-5,3.6-6.3v-8.2h7.5v8.2c2.2,1.3,3.6,3.7,3.6,6.3v17.4Z"/><path d="M95.5,37.9v-.5c-.2,0-.3,0-.5,0v-.5c-.2,0-.3,0-.5,0v-.5c-.2,0-.3,0-.5,0v-.5c-.2,0-.3,0-.5,0v-.5c-.2,0-.3,0-.5,0v-.5c-.2,0-.3,0-.5,0v-.5c-.2,0-.3,0-.5,0v-.5c-.2,0-.3,0-.5,0v-.5c-.2,0-.3,0-.5,0v-.5c-.2,0-.3,0-.5,0v-.5c-.2,0-.3,0-.5,0v-.5c-.2,0-.3,0-.5,0v-.5c-.2,0-.3,0-.5,0v-.5c-.2,0-.3,0-.5,0v-.5c-6.3,0-11.5,5.1-11.5,11.5h-1l.6-4.7h-.5v-.5c0,0-.5,0-.5,0v-.5c0,0-.5,0-.5,0v-.5c0,0-.5,0-.5,0v-.5c0,0-.5,0-.5,0v-.5c0,0-.5,0-.5,0v-.5c0,0-.5,0-.5,0v-.5c0,0-.5,0-.5,0v-.5c0,0-.5,0-.5,0v-.5c0,0-.5,0-.5,0v-.5c0,0-.5,0-.5,0v-.5c0,0-.5,0-.5,0v-.5c0,0-.5,0-.5,0v-.5c0,0-.5,0-.5,0v-.5c0,0-.5,0-.5,0v-.5c0,0-11.4,0-11.4,0h0c0,.1-.3.1-.3.1v-.5h-.5v-.5h-.5v-.5h-.5v-.5h-.5v-.5h-.5v-.5h-.5v-.5h-.5v-.5h-.5v-.5h-.5v-.5h-.5v-.5h-.5v-.5h-.5v-.5h-11.5v4.3c0,0,0,.1,0,.2h-.2v-.5h-.5v-.5h-.5v-.5h-.5v-.5h-.5v-.5h-.5v-.5h-.5v-.5h-.5v-.5h-.5v-.5h-.5v-.5h-11.5v.3c-.5-.2-.9-.3-1.4-.3-2.4,0-4.3,1.9-4.3,4.3s1.9,4.3,4.3,4.3,1.9-.3,2.6-.9c.2.3.5.6.8.8.1.2.3.3.5.5.1.2.3.3.5.5.1.2.3.3.5.5.1.1.2.2.3.3v7h-3.6c-3.2,0-5.7,2.6-5.7,5.7v28.7c0,1.7.7,3.2,1.9,4.3.1.2.3.3.5.5.1.2.3.3.5.5.1.2.3.3.5.5.1.2.3.3.5.5.1.2.3.3.5.5.1.2.3.3.5.5.1.2.3.3.5.5.1.2.3.3.5.5.1.2.3.3.5.5.1.2.3.3.5.5.1.2.3.3.5.5.1.2.3.3.5.5.1.2.3.3.5.5.1.2.3.3.5.5.2.2.4.5.7.6-.2.5-.3,1.1-.3,1.7,0,1.3.6,2.5,1.5,3.3.1.2.3.3.5.5.1.2.3.3.5.5.1.2.3.3.5.5.1.2.3.3.5.5.1.2.3.3.5.5.1.2.3.3.5.5.1.2.3.3.5.5.1.2.3.3.5.5.1.2.3.3.5.5.1.2.3.3.5.5.1.2.3.3.5.5.1.2.3.3.5.5.1.2.3.3.5.5.1.2.3.3.5.5.8.9,2,1.5,3.3,1.5,2.4,0,4.3-1.9,4.3-4.3s-.6-2.5-1.5-3.3c-.1-.2-.3-.3-.5-.5-.1-.2-.3-.3-.5-.5-.1-.2-.3-.3-.5-.5-.1-.2-.3-.3-.5-.5-.1-.2-.3-.3-.5-.5-.1-.2-.3-.3-.5-.5-.1-.2-.3-.3-.5-.5-.1-.2-.3-.3-.5-.5,0-.1-.2-.2-.3-.3h27.4c0,.1,0,.3,0,.4,0,1.3.6,2.5,1.5,3.3.1.2.3.3.5.5.1.2.3.3.5.5.1.2.3.3.5.5.1.2.3.3.5.5.1.2.3.3.5.5.1.2.3.3.5.5.1.2.3.3.5.5.1.2.3.3.5.5.1.2.3.3.5.5.1.2.3.3.5.5.1.2.3.3.5.5.1.2.3.3.5.5.1.2.3.3.5.5.1.2.3.3.5.5.8.9,2,1.5,3.3,1.5,2.4,0,4.3-1.9,4.3-4.3s-.6-2.5-1.5-3.3c-.1-.2-.3-.3-.5-.5-.1-.2-.3-.3-.5-.5-.1-.2-.3-.3-.5-.5-.1-.2-.3-.3-.5-.5-.1-.2-.3-.3-.5-.5-.1-.2-.3-.3-.5-.5-.1-.2-.3-.3-.5-.5-.1-.2-.3-.3-.5-.5,0-.1-.2-.2-.3-.3h8.3c3.2,0,5.7-2.6,5.7-5.7v-34.5c0-3.2,2.6-5.7,5.7-5.7v-5.7c-.2,0-.3,0-.5,0ZM56.5,41.7c1.7-.7,2.9-2.1,3.4-3.8l.6,4.6h-4v-.8ZM40.7,41.7c2.1-.9,3.6-2.9,3.6-5.3v-1.9c.1.1.2.2.3.3.1.2.3.3.5.5.1.1.2.2.3.3v7h-4.7v-.8ZM24,31.8c-1.4,0-2.5-1.1-2.5-2.5s1.1-2.5,2.5-2.5,1.6.4,2,1c.3.4.5.9.5,1.5s-.1,1-.4,1.3c-.4.7-1.2,1.2-2.1,1.2ZM87.6,34.9c-3.3.7-5.7,3.7-5.7,7.2v34.5c0,2.3-1.9,4.2-4.2,4.2H26c-2.3,0-4.2-1.9-4.2-4.2v-28.7c0-2.3,1.9-4.2,4.2-4.2h5.2v-10.3l-1-.4c-.7-.3-1.4-.8-1.8-1.4-.5-.7-.8-1.5-.8-2.4v-2.6h0c0-.1,8.3-.1,8.3-.1v2.7c0,1.7-1,3.2-2.6,3.8l-1,.4v10.3h14.7v-10.3l-1-.4c-1.6-.6-2.6-2.2-2.6-3.8v-2.7h8.3v2.7c0,1.7-1,3.2-2.6,3.8l-1,.4v10.3h14.2l-1.4-11.5h7.9l-1.4,11.5h12v-1.6c0-4.9,3.6-9,8.3-9.8v2.6Z"/><path d="M27.3,52.1c0,3.2,1.1,6.3,3.1,8.9l.5.6h21.9l.5-.6c2-2.6,3.1-5.7,3.1-8.9v-5.9h-29v5.9Z"/><path d="M27.3,68.7c0,3.2,1.1,6.3,3.1,8.9l.5.6h21.9l.5-.6c2-2.6,3.1-5.7,3.1-8.9v-5.9h-29v5.9Z"/><path d="M72.8,54.5v-8.2h-7.5v8.2c-2.2,1.3-3.6,3.7-3.6,6.3v17.4h14.7v-17.4c0-2.6-1.4-5-3.6-6.3ZM74.4,59.1c.3.7.4,1.4.4,2.1v15.8h-4.7v-9c0-2.4,1.5-4.5,3.6-5.3v-4.4c0,0,.2,0,.2.1v.2c.1,0,.2,0,.3.1,0,.1,0,.2.1.3h0s0,0,0,0Z"/></svg>