<?xml version="1.0" encoding="UTF-8"?><svg id="a" xmlns="http://www.w3.org/2000/svg" viewBox="0 0 400 400"><polygon points="233.8 170.9 229.1 162.9 246.2 153 242.4 146.4 225.3 156.2 221.1 148.8 238.5 138.8 234.7 132.2 209.7 146.6 230.1 181.8 255.1 167.4 251.2 160.8 233.8 170.9"/><polygon points="206.3 186.8 189.7 158.1 182.2 162.5 202.5 197.7 225 184.8 221.2 178.2 206.3 186.8"/><path d="M156.2,177.5l6.8,43.1,8.5-4.9-1.2-7.3,15.1-8.7,5.7,4.7,8.5-4.9-34-27.4-9.4,5.4ZM167.7,201.7l-3.3-18.4,14.3,12-11,6.4Z"/><path d="M127.1,207.1c-1.2-2.1-.2-4.5,3-6.4,3.6-2.1,8.1-3.1,12.5-2.1l.9-8c-5.4-1.2-11-.2-16.6,3-8.3,4.8-10.6,12.6-7.2,18.5,7.7,13.3,25.5-2.7,29,3.4,1.2,2.1.3,5-3.9,7.5-4.9,2.8-10,2.8-14,1.7l-.7,8.2c5.3,1.4,11.4.9,18.3-3.1,9.5-5.5,11.3-13,7.6-19.5-7.6-13.2-25.7,2.3-28.9-3.3Z"/><path d="M381.8,234.7c0-3.2-32.1-36.1-32.9-36.8l14.4-25h0c1.2-2.8,1.2-6.1-.5-8.9-.9-1.5-104.1-104.4-104.7-105,0,0-1.3-1.2-2.1-1.7-2.1-1.2-4.5-1.5-6.7-1.1-.7.1-1.5.4-2.2.7h0c0,0-25.8,14.8-25.8,14.8-.6-.6-28.2-28.2-28.2-28.2h0c-1.3-1.8-3.3-3.1-5.5-3.7-.8-.2-1.5-.3-2.3-.3s-1.6.1-2.3.3c-.6.1-1.1.3-1.6.6-1.6.7-2.9,1.8-3.9,3.2h0c0,0-19.6,33.8-19.6,33.8l-33.7-19.5h0c-2.1-.8-4.4-1-6.7-.4-.7.2-1.5.5-2.2.9-2.3,1.3-3.8,3.5-4.5,5.9-.1.5-.3,1-.4,1.5h0v39.1h-38.9c-3,.4-5.8,2.1-7.4,4.9-.8,1.4-1.2,2.9-1.3,4.4s.2,3,.8,4.4h0s0,0,0,0l19.2,33.3-34.4,19.9h0c-.6.5-1.2,1-1.6,1.6-1.5,1.7-2.4,3.9-2.4,6.3s.4,3.1,1.1,4.5c.7,1.3,31.1,31.8,31.8,32.3l-14.4,25h0c-.6,1.4-.9,2.9-.8,4.4,0,1.5.5,3,1.3,4.4,0,0,0,0,0,0,.4.8,3.6,3.5,3.6,3.5,0,0,101.6,102.3,103.2,103.2,2.8,1.6,6.1,1.7,8.8.5h0c0,0,25.8-14.8,25.8-14.8.6.6,1.2,1,1.9,1.4,0,0,31.5,30.7,34.2,30.7s8-4,8-4l19.6-33.9,33.7,19.5h0c2.8,1.1,6,1.1,8.8-.5,2.8-1.6,4.5-4.4,4.8-7.4h0v-39.1h38.9c3-.4,5.8-2.1,7.4-4.9,1.6-2.8,1.7-6.1.5-8.8h0s-19.2-33.4-19.2-33.4l34.4-19.9h0c2.4-1.9,4-4.7,4-8ZM318.4,187.6l-38.7,21.5,20.6,37.1.2.5c.5,1.3.4,2.7-.3,3.8-.7,1.2-1.9,1.9-3.3,2l-43.4-.7-.8,43.1v.6c-.3,1.4-1,2.6-2.2,3.2-1.2.7-2.6.7-3.9.1l-37.3-22.3-22.2,36.9-.3.5c-1.7,2.2-5.2,2.2-6.9-.1l-.2-.3-20.7-37.3-38.6,21.4-.5.2c-1.3.5-2.7.4-4-.4l-.7-.6c-.7-.7-1.1-1.6-1.2-2.6l.7-43.9-43.4-.8h-.6c-.5-.1-1.1-.3-1.7-.7-.3-.2-.6-.4-.8-.7l-.2-.2c-.2-.2-.3-.4-.3-.4l-.3-.6c-.2-.5-.3-1-.4-1.6,0-.7.1-1.3.4-2l22.6-37.6-37.2-22.3-.5-.4c-.5-.4-1-.9-1.3-1.5-.3-.6-.4-1.2-.4-1.9,0-1.3.7-2.6,1.8-3.4l38.7-21.5-20.6-37.1-.2-.5c-.3-.6-.4-1.3-.3-2,0-.7.2-1.3.6-1.9.7-1.2,1.9-1.9,3.3-2l43.4.7.8-43.3v-.4c.1-.2.2-.4.3-.7.2-.8.8-1.9,1.9-2.5,1.2-.7,2.6-.7,3.9-.1l37.2,22.3,22.2-36.9.4-.5c.6-.8,1.5-1.4,2.5-1.6.6-.1,1.4-.1,2,0,.9.3,1.8.9,2.4,1.7l20.9,37.6,38.6-21.4.5-.2c1.3-.5,2.7-.5,3.8.2.2.1.4.3.7.5l.2.2c.3.3.5.6.6.9.3.6.5,1.1.6,1.7l-.7,43.9,43.4.8h.6c.6.1,1.2.4,1.7.7l.6.5c.2.2.4.3.4.4.2.2.4.4.3.3l.4.7h0c.4,1.1.4,2.3,0,3.5l-22.6,37.6,37.2,22.3.5.4c1.1.9,1.7,2.1,1.7,3.5,0,1.3-.7,2.6-1.8,3.4Z"/></svg>