<?xml version="1.0" encoding="UTF-8"?><svg id="a" xmlns="http://www.w3.org/2000/svg" viewBox="0 0 115 115"><defs><style>.b{stroke:#000;stroke-miterlimit:10;stroke-width:3px;}</style></defs><path d="M85,36.9h0s0,0,0-.1c0-1.3-.6-2.4-1.5-3.1-.2-.3-.5-.5-.7-.7-.2-.3-.5-.5-.7-.7-.2-.3-.5-.5-.7-.7-.2-.3-.5-.5-.7-.7-.2-.3-.5-.5-.7-.7-.2-.3-.5-.5-.7-.7-.2-.3-.5-.5-.7-.7-.2-.3-.5-.5-.7-.7-.2-.3-.5-.5-.7-.7-.2-.3-.5-.5-.7-.7-.2-.3-.5-.5-.7-.7-.2-.3-.5-.5-.7-.7-.2-.3-.5-.5-.7-.7-.2-.3-.5-.5-.7-.7-.2-.2-.3-.4-.5-.6,0,0-.1,0-.2-.1-.1,0-.3-.2-.4-.3-.1,0-.2-.1-.4-.2,0,0-.1,0-.2,0-.2,0-.4-.1-.6-.2,0,0,0,0-.1,0-.2,0-.5,0-.7,0s0,0,0,0h-7.9c-.1-.3-.4-.6-.7-.7-.1-.3-.4-.6-.7-.7-.1-.3-.4-.6-.7-.7-.1-.3-.4-.6-.7-.7,0-.2-.2-.4-.4-.6,0,0,0,0,0,0,0,0-.2-.1-.3-.2,0,0,0,0,0,0-.1,0-.2,0-.3,0,0,0,0,0,0,0h0s0,0,0,0h-13.6s0,0,0,0h0c-.6,0-1.2.5-1.2,1.2s0,0,0,0v2.5h-10.8s0,0,0,0h0c-.5,0-1,.1-1.5.3-1.4.6-2.4,2-2.4,3.6h0s0,0,0,.1h0v52h0s0,0,0,0c0,0,0,0,0,0,0,.2,0,.5,0,.7,0,0,0,0,0,.1,0,.2.1.4.2.6,0,0,0,.1,0,.2,0,.1.1.2.2.4,0,.1.2.3.3.4,0,0,0,.1.1.2.2.2.4.4.6.5,0,0,0,0,0,0,.2.3.5.5.7.7.2.3.5.5.7.7.2.3.5.5.7.7.2.3.5.5.7.7.2.3.5.5.7.7.2.3.5.5.7.7.2.3.5.5.7.7.2.3.5.5.7.7.2.3.5.5.7.7.2.3.5.5.7.7.2.3.5.5.7.7.2.3.5.5.7.7.2.3.5.5.7.7.2.3.5.5.7.7.7.9,1.8,1.5,3.1,1.5s.1,0,.2,0h0s37.2,0,37.2,0c0,0,.1,0,.2,0,2.1,0,3.9-1.7,3.9-3.9s0,0,0,0h0v-52ZM35.9,29.2h3.7v2.3s0,0,0,0c0,.7.6,1.3,1.3,1.3s0,0,0,0h0s20.6,0,20.6,0c.7,0,1.3-.6,1.3-1.3s0,0,0,0v-2.3h3.7v45.2h-30.7V29.2Z"/><polygon class="b" points="37.9 98.4 37.9 98.5 45 91.4 43.6 90 36.5 97.1 37.9 98.4 37.1 99.2 37.1 99.2 37.9 98.4"/></svg>