<?xml version="1.0" encoding="UTF-8"?><svg id="a" xmlns="http://www.w3.org/2000/svg" viewBox="0 0 400 400"><defs><style>.b{fill:none;}</style></defs><path class="b" d="M256.8,149.1c-9.2-25.6-30.3-46.1-57.7-55.4-7.7,9.8-19.4,15.6-32,15.6s-24.3-5.8-32-15.6c-27.8,9.4-49.1,30.3-58.1,56.5,17.8-7.9,54.1-21.8,91.1-21.8s70.2,12.7,88.7,20.7Z"/><path class="b" d="M191.4,62.9c0-4.7-1.4-9.2-4.2-13.1h-.1c-.2-.4-.4-.6-.7-.8h-.1c-.2-.3-.4-.6-.7-.8h-.1c-.2-.3-.4-.6-.7-.8h-.1c-4.3-4.6-10.1-7.1-16.3-7.1s-5.1.4-7.5,1.3c-8.8,3.2-14.7,11.8-14.7,21.2s10.1,22.6,22.6,22.6,22.6-10.1,22.6-22.6Z"/><path class="b" d="M256.4,166.6c-14.3-6.8-51.6-22.5-89.1-22.5s-74.8,15.7-89.1,22.5c-3.9,1.9-6.5,5.6-6.8,10,0,.3,0,.6,0,.9v83.4c0,.4,0,.9,0,1.3.6,6.3,6,11.3,12.5,11.3h45.1c2.2,0,4.4-.6,6.4-1.7l27.7-16.3c1.3-.8,2.8-1.1,4.2-1.1s2.9.4,4.2,1.2l27.3,16.2c1.9,1.2,4.2,1.8,6.4,1.8h45.5c6.9,0,12.5-5.6,12.5-12.5v-83.4c0-4.8-2.6-9-6.8-10.9ZM247,240c0,9.8-8,17.9-17.8,17.9h-20.7c0,.1,0,.1,0,.1-3.3,0-6.5-.9-9.3-2.6l-31-18.7c-.9-.6-2.1-.6-3,0l-31,18.7c-2.8,1.7-6,2.6-9.3,2.6h-20.7c-9.9,0-17.9-8.1-17.9-17.9v-47.8c0-6.9,4-13.2,10.2-15.9,11.3-5,40.8-16.7,70.3-16.7s59,11.7,70.3,16.7c6.2,2.8,10.2,9,10.2,15.9v47.7Z"/><path class="b" d="M277.2,195.7l-2.1-.7v54.7l2.1-.7c6.8-2.4,11.5-8.9,11.5-16.2v-20.8c0-7.3-4.6-13.8-11.4-16.2Z"/><path d="M337.3,252.2c-.1-.2-.3-.3-.5-.5v-4c0-4.2-2.4-22.2-1.5-21.7-3.5-18.5-12.7-35.1-25.8-48.2-.3-.3-.5-.5-.8-.8-.3-.3-.5-.5-.8-.8-.3-.3-.5-.5-.8-.8-.3-.3-.5-.5-.8-.8-.3-.3-.5-.5-.8-.8-.3-.3-.5-.5-.8-.8-.3-.3-.5-.5-.8-.8-.3-.3-.5-.5-.8-.8-.3-.3-.5-.5-.8-.8-.3-.3-.5-.5-.8-.8-.3-.3-.5-.5-.8-.8-.3-.3-.5-.5-.8-.8-.3-.3-.5-.5-.8-.8-.3-.3-.5-.5-.8-.8-.3-.3-.5-.5-.8-.8-.3-.3-.5-.5-.8-.8-.3-.3-.5-.5-.8-.8-.3-.3-.5-.5-.8-.8-.3-.3-.5-.5-.8-.8-.3-.3-.5-.5-.8-.8-.3-.3-.5-.5-.8-.8-.3-.3-.5-.5-.8-.8-.3-.3-.5-.5-.8-.8-.3-.3-.5-.5-.8-.8-.3-.3-.5-.5-.8-.8-.3-.3-.5-.5-.8-.8-.3-.3-.5-.5-.8-.8-.3-.3-.5-.5-.8-.8-.3-.3-.5-.5-.8-.8-.3-.3-.5-.5-.8-.8-.3-.3-.5-.5-.8-.8-.3-.3-.5-.5-.8-.8-.3-.3-.5-.5-.8-.8-.3-.3-.5-.5-.8-.8-.3-.3-.5-.5-.8-.8-.3-.3-.5-.5-.8-.8-.3-.3-.5-.5-.8-.8-.3-.3-.5-.5-.8-.8-.3-.3-.5-.5-.8-.8-.3-.3-.5-.5-.8-.8-.3-.3-.5-.5-.8-.8-.3-.3-.5-.5-.8-.8-.3-.3-.5-.5-.8-.8-.3-.3-.5-.5-.8-.8-.3-.3-.5-.5-.8-.8-.3-.3-.5-.5-.8-.8-.3-.3-.5-.5-.8-.8-.3-.3-.5-.5-.8-.8-.3-.3-.5-.5-.8-.8-.3-.3-.5-.5-.8-.8-.3-.3-.5-.5-.8-.8-.3-.3-.5-.5-.8-.8-.3-.3-.5-.5-.8-.8-.3-.3-.5-.5-.8-.8-.3-.3-.5-.5-.8-.8-.3-.3-.5-.5-.8-.8-.3-.3-.5-.5-.8-.8-.3-.3-.5-.5-.8-.8-.3-.3-.5-.5-.8-.8,0,0-.1-.1-.2-.2-.2-7-3.3-13.3-8-17.9-.3-.3-.5-.5-.8-.8-.3-.3-.5-.5-.8-.8-.3-.3-.5-.5-.8-.8-.3-.3-.5-.5-.8-.8-.3-.3-.5-.5-.8-.8-.3-.3-.5-.5-.8-.8-.3-.3-.5-.5-.8-.8-.3-.3-.5-.5-.8-.8-.3-.3-.5-.5-.8-.8-.3-.3-.5-.5-.8-.8-.3-.3-.5-.5-.8-.8-.3-.3-.5-.5-.8-.8-.3-.3-.5-.5-.8-.8-.3-.3-.5-.5-.8-.8-.3-.3-.5-.5-.8-.8-.3-.3-.5-.5-.8-.8-.3-.3-.5-.5-.8-.8-.3-.3-.5-.5-.8-.8-.3-.3-.5-.5-.8-.8-.3-.3-.5-.5-.8-.8-.3-.3-.5-.5-.8-.8-.3-.3-.5-.5-.8-.8-.3-.3-.5-.5-.8-.8-.3-.3-.5-.5-.8-.8-.3-.3-.5-.5-.8-.8-.3-.3-.5-.5-.8-.8-.3-.3-.5-.5-.8-.8-.3-.3-.5-.5-.8-.8-.3-.3-.5-.5-.8-.8-.3-.3-.5-.5-.8-.8-.3-.3-.5-.5-.8-.8-.3-.3-.5-.5-.8-.8-.3-.3-.5-.5-.8-.8-.3-.3-.5-.5-.8-.8-.3-.3-.5-.5-.8-.8-.3-.3-.5-.5-.8-.8-.3-.3-.5-.5-.8-.8-.3-.3-.5-.5-.8-.8-.3-.3-.5-.5-.8-.8-.3-.3-.5-.5-.8-.8-.3-.3-.5-.5-.8-.8-.3-.3-.5-.5-.8-.8-.3-.3-.5-.5-.8-.8-.3-.3-.5-.5-.8-.8-.3-.3-.5-.5-.8-.8-.3-.3-.5-.5-.8-.8-.3-.3-.5-.5-.8-.8-.3-.3-.5-.5-.8-.8-.3-.3-.5-.5-.8-.8-.3-.3-.5-.5-.8-.8-.3-.3-.5-.5-.8-.8-.3-.3-.5-.5-.8-.8-.3-.3-.5-.5-.8-.8-.3-.3-.5-.5-.8-.8-.3-.3-.5-.5-.8-.8-.3-.3-.5-.5-.8-.8-.3-.3-.5-.5-.8-.8-.3-.3-.5-.5-.8-.8-.3-.3-.5-.5-.8-.8-.3-.3-.5-.5-.8-.8-.3-.3-.5-.5-.8-.8-.3-.3-.5-.5-.8-.8-.3-.3-.5-.5-.8-.8-.3-.3-.5-.5-.8-.8-.3-.3-.5-.5-.8-.8-.3-.3-.5-.5-.8-.8-.3-.3-.5-.5-.8-.8-.3-.3-.5-.5-.8-.8-.3-.3-.5-.5-.8-.8-.3-.3-.5-.5-.8-.8-.3-.3-.5-.5-.8-.8-.3-.3-.5-.5-.8-.8-.3-.3-.5-.5-.8-.8-.3-.3-.5-.5-.8-.8-.3-.3-.5-.5-.8-.8-.3-.3-.5-.5-.8-.8-.3-.3-.5-.5-.8-.8-.3-.3-.5-.5-.8-.8-.3-.3-.5-.5-.8-.8-.3-.3-.5-.5-.8-.8-.3-.3-.5-.5-.8-.8-.3-.3-.5-.5-.8-.8-.3-.3-.5-.5-.8-.8-.2-.2-.3-.3-.5-.5-.4-.8-.9-1.5-1.4-2.2,0,0-.2-.2-.3-.3-.3-.3-.5-.5-.8-.8-.3-.3-.5-.5-.8-.8-.3-.3-.5-.5-.8-.8-4.7-4.9-11.4-8-18.8-8s-6,.5-8.7,1.5c-6.5,2.4-11.8,7.3-14.7,13.6-1.8,3.5-2.8,7.5-2.8,11.7,0,7.4,3.1,14.1,8,18.8.3.3,15.9,15.9,16.2,16.2.3.3.5.5.8.8.2.2.5.5.7.7-7.4,0-29.7-16.5-29.7-16.5l-3,.9c-36.5,11.2-63.3,40.3-70,76l-1.8,9.5-4.6,24.8c-6.1,2.1-10.4,7.9-10.4,14.7v20.8c0,4.5,1.9,8.6,5,11.4.2.3.5.5.8.8.2.3.5.5.8.8.2.3.5.5.8.8.2.3.5.5.8.8.2.3.5.5.8.8.2.3.5.5.8.8.2.3.5.5.8.8.2.3.5.5.8.8.2.3.5.5.8.8.2.3.5.5.8.8.2.3.5.5.8.8.2.3.5.5.8.8.2.3.5.5.8.8.2.3.5.5.8.8.2.3.5.5.8.8.2.3.5.5.8.8.2.3.5.5.8.8.2.3.5.5.8.8.2.3.5.5.8.8,0,0,0,0,0,0v4.3c0,5.3,2.6,10,6.7,12.8,0,0,.2.2.3.3.2.3.5.5.8.8.2.3.5.5.8.8.2.3.5.5.8.8.2.3.5.5.8.8.2.3.5.5.8.8.2.3.5.5.8.8.2.3.5.5.8.8.2.3.5.5.8.8.2.3.5.5.8.8.2.3.5.5.8.8.2.3.5.5.8.8.2.3.5.5.8.8.2.3.5.5.8.8.2.3.5.5.8.8.2.3.5.5.8.8.2.3.5.5.8.8.2.3.5.5.8.8.2.3.5.5.8.8.2.3.5.5.8.8.2.3.5.5.8.8.2.3.5.5.8.8.2.3.5.5.8.8.2.3.5.5.8.8.2.3.5.5.8.8.2.3.5.5.8.8.2.3.5.5.8.8.2.3.5.5.8.8.2.3.5.5.8.8.2.3.5.5.8.8.2.3.5.5.8.8.2.3.5.5.8.8.2.3.5.5.8.8.2.3.5.5.8.8.2.3.5.5.8.8.2.3.5.5.8.8.2.3.5.5.8.8.2.3.5.5.8.8.2.3.5.5.8.8.2.3.5.5.8.8.2.3.5.5.8.8.2.3.5.5.8.8.2.3.5.5.8.8.2.3.5.5.8.8.2.3.5.5.8.8.2.3.5.5.8.8.2.3.5.5.8.8.2.3.5.5.8.8.2.3.5.5.8.8.2.3.5.5.8.8.2.3.5.5.8.8.2.3.5.5.8.8.2.3.5.5.8.8.2.3.5.5.8.8.2.3.5.5.8.8.2.3.5.5.8.8.2.3.5.5.8.8.2.3.5.5.8.8.2.3.5.5.8.8.2.3.5.5.8.8.2.3.5.5.8.8.2.3.5.5.8.8.2.3.5.5.8.8.2.3.5.5.8.8.2.3.5.5.8.8.2.3.5.5.8.8.2.3.5.5.8.8.2.3.5.5.8.8.2.3.5.5.8.8.2.3.5.5.8.8.2.3.5.5.8.8.2.3.5.5.8.8.2.3.5.5.8.8.2.3.5.5.8.8.2.3.5.5.8.8.2.3.5.5.8.8.2.3.5.5.8.8.2.3.5.5.8.8.2.3.5.5.8.8.2.3.5.5.8.8.2.3.5.5.8.8.2.3.5.5.8.8.2.3.5.5.8.8.2.3.5.5.8.8.2.3.5.5.8.8.2.3.5.5.8.8.2.3.5.5.8.8.2.3.5.5.8.8.2.3.5.5.8.8,2.9,3.1,6.9,5,11.4,5h166.7c8.6,0,36.5-40.1,36.5-46.9,0,0-20.1-47.4-20.4-47.7ZM56.3,240.7c-3.6-2.4-5.8-6.5-5.8-11v-20.8c0-4.5,2.2-8.5,5.8-11v42.8ZM146.2,62.9c0-9.4,5.9-17.9,14.7-21.2,2.4-.9,4.9-1.3,7.5-1.3,6.2,0,12,2.5,16.3,7h.1c.2.3.4.5.7.8h.1c.2.3.4.5.7.8h.1c.2.3.4.5.7.8h.1c2.7,4,4.2,8.5,4.2,13.2,0,12.5-10.1,22.6-22.6,22.6s-22.6-10.1-22.6-22.6ZM76.9,150.2c9-26.1,30.3-47,58.1-56.5,7.7,9.8,19.4,15.6,32,15.6s24.3-5.8,32-15.6c27.4,9.3,48.5,29.8,57.7,55.4-18.5-8-53.3-20.7-88.7-20.7s-73.3,13.9-91.1,21.8ZM263.2,261c0,6.9-5.6,12.5-12.5,12.5h-45.5c-2.3,0-4.5-.6-6.4-1.8l-27.3-16.2c-1.3-.8-2.8-1.2-4.2-1.2s-2.9.4-4.2,1.1l-27.7,16.3c-1.9,1.1-4.1,1.7-6.4,1.7h-45.1c-6.5,0-11.8-4.9-12.5-11.3,0-.4,0-.9,0-1.3v-83.4c0-.3,0-.6,0-.9.3-4.4,2.8-8.2,6.8-10,14.3-6.8,51.6-22.5,89.1-22.5s74.8,15.7,89.1,22.5c4.2,2,6.8,6.2,6.8,10.9v83.4ZM288.7,232.8c0,7.3-4.6,13.8-11.5,16.2l-2.1.7v-54.7l2.1.7c6.8,2.4,11.4,8.9,11.4,16.2v20.8Z"/><path d="M236.8,176.3c-11.3-5-40.8-16.7-70.3-16.7s-59,11.7-70.3,16.7c-6.2,2.8-10.2,9-10.2,15.9v47.8c0,9.9,8.1,17.9,17.9,17.9h20.7c3.3,0,6.5-.9,9.3-2.6l31-18.7c.9-.6,2.1-.6,3,0l31,18.7c2.8,1.7,6,2.6,9.3,2.6h20.8c9.8-.2,17.8-8.2,17.8-18.1v-47.7c0-6.9-4-13.2-10.2-15.9Z"/></svg>