<?xml version="1.0" encoding="UTF-8"?><svg id="a" xmlns="http://www.w3.org/2000/svg" viewBox="0 0 400 400"><path d="M338.4,253.4l-1-.7v-.3s-1-.7-1-.7v-.3s-1-.7-1-.7v-.3s-1-.7-1-.7v-.3s-1-.7-1-.7v-.3s-1-.7-1-.7v-.3s-1-.7-1-.7v-.3s-1-.7-1-.7v-.3s-1-.7-1-.7v-.3s-1-.7-1-.7v-.3s-1-.7-1-.7v-.3s-1-.7-1-.7v-.3s-1-.7-1-.7v-.3s-1-.7-1-.7v-.3s-1-.7-1-.7v-.3s-1-.7-1-.7v-.3s-1-.7-1-.7v-.3s-.8-.6-.8-.6l11.7-28.9-4.3-36.4h-.9c0,.1-.1-1-.1-1h-.9c0,.1-.1-1-.1-1h-.9c0,.1-.1-1-.1-1h-.9c0,.1-.1-1-.1-1h-.9c0,.1-.1-1-.1-1h-.9c0,.1-.1-1-.1-1h-.9c0,.1-.1-1-.1-1h-.9c0,.1-.1-1-.1-1h-.9c0,.1-.1-1-.1-1h-.9c0,.1-.1-1-.1-1h-.9c0,.1-.1-1-.1-1h-.9c0,.1-.1-1-.1-1h-.9c0,.1-.1-1-.1-1h-.9c0,.1-.1-1-.1-1h-.9c0,.1-.1-1-.1-1h-.9c0,.1-.1-1-.1-1h-.9c0,.1-.1-1-.1-1h-.9c0,.1-.1-1-.1-1h-.9c0,.1-.1-1-.1-1h-.9c0,.1-.1-1-.1-1h-.9c0,.1-.1-1-.1-1h-.9c0,.1-.1-1-.1-1h-.9c0,.1-.1-1-.1-1h-.9c0,.1-.1-1-.1-1h-.9c0,.1-.1-1-.1-1h-.9c0,.1-.1-1-.1-1h-.9c0,.1-.1-1-.1-1h-.9c0,.1-.1-1-.1-1h-.9c0,.1-.1-1-.1-1h-.9c0,.1-.1-1-.1-1h-.9c0,.1-.1-1-.1-1h-.9c0,.1-.1-1-.1-1h-.9c0,.1-.1-1-.1-1h-.9c0,.1-.1-1-.1-1h-.9c0,.1-.1-1-.1-1h-.9c0,.1-.1-1-.1-1h-.9c0,.1-.1-1-.1-1h-.9c0,.1-.1-1-.1-1h-.9c0,.1-.1-1-.1-1h-.9c0,.1-.1-1-.1-1h-.9c0,.1-.1-1-.1-1h-.9c0,.1-.1-1-.1-1h-.9c0,.1-.1-1-.1-1h-.9c0,.1-.1-1-.1-1h-.9c0,.1-.1-1-.1-1h-.9c0,.1-.1-1-.1-1h-.9c0,.1-.1-1-.1-1h-.9c0,.1-.1-1-.1-1h-.9c0,.1-.1-1-.1-1h-.9c0,.1-.1-1-.1-1h-.9c0,.1-.1-1-.1-1h-.9c0,.1-.1-1-.1-1h-.9c0,.1-.1-1-.1-1h-.9c0,.1-.1-1-.1-1h-.9c0,.1-.1-1-.1-1h-.9c0,.1-.1-1-.1-1h-.9c0,.1-.1-1-.1-1h-.9c0,.1-.1-1-.1-1h-.9c0,.1-.1-1-.1-1h-.9c0,.1-.1-1-.1-1l-28.3,3.3.6-12.2h-1c0,0,0-1,0-1h-1c0,0,0-1,0-1h-1c0,0,0-1,0-1h-1c0,0,0-1,0-1h-1c0,0,0-1,0-1h-1c0,0,0-1,0-1h-1c0,0,0-1,0-1h-1c0,0,0-1,0-1h-1c0,0,0-1,0-1h-1c0,0,0-1,0-1h-1c0,0,0-1,0-1h-1c0,0,0-1,0-1h-1c0,0,0-1,0-1h-1c0,0,0-1,0-1h-1c0,0,0-1,0-1h-1c0,0,0-1,0-1h-1c0,0,0-1,0-1h-1c0,0,0-1,0-1h-1c0,0,0-1,0-1h-1c0,0,0-1,0-1h-1c0,0,0-1,0-1h-1c0,0,0-1,0-1h-1c0,0,0-1,0-1h-1c0,0,0-1,0-1h-1c0,0,0-1,0-1h-1c0,0,0-1,0-1h-1c0,0,0-1,0-1h-1c0,0,0-1,0-1h-1c0,0,0-1,0-1h-1c0,0,0-1,0-1h-1c0,0,0-1,0-1h-1c0,0,0-1,0-1h-1c0,0,0-1,0-1h-1c0,0,0-1,0-1h-1c0,0,0-1,0-1h-1c0,0,0-1,0-1h-1c0,0,0-1,0-1h-1c0,0,0-1,0-1h-1c0,0,0-1,0-1h-1c0,0,0-1,0-1h-1c0,0,0-1,0-1h-1c0,0,0-1,0-1h-1c0,0,0-1,0-1h-1c0,0,0-1,0-1h-1c0,0,0-1,0-1h-1c0,0,0-1,0-1h-1c0,0,0-1,0-1h-1c0,0,0-1,0-1h-1c0,0,0-1,0-1h-1c0,0,0-1,0-1h-1c0,0,0-1,0-1h-1c0,0,0-1,0-1h-1c0,0,0-1,0-1h-1c0,0,0-1,0-1h-1c0,0,0-1,0-1h-1c0,0,0-1,0-1h-1c0,0,0-1,0-1h-1c0,0,0-1,0-1h-1c0,0,0-1,0-1h-1c0,0,0-1,0-1l-106.5-5.6-2.4,45.5,1,1h0s1,1,1,1h0s1,1,1,1h0s1,1,1,1h0s1,1,1,1h0s1,1,1,1h0s1,1,1,1h0s1,1,1,1h0s1,1,1,1h0s1,1,1,1h0s1,1,1,1h0s1,1,1,1h0s1,1,1,1h0s1,1,1,1h0s1,1,1,1h0s1,1,1,1h0s1,1,1,1h0s1,1,1,1h0s1,1,1,1h0s1,1,1,1h0s1,1,1,1h0s1,1,1,1h0s.3.3.3.3l-26.4,42-2.3,43h1c0,0,0,1,0,1h1c0,0,0,1,0,1h1c0,0,0,1,0,1h1c0,0,0,1,0,1h1c0,0,0,1,0,1h1c0,0,0,1,0,1h1c0,0,0,1,0,1h1c0,0,0,1,0,1h1c0,0,0,1,0,1h1c0,0,0,1,0,1h1c0,0,0,1,0,1h1c0,0,0,1,0,1h1c0,0,0,1,0,1h1c0,0,0,1,0,1h1c0,0,0,1,0,1h1c0,0,0,1,0,1h1c0,0,0,1,0,1h1c0,0,0,1,0,1h1c0,0,0,1,0,1h1c0,0,0,1,0,1h1c0,0,0,1,0,1h1c0,0,0,1,0,1h1c0,0,0,1,0,1h1c0,0,0,1,0,1h1c0,0,0,1,0,1h1c0,0,0,1,0,1h1c0,0,0,1,0,1h1c0,0,0,1,0,1h1c0,0,0,1,0,1h1c0,0,0,1,0,1h1c0,0,0,1,0,1h1c0,0,0,1,0,1h1c0,0,0,1,0,1h1c0,0,0,1,0,1h1c0,0,0,1,0,1h1c0,0,0,1,0,1h0s-3.2,30-3.2,30h1.1c0,.1,0,1,0,1h1.1c0,.1,0,1,0,1h1.1c0,.1,0,1,0,1h1.1c0,.1,0,1,0,1h1.1c0,.1,0,1,0,1h1.1c0,.1,0,1,0,1h1.1c0,.1,0,1,0,1h.8c0,0-10.5,13.9-10.5,13.9l-3.5,33.5h1.1c0,.1,0,1,0,1h1.1c0,.1,0,1,0,1h1.1c0,.1,0,1,0,1h1.1c0,.1,0,1,0,1h1.1c0,.1,0,1,0,1h1.1c0,.1,0,1,0,1h1.1c0,.1,0,1,0,1h1.1c0,.1,0,1,0,1h1.1c0,.1,0,1,0,1h1.1c0,.1,0,1,0,1h1.1c0,.1,0,1,0,1h1.1c0,.1,0,1,0,1h1.1c0,.1,0,1,0,1h1.1c0,.1,0,1,0,1h1.1c0,.1,0,1,0,1h1.1c0,.1,0,1,0,1h1.1c0,.1,0,1,0,1h1.1c0,.1,0,1,0,1h1.1c0,.1,0,1,0,1h1.1c0,.1,0,1,0,1h1.1c0,.1,0,1,0,1h1.1c0,.1,0,1,0,1h1.1c0,.1,0,1,0,1h1.1c0,.1,0,1,0,1h1.1c0,.1,0,1,0,1h1.1c0,.1,0,1,0,1h1.1c0,.1,0,1,0,1h1.1c0,.1,0,1,0,1h1.1c0,.1,0,1,0,1h1.1c0,.1,0,1,0,1h1.1c0,.1,0,1,0,1h1.1c0,.1,0,1,0,1h1.1c0,.1,0,1,0,1h1.1c0,.1,0,1,0,1h1.1c0,.1,0,1,0,1h1.1c0,.1,0,1,0,1h1.1c0,.1,0,1,0,1h1.1c0,.1,0,1,0,1h1.1c0,.1,0,1,0,1h1.1c0,.1,0,1,0,1h1.1c0,.1,0,1,0,1h1.1c0,.1,0,1,0,1h1.1c0,.1,0,1,0,1h1.1c0,.1,0,1,0,1h1.1c0,.1,0,1,0,1h1.1c0,.1,0,1,0,1h1.1c0,.1,0,1,0,1h1.1c0,.1,0,1,0,1h1.1c0,.1,0,1,0,1h1.1c0,.1,0,1,0,1h1.1c0,.1,0,1,0,1h1.1c0,.1,0,1,0,1h1.1c0,.1,0,1,0,1h1.1c0,.1,0,1,0,1h1.1c0,.1,0,1,0,1h1.1c0,.1,0,1,0,1h1.1c0,.1,0,1,0,1h1.1c0,.1,0,1,0,1h1.1c0,.1,0,1,0,1h1.1c0,.1,0,1,0,1l66.8,7.1,11.8-7.8,2.9-27.3-9.9-10.1h0s-1-1-1-1h0s-.7-.7-.7-.7l14.3-18.7,2.5-24.1h.8c0,0,.1,1,.1,1h.9c0-.1.1,1,.1,1h.9c0-.1.1,1,.1,1h.9c0-.1.1,1,.1,1h.9c0-.1.1,1,.1,1h.9c0-.1.1,1,.1,1h.9c0-.1.1,1,.1,1h.9c0-.1.1,1,.1,1h.9c0-.1.1,1,.1,1h.9c0-.1.1,1,.1,1h.9c0-.1.1,1,.1,1h.9c0-.1.1,1,.1,1h.9c0-.1.1,1,.1,1h.9c0-.1.1,1,.1,1h.9c0-.1.1,1,.1,1h.9c0-.1.1,1,.1,1h.9c0-.1.1,1,.1,1l87.6-10.3-4.7-40ZM166.3,246.1l-26.4,34.4,19.8,2.1,2.9,3-1.7,16-3.5,2.3-50.6-5.3,1.9-18.2,25.7-33.9-21.4-2.3,2.2-21.2,52.9,5.6-1.8,17.5ZM168.2,79.8l-43.9,69,40.8,2.2-1.6,31.1-83.8-4.4,1.5-27.9,42.6-67.9-35-1.8-3.1-3.1,1.5-28.2,82.5,4.4-1.4,26.7ZM207.9,230.4l-2.6-22.4,21.8-54.6-27.3,3.2-3-25.4,62.5-7.4,2.5,21.4-22.5,55.4,26.2-3.1,3.4,2.4,2.7,22.8-63.7,7.5Z"/></svg>