<?xml version="1.0" encoding="UTF-8"?><svg id="a" xmlns="http://www.w3.org/2000/svg" viewBox="0 0 115 115"><defs><style>.b{fill:#080808;}.b,.c{stroke:#080808;stroke-miterlimit:10;}.c{fill:#0b0b0b;}</style></defs><path d="M17.1,72.8c0,3.8,1.2,6.9,3.8,9.6,2.9,3,5.9,6.2,8.8,9.5,2.2,2.6,5.1,3.8,8.8,3.8,5.8,0,11.8,0,17.5,0,2.4,0,4.8,0,7.3,0,2.6,0,5.2,0,7.7,0,5.9,0,12,0,18,0,6.1,0,8.8-2.7,8.9-8.7,0-11.7,0-23.7,0-35.2,0-4.2,0-8.5,0-12.7,0-2.6-.8-4.8-2.5-6.5-2.1-2.2-4.2-4.5-6.2-6.8l-1.8-2c-2.8-3-6.1-4.5-10.1-4.5h-3.9c-14.3,0-29.1.1-43.7,0,0,0-.1,0-.2,0-3.5,0-6.6,1.2-8.9,3.4-2.3,2.3-3.5,5.5-3.5,9.2,0,12.6,0,25.4,0,37.8v3.2ZM23.6,32c.1-5.2,1.5-6.5,6.5-6.5,5.4,0,11,0,16.3,0,2.3,0,4.6,0,6.9,0h6.6c5.4,0,10.7,0,16.1,0,5.7,0,7.2,1.5,7.2,6.9,0,9.3,0,19.2,0,29.2,0,5.5-1.6,7.1-7.1,7.2-9.7,0-21,.1-32.1,0-3.4,0-5.6.9-7.4,3.1-.9,1.1-2,2.2-3.1,3.2-.4.4-.8.8-1.2,1.1l-.2.2c-1,1-2.3,2.3-4.2,2.3s-1.2-.1-1.9-.4c-2.5-1.1-2.5-3.5-2.5-5.1v-.4c0-8.3,0-16.6,0-25v-8.1c0-.8,0-1.5,0-2.3,0-1.7,0-3.4,0-5.1Z"/><path class="c" d="M74,47c0,2-2.2,4.2-4.1,4.2-2,0-4.2-2.1-4.2-4.1,0-2.1,1.9-4.1,4.1-4.1,2.2,0,4.2,1.9,4.2,4Z"/><path class="b" d="M40.9,47c-.3,5.6-7.6,5.5-8.1.1,0-5.2,8.1-5.6,8.1-.1Z"/><path class="b" d="M57.5,47c-.4,5.3-7.8,5.6-8.1,0,0-5.5,8-5.2,8.1,0Z"/></svg>