<?xml version="1.0" encoding="UTF-8"?><svg id="a" xmlns="http://www.w3.org/2000/svg" viewBox="0 0 400 400"><defs><style>.b{fill:none;}.c{fill:#fff;}</style></defs><path class="b" d="M233,148.7c4.4-.2,5.5-1.3,5.5-5.7,0-6.5,0-13,0-19.5h-.1c0-6.6,0-13.1,0-19.6,0-4.1-1.6-5.5-5.7-5.6-1,0-2.1,0-3.1,0-5.5,0-6.5,1.2-6.5,6.7,0,11.4,0,22.9,0,34.4s.7,9.7,9.9,9.3Z"/><path class="b" d="M211.5,87.6c-3.6,0-7.2-.2-10.7,0-3.4.3-5.2-.8-6.8-3.6-4.3-7.5-8.9-14.9-13.7-22-1.4-2-6.3-6.4-8.6-7.1-5.2-1.6-8,4.8-8.2,10-.2,7.4,0,14.8,0,22.7l-.2-.2c-7.2,0-13.7,0-20.2,0-4.4,0-5.8,1.3-5.8,5.3,0,12.7,0,25.5,0,38.2,0,1.3.7,3,1.6,4,4.2,4.3,8.6,8.4,13.1,12.4,1,.9,2.7,1.7,4.2,1.7,18.4,0,36.9,0,55.3,0,3.4,0,5.2-1.6,5.2-4.8v-51.9c0-3.2-1.7-4.8-5.1-4.8Z"/><path class="b" d="M152.7,198.9c-12.4-6.8-28.1-5.6-39.3,3-.7.5-1.2,1.2-2.6,2.8h-.1c-1.3-2.3-2-3.8-3-5-8.8-9.9-20.2-13.8-33.5-11.6-13.4,2.3-22.6,9.7-26.4,21.8-4,12.8-1.1,25,5.6,36.8,10.5,18.6,26.9,32.7,43.2,46.8,1.1,1,4.2,1.3,5.6.6,17.6-8.8,35.6-17.2,49.9-30.8,9.1-8.7,16-18.3,18-30.6,2.1-13.4-4.5-26.7-17.5-33.8Z"/><path class="b" d="M333,197.4c-14.4,0-28.9,0-43.3,0-20.7,0-41.4,0-62.1,0-5.3,0-7.5,1.7-7.5,6.3,0,28.1,0,56.3,0,84.4,0,4.2,2.1,6.1,6.3,6.1,5.4,0,10.8,0,16.8,0,0,0,0-.1,0-.2l.2.2c0,0-.1,0-.2,0,0,3.5-.4,6.6.2,9.6.4,2,1.8,4.6,3.4,5.4,1.4.6,4.3-.5,5.7-1.7,3.9-3.4,7.3-7.4,11.2-10.9,1.5-1.3,3.7-2.4,5.7-2.4,21.3-.1,42.7,0,64,0s6.6-2,6.7-6.6v-83.2c0-5.1-2-7-7.1-7ZM248.2,254.6c-4.4,1.1-9-1.3-10.3-5.9-2.3-7.8.7-14.3,5.8-20,3.9-4.3,5.4-4.2,10.1.2,0,0,0,0,0,0h0s0,0,0,0c-2.9,3.2-5.6,6.2-9.1,10.2,5.3,0,8.7,1.2,9.6,5.7.9,4.8-1.5,8.6-6,9.8ZM272,253.7c-2.6,1.9-6.6,2.1-9.8-.2-5.1-3.7-4.7-9-3.7-14.1,1.1-5.4,4.3-9.8,8.7-13,3.5-2.6,5,1.2,7.4,2.4,0,0,0,0,0,0h.1c0,0-.1,0-.2,0-3.1,3.4-5.7,6.3-8.7,9.7,1.6.5,2.2.8,2.8.9,3.8.4,6.3,2.7,6.3,6.2,0,2.8-1,6.8-3,8.3ZM293.1,265.1c-3.6,2.8-5-1.6-7.8-2.2h0c3.2-3.7,5.9-6.8,9.4-10.7-5.5.1-8.4-1.3-9.4-5.5-.8-3.4.2-6.2,2.8-8.3,2.9-2.4,6.1-2.5,9.4-.7,4,2.1,5.1,5.9,5,9.9-.2,7.3-3.7,13.2-9.3,17.6ZM313,265.4c-1.4.6-3.9-1.3-5.9-2,.6-1.2.9-2.5,1.7-3.6,1.8-2.4,3.9-4.6,6.2-7.3h0c-6.9-.8-9-2.6-9.2-7.3-.2-4.4,2.5-7.9,6.7-8.7,4.3-.8,8.5,2,10,6.8,2.2,7.1-2.5,18.8-9.4,22.1Z"/><path d="M244.7,239c3.5-4,6.2-7,9.1-10.2-4.7-4.4-6.2-4.4-10.1-.2-5.1,5.7-8.1,12.2-5.8,20,1.3,4.6,5.9,7.1,10.3,5.9,4.5-1.2,7-5.1,6-9.8-.9-4.5-4.3-5.7-9.6-5.7Z"/><path d="M297.4,237.6c-3.4-1.8-6.6-1.6-9.4.7-2.6,2.1-3.6,4.9-2.8,8.3,1,4.3,4,5.7,9.4,5.5-3.5,3.9-6.1,6.9-9.4,10.6h0c2.8.8,4.2,5.2,7.8,2.3,5.6-4.5,9.1-10.3,9.3-17.6,0-4-1-7.8-5-9.9Z"/><path d="M268.6,239.3c-.6,0-1.2-.4-2.8-.9,3-3.4,5.6-6.3,8.7-9.7-2.4-1.1-3.9-4.9-7.4-2.4-4.4,3.2-7.6,7.6-8.7,13-1,5.1-1.5,10.4,3.7,14.1,3.3,2.3,7.3,2.1,9.8.2,2-1.5,3-5.4,3-8.3,0-3.5-2.5-5.8-6.3-6.2Z"/><path d="M312.5,236.5c-4.2.7-6.9,4.3-6.7,8.7.2,4.7,2.3,6.5,9.2,7.2h0c-2.3,2.8-4.4,5.1-6.2,7.5-.8,1-1.2,2.4-1.7,3.6,2,.7,4.6,2.6,5.9,2,6.9-3.3,11.6-15,9.4-22.1-1.5-4.8-5.6-7.6-10-6.8Z"/><path d="M342.8,189.7c-24.9-.8-49.8,0-74.7-.3-1.9,0-4.4-.2-5.7-1.2-1.7-1.2-2-3.8-2.1-5.9,0-17.8,0-35.6,0-53.5.7-7.6-4.4-12.9-9.5-17.9-6.1-5.7-1.3-16.6-5.6-22.4-1.9-2.3-5.8-2.7-8.9-2.4-2.9.2-5.7,1.9-8.5.9-3.3-1.4-6.3-6.2-9.7-8.1-4.2-2.6-9.5-3-12.9-6.7-10.6-10.1-20.3-21.2-31.2-30.8-4.8-4.1-12.6-3.2-15.1,2.9-3,8.1-1.1,17-1.6,25.6.2,14.3-27.8-1.4-30.1,12.7-1.1,13.9-.2,28-.4,42,0,3.4.2,7,1.8,10,13.7,17.7,31.5,32.1,46.7,48.5,7.4,8.1,12.6,12.9,24.4,11.8,2.7,0,6-.3,7.8,2,2.6,6.2.6,13.8,1.2,20.5.2,5.2-1.2,7-5.3,2.5-4.6-4.6-9.3-9.3-13.9-14-4.4-5.1-11.2-5.5-16.1-9.7-14.8-11-40.2-17.8-55.3-6.4-2.9,2.7-6,4.5-9.1,1-14.3-15.3-38.2-16-54.6-3.4-23.5,18.3-17.4,54.2-.7,75.2,13.8,18.3,31.3,33.1,47,49.6,13.8,14.5,29.3,27.3,45.6,38.8,5,4.1,11.4,3.1,16.1-1,16.2-11.9,32.3-23.9,45.1-39.6,4.9-7.6,14.4-4.9,22.2-5.3,6.9-.3,6.2,6,7.3,11.3,1.4,6.5,7.9,6.7,12.2,2.4,6.9-6.2,13-14.8,23.4-13.8,23.6-.4,47.4.5,71-.4,7.7-.5,8.2-8.8,7.9-15-.1-30.1.2-60.2-.1-90.2,0-5.2-2.5-9.4-8.2-9.8h-.2ZM170.2,232.7c-5.6,30.4-37.6,46.6-62.9,59.4-2.5,1.2-5.3,2.3-8,1.9-2.7-.4-5.3-2.3-7.4-4.1-17.6-15.6-35.6-31.9-43.5-54.4-8.2-24.9,5.5-48.5,33-48.3,8.6,0,16.3,3,22.7,8.7,2.4,1.9,4.1,5.4,7.2,6,1.3.2,3.2-.9,4.7-1.8,2.3-1.5,4.9-2.8,7.6-3.7,7-2.4,14.7-2.7,21.8-.6,15.8,4.3,27.7,20.4,24.8,36.9v.2ZM216.1,144.5c-1,4.5-6.1,5-10,5-14.8,0-29.6,0-44.3,0-6.7.3-11.4-2.8-15.9-7.4-9-7.8-8.8-11.5-8.7-22.7,0-3.9,0-7.8,0-11.7.2-5.3-.6-10.9.8-16.1,2.1-6.3,13.3-3.8,18.7-4.3,4,.2,6.8-1.4,6.8-5.8.4-7.3-1-14.9,1.6-21.9,4-9.2,12.6-1.7,16.3,3.7,3.9,5.5,7.3,11.4,10.8,17.1,1.2,1.9,2.5,3.9,4.4,5.2,5,3.9,14.7-.8,18.8,4.8,1.1,1.7,1.3,4.1,1.4,6.3-.3,15.9.8,31.9-.4,47.7v.2ZM223.3,104.7c.2-2.3,1-4.7,3.2-5.6,3.1-1.1,7.5-1.2,9.9,1,3,3.3,1.8,8.6,2.1,12.7-.2,10.3.6,20.6-.3,30.8-.4,3.4-3.2,5.1-6.5,5.2-2.7.2-6-.2-7.1-2-1.5-2-1.5-6.3-1.5-9.2,0-10.9-.3-21.8.1-32.7v-.2ZM339.7,288.1c-.8,6.7-8,6.7-13.3,6.6-17.3,0-34.6,0-51.9,0-2.6,0-5.2.3-7.6,1.2-6.8,1.9-12.5,14.2-19.5,12.6-4.3-1.4-3.6-7.6-5-10.7-1.6-3.5-6.1-3-9.4-3-11.5.4-13.3-3.3-13-13.9.1-25.4-.4-50.9.2-76.3.3-4.4,2.9-7.1,7.4-7.5,33.4-.9,66.7,0,100.1-.3,3.1,0,7,0,9.4,2,2.5,2,2.7,5.9,2.8,9.1-.2,26.7.6,53.4-.3,80.1v.2Z"/><path class="c" d="M243.3,294.1c0,0,0,.1,0,.2,0,0,.1,0,.2,0l-.2-.2Z"/><path class="c" d="M253.7,228.9s0,0,0,0c0,0,0,0,0,0h0Z"/><path class="c" d="M274.6,228.7s0,0,0,0c0,0,.1,0,.2,0h-.1Z"/></svg>