<?xml version="1.0" encoding="UTF-8"?><svg id="a" xmlns="http://www.w3.org/2000/svg" viewBox="0 0 400 400"><path d="M213.8,129.7c-.3.7-.6,1.3-.9,2,16,1.5,30.8,4.8,43,9.7,2.8-30.3-12.1-55.6-12.9-57l-3.1-5.1h-.2s-.4-.6-.4-.6h-.2s-.4-.6-.4-.6h-.2s-.4-.6-.4-.6h-.2s-.4-.6-.4-.6h-.2s-.4-.6-.4-.6h-.2s-.4-.6-.4-.6h-.2s-.4-.6-.4-.6h-.2s-.4-.6-.4-.6h-.2s-.4-.6-.4-.6h-.2s-.4-.6-.4-.6h-.2s-.4-.6-.4-.6h-.2s-.4-.6-.4-.6h-.2s-.4-.6-.4-.6h-.2s-.4-.6-.4-.6h-.2s-.4-.6-.4-.6h-.2s-.4-.6-.4-.6h-.2s-.4-.6-.4-.6h-.2s-.4-.6-.4-.6h-.2s-.4-.6-.4-.6h-.2s-.4-.6-.4-.6h-.2s-.4-.6-.4-.6h-.2s-.4-.6-.4-.6h-.2s-.4-.6-.4-.6h-.2s-.4-.6-.4-.6h-.2s-.4-.6-.4-.6h-.2s-.4-.6-.4-.6h-.2s-.4-.6-.4-.6h-.2s-.4-.6-.4-.6h-.2s-.4-.6-.4-.6h-.2s-.4-.6-.4-.6h-.2s-.4-.6-.4-.6h-.2s-.4-.6-.4-.6h-.2s-.4-.6-.4-.6h-.2s-.4-.6-.4-.6h-.2s-.4-.6-.4-.6h-.2s-.4-.6-.4-.6h-.2s-.4-.6-.4-.6h-.2s-.4-.6-.4-.6h-.2s-.4-.6-.4-.6h-.2s-.4-.6-.4-.6h-.2s-.4-.6-.4-.6h-.2s-.4-.6-.4-.6h-.2s-.4-.6-.4-.6h-.2s-.4-.6-.4-.6h-.2s-.4-.6-.4-.6h-.2s-.4-.6-.4-.6h-.2s-.4-.6-.4-.6h-.2s-.4-.6-.4-.6h-.2s-.4-.6-.4-.6h-.2s-.4-.6-.4-.6h-.2s-.4-.6-.4-.6h-.2s-.4-.6-.4-.6h-.2s-.4-.6-.4-.6h-.2s-.4-.6-.4-.6h-.2s-.4-.6-.4-.6h-.2s-.4-.6-.4-.6h-.2s-.4-.6-.4-.6h-.2s-.4-.6-.4-.6h-.2s-.4-.6-.4-.6h-.2s-.4-.6-.4-.6h-.5c0,0,2.1,3.6,2.1,3.6,1,1.7,24.4,41.5,6.6,81.1Z"/><path d="M97.8,180.6c-3.4-1-6.8-2.2-10.2-3.8-9.1-4.2-16.5-9.9-22.6-16.1.8.9,1.7,1.8,2.6,2.7.2.2.4.4.6.6.2.2.4.4.6.6.2.2.4.4.6.6.2.2.4.4.6.6.2.2.4.4.6.6.2.2.4.4.6.6.2.2.4.4.6.6.2.2.4.4.6.6.2.2.4.4.6.6.2.2.4.4.6.6.2.2.4.4.6.6.2.2.4.4.6.6.2.2.4.4.6.6.2.2.4.4.6.6.2.2.4.4.6.6.2.2.4.4.6.6.2.2.4.4.6.6.2.2.4.4.6.6.2.2.4.4.6.6.2.2.4.4.6.6.2.2.4.4.6.6.2.2.4.4.6.6.2.2.4.4.6.6.2.2.4.4.6.6.2.2.4.4.6.6.2.2.4.4.6.6.2.2.4.4.6.6.2.2.4.4.6.6.2.2.4.4.6.6.2.2.4.4.6.6.2.2.4.4.6.6.2.2.4.4.6.6.2.2.4.4.6.6.2.2.4.4.6.6.2.2.4.4.6.6.2.2.4.4.6.6.2.2.4.4.6.6.2.2.4.4.6.6.2.2.4.4.6.6.2.2.4.4.6.6.2.2.4.4.6.6.2.2.4.4.6.6.2.2.4.4.6.6.2.2.4.4.6.6.2.2.4.4.6.6.2.2.4.4.6.6.2.2.4.4.6.6.2.2.4.4.6.6.2.2.4.4.6.6.2.2.4.4.6.6.2.2.4.4.6.6.2.2.4.4.6.6.2.2.4.4.6.6.2.2.4.4.6.6.2.2.4.4.6.6.2.2.4.4.6.6.2.2.4.4.6.6.2.2.4.4.6.6.2.2.4.4.6.6.4.5.9.9,1.4,1.3,1.5-.9,3.1-1.8,4.7-2.7-5-4.6-8.3-9.7-9.6-15.2Z"/><path d="M350.7,291.5c-.2-.2-.4-.4-.6-.6-.2-.2-.4-.4-.6-.6-.2-.2-.4-.4-.6-.6-.2-.2-.4-.4-.6-.6-.2-.2-.4-.4-.6-.6-.2-.2-.4-.4-.6-.6-.2-.2-.4-.4-.6-.6-.2-.2-.4-.4-.6-.6-.2-.2-.4-.4-.6-.6-.2-.2-.4-.4-.6-.6-.2-.2-.4-.4-.6-.6-.2-.2-.4-.4-.6-.6-.2-.2-.4-.4-.6-.6-.2-.2-.4-.4-.6-.6-.2-.2-.4-.4-.6-.6-.2-.2-.4-.4-.6-.6-.2-.2-.4-.4-.6-.6-.2-.2-.4-.4-.6-.6-.2-.2-.4-.4-.6-.6-.2-.2-.4-.4-.6-.6-.2-.2-.4-.4-.6-.6-.2-.2-.4-.4-.6-.6-.2-.2-.4-.4-.6-.6-.2-.2-.4-.4-.6-.6-.2-.2-.4-.4-.6-.6-.2-.2-.4-.4-.6-.6,0,0,0,0-.1-.1,2.1-4,3.2-8.1,3.2-12.4,0-7.6-3.4-14.8-9.9-21.3-.2-.2-.4-.4-.6-.6-.2-.2-.4-.4-.6-.6-.2-.2-.4-.4-.6-.6-.2-.2-.4-.4-.6-.6-.2-.2-.4-.4-.6-.6-.2-.2-.4-.4-.6-.6-.2-.2-.4-.4-.6-.6-.2-.2-.4-.4-.6-.6-.2-.2-.4-.4-.6-.6-.2-.2-.4-.4-.6-.6-.2-.2-.4-.4-.6-.6-.2-.2-.4-.4-.6-.6-.2-.2-.4-.4-.6-.6-.2-.2-.4-.4-.6-.6-.2-.2-.4-.4-.6-.6-.2-.2-.4-.4-.6-.6-.2-.2-.4-.4-.6-.6-.2-.2-.4-.4-.6-.6-.2-.2-.4-.4-.6-.6-.2-.2-.4-.4-.6-.6-.2-.2-.4-.4-.6-.6-.2-.2-.4-.4-.6-.6-.2-.2-.4-.4-.6-.6-.1-.2-.3-.3-.4-.4,5.2-5.6,8-11.9,8-18.5s-3.2-13.9-9.3-19.8c-.2-.2-.4-.4-.6-.6-.2-.2-.4-.4-.6-.6-.2-.2-.4-.4-.6-.6-.2-.2-.4-.4-.6-.6-.2-.2-.4-.4-.6-.6-.2-.2-.4-.4-.6-.6-.2-.2-.4-.4-.6-.6-.2-.2-.4-.4-.6-.6-.2-.2-.4-.4-.6-.6-.2-.2-.4-.4-.6-.6-.2-.2-.4-.4-.6-.6-.2-.2-.4-.4-.6-.6-.2-.2-.4-.4-.6-.6-.2-.2-.4-.4-.6-.6-.2-.2-.4-.4-.6-.6-.2-.2-.4-.4-.6-.6-.2-.2-.4-.4-.6-.6-.2-.2-.4-.4-.6-.6-.2-.2-.4-.4-.6-.6-.2-.2-.4-.4-.6-.6-.2-.2-.4-.4-.6-.6-.2-.2-.4-.4-.6-.6-.2-.2-.4-.4-.6-.6-.2-.2-.4-.4-.6-.6-.2-.2-.4-.4-.6-.6-.2-.2-.4-.4-.6-.6-.2-.2-.4-.4-.6-.6-.2-.2-.4-.4-.6-.6-.2-.2-.4-.4-.6-.6-.2-.2-.4-.4-.6-.6-.2-.2-.4-.4-.6-.6-.2-.2-.4-.4-.6-.6-.2-.2-.4-.4-.6-.6-.2-.2-.4-.4-.6-.6-.2-.2-.4-.4-.6-.6-.2-.2-.4-.4-.6-.6-.2-.2-.4-.4-.6-.6-.2-.2-.4-.4-.6-.6-.2-.2-.4-.4-.6-.6-.2-.2-.4-.4-.6-.6-.2-.2-.4-.4-.6-.6-.2-.2-.4-.4-.6-.6-.2-.2-.4-.4-.6-.6-.2-.2-.4-.4-.6-.6-.2-.2-.4-.4-.6-.6-.2-.2-.4-.4-.6-.6-.2-.2-.4-.4-.6-.6-.2-.2-.4-.4-.6-.6-.2-.2-.4-.4-.6-.6-.2-.2-.4-.4-.6-.6-.2-.2-.4-.4-.6-.6-.2-.2-.4-.4-.6-.6-.2-.2-.4-.4-.6-.6-.2-.2-.4-.4-.6-.6-.2-.2-.4-.4-.6-.6-.2-.2-.4-.4-.6-.6-.2-.2-.4-.4-.6-.6-.2-.2-.4-.4-.6-.6-.2-.2-.4-.4-.6-.6,0,0-.2-.2-.3-.3,4.9,5.5,7.5,11.6,7.5,18s-3.6,14.6-10.3,20.8c16.7,8.7,25.8,20.1,25.8,32.5s-1.7,10.6-5,15.5c18.2,9.8,28.1,22.1,28.1,35.6,0,16.7-15,31.6-42.2,42-24.6,9.5-57.2,14.7-91.7,14.7s-67.1-5.2-91.7-14.7c-13.6-5.2-24.2-11.6-31.4-18.8.6.6,1.2,1.3,1.8,1.9.2.2.4.4.6.6.2.2.4.4.6.6.2.2.4.4.6.6.2.2.4.4.6.6.2.2.4.4.6.6.2.2.4.4.6.6.2.2.4.4.6.6.2.2.4.4.6.6.2.2.4.4.6.6.2.2.4.4.6.6.2.2.4.4.6.6.2.2.4.4.6.6.2.2.4.4.6.6.2.2.4.4.6.6.2.2.4.4.6.6.2.2.4.4.6.6.2.2.4.4.6.6.2.2.4.4.6.6.2.2.4.4.6.6.2.2.4.4.6.6.2.2.4.4.6.6.2.2.4.4.6.6.2.2.4.4.6.6.2.2.4.4.6.6.2.2.4.4.6.6.2.2.4.4.6.6.2.2.4.4.6.6.2.2.4.4.6.6.2.2.4.4.6.6.2.2.4.4.6.6.2.2.4.4.6.6.2.2.4.4.6.6.2.2.4.4.6.6.2.2.4.4.6.6.2.2.4.4.6.6.2.2.4.4.6.6.2.2.4.4.6.6.2.2.4.4.6.6.2.2.4.4.6.6.2.2.4.4.6.6.2.2.4.4.6.6.2.2.4.4.6.6.2.2.4.4.6.6.2.2.4.4.6.6.2.2.4.4.6.6.2.2.4.4.6.6.2.2.4.4.6.6.2.2.4.4.6.6.2.2.4.4.6.6.2.2.4.4.6.6.2.2.4.4.6.6.2.2.4.4.6.6.2.2.4.4.6.6.2.2.4.4.6.6.2.2.4.4.6.6.2.2.4.4.6.6.2.2.4.4.6.6.2.2.4.4.6.6.2.2.4.4.6.6,7.2,7.2,17.8,13.7,31.6,19,24.6,9.5,57.2,14.7,91.7,14.7s67.1-5.2,91.7-14.7c27.2-10.5,42.2-25.4,42.2-42,0-8.5-3.9-16.5-11.3-23.7Z"/><path d="M258.4,143.3c9.3,3.8,16.6,8.4,21.8,13.6-5.2-5.8-13-11-23.2-15.2-.3-.1-.7-.3-1-.4,0,.3,0,.6,0,.9.9.3,1.7.7,2.6,1Z"/><path d="M88.1,245.3c-3.3-4.9-5-10.1-5-15.5,0-11.3,7.4-21.6,21.2-29.9-.5-.5-1.1-1-1.6-1.5-13.7,8.3-21.1,18.6-21.1,29.9s1.7,10.6,5,15.5c-18.2,9.8-28.1,22.1-28.1,35.6s3.7,16.2,10.8,23.3c-6.1-6.7-9.4-14-9.4-21.7,0-13.5,9.9-25.9,28.1-35.6Z"/><path d="M39.9,106.8l5.1-3c1.7-1,41.7-24,81.2-5.8,2.1,1,4.1,2,6,3.1.7-2.1,1.5-4.2,2.5-6.3,17.9-39.6,63.2-48.5,65.1-48.8l5.4-1-1-1.6-5.8,1.1c-1.9.4-47.3,9.2-65.1,48.8-.9,2.1-1.8,4.2-2.5,6.3-1.9-1.1-3.9-2.1-6-3.1-39.5-18.3-79.5,4.8-81.2,5.7l-5.1,3,1,5.9c.3,1.5,5.3,28.7,25.5,49.5-19-20.6-23.8-46.5-24.1-48l-1-5.9Z"/><path d="M100.7,321.4c24.6,9.5,57.2,14.7,91.7,14.7s67.1-5.2,91.7-14.7c27.2-10.5,42.2-25.4,42.2-42,0-13.5-9.9-25.9-28.1-35.6,3.3-4.9,5-10.1,5-15.5,0-12.5-9.1-23.8-25.8-32.5,6.8-6.2,10.3-13.3,10.3-20.8s-2.6-12.5-7.5-18c-5.2-5.2-12.5-9.8-21.8-13.6-.8-.3-1.7-.7-2.6-1,0-.3,0-.6,0-.9-12.2-4.9-27-8.2-43-9.7.3-.7.6-1.3.9-2,17.9-39.6-5.6-79.5-6.6-81.1l-2.1-3.5-5.4,1c-1.9.4-47.3,9.2-65.1,48.8-.9,2.1-1.8,4.2-2.5,6.3-1.9-1.1-3.9-2.1-6-3.1-39.5-18.3-79.5,4.8-81.2,5.8l-5.1,3,1,5.9c.3,1.4,5,27.4,24.1,48,6.1,6.2,13.5,11.9,22.6,16.1,3.4,1.6,6.8,2.8,10.2,3.8,1.3,5.4,4.6,10.5,9.6,15.2-1.7.9-3.2,1.8-4.7,2.7.5.5,1,1,1.6,1.5-13.8,8.3-21.2,18.7-21.2,29.9s1.7,10.6,5,15.5c-18.2,9.8-28.1,22.1-28.1,35.6s3.2,15,9.4,21.7c7.1,7.1,17.7,13.5,31.4,18.8ZM148.8,100.4c10.7-23.7,35.1-33.8,46.6-37.4,4.9,10.9,13.6,35.8,2.8,59.6-1.3,2.9-2.8,5.6-4.5,8.1-.4,0-.9,0-1.3,0-6.2,0-12.2.3-18.2.8l13.1-28.7-15.6-7.1-17.6,38.6c-3,.6-6,1.2-8.8,1.9-2.1-10.4-2.2-22.9,3.6-35.7ZM192.4,147.8c47.7,0,78.1,16,78.1,27.1s-30.4,27.1-78.1,27.1-78.1-16-78.1-27.1,30.4-27.1,78.1-27.1ZM100,163.3c-1.8-.6-3.5-1.3-5.3-2.1-23.6-10.9-33.5-35.5-36.9-46.9,10.9-4.8,35.9-13.2,59.7-2.2,3.5,1.6,6.6,3.5,9.4,5.6-.5,7.1,0,13.8,1.1,19.9l-31-14.2-7.1,15.6,23.1,10.6c-6,4.1-10.4,8.7-13,13.7ZM124.7,206.7c1,.5,2,.9,3.1,1.3,17.4,7.1,40.3,11.1,64.6,11.1s47.2-3.9,64.6-11.1c1-.4,2.1-.9,3.1-1.3,16.7,6.4,26,14.7,26,21.6,0,13.5-35.6,32.3-93.6,32.3s-93.6-18.8-93.6-32.3c0-6.9,9.3-15.1,26-21.6ZM99.8,256.3c4.8,3.2,10.5,6.2,17.1,8.8,20.3,8.1,47.1,12.6,75.5,12.6s55.2-4.5,75.5-12.6c6.6-2.6,12.3-5.6,17.1-8.8,15.3,7,24.1,15.4,24.1,23.1,0,8.8-11.7,18.5-31.2,26-22.7,8.7-53.1,13.5-85.5,13.5s-62.8-4.8-85.5-13.5c-19.5-7.5-31.2-17.2-31.2-26s8.9-16.1,24.1-23.1Z"/></svg>