<?xml version="1.0" encoding="UTF-8"?><svg id="a" xmlns="http://www.w3.org/2000/svg" viewBox="0 0 400 400"><path d="M357.5,199.6c-1.1-5.7-5.9-10.7-10.2-15-10.8-10.9-21.6-21.7-32.5-32.5-16.4-17.3-25.8-21-49.1-23.8-13.3-2-22.3-3-30.5-14-14.3-17.3-38-45-55.1-61.8-3.5-3.3-7.5-7.4-12.3-8.1-5.9-.9-10.4,7.3-13,12.5-8.3,16.2-15.8,32.6-24.3,48.6-2.4,4.1-5.3,8-9,10.7-3.8,2.9-8.4,4.6-13.1,5.6-17.1,3-34.6,5-52.1,7.7-12.4,1.8-23.5,5.2-11.6,17.9,12.7,12.9,25.7,25.5,38.3,38.4,5.8,5.8,11.1,12.8,11.9,21.1.6,4.8-.1,10-.9,14.8-2.5,14.4-5,28.7-7.4,42.8-1.1,7.7-3.4,15.9.4,22.9,4.7,7.5,10.8,12.4,17.9,20.2,7.2,7.4,15.4,15.9,22.6,23.3,3.2,3.3,6.1,6.3,8.7,9,5,5.1,10.1,10.9,16.7,12.1,8.6.9,16-4.9,24.9-9.2,10.4-5.5,22-11.6,32.2-16.9,7.4-3.8,12.4-6.8,18.7-7.8,8.1-1.2,15.8,2.9,23,6.5,13.7,7.2,27.4,14.2,41.1,21.5,13.3,7.2,22.1,8.8,19-10.2-2.6-16.5-5.6-32.7-8.4-49-.8-4.8-1.4-9.9-.9-14.7.8-8.7,6.3-15.9,12.5-21.8,11.1-10.7,22.2-21.2,33.2-32.2,4.9-4.9,10.6-11.3,9.3-18.6v-.2ZM112.2,255.2c1-12.3,4-24.5,5.8-36.8,1-6.3,1.6-13.1-.3-19.2-1.9-6.3-6.3-11.5-10.9-16.1-7.2-7.1-14.6-14.1-21.9-21.3-10.9-10.5-9.4-15.1,6-17.1,12.8-2.2,25.9-3,38.5-6.2,12-3.2,18.2-13.4,23.3-24.4,3.5-7.1,7-14.2,10.5-21.3,3.7-7.4,9.1-18.2,16.2-5.9,4.8,8.5,9.4,18.7,13.9,27.6,3.6,7.3,7.4,15,14.2,19.7,6.5,4.6,14.5,5.8,22.8,6.9,8.2,1.2,16.3,2.3,24.4,3.5,4.1.7,10.1,1.3,12.7,4.4,2.8,3.3-3.5,9.8-6.6,12.8-40.1,39-37.6,31-28,85.9,2.8,15.6-1.6,17.8-15.3,10.3-7.1-3.7-14.1-7.4-21.2-11.2-7.9-4.2-16.1-8.8-25.2-8-6,.3-11.6,2.9-16.9,5.7-8.8,4.6-17.4,9.1-26.1,13.7-5.7,3-16.1,8.4-15.7-2.9v-.2Z"/></svg>