<?xml version="1.0" encoding="UTF-8"?><svg id="a" xmlns="http://www.w3.org/2000/svg" viewBox="0 0 115 115"><defs><style>.b{fill:#010101;}</style></defs><path d="M22.1,71.3l1.7,2.7c4.1,6.5,8.3,13.3,12.2,20.1,2.4,4.1,5.6,5.9,10.5,5.7,5.1-.1,10.3,0,15.3,0,2.2,0,4.5,0,6.7,0,2.2,0,4.4,0,6.7,0,5,0,10.2,0,15.4,0,6.8,0,9.3-2.5,9.4-9.2,0-7.1,0-14.3,0-21.3,0-5.9,0-11.8,0-17.7,0-2.8-.8-5.3-2.5-7.7l-1.3-1.7c-2.5-3.5-5.2-7.1-7.5-10.9-1.7-2.8-3.8-3.9-7.3-3.8-4.4.1-9,.1-13.3,0-3.1,0-6.3,0-9.4,0-1,0-2.4,0-3.3-1-.7-.7-.9-1.7-.8-3.1.1-2.1.1-3.7,0-5.2-.1-1.1-.7-3-3.1-3s-.1,0-.2,0c-2.1,0-2.7,1.6-2.8,2.9,0,.9-.1,1.9-.1,2.8,0,.3,0,.7,0,1-.1,5.1-.6,5.6-5.7,5.6-6,0-12.1,0-18.1,0h-5.6c-1.7,0-2.8.7-3.4,2-.6,1.5-.2,2.7,1.2,3.4,2.7,1.3,2.7,3.6,2.7,5.4,0,2.9,0,5.8,0,8.7,0,4.6,0,9.3,0,14,0,3.7.9,7,2.9,10.2ZM26.5,34.7c.9-.9,2.2-1,3.3-1,5.2,0,10.6,0,15.7,0,4,0,7.9,0,11.9,0,4.9,0,9.9,0,14.9,0,1.7,0,2.9.1,3.8,1,.7.7,1.1,1.8,1,3.4-.1,4.4,0,8.9,0,13.3,0,3.4,0,6.9,0,10.4,0,5.1-1.6,6.6-7,6.8-2.3,0-4.5,0-6.7,0h-.7c-.5,0-.8,0-1,0,0,.2.2.5.6,1,1.4,1.8,2.8,3.7,4.1,5.6,1,1.4,4.1,5.7.3,8.7-1.1.9-2.3,1.3-3.4,1.1-1.6-.2-3.2-1.3-4.9-3.5-1-1.2-1.9-2.5-2.8-3.7-.4-.6-.9-1.2-1.3-1.8-1.2-1.7-2.5-3.4-3-3.4s-1.6,1.6-2.8,3.2c-.4.6-.9,1.1-1.3,1.7-1.1,1.5-2.3,3.1-3.5,4.6-.7.9-2.4,3-4.8,3s-1.8-.3-2.8-1c-2.8-2-2.9-4.7-.4-8.2,1.2-1.8,2.6-3.5,3.8-5.2l.9-1.2c.3-.5.5-.7.6-.9-.2,0-.4,0-.9,0-2.9,0-5.5,0-8,0-4.9-.2-6.4-1.5-6.4-6.2,0-4,0-8.1,0-12.1,0-4.1,0-8.4,0-12.6,0-1.4.3-2.4.9-3.1Z"/><path class="b" d="M56.9,57.9c3.3-2.9,6.4-6,9.3-9.3.9-1,.7-2.5-.3-3.6-1.2-1.3-2.6-1.4-4-.4-1.2.8-2.2,1.8-3,2.8-.7.9-1.9,2.2-3.4,2.2-1.6,0-2.8-1.2-3.6-2.2v-.2c-1.4-1.6-2.7-3.1-4.7-3.4-1,.1-1.9.6-2.7,1.4-.8.9-1.7,1.7-2.6,2.6-1.6,1.5-3.2,3.1-4.7,4.8-2.2,2.4-1.4,3.8-.6,4.7.9,1,2.3,1.8,5.1-.5.5-.4.9-.9,1.4-1.5,1-1.3,2.2-2.7,4-2.7h0c1.9,0,3.1,1.5,4.1,2.8.4.5.8,1,1.3,1.4,2.2,2,3.3,1.9,4.3,1Z"/></svg>