<?xml version="1.0" encoding="UTF-8"?><svg id="a" xmlns="http://www.w3.org/2000/svg" viewBox="0 0 400 400"><path d="M123.6,183.8c-9.9,0-18,8.1-18,18s8.1,18,18,18,18-8.1,18-18-8.1-18-18-18ZM123.6,210.8c-5,0-9-4-9-9s4-9,9-9,9,4,9,9-4,9-9,9Z"/><path d="M111.4,164.5c.9.9,2,1.3,3.2,1.3s2.3-.4,3.2-1.3l5.8-5.8,5.8,5.8c.9.9,2,1.3,3.2,1.3s2.3-.4,3.2-1.3c1.8-1.8,1.8-4.6,0-6.4l-5.8-5.8,5.8-5.8c1.8-1.8,1.8-4.6,0-6.4s-4.6-1.8-6.4,0l-5.8,5.8-5.8-5.8c-1.8-1.8-4.6-1.8-6.4,0-1.8,1.8-1.8,4.6,0,6.4l5.8,5.8-5.8,5.8c-1.8,1.8-1.8,4.6,0,6.4Z"/><path d="M173.1,242.3c-9.9,0-18,8.1-18,18s8.1,18,18,18,18-8.1,18-18-8.1-18-18-18ZM173.1,269.3c-5,0-9-4-9-9s4-9,9-9,9,4,9,9-4,9-9,9Z"/><path d="M173.1,183.8c-9.9,0-18,8.1-18,18s8.1,18,18,18,18-8.1,18-18-8.1-18-18-18ZM173.1,210.8c-5,0-9-4-9-9s4-9,9-9,9,4,9,9-4,9-9,9Z"/><path d="M160.9,164.5c.9.9,2,1.3,3.2,1.3s2.3-.4,3.2-1.3l5.8-5.8,5.8,5.8c.9.9,2,1.3,3.2,1.3s2.3-.4,3.2-1.3c1.8-1.8,1.8-4.6,0-6.4l-5.8-5.8,5.8-5.8c1.8-1.8,1.8-4.6,0-6.4-1.8-1.8-4.6-1.8-6.4,0l-5.8,5.8-5.8-5.8c-1.8-1.8-4.6-1.8-6.4,0s-1.8,4.6,0,6.4l5.8,5.8-5.8,5.8c-1.8,1.8-1.8,4.6,0,6.4Z"/><path d="M279.8,207.6l-13.5-13.5c-.4-.4-.9-.7-1.5-1-1.1-.5-2.3-.5-3.4,0-.5.2-1,.6-1.5,1l-13.5,13.5c-1.8,1.8-1.8,4.6,0,6.4,1.8,1.8,4.6,1.8,6.4,0l5.8-5.8v7.1c0,23.1-23.2,40.5-54,40.5s-4.5,2-4.5,4.5,2,4.5,4.5,4.5c35.9,0,63-21.3,63-49.5v-7.1l5.8,5.8c.9.9,2,1.3,3.2,1.3s2.3-.4,3.2-1.3c1.8-1.8,1.8-4.6,0-6.4Z"/><path d="M216.3,152.3l-5.8,5.8c-1.8,1.8-1.8,4.6,0,6.4.9.9,2,1.3,3.2,1.3s2.3-.4,3.2-1.3l5.8-5.8,5.8,5.8c.9.9,2,1.3,3.2,1.3s2.3-.4,3.2-1.3c1.8-1.8,1.8-4.6,0-6.4l-5.8-5.8,5.8-5.8c1.8-1.8,1.8-4.6,0-6.4-1.8-1.8-4.6-1.8-6.4,0l-5.8,5.8-5.8-5.8c-1.8-1.8-4.6-1.8-6.4,0-1.8,1.8-1.8,4.6,0,6.4l5.8,5.8Z"/><path d="M222.6,219.8c9.9,0,18-8.1,18-18s-8.1-18-18-18-18,8.1-18,18,8.1,18,18,18ZM222.6,192.8c5,0,9,4,9,9s-4,9-9,9-9-4-9-9,4-9,9-9Z"/><path d="M333.7,130.9c-6.2-6.2-12.5-12.5-18.7-18.7-6.7-6.9-6.3-14.5-17-14.2-8.2.6-50.8.3-71.2.2-6.1,0-11.9-2.5-16.2-6.8s-3.9-3.9-5.8-5.8l-4.5-4.8c-9.5-9.7-27.7-3.7-27.6,11,0,0,0,1,0,2.1,0,2.3-1.8,4.2-4.1,4.2-19,.1-73.6.8-89.6.8s-7.4,0-12,1-6.3,4.6-6.6,9.5,1.6,157.5,2.1,168.8,0,.3,0,.4c.5,11.6,4.5,16.4,8.2,19.4s2.8,1.9,4.3,2.6,3.2,2.4,1.1,8.2c-3.1,10.5,7.2,14.5,14.2,21.5,5.8,5.8,11.6,11.6,17.4,17.4,5.8,6.6,16.8,6.9,23,.5,0,0,14.6-14.6,19-19.1s1.8-1.2,3-1.2c15.4,0,129.3-.4,129.3.2,0,0,0,0,0,0l.2.2s0,0,0,0l.2.2s0,0,0,0l.2.2s0,0,0,0l.2.2s0,0,0,0l.2.2s0,0,0,0l.2.2s0,0,0,0l.2.2s0,0,0,0l.2.2s0,0,0,0l.2.2s0,0,0,0l.2.2s0,0,0,0l.2.2s0,0,0,0l.2.2s0,0,0,0l.2.2s0,0,0,0l.2.2s0,0,0,0l.2.2s0,0,0,0l.2.2s0,0,0,0l.2.2s0,0,0,0l.2.2s0,0,0,0l.2.2s0,0,0,0l.2.2s0,0,0,0l.2.2s0,0,0,0l.2.2s0,0,0,0l.2.2s0,0,0,0l.2.2s0,0,0,0l.2.2s0,0,0,0l.2.2s0,0,0,0l.2.2s0,0,0,0l.2.2s0,0,0,0l.2.2s0,0,0,0l.2.2s0,0,0,0l.2.2s0,0,0,0l.2.2s0,0,0,0l.2.2s0,0,0,0l.2.2s0,0,0,0l.2.2s0,0,0,0l.2.2s0,0,0,0l.2.2s0,0,0,0l.2.2s0,0,0,0l.2.2s0,0,0,0l.2.2s0,0,0,0l.2.2s0,0,0,0l.2.2s0,0,0,0l.2.2s0,0,0,0l.2.2s0,0,0,0l.2.2s0,0,0,0l.2.2s0,0,0,0l.2.2s0,0,0,0l.2.2s0,0,0,0l.2.2s0,0,0,0l.2.2s0,0,0,0l.2.2s0,0,0,0l.2.2s0,0,0,0l.2.2s0,0,0,0l.2.2s0,0,0,0l.2.2s0,0,0,0l.2.2s0,0,0,0l.2.2s0,0,0,0l.2.2s0,0,0,0l.2.2s0,0,0,0l.2.2s0,0,0,0l.2.2s0,0,0,0l.2.2s0,0,0,0l.2.2s0,0,0,0l.2.2s0,0,0,0l.2.2s0,0,0,0l.2.2s0,0,0,0l.2.2s0,0,0,0l.2.2s0,0,0,0l.2.2s0,0,0,0l.2.2s0,0,0,0l.2.2s0,0,0,0l.2.2s0,0,0,0l.2.2s0,0,0,0l.2.2s0,0,0,0l.2.2s0,0,0,0l.2.2s0,0,0,0l.2.2s0,0,0,0l.2.2s0,0,0,0l.2.2s0,0,0,0l.2.2s0,0,0,0l.2.2s0,0,0,0l.2.2s0,0,0,0l.2.2s0,0,0,0l.2.2s0,0,0,0l.2.2s0,0,0,0l.2.2s0,0,0,0l.2.2s0,0,0,0l.2.2s0,0,0,0l.2.2s0,0,0,0l.2.2s0,0,0,0c11.3,11.4,27.6,1,27.3-11.5-.1-6,1.8-11.9,5.9-16.4.6-.7,1.2-1.4,1.7-2.2,8.3-.7,2.9-153.4,4.1-169.4.1-1.5.1-3.1-.1-4.6-.8-5.1-3.2-9.7-6.7-13.1ZM307.3,277.2c-.4,8.8-5.1,13.7-11.7,15.7-4.3,1.4-5.7,6.5-2.9,10s0,0,0,0c5.9,5.5,1.4,16.1-6.5,15.9-2.4,0-4.8-.9-6.5-2.7l-20.9-20.9c-.8-.8-1.8-1.2-2.9-1.2-15.7,0-134.5,0-134.6,0h0c-3.8,2.6-23.1,26.6-28.7,25-7.9.2-12.5-10.3-6.5-15.8,0,0,.8-.8,2-2,2.5-2.5.9-6.7-2.6-7.1s0,0,0,0c-8.7-.2-11-3.7-13.8-14.1s-.5-2.6-.6-4c-.2-10.1-1.1-57.6-2-116.1s0-40.3.1-41.1c.8-7-2.1-12.7,4.9-13.9s86.2-.7,101-1,3.9-2.2,3.9-4.5c0-3.6,0-8.3,0-8.3,0-12.4,18.3-12.8,18.6-.4,0,0,0,5,0,8.7s1.9,4.2,4.2,4.2c18.1,0,96.3-.9,96.3-.8,9.2,0,9.3,7.9,9.3,17.1,0,0,0,157.2,0,157.2Z"/></svg>