<?xml version="1.0" encoding="UTF-8"?><svg id="a" xmlns="http://www.w3.org/2000/svg" viewBox="0 0 115 112"><path d="M85.1,15.1s0,0,.1,0c0,0,0,0-.1,0Z"/><path d="M85.6,15.3s0,0,0,0c0,0,0,0,0,0Z"/><path d="M18.3,86.6s0,0,0-.1c0,0,0,0,0,.1Z"/><path d="M18.5,87.1s0,0,0,0c0,0,0,0,0,0Z"/><path d="M99,29.5s0,0,0,0c0-.8-.5-1.5-1.1-1.9-.2-.3-.5-.6-.8-.8-.2-.3-.5-.6-.8-.8-.2-.3-.5-.6-.8-.8-.2-.3-.5-.6-.8-.8-.2-.3-.5-.6-.8-.8-.2-.3-.5-.6-.8-.8-.2-.3-.5-.6-.8-.8-.2-.3-.5-.6-.8-.8-.2-.3-.5-.6-.8-.8-.2-.3-.5-.6-.8-.8-.2-.3-.5-.6-.8-.8-.2-.3-.5-.6-.8-.8-.2-.3-.5-.6-.8-.8-.2-.3-.5-.6-.8-.8.2.3.3.7.3,1.1s0,0,0,0v68.7s0,0,0,0,0,0,0,0v.4h0c-.2,1-1.1,1.8-2.2,1.8H20.4c-.4,0-.8-.1-1.1-.3,0,0,0,0,0,0,.2.3.5.6.8.8.2.3.5.6.8.8.2.3.5.6.8.8.2.3.5.6.8.8.2.3.5.6.8.8.2.3.5.6.8.8.2.3.5.6.8.8.2.3.5.6.8.8.2.3.5.6.8.8.2.3.5.6.8.8.2.3.5.6.8.8.2.3.5.6.8.8.2.3.5.6.8.8.2.3.5.6.8.8.4.7,1.1,1.1,1.9,1.1h64.1c1.1,0,2-.8,2.2-1.8h0v-.4s0,0,0,0,0,0,0,0V29.5Z"/><path d="M18.5,87.1c0-.1-.1-.3-.2-.4,0,.1.1.3.2.4Z"/><path d="M18.3,86.5c0-.2,0-.4,0-.5,0,.2,0,.4,0,.5Z"/><path d="M84.5,15c.2,0,.4,0,.5,0-.2,0-.4,0-.5,0Z"/><path d="M18.5,87.1c.2.3.5.6.8.8-.3-.2-.6-.5-.8-.8Z"/><polygon points="43.9 15 18.2 40.8 18.2 40.8 18.2 40.8 18.2 40.8 43.9 15"/><path d="M85.2,15.1c.1,0,.3.1.4.2-.1,0-.3-.1-.4-.2Z"/><path d="M86.4,16.1h0c-.2-.3-.5-.6-.8-.8.3.2.6.5.8.8Z"/><path d="M84.5,88.2c1.1,0,2-.8,2.2-1.8h0v-.4s0,0,0,0,0,0,0,0V17.3s0,0,0,0c0-.4-.1-.8-.3-1.1h0c-.2-.3-.5-.6-.8-.8,0,0,0,0,0,0-.1,0-.3-.1-.4-.2,0,0,0,0-.1,0-.2,0-.4,0-.5,0h-40.6s-25.8,25.8-25.8,25.8h0v45.2h0c0,.2,0,.4,0,.5,0,0,0,0,0,.1,0,.1.1.3.2.4,0,0,0,0,0,0,.2.3.5.6.8.8.3.2.7.3,1.1.3h64.1ZM78.6,80.1h-44.6l27.7-48,16.9,16.9v31.1ZM66.9,23.1h11.7v20.1l-14.8-14.8,3.1-5.3ZM26.3,43h17.6c1.2,0,2.2-1,2.2-2.2h0v-17.6h16l-22.2,38.4-13.7-13.7v-4.9ZM26.3,53.7l11.6,11.6-8.6,14.9h-3v-26.4Z"/><path d="M52.5,57.8c0,2.2.7,4.2,1.9,5.8l6.3,11c0,0,0,.2.1.2h0s0,0,0,0c.3.4.8.7,1.4.7s1-.2,1.3-.6h0s0,0,0,0c0-.1.2-.3.2-.4l6.2-10.8c1.2-1.6,2-3.7,2-5.9,0-5.4-4.4-9.8-9.8-9.8s-9.8,4.4-9.8,9.8ZM62.2,53.1c2.7,0,4.8,2.2,4.8,4.8s-2.2,4.8-4.8,4.8-4.8-2.2-4.8-4.8,2.2-4.8,4.8-4.8Z"/></svg>