<?xml version="1.0" encoding="UTF-8"?><svg id="a" xmlns="http://www.w3.org/2000/svg" viewBox="0 0 115 112"><defs><style>.b{fill:none;}</style></defs><path class="b" d="M83.5,55c.4.4,1,.4,1.4,0s.4-1,0-1.4l-6.6-7.1c-.4-.4-1-.4-1.4,0s-.4,1,0,1.4l6.6,7.1Z"/><path class="b" d="M84.7,49.7c.4.4,1,.4,1.4,0,.4-.4.4-1,0-1.4l-3.6-3.8c-.4-.4-1-.4-1.4,0s-.4,1,0,1.4l3.6,3.8Z"/><path class="b" d="M42.8,48.2l-3.5-3.8c-.4-.4-1-.4-1.4,0s-.4,1,0,1.4l3.6,3.8c.4.4,1,.4,1.4,0h-.1c.4-.4.4-1,0-1.4Z"/><path class="b" d="M35.1,46.4c-.4-.4-1-.4-1.4,0s-.4,1,0,1.4l6.6,7.1c.1.3.4.3.6.3.9,0,1.3-1,.8-1.7l-6.6-7.1Z"/><path class="b" d="M82.7,67.6c1,0,1.9-.3,2.7-.5,8.3-3.1,10.4-22.7,10.4-22.7.9-3.1-.5-4.9-2.7-5.3-7.7-1.6-14.8-1.8-20.9-1-3.9.5-7.8,1.8-11.8,4-3.1,1.7-4.7,1.7-4.9,1.7s-1.8,0-4.8-1.7c-4-2.2-7.9-3.5-11.8-4-6.1-.8-13.1-.5-20.9.9-2.3.4-3.8,2.2-2.7,5.3.3.6,2.1,3.8,1.8,8.3,0,0,0,0,0,.1,0,.1.1,11.3,8.3,14.4.8.4,1.7.5,2.7.5,11.2,0,12.3.3,13.9-.3,4.3-1.6,7.1-6.9,9.2-16.9.3-1.8,1.4-3.1,2.9-3.6,2.5-.9,5.1.9,5.6,3.6,2.1,9.9,5.1,15.5,9.2,16.9,1.6.5,2.5.3,13.9.3ZM16.2,41.7c0-.8,1.3-1.4,2.9-1.4s2.9.6,2.9,1.4-1.3,1.4-2.9,1.4-2.9-.6-2.9-1.4ZM47.9,54.1c0,6.2-5.1,11.3-11.3,11.3h-5.5c-6.5,0-11.7-5.2-11.7-11.7v-2.9c0-5.5,4.5-9.9,10-9.9h9.1c5.2-.1,9.4,4,9.4,9.2v3.9ZM91.1,40.3c1.6,0,2.9.6,2.9,1.4s-1.3,1.4-2.9,1.4-2.9-.6-2.9-1.4,1.2-1.4,2.9-1.4ZM62.7,53.7v-2.9c0-5.5,4.5-9.9,10-9.9h9.1c5.2-.1,9.4,4,9.4,9.2v3.9c0,6.2-5.1,11.3-11.3,11.3h-5.5c-6.5,0-11.7-5.2-11.7-11.7Z"/><path d="M14.9,52.9s0,0,0,.1c0,0,0,0,0,0,0,0,0,0,0-.1,0,0,0,0,0,0Z"/><path d="M14.9,52.5s0,0,0,0c0,0,0,0,0,0,0,0,0,0,0,0,0,0,0,0,0,0Z"/><path d="M14.9,53.9s0,0,0,.1c0,0,0,0,0,0,0,0,0,0,0-.1,0,0,0,0,0,0Z"/><path d="M15,54.3s0,0,0,.1c0,0,0,0,0,0,0,0,0,0,0-.1,0,0,0,0,0,0Z"/><path d="M14.9,52.7s0,0,0,0c0,0,0,0,0,0,0,0,0,0,0,0,0,0,0,0,0,0Z"/><path d="M14.9,53.6s0,0,0,.1h0s0,0,0-.1c0,0,0,0,0,0Z"/><path d="M52.5,40.8c1.6.7,2.5.8,2.7.9-.2,0-1.1-.1-2.7-.9Z"/><path d="M12.8,41.1c0-.4.2-.7.3-1.1-.1.3-.3.7-.3,1.1Z"/><path d="M13.7,38.9c-.1.1-.2.3-.3.4.1-.2.2-.3.4-.5,0,0,0,0,0,0Z"/><path d="M19,36.5s0,0,0,0c0,0,0,0,0,0,0,0,0,0,0,0Z"/><path d="M64.2,66.3s0,0,0,0c0,0,0,0,0,0,0,0,0,0,0,0,0,0,0,0,0,0Z"/><path d="M19.6,65.4c0,0,.1.1.2.2,0,0,0,0,0,0,0,0-.1-.1-.2-.2,0,0,0,0,0,0Z"/><path d="M15,54.7s0,0,0,0c0,0,0,0,0,0,0,0,0,0,0,0,0,0,0,0,0,0Z"/><path d="M19.1,64.8c0,0,.1.1.2.2,0,0,0,0,0,0,0,0-.1-.1-.2-.2,0,0,0,0,0,0Z"/><path d="M18.7,64.3c0,0,0,.1.1.2,0,0,0,0,0,0,0,0,0-.1-.1-.2,0,0,0,0,0,0Z"/><path d="M63.8,65.8s0,0,0,0c0,0,0,0,0,0,0,0,0,0,0,0Z"/><path d="M63.4,65.4s0,0,0,0c0,0,0,0,0,0,0,0,0,0,0,0,0,0,0,0,0,0Z"/><path d="M55.2,41.6s0,0,0,0c0,0,0,0,0,0Z"/><path d="M62.3,63.8s0,0,0,0c0,0,0,0,0,0,0,0,0,0,0,0,0,0,0,0,0,0Z"/><path d="M63,64.9s0,0,0,0c0,0,0,0,0,0,0,0,0,0,0,0,0,0,0,0,0,0Z"/><path d="M61.9,63.2s0,0,0,0c0,0,0,0,0,0,0,0,0,0,0,0,0,0,0,0,0,0Z"/><path d="M15.8,58.4s0,0,0,0c0,0,0,0,0,0,0,0,0,0,0-.1,0,0,0,0,0,0Z"/><path d="M15.3,56.4s0,0,0,.1c0,0,0,0,0,0,0,0,0,0,0-.1,0,0,0,0,0,0Z"/><path d="M15.4,56.9s0,0,0,0c0,0,0,0,0,0,0,0,0,0,0,0,0,0,0,0,0,0Z"/><path d="M17.7,62.8s0,0,0,0c0,0,0,0,0,0,0,0,0,0,0,0,0,0,0,0,0,0Z"/><path d="M15.2,55.9s0,0,0,.1c0,0,0,0,0,0,0,0,0,0,0-.1,0,0,0,0,0,0Z"/><path d="M15.1,55.5s0,0,0,0c0,0,0,0,0,0,0,0,0,0,0,0,0,0,0,0,0,0Z"/><path d="M17,61.7c0,0,0,.1,0,.2,0,0,0,0,0,0,0,0,0-.1,0-.2,0,0,0,0,0,0Z"/><path d="M17.3,62.2c0,0,0,.1,0,.2,0,0,0,0,0,0,0,0,0-.1,0-.2,0,0,0,0,0,0Z"/><path d="M15.9,58.9s0,0,0,.1c0,0,0,0,0,0,0,0,0,0,0-.1,0,0,0,0,0,0Z"/><path d="M16.8,61.2s0,0,0,0h0s0,0,0,0c0,0,0,0,0,0Z"/><path d="M16.1,59.5s0,0,0,.1c0,0,0,0,0,0,0,0,0,0,0-.1,0,0,0,0,0,0Z"/><path d="M14.9,52.4s0,0,0,0c0,0,0,0,0,0,0,0,0,0,0,0,0,0,0,0,0,0,0,0,0,0,0,0,0,0,0,0,0,0Z"/><path d="M55.9,48.4c-1.4-.4-2.7.6-3,2.2-2.2,10.8-5.5,16.6-10.4,18.3-1.9.6-3.1.4-14.6.4s-2.5-.3-3.5-.6c-1.8-.7-3.2-1.6-4.4-2.7,0,0,0,0,0,0,.1.1.3.3.4.4.1.1.3.3.4.4.1.1.3.3.4.4.1.1.3.3.4.4.1.1.3.3.4.4.1.1.3.3.4.4.1.1.3.3.4.4.1.1.3.3.4.4.1.1.3.3.4.4.1.1.3.3.4.4.1.1.3.3.4.4.1.1.3.3.4.4.1.1.3.3.4.4.1.1.3.3.4.4,1.2,1.3,2.8,2.4,4.8,3.1,1,.4,2.2.6,3.5.6,11.4,0,12.6.3,14.6-.4,4.9-1.7,8.2-7.5,10.4-18.3,0,0,0,0,0-.1,0,0,0,0,0,0,0,0,0,0,0,0-.6-1.8-1.1-3.8-1.5-6-.3-1-.9-1.9-1.7-2.2Z"/><path d="M13.3,44.9s0,0,0,0c0,0,0,0,0,0,0,0,0,0,0,0Z"/><path d="M13,44c0,.2.1.5.2.7,0,0,0,0,0,0,0,0,0,0,0,0,0-.2-.2-.5-.2-.7Z"/><path d="M12.7,42.5c0,.2,0,.4,0,.6,0-.4,0-.9,0-1.3,0,.2,0,.4,0,.6Z"/><polygon points="93.2 36.8 93.2 36.9 93.2 36.9 93.2 36.8"/><path d="M102.3,44.4c-.1-.1-.3-.3-.4-.4-.1-.1-.3-.3-.4-.4-.1-.1-.3-.3-.4-.4-.1-.1-.3-.3-.4-.4-.1-.1-.3-.3-.4-.4-.1-.1-.3-.3-.4-.4-.1-.1-.3-.3-.4-.4-.1-.1-.3-.3-.4-.4-.1-.1-.3-.3-.4-.4-.1-.1-.3-.3-.4-.4-.1-.1-.3-.3-.4-.4-.1-.1-.3-.3-.4-.4-.1-.1-.3-.3-.4-.4-.1-.1-.3-.3-.4-.4,0,0,0,0,0,0,1.2,1.4,1.7,3.5.8,6.1,0,.3-1.9,3.4-1.7,7.7,0,.5-.1,12.6-9.6,16.2-1,.4-2.2.6-3.5.6-11.3-.1-12.6.3-14.6-.4-1.2-.5-2.4-1.2-3.4-2.2,0,0,0,0,0,0,.1.1.3.3.4.4.1.1.3.3.4.4.1.1.3.3.4.4.1.1.3.3.4.4.1.1.3.3.4.4.1.1.3.3.4.4.1.1.3.3.4.4.1.1.3.3.4.4.1.1.3.3.4.4.1.1.3.3.4.4.1.1.3.3.4.4.1.1.3.3.4.4.1.1.3.3.4.4.1.1.3.3.4.4,1.2,1.2,2.4,2.1,3.8,2.6,1.9.6,3.2.3,14.6.4,1.3,0,2.5-.3,3.5-.6,9.5-3.6,9.6-15.7,9.6-16.2-.3-4.3,1.7-7.4,1.7-7.7.9-2.9.3-5.2-1.2-6.5Z"/><path d="M82.6,69.3c1.3,0,2.5-.3,3.5-.6,9.5-3.6,9.6-15.7,9.6-16.2-.3-4.3,1.7-7.4,1.7-7.7.9-2.7.4-4.7-.8-6.1,0,0,0,0,0,0h0c-.1-.1-.2-.2-.3-.3,0,0,0,0,0,0,0,0,0,0,0,0-.1-.1-.3-.3-.5-.4,0,0,0,0,0,0-.2-.1-.4-.2-.6-.3,0,0,0,0,0,0,0,0,0,0,0,0,0,0-.2,0-.3-.1,0,0-.1,0-.2,0,0,0,0,0,0,0,0,0,0,0,0,0,0,0-1.3-.3-1.3-.3h0c-.8-.1-1.6-.3-2.4-.4-.1,0-1.8-.3-2.5-.4-.1,0-1.9-.2-2.6-.3-.1,0-.2,0-.3,0-.7,0-1.3-.1-2-.2,0,0-.2,0-.2,0-.5,0-1,0-1.5,0-.1,0-.3,0-.4,0-.3,0-.7,0-1,0-.2,0-1.1,0-1.4,0-.2,0-1.1,0-1.4,0-.2,0-.4,0-.6,0-.3,0-1.2,0-1.4,0-.3,0-.6,0-.8,0-.2,0-.3,0-.5,0-.3,0-.6,0-.9,0-.1,0-.3,0-.4,0-.4,0-.9,0-1.3.1-1,.1-2.1.3-3.1.6-1,.2-2.1.5-3.1.9-1,.4-2.1.8-3.1,1.2-1,.5-2.1,1-3.1,1.6,0,0,0,0,0,0-.2.1-.4.2-.6.3,0,0-.1,0-.1,0-.1,0-.3.1-.4.2,0,0,0,0-.1,0-.2,0-.4.2-.5.2,0,0-.1,0-.2,0-.1,0-.2,0-.3.1,0,0-.1,0-.2,0,0,0-.2,0-.2,0,0,0-.1,0-.2,0,0,0-.7.2-.7.2,0,0,0,0,0,0,0,0,0,0-.1,0,0,0,0,0,0,0,0,0,0,0,0,0,0,0,0,0,0,0,0,0,0,0,0,0,0,0,0,0,0,0,0,0,0,0,0,0,0,0,0,0,0,0-.2,0-1.1-.1-2.7-.9,0,0,0,0,0,0-.2,0-.3-.2-.5-.2,0,0,0,0,0,0-.2,0-.4-.2-.6-.3,0,0,0,0,0,0-1.6-.9-3.1-1.6-4.7-2.2-.5-.2-1.1-.4-1.6-.6-1.6-.5-3.1-.9-4.7-1.2-.5,0-1-.2-1.5-.2-.5,0-1-.1-1.5-.2-.1,0-.2,0-.4,0-.4,0-.8,0-1.3,0,0,0-.2,0-.2,0-.5,0-1.1,0-1.6,0-.6,0-1.1,0-1.7,0-.1,0-.3,0-.4,0-.6,0-1.2,0-1.7,0-.6,0-1.2,0-1.8,0-.1,0-.3,0-.4,0-.6,0-1.2,0-1.8.1,0,0-.1,0-.2,0-.5,0-1,0-1.6.1-.1,0-.2,0-.3,0-.4,0-.9,0-1.3.1-.1,0-.2,0-.4,0-.4,0-.9.1-1.4.2,0,0-.2,0-.3,0-.5,0-1.1.2-1.6.2,0,0,0,0,0,0-.6,0-1.1.2-1.7.3-.2,0-.3,0-.5.1-.1,0-.2,0-.4.1-.1,0-.3,0-.4.1-.2,0-.4.2-.6.3,0,0-.1,0-.2.1,0,0,0,0,0,0-.2.1-.3.2-.5.3,0,0,0,0-.1.1,0,0-.1,0-.2.1,0,0-.2.1-.2.2,0,0,0,0-.1.1-.1.1-.2.2-.3.4-.1.2-.2.3-.4.5,0,0,0,0,0,.1,0,.1-.1.2-.2.4,0,0,0,0,0,.1-.1.3-.3.7-.3,1.1,0,0,0,.1,0,.2,0,.1,0,.3,0,.4,0,0,0,.1,0,.2,0,.4,0,.8,0,1.3,0,0,0,.1,0,.2,0,.2,0,.3.1.5,0,0,0,.1,0,.2,0,.2.1.5.2.7,0,0,0,0,0,0,0,0,0,0,0,0,0,0,0,0,0,0,0,0,0,0,0,0,0,0,0,0,0,0,0,0,0,0,0,.1,0,0,0,.1,0,.2,0,0,0,.2.1.3,0,0,0,0,0,0,0,0,0,.2.1.2,0,0,0,0,0,0,0,.1.1.3.2.4,0,0,0,0,0,0,0,.1.1.3.2.5,0,0,0,0,0,.1,0,.2.1.3.2.5,0,0,0,.1,0,.2,0,.2.1.4.2.7,0,0,0,0,0,.1,0,.2.1.5.1.7,0,0,0,0,0,.1,0,.3,0,.6.1.9,0,.2,0,.4,0,.6,0,0,0,.2,0,.3,0,.2,0,.3,0,.5,0,0,0,.2,0,.2,0,.2,0,.5,0,.7,0,0,0,0,0,0,0,0,0,0,0,0,0,0,0,0,0,0,0,0,0,0,0,0,0,0,0,0,0,0,0,0,0,0,0,0,0,0,0,0,0,.1,0,0,0,0,0,.1,0,0,0,.2,0,.3,0,0,0,0,0,0,0,0,0,.2,0,.3,0,0,0,0,0,.1,0,0,0,.1,0,.2,0,0,0,0,0,.1,0,0,0,.2,0,.2,0,0,0,0,0,.1,0,0,0,.2,0,.3,0,0,0,0,0,0,0,.2,0,.5.1.8,0,0,0,0,0,0,0,.1,0,.2,0,.4,0,0,0,0,0,.1,0,.1,0,.2,0,.4,0,0,0,0,0,.1,0,.1,0,.3,0,.4,0,0,0,0,0,0,0,.2.1.5.2.7,0,0,0,0,0,0,0,.2.1.5.2.7,0,0,0,0,0,.1,0,.1,0,.3.1.4,0,0,0,0,0,.1,0,.1,0,.3.1.4,0,0,0,0,0,.1,0,.2.2.5.3.7,0,0,0,0,0,0,.1.2.2.5.3.8,0,0,0,0,0,0,0,.1.1.3.2.4,0,0,0,.1,0,.2,0,.1.1.3.2.4,0,0,0,.1,0,.2,0,.1.2.3.2.4,0,0,0,0,0,0,.1.2.3.5.4.7,0,0,0,0,0,0,.2.2.3.5.5.7,0,0,0,.1.1.2,0,.1.2.2.3.4,0,0,.1.1.2.2.1.1.2.2.3.3,0,0,.1.1.2.2.1.1.2.2.3.3,1.2,1.1,2.6,2.1,4.4,2.7,1,.4,2.2.6,3.5.6,11.4,0,12.6.3,14.6-.4,4.9-1.7,8.2-7.5,10.4-18.3.3-1.6,1.6-2.6,3-2.2.8.3,1.4,1.2,1.7,2.2.5,2.2,1,4.2,1.5,6,.4,1.3.8,2.5,1.3,3.6,0,0,0,0,0,0,.1.3.2.5.3.8,0,0,0,0,0,0,.4.8.7,1.5,1.1,2.2,0,0,0,0,0,0,.1.2.2.4.3.6,0,0,0,0,0,0,.1.2.2.3.3.5,0,0,0,0,0,0,.1.2.2.3.3.5,0,0,0,0,0,0,.1.1.2.3.3.4,0,0,0,0,0,0,.1.1.2.3.3.4,0,0,0,0,0,0,0,0,0,0,0,0,.1.1.2.3.4.4,0,0,0,0,0,0,.1.1.3.3.4.4,1,1,2.2,1.7,3.4,2.2,1.9.6,3.2.3,14.6.4ZM59.6,50.4c-.5-2.7-3.1-4.5-5.6-3.6-1.4.5-2.6,1.8-2.9,3.6-2.1,10-4.9,15.3-9.2,16.9-1.6.5-2.7.3-13.9.3s-1.9-.1-2.7-.5c-8.2-3.1-8.3-14.3-8.3-14.4,0,0,0,0,0-.1.2-4.5-1.6-7.7-1.8-8.3-1-3.1.4-4.9,2.7-5.3,7.8-1.4,14.8-1.7,20.9-.9,3.9.5,7.8,1.8,11.8,4,3,1.7,4.7,1.7,4.8,1.7.3,0,1.8,0,4.9-1.7,4-2.2,7.9-3.5,11.8-4,6.1-.8,13.3-.5,20.9,1,2.2.4,3.6,2.2,2.7,5.3,0,0-2.1,19.6-10.4,22.7-.8.3-1.7.5-2.7.5-11.4,0-12.3.3-13.9-.3-4.2-1.4-7.1-7-9.2-16.9Z"/><path d="M38.5,40.8h-9.1c-5.5.1-10,4.5-10,10v2.9c0,6.5,5.2,11.7,11.7,11.7h5.5c6.2,0,11.3-5.1,11.3-11.3v-3.9c0-5.2-4.2-9.4-9.4-9.4ZM41,55.3c-.3,0-.5,0-.6-.3l-6.6-7.1c-.4-.4-.4-1,0-1.4s1-.4,1.4,0l6.6,7.1c.5.6.1,1.7-.8,1.7ZM42.9,49.7c-.4.4-1,.4-1.4,0l-3.6-3.8c-.4-.4-.4-1,0-1.4s1-.4,1.4,0l3.5,3.8c.4.4.4,1,0,1.4h.1Z"/><path d="M79.8,65.4c6.2,0,11.3-5.1,11.3-11.3v-3.9c0-5.2-4.2-9.4-9.4-9.4h-9.1c-5.5.1-10,4.5-10,10v2.9c0,6.5,5.2,11.7,11.7,11.7h5.5ZM81,44.5c.4-.4,1-.4,1.4,0l3.6,3.8c.4.4.4,1,0,1.4-.4.4-1,.4-1.4,0l-3.6-3.8c-.4-.4-.4-1,0-1.4ZM76.9,46.4c.4-.4,1-.4,1.4,0l6.6,7.1c.4.4.4,1,0,1.4s-1,.4-1.4,0l-6.6-7.1c-.4-.4-.4-1,0-1.4Z"/><path d="M21.9,41.7c0-.8-1.3-1.4-2.9-1.4s-2.9.6-2.9,1.4,1.3,1.4,2.9,1.4,2.9-.6,2.9-1.4Z"/><path d="M91.1,43.2c1.6,0,2.9-.6,2.9-1.4s-1.3-1.4-2.9-1.4-2.9.6-2.9,1.4,1.3,1.4,2.9,1.4Z"/></svg>