<?xml version="1.0" encoding="UTF-8"?><svg id="a" xmlns="http://www.w3.org/2000/svg" viewBox="0 0 115 115"><defs><style>.b{fill:#060606;}.c{fill:#0c0c0c;}</style></defs><path d="M58.8,71.3c1.6-1.5,4.3-1.7,4.7-4.5,0-.6,1.4-1.2,2.3-1.4,2-.5,4-.8,6.3-1.2,1.1,3.3-.6,6.2-2.1,8.7-1.4,2.4-3.8,4.4-7.1,4.3-.9.9-1.9,1.9-3.1,3.1-1.3-.2-2.8-.5-4.3-.8-1.8.3-3.6.6-5.6.9-.7-1-1.3-1.9-2.2-3.2-3.3.5-5.8-1.8-8.1-4.4-.4-1.4-.8-2.9-1.3-4.4-.4-1.3-.8-2.6-1.3-4.1,3.9-.9,6.7,1.7,9.5,1.9,1.5,1.8,2.9,3.4,4.1,4.9h8.1Z"/><path class="b" d="M71.6,99c-25.2-.4-17,3.1-35.5-15.2-3.6-3.6-7.4-7.2-9.4-12.1-.6-1.5-1.5-2-2.9-2.2-7.9-1.1-8.1-13.6-.8-15.6,2.3-.8,2.8-1.4,1.6-3.6-5-13.3,12-31.2,24.2-34,24.3-3.8,36.2,21.8,46.3,39.3,4.2,10.2,1,22.2,1.8,33,.8,14.4-15.8,9.7-25.2,10.4ZM56.4,84.3c7.8.4,13.5-4.3,17.9-11.7,11-17.4-10.5-32.9-26.7-27-24.6,5.2-14.8,39.7,8.8,38.7ZM63.4,30.4c.1-15.9-6.1-3.4-12.2-6.5-6-3.5-8.5-2.1-8.6,4.7.2,3.3-1.1,8.4,3.1,9.6,5.2,1.9,6.2-9.3,10.2-1.6.9,1.6,2.5,2.1,4.3,1.7,3.8-.7,3.1-5,3.1-7.9ZM80.2,53.2c1.9,5.6,2.4,10.8.1,16.3,10.5-.7,11-14.7-.1-16.3Z"/><path class="c" d="M68.6,58.2c-.3,2.7-1.6,4.2-4.1,4.1-2.6,0-4-1.6-4-4.1,0-2.5,1.6-4,4.1-4,2.6,0,3.8,1.7,4,3.9Z"/><path class="b" d="M45.7,62.5c-2.9-.2-4.4-1.5-4.4-4.1,0-2.6,1.5-4,4-4,2.5,0,4,1.5,4,4,0,2.6-1.6,3.7-3.6,4.1Z"/></svg>