<?xml version="1.0" encoding="UTF-8"?><svg id="a" xmlns="http://www.w3.org/2000/svg" width="400" height="400" viewBox="0 0 400 400"><path d="M357.746,121.57v-.115h-.125l-78.083-71.754-.369-.13H63.498c-4.402,0-7.97,3.536-7.97,7.899v228.719l1.561,1.272,78.305,71.959,1.26-1.347h213.122c4.402,0,7.97-3.536,7.97-7.899V121.765l.098-.105-.098-.09ZM173.393,79.523h67.585c4.402,0,7.97,3.536,7.97,7.899v34.034h-75.555v-41.932ZM79.705,136.431h78.577v44.927h-78.577v-44.927ZM158.282,250.247h-70.607c-4.402,0-7.97-3.536-7.97-7.899v-43.019h78.577v50.918ZM158.282,121.455h-78.577v-34.034c0-4.362,4.665-7.899,9.067-7.899h69.51v41.932ZM248.947,242.348c0,4.362-3.568,7.899-7.97,7.899h-67.585v-50.918h75.555v43.019ZM248.947,181.358h-75.555v-44.927h75.555v44.927Z"/></svg>