<?xml version="1.0" encoding="UTF-8"?><svg id="a" xmlns="http://www.w3.org/2000/svg" width="400" height="400" viewBox="0 0 400 400"><path d="M251.995,149.47v-66.428c0-.818-.663-1.48-1.48-1.48H72.386c-.818,0-1.48.663-1.48,1.48v36.247c-8.334,0-15.091,6.756-15.091,15.091v126.791c0,.817.663,1.48,1.48,1.48h208.31c.817,0,1.48-.663,1.48-1.48v-96.61c0-8.334-6.756-15.091-15.091-15.091ZM236.904,149.47h-72.36l-30.1-30.182h-48.446v-22.636h150.907v52.817Z" fill="none"/><polygon points="85.998 119.288 134.444 119.288 164.544 149.47 236.904 149.47 236.904 96.652 85.998 96.652 85.998 119.288"/><path d="M367.032,322.183c0-25.34,0-72.919,0-81.788.512-6.917-4.32-14.379-9.793-18.349l-.977-.97c-3.919-4.902-8.16-6.278-7.428-13.147-.098-13.075.1-40.675-.028-50.431-.166-4.125-1.548-8.654-4.276-12.033-12.479-12.773-24.445-24.391-36.565-36.73-13.083-12.837-25.643-25.837-39.01-38.845-2.096-2.029-6.415-3.471-9.393-4.009-.238-.132-.455-.309-.746-.309H58.529c-.918,0-1.663.745-1.663,1.664v15.798c-1.01,7.848.897,16.53-.841,25.042-8.246.411-14.882,6.67-15.91,14.74-.578,1.385-1.045,2.74-1.259,3.875-1.363,32.361.074,124.5-.427,138.23.064,3.72,1.648,8.745,4.3,11.972,12.479,12.773,24.444,24.391,36.565,36.73,13.082,12.837,25.643,25.836,39.01,38.845,2.488,2.473,8.563,4.134,11.12,4.276,23.538.024,50.668.032,78.609.033,4.257,0,8.538,0,12.825,0,28.115,0,56.648-.007,82.836-.008h11.708c8.343,0,16.382.001,24.017.003,1.699.101,3.279.122,4.777.086,21.894-.089,23.885-13.875,22.836-34.674ZM267.085,261.17c0,.817-.663,1.48-1.48,1.48H57.295c-.817,0-1.48-.663-1.48-1.48v-126.791c0-8.334,6.756-15.091,15.091-15.091v-36.247c0-.818.663-1.48,1.48-1.48h178.129c.817,0,1.48.663,1.48,1.48v66.428c8.334,0,15.091,6.756,15.091,15.091v96.61Z"/></svg>