<?xml version="1.0" encoding="UTF-8"?><svg id="a" xmlns="http://www.w3.org/2000/svg" width="400" height="400" viewBox="0 0 400 400"><path d="M64.341,59.091l243.681.523c1.577.329,2.68,1.326,3.94,2.211,4.356,3.058,28.135,31.26,31.205,36.449,2.265,3.827,3.658,7.268,4.281,11.71l.188,201.649c-1.278,14.947-12.759,26.31-27.677,27.677-55.41,5.076-118.51-3.912-174.731-.044-10.829-1.169-17.013-7.984-23.947-15.416-18.945-20.307-46.653-52.713-62.731-75.038-2.282-3.168-5.159-6.023-5.896-10.095l-.288-165.77c.251-6.457,5.733-12.721,11.976-13.856ZM288.539,88.322H81.886v132.849h44.283c-.264-7.793,5.43-13.51,13.022-14.656,28.727,1.522,60.104-2.384,88.511-.155,9.666.758,16.213,4.313,16.555,14.812h44.283V88.322Z"/><path d="M129.587,113.276c51.969-6.121,56.295,70.442,8.246,73.431-49.133,3.056-53.645-68.084-8.246-73.431ZM131.97,142.696c-8.146,2.424-5.351,17.525,5.618,14.26,8.146-2.424,5.351-17.525-5.618-14.26Z"/><path d="M225.533,113.276c51.969-6.121,56.295,70.442,8.246,73.431-49.133,3.056-53.645-68.084-8.246-73.431ZM227.916,142.696c-8.146,2.424-5.351,17.525,5.618,14.26,8.146-2.424,5.351-17.525-5.618-14.26Z"/></svg>