<?xml version="1.0" encoding="UTF-8"?><svg id="a" xmlns="http://www.w3.org/2000/svg" viewBox="0 0 115 115"><defs><style>.b{fill:#060606;}</style></defs><path class="b" d="M98.6,54c0-3-.9-5.4-2.9-7.5-2.2-2.3-4.4-4.6-6.5-6.9-3.7-4-7.5-8.1-11.4-12-7.2-7.2-16-11-24.8-11s-4.5.2-6.7.8c-11,2.5-19.7,10.9-24,22.9l-.2.4-.4.2c-2.3.9-4,2.7-4.8,5.3-1.1,3.3-.5,7.1,1.5,10.2,4.8,7.6,9.9,15.2,14.7,22.6,3.3,5,6.6,10,9.9,15.1,1.9,2.9,4.6,4.2,8.4,4.2h0c7.4,0,14.8,0,22.3,0,5.3,0,10.5,0,15.8,0,6,0,9-2.9,9-8.8,0-6.6,0-13.3,0-19.9,0-5.2,0-10.4,0-15.6ZM46.7,24.2c10.3-2.3,18.5,0,26.4,7.6l2,1.9-2.8-.2c-1.4-.1-2.7-.2-4-.3-8-.5-15.5-.9-22-7.4l-1.3-1.3,1.8-.4ZM78,59c-6,2.5-11.4,3.6-17.5,3.6h-.5c-1.8,0-3.8,0-4.7.9-.5.5-.7,1.3-.7,2.4,0,2.7,1.6,3,5.1,3.1h.6c1,0,2.1,0,3.4,0h5.4s-2.7,1.8-2.7,1.8c-4.1,2.8-8.7,4.1-13.4,4.1-7.9,0-15.8-3.8-20.8-10.8-8.5-11.8-5.8-27.3,6.3-36.1l.8-.6.6.8c8.5,11,20.6,11.1,33.4,11.3h.6c.5,0,1.1,0,1.6,0,2.3,0,4.8-.2,6.4,1.3.9.8,1.3,2,1.3,3.5,0,.9.2,1.9.4,3,.6,3.8,1.4,8.6-5.8,11.5Z"/><path class="b" d="M37.9,49.2c0,1.9,1.2,3.1,3.1,3.1h0c1.9,0,3-1.1,3-3.1,0-1.2-.3-2.8-3.1-3-1.4.1-3.1.8-3,3.1Z"/><path class="b" d="M69.1,49c-.2-2-1.2-2.9-3-2.9s-.1,0-.2,0c-2,0-3.1,1.2-3,3.1,0,1.9,1.3,3.1,3.2,3,2.3,0,2.9-1.8,3-3.2Z"/></svg>