<?xml version="1.0" encoding="UTF-8"?><svg id="a" xmlns="http://www.w3.org/2000/svg" viewBox="0 0 115 115"><path d="M100,92c1.4-10.1,1.1-38.3.1-48.4-.3-3.6-1.3-5.8-3.3-8.1-3.3-3.7-17.8-16.9-21.7-19.7l-.4-.3c-1.1-.8-1.8-1.3-3.4-1.5-3.9-.6-21.8-.6-25.3.1-2.9.6-6.7,5-10,8.9-2.8,3.2-5.4,6.3-7.5,7.2-2.3,1-5.2.8-8.3.6-3.8-.3-7.7-.6-10.2,1.7v28.3c4.6,4.2,8.9,9,12.9,13.7,2.8,3.2,5.7,6.4,8.7,9.5,1,1,2,2.1,3.1,3.3,5.1,5.5,11.4,12.3,17.9,12.9,8,.7,32.6,1.1,40.3-.3,4.2-.8,6.5-3.3,7.2-7.8ZM67.4,38.7h-16.8v-4.2c-1.8-.8-4.2.2-6,1.2-4.9,2.8-9.9,8.7-9.9,10.8s5,8,9.9,10.8c1.8,1,4.3,2,6,1.2v-4.2s16.8,0,16.8,0v17.8h-16.7l-.9-4.6c-1.4-.5-2.8-.4-4.4-.3-1.8.1-3.6.2-5.3-.6-1.5-.7-3.5-3.1-5.6-5.6-2-2.3-4-4.7-5.3-5.3-1.8-.8-4.4-.7-6.9-.5-1.7.1-3.4.2-4.8,0h-.4v-17.8h.4c1.4-.2,3.1-.1,4.8,0,2.5.2,5.1.3,6.9-.5,1.3-.6,3.3-3,5.3-5.3,2.1-2.5,4.1-4.9,5.6-5.6,1.8-.8,3.7-.7,5.5-.6,1.4,0,2.6.2,3.8,0,1.1-.4,1.2-1.6,1.2-2.9,0-.4,0-.6.2-.8v-.2c.1,0,.4,0,.4,0h16.3v16.8Z"/></svg>