<?xml version="1.0" encoding="UTF-8"?><svg id="a" xmlns="http://www.w3.org/2000/svg" viewBox="0 0 400 400"><defs><style>.b{stroke:#000;stroke-miterlimit:10;}</style></defs><path class="b" d="M342.3,112c-2.8-4.5-7-7.7-10.2-11.1-7.5-7.5-14.7-14.7-22.1-22.1-5.4-5.3-11.3-11.9-17.7-16-3.2-2.1-5.9-1.6-9.1-1.7-35.3,0-139.9,0-193.2,0-10.1,0-18,0-22.6,0-1.6,0-2.9,0-4.4.1-2.8.3-7.2,4.5-7.7,8.3-.7,19.3,0,67.5-.2,86.1.1,7.4,6.9,12.7,11.5,18.1,2.5,2.9,3.5,5.5,3.5,9.7.3,13.4,0,46.4,0,60.8-.4,6.5,2.7,10.9,7.4,16,4.5,4.8,9.2,9.3,13.9,14,5.8,5.8,11.7,11.7,17.5,17.5,17,17,33.3,33.3,50.2,50.2,4.5,4.5,9.6,9.5,16.3,9.1,20.1,0,78.3,0,96.3,0,3.2,0,6.3,0,9.1-1.7,1.8-1,3.8-2.7,6.3-5.1,4.9-5,12.5-12.4,18.1-18.1,4.8-4.8,9.6-9.7,14.3-14.3,3.8-3.8,9-8.5,9.8-13,1-5,.3-10.9.5-17,0-9.3,0-18.9,0-28.3,0-10.7,0-24.5,0-33.5,0-2.8,1.1-4.1,3.3-4.8,4.3-1.4,11.1-3.5,11.6-8.9.7-18.2,0-66.1.2-83.7,0-3.8-.4-7.2-2.6-10.3h0ZM257.2,121.8c-2,4.7-7.6,5.6-12.4,6.1-4.3.4-7.7.2-7.3,5.6,0,6.8,0,12.7,0,21.4,0,16.8,0,34.8,0,51.6.5,17.7-.6,16.1-12.8,28.6-5.2,5.2-11.9,11.9-16.7,16.7-3.6,3.6-4.4,4.5-8.5,5.1-11.5,1.3-25.6.9-37.7.9-6.5,0-12.8-.1-19.1-.2-5.3,0-6.9.3-11.1-2.9-9.7-7.8-19.5-18.6-28-27.4-3.8-4-5.5-7.4-5.2-12.6,0-13.1,0-63.2,0-81.9.3-4.3-2.5-4.5-6.1-4.8-3.1-.2-7.5-.7-10.2-2.3-5.7-3.6-4.2-11.7-4.5-17.5,0-6.3-.4-11.5,1.6-15.7,2.2-5.2,8.3-5.3,13.3-5.2,10.3,0,30.4,0,40.1,0,2.7,0,5.6,0,8,.9,7.4,3.5,5.8,11.3,6.1,19.6,0,4.9.1,9.7-.9,13-2.7,8-6.5,6.3-5.8,16.7,0,18,0,60.5,0,71.7,0,1.2,0,2.5.7,3.3.5.5,1.3.6,2.6.7,1.8.1,4.8,0,8.5,0,10.1,0,26.8,0,36.8,0,3.2-.2,8.3.8,8-2.7.2-20.5,0-62.6,0-77.2.1-3.2-1.6-5.1-3.7-7.3-3.4-3.5-3.9-8.3-3.8-13.8,0-3.9,0-8.2,0-12,.3-11.4,5.6-13.4,15.4-12.9,11.2,0,25.1,0,36.5,0,7.8-.1,14.3-.4,16.3,7.4,1.1,3.8.7,9.6.8,15.2,0,3.9.2,8.2-1.1,11.8h0Z"/></svg>