<?xml version="1.0" encoding="UTF-8"?><svg id="a" xmlns="http://www.w3.org/2000/svg" viewBox="0 0 400 400"><path d="M355.6,163.2l-77.9-117.8c-1.6-2.5-4.3-4-7.3-4.1l-39.5-1.7c-1.9,0-3.7.4-5.3,1.4l-35.2,22.3c-2.2,1.4-3.6,3.6-4.1,6.1l-.6,3.4c-.4,2.4-1.8,4.5-3.8,5.9l-3.3,2.3c-3.7,2.6-8.8,2.1-11.9-1.2l-5.7-6.1c-1.9-2-4.6-3-7.3-2.9l-22.4,1.5c-1.5.1-2.9.6-4.2,1.4l-80,49.7c-4.4,2.8-5.7,8.6-2.7,12.9l20.1,29.5c2.6,3.8,2,8.9-1.5,12-1.9,1.7-3,4.1-3.1,6.6l-1.7,74.6c0,2.1.6,4.2,1.9,5.9l34.6,44.1c.2.3.4.6.6.9l27.1,44.3c1.6,2.6,4.4,4.3,7.5,4.4l57.1,1.8c.7,0,1.3,0,2-.2l122.9-23.2c2-.4,3.9-1.5,5.3-3l37.7-44c1.4-1.7,2.2-3.8,2.2-6v-115.9c0-1.8-.5-3.6-1.5-5.1ZM113.1,241.9c0,2.2-1.9,4-4.1,4h-21.3c-2.3,0-4.1-1.8-4.1-4v-36c0-2.2,1.9-4,4.1-4h21.3c2.3,0,4.1,1.8,4.1,4v36ZM166.6,241.9c0,2.2-1.9,4-4.1,4h-21.3c-2.3,0-4.1-1.8-4.1-4v-56.4c0-2.2,1.9-4,4.1-4h21.3c2.3,0,4.1,1.8,4.1,4v56.4ZM220,241.9c0,2.2-1.9,4-4.1,4h-21.3c-2.3,0-4.1-1.8-4.1-4v-76.8c0-2.2,1.9-4,4.1-4h21.3c2.3,0,4.1,1.8,4.1,4v76.8ZM240.8,110c-2-1.8-4.9-2-7.1-.5l-63.9,43.5c-2.4,1.6-5.7,1.2-7.6-1l-20.2-23.5c-1.8-2.1-4.9-2.6-7.3-1.2l-37.5,22.4c-2.4,1.4-5.5.9-7.3-1.1l-10-11.5c-2.3-2.6-1.6-6.6,1.5-8.3l59.2-33.9c2.4-1.4,5.5-.9,7.3,1.2l19.4,22.8c1.9,2.2,5.3,2.7,7.7,1l37.7-26.5c2.8-2,3.2-5.9.7-8.3-3.3-3.3-1.2-8.9,3.6-9.3l32.6-2.8c3.6-.3,6.5,2.6,6.1,6.1l-3.4,29.2c-.5,4.5-6.1,6.5-9.5,3.4l-1.9-1.7ZM273.4,241.9c0,2.2-1.9,4-4.1,4h-21.3c-2.3,0-4.1-1.8-4.1-4v-97.1c0-2.2,1.9-4,4.1-4h21.3c2.3,0,4.1,1.8,4.1,4v97.1Z"/></svg>