<?xml version="1.0" encoding="UTF-8"?><svg id="a" xmlns="http://www.w3.org/2000/svg" viewBox="0 0 115 115"><defs><style>.b{fill:#060606;}</style></defs><path class="b" d="M16.7,46.9c-2.1,11.6,1.4,23,9.9,32.2,2.2,2.4,4.5,4.7,6.6,7,2.7,2.8,5.5,5.7,8.1,8.6,2.5,2.8,5.4,4.1,9.3,4.1,7,0,14,0,20.9,0,5.7,0,11.4,0,17.2,0,7.3,0,10-2.8,10-10.3,0-4.4,0-8.8,0-13.2,0-1.9,0-3.9,0-5.8v-5.5c0-4.5,0-9,0-13.5,0-3.6-.8-6-2.8-7.8-2-1.9-4-3.8-6-5.7-4.4-4.3-9-8.7-13.9-12.5-7.1-5.6-14.6-8.4-22.4-8.4s-11.8,1.6-17.9,4.7c-10,5.1-17.2,14.9-19.2,26.1ZM53.7,23.8c8,0,15.4,3.2,20.9,8.9,5.5,5.6,8.5,13.2,8.4,21.2-.2,16.1-13.5,29.2-29.7,29.2h0c-8,0-15.4-3.1-20.9-8.7-5.6-5.6-8.6-13.1-8.5-21.2,0-8,3.1-15.4,8.7-20.9,5.6-5.5,13.2-8.5,21.3-8.4Z"/><path class="b" d="M46,71.3c1.1.5,2.3.9,3.4,1.7h.2c0,.1,0,.4,0,.4.2,2.9,1.4,4.3,3.8,4.5,2.5-.3,3.7-1.8,3.9-5.1v-.4s.4,0,.4,0c4.2-.6,6.6-2.9,7.4-7,.9-4.8-1.5-8.8-6.2-10.3-1.7-.6-3.6-.9-5.4-1.3-.9-.2-1.9-.4-2.8-.6-.8-.2-1.4-.6-1.7-1.1-.3-.6-.3-1.3.1-2.2v-.2c0,0,.2,0,.2,0,2.8-1.4,5.5-.7,8.1,0,2.2.6,4.2,1.1,6.2.4,1.7-1.6,2.1-3.2,1.1-5.1-1.2-1.4-2.7-1.8-4.3-2.2-1-.2-2-.5-2.9-1h-.2c0-.1,0-.3,0-.3-.5-2.5-1.4-4.1-3.8-4.2-2.7-.1-3.4,1.7-4.1,4.4v.3c0,0-.4,0-.4,0-3.3.5-5.9,2.6-7,5.8-1.2,3.3-.5,7.2,1.8,9.7,2.3,2.5,5.3,3,8.6,3.6h.1c.3,0,.6.1.9.2,1.7.2,3.4.5,4.7,2l.3.4-.4.3c-3.6,2.9-5.5,3-10.1.5-2.1-1.1-3.3-1.5-4.2-1.1-.9.4-1.6,1.6-2.4,4,.7,2.3,2.6,3.1,4.7,4Z"/></svg>