<?xml version="1.0" encoding="UTF-8"?><svg id="a" xmlns="http://www.w3.org/2000/svg" viewBox="0 0 115 115"><path d="M25.4,79.9c2.7,2.9,5.2,6.1,7.6,9.1,1,1.2,2,2.5,3,3.7,2.5,3,5.5,4.5,9.3,4.5h6.8c11,0,22.5.1,33.7,0,2.5,0,10.6-.8,10.8-8.8,0-2.9.2-5.8.4-8.7.8-17.6,1.6-34.2-9.1-49.5-5.6-7.9-8.9-9.9-17.8-6.1l-1.2.5-.9-.8c-9.1-7.9-12.8-8-22.4-.9-1.5,1.1-2.9,1.6-5.1.6-2.1-1-4.1-1.5-5.9-1.5-3.3,0-6,1.7-8.1,5.1-3.2,5.1-2,10,3.5,14.7l1.9,1.7-2.1,1.5c-.6.4-1.1.8-1.6,1.1-1,.7-1.9,1.3-2.7,1.9-3.3,2.6-6.4,5.6-7.7,9.9-.6,2.1.4,3.2,2.5,5.2.4.4.8.8,1.2,1.3,1.2,1.3.9,3.4.6,5.1-.8,3.9.2,7.1,3.3,10.4ZM76.9,26.4h0c1.9,0,5.2.8,6.1,5.6v.4c0,0,0,.4,0,.4-.9,5-4.2,5.7-6.1,5.7h0c-3.6,0-6-2.3-6-6,0-3.7,2.3-6.1,6-6.1ZM55.6,22.3c5.7-.3,9.4,3.1,9.6,8.7.2,5.3-2.9,8.8-8.6,9.6h-.2s-.2,0-.2,0c-5.8-.4-9.2-3.7-9.2-9.2,0-5.4,3.2-8.9,8.6-9.1ZM29.2,32.7c-.2-3.6,2.1-6.1,5.7-6.3h0c3.4-.2,5.8,1.9,6.4,5.5v.2s0,.2,0,.2c-.2,3.7-2.4,6-5.8,6.1-.1,0-.2,0-.4,0-3.4,0-5.7-2.2-5.9-5.7ZM26.9,69.6c1.4-13.6,14.2-24.3,29.1-24.4h.2c14.6,0,26.8,10.5,28.5,24.4l.3,2.2H26.7l.2-2.2Z"/></svg>