<?xml version="1.0" encoding="UTF-8"?><svg id="a" xmlns="http://www.w3.org/2000/svg" viewBox="0 0 115 115"><polygon points="31.5 45.6 31.5 46.8 27 51.3 15.1 51.3 15.1 51.7 15.5 51.7 15.5 52.2 16 52.2 16 52.6 16.4 52.6 16.4 53.1 16.9 53.1 16.9 53.5 17.3 53.5 17.3 54 17.8 54 17.8 54.5 18.2 54.5 18.2 54.9 18.7 54.9 18.7 55.4 19.1 55.4 19.1 55.8 19.6 55.8 19.6 56.3 20 56.3 20 56.7 20.5 56.7 20.5 57.2 21 57.2 21 57.6 21.4 57.6 21.4 58.1 33.8 58.1 37.2 54.8 37.2 45.6 31.5 45.6"/><polygon points="46.6 67.5 48.5 69.4 48.5 69.4 46.6 67.5"/><polygon points="37.2 27.6 37.2 27.6 50.1 14.6 37.2 27.6"/><polygon points="32.7 40 32.5 39.8 32.4 39.7 32 39.3 32 39.3 31.6 38.9 31.5 38.8 31.5 40 32.7 40"/><polygon points="31.3 38.6 31.1 38.4 30.7 38 30.2 37.5 29.8 37.1 29.3 36.6 28.9 36.2 28.4 35.7 28 35.3 27.5 34.8 27 34.4 14.6 34.4 14.6 34.4 27 34.4 31.3 38.6"/><polygon points="99.9 33.9 99.5 33.4 99 33 98.6 32.5 98.1 32.1 97.7 31.6 97.2 31.2 96.8 30.7 96.3 30.3 95.9 29.8 95.4 29.4 95 28.9 94.5 28.5 94 28 93.6 27.6 87.4 21.4 93.6 27.6 93.6 58.1 82.3 69.4 82.3 93.6 76 93.6 65.4 88.3 54.8 93.6 48.9 93.6 48.9 94 49.4 94 49.4 94.5 49.8 94.5 49.8 95 50.3 95 50.3 95.4 50.7 95.4 50.7 95.9 51.2 95.9 51.2 96.3 51.6 96.3 51.6 96.8 52.1 96.8 52.1 97.2 52.5 97.2 52.5 97.7 53 97.7 53 98.1 53.4 98.1 53.4 98.6 53.9 98.6 53.9 99 54.4 99 54.4 99.5 54.8 99.5 54.8 99.9 55.3 99.9 55.3 100.4 61.6 100.4 72.2 95.1 82.8 100.4 89.1 100.4 89.1 76.2 100.4 64.9 100.4 34.4 99.9 33.9"/><polygon points="31.5 38.8 31.3 38.6 31.5 38.8 31.5 38.8"/><rect x="48.5" y="93.6" width=".5" height="0"/><polygon points="43.5 64.4 43.1 64 42.6 63.5 42.2 63.1 41.7 62.6 41.3 62.2 40.8 61.7 40.3 61.3 39.9 60.8 39.4 60.3 39 59.9 38.5 59.4 38.1 59 37.6 58.5 37.2 58.1 37.2 58.1 46.6 67.5 44 64.9 43.5 64.4"/><path d="M65.4,88.3l10.6,5.3h6.3v-24.2l11.3-11.3v-30.5l-6.1-6.1-.5-.5-.5-.5-.5-.5-.5-.5-.5-.5-.5-.5-.5-.5-.5-.5-.5-.5-.5-.5-.5-.5-.5-.5-.5-.5-.5-.5-.5-.5h-30.5l-12.9,12.9v9.6h16.9v-1.7l4-4h14.6l4,4v14.6l-4,4h-14.6l-4-4v-4.5h8.5v2.8h5.6v-11.3h-5.6v2.8h-31v-1.2l-.2-.2-4.3-4.3h-12.4v16.9h12.4l4.5-4.5v-1.2h5.6v12.4l.5.5.5.5.5.5.5.5.5.5.5.5.5.5.5.5.5.5.5.5.5.5.5.5.5.5.5.5.5.5,2.6,2.6,1.9,1.9h0v24.2h.5s5.9,0,5.9,0l10.6-5.3ZM68.2,71h8.5v16.6h0s-8.5-4.2-8.5-4.2v-12.4ZM54.1,71h8.5v12.4l-8.5,4.2v-16.6Z"/></svg>