<?xml version="1.0" encoding="UTF-8"?><svg id="a" xmlns="http://www.w3.org/2000/svg" viewBox="0 0 115 112"><path d="M54.9,40.1c0-2.2-1.7-4-3.8-4h-14.9c-2.1,0-3.8,1.8-3.8,4v17.3c0,2.2,1.7,4,3.8,4h14.9c2.1,0,3.8-1.8,3.8-4v-.7l8.8,4.4v-24.9l-8.8,4.4v-.6Z"/><path d="M88.4,36.8c0-.8-.5-1.5-1.2-1.9-.2-.3-.5-.6-.8-.8-.2-.3-.5-.6-.8-.8-.2-.3-.5-.6-.8-.8-.2-.3-.5-.6-.8-.8-.2-.3-.5-.6-.8-.8-.2-.3-.5-.6-.8-.8-.2-.3-.5-.6-.8-.8-.2-.3-.5-.6-.8-.8-.2-.3-.5-.6-.8-.8-.2-.3-.5-.6-.8-.8-.2-.3-.5-.6-.8-.8-.2-.3-.5-.6-.8-.8-.2-.3-.5-.6-.8-.8-.2-.3-.5-.6-.8-.8-.5-.7-1.2-1.2-2.1-1.2H20.4c-1.3,0-2.4,1-2.5,2.3h0v43.2h0c.1.7.6,1.3,1.1,1.6.2.3.5.6.8.8.2.3.5.6.8.8.2.3.5.6.8.8.2.3.5.6.8.8.2.3.5.6.8.8.2.3.5.6.8.8.2.3.5.6.8.8.2.3.5.6.8.8.2.3.5.6.8.8.2.3.5.6.8.8.2.3.5.6.8.8.2.3.5.6.8.8.2.3.5.6.8.8.2.3.5.6.8.8.4.7,1.2,1.2,2.1,1.2h0s2.6,0,2.6,0c.2.2.3.3.5.4.2.3.5.6.8.8.2.3.5.6.8.8.2.3.5.6.8.8.2.3.5.6.8.8.2.3.5.6.8.8.2.3.5.6.8.8.2.3.5.6.8.8.2.3.5.6.8.8.5.7,1.3,1.2,2.2,1.2s1.7-.5,2.1-1.1l6.6-6.6h33.7c1.3,0,2.3-.9,2.5-2.1h0v-43.2h0ZM71.6,69.1h0c0,.1-.1.2-.3.2h-31.3l-6.7,7.2v.2c-.1,0-.2.1-.3.1s-.3-.1-.3-.3v-7.2h-10c-.1,0-.2-.1-.2-.2V28.2s0-.1,0-.1c0-.1,0-.2.2-.2h48.7c.1,0,.2.1.2.2h0v41Z"/></svg>