<?xml version="1.0" encoding="UTF-8"?><svg id="a" xmlns="http://www.w3.org/2000/svg" viewBox="0 0 115 115"><defs><style>.b{fill:#060606;}</style></defs><path class="b" d="M18,73.9q-1.9,1.6-.6,4.2c.5,1.1,1.1,1.4,2.6,1.4.4,0,.8,0,1.2,0,1.2-.1,2.8-.3,4.1.9,2.5,2.2,5.2,4.3,7.8,6.3,2.5,1.9,5.2,3.8,7.6,6l.3.3c2,1.8,4,3.6,6.8,3.6h0c1.4,0,2.8,0,4.1,0,2.8,0,5.6,0,8.4,0,9.8,0,19.9,0,29.9,0,2.2,0,4-.7,5.4-2,1.9-1.8,2.8-4,2.8-7,0-5.5,0-10.9,0-16.4v-6.6s0-7,0-7c0-5.7,0-11.3,0-17,0-3.7-1.5-6.3-4.6-8.2-2.6-1.6-5.1-3.3-7.5-4.9-2.8-1.9-5.7-3.9-8.6-5.6l-.3-.2c-2.6-1.5-5.2-3.1-8.3-3.1-2.9,0-5.8,0-8.7,0-8.8,0-17.9,0-26.8.2-3.7.1-6.7,1.2-8.9,3.2-2.9,2.7-4.2,6.1-4.3,10.9-.2,8.6-.1,17.4,0,25.9,0,3.5,0,7,0,10.6,0,2.4-.2,2.7-2.5,4.7ZM27.5,31.5c0-4.1,1.8-6,5.9-6,12,0,24,0,36,0,4,0,5.8,1.7,6.1,5.8,0,.4,0,.7,0,1.1v.5s0,35.9,0,35.9c0,.4,0,.7,0,1.1-.2,2.9-2.1,3.6-3.6,3.6-1.3,0-2.5,0-3.8,0-1.2,0-2.5,0-3.7,0-.3,0-.6,0-.9,0-.5,0-.8,0-1,0,0,.3.3.6,1,1,1.2.8,1.7,1.9,2.2,2.9.2.4.3.7.5,1,1.3,2.2,0,5-2,6.4-1.8,1.3-4.4.9-6-.9-.4-.5-.9-.9-1.5-1.4-1.3-1.2-2.7-2.5-3.4-4.5-.2-.5-.7-1.1-1.7-1.5-.6.7-1.2,1.3-1.8,1.9-1.4,1.3-2.8,2.7-3.7,4.5-.9,1.7-2.5,2.7-4.4,2.8-.1,0-.2,0-.3,0-1.9,0-3.8-.9-4.8-2.4-1.3-1.9-1.3-4.1,0-5.3.7-.7,1.3-1.5,1.9-2.4.4-.7.9-1.4,1.5-2.1-.8,0-1.7,0-2.5,0-.6,0-1.3,0-1.9,0-1.5,0-2.9,0-4.5,0-.7,0-1.5,0-2.2,0h-1v-21.3c0-6.9,0-13.8,0-20.7Z"/><path class="b" d="M57.2,60.6c2.5-2.3,3.9-5.4,3.7-7.9-.3-3.6-1.3-5.9-3.3-7.9-2-2.1-4.4-3.1-6.8-3-6.8.4-11,4.5-11.4,11.2-.2,2.7,1.1,5.5,3.4,7.6,2.1,1.9,4.8,3,6.9,2.6h.6c0,0,.6,0,.6,0,1.8.3,4.3-.7,6.4-2.6Z"/></svg>