<?xml version="1.0" encoding="UTF-8"?><svg id="a" xmlns="http://www.w3.org/2000/svg" viewBox="0 0 400 400"><defs><style>.b{fill:#050505;}</style></defs><path class="b" d="M336.2,161.5c-4.8-5.1-9.5-10.3-14.2-15.5-6.4-7.1-13.1-14.5-19.9-21.5-19.4-19.8-46.9-22.3-68.6-6.2-9.6,7.2-15.2,5.5-23.4-.5-18.9-13.8-41.9-13.8-59.9,0-10.7,8.2-17.1,5-24.9-.5-21.1-14.9-48.3-12.4-66,5.9-4.3,4.5-7.8,9.7-11.4,15.3-1.5,2.3-3,4.6-4.5,6.8v28.3c19.6,35,44.2,67.5,67.9,99,6.8,9,13.6,18,20.3,27.1,5.9,8,14.1,11.6,26.5,11.6h.1c9.6,0,19.2,0,28.8,0s22,0,33,0c30.9,0,62.8,0,94.3-.1,21.5-.1,30.3-9,30.5-30.7.2-20.1.2-40.5.1-60.3,0-11.8,0-23.5,0-35.3,0-9.7-2.8-17.2-8.8-23.6ZM97,191.7c-.3,0-.6,0-.9,0-8.3,0-16.4-3.3-22.3-9.2-6.1-6-9.4-13.9-9.3-22.3.2-16.9,14.3-30.7,31.4-30.7h0c17,0,31.1,13.7,31.3,30.6.3,16.9-13.3,31.1-30.3,31.6ZM180,191.7c-.1,0-.3,0-.4,0-17.1-.2-31-14.1-31-31.1,0-8.4,3.4-16.3,9.5-22.2,6.2-6,14.7-9.2,23.3-8.8,17,.7,30.5,15,29.9,32-.5,17-14.3,30.1-31.3,30.1ZM286,182.9c-5.9,5.7-13.7,8.9-22,8.9s-.8,0-1.1,0c-16.9-.6-30.8-15.1-30.3-31.8.5-16.8,14.6-30.3,31.5-30.3h.3c17,.1,31,14,31.1,30.9,0,8.5-3.3,16.5-9.4,22.4Z"/></svg>