<?xml version="1.0" encoding="UTF-8"?>
<svg id="a" xmlns="http://www.w3.org/2000/svg" width="400" height="400" viewBox="0 0 400 400">
<rect x="125.351" y="244.353" width="82.686" height="20.626" fill="currentColor"/>
<rect x="125.351" y="275.382" width="82.686" height="20.626" fill="currentColor"/>
<path d="M198.085,140.95h-62.059c-5.453-.013-10.69,2.133-14.565,5.971-3.859,3.904-6.035,9.166-6.061,14.655v41.433c.02,5.464,2.199,10.699,6.061,14.565,3.754,3.808,8.856,5.985,14.203,6.061h61.969c.06,0,.121,0,.181,0,11.391-.05,20.585-9.325,20.535-20.717l.452-41.252c0-.06,0-.121,0-.181-.05-11.391-9.325-20.585-20.717-20.535ZM197.723,202.919h-62.059v-41.343h62.059v41.343Z" fill="currentColor"/>
<path d="M284.649,141.932l-.088-.091c-5.623-6.127-13.14-9.598-20.443-13.181-1.571-8.388-4.259-33.63-6.612-51.253-1.9-12.544-.614-15.53-5.743-22.459-1.793-2.227-4.092-4.033-6.657-5.285-9.322-4.661-18.619-9.31-27.918-13.959-5.161-6.842-13.343-11.212-22.42-11.212h-.119c-1.197,0-2.424.081-3.646.241-12.691,1.657-22.661,11.688-24.245,24.397l-6.246,50.446h-33.442c-2.883,0-5.824.248-8.741.737-24.328,4.074-42.826,24.913-43.985,49.551-.043.918-.063,1.695-.064,2.444,0,.854.02,1.728.061,2.603,1.595,32.887,3.749,78.186,5.48,114.585l1.183,24.881c.333,6.914,2.012,13.538,4.803,19.58.915,3.048,2.131,5.961,3.626,8.699,6.19,11.66,16.06,17.708,27.696,23.004,11.37,5.691,22.744,11.361,34.11,17.062,2.278,1.144,4.663,2.103,7.136,2.857,9.593,2.619,11.058,1.84,23.298,1.983,17.886-.046,47.19.033,62.848,0,23.912,0,43.866-18.599,45.517-42.448,2.182-42.828,5.03-105.761,7.176-149.98.482-12.245-4.059-24.301-12.567-33.202ZM241.686,153.952c-.794,16.38-1.711,35.823-2.651,55.776l-.075,1.587c-1.368,29.029-2.782,59.046-3.938,82.109-.848,17.592-15.306,31.387-32.91,31.405h-68.378c-17.629,0-32.104-13.792-32.954-31.399l-1.259-26.48c-1.71-35.956-3.838-80.705-5.404-112.987-.026-.548-.039-1.098-.038-1.634.021-18.172,14.824-32.955,33.043-32.955h50.89l6.732-70.416c.95-12.826,15.508-13.669,17.577-4.513.95,5.701,9.083,74.442,9.083,74.442l6.294,1.796c5.668,1.618,10.822,4.72,14.898,8.963,6.205,6.485,9.519,15.346,9.091,24.306Z" fill="currentColor"/>
</svg>