<?xml version="1.0" encoding="UTF-8"?><svg id="a" xmlns="http://www.w3.org/2000/svg" viewBox="0 0 115 115"><defs><style>.b{fill:#050505;}</style></defs><path class="b" d="M27.5,82.9c3.3,3.7,6.8,7.6,10.1,11.5,2.3,2.6,4.9,3.9,8.3,3.9h0c6.6,0,13.2,0,19.8,0,7.6,0,15.5,0,23.2,0,6.4,0,9-2.6,9.2-9.2,0-3.5.1-7.1.2-10.6,0-5.2.2-10.6.4-16,.1-3.3-.8-6-2.9-8.5-4.6-5.3-9.4-11.1-15-18.1-5.8-7.2-9.6-8.2-17.9-4.7-.5.2-.9,0-1.2,0,0,0-.1,0-.2,0h-.8c0-.1,0-.9,0-.9-.9-9-4.8-13.5-11.6-13.7-6.6-.1-10.6,4.4-12.1,13.9l-.2,1.2-1.1-.4c-3.1-1.1-5.9-1.7-8.2-1.7-4,0-7,1.7-9.1,5.1-3.6,5.9-1.9,10.9,6.1,17.8l.8.7-.7.8c0,0-.2.2-.2.3-.2.3-.5.6-.9.9-4.1,3-6.4,6.2-6.8,9.6-.4,3.3,1.1,6.8,4.3,10.5,2.2,2.6,4.5,5.1,6.8,7.7ZM25,61.6c2.2-1.5,4.5-2.9,6.8-4.2.9-.5,1.7-1,2.6-1.6,1.1-.7,2.2-1.4,3.5-2.1l.7-.4-9.5-5.8c-.3-.2-.7-.4-1-.6-.8-.5-1.6-1-2.4-1.5-2.7-1.9-3.6-4.8-2.2-7.3,1.5-2.6,4.5-3.2,7.4-1.5,2.5,1.4,5,2.9,7.3,4.3,1.1.7,2.3,1.4,3.4,2.1.5.3,1.1.6,1.9,1.1h0c0,0,0-1.7,0-1.7,0-2.4,0-4.5,0-6.7,0-.7,0-1.4,0-2.1,0-1.6,0-3.3,0-5,.3-4.6,3-5.5,5.2-5.4,1.8,0,4.9.9,5,5.7,0,2.2,0,4.3,0,6.5,0,1.7,0,3.4,0,5.1,0,.4,0,.9,0,1.3,0,.8,0,1.6,0,2.3l9.3-5.5c.3-.2.6-.4.9-.6.8-.5,1.7-1,2.6-1.5,2.9-1.4,5.4-.9,7,1.4,1.8,2.5,1.1,5.4-1.7,7.4-1.6,1.1-3.3,2.1-5,3.1-.8.5-1.6.9-2.3,1.4-1.5.9-3,1.8-4.7,2.9l-1.2.7,2.2,1.3c2.5,1.5,4.8,2.9,7.1,4.3.3.2.6.4.9.5.8.5,1.7,1,2.5,1.6,2.9,2,3.7,4.7,2.3,7.2-1.5,2.8-4.4,3.3-7.8,1.5-1.5-.8-2.9-1.7-4.3-2.5-.6-.4-1.2-.7-1.7-1l-2.2-1.3c-1.3-.8-2.6-1.5-3.9-2.3v2s0,8.5,0,8.5c0,.5,0,1,0,1.5,0,1.2,0,2.4,0,3.6-.2,1.8-.9,3.3-2.1,4.3-.8.7-1.8,1-2.9,1s-.4,0-.5,0c-3-.3-4.7-2.3-4.7-5.4,0-2.9,0-5.9,0-8.8s0-3.5,0-5.2c0-.1,0-.3,0-.4,0-.4,0-.7-.1-1.1l-2.1,1.3c-2.5,1.5-5,3-7.5,4.5l-.7.4c-1.1.6-2.2,1.3-3.4,1.8-2.8,1-5.2.2-6.4-2.2-1.3-2.6-.7-5.1,1.6-6.6Z"/></svg>